<svg width="628" height="768" fill="none" xmlns="http://www.w3.org/2000/svg"><path d="M325.213 705.236c-70.181 0-127.239-17.117-127.239-38.799 0-21.112 57.058-38.8 127.239-38.8 70.181 0 127.239 17.118 127.239 38.8s-57.058 38.799-127.239 38.799zm0-75.887c-69.611 0-126.669 17.118-126.669 37.659 0 20.54 56.488 37.658 126.669 37.658 69.611 0 126.669-17.118 126.669-37.658-.571-21.112-57.058-37.659-126.669-37.659z" fill="url(#paint0_linear)"/><path d="M313.819 768C140.933 768 0 725.207 0 673.284c0-52.494 140.933-94.716 313.819-94.716 172.886 0 313.819 42.793 313.819 94.716 0 52.493-140.933 94.716-313.819 94.716zm0-187.15c-171.744 0-311.537 41.652-311.537 92.434 0 50.781 139.793 92.434 311.537 92.434 171.745 0 311.537-41.653 311.537-92.434-.57-50.782-139.792-92.434-311.537-92.434z" fill="url(#paint1_linear)"/><path d="M313.812 738.331c-118.68 0-215.109-29.099-215.109-65.046s96.429-65.046 215.109-65.046c118.681 0 215.109 29.099 215.109 65.046s-96.428 65.046-215.109 65.046zm0-128.951c-118.11 0-214.538 28.529-214.538 63.905 0 35.376 95.858 63.905 214.538 63.905 118.11 0 214.539-28.529 214.539-63.905-.571-34.805-96.429-63.905-214.539-63.905z" fill="url(#paint2_linear)"/><path d="M313.822 741.758c-124.387 0-225.95-30.241-225.95-67.899s101.563-67.899 225.95-67.899c124.386 0 225.95 30.241 225.95 67.899 0 37.088-101.564 67.899-225.95 67.899zm0-135.227c-123.816 0-224.809 30.24-224.809 66.757 0 37.088 100.993 66.758 224.809 66.758s224.809-30.24 224.809-66.758c0-36.517-100.993-66.757-224.809-66.757z" fill="url(#paint3_linear)"/><path d="M326.95 667.007h-3.994l6.276-439.917h3.994l-6.276 439.917z" fill="url(#paint4_linear)"/><path d="M498.676 94.712s-90.723-9.13-124.387 65.616c-1.141 2.283-2.282 6.847-2.282 11.412 0 10.841 6.847 30.811 28.529 30.811 2.282 0 8.559-.57 11.411-1.141 7.989-1.712 78.74-29.67 86.729-106.698z" fill="#FED9F0"/><path d="M498.649 94.707l-120.963 96.428s73.605-29.099 120.963-96.428z" fill="#FED9F0"/><path d="M377.704 191.708s0-.571 0 0c-.571-.571-.571-.571 0-.571l120.963-96.428h.57v.57c-47.358 66.188-120.963 95.858-121.533 96.429zm119.821-95.287l-117.539 93.005c11.982-5.136 74.746-34.235 117.539-93.005z" fill="url(#paint5_linear)"/><path d="M378.829 192.846c-.571 0-.571 0 0 0-.571-.57 0-.57 0-.57 39.941-.571 70.752-26.818 89.011-49.07 19.97-23.965 30.811-48.5 30.811-48.5h.571v.571s-10.841 24.535-30.812 48.499c-18.829 22.253-49.64 49.07-89.581 49.07z" fill="url(#paint6_linear)"/><path d="M394.248 195.699c-4.565 0-9.7-.57-14.265-1.141 0 0-.57 0 0-.571h.571c45.076 6.847 75.316-20.541 91.863-44.505 18.259-26.247 26.247-54.205 26.247-54.776h.57v.571s-7.988 28.529-26.246 54.776c-10.841 15.405-23.394 27.388-37.088 34.805-12.553 7.418-26.817 10.841-41.652 10.841z" fill="url(#paint7_linear)"/><path d="M375.968 189.423c9.129-38.8 42.223-62.193 67.899-75.317 27.958-14.264 54.205-19.4 54.205-19.4h.571v.571s-26.247 5.135-54.206 19.4c-25.676 13.123-58.199 36.517-68.469 74.746.57 0 .57 0 0 0z" fill="url(#paint8_linear)"/><path d="M377.704 191.705s0-.57 0 0c-.571-.57-.571-.57 0 0 30.241-55.346 120.392-96.428 120.963-96.999h.571v.571c-1.142.57-90.723 41.082-121.534 96.428 0-.57 0 0 0 0z" fill="url(#paint9_linear)"/><path d="M374.846 186.57c3.994-21.112 13.123-38.8 26.817-53.064 10.841-11.412 25.106-20.541 41.653-27.388 28.529-11.411 54.775-11.411 55.346-11.411 0 0 .571 0 .571.57s0 .57-.571.57c0 0-26.817 0-54.776 11.412-26.246 9.7-59.34 31.953-69.04 79.311.571 0 .571 0 0 0z" fill="url(#paint10_linear)"/><path d="M400.536 203.692c-7.988 0-14.265-2.853-19.4-7.418-6.847-6.846-9.7-17.117-9.7-23.964 0-4.565 1.141-8.559 2.853-11.412 33.094-74.746 124.387-66.187 124.957-66.187h.571v.57c-4.565 40.512-26.247 66.759-43.935 82.164-18.829 15.977-38.229 23.965-43.364 25.106-3.424.57-9.7 1.141-11.982 1.141zm89.581-108.41c-23.964 0-87.869 5.706-114.687 65.616-1.141 2.853-2.282 6.847-2.282 10.842 0 6.276 2.282 15.976 9.129 22.823 4.565 4.564 10.841 7.417 18.829 7.417 2.283 0 8.559-.57 11.412-1.141 2.853-.57 22.823-7.417 42.793-25.105 17.118-14.836 38.8-40.512 43.365-80.452h-8.559z" fill="url(#paint11_linear)"/><path d="M457.049 49.642s-99.852 21.111-110.693 112.975c-.571 2.853-.571 7.988 1.141 13.123 3.423 11.412 17.117 30.811 40.511 23.394 2.283-.571 9.13-3.994 11.982-5.135 7.989-5.136 74.176-59.341 57.059-144.357z" fill="#FED9F0"/><path d="M457.03 49.638l-96.999 143.786c0 .571 69.04-55.346 96.999-143.786z" fill="#FED9F0"/><path d="M360.035 194c-.571 0-.571-.571-.571-.571l96.999-143.786h.57v.57C429.646 136.942 361.176 193.43 360.035 194zm95.857-141.504l-94.146 139.221c11.412-9.7 68.47-62.193 94.146-139.221z" fill="url(#paint12_linear)"/><path d="M361.767 195.71s-.571-.57 0 0c-.571-.57-.571-.57 0-.57 42.793-14.265 66.187-52.494 78.74-82.734 13.123-32.524 16.547-62.194 16.547-62.194s0-.57.57-.57c0 0 .571 0 .571.57s-3.424 29.67-16.547 62.764c-13.123 29.67-37.088 68.47-79.881 82.734z" fill="url(#paint13_linear)"/><path d="M364.051 196.851c-.57 0-.57 0 0 0-.57-.571 0-.571 0-.571 50.782-7.988 73.035-47.358 83.305-79.31 10.841-34.235 9.7-67.329 9.7-67.329s0-.57.571-.57c0 0 .57 0 .57.57s1.141 33.094-9.7 67.899c-6.276 19.97-15.976 37.088-27.388 49.641-15.976 16.546-34.805 26.246-57.058 29.67z" fill="url(#paint14_linear)"/><path d="M357.771 192.858c-2.853-44.506 23.965-81.023 47.358-103.846 25.106-24.535 51.353-39.37 51.353-39.37h.57v.57s-26.246 14.835-51.352 39.37c-22.823 22.824-49.64 58.77-47.929 103.276.571-.571.571 0 0 0z" fill="url(#paint15_linear)"/><path d="M360.042 193.998s-.571 0 0 0c14.264-69.611 95.857-143.786 96.998-144.927h.571v.57c-1.141 1.141-82.734 75.317-97.569 144.357.57 0 0 0 0 0z" fill="url(#paint16_linear)"/><path d="M355.499 190.005c-2.853-23.965 1.141-46.217 10.841-65.617 7.988-15.976 19.97-30.24 35.376-43.364 26.247-21.682 54.776-31.382 54.776-31.382h.57v.57s-28.529 9.13-54.776 31.382c-23.964 19.971-51.922 54.776-46.787 108.411.57 0 .57 0 0 0z" fill="url(#paint17_linear)"/><path d="M377.727 201.417c-4.565 0-9.13-1.141-13.124-3.424-9.7-5.135-15.976-15.405-18.258-22.252-1.141-4.565-1.712-9.7-1.141-13.124C356.045 71.895 455.326 49.642 456.467 49.072h.57v.57c8.559 44.506-5.705 80.452-19.399 102.134-14.835 23.394-33.094 38.8-37.659 41.653-2.853 1.711-9.7 4.564-11.982 5.706-2.853 1.711-6.847 2.282-10.27 2.282zm78.74-150.633c-9.13 2.282-99.281 26.246-109.552 111.833-.57 3.424-.57 8.559 1.141 12.553 2.283 6.847 7.989 16.547 17.118 21.112 6.847 3.423 14.264 3.994 22.252 1.141 2.283-.571 9.13-3.994 11.983-5.135 2.853-1.712 21.682-15.977 37.658-41.082 13.694-21.682 27.958-56.488 19.4-100.422z" fill="url(#paint18_linear)"/><path d="M392.556 9.705s-96.428 59.91-74.175 159.192c.57 3.423 2.852 8.559 5.705 13.123 7.988 10.271 29.1 25.676 50.782 8.559 2.282-1.712 7.988-7.418 10.271-10.27 7.417-7.418 55.916-89.011 7.417-170.604z" fill="#FED9F0"/><path d="M392.558 9.706l-48.5 186.58s51.353-84.446 48.5-186.58z" fill="#FED9F0"/><path d="M344.058 196.854c0-.57 0-.57 0 0l47.929-187.15s0-.57.571-.57c0 0 .57 0 .57.57 2.853 100.993-47.928 186.009-49.07 187.15.571-.57.571 0 0 0zm48.5-184.297L345.77 193.43c7.988-14.835 47.929-90.722 46.788-180.874z" fill="url(#paint19_linear)"/><path d="M346.346 197.425c-.57-.57-.57-.57 0-.57 39.37-30.812 49.641-79.882 51.353-115.828 2.282-38.8-5.136-70.752-5.136-71.323 0 0 0-.57.571-.57 0 0 .57 0 .57.57s7.418 32.523 5.136 71.323c-2.283 35.946-12.553 85.016-52.494 116.398.571 0 0 0 0 0z" fill="url(#paint20_linear)"/><path d="M349.182 197.996c-.571-.571-.571-.571 0-.571 49.64-27.388 58.769-77.028 57.628-113.545-1.141-39.941-14.264-73.605-14.264-74.176v-.57h.57c0 .57 13.124 34.234 14.265 74.175.57 23.394-2.853 44.505-10.271 62.193-9.7 22.824-25.676 40.512-47.928 52.494z" fill="url(#paint21_linear)"/><path d="M341.79 195.713c-.571 0-.571 0 0 0-19.4-45.076-3.994-93.575 11.412-126.098 17.117-35.376 39.37-60.481 39.37-60.481h.57v.57s-22.252 25.106-39.37 60.482c-15.405 32.523-30.811 80.451-11.982 125.527z" fill="url(#paint22_linear)"/><path d="M344.057 196.855s0-.57 0 0c-10.842-77.599 47.358-186.009 47.928-187.15h.571v.57c0 .571-58.199 108.981-48.499 186.58.57-.57.57 0 0 0 .57 0 .57 0 0 0z" fill="url(#paint23_linear)"/><path d="M338.334 194.002c-.57 0-.57 0 0 0-11.411-23.965-15.405-48.5-12.553-73.035 2.283-19.399 9.7-39.37 21.112-58.77 19.4-32.522 45.646-53.063 45.646-53.063h.571v.57s-26.247 20.541-45.647 53.064c-18.258 30.241-34.234 77.029-9.129 130.093v1.141z" fill="url(#paint24_linear)"/><path d="M354.894 199.133c-1.712 0-2.853 0-4.565-.571-11.982-1.712-22.252-9.7-26.817-16.547-2.853-3.994-5.135-9.7-5.706-13.694-22.252-98.71 73.605-159.192 74.176-159.762l.57-.57.571.57c25.676 43.364 23.394 85.587 17.117 114.116-6.847 30.241-19.97 53.064-23.964 57.629-2.282 2.852-8.559 8.558-10.841 10.27-6.276 5.706-13.123 8.559-20.541 8.559zm37.658-188.292c-8.558 5.706-93.575 64.476-73.034 158.051.571 3.423 2.853 8.559 5.706 12.553 4.565 6.276 14.264 14.264 25.676 15.405 8.559 1.142 16.547-1.141 23.965-6.847 1.711-1.711 7.988-7.417 10.27-10.27 2.282-2.853 16.547-25.106 23.964-57.058 6.277-27.388 7.988-69.61-16.547-111.834z" fill="url(#paint25_linear)"/><path d="M147.776 94.715s90.723-9.13 124.387 65.617c1.141 2.282 2.282 6.847 2.282 11.412 0 10.841-6.847 30.811-28.529 30.811-2.282 0-8.559-.571-11.412-1.141-7.988-1.712-78.74-29.67-86.728-106.699z" fill="#FED9F0"/><path d="M147.777 94.714l120.963 96.428s-73.605-29.099-120.963-96.428z" fill="#FED9F0"/><path d="M268.741 191.713c-1.142-.571-74.176-29.67-121.534-96.428v-.57h.57l120.964 96.427c.57 0 .57 0 0 .571 0-.571 0 0 0 0zM148.919 96.426c42.223 58.77 104.986 87.869 117.539 93.004L148.919 96.426z" fill="url(#paint26_linear)"/><path d="M267.599 192.856c-40.511-.57-70.752-26.817-89.581-49.07-19.97-23.964-30.811-48.5-30.811-48.5v-.57h.57s10.841 24.535 30.812 48.5c18.258 22.252 49.07 48.499 89.01 49.07.571 0 .571 0 0 .57.571 0 .571 0 0 0z" fill="url(#paint27_linear)"/><path d="M252.194 195.709c-14.835 0-28.529-3.423-41.653-10.841-13.694-7.988-25.676-19.4-37.087-34.805-18.259-26.247-26.247-54.776-26.247-54.776v-.57h.57s7.989 28.528 26.247 54.775c17.118 23.964 46.788 51.352 91.864 44.505h.57v.571c-5.135 1.141-9.7 1.141-14.264 1.141z" fill="url(#paint28_linear)"/><path d="M270.459 189.432c-.57 0-.57 0 0 0-9.7-38.229-42.793-62.194-68.47-74.746-27.958-14.265-54.205-19.4-54.205-19.4s-.57 0 0-.57c0 0 0-.571.571 0 0 0 26.247 5.135 54.205 19.399 25.676 13.123 58.199 36.517 67.899 75.317z" fill="url(#paint29_linear)"/><path d="M268.741 191.715s0-.571 0 0c-30.812-54.776-120.393-95.858-121.534-96.428v-.57h.57c.571.57 90.723 41.081 120.964 96.998.57-.571.57-.571 0 0 0-.571 0 0 0 0z" fill="url(#paint30_linear)"/><path d="M271.593 186.579c-.571 0-.571 0 0 0-9.7-46.788-42.794-69.04-69.04-79.881-28.529-11.412-54.776-11.412-54.776-11.412s-.571 0-.571-.57c0-.571 0-.571.571-.571 0 0 26.817 0 55.346 11.411 16.547 6.847 30.812 15.977 41.653 27.388 13.694 14.835 22.823 32.523 26.817 53.635z" fill="url(#paint31_linear)"/><path d="M245.917 203.7c-2.282 0-9.129-.571-11.982-1.141-5.136-1.142-24.535-9.13-43.364-25.106-17.688-14.835-39.37-41.652-43.935-82.163v-.571h.57c1.142 0 91.864-8.559 124.958 66.187 1.141 2.853 2.853 7.418 2.853 11.412 0 6.847-2.283 17.117-9.7 23.964-4.565 4.565-11.412 7.418-19.4 7.418zM148.348 95.29c4.564 39.94 26.246 65.616 43.364 80.451 19.97 17.118 39.94 24.535 42.793 25.106 2.853.57 9.7 1.141 11.412 1.141 7.417 0 13.694-2.282 18.829-7.418 6.847-6.847 9.129-16.546 9.129-22.823 0-3.994-1.141-8.558-2.282-10.841-31.952-70.181-115.257-66.187-123.245-65.617z" fill="url(#paint32_linear)"/><path d="M189.412 49.641s99.852 21.112 110.693 112.975c.57 2.853.57 7.988-1.141 13.123-3.424 11.412-17.118 30.812-40.512 23.394-2.282-.57-9.129-3.994-11.982-5.135-7.988-5.135-74.175-59.34-57.058-144.357z" fill="#FED9F0"/><path d="M189.429 49.641l96.999 143.787c0 .57-69.041-55.347-96.999-143.787z" fill="#FED9F0"/><path d="M286.427 193.998c-1.141-.571-69.61-57.058-97.569-144.357v-.57h.571l96.998 143.786c.571 1.141.571 1.141 0 1.141zM190.57 52.494c25.676 77.028 82.734 129.522 94.146 139.792L190.57 52.494z" fill="url(#paint33_linear)"/><path d="M284.68 195.71c-42.793-14.265-66.758-53.064-79.31-83.305-13.694-32.523-16.547-62.193-16.547-62.764 0 0 0-.57.57-.57 0 0 .571 0 .571.57s3.423 29.67 16.547 62.193c12.553 29.67 35.946 68.47 78.74 82.734 0 0 0 .571-.571 1.142.571-.571 0 0 0 0z" fill="url(#paint34_linear)"/><path d="M282.413 196.851c-22.824-3.424-41.653-13.694-56.488-29.67-11.982-13.124-21.111-29.671-27.388-49.641-10.841-34.235-9.699-67.328-9.699-67.899 0 0 0-.57.57-.57 0 0 .571 0 .571.57s-1.142 33.094 9.699 67.329c10.271 31.381 32.524 70.752 83.305 79.31 0 0 0 .571-.57.571.57 0 .57 0 0 0z" fill="url(#paint35_linear)"/><path d="M288.698 192.857c-.571 0-.571-.571 0 0 2.282-44.505-25.106-80.452-47.929-103.275-25.106-24.535-51.352-39.37-51.352-39.37v-.57h.57s26.247 14.834 51.352 39.37c22.824 22.823 50.212 59.34 47.359 103.845z" fill="url(#paint36_linear)"/><path d="M286.392 193.998s-.571 0 0 0c-14.835-69.04-96.428-143.216-97.569-144.357v-.57h.57c1.142 1.14 82.735 75.887 96.999 144.927.571 0 0 0 0 0z" fill="url(#paint37_linear)"/><path d="M290.987 190.004c-.57 0-.57 0 0 0 5.136-53.635-22.823-88.44-46.787-108.41-26.247-21.683-54.205-30.812-54.776-31.382 0 0-.57 0 0-.571 0 0 0-.57.571 0 0 0 28.529 9.7 54.775 31.382 15.406 12.553 27.388 27.388 35.376 43.364 9.7 19.4 13.694 41.652 10.841 65.617z" fill="url(#paint38_linear)"/><path d="M268.723 201.416c-3.424 0-6.847-.571-10.271-1.712-2.282-.571-9.129-3.994-11.982-5.706-5.135-2.853-23.394-18.258-37.658-41.652-13.694-22.253-27.959-57.629-19.4-102.134v-.57h.571c1.141 0 100.422 22.252 111.263 113.545.57 3.423.57 8.558-1.141 13.123-2.283 6.847-7.989 17.118-18.259 22.253-4.565 1.711-8.559 2.853-13.123 2.853zm-78.74-150.634c-8.559 43.935 5.706 78.741 19.399 100.423 15.977 25.105 34.235 39.37 37.659 41.081 2.853 1.712 9.7 4.565 11.982 5.136 7.988 2.852 15.405 2.282 22.252-1.142 9.7-5.135 15.406-14.835 17.118-21.111 1.141-4.565 1.141-9.7 1.141-12.553-10.27-85.587-100.422-109.551-109.551-111.834z" fill="url(#paint39_linear)"/><path d="M253.915 9.702s96.428 59.91 74.175 159.192c-.57 3.423-2.853 8.559-5.706 13.123-7.988 10.271-29.099 25.676-50.781 8.559-2.283-1.712-7.988-7.418-10.271-10.271-7.417-7.417-55.917-89.01-7.417-170.603z" fill="#FED9F0"/><path d="M253.891 9.706l48.499 186.58s-51.352-84.446-48.499-186.58z" fill="#FED9F0"/><path d="M301.817 196.855s0-.57 0 0c-1.141-1.141-51.352-85.587-49.07-187.15 0 0 0-.57.571-.57 0 0 .57 0 .57.57l47.929 187.15c.57-.57.57-.57 0 0 .57 0 .57 0 0 0zM253.888 12.558c-1.141 90.152 38.8 166.039 46.788 180.874L253.888 12.558z" fill="url(#paint40_linear)"/><path d="M300.14 197.417s-.571 0 0 0c-39.941-30.812-50.211-80.452-51.923-116.399-2.282-38.8 5.135-71.322 5.135-71.322s0-.57.571-.57c0 0 .571 0 .571.57s-7.418 32.523-5.136 71.322c1.712 35.947 12.553 85.017 51.353 115.828l-.571.571z" fill="url(#paint41_linear)"/><path d="M297.266 197.991c-22.252-12.553-38.229-29.67-47.929-52.494-7.417-17.688-11.411-38.799-10.27-62.193 1.141-39.94 14.264-73.605 14.264-74.175 0 0 .571-.571.571 0 0 0 .571.57 0 .57 0 .57-13.123 34.235-14.265 74.176-1.141 36.517 7.989 86.157 57.629 113.545.571 0 .571.571 0 .571z" fill="url(#paint42_linear)"/><path d="M304.692 195.705c18.258-45.076 3.423-93.575-12.553-125.528-17.117-35.376-38.8-59.91-39.37-60.481v-.57h.57s22.253 25.105 39.37 60.48c16.547 32.524 31.382 81.023 11.983 126.099.57 0 .57 0 0 0z" fill="url(#paint43_linear)"/><path d="M301.839 196.846s0-.571 0 0c9.7-77.599-48.5-186.01-49.07-187.15v-.57h.57c1.142 1.14 59.341 109.551 48.5 187.72.57-.571.57 0 0 0z" fill="url(#paint44_linear)"/><path d="M308.115 193.999c-.57 0-.57-.57-.57-.57 25.105-53.064 9.129-100.422-9.13-130.093-19.4-32.523-45.076-53.063-45.646-53.063v-.571h.57s26.247 20.54 45.647 53.064c11.411 19.4 18.829 38.799 21.111 58.77 3.994 23.964 0 48.499-11.982 72.463.571 0 .571 0 0 0z" fill="url(#paint45_linear)"/><path d="M291.572 199.131c-7.418 0-14.265-2.853-21.112-7.417-2.282-1.712-7.988-7.418-10.841-10.271-3.994-5.135-17.688-27.958-23.964-57.628-6.276-27.959-8.559-70.752 17.117-114.116l.571-.57.571.57c1.141.57 96.428 61.052 74.175 159.762-.571 3.424-2.853 9.129-5.706 13.694-4.564 6.277-14.835 14.835-26.817 16.547-1.141-1.141-2.853-.571-3.994-.571zM253.914 10.84c-24.535 42.223-22.824 84.446-16.547 111.834 7.417 32.523 21.111 54.205 23.964 57.058 2.282 2.853 8.559 8.558 10.271 10.27 7.417 5.706 15.405 7.988 23.964 6.847 11.411-1.712 21.111-9.7 25.676-15.406 2.853-3.994 5.135-9.129 5.706-12.552 20.541-93.575-64.476-152.345-73.034-158.051z" fill="url(#paint46_linear)"/><path d="M318.376 1.139s-77.599 86.728-27.388 177.45c1.712 2.853 5.135 7.988 9.7 11.412 10.841 7.988 35.946 16.547 52.493-6.276 1.712-2.283 5.706-9.7 7.418-13.124 3.994-9.7 28.529-103.275-42.223-169.462z" fill="#FED9F0"/><path d="M318.375 1.14l5.705 197.42c0-.57 26.247-98.139-5.705-197.42z" fill="#FED9F0"/><path d="M324.081 198.559c-.571 0-.571 0 0 0l-5.706-197.42s0-.57.57-.57h.571c30.811 98.71 5.135 196.849 4.565 197.99zM318.945 3.992l5.136 191.144c3.994-17.117 21.682-103.275-5.136-191.144z" fill="url(#paint47_linear)"/><path d="M326.378 198.563c-.57 0-.57-.571-.57-.571 29.67-41.652 25.676-93.005 17.688-128.38-9.13-38.8-25.106-67.9-25.676-68.47v-.57h.57c0 .57 16.547 29.67 25.676 68.469 8.559 35.947 12.553 87.299-17.688 129.522z" fill="url(#paint48_linear)"/><path d="M329.231 198.56c-.57 0-.57-.571-.57-.571 41.081-41.652 35.946-93.005 24.534-128.38-12.552-38.8-34.805-67.9-35.375-67.9v-.57h.57c0 .57 22.823 29.67 35.376 68.47 7.418 22.823 9.7 44.505 7.418 64.475-2.853 23.964-13.694 46.217-31.953 64.476z" fill="url(#paint49_linear)"/><path d="M321.227 198.562c-.57 0-.57 0 0 0-31.382-38.8-30.811-90.722-24.535-127.24C303.539 31.952 317.804.57 317.804.57s.57-.57.57 0c0 0 .571.571 0 .571 0 .57-14.264 31.382-21.111 70.752-6.277 36.517-7.418 87.869 23.964 126.098.571 0 0 .571 0 .571z" fill="url(#paint50_linear)"/><path d="M324.082 198.562s-.57 0 0 0c-32.523-73.034-6.276-196.28-5.705-197.991 0 0 0-.571.57-.571 0 0 .571 0 .571.57 0 1.142-26.247 124.387 5.706 196.851-.571 1.141-.571 1.141-1.142 1.141z" fill="url(#paint51_linear)"/><path d="M317.217 197.989s-.571-.57 0 0c-18.259-19.97-29.1-42.793-32.523-67.899-2.853-19.97-1.712-41.082 3.994-63.334 9.7-37.659 29.67-65.617 29.67-65.617h.571v.57s-19.971 27.959-29.671 65.617c-9.129 34.806-11.411 85.587 27.959 130.093.57 0 .57 0 0 .57 0-.57 0 0 0 0z" fill="url(#paint52_linear)"/><path d="M325.777 199.133c-10.271 0-19.971-4.565-25.676-8.559-4.565-3.423-7.989-7.988-9.7-11.411C240.76 89.011 317.218 1.142 317.789.571l.57-.57.571.57C356.017 35.377 366.288 77.6 368 107.27c2.282 31.382-4.565 57.628-7.418 63.905-1.712 3.423-5.706 10.841-7.418 13.123-5.705 8.559-13.693 13.123-22.823 14.835h-4.564zm-7.418-196.85c-6.847 7.988-73.605 90.722-26.817 176.309 1.712 3.424 5.135 7.988 9.129 10.841 6.277 4.565 17.688 9.7 29.67 7.988 8.559-1.141 15.977-6.276 21.682-14.264 1.712-2.282 5.706-9.7 7.418-13.124 1.712-3.423 9.129-29.099 6.847-63.334-1.712-28.529-11.412-70.181-47.929-104.416z" fill="url(#paint53_linear)"/><path d="M267.615 196.851c5.706-23.964-17.688-37.088-34.235-40.511-16.547-3.423-28.529-1.712-43.364 7.418-11.412 6.846-22.823 15.976-35.946 11.982 2.852 13.694 24.535 21.682 34.805 25.676 14.265 5.135 29.1 9.7 43.935 10.27 12.552 0 31.382-2.282 34.805-14.835z" fill="#FED9F0"/><path d="M268.17 192.291c-13.694-21.683-42.223-19.971-62.194-11.983-18.258 7.418-31.952 2.853-49.64-2.853l-1.141-.57v-1.141l1.711.57c17.118 5.706 30.812 9.7 48.5 2.853 20.541-7.988 49.07-9.7 63.334 12.553l-.57.571z" fill="url(#paint54_linear)"/><path d="M200.841 193.999c-5.706 0-10.841-.571-15.405-2.282-11.983-3.995-27.388-11.412-30.241-14.836l.57-.57c3.424 3.423 18.259 10.841 30.241 14.264 9.129 2.853 22.253 2.853 34.235-.57 3.423-1.141 5.706-1.712 8.559-2.853 5.135-1.712 10.27-3.424 17.117-3.994 9.129-.571 15.976 3.423 22.253 7.417l1.141.571-.571.571-1.141-.571c-6.847-3.994-13.123-7.988-21.682-7.418-6.276.571-11.411 2.283-16.547 3.994-2.853 1.142-5.706 1.712-8.558 2.853-7.418 2.283-13.694 3.424-19.971 3.424z" fill="url(#paint55_linear)"/><path d="M266.474 191.715c-2.853-10.271-7.988-17.118-16.547-21.112-21.682-10.27-56.487 4.565-56.487 5.135-15.977 5.706-38.8.571-39.37.571v-1.141s22.823 5.135 38.799-.571c.571 0 35.376-15.405 57.629-5.135 8.558 3.994 14.264 11.412 16.546 21.682l-.57.571z" fill="url(#paint56_linear)"/><path d="M214.551 202.558c-9.129 0-17.688-2.853-26.247-5.705l-1.141-.571c-11.411-3.994-23.964-10.271-27.958-13.694l-3.424-3.423-1.711-1.712.57-.571 1.712 1.712c1.141 1.141 1.712 2.282 2.853 3.423 3.994 2.853 16.547 9.7 27.958 13.694l1.141.571c10.271 3.423 19.4 6.276 30.241 5.135a72.25 72.25 0 0015.976-3.423c4.565-1.141 9.7-2.853 14.836-3.424l12.552-1.712h1.712c1.141 0 2.853.001 3.994-.57l.571.57c-1.142.571-2.853.571-3.994.571h-1.712l-12.553 1.712c-5.135.57-9.7 1.712-14.835 3.423-5.135 1.141-10.841 2.853-16.547 3.424-1.141.57-2.282.57-3.994.57z" fill="url(#paint57_linear)"/><path d="M233.951 212.256h-1.141c-15.977 0-31.382-5.135-43.935-10.27l-.571-.571c-10.27-3.994-31.382-11.982-34.234-26.246v-1.142l1.141.571c11.411 3.423 21.682-2.853 31.952-9.7 1.141-.57 2.283-1.141 3.424-2.282 14.835-9.13 26.817-11.412 43.934-7.988 10.841 2.282 24.535 8.558 31.382 19.399 3.994 6.277 5.136 13.694 3.424 22.253-4.565 13.694-23.394 15.976-35.376 15.976zm-78.17-35.376c3.424 12.553 23.394 19.971 33.094 23.394l.571.571c13.123 5.135 27.958 9.699 43.364 10.27 11.411 0 30.241-1.712 33.664-14.264 1.712-7.418.571-14.836-3.424-21.112-6.276-10.27-19.97-16.547-30.24-18.829-16.547-3.424-27.959-1.712-42.794 7.417-1.141.571-2.282 1.142-3.423 2.283-9.13 6.276-19.4 13.123-30.812 10.27z" fill="url(#paint58_linear)"/><path d="M309.256 202.556c0-25.106-25.676-30.241-42.223-28.529-16.547 1.712-27.958 7.418-39.941 20.541-9.129 10.27-18.829 22.253-31.952 22.253 5.706 12.552 28.529 13.693 39.37 14.264 14.835.571 30.241.571 44.505-3.994 11.983-2.853 30.241-10.841 30.241-24.535z" fill="#FED9F0"/><path d="M196.851 218.528v-1.141h1.712c18.258 0 31.952 0 47.928-12.552 17.688-14.265 45.076-24.535 63.905-7.418l-.57.571c-18.259-16.547-45.076-6.277-62.764 7.417-15.976 12.553-30.241 12.553-48.499 12.553l-1.712.57z" fill="url(#paint59_linear)"/><path d="M228.788 223.099c-12.553 0-28.529-2.283-32.523-4.565l.571-.57c3.994 2.282 19.97 4.564 31.952 4.564 9.7 0 21.682-3.994 32.523-10.841 2.853-1.712 5.135-3.423 7.988-5.135 4.565-3.423 9.129-6.847 15.406-9.129 8.559-3.424 15.976-1.712 23.394.57l1.141.571v1.141l-1.141-.571c-7.418-2.282-14.265-3.994-22.824-.57-5.705 2.282-10.27 5.706-15.405 9.129-2.283 1.712-5.135 3.424-7.988 5.135-10.841 6.277-22.824 10.271-33.094 10.271z" fill="url(#paint60_linear)"/><path d="M195.694 217.962v-1.141s22.823-2.283 37.088-12.553c0 0 31.382-26.817 55.346-22.253 8.559 1.712 15.406 6.847 19.97 15.406l-.57.571c-4.565-8.559-10.841-13.694-19.4-15.406-23.394-4.565-54.205 21.682-54.776 22.253-14.264 10.841-37.658 13.123-37.658 13.123z" fill="url(#paint61_linear)"/><path d="M233.923 227.662h-2.282c-11.983 0-25.677-2.853-30.241-4.565-1.712-.571-2.853-1.712-3.994-2.282-.571-.571-1.142-1.142-1.712-1.142l.57-.57c.571.57 1.142 1.141 1.712 1.141 1.141.571 2.283 1.712 3.994 2.282 3.994 1.712 18.259 4.565 29.671 4.565h2.282c10.27 0 19.4 0 29.099-3.994 5.136-2.282 10.271-5.135 14.836-7.988 4.564-2.853 8.558-5.706 13.693-7.418l11.983-5.135c.57 0 1.141-.571 1.711-.571 1.142-.57 2.853-1.141 3.424-1.711l.57.57c-1.141 1.142-2.282 1.141-3.994 1.712-.57 0-1.141.571-1.711.571l-11.983 5.135c-4.564 2.282-9.129 5.135-13.123 7.417-4.565 2.853-9.7 6.277-14.835 8.559-9.7 2.853-19.4 3.424-29.67 3.424z" fill="url(#paint62_linear)"/><path d="M247.056 232.796c-3.994 0-8.559 0-12.553-.57h-1.141c-10.841-.571-33.094-1.712-39.37-14.265l-.571-1.141h1.141c11.983 0 20.541-9.7 28.529-19.4l2.853-2.853c11.982-13.694 23.394-19.399 40.512-21.111 10.841-1.141 25.676.57 34.234 9.129 5.706 5.135 8.559 11.982 8.559 20.541-.571 14.265-19.4 22.253-30.811 25.676-9.7 2.853-20.541 3.994-31.382 3.994zm-50.211-14.264c6.276 10.841 26.817 11.982 37.087 12.552h1.142c13.694.571 29.67.571 44.505-3.994 10.841-3.423 29.099-10.841 29.67-23.964 0-7.988-2.853-14.264-7.988-19.4-8.559-7.988-22.823-9.7-33.094-8.558-16.547 1.711-27.388 7.417-39.37 20.54l-2.853 2.853c-8.558 9.13-17.117 18.829-29.099 19.971z" fill="url(#paint63_linear)"/><path d="M385.138 196.844c-5.706-23.964 17.688-37.088 34.235-40.511 16.546-3.424 28.529-1.712 43.364 7.417 11.411 6.847 22.823 15.977 35.946 11.983-2.853 13.693-24.535 21.682-34.805 25.676-14.265 5.135-29.1 9.7-43.935 10.27-12.553 0-31.382-2.282-34.805-14.835z" fill="#FED9F0"/><path d="M383.995 192.28l-.57-.571c14.265-22.253 43.364-20.541 63.334-12.553 17.688 6.847 31.382 2.853 48.5-2.853l1.141-.57v1.141l-1.141.57c-17.688 5.706-31.382 10.271-49.641 2.853-18.829-7.988-47.358-9.699-61.623 11.983z" fill="url(#paint64_linear)"/><path d="M451.879 193.994c-6.277 0-12.553-1.142-18.829-2.853-3.424-1.142-6.277-1.712-8.559-2.853-5.135-1.712-10.27-3.424-16.547-3.994-8.559-.571-14.835 3.423-21.682 7.417l-1.141.571-.571-.571 1.142-.57c6.846-3.994 13.123-8.559 22.252-7.418 6.277.571 11.412 2.282 17.118 3.994 2.852 1.141 5.705 1.712 8.558 2.853 11.982 3.424 24.535 3.424 34.235.571 11.982-3.994 26.817-10.841 30.241-14.265l.57.571c-3.423 3.423-18.258 10.841-30.24 14.835-5.706.57-11.412 1.712-16.547 1.712z" fill="url(#paint65_linear)"/><path d="M385.692 191.707h-1.142c2.853-10.27 8.559-17.688 16.547-21.682 22.253-10.841 57.058 4.565 57.629 5.136 15.976 5.705 38.229.57 38.799.57v1.141s-22.823 5.136-39.37-.57c-.57 0-34.805-15.406-56.487-5.135-7.418 2.852-13.124 10.27-15.976 20.54z" fill="url(#paint66_linear)"/><path d="M437.63 202.554h-3.994c-5.706-.571-10.841-1.712-16.547-3.424-4.565-1.141-9.7-2.853-14.835-3.423l-12.553-1.712h-1.712c-1.711 0-2.852 0-3.994-.571l.571-.57c1.141.57 2.282.57 3.994.57h1.712l12.553 1.712c5.135.571 9.7 1.712 14.835 3.423 5.135 1.142 10.841 2.853 15.976 3.424 10.27 1.141 19.97-2.282 30.241-5.135l1.141-.571c11.411-3.423 23.964-10.27 27.958-13.694 1.141-1.141 2.283-2.282 2.853-3.423l1.712-1.712.57.571-1.711 1.711c-1.141 1.141-1.712 2.283-3.424 3.424-3.994 3.423-16.547 10.27-27.958 13.694l-1.141.57c-8.559 2.283-17.118 5.136-26.247 5.136z" fill="url(#paint67_linear)"/><path d="M418.801 212.251c-11.982 0-30.811-2.282-34.235-15.406-1.711-7.988-.57-15.405 3.424-22.252 6.847-10.841 20.541-17.118 31.382-19.4 16.547-3.424 29.1-1.712 43.935 7.988 1.141.571 2.282 1.141 3.423 2.282 10.27 6.277 20.541 13.124 31.952 9.7l1.142-.57v1.141c-2.853 14.264-23.965 22.253-34.235 26.247l-.571.57c-13.123 5.135-28.529 10.271-43.934 10.271-1.712-.571-2.283-.571-2.283-.571zm-33.093-15.976c3.423 11.982 21.682 14.264 33.093 14.264h1.141c15.406 0 30.812-5.135 43.365-10.27l.57-.571c9.7-3.423 29.67-10.841 33.094-23.394-11.412 2.853-21.682-3.994-31.953-10.27-1.141-.571-2.282-1.141-3.423-2.282-14.265-9.13-26.247-11.412-42.794-7.418-10.27 2.282-23.964 8.559-30.24 18.829-3.424 6.847-4.565 13.694-2.853 21.112z" fill="url(#paint68_linear)"/><path d="M342.893 202.558c0-25.105 25.676-30.241 42.223-28.529 16.547 1.712 27.959 7.418 39.941 20.541 9.129 10.27 18.829 22.253 31.952 22.253-5.705 12.552-28.529 13.693-39.37 14.264-14.835.571-30.24.571-44.505-3.994-11.982-2.853-29.67-10.841-30.241-24.535z" fill="#FED9F0"/><path d="M455.885 218.537h-1.712c-18.259 0-32.523 0-48.499-12.553-17.688-13.694-44.506-23.964-62.764-7.418l-.571-.57c18.829-17.117 46.217-6.847 63.905 7.417 15.406 12.553 29.67 12.553 47.929 12.553h1.712v.571z" fill="url(#paint69_linear)"/><path d="M423.345 223.098c-9.7 0-22.253-3.994-33.094-10.841-2.852-1.712-5.135-3.424-7.988-5.135-4.564-3.424-9.129-6.847-15.405-9.13-7.989-3.423-15.406-1.711-22.824.571l-1.141.571v-1.142l1.141-.57c7.418-1.712 14.835-3.994 23.394-.571 6.277 2.282 10.841 5.706 15.406 9.129 2.282 1.712 5.135 3.424 7.988 5.136 10.841 6.847 22.823 10.841 32.523 10.841 12.553 0 28.529-2.283 31.953-4.565l.57.571c-3.423 2.853-19.97 5.135-32.523 5.135z" fill="url(#paint70_linear)"/><path d="M457.014 217.963s-23.394-2.282-37.658-13.123c-.571-.57-31.382-26.817-54.776-22.253-7.988 1.712-14.835 6.847-19.4 15.406l-.57-.57c4.564-8.559 11.411-14.265 19.97-15.406 23.964-4.565 55.346 22.253 55.346 22.253 14.265 10.27 37.088 12.552 37.088 12.552v1.141z" fill="url(#paint71_linear)"/><path d="M418.21 227.662c-10.271 0-19.97 0-29.67-3.994-5.135-2.282-10.271-5.135-14.835-8.558-4.565-2.853-8.559-5.706-13.124-7.418l-11.982-5.135c-.57 0-1.141-.571-1.712-.571-1.141-.57-2.853-1.141-3.994-1.711l.571-.571 3.423 1.712c.571 0 1.142.57 1.712.57l11.982 5.135c4.565 2.283 9.13 5.136 13.694 7.418 4.565 2.853 9.7 6.276 14.835 7.988 9.7 3.994 19.4 3.994 29.1 3.994h2.282c11.982 0 25.676-2.853 29.67-4.564 1.142-.571 2.283-1.712 3.994-2.283.571-.57 1.142-1.141 1.712-1.141l.571.571c-.571.57-1.141.57-1.712 1.141-1.141 1.141-2.282 1.712-3.994 2.282-4.565 1.712-18.259 4.565-30.241 4.565h-1.141c-.571.57-.571.57-1.141.57z" fill="url(#paint72_linear)"/><path d="M405.103 232.796c-10.27 0-21.682-1.141-32.523-4.564-11.412-3.424-30.241-11.412-30.811-25.677 0-8.558 2.853-15.405 8.559-20.54 9.129-7.989 23.964-9.7 34.234-9.13 17.118 1.712 28.529 7.418 40.512 21.112l2.852 2.853c8.559 9.699 17.118 19.399 28.529 19.399h1.142l-.571 1.142c-5.706 12.552-28.529 13.693-39.37 14.264h-1.141c-2.853 1.141-6.847 1.141-11.412 1.141zm-61.052-30.241c.571 13.124 18.829 20.541 29.67 23.965 14.835 4.565 30.812 4.565 44.506 3.994h1.141c10.27-.571 30.811-1.712 37.087-12.553-11.982-.57-20.54-10.27-28.529-19.97l-2.852-2.853c-11.983-13.123-22.824-18.829-39.37-20.541-10.271-1.141-24.536.571-33.094 8.559-6.277 5.135-8.559 11.411-8.559 19.399z" fill="url(#paint73_linear)"/><path d="M324.663 284.149s56.488-46.217 19.971-94.146c-1.142-1.711-3.424-3.994-6.847-5.705-7.988-3.994-26.247-8.559-38.229 3.423-1.141 1.141-4.565 5.135-5.135 6.847-3.424 4.565-21.112 54.776 30.24 89.581z" fill="#FED9F0"/><path d="M324.663 284.15c-11.982-27.388-12.553-54.205-10.841-72.463 1.712-19.4 6.847-32.523 6.847-32.523l3.994 104.986c.57 0 .57 0 0 0zm-3.994-103.275c-1.141 3.994-4.565 15.406-6.277 30.812-1.711 17.688-1.141 43.934 10.271 70.752l-3.994-101.564z" fill="url(#paint74_linear)"/><path d="M324.673 284.15c-.571 0-11.982-15.976-18.829-36.517-6.277-18.829-9.13-46.217 13.123-68.469h.57v.57c-21.682 22.253-18.829 49.07-13.123 67.899 6.847 20.541 18.259 35.947 18.259 36.517.57 0 .57 0 0 0 .57 0 0 0 0 0z" fill="url(#paint75_linear)"/><path d="M324.675 284.15c-.57-.57-33.664-31.952-31.952-65.616 1.141-15.406 9.129-28.529 23.964-39.37h.571v.57c-14.835 10.841-22.823 23.965-23.965 39.37-1.711 33.094 31.382 64.476 31.382 65.046.571 0 .571 0 0 0 .571 0 0 0 0 0z" fill="url(#paint76_linear)"/><path d="M324.664 284.15c0-.57 10.271-17.117 15.406-37.658 4.565-19.4 5.135-46.217-17.688-66.758v-.57h.571c22.823 20.54 22.252 47.928 17.688 67.328-5.136 21.112-15.406 37.658-15.977 37.658.571 0 0 0 0 0z" fill="url(#paint77_linear)"/><path d="M324.658 284.15c0-1.141 18.83-66.187-4.564-104.416v-.57h.57c11.983 19.97 12.553 47.358 10.841 66.757-1.711 21.683-6.276 38.229-6.847 38.229.571 0 .571 0 0 0z" fill="url(#paint78_linear)"/><path d="M324.656 284.15c0-.57 27.387-28.529 25.676-60.481-1.142-16.547-9.13-31.382-24.535-43.935v-.57h.57c15.406 12.552 23.965 27.387 25.106 43.934 1.141 33.094-26.247 61.052-26.817 61.052.57 0 0 0 0 0z" fill="url(#paint79_linear)"/><path d="M324.673 284.722c-27.387-18.83-34.805-41.082-36.517-57.059-1.711-16.546 3.424-30.811 5.135-33.664 1.142-1.712 4.565-5.706 5.706-6.847 11.412-11.411 29.671-8.558 38.8-3.423 2.853 1.712 5.706 3.994 6.847 6.276 18.829 25.106 12.553 49.641 3.994 65.617-9.129 17.117-23.394 28.529-23.965 29.1zm-5.135-104.417c-6.847 0-14.264 1.712-19.97 7.418-1.141 1.141-3.994 5.135-5.135 6.847-1.141 1.712-6.847 15.406-5.135 33.093 1.141 15.406 8.558 37.659 35.375 55.347 2.283-1.712 14.836-12.553 23.394-28.529 8.559-15.976 14.835-39.941-3.994-64.476-1.141-1.712-3.994-3.994-6.847-5.706-3.994-2.282-10.27-3.994-17.688-3.994z" fill="url(#paint80_linear)"/><path d="M330.37 587.698v-5.135c33.664-.571 67.899-45.076 81.593-76.458 14.835-34.235 11.982-72.464 7.418-109.552l5.135-.57c4.565 37.658 7.417 77.028-7.988 112.404-13.124 30.241-48.5 79.311-86.158 79.311z" fill="url(#paint81_linear)"/><path d="M500.966 353.194s-38.799-3.994-53.634 27.958c-.571 1.141-1.141 2.853-1.141 5.136 0 4.564 2.852 13.123 11.982 13.123 1.141 0 3.994-.571 5.135-.571 3.994-.57 34.235-12.552 37.658-45.646z" fill="#FED9F0"/><path d="M500.957 353.198l-51.923 41.081s31.382-11.982 51.923-41.081z" fill="#FED9F0"/><path d="M449.034 394.85c0-.57 0-.57 0 0l51.923-41.652c-19.97 28.529-51.923 41.082-51.923 41.652zm51.352-41.082l-50.211 39.941c5.135-2.282 31.953-14.835 50.211-39.941z" fill="url(#paint82_linear)"/><path d="M449.602 395.419c-.57 0-.57 0 0 0-.57-.571-.57-.571 0 0 17.118-.571 30.241-11.982 38.229-21.111 8.559-10.271 13.123-20.541 13.123-21.112 0 0-4.564 10.841-13.123 21.112-7.988 9.129-21.111 20.54-38.229 21.111z" fill="url(#paint83_linear)"/><path d="M455.877 396.56c-2.282 0-3.994 0-6.276-.57 2.282 0 4.565 0 6.276.57 15.977-.57 26.818-10.841 33.665-19.97 7.988-11.412 11.411-23.394 11.411-23.394s-3.423 12.553-11.411 23.394c-4.565 6.847-10.271 11.982-15.976 14.835-5.136 3.423-10.842 5.135-17.689 5.135z" fill="url(#paint84_linear)"/><path d="M448.483 393.707s-.57 0 0 0c3.994-16.547 18.259-26.818 29.1-32.524 11.982-6.276 23.394-8.558 23.394-8.558s-11.412 2.282-23.394 8.558c-10.841 6.277-25.106 15.977-29.1 32.524z" fill="url(#paint85_linear)"/><path d="M449.031 394.848c0-.57 0-.57 0 0 13.123-23.964 51.352-41.652 51.922-41.652-.57 0-38.799 17.688-51.922 41.652z" fill="url(#paint86_linear)"/><path d="M447.909 392.566c1.712-9.129 5.706-16.547 11.412-22.823 4.564-5.135 10.841-8.559 17.688-11.412 11.982-5.135 23.394-5.135 23.964-5.135 0 0-11.411 0-23.394 5.135-11.411 4.565-25.676 13.694-29.67 34.235z" fill="url(#paint87_linear)"/><path d="M458.744 399.976c-3.424 0-6.277-1.141-8.559-3.424-2.853-2.852-3.994-7.417-3.994-10.27 0-1.712.571-3.994 1.141-5.135 14.265-31.953 53.064-28.529 53.635-28.529-1.712 17.688-11.412 28.529-18.829 35.376-7.988 6.847-16.547 10.27-18.829 10.841-.571.57-3.424 1.141-4.565 1.141zm38.229-46.788c-10.271 0-37.659 2.283-49.07 27.959-.571 1.141-1.141 2.853-1.141 4.564 0 2.853 1.141 6.847 3.994 9.7 2.282 2.283 4.564 2.853 7.988 2.853 1.141 0 3.423-.57 5.135-.57 1.141 0 9.7-3.424 18.259-10.841 7.417-6.277 16.546-17.688 18.829-34.806-.571 1.141-2.282 1.141-3.994 1.141z" fill="url(#paint88_linear)"/><path d="M483.275 333.786s-42.793 9.129-47.358 48.499c0 1.142 0 3.424.571 5.706 1.711 5.135 7.417 13.124 17.688 9.7 1.141-.57 3.994-1.712 5.135-2.282 2.853-1.712 30.811-25.106 23.964-61.623z" fill="#FED9F0"/><path d="M483.288 333.786l-41.652 61.623s29.099-23.965 41.652-61.623z" fill="#FED9F0"/><path d="M441.618 395.98s-.57 0 0 0c-.57 0-.57-.57 0 0l41.653-62.193c-11.982 37.658-41.653 61.623-41.653 62.193zm41.082-61.052l-40.511 59.911c5.135-4.565 29.1-26.817 40.511-59.911z" fill="url(#paint89_linear)"/><path d="M442.178 396.55c-.57-.571 0-.571 0 0 18.259-6.277 28.529-22.823 33.665-35.947 5.705-13.694 7.417-26.817 7.417-26.817s-1.712 13.123-7.417 26.817c-5.136 13.124-15.406 29.67-33.665 35.947z" fill="url(#paint90_linear)"/><path d="M442.758 397.12c0-.57 0-.57 0 0 21.682-3.994 31.382-20.54 35.946-34.234 4.565-14.835 3.994-28.529 3.994-29.1 0 0 .571 14.265-3.994 29.1-2.853 8.558-6.847 15.976-11.982 21.682-5.706 6.847-14.264 10.841-23.964 12.552z" fill="url(#paint91_linear)"/><path d="M440.488 395.409s0-.571 0 0c-1.141-19.4 10.27-34.806 20.541-44.506 10.841-10.841 22.253-17.117 22.253-17.117s-11.412 6.276-22.253 17.117c-9.7 9.7-21.682 25.106-20.541 44.506 0-.571 0 0 0 0z" fill="url(#paint92_linear)"/><path d="M441.618 395.979c-.57 0-.57 0 0 0 6.277-29.67 41.082-61.622 41.653-62.193-.571.571-35.376 32.523-41.653 62.193z" fill="url(#paint93_linear)"/><path d="M439.331 393.699c-1.141-10.27.57-19.97 4.565-28.529 3.423-6.847 8.558-13.123 15.405-18.829 11.412-9.129 23.394-13.123 23.394-13.694 0 0-11.982 3.994-23.394 13.124-10.27 10.27-22.252 25.105-19.97 47.928.571 0 0 0 0 0z" fill="url(#paint94_linear)"/><path d="M449.057 398.833c-1.712 0-3.995-.571-5.706-1.141-3.994-2.283-6.847-6.277-7.989-9.7-.57-1.712-.57-3.994-.57-5.706 4.565-38.8 47.358-48.499 47.929-48.499h.57v.57c3.994 19.4-2.282 34.235-8.558 43.935-6.277 10.27-14.265 16.547-16.547 17.688-1.142.57-3.994 2.282-5.136 2.282-1.141 0-2.282.571-3.993.571zm33.664-64.476c-3.994 1.141-42.794 11.412-46.788 47.929 0 1.141 0 3.423.571 5.706 1.141 2.853 3.423 6.847 7.417 9.129 2.853 1.712 6.277 1.712 9.7.571 1.141-.571 3.994-1.712 5.135-2.283 1.141-.57 9.13-6.847 15.977-17.688 5.705-9.7 11.982-24.535 7.988-43.364z" fill="url(#paint95_linear)"/><path d="M455.318 316.669s-41.082 25.676-31.953 68.47c.571 1.141 1.142 3.994 2.283 5.706 3.423 4.564 12.552 10.841 21.682 3.994 1.141-.571 3.423-3.424 4.565-4.565 3.423-3.423 24.534-38.799 3.423-73.605z" fill="#FED9F0"/><path d="M455.304 316.669l-20.54 80.451c0-.57 21.682-36.517 20.54-80.451z" fill="#FED9F0"/><path d="M434.77 396.55c-.571 0-.571 0 0 0l20.54-80.452c1.142 43.935-20.54 80.452-20.54 80.452zm20.54-78.74l-19.97 77.599c3.424-6.277 20.541-38.8 19.97-77.599z" fill="url(#paint96_linear)"/><path d="M435.358 397.12c16.547-13.694 21.112-34.805 22.253-50.211 1.141-16.547-2.283-30.241-2.283-30.811 0 0 3.424 13.694 2.283 30.811-.571 15.406-5.135 37.088-22.253 50.211z" fill="url(#paint97_linear)"/><path d="M436.483 397.692c0-.571 0-.571 0 0 21.112-11.983 25.106-33.665 24.535-49.07-.571-17.118-6.276-31.382-6.276-31.953 0 0 5.705 14.835 6.276 31.953.571 10.27-1.141 18.829-4.565 26.817-3.423 9.129-10.27 16.547-19.97 22.253z" fill="url(#paint98_linear)"/><path d="M433.63 396.55c-.571 0-.571 0 0 0-7.988-19.4-1.712-39.941 5.135-54.205 7.418-15.406 16.547-25.677 17.117-26.247 0 0-9.699 10.841-17.117 25.676-6.847 14.835-13.123 35.376-5.135 54.776z" fill="url(#paint99_linear)"/><path d="M434.776 396.55s-.57 0 0 0c-4.564-33.665 20.541-79.882 20.541-80.452 0 1.141-25.105 47.358-20.541 80.452z" fill="url(#paint100_linear)"/><path d="M431.908 395.409c-5.135-10.271-6.847-20.541-5.135-31.382 1.141-8.559 3.994-17.118 9.129-25.106 8.559-14.264 19.4-22.823 19.4-22.823s-11.412 8.559-19.4 22.823c-7.417 13.694-14.835 33.664-3.994 56.488z" fill="url(#paint101_linear)"/><path d="M439.355 397.693h-1.712c-5.135-.57-9.7-3.994-11.411-6.847-1.141-1.711-2.283-3.994-2.853-5.705-9.7-42.223 31.382-68.47 31.952-68.47h.571v.571c10.841 18.829 10.27 37.087 7.417 49.07-2.852 13.123-8.558 22.823-10.27 25.105-1.141 1.141-3.424 3.994-4.565 4.565-2.853.57-6.276 1.711-9.129 1.711zm15.976-80.451c-3.994 2.282-40.511 27.958-31.382 67.899.571 1.711 1.142 3.994 2.283 5.705 1.711 2.853 6.276 6.277 10.841 6.847 3.423.571 6.847-.57 10.27-2.852 1.141-.571 3.424-2.853 4.565-4.565 1.141-1.141 7.417-10.841 10.27-24.535 2.853-12.553 3.994-30.241-6.847-48.499z" fill="url(#paint102_linear)"/><path d="M350.327 353.191s38.8-3.994 53.635 27.958c.57 1.142 1.141 2.853 1.141 5.136 0 4.564-2.853 13.123-11.982 13.123-1.141 0-3.994-.57-5.135-.57-3.994-.571-34.235-12.553-37.659-45.647z" fill="#FED9F0"/><path d="M350.331 353.194l51.923 41.082s-31.382-11.983-51.923-41.082z" fill="#FED9F0"/><path d="M402.254 394.853c-.57 0-31.952-12.553-51.923-41.082l51.923 41.082c0-.571 0-.571 0 0zm-51.352-41.082c18.258 25.106 45.076 37.658 50.211 39.941l-50.211-39.941z" fill="url(#paint103_linear)"/><path d="M401.68 395.412c-17.118 0-30.241-11.411-38.229-21.111-8.559-10.27-13.124-20.541-13.124-21.111 0 0 4.565 10.27 13.124 21.111 7.988 9.129 21.111 20.541 38.229 21.111 0-.57 0-.57 0 0z" fill="url(#paint104_linear)"/><path d="M394.833 396.555c-6.276 0-12.553-1.712-17.688-4.565-5.706-3.423-11.412-8.558-15.976-14.835-7.988-11.411-11.412-23.394-11.412-23.394s3.424 11.983 11.412 23.394c6.847 8.559 17.688 18.829 33.664 19.4 2.282-.571 3.994-.571 6.276-.571-2.282.571-3.994.571-6.276.571z" fill="url(#paint105_linear)"/><path d="M402.821 393.701c-3.994-16.547-18.259-26.818-29.1-31.953-11.982-6.276-23.394-8.558-23.394-8.558s11.412 2.282 23.394 8.558c10.841 5.135 25.106 15.406 29.1 31.953z" fill="url(#paint106_linear)"/><path d="M402.25 394.842c-13.123-23.394-51.923-41.082-51.923-41.082 0-.571 38.8 17.117 51.923 41.082 0-.571 0-.571 0 0z" fill="url(#paint107_linear)"/><path d="M403.391 392.56c-3.994-19.971-18.258-29.671-29.67-34.235-11.982-5.136-23.394-5.135-23.394-5.135s11.412-.001 23.965 5.135c7.417 2.853 13.123 6.847 17.688 11.411 5.706 6.277 9.7 13.694 11.411 22.824z" fill="url(#paint108_linear)"/><path d="M392.555 399.974c-1.142 0-3.995-.57-5.136-.57-2.282-.571-10.841-3.994-18.829-10.841-7.417-6.277-17.117-17.688-18.829-35.376.571 0 39.37-3.424 53.635 28.529.57 1.141 1.141 3.423 1.141 5.135 0 2.853-1.141 7.417-3.994 10.27-1.712 1.712-4.565 2.853-7.988 2.853zm-42.223-46.787c1.711 17.117 11.411 27.958 18.829 34.805 8.559 7.418 17.117 10.27 18.258 10.841 1.141 0 3.994.571 5.136.571 3.423 0 5.705-1.142 7.988-2.853 2.853-2.853 3.994-7.418 3.994-9.7 0-1.712-.571-3.424-1.141-4.565-13.694-30.811-49.641-29.099-53.064-29.099z" fill="url(#paint109_linear)"/><path d="M368.026 333.786s42.793 9.129 47.358 48.499c0 1.141 0 3.424-.57 5.706-1.712 5.135-7.418 13.123-17.688 9.7-1.142-.571-3.994-1.712-5.136-2.282-2.853-1.712-31.382-25.106-23.964-61.623z" fill="#FED9F0"/><path d="M368.026 333.786l41.652 61.623s-29.67-23.964-41.652-61.623z" fill="#FED9F0"/><path d="M409.678 395.98c-.57 0-29.67-24.535-41.652-62.194l41.652 62.194c0-.571 0 0 0 0zm-41.082-61.053c10.842 33.094 35.377 55.917 40.512 59.911l-40.512-59.911z" fill="url(#paint110_linear)"/><path d="M409.085 396.55c-18.259-6.276-28.529-22.823-34.235-35.946-5.706-14.265-7.418-26.818-7.418-26.818s1.712 12.553 7.418 26.818c5.706 12.552 15.976 29.099 34.235 35.946 0-.571 0-.571 0 0z" fill="url(#paint111_linear)"/><path d="M407.966 397.121c-9.7-1.712-17.688-5.706-23.964-12.553-5.136-5.706-9.129-12.553-11.982-21.682-4.565-14.835-3.994-29.1-3.994-29.1s-.571 14.265 3.994 29.1c4.564 13.694 14.264 30.241 35.946 34.235 0-.571.571-.571 0 0 .571 0 0 0 0 0z" fill="url(#paint112_linear)"/><path d="M410.819 395.409s-.57-.571 0 0c1.142-18.829-10.841-34.806-20.541-44.505-10.841-10.841-22.252-16.547-22.252-17.118 0 0 11.411 6.277 22.252 17.118 9.7 9.699 21.683 25.105 20.541 44.505 0-.571 0 0 0 0z" fill="url(#paint113_linear)"/><path d="M409.678 395.979c-6.276-29.67-41.652-61.623-41.652-61.623.57-.57 35.376 31.382 41.652 61.623z" fill="url(#paint114_linear)"/><path d="M411.39 393.697c2.282-22.823-9.7-38.229-19.97-46.787-11.412-9.13-23.394-13.124-23.394-13.124s11.982 3.994 23.394 13.694c6.847 5.706 11.982 11.982 15.405 18.829 4.565 7.988 6.277 17.118 4.565 27.388.571 0 .571 0 0 0z" fill="url(#paint115_linear)"/><path d="M402.269 398.84c-1.711 0-2.852 0-4.564-.571-1.141-.571-3.994-1.712-5.136-2.282-2.282-1.142-9.699-7.989-16.546-17.688-5.706-9.7-11.983-24.535-8.559-43.935v-.571h.571c.57 0 43.364 9.7 47.928 48.5 0 1.711 0 3.994-.57 5.705-1.142 2.853-3.424 7.418-7.988 9.7-1.712.571-3.424 1.142-5.136 1.142zm-34.234-64.476c-3.424 18.829 2.282 33.664 8.558 43.364 6.847 10.841 14.835 17.117 15.976 17.688 1.142.571 3.995 2.282 5.136 2.282 3.423 1.142 6.847 1.142 9.7-.57 3.994-2.283 6.276-6.277 7.417-9.13.571-1.711.571-3.994.571-5.705-4.565-37.088-43.364-47.358-47.358-47.929z" fill="url(#paint116_linear)"/><path d="M395.405 316.671s41.082 25.677 31.952 68.47c-.57 1.141-1.141 3.994-2.282 5.706-3.423 4.565-12.553 10.841-21.682 3.994-1.141-.571-3.423-3.423-4.565-4.565-2.853-3.423-23.964-38.799-3.423-73.605z" fill="#FED9F0"/><path d="M395.436 316.669l20.541 80.452c.571-.57-21.111-36.517-20.541-80.452z" fill="#FED9F0"/><path d="M416.521 396.552c-.57-.571-22.252-37.088-21.111-80.452l21.111 80.452zm-20.541-78.74c-.57 38.799 16.547 71.322 19.971 77.599l-19.971-77.599z" fill="url(#paint117_linear)"/><path d="M415.378 397.123c-17.117-13.124-21.682-34.806-22.253-50.212-1.141-16.546 2.283-30.811 2.283-30.811s-3.424 13.694-2.283 30.811c1.142 15.406 5.706 36.518 22.253 50.212.571 0 .571 0 0 0 .571 0 0 0 0 0z" fill="url(#paint118_linear)"/><path d="M414.221 397.694c-9.7-5.135-16.547-12.553-20.541-22.253-3.423-7.417-4.564-16.547-4.564-26.817.57-17.117 6.276-31.953 6.276-31.953s-5.706 14.836-6.276 31.953c0 15.406 3.994 36.517 25.105 49.07.571-.571.571-.571 0 0z" fill="url(#paint119_linear)"/><path d="M417.642 396.553c7.988-19.4 1.712-39.941-5.135-54.205-7.418-14.836-16.547-25.677-17.118-25.677 0 0 9.7 10.842 17.118 26.247 6.847 13.124 13.123 34.235 5.135 53.635z" fill="url(#paint120_linear)"/><path d="M416.501 396.552c3.994-33.094-20.541-79.881-21.112-80.452.571.571 25.676 47.358 21.112 80.452z" fill="url(#paint121_linear)"/><path d="M419.369 395.412c-.571 0-.571 0 0 0 10.841-22.824 3.994-43.365-3.994-55.917-8.559-14.265-19.4-22.824-19.4-22.824s11.412 8.559 19.4 22.824c5.135 7.988 7.988 16.547 9.129 25.105 1.141 10.271-.57 20.541-5.135 30.812z" fill="url(#paint122_linear)"/><path d="M411.962 397.695c-2.853 0-6.277-1.141-9.13-3.423-1.141-.571-3.423-3.424-4.564-4.565-1.712-2.282-7.418-11.982-10.271-25.105-2.853-11.982-3.423-30.241 7.418-49.07v-.571h.57c.571 0 41.653 26.247 31.953 68.47-.571 1.712-1.141 3.994-2.853 5.706-2.282 2.853-6.276 6.276-11.412 6.847-.57 1.711-1.141 1.711-1.711 1.711zm-15.977-80.451c-10.841 18.258-9.7 35.946-7.417 47.928 2.853 13.694 9.129 23.394 10.27 24.535l4.565 4.565c3.423 2.282 6.847 3.423 10.27 2.853 5.136-.571 9.13-3.994 10.841-6.847 1.141-1.712 2.283-3.994 2.283-5.706 9.129-39.941-27.388-65.046-30.812-67.328z" fill="url(#paint123_linear)"/><path d="M423.354 312.689s-33.093 37.087-11.982 76.457c.571 1.142 2.282 3.424 3.994 4.565 4.565 3.423 15.406 6.847 22.253-2.853.57-1.141 2.282-3.994 3.423-5.706 2.282-3.423 12.553-43.934-17.688-72.463z" fill="#FED9F0"/><path d="M423.371 312.677l2.283 84.446c0 .571 11.411-41.652-2.283-84.446z" fill="#FED9F0"/><path d="M425.65 397.696l-2.853-85.016c14.265 42.223 3.424 84.446 2.853 85.016.571 0 .571 0 0 0zm-1.712-83.304l2.283 82.163c1.711-7.417 9.129-44.505-2.283-82.163z" fill="url(#paint124_linear)"/><path d="M426.79 397.694c12.552-18.259 10.841-39.941 7.417-55.347-3.994-16.547-10.841-29.099-10.841-29.099s6.847 12.552 10.841 29.099c3.994 15.406 5.706 37.088-7.417 55.347z" fill="url(#paint125_linear)"/><path d="M427.931 397.694c17.688-18.259 15.405-39.941 10.27-55.347-5.135-16.547-14.835-29.099-14.835-29.099s9.7 12.552 15.406 29.099c3.423 9.7 3.994 18.829 3.423 27.388-1.711 10.841-6.276 19.97-14.264 27.959z" fill="url(#paint126_linear)"/><path d="M424.516 397.694c-13.694-16.547-13.124-38.8-10.271-54.776 2.853-17.117 9.13-30.241 9.13-30.241s-6.277 13.124-9.13 30.241c-2.282 15.976-2.853 38.229 10.271 54.776.57 0 .57 0 0 0z" fill="url(#paint127_linear)"/><path d="M425.651 397.694c-13.694-31.382-2.853-84.446-2.853-85.017.571.571-10.27 53.635 2.853 85.017.571 0 .571 0 0 0z" fill="url(#paint128_linear)"/><path d="M422.799 397.123c-7.988-8.558-12.552-18.258-14.264-29.099-1.141-8.559-.571-17.688 1.712-27.388 3.994-15.976 12.552-27.959 12.552-27.959s-8.558 11.983-12.552 27.959c-3.424 15.406-3.994 37.088 12.552 56.487.571 0 .571 0 0 0z" fill="url(#paint129_linear)"/><path d="M426.771 397.694c-4.565 0-8.559-1.711-10.841-3.423-1.712-1.141-3.423-3.423-3.994-5.135-21.111-38.8 11.411-76.458 11.982-76.458 15.976 14.835 20.541 33.094 21.112 45.646 1.141 13.694-1.712 25.106-2.853 27.388-.571 1.712-2.283 4.565-3.424 5.706-2.282 3.424-5.706 5.706-9.7 6.276h-2.282zm-3.423-84.445c-2.853 3.423-31.382 38.799-11.412 75.887.571 1.141 2.282 3.423 3.994 4.564 2.853 2.283 7.418 3.994 12.553 3.424 3.423-.571 6.847-2.853 9.129-6.277.571-1.141 2.282-3.994 2.853-5.705.571-1.712 3.994-12.553 2.853-26.818 0-12.552-3.994-30.24-19.97-45.075z" fill="url(#paint130_linear)"/><path d="M401.674 397.126c2.282-10.27-7.418-15.976-14.835-17.117-6.847-1.712-11.982-.571-18.259 3.423-4.564 2.853-9.7 6.847-15.405 5.136 1.141 6.276 10.841 9.129 14.835 10.841 6.276 2.282 12.552 3.994 18.829 4.564 5.135-.57 13.123-1.711 14.835-6.847z" fill="#FED9F0"/><path d="M401.674 394.845c-6.276-9.13-18.258-8.559-26.817-5.136-7.988 2.853-13.694 1.142-21.111-1.141h-.571v-.57h.571c7.417 2.282 13.123 3.994 21.111 1.141 9.129-3.424 21.112-3.994 26.817 5.706z" fill="url(#paint131_linear)"/><path d="M373.145 395.411c-2.282 0-4.564-.57-6.846-1.141-5.136-1.712-11.412-4.565-13.124-6.276h.571c1.141 1.711 7.988 4.564 13.123 6.276 3.994 1.141 9.7 1.141 14.835 0 1.141-.571 2.282-.57 3.994-1.141 2.283-.571 4.565-1.712 7.418-1.712h1.141c3.423 0 6.276 1.712 8.559 3.424l.57.57v.571l-.57-.571c-2.853-1.712-5.706-3.423-9.13-3.423-2.853 0-5.135 1.141-7.417 1.711-1.141.571-2.283.571-3.994 1.142-3.994.57-6.847.57-9.13.57z" fill="url(#paint132_linear)"/><path d="M401.105 394.839c-1.141-4.564-3.424-7.417-6.847-9.129-9.129-4.565-23.965 2.282-24.535 2.282-6.847 2.283-16.547.571-17.118.571v-.571s9.7 2.283 16.547-.57c0 0 14.835-6.847 24.535-2.283 4.565 1.712 6.847 5.136 7.418 9.7z" fill="url(#paint133_linear)"/><path d="M378.851 399.407c-3.994 0-7.417-1.141-11.411-2.282h-.571c-5.135-1.712-10.27-4.565-11.982-5.706-.571-.57-1.141-1.141-1.141-1.712l-.571-.57h.571l.57.57c.571.571.571 1.142 1.141 1.712 1.712 1.141 6.847 3.994 11.983 5.706h.57c4.565 1.141 8.559 2.853 13.123 2.282 2.283 0 4.565-.57 6.847-1.711 2.283-.571 3.995-1.142 6.277-1.142l5.135-.57h2.282v.57c-.57 0-1.141 0-1.711.571h-.571l-5.135.571c-2.282 0-3.994.57-6.277 1.141l-6.847 1.711c-1.141-1.141-1.711-1.141-2.282-1.141z" fill="url(#paint134_linear)"/><path d="M387.41 403.404c-.57 0-.57 0 0 0-7.417 0-13.694-2.282-19.4-4.565h-.57c-4.565-1.711-13.694-5.135-14.835-11.411v-.571h.57c5.136 1.712 9.13-1.141 13.694-3.994.571-.571 1.141-.571 1.141-1.141 6.277-3.994 11.412-5.135 18.83-3.424 4.564 1.142 10.27 3.994 13.694 8.559 1.711 2.853 2.282 6.276 1.711 9.7-1.711 6.276-10.27 6.847-14.835 6.847zm-33.664-14.835c1.712 5.135 10.27 8.559 14.264 10.27h.571c5.706 2.283 11.982 3.994 18.829 4.565h.571c4.564 0 12.553-.571 14.264-6.276.571-3.424 0-6.277-1.141-9.13-2.853-4.564-8.559-6.847-13.123-7.988-6.847-1.712-11.982-.57-18.259 3.424-.57 0-1.141.57-1.141 1.141-5.706 2.282-10.27 5.135-14.835 3.994z" fill="url(#paint135_linear)"/><path d="M419.382 399.411c0-10.841-10.841-13.123-18.259-11.982-7.417.57-11.982 3.423-17.117 9.129-3.994 4.565-7.988 9.7-13.694 9.7 2.282 5.706 12.553 5.706 17.117 6.276 6.277.571 13.123 0 19.4-1.712 5.135-2.282 12.553-5.705 12.553-11.411z" fill="#FED9F0"/><path d="M371.437 406.262l.57-.57c7.988 0 13.694 0 20.541-5.136 7.417-6.276 19.4-10.841 27.388-3.423v.571c-7.988-7.418-19.4-2.853-26.817 3.423-6.847 5.135-13.124 5.135-20.541 5.135h-1.141z" fill="url(#paint136_linear)"/><path d="M385.131 408.545c-5.136 0-12.553-1.141-14.265-2.282v-.571c2.283 1.141 9.129 2.283 14.265 2.853 0-.57 0-.57 0 0 3.994-.57 9.7-2.282 14.264-5.135 1.141-.571 2.283-1.712 3.424-2.282 2.282-1.712 3.994-2.853 6.847-3.994 3.423-1.712 6.847-.571 10.27 0h.571v.57h-.571c-3.423-.57-6.276-1.711-9.7 0-2.282 1.141-4.564 2.283-6.276 3.994-1.141.571-2.282 1.712-3.424 2.283-5.705 2.282-11.411 4.564-15.405 4.564z" fill="url(#paint137_linear)"/><path d="M370.866 406.263c0-.571 9.7-1.141 15.976-5.706 0 0 13.694-11.412 23.965-9.7 3.423.571 6.276 2.853 8.559 6.847h-.571c-1.712-3.423-4.565-5.706-8.559-6.276h-2.282c-9.7 0-21.112 9.699-21.112 9.699-6.276 3.995-15.976 5.136-15.976 5.136z" fill="url(#paint138_linear)"/><path d="M386.272 410.253c-5.135 0-10.841-1.141-13.124-1.712-.57 0-1.141-.571-1.711-1.141l-.571-.571v-.57l.571.57c.57.571 1.141.571 1.711 1.141 2.283.571 7.989 1.712 13.124 2.283 5.135-.571 9.129-.571 13.123-2.283 2.283-1.141 4.565-2.282 6.277-3.423 1.711-1.141 3.994-2.282 5.705-3.424l.571-.57c1.712-.571 2.853-1.141 4.565-1.712 0 0 .57 0 .57-.57.571 0 1.141-.571 1.712-.571v.571c-.571.57-1.141.57-1.712.57h-.57c-1.712.571-2.853 1.141-4.565 1.712l-.571.57c-1.711 1.142-3.994 2.283-5.705 3.424-2.283 1.141-3.994 2.853-6.277 3.423-3.994 2.283-7.988 2.283-13.123 2.283z" fill="url(#paint139_linear)"/><path d="M393.12 412.539h-5.706c-4.565 0-14.265-.57-16.547-6.276v-.571h.571c5.135 0 8.558-3.994 12.552-7.988l1.141-1.141c5.136-5.706 10.271-8.559 17.118-9.129 4.565-.571 10.841.57 14.835 3.994 2.282 2.282 3.424 5.135 3.424 8.558 0 6.277-8.559 9.7-13.124 10.841-5.135 1.141-9.7 1.712-14.264 1.712zm-21.682-6.276c2.852 4.564 11.411 5.135 15.976 5.135h.57c5.706.57 12.553.57 18.829-1.712 4.565-1.712 12.553-4.565 12.553-10.27 0-3.424-1.141-6.277-3.423-7.988-3.994-3.424-9.7-3.995-14.265-3.424-7.417.571-11.982 2.853-17.117 8.559l-1.141 1.141c-3.424 3.994-6.847 7.988-11.982 8.559z" fill="url(#paint140_linear)"/><path d="M451.928 397.122c-2.283-10.27 7.417-15.976 14.835-17.117 6.847-1.712 11.982-.571 18.258 3.423 4.565 2.853 9.7 6.847 15.406 5.135-1.141 6.277-10.841 9.13-14.835 10.841-6.276 2.283-12.553 3.994-18.829 4.565-5.136-.571-13.124-1.712-14.835-6.847z" fill="#FED9F0"/><path d="M451.913 394.841c5.706-9.699 18.259-9.129 26.818-5.705 7.417 2.853 13.694 1.141 21.111-1.142h.571v.571h-.571c-7.417 2.282-13.694 4.565-21.111 1.141-8.559-3.423-21.112-3.994-26.818 5.135z" fill="url(#paint141_linear)"/><path d="M480.443 395.411c-2.853 0-5.706-.571-7.989-1.142-1.141-.57-2.852-.57-3.994-1.141-2.282-.57-4.564-1.711-7.417-1.711-3.994-.571-6.276 1.141-9.129 3.423l-.571.571v-.571l.571-.571c2.853-1.711 5.705-3.423 9.699-3.423 2.853 0 5.136 1.141 7.418 1.712 1.141.57 2.282.57 3.994 1.141 5.135 1.141 10.841 1.712 14.835 0 5.135-1.712 11.412-4.565 13.123-6.277h.571c-1.141 1.712-7.988 4.565-13.123 6.277-2.853 1.712-5.135 1.712-7.988 1.712z" fill="url(#paint142_linear)"/><path d="M452.468 394.845c.571-4.565 3.424-7.418 6.847-9.7 9.7-4.565 24.535 2.282 24.535 2.282 6.847 2.283 16.547.571 16.547.571v.57s-9.7 2.283-16.547-.57c0 0-14.835-6.847-24.535-2.282-3.423 1.711-5.706 4.564-6.847 9.129z" fill="url(#paint143_linear)"/><path d="M474.721 399.407h-1.712c-2.282 0-4.564-.571-6.847-1.712-2.282-.571-3.994-1.141-6.276-1.141l-5.135-.571h-.571c-.57 0-1.141 0-1.712-.57v-.571h2.283l5.135.571c2.282 0 3.994.57 6.276 1.141l6.847 1.712c.571.57 1.141.57 1.712 1.141 3.994-.571 7.418-1.712 11.412-2.853h.57c5.135-1.712 10.271-4.565 11.982-5.706.571-.571 1.142-1.141 1.142-1.712l.57-.57h.571l-.571.57c-.57.571-.57 1.141-1.141 1.712-1.712 1.141-6.847 4.565-11.982 5.706h-.571c-4.565 1.712-7.988 2.853-11.982 2.853z" fill="url(#paint144_linear)"/><path d="M466.761 403.401c-5.136 0-13.124-1.141-14.835-6.277-.571-3.423-.571-6.847 1.711-9.699 2.853-4.565 9.13-7.418 13.694-8.559 7.418-1.712 12.553-.571 18.829 3.423.571.571 1.142.571 1.142 1.142 4.564 2.852 9.129 5.705 13.693 3.994h.571v.57c-1.141 6.277-10.27 9.7-14.835 11.412h-.571c-5.705 1.711-12.552 3.994-19.399 3.994zm-14.265-6.847c1.141 5.135 9.129 6.276 14.265 6.276h.57c6.847 0 13.124-2.282 18.829-4.564h.571c3.994-1.712 12.553-4.565 14.264-10.271-5.135 1.141-9.699-1.712-13.693-4.564-.571-.571-1.142-.571-1.142-1.142-6.276-3.994-11.411-4.564-18.258-3.423-4.565 1.141-10.271 3.423-13.123 7.988-2.853 3.423-2.853 6.847-2.283 9.7z" fill="url(#paint145_linear)"/><path d="M434.218 399.409c0-10.841 10.841-13.123 18.258-11.982 7.418.57 11.982 3.423 17.118 9.129 3.994 4.565 7.988 9.7 13.694 9.7-2.283 5.706-12.553 5.706-17.118 6.276-6.276.571-13.123 0-19.4-1.712-5.135-2.282-12.552-5.705-12.552-11.411z" fill="#FED9F0"/><path d="M482.717 406.252h-.571c-7.988 0-13.694 0-20.541-5.135-7.417-5.706-18.829-10.27-26.817-3.423v-.571c7.988-7.418 19.97-2.853 27.388 3.424 6.847 5.135 12.553 5.135 20.541 5.135v.57z" fill="url(#paint146_linear)"/><path d="M468.43 408.538c-3.994 0-9.7-1.712-14.265-4.565-1.141-.571-2.282-1.712-3.423-2.282-2.283-1.712-3.994-2.853-6.277-3.994-3.423-1.712-6.847-.571-9.7 0h-.57v-.571h.57c2.853-.571 6.277-1.712 10.271 0 2.853 1.141 4.565 2.282 6.847 3.994 1.141.571 2.282 1.712 3.423 2.282 3.994 2.853 9.13 4.565 13.124 5.136 0-.571 0-.571 0 0 5.135-.571 11.982-1.142 13.694-2.283v.571c-1.142.57-7.989 1.712-13.694 1.712z" fill="url(#paint147_linear)"/><path d="M482.694 406.253s-10.27-1.141-15.976-5.706c0 0-11.412-9.7-21.112-9.7h-2.282c-3.423.571-6.276 2.853-8.559 6.276h-.57c2.282-3.994 5.135-6.276 8.559-6.846h2.282c9.7 0 21.111 9.699 21.111 9.699 6.847 4.565 16.547 5.706 16.547 6.277z" fill="url(#paint148_linear)"/><path d="M467.288 410.243c-5.135 0-9.129 0-13.693-1.712-2.283-1.141-4.565-2.282-6.277-3.424-1.712-1.141-3.994-2.282-5.706-3.423-1.711-.571-3.423-1.712-5.135-2.282h-.571c-.57 0-1.141-.571-1.711-.571v-.571c.57.571 1.141.571 1.711.571 0 0 .571 0 .571.571 1.712.57 3.424 1.711 5.135 2.282 2.283 1.141 3.994 2.282 5.706 3.423 2.282 1.142 3.994 2.853 6.277 3.424 4.564 1.141 8.558 1.141 13.693 1.712 5.136-.571 10.842-1.712 12.553-2.283.571 0 1.141-.57 1.712-1.141l.571-.57v.57l-.571.571c-.571.57-1.141.57-1.712 1.141-1.711.57-7.417 1.712-12.553 1.712z" fill="url(#paint149_linear)"/><path d="M461.012 412.531c-4.565 0-9.13-.57-13.694-1.711-4.565-1.712-13.124-5.136-13.124-10.841 0-3.424 1.142-6.847 3.424-8.559 3.994-3.424 10.27-3.994 14.835-3.994 7.417.57 11.982 3.423 17.117 9.129l1.141 1.141c3.424 3.994 7.418 7.988 12.553 7.988h.571v.571c-2.283 5.706-11.982 5.706-16.547 6.276h-6.276zm-26.818-13.123c0 5.706 7.988 9.129 12.553 10.27 6.276 2.283 13.123 1.712 18.829 1.712h.571c4.565 0 13.123-.57 15.976-5.135-5.135-.571-8.559-4.565-12.553-8.559l-1.141-1.141c-5.135-5.706-9.7-7.988-17.117-8.559-4.565-.57-10.271.571-14.265 3.424-1.712 1.712-2.853 4.564-2.853 7.988z" fill="url(#paint150_linear)"/><path d="M426.213 434.213s24.535-19.971 8.559-40.512c-.571-.57-1.712-1.711-2.853-2.282-3.424-1.712-11.412-3.994-16.547 1.712-.571.57-1.712 2.282-2.283 2.853-1.141 1.711-9.129 23.394 13.124 38.229z" fill="#FED9F0"/><path d="M426.227 434.786s0-.57 0 0c-5.136-11.982-5.706-23.393-4.565-30.811.57-8.559 2.853-13.694 2.853-13.694l1.712 44.505c0-.57 0-.57 0 0zm-1.712-44.505c-.571 1.712-2.283 6.847-2.853 13.123-.571 7.418-.571 18.83 4.565 30.241l-1.712-43.364z" fill="url(#paint151_linear)"/><path d="M426.212 434.786s0-.571 0 0c0 0-5.135-6.847-7.988-15.406-2.853-7.988-3.994-19.97 5.706-29.67-9.13 9.7-7.988 21.111-5.706 29.099 2.853 8.559 7.988 15.406 7.988 15.977 0-.571 0-.571 0 0z" fill="url(#paint152_linear)"/><path d="M426.219 434.786s-14.265-13.694-13.695-27.959c.571-6.276 3.995-11.982 10.271-17.117-6.276 4.564-9.7 10.27-10.271 17.117-.57 13.694 13.695 27.388 13.695 27.959 0-.571 0-.571 0 0z" fill="url(#paint153_linear)"/><path d="M426.215 434.786c0-.57 0-.57 0 0 0 0 4.565-7.417 6.847-15.976 1.712-7.988 2.282-19.97-7.417-28.529 9.699 8.559 9.699 20.541 7.417 29.1-2.282 7.988-6.847 14.835-6.847 15.405 0-.57 0 0 0 0z" fill="url(#paint154_linear)"/><path d="M426.232 434.786c0-.571 0-.571 0 0 0-.571 7.988-28.529-1.712-45.076 5.135 8.558 5.706 20.541 4.565 28.529-.571 9.129-2.853 15.976-2.853 16.547 0-.571 0 0 0 0z" fill="url(#paint155_linear)"/><path d="M426.215 434.786c0-.57 0-.57 0 0 0-.57 11.411-11.982 10.841-25.676-.571-6.847-3.994-13.123-10.841-18.829 6.847 5.706 10.27 11.982 10.841 18.829 1.141 13.124-10.841 25.106-10.841 25.676z" fill="url(#paint156_linear)"/><path d="M426.203 434.783c-11.982-7.988-14.835-17.688-15.406-24.535-.57-7.417 1.712-13.123 2.282-14.835.571-.57 1.712-2.282 2.283-2.853 5.135-5.135 13.123-3.423 16.547-1.711 1.141.57 2.282 1.711 2.853 2.853 7.988 10.841 5.135 21.111 1.711 27.958-3.994 7.988-10.27 13.123-10.27 13.123zm-2.283-45.075c-2.853 0-6.276 1.141-8.558 3.423-.571.571-1.712 2.282-2.283 2.853-.57.571-2.852 6.847-2.282 14.264.571 6.847 3.424 15.977 15.406 23.965 1.141-.571 6.276-5.706 10.27-12.553 3.424-6.847 6.277-17.117-1.711-27.958-.571-.571-1.712-1.712-2.853-2.283-2.283-.57-5.136-1.711-7.989-1.711z" fill="url(#paint157_linear)"/><defs><linearGradient id="paint0_linear" x1="197.534" y1="666.781" x2="452.456" y2="666.781" gradientUnits="userSpaceOnUse"><stop stop-color="#C09440"/><stop offset=".5" stop-color="#F5E283"/><stop offset=".885" stop-color="#D3B058"/></linearGradient><linearGradient id="paint1_linear" x1=".138" y1="673.472" x2="627.365" y2="673.472" gradientUnits="userSpaceOnUse"><stop stop-color="#C09440"/><stop offset=".5" stop-color="#F5E283"/><stop offset=".885" stop-color="#D3B058"/></linearGradient><linearGradient id="paint2_linear" x1="98.417" y1="673.472" x2="529.072" y2="673.472" gradientUnits="userSpaceOnUse"><stop stop-color="#C09440"/><stop offset=".5" stop-color="#F5E283"/><stop offset=".885" stop-color="#D3B058"/></linearGradient><linearGradient id="paint3_linear" x1="87.99" y1="673.476" x2="539.518" y2="673.476" gradientUnits="userSpaceOnUse"><stop stop-color="#C09440"/><stop offset=".5" stop-color="#F5E283"/><stop offset=".885" stop-color="#D3B058"/></linearGradient><linearGradient id="paint4_linear" x1="325.994" y1="215.568" x2="331.245" y2="843.054" gradientUnits="userSpaceOnUse"><stop stop-color="#C09440"/><stop offset=".5" stop-color="#F5E283"/><stop offset=".885" stop-color="#D3B058"/></linearGradient><linearGradient id="paint5_linear" x1="436.426" y1="140.479" x2="444.595" y2="151.588" gradientUnits="userSpaceOnUse"><stop stop-color="#C09440"/><stop offset=".5" stop-color="#F5E283"/><stop offset=".885" stop-color="#D3B058"/></linearGradient><linearGradient id="paint6_linear" x1="436.39" y1="140.488" x2="452.127" y2="161.888" gradientUnits="userSpaceOnUse"><stop stop-color="#C09440"/><stop offset=".5" stop-color="#F5E283"/><stop offset=".885" stop-color="#D3B058"/></linearGradient><linearGradient id="paint7_linear" x1="436.399" y1="140.497" x2="457.832" y2="169.644" gradientUnits="userSpaceOnUse"><stop stop-color="#C09440"/><stop offset=".5" stop-color="#F5E283"/><stop offset=".885" stop-color="#D3B058"/></linearGradient><linearGradient id="paint8_linear" x1="438.733" y1="143.661" x2="425.008" y2="124.997" gradientUnits="userSpaceOnUse"><stop stop-color="#C09440"/><stop offset=".5" stop-color="#F5E283"/><stop offset=".885" stop-color="#D3B058"/></linearGradient><linearGradient id="paint9_linear" x1="440.165" y1="145.562" x2="431.905" y2="134.328" gradientUnits="userSpaceOnUse"><stop stop-color="#C09440"/><stop offset=".5" stop-color="#F5E283"/><stop offset=".885" stop-color="#D3B058"/></linearGradient><linearGradient id="paint10_linear" x1="437.191" y1="140.881" x2="420.364" y2="117.997" gradientUnits="userSpaceOnUse"><stop stop-color="#C09440"/><stop offset=".5" stop-color="#F5E283"/><stop offset=".885" stop-color="#D3B058"/></linearGradient><linearGradient id="paint11_linear" x1="415.867" y1="112.317" x2="460.959" y2="173.636" gradientUnits="userSpaceOnUse"><stop stop-color="#C09440"/><stop offset=".5" stop-color="#F5E283"/><stop offset=".885" stop-color="#D3B058"/></linearGradient><linearGradient id="paint12_linear" x1="405.843" y1="119.819" x2="418.241" y2="128.848" gradientUnits="userSpaceOnUse"><stop stop-color="#C09440"/><stop offset=".5" stop-color="#F5E283"/><stop offset=".885" stop-color="#D3B058"/></linearGradient><linearGradient id="paint13_linear" x1="405.85" y1="119.839" x2="429.729" y2="137.229" gradientUnits="userSpaceOnUse"><stop stop-color="#C09440"/><stop offset=".5" stop-color="#F5E283"/><stop offset=".885" stop-color="#D3B058"/></linearGradient><linearGradient id="paint14_linear" x1="405.847" y1="119.847" x2="438.372" y2="143.533" gradientUnits="userSpaceOnUse"><stop stop-color="#C09440"/><stop offset=".5" stop-color="#F5E283"/><stop offset=".885" stop-color="#D3B058"/></linearGradient><linearGradient id="paint15_linear" x1="409.411" y1="122.41" x2="388.582" y2="107.242" gradientUnits="userSpaceOnUse"><stop stop-color="#C09440"/><stop offset=".5" stop-color="#F5E283"/><stop offset=".885" stop-color="#D3B058"/></linearGradient><linearGradient id="paint16_linear" x1="411.524" y1="123.951" x2="398.992" y2="114.824" gradientUnits="userSpaceOnUse"><stop stop-color="#C09440"/><stop offset=".5" stop-color="#F5E283"/><stop offset=".885" stop-color="#D3B058"/></linearGradient><linearGradient id="paint17_linear" x1="406.83" y1="119.985" x2="381.296" y2="101.39" gradientUnits="userSpaceOnUse"><stop stop-color="#C09440"/><stop offset=".5" stop-color="#F5E283"/><stop offset=".885" stop-color="#D3B058"/></linearGradient><linearGradient id="paint18_linear" x1="374.573" y1="96.882" x2="442.999" y2="146.712" gradientUnits="userSpaceOnUse"><stop stop-color="#C09440"/><stop offset=".5" stop-color="#F5E283"/><stop offset=".885" stop-color="#D3B058"/></linearGradient><linearGradient id="paint19_linear" x1="365.152" y1="101.871" x2="381.027" y2="106.55" gradientUnits="userSpaceOnUse"><stop stop-color="#C09440"/><stop offset=".5" stop-color="#F5E283"/><stop offset=".885" stop-color="#D3B058"/></linearGradient><linearGradient id="paint20_linear" x1="365.155" y1="101.89" x2="396.006" y2="110.983" gradientUnits="userSpaceOnUse"><stop stop-color="#C09440"/><stop offset=".5" stop-color="#F5E283"/><stop offset=".885" stop-color="#D3B058"/></linearGradient><linearGradient id="paint21_linear" x1="365.132" y1="101.9" x2="407.278" y2="114.321" gradientUnits="userSpaceOnUse"><stop stop-color="#C09440"/><stop offset=".5" stop-color="#F5E283"/><stop offset=".885" stop-color="#D3B058"/></linearGradient><linearGradient id="paint22_linear" x1="369.218" y1="103.075" x2="342.269" y2="95.132" gradientUnits="userSpaceOnUse"><stop stop-color="#C09440"/><stop offset=".5" stop-color="#F5E283"/><stop offset=".885" stop-color="#D3B058"/></linearGradient><linearGradient id="paint23_linear" x1="371.977" y1="103.884" x2="355.892" y2="99.143" gradientUnits="userSpaceOnUse"><stop stop-color="#C09440"/><stop offset=".5" stop-color="#F5E283"/><stop offset=".885" stop-color="#D3B058"/></linearGradient><linearGradient id="paint24_linear" x1="366.048" y1="101.653" x2="332.51" y2="91.768" gradientUnits="userSpaceOnUse"><stop stop-color="#C09440"/><stop offset=".5" stop-color="#F5E283"/><stop offset=".885" stop-color="#D3B058"/></linearGradient><linearGradient id="paint25_linear" x1="323.896" y1="89.55" x2="413.277" y2="115.893" gradientUnits="userSpaceOnUse"><stop stop-color="#C09440"/><stop offset=".5" stop-color="#F5E283"/><stop offset=".885" stop-color="#D3B058"/></linearGradient><linearGradient id="paint26_linear" x1="210.02" y1="140.483" x2="201.851" y2="151.593" gradientUnits="userSpaceOnUse"><stop stop-color="#C09440"/><stop offset=".5" stop-color="#F5E283"/><stop offset=".885" stop-color="#D3B058"/></linearGradient><linearGradient id="paint27_linear" x1="210.04" y1="140.499" x2="194.303" y2="161.898" gradientUnits="userSpaceOnUse"><stop stop-color="#C09440"/><stop offset=".5" stop-color="#F5E283"/><stop offset=".885" stop-color="#D3B058"/></linearGradient><linearGradient id="paint28_linear" x1="210.047" y1="140.503" x2="188.611" y2="169.653" gradientUnits="userSpaceOnUse"><stop stop-color="#C09440"/><stop offset=".5" stop-color="#F5E283"/><stop offset=".885" stop-color="#D3B058"/></linearGradient><linearGradient id="paint29_linear" x1="207.695" y1="143.669" x2="221.42" y2="125.005" gradientUnits="userSpaceOnUse"><stop stop-color="#C09440"/><stop offset=".5" stop-color="#F5E283"/><stop offset=".885" stop-color="#D3B058"/></linearGradient><linearGradient id="paint30_linear" x1="206.282" y1="145.572" x2="214.542" y2="134.338" gradientUnits="userSpaceOnUse"><stop stop-color="#C09440"/><stop offset=".5" stop-color="#F5E283"/><stop offset=".885" stop-color="#D3B058"/></linearGradient><linearGradient id="paint31_linear" x1="209.25" y1="140.889" x2="226.077" y2="118.006" gradientUnits="userSpaceOnUse"><stop stop-color="#C09440"/><stop offset=".5" stop-color="#F5E283"/><stop offset=".885" stop-color="#D3B058"/></linearGradient><linearGradient id="paint32_linear" x1="230.589" y1="112.323" x2="185.497" y2="173.644" gradientUnits="userSpaceOnUse"><stop stop-color="#C09440"/><stop offset=".5" stop-color="#F5E283"/><stop offset=".885" stop-color="#D3B058"/></linearGradient><linearGradient id="paint33_linear" x1="240.621" y1="119.817" x2="228.222" y2="128.846" gradientUnits="userSpaceOnUse"><stop stop-color="#C09440"/><stop offset=".5" stop-color="#F5E283"/><stop offset=".885" stop-color="#D3B058"/></linearGradient><linearGradient id="paint34_linear" x1="240.606" y1="119.833" x2="216.719" y2="137.228" gradientUnits="userSpaceOnUse"><stop stop-color="#C09440"/><stop offset=".5" stop-color="#F5E283"/><stop offset=".885" stop-color="#D3B058"/></linearGradient><linearGradient id="paint35_linear" x1="240.619" y1="119.846" x2="208.093" y2="143.533" gradientUnits="userSpaceOnUse"><stop stop-color="#C09440"/><stop offset=".5" stop-color="#F5E283"/><stop offset=".885" stop-color="#D3B058"/></linearGradient><linearGradient id="paint36_linear" x1="237.06" y1="122.409" x2="257.889" y2="107.242" gradientUnits="userSpaceOnUse"><stop stop-color="#C09440"/><stop offset=".5" stop-color="#F5E283"/><stop offset=".885" stop-color="#D3B058"/></linearGradient><linearGradient id="paint37_linear" x1="234.911" y1="123.951" x2="247.445" y2="114.824" gradientUnits="userSpaceOnUse"><stop stop-color="#C09440"/><stop offset=".5" stop-color="#F5E283"/><stop offset=".885" stop-color="#D3B058"/></linearGradient><linearGradient id="paint38_linear" x1="239.658" y1="119.982" x2="265.192" y2="101.387" gradientUnits="userSpaceOnUse"><stop stop-color="#C09440"/><stop offset=".5" stop-color="#F5E283"/><stop offset=".885" stop-color="#D3B058"/></linearGradient><linearGradient id="paint39_linear" x1="271.877" y1="96.883" x2="203.452" y2="146.711" gradientUnits="userSpaceOnUse"><stop stop-color="#C09440"/><stop offset=".5" stop-color="#F5E283"/><stop offset=".885" stop-color="#D3B058"/></linearGradient><linearGradient id="paint40_linear" x1="281.29" y1="101.872" x2="265.415" y2="106.551" gradientUnits="userSpaceOnUse"><stop stop-color="#C09440"/><stop offset=".5" stop-color="#F5E283"/><stop offset=".885" stop-color="#D3B058"/></linearGradient><linearGradient id="paint41_linear" x1="281.329" y1="101.885" x2="250.483" y2="110.976" gradientUnits="userSpaceOnUse"><stop stop-color="#C09440"/><stop offset=".5" stop-color="#F5E283"/><stop offset=".885" stop-color="#D3B058"/></linearGradient><linearGradient id="paint42_linear" x1="281.311" y1="101.895" x2="239.166" y2="114.317" gradientUnits="userSpaceOnUse"><stop stop-color="#C09440"/><stop offset=".5" stop-color="#F5E283"/><stop offset=".885" stop-color="#D3B058"/></linearGradient><linearGradient id="paint43_linear" x1="277.261" y1="103.068" x2="304.212" y2="95.125" gradientUnits="userSpaceOnUse"><stop stop-color="#C09440"/><stop offset=".5" stop-color="#F5E283"/><stop offset=".885" stop-color="#D3B058"/></linearGradient><linearGradient id="paint44_linear" x1="274.485" y1="103.875" x2="290.57" y2="99.134" gradientUnits="userSpaceOnUse"><stop stop-color="#C09440"/><stop offset=".5" stop-color="#F5E283"/><stop offset=".885" stop-color="#D3B058"/></linearGradient><linearGradient id="paint45_linear" x1="280.398" y1="101.652" x2="313.941" y2="91.766" gradientUnits="userSpaceOnUse"><stop stop-color="#C09440"/><stop offset=".5" stop-color="#F5E283"/><stop offset=".885" stop-color="#D3B058"/></linearGradient><linearGradient id="paint46_linear" x1="322.569" y1="89.549" x2="233.19" y2="115.891" gradientUnits="userSpaceOnUse"><stop stop-color="#C09440"/><stop offset=".5" stop-color="#F5E283"/><stop offset=".885" stop-color="#D3B058"/></linearGradient><linearGradient id="paint47_linear" x1="318.005" y1="99.629" x2="334.422" y2="99.629" gradientUnits="userSpaceOnUse"><stop stop-color="#C09440"/><stop offset=".5" stop-color="#F5E283"/><stop offset=".885" stop-color="#D3B058"/></linearGradient><linearGradient id="paint48_linear" x1="318.018" y1="99.649" x2="350.325" y2="99.649" gradientUnits="userSpaceOnUse"><stop stop-color="#C09440"/><stop offset=".5" stop-color="#F5E283"/><stop offset=".885" stop-color="#D3B058"/></linearGradient><linearGradient id="paint49_linear" x1="318.018" y1="99.648" x2="362.345" y2="99.648" gradientUnits="userSpaceOnUse"><stop stop-color="#C09440"/><stop offset=".5" stop-color="#F5E283"/><stop offset=".885" stop-color="#D3B058"/></linearGradient><linearGradient id="paint50_linear" x1="321.463" y1="99.651" x2="293.165" y2="99.651" gradientUnits="userSpaceOnUse"><stop stop-color="#C09440"/><stop offset=".5" stop-color="#F5E283"/><stop offset=".885" stop-color="#D3B058"/></linearGradient><linearGradient id="paint51_linear" x1="324.412" y1="99.631" x2="307.712" y2="99.631" gradientUnits="userSpaceOnUse"><stop stop-color="#C09440"/><stop offset=".5" stop-color="#F5E283"/><stop offset=".885" stop-color="#D3B058"/></linearGradient><linearGradient id="paint52_linear" x1="318.814" y1="99.166" x2="282.666" y2="99.166" gradientUnits="userSpaceOnUse"><stop stop-color="#C09440"/><stop offset=".5" stop-color="#F5E283"/><stop offset=".885" stop-color="#D3B058"/></linearGradient><linearGradient id="paint53_linear" x1="273.557" y1="99.473" x2="368.631" y2="99.473" gradientUnits="userSpaceOnUse"><stop stop-color="#C09440"/><stop offset=".5" stop-color="#F5E283"/><stop offset=".885" stop-color="#D3B058"/></linearGradient><linearGradient id="paint54_linear" x1="158.494" y1="164.852" x2="268.167" y2="195.092" gradientUnits="userSpaceOnUse"><stop stop-color="#C09440"/><stop offset=".5" stop-color="#F5E283"/><stop offset=".885" stop-color="#D3B058"/></linearGradient><linearGradient id="paint55_linear" x1="156.689" y1="170.536" x2="266.411" y2="200.79" gradientUnits="userSpaceOnUse"><stop stop-color="#C09440"/><stop offset=".5" stop-color="#F5E283"/><stop offset=".885" stop-color="#D3B058"/></linearGradient><linearGradient id="paint56_linear" x1="158.582" y1="160.424" x2="267.633" y2="190.492" gradientUnits="userSpaceOnUse"><stop stop-color="#C09440"/><stop offset=".5" stop-color="#F5E283"/><stop offset=".885" stop-color="#D3B058"/></linearGradient><linearGradient id="paint57_linear" x1="155.525" y1="174.862" x2="264.868" y2="205.01" gradientUnits="userSpaceOnUse"><stop stop-color="#C09440"/><stop offset=".5" stop-color="#F5E283"/><stop offset=".885" stop-color="#D3B058"/></linearGradient><linearGradient id="paint58_linear" x1="156.226" y1="164.103" x2="268.85" y2="195.157" gradientUnits="userSpaceOnUse"><stop stop-color="#C09440"/><stop offset=".5" stop-color="#F5E283"/><stop offset=".885" stop-color="#D3B058"/></linearGradient><linearGradient id="paint59_linear" x1="196.632" y1="203.742" x2="309.79" y2="203.742" gradientUnits="userSpaceOnUse"><stop stop-color="#C09440"/><stop offset=".5" stop-color="#F5E283"/><stop offset=".885" stop-color="#D3B058"/></linearGradient><linearGradient id="paint60_linear" x1="196.372" y1="209.074" x2="309.58" y2="209.074" gradientUnits="userSpaceOnUse"><stop stop-color="#C09440"/><stop offset=".5" stop-color="#F5E283"/><stop offset=".885" stop-color="#D3B058"/></linearGradient><linearGradient id="paint61_linear" x1="195.519" y1="199.72" x2="308.053" y2="199.72" gradientUnits="userSpaceOnUse"><stop stop-color="#C09440"/><stop offset=".5" stop-color="#F5E283"/><stop offset=".885" stop-color="#D3B058"/></linearGradient><linearGradient id="paint62_linear" x1="196.366" y1="213.055" x2="309.195" y2="213.055" gradientUnits="userSpaceOnUse"><stop stop-color="#C09440"/><stop offset=".5" stop-color="#F5E283"/><stop offset=".885" stop-color="#D3B058"/></linearGradient><linearGradient id="paint63_linear" x1="194.319" y1="202.958" x2="310.274" y2="202.958" gradientUnits="userSpaceOnUse"><stop stop-color="#C09440"/><stop offset=".5" stop-color="#F5E283"/><stop offset=".885" stop-color="#D3B058"/></linearGradient><linearGradient id="paint64_linear" x1="493.992" y1="164.841" x2="384.322" y2="195.08" gradientUnits="userSpaceOnUse"><stop stop-color="#C09440"/><stop offset=".5" stop-color="#F5E283"/><stop offset=".885" stop-color="#D3B058"/></linearGradient><linearGradient id="paint65_linear" x1="495.781" y1="170.532" x2="386.063" y2="200.784" gradientUnits="userSpaceOnUse"><stop stop-color="#C09440"/><stop offset=".5" stop-color="#F5E283"/><stop offset=".885" stop-color="#D3B058"/></linearGradient><linearGradient id="paint66_linear" x1="493.902" y1="160.416" x2="384.851" y2="190.484" gradientUnits="userSpaceOnUse"><stop stop-color="#C09440"/><stop offset=".5" stop-color="#F5E283"/><stop offset=".885" stop-color="#D3B058"/></linearGradient><linearGradient id="paint67_linear" x1="496.975" y1="174.858" x2="387.633" y2="205.006" gradientUnits="userSpaceOnUse"><stop stop-color="#C09440"/><stop offset=".5" stop-color="#F5E283"/><stop offset=".885" stop-color="#D3B058"/></linearGradient><linearGradient id="paint68_linear" x1="496.276" y1="164.099" x2="383.652" y2="195.152" gradientUnits="userSpaceOnUse"><stop stop-color="#C09440"/><stop offset=".5" stop-color="#F5E283"/><stop offset=".885" stop-color="#D3B058"/></linearGradient><linearGradient id="paint69_linear" x1="455.852" y1="203.747" x2="342.7" y2="203.747" gradientUnits="userSpaceOnUse"><stop stop-color="#C09440"/><stop offset=".5" stop-color="#F5E283"/><stop offset=".885" stop-color="#D3B058"/></linearGradient><linearGradient id="paint70_linear" x1="456.081" y1="209.071" x2="342.879" y2="209.071" gradientUnits="userSpaceOnUse"><stop stop-color="#C09440"/><stop offset=".5" stop-color="#F5E283"/><stop offset=".885" stop-color="#D3B058"/></linearGradient><linearGradient id="paint71_linear" x1="456.944" y1="199.725" x2="344.405" y2="199.725" gradientUnits="userSpaceOnUse"><stop stop-color="#C09440"/><stop offset=".5" stop-color="#F5E283"/><stop offset=".885" stop-color="#D3B058"/></linearGradient><linearGradient id="paint72_linear" x1="456.087" y1="213.056" x2="343.264" y2="213.056" gradientUnits="userSpaceOnUse"><stop stop-color="#C09440"/><stop offset=".5" stop-color="#F5E283"/><stop offset=".885" stop-color="#D3B058"/></linearGradient><linearGradient id="paint73_linear" x1="458.165" y1="202.961" x2="342.21" y2="202.961" gradientUnits="userSpaceOnUse"><stop stop-color="#C09440"/><stop offset=".5" stop-color="#F5E283"/><stop offset=".885" stop-color="#D3B058"/></linearGradient><linearGradient id="paint74_linear" x1="325.099" y1="231.884" x2="313.143" y2="231.884" gradientUnits="userSpaceOnUse"><stop stop-color="#C09440"/><stop offset=".5" stop-color="#F5E283"/><stop offset=".885" stop-color="#D3B058"/></linearGradient><linearGradient id="paint75_linear" x1="325.11" y1="231.878" x2="301.602" y2="231.878" gradientUnits="userSpaceOnUse"><stop stop-color="#C09440"/><stop offset=".5" stop-color="#F5E283"/><stop offset=".885" stop-color="#D3B058"/></linearGradient><linearGradient id="paint76_linear" x1="325.112" y1="231.877" x2="292.829" y2="231.877" gradientUnits="userSpaceOnUse"><stop stop-color="#C09440"/><stop offset=".5" stop-color="#F5E283"/><stop offset=".885" stop-color="#D3B058"/></linearGradient><linearGradient id="paint77_linear" x1="322.662" y1="231.877" x2="343.239" y2="231.877" gradientUnits="userSpaceOnUse"><stop stop-color="#C09440"/><stop offset=".5" stop-color="#F5E283"/><stop offset=".885" stop-color="#D3B058"/></linearGradient><linearGradient id="paint78_linear" x1="320.5" y1="231.887" x2="332.661" y2="231.887" gradientUnits="userSpaceOnUse"><stop stop-color="#C09440"/><stop offset=".5" stop-color="#F5E283"/><stop offset=".885" stop-color="#D3B058"/></linearGradient><linearGradient id="paint79_linear" x1="324.576" y1="232.133" x2="350.883" y2="232.133" gradientUnits="userSpaceOnUse"><stop stop-color="#C09440"/><stop offset=".5" stop-color="#F5E283"/><stop offset=".885" stop-color="#D3B058"/></linearGradient><linearGradient id="paint80_linear" x1="357.549" y1="231.952" x2="288.259" y2="231.952" gradientUnits="userSpaceOnUse"><stop stop-color="#C09440"/><stop offset=".5" stop-color="#F5E283"/><stop offset=".885" stop-color="#D3B058"/></linearGradient><linearGradient id="paint81_linear" x1="428.22" y1="491.994" x2="330.115" y2="491.994" gradientUnits="userSpaceOnUse"><stop stop-color="#C09440"/><stop offset=".5" stop-color="#F5E283"/><stop offset=".885" stop-color="#D3B058"/></linearGradient><linearGradient id="paint82_linear" x1="474.151" y1="372.725" x2="477.661" y2="377.498" gradientUnits="userSpaceOnUse"><stop stop-color="#C09440"/><stop offset=".5" stop-color="#F5E283"/><stop offset=".885" stop-color="#D3B058"/></linearGradient><linearGradient id="paint83_linear" x1="474.143" y1="372.731" x2="480.901" y2="381.921" gradientUnits="userSpaceOnUse"><stop stop-color="#C09440"/><stop offset=".5" stop-color="#F5E283"/><stop offset=".885" stop-color="#D3B058"/></linearGradient><linearGradient id="paint84_linear" x1="474.137" y1="372.733" x2="483.342" y2="385.251" gradientUnits="userSpaceOnUse"><stop stop-color="#C09440"/><stop offset=".5" stop-color="#F5E283"/><stop offset=".885" stop-color="#D3B058"/></linearGradient><linearGradient id="paint85_linear" x1="475.174" y1="374.093" x2="469.28" y2="366.079" gradientUnits="userSpaceOnUse"><stop stop-color="#C09440"/><stop offset=".5" stop-color="#F5E283"/><stop offset=".885" stop-color="#D3B058"/></linearGradient><linearGradient id="paint86_linear" x1="475.755" y1="374.909" x2="472.209" y2="370.087" gradientUnits="userSpaceOnUse"><stop stop-color="#C09440"/><stop offset=".5" stop-color="#F5E283"/><stop offset=".885" stop-color="#D3B058"/></linearGradient><linearGradient id="paint87_linear" x1="474.5" y1="372.901" x2="467.272" y2="363.072" gradientUnits="userSpaceOnUse"><stop stop-color="#C09440"/><stop offset=".5" stop-color="#F5E283"/><stop offset=".885" stop-color="#D3B058"/></linearGradient><linearGradient id="paint88_linear" x1="465.331" y1="360.624" x2="484.694" y2="386.956" gradientUnits="userSpaceOnUse"><stop stop-color="#C09440"/><stop offset=".5" stop-color="#F5E283"/><stop offset=".885" stop-color="#D3B058"/></linearGradient><linearGradient id="paint89_linear" x1="461.014" y1="363.842" x2="466.336" y2="367.718" gradientUnits="userSpaceOnUse"><stop stop-color="#C09440"/><stop offset=".5" stop-color="#F5E283"/><stop offset=".885" stop-color="#D3B058"/></linearGradient><linearGradient id="paint90_linear" x1="460.997" y1="363.848" x2="471.254" y2="371.318" gradientUnits="userSpaceOnUse"><stop stop-color="#C09440"/><stop offset=".5" stop-color="#F5E283"/><stop offset=".885" stop-color="#D3B058"/></linearGradient><linearGradient id="paint91_linear" x1="461.003" y1="363.853" x2="474.97" y2="374.024" gradientUnits="userSpaceOnUse"><stop stop-color="#C09440"/><stop offset=".5" stop-color="#F5E283"/><stop offset=".885" stop-color="#D3B058"/></linearGradient><linearGradient id="paint92_linear" x1="462.547" y1="364.954" x2="453.604" y2="358.441" gradientUnits="userSpaceOnUse"><stop stop-color="#C09440"/><stop offset=".5" stop-color="#F5E283"/><stop offset=".885" stop-color="#D3B058"/></linearGradient><linearGradient id="paint93_linear" x1="463.449" y1="365.615" x2="458.066" y2="361.695" gradientUnits="userSpaceOnUse"><stop stop-color="#C09440"/><stop offset=".5" stop-color="#F5E283"/><stop offset=".885" stop-color="#D3B058"/></linearGradient><linearGradient id="paint94_linear" x1="461.422" y1="363.914" x2="450.456" y2="355.928" gradientUnits="userSpaceOnUse"><stop stop-color="#C09440"/><stop offset=".5" stop-color="#F5E283"/><stop offset=".885" stop-color="#D3B058"/></linearGradient><linearGradient id="paint95_linear" x1="447.605" y1="353.991" x2="476.988" y2="375.389" gradientUnits="userSpaceOnUse"><stop stop-color="#C09440"/><stop offset=".5" stop-color="#F5E283"/><stop offset=".885" stop-color="#D3B058"/></linearGradient><linearGradient id="paint96_linear" x1="443.54" y1="356.132" x2="450.354" y2="358.14" gradientUnits="userSpaceOnUse"><stop stop-color="#C09440"/><stop offset=".5" stop-color="#F5E283"/><stop offset=".885" stop-color="#D3B058"/></linearGradient><linearGradient id="paint97_linear" x1="443.557" y1="356.139" x2="456.804" y2="360.043" gradientUnits="userSpaceOnUse"><stop stop-color="#C09440"/><stop offset=".5" stop-color="#F5E283"/><stop offset=".885" stop-color="#D3B058"/></linearGradient><linearGradient id="paint98_linear" x1="443.537" y1="356.146" x2="461.636" y2="361.481" gradientUnits="userSpaceOnUse"><stop stop-color="#C09440"/><stop offset=".5" stop-color="#F5E283"/><stop offset=".885" stop-color="#D3B058"/></linearGradient><linearGradient id="paint99_linear" x1="445.283" y1="356.651" x2="433.707" y2="353.239" gradientUnits="userSpaceOnUse"><stop stop-color="#C09440"/><stop offset=".5" stop-color="#F5E283"/><stop offset=".885" stop-color="#D3B058"/></linearGradient><linearGradient id="paint100_linear" x1="446.477" y1="356.996" x2="439.569" y2="354.96" gradientUnits="userSpaceOnUse"><stop stop-color="#C09440"/><stop offset=".5" stop-color="#F5E283"/><stop offset=".885" stop-color="#D3B058"/></linearGradient><linearGradient id="paint101_linear" x1="443.921" y1="356.037" x2="429.523" y2="351.794" gradientUnits="userSpaceOnUse"><stop stop-color="#C09440"/><stop offset=".5" stop-color="#F5E283"/><stop offset=".885" stop-color="#D3B058"/></linearGradient><linearGradient id="paint102_linear" x1="425.845" y1="350.846" x2="464.225" y2="362.158" gradientUnits="userSpaceOnUse"><stop stop-color="#C09440"/><stop offset=".5" stop-color="#F5E283"/><stop offset=".885" stop-color="#D3B058"/></linearGradient><linearGradient id="paint103_linear" x1="376.931" y1="372.729" x2="373.423" y2="377.501" gradientUnits="userSpaceOnUse"><stop stop-color="#C09440"/><stop offset=".5" stop-color="#F5E283"/><stop offset=".885" stop-color="#D3B058"/></linearGradient><linearGradient id="paint104_linear" x1="376.932" y1="372.724" x2="370.174" y2="381.914" gradientUnits="userSpaceOnUse"><stop stop-color="#C09440"/><stop offset=".5" stop-color="#F5E283"/><stop offset=".885" stop-color="#D3B058"/></linearGradient><linearGradient id="paint105_linear" x1="376.936" y1="372.728" x2="367.732" y2="385.246" gradientUnits="userSpaceOnUse"><stop stop-color="#C09440"/><stop offset=".5" stop-color="#F5E283"/><stop offset=".885" stop-color="#D3B058"/></linearGradient><linearGradient id="paint106_linear" x1="375.923" y1="374.087" x2="381.816" y2="366.072" gradientUnits="userSpaceOnUse"><stop stop-color="#C09440"/><stop offset=".5" stop-color="#F5E283"/><stop offset=".885" stop-color="#D3B058"/></linearGradient><linearGradient id="paint107_linear" x1="375.322" y1="374.901" x2="378.867" y2="370.08" gradientUnits="userSpaceOnUse"><stop stop-color="#C09440"/><stop offset=".5" stop-color="#F5E283"/><stop offset=".885" stop-color="#D3B058"/></linearGradient><linearGradient id="paint108_linear" x1="376.593" y1="372.895" x2="383.821" y2="363.065" gradientUnits="userSpaceOnUse"><stop stop-color="#C09440"/><stop offset=".5" stop-color="#F5E283"/><stop offset=".885" stop-color="#D3B058"/></linearGradient><linearGradient id="paint109_linear" x1="385.762" y1="360.622" x2="366.398" y2="386.955" gradientUnits="userSpaceOnUse"><stop stop-color="#C09440"/><stop offset=".5" stop-color="#F5E283"/><stop offset=".885" stop-color="#D3B058"/></linearGradient><linearGradient id="paint110_linear" x1="390.076" y1="363.842" x2="384.754" y2="367.717" gradientUnits="userSpaceOnUse"><stop stop-color="#C09440"/><stop offset=".5" stop-color="#F5E283"/><stop offset=".885" stop-color="#D3B058"/></linearGradient><linearGradient id="paint111_linear" x1="390.059" y1="363.848" x2="379.802" y2="371.318" gradientUnits="userSpaceOnUse"><stop stop-color="#C09440"/><stop offset=".5" stop-color="#F5E283"/><stop offset=".885" stop-color="#D3B058"/></linearGradient><linearGradient id="paint112_linear" x1="390.085" y1="363.853" x2="376.117" y2="374.025" gradientUnits="userSpaceOnUse"><stop stop-color="#C09440"/><stop offset=".5" stop-color="#F5E283"/><stop offset=".885" stop-color="#D3B058"/></linearGradient><linearGradient id="paint113_linear" x1="388.554" y1="364.952" x2="397.499" y2="358.438" gradientUnits="userSpaceOnUse"><stop stop-color="#C09440"/><stop offset=".5" stop-color="#F5E283"/><stop offset=".885" stop-color="#D3B058"/></linearGradient><linearGradient id="paint114_linear" x1="387.64" y1="365.614" x2="393.023" y2="361.694" gradientUnits="userSpaceOnUse"><stop stop-color="#C09440"/><stop offset=".5" stop-color="#F5E283"/><stop offset=".885" stop-color="#D3B058"/></linearGradient><linearGradient id="paint115_linear" x1="389.662" y1="363.911" x2="400.628" y2="355.925" gradientUnits="userSpaceOnUse"><stop stop-color="#C09440"/><stop offset=".5" stop-color="#F5E283"/><stop offset=".885" stop-color="#D3B058"/></linearGradient><linearGradient id="paint116_linear" x1="403.514" y1="353.998" x2="374.131" y2="375.396" gradientUnits="userSpaceOnUse"><stop stop-color="#C09440"/><stop offset=".5" stop-color="#F5E283"/><stop offset=".885" stop-color="#D3B058"/></linearGradient><linearGradient id="paint117_linear" x1="407.543" y1="356.134" x2="400.729" y2="358.143" gradientUnits="userSpaceOnUse"><stop stop-color="#C09440"/><stop offset=".5" stop-color="#F5E283"/><stop offset=".885" stop-color="#D3B058"/></linearGradient><linearGradient id="paint118_linear" x1="407.542" y1="356.141" x2="394.295" y2="360.045" gradientUnits="userSpaceOnUse"><stop stop-color="#C09440"/><stop offset=".5" stop-color="#F5E283"/><stop offset=".885" stop-color="#D3B058"/></linearGradient><linearGradient id="paint119_linear" x1="407.53" y1="356.149" x2="389.436" y2="361.482" gradientUnits="userSpaceOnUse"><stop stop-color="#C09440"/><stop offset=".5" stop-color="#F5E283"/><stop offset=".885" stop-color="#D3B058"/></linearGradient><linearGradient id="paint120_linear" x1="405.78" y1="356.654" x2="417.357" y2="353.242" gradientUnits="userSpaceOnUse"><stop stop-color="#C09440"/><stop offset=".5" stop-color="#F5E283"/><stop offset=".885" stop-color="#D3B058"/></linearGradient><linearGradient id="paint121_linear" x1="404.592" y1="356.998" x2="411.501" y2="354.962" gradientUnits="userSpaceOnUse"><stop stop-color="#C09440"/><stop offset=".5" stop-color="#F5E283"/><stop offset=".885" stop-color="#D3B058"/></linearGradient><linearGradient id="paint122_linear" x1="407.148" y1="356.04" x2="421.551" y2="351.796" gradientUnits="userSpaceOnUse"><stop stop-color="#C09440"/><stop offset=".5" stop-color="#F5E283"/><stop offset=".885" stop-color="#D3B058"/></linearGradient><linearGradient id="paint123_linear" x1="425.266" y1="350.848" x2="386.883" y2="362.16" gradientUnits="userSpaceOnUse"><stop stop-color="#C09440"/><stop offset=".5" stop-color="#F5E283"/><stop offset=".885" stop-color="#D3B058"/></linearGradient><linearGradient id="paint124_linear" x1="423.301" y1="355.178" x2="430.352" y2="355.178" gradientUnits="userSpaceOnUse"><stop stop-color="#C09440"/><stop offset=".5" stop-color="#F5E283"/><stop offset=".885" stop-color="#D3B058"/></linearGradient><linearGradient id="paint125_linear" x1="423.298" y1="355.184" x2="437.175" y2="355.184" gradientUnits="userSpaceOnUse"><stop stop-color="#C09440"/><stop offset=".5" stop-color="#F5E283"/><stop offset=".885" stop-color="#D3B058"/></linearGradient><linearGradient id="paint126_linear" x1="423.299" y1="355.183" x2="442.336" y2="355.183" gradientUnits="userSpaceOnUse"><stop stop-color="#C09440"/><stop offset=".5" stop-color="#F5E283"/><stop offset=".885" stop-color="#D3B058"/></linearGradient><linearGradient id="paint127_linear" x1="424.796" y1="355.184" x2="412.643" y2="355.184" gradientUnits="userSpaceOnUse"><stop stop-color="#C09440"/><stop offset=".5" stop-color="#F5E283"/><stop offset=".885" stop-color="#D3B058"/></linearGradient><linearGradient id="paint128_linear" x1="426.053" y1="355.175" x2="418.883" y2="355.175" gradientUnits="userSpaceOnUse"><stop stop-color="#C09440"/><stop offset=".5" stop-color="#F5E283"/><stop offset=".885" stop-color="#D3B058"/></linearGradient><linearGradient id="paint129_linear" x1="423.659" y1="354.977" x2="408.138" y2="354.977" gradientUnits="userSpaceOnUse"><stop stop-color="#C09440"/><stop offset=".5" stop-color="#F5E283"/><stop offset=".885" stop-color="#D3B058"/></linearGradient><linearGradient id="paint130_linear" x1="404.205" y1="355.107" x2="445.031" y2="355.107" gradientUnits="userSpaceOnUse"><stop stop-color="#C09440"/><stop offset=".5" stop-color="#F5E283"/><stop offset=".885" stop-color="#D3B058"/></linearGradient><linearGradient id="paint131_linear" x1="354.793" y1="383.183" x2="401.891" y2="396.169" gradientUnits="userSpaceOnUse"><stop stop-color="#C09440"/><stop offset=".5" stop-color="#F5E283"/><stop offset=".885" stop-color="#D3B058"/></linearGradient><linearGradient id="paint132_linear" x1="354.019" y1="385.625" x2="401.138" y2="398.617" gradientUnits="userSpaceOnUse"><stop stop-color="#C09440"/><stop offset=".5" stop-color="#F5E283"/><stop offset=".885" stop-color="#D3B058"/></linearGradient><linearGradient id="paint133_linear" x1="354.829" y1="381.279" x2="401.658" y2="394.191" gradientUnits="userSpaceOnUse"><stop stop-color="#C09440"/><stop offset=".5" stop-color="#F5E283"/><stop offset=".885" stop-color="#D3B058"/></linearGradient><linearGradient id="paint134_linear" x1="353.511" y1="387.482" x2="400.465" y2="400.429" gradientUnits="userSpaceOnUse"><stop stop-color="#C09440"/><stop offset=".5" stop-color="#F5E283"/><stop offset=".885" stop-color="#D3B058"/></linearGradient><linearGradient id="paint135_linear" x1="353.816" y1="382.866" x2="402.177" y2="396.2" gradientUnits="userSpaceOnUse"><stop stop-color="#C09440"/><stop offset=".5" stop-color="#F5E283"/><stop offset=".885" stop-color="#D3B058"/></linearGradient><linearGradient id="paint136_linear" x1="371.171" y1="399.894" x2="419.765" y2="399.894" gradientUnits="userSpaceOnUse"><stop stop-color="#C09440"/><stop offset=".5" stop-color="#F5E283"/><stop offset=".885" stop-color="#D3B058"/></linearGradient><linearGradient id="paint137_linear" x1="371.066" y1="402.183" x2="419.682" y2="402.183" gradientUnits="userSpaceOnUse"><stop stop-color="#C09440"/><stop offset=".5" stop-color="#F5E283"/><stop offset=".885" stop-color="#D3B058"/></linearGradient><linearGradient id="paint138_linear" x1="370.698" y1="398.164" x2="419.024" y2="398.164" gradientUnits="userSpaceOnUse"><stop stop-color="#C09440"/><stop offset=".5" stop-color="#F5E283"/><stop offset=".885" stop-color="#D3B058"/></linearGradient><linearGradient id="paint139_linear" x1="371.066" y1="403.889" x2="419.521" y2="403.889" gradientUnits="userSpaceOnUse"><stop stop-color="#C09440"/><stop offset=".5" stop-color="#F5E283"/><stop offset=".885" stop-color="#D3B058"/></linearGradient><linearGradient id="paint140_linear" x1="370.181" y1="399.56" x2="419.978" y2="399.56" gradientUnits="userSpaceOnUse"><stop stop-color="#C09440"/><stop offset=".5" stop-color="#F5E283"/><stop offset=".885" stop-color="#D3B058"/></linearGradient><linearGradient id="paint141_linear" x1="498.896" y1="383.177" x2="451.796" y2="396.164" gradientUnits="userSpaceOnUse"><stop stop-color="#C09440"/><stop offset=".5" stop-color="#F5E283"/><stop offset=".885" stop-color="#D3B058"/></linearGradient><linearGradient id="paint142_linear" x1="499.669" y1="385.62" x2="452.551" y2="398.612" gradientUnits="userSpaceOnUse"><stop stop-color="#C09440"/><stop offset=".5" stop-color="#F5E283"/><stop offset=".885" stop-color="#D3B058"/></linearGradient><linearGradient id="paint143_linear" x1="498.846" y1="381.285" x2="452.016" y2="394.197" gradientUnits="userSpaceOnUse"><stop stop-color="#C09440"/><stop offset=".5" stop-color="#F5E283"/><stop offset=".885" stop-color="#D3B058"/></linearGradient><linearGradient id="paint144_linear" x1="500.157" y1="387.482" x2="453.203" y2="400.429" gradientUnits="userSpaceOnUse"><stop stop-color="#C09440"/><stop offset=".5" stop-color="#F5E283"/><stop offset=".885" stop-color="#D3B058"/></linearGradient><linearGradient id="paint145_linear" x1="499.89" y1="382.86" x2="451.519" y2="396.198" gradientUnits="userSpaceOnUse"><stop stop-color="#C09440"/><stop offset=".5" stop-color="#F5E283"/><stop offset=".885" stop-color="#D3B058"/></linearGradient><linearGradient id="paint146_linear" x1="482.507" y1="399.882" x2="433.919" y2="399.882" gradientUnits="userSpaceOnUse"><stop stop-color="#C09440"/><stop offset=".5" stop-color="#F5E283"/><stop offset=".885" stop-color="#D3B058"/></linearGradient><linearGradient id="paint147_linear" x1="482.59" y1="402.174" x2="433.98" y2="402.174" gradientUnits="userSpaceOnUse"><stop stop-color="#C09440"/><stop offset=".5" stop-color="#F5E283"/><stop offset=".885" stop-color="#D3B058"/></linearGradient><linearGradient id="paint148_linear" x1="482.958" y1="398.156" x2="434.637" y2="398.156" gradientUnits="userSpaceOnUse"><stop stop-color="#C09440"/><stop offset=".5" stop-color="#F5E283"/><stop offset=".885" stop-color="#D3B058"/></linearGradient><linearGradient id="paint149_linear" x1="482.596" y1="403.878" x2="434.141" y2="403.878" gradientUnits="userSpaceOnUse"><stop stop-color="#C09440"/><stop offset=".5" stop-color="#F5E283"/><stop offset=".885" stop-color="#D3B058"/></linearGradient><linearGradient id="paint150_linear" x1="483.476" y1="399.552" x2="433.684" y2="399.552" gradientUnits="userSpaceOnUse"><stop stop-color="#C09440"/><stop offset=".5" stop-color="#F5E283"/><stop offset=".885" stop-color="#D3B058"/></linearGradient><linearGradient id="paint151_linear" x1="426.355" y1="411.97" x2="421.221" y2="411.97" gradientUnits="userSpaceOnUse"><stop stop-color="#C09440"/><stop offset=".5" stop-color="#F5E283"/><stop offset=".885" stop-color="#D3B058"/></linearGradient><linearGradient id="paint152_linear" x1="426.339" y1="411.967" x2="416.242" y2="411.967" gradientUnits="userSpaceOnUse"><stop stop-color="#C09440"/><stop offset=".5" stop-color="#F5E283"/><stop offset=".885" stop-color="#D3B058"/></linearGradient><linearGradient id="paint153_linear" x1="426.348" y1="411.966" x2="412.482" y2="411.966" gradientUnits="userSpaceOnUse"><stop stop-color="#C09440"/><stop offset=".5" stop-color="#F5E283"/><stop offset=".885" stop-color="#D3B058"/></linearGradient><linearGradient id="paint154_linear" x1="425.298" y1="411.969" x2="434.13" y2="411.969" gradientUnits="userSpaceOnUse"><stop stop-color="#C09440"/><stop offset=".5" stop-color="#F5E283"/><stop offset=".885" stop-color="#D3B058"/></linearGradient><linearGradient id="paint155_linear" x1="424.387" y1="411.972" x2="429.61" y2="411.972" gradientUnits="userSpaceOnUse"><stop stop-color="#C0A440"/><stop offset=".5" stop-color="#F5EA83"/><stop offset=".885" stop-color="#C0A440"/></linearGradient><linearGradient id="paint156_linear" x1="426.12" y1="412.078" x2="437.419" y2="412.078" gradientUnits="userSpaceOnUse"><stop stop-color="#C09440"/><stop offset=".5" stop-color="#F5E283"/><stop offset=".885" stop-color="#D3B058"/></linearGradient><linearGradient id="paint157_linear" x1="440.257" y1="411.996" x2="410.503" y2="411.996" gradientUnits="userSpaceOnUse"><stop stop-color="#C09440"/><stop offset=".5" stop-color="#F5E283"/><stop offset=".885" stop-color="#D3B058"/></linearGradient></defs></svg>