<svg width="739" height="1142" fill="none" xmlns="http://www.w3.org/2000/svg"><circle opacity=".2" cx="168" cy="571" r="571" fill="#FFF9DB"/><circle cx="168" cy="572.137" r="279.813" fill="#D0BFFF"/><path d="M22.407 496.617c0-25.386 12.848-46.218 38.545-62.495 25.847-16.426 54.009-24.639 84.487-24.639h25.772c86.056 0 129.084 33.375 129.084 100.126 0 14.933-3.66 27.925-10.981 38.975-7.171 10.901-15.986 19.264-26.444 25.087-10.309 5.824-20.693 11.051-31.151 15.68-10.309 4.629-19.123 9.707-26.444 15.232-7.171 5.376-10.757 10.826-10.757 16.352 0 10.751-4.557 16.127-13.67 16.127h-50.424c-4.033 0-7.395-1.269-10.084-3.808-2.54-2.688-3.81-5.973-3.81-9.856 0-12.842 2.465-24.191 7.395-34.047 4.931-9.856 11.056-17.546 18.377-23.071 7.321-5.675 15.239-10.976 23.755-15.904 8.665-4.928 16.658-9.035 23.979-12.32 17.181-7.914 25.772-17.845 25.772-29.791 0-11.947-4.109-20.832-12.326-26.656-8.068-5.824-20.991-8.736-38.77-8.736h-11.429c-24.801 0-41.758 9.184-50.872 27.552-6.723 14.037-16.807 21.056-30.254 21.056H45.49c-7.32 0-12.998-2.614-17.032-7.84-4.034-5.227-6.05-10.901-6.05-17.024zm89.641 207.868v-14.112c0-9.856 2.689-17.397 8.068-22.623 5.378-5.227 12.774-7.84 22.186-7.84h27.565c9.412 0 16.807 2.613 22.186 7.84 5.378 5.226 8.068 12.767 8.068 22.623v14.112c0 9.557-2.69 17.024-8.068 22.399-5.379 5.227-12.774 7.84-22.186 7.84h-27.565c-9.412 0-16.808-2.613-22.186-7.84-5.379-5.375-8.068-12.842-8.068-22.399z" fill="#FFF9DB"/><path d="M34.871 496.616c0-25.386 12.849-46.217 38.546-62.494 25.847-16.427 54.009-24.64 84.487-24.64h25.772c86.056 0 129.084 33.375 129.084 100.126 0 14.933-3.661 27.925-10.981 38.975-7.172 10.901-15.986 19.264-26.445 25.088-10.308 5.824-20.692 11.05-31.15 15.68-10.309 4.629-19.123 9.706-26.444 15.231-7.171 5.376-10.757 10.827-10.757 16.352 0 10.752-4.557 16.128-13.67 16.128h-50.424c-4.034 0-7.395-1.27-10.084-3.808-2.54-2.688-3.81-5.974-3.81-9.856 0-12.843 2.465-24.192 7.395-34.047 4.931-9.856 11.056-17.547 18.377-23.072 7.32-5.675 15.239-10.976 23.755-15.904 8.665-4.928 16.658-9.034 23.979-12.319 17.181-7.915 25.772-17.845 25.772-29.792 0-11.946-4.109-20.831-12.326-26.655-8.068-5.824-20.991-8.736-38.77-8.736h-11.429c-24.801 0-41.758 9.184-50.872 27.551-6.723 14.037-16.808 21.056-30.254 21.056H57.954c-7.32 0-12.998-2.613-17.032-7.84-4.034-5.227-6.05-10.901-6.05-17.024zm89.642 207.868v-14.111c0-9.856 2.689-17.397 8.067-22.624 5.379-5.227 12.774-7.84 22.187-7.84h27.564c9.413 0 16.808 2.613 22.187 7.84 5.378 5.227 8.067 12.768 8.067 22.624v14.111c0 9.557-2.689 17.024-8.067 22.4-5.379 5.226-12.774 7.84-22.187 7.84h-27.564c-9.413 0-16.808-2.614-22.187-7.84-5.378-5.376-8.067-12.843-8.067-22.4z" stroke="url(#paint0_linear)" stroke-width="2"/><defs><linearGradient id="paint0_linear" x1="47.333" y1="419.451" x2="338.726" y2="449.196" gradientUnits="userSpaceOnUse"><stop stop-color="#D3B058"/><stop offset=".608" stop-color="#F5E283"/><stop offset=".87" stop-color="#C09440"/></linearGradient></defs></svg>