<svg width="915" height="870" fill="none" xmlns="http://www.w3.org/2000/svg"><g filter="url(#filter0_f)"><circle cx="480.921" cy="388.902" r="240.706" fill="#FFE066"/></g><path d="M807.045 491.049c-2.097-10.478-4.385-22.1-10.295-30.674 22.498-.191 47.475-13.527 48.237-38.676.572-23.816-18.113-46.488-41.755-48.584 8.389-12.193 13.347-26.864 16.206-41.344 2.67-12.765 4.004-25.53 5.911-38.295 2.097-13.337 3.623-29.531 14.3-39.057 1.525-1.334.19-3.811-1.716-4.001-27.265-1.143-51.289-13.718-73.787-28.007-8.961-5.716-18.494-12.384-28.408-15.814 11.439-17.337 8.961-40.962-7.246-54.49-15.443-12.955-37.37-14.098-54.911-5.144-.19-14.099-3.05-27.626-12.011-39.819-14.109-19.053-37.942-33.342-38.705-59.444 0-1.905-2.478-3.239-4.004-1.714l-1.525 1.524c-.381 0-.763.38-.953.952v.19c-26.312 24.007-69.02 14.48-98.764 30.485-2.478-22.292-20.972-38.296-43.661-37.915-21.164.381-42.899 15.623-44.234 37.915-12.584-6.86-26.121-11.241-40.611-13.337-24.786-3.62-51.479-2.858-72.071-19.243-1.525-1.334-3.813-.571-4.004 1.715-1.906 26.102-11.821 48.202-26.883 69.16-6.864 9.526-13.537 19.433-16.778 30.103-.191-.381-.382-.572-.763-.762-18.876-14.099-45.378-12.003-60.44 6.668-12.584 15.623-12.584 40.01 1.716 54.299-14.109 2.477-27.074 8.193-39.277 16.957-19.638 13.908-39.086 33.342-65.397 29.15-1.716-.19-4.004 1.524-2.669 3.43 15.825 21.148 25.739 44.582 31.268 70.303 2.86 13.146 5.53 26.673 12.394 38.105-25.74-.381-49.954 14.289-49.192 42.296.763 24.959 22.88 43.249 46.522 46.297-22.879 30.675-18.303 79.449-45.759 108.027-1.334 1.524-.381 3.811 1.525 3.811 26.884 1.333 50.145 10.669 71.88 26.102 8.008 5.715 15.825 11.431 24.786 15.432 4.195 1.715 8.39 3.048 12.775 3.81-21.545 9.527-24.786 38.296-11.059 55.633 17.923 22.673 49.382 21.149 71.308 5.716-1.716 39.057 49.763 68.779 49.382 108.98 0 1.714 1.907 2.858 3.432 1.905 23.07-13.718 47.475-19.433 72.642-27.435 11.631-3.62 22.88-8.765 31.46-16.767 2.86 24.197 23.07 43.249 48.047 43.63 23.07.191 45.949-17.909 47.284-41.343 8.198 6.287 18.685 10.479 28.409 13.527 26.121 8.383 53.576 11.812 77.218 26.483 1.525.952 3.432-.381 3.432-2.096 2.097-37.914 43.662-68.017 44.425-105.169 20.782 9.717 48.428 8.573 64.634-8.955 14.872-16.194 16.016-39.819-.381-55.252-.191-.19-.382-.19-.572-.381 10.105-2.096 20.019-7.621 28.218-13.527 22.879-16.385 44.234-29.722 72.833-34.104 1.907-.381 2.097-2.667.953-4.001-16.587-19.052-28.218-41.915-33.366-67.255zm2.098 24.387c4.957 12.956 11.821 25.15 20.019 36.2-41.946-16.766-84.082-34.675-127.172-48.774 12.012.571 24.214-.953 36.036-5.906 19.638-8.383 29.743-26.293 40.42-43.821.191.381.572.572 1.144.762 24.023 6.288 22.308 42.297 29.553 61.539zm-94.76 136.225c-18.303-1.905-36.607-1.905-54.911.381-19.638 2.477-40.42 9.336-60.058 4.001-16.588-4.573-27.646-15.432-35.845-28.96 0-.762-.572-1.333-.953-1.714-10.677-18.291-16.588-40.963-23.833-59.253-.191-.381-.381-.572-.572-.953 6.673-3.429 13.156-7.43 19.257-12.003-3.241 32.008 7.054 66.874 36.417 83.64 27.646 15.623 60.44 5.144 82.175-15.813 20.02-19.434 43.471-54.871 29.934-83.259-14.49-30.294-57.389-39.82-87.323-46.679 3.241-4.572 5.91-9.526 8.198-14.67 0 .762.381 1.334 1.144 1.715 16.206 8.002 33.938 16.194 52.051 20.767 13.537 5.334 25.358 15.242 31.65 28.769 8.008 17.147 3.623 35.818.763 53.537-4.004 21.72-9.533 50.298 1.906 70.494zm-485.236-38.295c.381-.381.572-.762.381-1.334 0-.572 0-1.143-.191-1.905 0-.572-.381-1.334-.953-1.715-4.385-38.105-12.393-76.781 20.592-103.264.572-.19.953-.19 1.525-.381 23.452-5.525 46.14-17.338 68.448-26.483 2.669-1.143 1.525-5.525-1.144-4.572-37.179 14.861-85.989 45.725-122.406 13.717-14.109-12.384-18.875-31.627-30.506-45.916-10.295-12.384-23.451-21.529-37.179-29.722 21.354-13.146 31.46-31.627 44.615-52.965 17.541-28.579 48.047-46.107 81.795-35.819.572.191 1.144 0 1.334-.381 2.288 1.334 4.767 2.477 7.245 3.62 18.113 8.574 37.37 16.195 57.009 20.958-2.67 6.478-4.767 13.337-6.674 20.195-24.786-22.481-56.817-45.154-91.899-34.865-33.747 9.907-44.996 48.012-43.09 79.448 2.097 33.913 15.635 64.778 51.86 72.208 29.553 5.907 66.542-6.287 82.367-33.151.762-1.333-1.144-2.858-2.098-1.714-21.163 21.529-47.475 36.58-78.934 30.293-34.701-6.859-46.903-37.343-48.619-69.541-1.525-30.103 9.915-66.493 43.09-73.924 33.175-7.43 62.537 14.861 85.417 35.819.19.19.381.19.572.381-1.716 7.43-2.86 15.051-3.623 22.672-12.202-16.956-32.031-28.578-53.576-25.72-21.926 2.857-40.993 20.576-41.565 43.249-.572 21.529 14.491 39.819 36.036 42.296 22.879 2.667 45.568-9.526 59.486-27.245.763 7.049 1.907 13.908 3.623 20.767 3.813 15.432 9.724 29.912 17.35 43.249-30.315-1.334-66.35 11.431-82.747 38.105-16.207 26.673-12.203 61.92 7.626 85.545s55.102 37.343 85.608 28.578c36.035-10.478 45.568-56.585 53.576-88.212.191-.381 0-.762 0-1.143 4.195 2.286 8.389 4.382 12.774 6.478-.762-.191-1.716 0-1.906.952 0 .381 0 .762.19 1.143-.19.191-.381.572-.572.953-10.677 39.438-26.883 88.784-74.739 93.166-33.557 3.049-67.114-14.099-99.908-2.667 2.288-12.765 1.335-26.864-.19-41.153zm126.981-323.7c-10.105-11.622-22.117-22.863-34.7-31.627 4.003-2.668 5.147-8.383 3.05-12.765-3.05-6.097-11.058-7.05-16.778-4.382-6.292 3.048-9.152 10.097-4.957 16.004 3.813 5.525 11.249 5.525 16.206 1.905h.381v.19c11.249 11.051 23.07 21.72 34.51 32.961.572.571 1.335.571 1.907.19-3.813 3.811-7.245 7.812-10.677 12.003h-.382c-17.35-1.333-35.463-4.763-48.237-17.718-13.156-13.527-17.923-36.581-4.958-51.823 13.347-16.004 39.658-18.1 55.293-4.191 14.299 12.765 17.159 33.151 19.447 51.06 0 .381.191.572.191.762-3.623 3.049-7.055 6.287-10.296 9.526.572-.762.572-1.524 0-2.095zm-37.751-34.104c-.381.19-.572.571-.763.952-3.813 1.525-8.961 1.906-11.63-1.905-3.051-4.191-.381-8.764 4.004-10.479 3.432-1.333 8.58-1.143 10.677 2.477 1.907 3.239.953 7.24-2.288 8.955zm25.549-33.342c-17.541-10.669-42.327-6.668-55.674 8.955-12.584 14.48-11.058 36.009-.762 51.441 12.011 17.909 34.7 25.721 55.482 24.197-4.576 5.906-8.961 12.193-12.583 18.862-28.409-4.954-59.868-9.527-79.507-32.961-22.689-27.435-11.249-65.731 12.584-87.831 23.452-21.72 55.674-32.961 85.226-16.767 27.074 14.671 39.849 44.392 44.234 73.352.191 1.334 1.144 1.715 2.288 1.715-8.008 4.001-15.634 8.764-22.88 14.48-.572.381-1.144.952-1.716 1.333-2.669-21.148-7.245-44.963-26.692-56.776zm9.914 78.305c23.452-26.101 54.72-44.201 89.802-48.393 33.366-4.001 69.02-1.143 99.526 13.909 28.028 13.717 52.433 36.199 68.067 63.254 16.778 28.959 19.257 64.968 19.447 97.929.191 19.052-2.288 38.295-11.821 55.252-9.151 16.194-23.833 30.293-36.988 43.439-28.79 28.96-65.779 53.918-108.678 47.631-.572 0-1.144 0-1.525.381-64.635-3.048-123.74-41.343-148.145-102.311-23.07-58.3-11.631-124.603 30.315-171.091zm365.882-21.91c-3.432 20.196-18.113 31.437-35.273 39.248-.19 0-.572.191-.762.191-.382 0-.572.19-.763.381-1.716.762-3.432 1.524-4.957 2.095-18.304 7.24-36.989 13.718-55.483 20.577-2.097-5.144-4.576-9.907-7.245-14.67 31.459-4.001 67.685-10.86 85.798-40.01 16.397-26.102 12.584-60.968-6.864-84.212-19.638-23.244-56.817-37.724-85.989-24.577-15.443 6.858-26.883 20.195-35.082 34.484-9.533 16.385-18.113 35.628-17.731 55.062-5.148-2.858-10.296-5.525-15.825-7.812.762-.19 1.525-.571 1.716-1.714 4.194-19.815 14.299-40.963 19.257-62.111 18.303-22.673 44.805-35.247 74.549-31.437 25.93 3.43 51.288 14.29 77.218 7.05-10.868 36.199 13.728 71.065 7.436 107.455zm-102.767-10.288c.572.381 1.334.19 1.716-.191 5.72 2.287 12.965 1.334 16.969-3.62 4.194-5.144 3.622-13.527-2.479-16.766-6.101-3.239-15.253-1.333-19.257 4.192-2.86 3.81-2.479 10.288 1.335 13.146-.382.191-.954.381-1.335.762-4.385 2.858-8.198 7.24-12.012 10.669-4.194 3.62-8.389 7.431-12.583 11.241-1.144.953-2.288 1.906-2.86 2.858-2.67-2.477-5.339-4.953-8.199-7.43.572-.191.953-.572.953-1.334-2.669-19.814 3.242-40.2 20.592-51.632 16.969-11.05 39.849-9.336 53.767 5.906 13.156 14.671 12.012 37.915-1.716 51.632-12.584 12.384-31.841 15.052-48.619 17.529-.953.19-1.335.762-1.525 1.333a151.852 151.852 0 00-12.965-14.099c.762-1.905 6.291-5.525 7.435-6.668 2.098-1.905 4.195-3.62 6.292-5.525 1.526-1.334 12.775-12.956 14.491-12.003zm1.144-15.051c3.432-3.239 10.486-4.382 14.109-1.144 3.432 2.858 2.288 8.574-.954 11.241-3.431 2.858-7.817 2.287-11.63.953 0 0-.191-.191-.381-.191-4.004-2.286-4.576-7.621-1.144-10.859zm-13.728 56.585c20.782-3.048 45.568-7.43 57.199-27.245 10.105-17.337 6.673-40.2-8.58-53.346-15.634-13.528-38.514-14.29-55.674-3.049-18.303 12.003-25.93 34.104-21.544 55.062-1.526-1.144-3.051-2.477-4.576-3.62-4.386-3.239-8.962-6.288-13.537-8.955a1.46 1.46 0 00.381-.953c3.432-30.483 20.401-69.541 49-84.402 28.218-14.861 65.588 0 84.273 23.435 18.113 22.482 20.401 56.204 3.432 80.21-17.922 25.34-51.669 31.246-80.269 34.866a3.689 3.689 0 00-1.716.953c-2.669-4.573-5.72-8.764-8.961-12.956h.572zm-67.685-53.347c-.191.763 0 1.334.381 1.906-3.623-1.524-7.245-2.858-11.058-4.001.381-.191.953-.572 1.144-1.334 6.863-20.386 14.681-40.772 20.21-61.539 4.194-15.433 5.148-32.008-4.004-46.107-18.304-27.626-57.008-28.007-86.37-25.149-27.646 2.858-55.483 14.099-60.25 44.582-5.148 32.008 16.969 64.017 40.039 83.831-7.435 1.524-14.871 3.429-21.926 5.906 0-.381 0-.762-.19-1.143-7.818-19.052-16.779-37.533-27.646-55.061-12.775-31.246-1.335-60.968 26.502-80.782 20.019-14.099 42.899-23.816 59.105-42.678 19.638 25.34 50.526 37.914 71.308 62.111 31.459 36.771.953 80.401-7.245 119.458zm-13.919-3.238c-9.914-3.049-20.401-5.145-30.696-6.478 13.537-17.338 28.599-38.867 21.163-61.92-5.91-18.291-25.739-26.864-43.662-23.816-22.116 3.62-40.611 20.386-37.56 43.821 2.097 16.575 10.677 34.865 26.693 41.153-6.483.381-12.965 1.143-19.257 2.476.19-.381.381-.952 0-1.524-16.779-23.244-39.658-43.058-38.514-74.495 1.334-34.294 32.031-45.725 61.584-47.821 28.599-2.096 70.164-.762 81.604 32.008 5.529 15.813-.191 32.77-5.148 47.821-5.148 15.814-10.487 31.627-15.825 47.441-.572.381-.572.953-.382 1.334zm-40.23-56.967c1.144-6.097-3.622-12.194-9.533-12.956-6.673-.952-13.155 3.811-14.109 10.67-.762 6.287 4.386 11.622 10.677 10.288.382.19.954.19 1.335.381-1.335 13.337-.763 27.435.381 40.772h-5.91c-.191-.381-.381-.953-.953-1.143-15.444-6.097-24.024-20.577-27.265-36.39-4.767-23.244 12.774-40.391 35.272-42.868 19.639-2.096 37.37 10.669 37.942 31.055.572 18.672-11.821 34.485-22.689 48.393-.381.382-.381.953-.572 1.334-4.194-.381-8.389-.571-12.583-.762-.191-13.527-.382-27.435-1.716-40.772 4.576.381 8.961-3.239 9.723-8.002zm-12.583 4.382c-1.144-.191-1.907.381-2.098 1.143-3.813-.762-6.101-4.572-4.957-8.573 1.144-4.192 5.529-6.859 9.915-6.097 3.622.762 6.482 4.191 6.101 7.811-.381 4.573-4.957 6.669-8.961 5.716zm215.258 221.77c6.483.952 13.728-3.239 14.872-9.907 1.144-6.478-3.432-13.528-9.915-14.671-7.054-1.143-14.49 5.144-13.918 12.384-13.728-.19-27.646-.19-41.374.572-.381-7.05-.953-14.099-1.525-21.148.762.19 1.525.19 2.288-.381 13.727-11.813 31.459-17.91 49.763-16.385 9.533.762 20.972 3.62 27.646 11.05 7.817 8.574 6.482 20.767 5.91 31.436-1.334 22.863-11.821 40.391-37.179 36.771-17.732-2.476-33.366-9.907-46.14-22.291 0-5.334-.191-10.86-.382-16.194 13.728.571 27.456.762 41.183.571.572 3.811 4.386 7.431 8.771 8.193zm-6.101-10.67c.381-.19.572-.762.572-1.333.19-4.954 4.576-9.717 9.914-8.764 4.195.762 7.055 5.334 6.673 9.335-.762 10.289-17.35 9.145-17.159.762zm-43.853 22.292c13.537 14.861 34.892 23.625 54.911 23.244 22.88-.381 31.46-20.005 33.175-40.201 1.716-22.672-2.097-40.772-26.502-47.059-22.498-5.907-46.331.571-63.872 15.432a230.454 230.454 0 00-2.288-16.004l1.144-.571c.763.952 2.288 1.333 3.432.19 21.164-18.1 53.005-33.913 81.795-28.388 33.175 6.287 42.517 42.677 42.517 71.828 0 29.34-11.058 62.872-44.043 68.017-30.506 4.763-56.626-13.909-78.934-32.008-.953-.763-1.907-.382-2.288.381.381-5.145.763-9.908.953-14.861zm-74.93 116.791c.953-.762 1.906-1.524 3.05-2.286 3.432-2.668 6.674-5.526 9.915-8.384-10.296 42.678 37.942 78.496 77.218 56.396 19.257-10.86 28.218-32.58 19.829-53.157-10.486-25.339-37.56-34.865-62.537-38.485a180.711 180.711 0 007.626-9.336c26.121 6.097 60.059 13.146 78.744 33.913 24.024 26.674 1.716 64.397-18.876 85.926-20.591 21.53-53.194 33.342-80.65 16.957-28.599-17.338-36.035-50.679-34.319-81.544zm59.296 6.287c-4.576 2.858-5.529 9.526-2.479 14.289 3.814 5.716 12.012 8.002 17.541 3.43 4.767-3.811 6.674-11.241 3.051-16.576-3.051-4.382-9.152-6.287-14.109-4.763l-.191-.19c-11.249-9.527-22.879-19.243-34.891-27.817a697.23 697.23 0 0016.206-17.337c.191.571.763.952 1.526.952 20.401 2.858 42.517 9.145 54.91 26.864 13.728 19.624 8.199 44.583-12.965 56.395-39.276 22.101-79.506-15.623-70.545-56.204 3.241-3.049 6.292-6.097 9.343-9.146 10.105 10.289 21.545 19.624 33.175 28.198-.572.572-.763 1.143-.572 1.905zm3.432 1.334c.381-.191.763-.572.763-.762 7.245-2.477 15.062 4.763 9.914 12.193-7.817 11.051-21.736-7.43-10.677-11.431zm-155.009 63.063c0 .191-.191.191-.191.381-5.147-.571-10.105 3.62-10.486 9.145-.572 7.621 6.864 13.909 14.109 13.147 6.673-.572 12.965-6.478 12.393-13.337-.572-6.287-6.864-11.813-13.156-10.479 1.716-13.718 2.86-27.626 4.195-41.534 0-.381 0-.762-.191-.953 5.72.762 11.44.953 17.16.762-.191.572 0 1.334.572 2.096 13.728 14.48 21.163 34.675 17.16 54.68-1.907 9.336-6.292 19.053-14.491 24.578-8.58 5.716-20.21 4.763-29.934 3.429-20.21-2.857-37.179-14.479-35.844-36.961 1.334-20.577 15.253-38.105 31.078-49.917 3.813.571 7.626.952 11.249 1.143h.19c-.381.19-.762.762-.762 1.333-1.526 13.718-3.051 28.198-3.051 42.487zm2.097 2.668c.191 0 .382 0 .572-.191 4.386-.191 8.771 2.477 9.152 7.24.191 4.382-3.813 8.002-7.817 8.764-4.767.953-9.914-2.286-10.868-7.049-.762-5.335 4.195-9.146 8.961-8.764zm-45.568 5.715c.381 22.863 19.066 34.866 39.849 37.914 22.498 3.049 41.183-3.048 48.237-26.292 6.673-22.291-.762-46.488-16.206-63.254 5.148-.571 10.296-1.524 15.444-2.667-.191.572 0 1.143.381 1.715 18.494 24.006 39.848 53.156 30.506 85.354-9.152 31.056-44.615 35.247-72.071 36.581-34.128 1.715-74.93-4.763-75.693-47.059-.572-31.627 14.681-59.063 35.845-81.354 7.626 2.096 15.634 3.62 23.642 4.572 0 0 .191 0 .191.191.381 0 .572.19.953.19-17.732 11.241-31.459 32.199-31.078 54.109zm-104.864-69.922c-.191.191-.382.572-.382.762h-.381c-4.957-2.477-11.44-2.286-15.062 2.286-4.004 4.954-2.67 12.384 2.669 16.004 5.529 3.43 12.393 1.906 16.206-3.429 2.86-4.192 3.241-10.86-.953-13.908 11.821-11.051 23.261-22.673 34.7-34.295.191-.19.191-.19.191-.381 3.432 3.43 7.055 6.669 10.868 9.908-.381.19-.572.571-.572 1.143-2.669 20.005-6.483 41.534-24.405 53.918-16.397 11.241-38.323 10.669-52.623-4.001-15.062-15.623-11.821-38.867 2.86-53.347 14.3-14.098 34.319-17.337 53.576-18.862 2.479 3.049 5.148 5.907 8.008 8.765-.191 0-.19.19-.381.19-11.631 11.813-23.261 23.244-34.319 35.247zm-1.144 14.48c-2.86 3.048-7.818 3.239-10.868.19-2.669-2.667-2.479-7.811.762-10.097 2.67-1.906 5.911-1.525 9.152-.953.191.381.382.762.763.953 4.004 1.714 2.669 7.239.191 9.907zm-33.748-37.533c-12.011 15.623-13.346 36.58-.572 52.203 12.965 15.623 34.32 19.815 52.623 11.432 24.596-11.051 30.888-35.819 34.319-60.397 6.102 4.764 12.584 9.146 19.257 13.147-.762.19-1.334.571-1.525 1.524-7.054 28.388-15.825 72.589-46.903 83.83-28.79 10.479-63.681-2.667-83.129-24.958-20.782-23.816-23.833-61.158-4.194-86.689 18.875-24.387 48.428-26.863 76.265-32.389 3.813 6.478 8.198 12.575 12.774 18.291-21.736-.381-45.187 5.906-58.915 24.006zm-39.848-135.082c-4.767 1.143-7.055 7.24-4.957 12.194 2.478 5.525 9.533 8.573 15.062 5.906 3.241-1.524 5.529-4.573 6.101-8.002 15.062 1.334 30.315 1.143 45.378 1.334.381 0 .572-.191.762-.191 0 3.43.191 7.049.572 10.479a.41.41 0 00-.381.381c-13.156 14.48-30.887 26.292-51.097 26.864-21.355.571-38.896-14.48-39.086-36.2 0-20.195 15.634-36.009 34.891-39.819 21.164-4.192 41.374 7.621 53.004 24.768.572.953 1.526 1.143 2.479.953-.191 3.238-.191 6.477-.191 9.716-.191-.19-.572-.19-.763-.19-14.871-.381-30.124-.953-44.996-.191 0-1.905-.381-3.62-1.525-5.334-2.86-4.573-11.059-7.05-15.253-2.668zm10.677 13.718c-2.86 2.858-7.627 2.286-10.296-.381-3.05-2.858-3.05-8.955.381-10.669.191 0 .572.19.954 0 .572-.191 1.144-.382 1.525-.572h.763c.381 0 .572-.191.762-.381 2.098-.381 4.195-.191 6.292 1.524 3.051 2.667 2.479 7.621-.381 10.479zM389.494 618.7c0-.19.191-.19.191-.381 8.77-16.575 14.109-35.437 18.685-52.584.19-.572 0-1.143-.191-1.524.381-.382.572-.953.763-1.525 5.91 2.668 12.202 4.763 18.303 6.669-25.358 20.957-40.039 57.728-36.416 90.308 4.194 37.724 43.852 45.345 75.502 44.202 28.409-1.144 64.825-4.001 78.553-33.342 16.016-34.485-8.198-69.351-28.409-95.643l-.381-.381c6.101-1.905 12.203-4.192 17.922-7.05v.191c7.818 19.624 13.919 43.249 25.549 62.111.572 14.098.763 28.959-4.004 42.487-5.338 15.623-18.113 25.911-31.078 35.246-18.494 13.528-37.942 25.531-52.241 43.44-10.487-23.435-34.701-33.913-55.674-46.678-14.871-8.955-28.027-20.387-32.984-37.534-5.148-16.194-2.288-33.722 5.91-48.012zM629.92 474.474c-1.144-.572-2.098-.191-2.67.381 1.526-3.43 2.67-6.859 3.814-10.479a95.091 95.091 0 002.86-14.67c0 .19.19.381.381.762 19.448 23.053 55.483 40.581 85.798 33.913 32.794-7.43 44.043-42.106 44.043-72.018 0-29.722-9.533-66.493-42.136-75.447-31.269-8.574-66.541 8.764-89.802 28.388-.763.381-1.335.952-2.098 1.333-.572-3.048-1.144-5.906-1.906-8.764a159.95 159.95 0 00-4.004-12.574c20.591-7.431 41.564-14.48 61.775-23.244l6.291-2.858c32.032-3.62 59.297 12.384 77.028 39.629 12.393 19.052 22.498 40.581 42.137 53.156-29.553 13.718-35.464 49.727-58.915 70.303-36.035 31.818-85.989 9.336-122.596-7.811zm210.491-52.775c-.762 23.815-24.786 34.485-45.377 36.199h-.191c-3.432-4.001-8.008-7.049-13.918-8.573h-.191c9.152-14.861 19.066-28.579 36.417-34.676 1.716-.571 2.478-3.239.572-4.191-10.868-5.906-18.876-14.671-25.931-24.387 3.051-2.668 5.72-5.525 8.199-8.574.191 0 .381.191.572.191 22.307.381 40.42 21.91 39.848 44.011zm-22.498-108.027c-3.813 25.53-10.105 50.107-28.79 68.588-9.342-13.908-16.969-29.34-28.027-41.725-15.253-17.147-37.179-26.292-59.487-25.53 25.93-7.811 51.098-19.433 75.693-30.674 12.393-5.716 24.596-11.431 36.798-17.528 3.432-1.715 9.724-3.811 14.872-6.478-8.39 15.432-8.58 37.152-11.059 53.347zm-37.751-76.591c16.397 9.145 33.938 15.814 52.623 17.528-7.436 3.43-26.121 12.003-28.218 13.146-11.631 5.716-23.261 11.051-34.892 16.385-21.544 9.717-43.852 18.1-65.587 27.817 7.245-5.335 13.346-12.194 17.159-21.148 11.059-27.245-1.144-55.062-5.529-82.878 23.451-3.239 45.187 18.481 64.444 29.15zM673.01 166.016c.381-5.145.762-10.289.762-15.433 15.825-7.24 34.701-7.24 49.382 3.049 16.969 12.003 19.638 34.484 8.58 51.251 0 .19-.191.19-.191.381-5.339-1.334-10.677-1.525-16.397-.381-1.716-12.194-1.716-24.578 3.051-36.772.572-1.524-1.335-3.429-2.86-2.857-14.3 5.144-28.409 4.191-42.518 1.524 0 0 .191-.381.191-.762zM612.569 57.608c-18.303 41.534-36.797 84.211-49.763 127.651-.19.762.954 1.143 1.144.571 19.639-43.439 36.036-88.594 54.53-132.605l.381-.38c2.479 17.147 14.109 29.912 25.93 42.105 8.771 9.145 17.732 18.481 21.736 30.865 2.479 7.621 3.051 15.814 2.86 23.816a1.428 1.428 0 000 2.286c-.191 4.763-.572 9.336-.953 14.099v.381c-18.113-3.62-36.226-9.145-54.721-6.859-20.21 2.477-39.276 12.955-51.669 28.959 2.288-14.289 1.525-28.578-6.101-42.486-12.012-21.72-33.748-34.676-53.577-49.537 27.075-32.389 77.028-17.147 110.203-38.867zm-180.176 22.29c4.576-18.48 19.257-31.626 38.323-33.531 21.355-2.096 40.612 12.193 42.518 34.103 0 .572.191.953.572 1.334-5.148 3.43-9.914 7.621-13.918 13.146-9.343-7.24-18.304-15.051-25.168-24.577-.762-1.144-2.669-1.715-3.622-.381-6.864 8.573-15.253 15.432-24.214 21.338 0-.38-.191-.952-.572-1.143-4.576-3.62-9.152-6.668-14.109-9.526 0-.381 0-.572.19-.762zm10.868 13.528c-16.206 10.479-33.747 19.052-47.284 32.961-15.063 15.242-22.117 37.723-17.732 58.109-18.876-43.82-36.989-89.165-59.487-131.27 14.872 9.907 32.222 12.955 49.954 14.86 27.646 3.049 51.86 8.002 74.549 25.34zm-142.997 11.622c9.152-15.051 14.681-31.817 16.778-49.346 16.207 40.772 35.845 80.401 53.576 120.411-5.529-5.715-12.011-10.478-20.019-13.527-26.121-10.098-53.004-3.048-79.888 2.286.191-23.624 17.732-40.391 29.553-59.824zm-30.887 64.778c.19 0 .381 0 .572-.19 23.07-4.573 46.14-10.67 69.401-5.526 20.591 4.763 32.222 18.291 42.899 35.438 10.868 17.719 20.019 36.199 27.837 55.252.19.571.572.952.953 1.143-4.957 1.905-9.724 3.81-14.3 6.097.572-.572.763-1.143.763-2.096-4.957-32.77-20.973-65.54-52.814-79.449-30.506-13.146-63.109 0-85.798 22.101-22.879 22.101-34.128 58.682-15.444 87.07 18.495 28.007 54.149 35.247 85.227 38.867-2.86 5.334-5.53 10.669-7.817 16.194-32.985-12.384-83.32-22.482-92.472-61.539-8.77-36.962 8.961-73.161 2.288-109.742 12.965.953 25.93-.953 38.705-3.62zm-57.39-13.146c13.728-17.338 37.37-18.481 54.53-5.716.762.572 1.525.572 2.288.191-1.144 4.572-1.526 9.526-1.144 14.48-13.347 2.476-26.693 4.382-39.849 3.238-1.525-.19-2.478 1.525-2.288 3.049 2.479 11.431 2.479 23.053 1.335 34.675h-.191c-4.385 0-8.77.191-13.156.762-10.677-15.813-14.299-34.675-1.525-50.679zm-55.673 84.783c21.926-16.004 41.373-30.484 69.973-30.293-3.241 28.388-10.868 56.776 1.144 84.402 3.05 7.049 7.817 12.765 13.346 17.719-43.09-18.862-86.561-37.343-130.413-54.3 17.16.572 32.222-7.43 45.95-17.528zm-20.592 74.876c-4.576-19.624-12.774-37.914-24.023-54.49 41.945 19.053 84.463 36.771 126.981 54.299-20.02-2.476-40.039 6.478-54.911 20.768-10.868 10.669-17.541 23.815-25.167 36.771l-1.144 1.714c-14.872-16.194-16.969-38.295-21.736-59.062zm-33.938 93.357c-1.907-27.055 21.545-38.486 45.187-39.439.763 0 1.335-.381 1.525-.762 2.098 3.048 4.576 5.906 7.436 8.383-8.77 13.527-19.829 24.197-34.128 32.199-1.526.952-1.526 3.239 0 4.001 13.155 7.621 25.358 16.004 35.463 26.673a56.714 56.714 0 00-11.058 10.098h-.191c-20.973-4.763-42.518-17.147-44.234-41.153zm2.479 152.419c29.171-34.485 20.401-87.451 55.101-118.887 4.385 4.953 8.389 10.288 11.631 16.385 8.77 16.004 16.206 30.674 32.984 39.819 10.296 5.526 21.355 8.002 32.794 7.431-42.708 20.195-86.179 37.914-130.032 55.442-.762 0-1.716-.19-2.478-.19zm96.666 42.677c-13.347-4.763-24.214-14.67-36.036-22.291-16.015-10.479-33.937-16.957-52.813-19.624 42.327-14.861 83.701-32.961 124.312-52.013-10.868 11.431-15.825 28.197-16.969 43.63-1.144 17.719 1.907 35.056 4.385 52.394h-3.432c-6.673.762-12.965.19-19.447-2.096zm71.88 52.394c-1.335 3.43-2.288 6.859-2.86 10.098-.382 0-.572.19-.954.381-18.875 13.718-44.805 18.29-63.3 1.334-17.541-16.195-14.49-42.106 5.148-54.871.953-.572.953-1.715.191-2.287 1.144.191 10.486 0 13.728.382 1.906 15.241 2.859 30.293-.572 45.725-.382 1.524 1.144 3.62 2.859 2.858 15.063-6.287 30.507-5.906 46.141-4.001-.381.191-.381.191-.381.381zm2.478.762v-.571c24.214 3.239 48.428 9.907 72.071 1.143 11.439-4.192 20.782-11.051 28.218-19.434-19.257 43.821-39.277 88.594-53.004 134.51-6.102-42.868-58.725-68.969-47.285-115.648zm102.005 98.501c-19.067 5.144-37.18 11.813-54.339 21.529v-.762c18.875-43.82 35.082-88.974 54.148-132.795-1.907 16.004 2.669 32.58 13.728 45.345 11.63 13.527 28.599 21.338 44.233 30.484-.381.19-.762.381-1.144.952-10.295 22.863-34.319 29.341-56.626 35.247zm96.856 22.482c-24.404-.191-40.992-19.052-45.377-41.725 3.622-3.81 6.863-8.383 9.151-13.527.191-.572.191-.953.191-1.524 13.346 8.383 25.358 18.1 30.887 33.913.763 1.905 3.051 2.286 4.195.572 9.533-12.956 21.926-22.673 34.891-32.008 1.907 5.525 5.148 9.907 9.152 13.908-3.623 22.291-18.303 40.581-43.09 40.391zm96.094-22.482c-21.735-5.525-48.809-11.622-59.296-33.913 10.487-7.431 20.973-14.671 30.697-23.054 19.257-16.956 23.07-39.438 22.307-63.253.191.19.382.571.572.762v.571c7.627 23.435 18.113 46.297 28.028 68.779 10.486 23.625 20.973 47.25 33.938 69.732-17.541-9.907-36.798-14.67-56.246-19.624zm56.627 16.385c-9.533-21.529-20.019-42.677-29.362-64.206-8.961-20.767-16.778-41.916-25.167-62.683 5.148 4.763 10.867 8.955 17.922 12.003 16.778 7.24 34.891 4.573 52.242 1.715 8.198-1.334 16.397-2.477 24.595-3.239 16.588 42.868-32.794 75.829-40.23 116.41zM733.068 665.76c-16.397 14.289-38.704 11.622-57.961 6.287-.191-5.144-1.144-10.669-3.241-16.195 15.634-1.143 31.078-.952 47.093.953 1.716.191 3.051-2.096 2.098-3.62-9.724-13.146-8.771-30.865-7.436-46.678 7.054 4.382 14.871 5.334 22.498 4.191-.763.762-.953 2.096 0 3.049 16.016 15.051 12.965 38.295-3.051 52.013zm47.857-84.974c-20.02 13.908-41.184 34.485-67.114 22.863 0-.381 0-.953.191-1.334 1.716-18.671 7.817-37.342 6.483-56.204-1.144-17.91-10.487-33.723-24.977-43.059 44.996 20.767 92.471 37.152 138.612 54.871.19.191.381.572.762.762-19.257 3.62-37.56 10.86-53.957 22.101z" fill="#FFF3B9"/><defs><filter id="filter0_f" x=".215" y="-91.804" width="961.412" height="961.412" filterUnits="userSpaceOnUse" color-interpolation-filters="sRGB"><feFlood flood-opacity="0" result="BackgroundImageFix"/><feBlend in="SourceGraphic" in2="BackgroundImageFix" result="shape"/><feGaussianBlur stdDeviation="120" result="effect1_foregroundBlur"/></filter></defs></svg>