<svg width="398" height="396" fill="none" xmlns="http://www.w3.org/2000/svg"><path d="M377.604 240.187c-1.116-5.572-2.332-11.753-5.475-16.312 11.964-.102 25.247-7.194 25.652-20.568.305-12.666-9.632-24.723-22.205-25.837 4.461-6.485 7.098-14.287 8.618-21.987 1.42-6.789 2.13-13.577 3.144-20.366 1.115-7.092 1.926-15.704 7.604-20.77.812-.71.102-2.027-.912-2.128-14.5-.608-27.275-7.295-39.24-14.894-4.766-3.04-9.835-6.586-15.108-8.41 6.084-9.22 4.766-21.784-3.853-28.978-8.213-6.89-19.873-7.497-29.202-2.735-.101-7.498-1.622-14.692-6.387-21.176-7.504-10.133-20.178-17.732-20.584-31.613 0-1.013-1.318-1.722-2.129-.912l-.811.811c-.203 0-.406.203-.507.507v.1c-13.993 12.767-36.705 7.701-52.523 16.212C222.368 9.277 212.533.766 200.467.968c-11.255.203-22.814 8.309-23.524 20.163-6.692-3.647-13.891-5.978-21.597-7.092-13.181-1.925-27.376-1.52-38.327-10.234-.811-.709-2.028-.304-2.129.912-1.014 13.881-6.287 25.635-14.297 36.78-3.65 5.066-7.199 10.335-8.923 16.008a.792.792 0 00-.405-.405c-10.038-7.498-24.132-6.383-32.142 3.547-6.692 8.308-6.692 21.277.912 28.876-7.503 1.317-14.398 4.357-20.887 9.018-10.444 7.396-20.786 17.731-34.779 15.502-.912-.102-2.129.81-1.42 1.823 8.417 11.247 13.69 23.71 16.63 37.388 1.52 6.991 2.94 14.185 6.59 20.264-13.688-.203-26.565 7.599-26.16 22.493.406 13.273 12.168 23 24.74 24.621-12.167 16.313-9.733 42.251-24.334 57.449-.71.811-.203 2.027.811 2.027 14.297.709 26.667 5.674 38.226 13.881 4.259 3.039 8.416 6.079 13.181 8.207 2.231.912 4.462 1.621 6.794 2.026-11.458 5.066-13.182 20.366-5.881 29.586 9.53 12.057 26.261 11.247 37.922 3.04-.913 20.77 26.464 36.577 26.261 57.955 0 .912 1.014 1.52 1.825 1.013 12.269-7.295 25.247-10.334 38.631-14.59 6.185-1.925 12.168-4.661 16.73-8.916 1.521 12.868 12.269 23 25.552 23.203 12.269.101 24.436-9.525 25.146-21.987 4.36 3.343 9.937 5.573 15.108 7.194 13.891 4.458 28.492 6.282 41.065 14.083.811.507 1.825-.202 1.825-1.114 1.115-20.163 23.219-36.172 23.625-55.929 11.052 5.167 25.754 4.559 34.373-4.763 7.908-8.612 8.517-21.176-.203-29.383-.102-.101-.203-.101-.304-.202 5.374-1.115 10.646-4.053 15.006-7.194 12.168-8.714 23.524-15.806 38.733-18.137 1.014-.202 1.115-1.418.507-2.127-8.821-10.132-15.007-22.291-17.744-35.767zm1.115 12.969c2.636 6.89 6.287 13.375 10.647 19.251-22.307-8.916-44.716-18.44-67.631-25.938 6.388.304 12.877-.506 19.164-3.141 10.444-4.458 15.817-13.982 21.496-23.303.101.202.304.303.608.405 12.776 3.343 11.863 22.493 15.716 32.726zm-50.393 72.445c-9.734-1.013-19.468-1.013-29.202.203-10.443 1.317-21.496 4.964-31.939 2.127-8.822-2.431-14.702-8.207-19.062-15.4 0-.406-.305-.71-.507-.912-5.679-9.727-8.822-21.784-12.675-31.511-.101-.203-.203-.304-.304-.507a71.848 71.848 0 0010.241-6.383c-1.724 17.022 3.752 35.564 19.366 44.48 14.703 8.308 32.143 2.736 43.702-8.41 10.646-10.334 23.118-29.18 15.919-44.277-7.706-16.11-30.52-21.176-46.439-24.824 1.723-2.431 3.143-5.066 4.36-7.801 0 .405.202.709.608.912 8.619 4.255 18.048 8.612 27.681 11.044 7.199 2.837 13.485 8.105 16.831 15.299 4.259 9.119 1.927 19.048.406 28.471-2.129 11.551-5.07 26.749 1.014 37.489zm-258.05-20.366c.203-.202.304-.405.203-.709 0-.304 0-.608-.102-1.013 0-.304-.202-.709-.507-.912-2.332-20.264-6.59-40.832 10.951-54.916.304-.101.507-.101.811-.203 12.472-2.938 24.538-9.22 36.401-14.083 1.419-.608.811-2.938-.608-2.432-19.772 7.903-45.73 24.317-65.096 7.295-7.503-6.586-10.038-16.819-16.223-24.418-5.475-6.586-12.472-11.449-19.772-15.806 11.356-6.991 16.73-16.819 23.726-28.167 9.329-15.199 25.552-24.52 43.499-19.049.304.102.608 0 .71-.202 1.216.709 2.534 1.317 3.852 1.925 9.633 4.559 19.874 8.612 30.318 11.145-1.42 3.445-2.535 7.092-3.549 10.74-13.182-11.956-30.216-24.013-48.873-18.542-17.946 5.269-23.929 25.533-22.915 42.251 1.116 18.035 8.315 34.449 27.58 38.401 15.716 3.141 35.386-3.344 43.802-17.63.406-.709-.608-1.52-1.115-.912-11.255 11.449-25.248 19.454-41.978 16.11-18.454-3.647-24.943-19.859-25.855-36.982-.812-16.009 5.272-35.361 22.915-39.313 17.643-3.951 33.257 7.903 45.425 19.049.101.101.203.101.304.202-.913 3.952-1.521 8.005-1.927 12.058-6.489-9.018-17.034-15.199-28.492-13.679-11.66 1.52-21.8 10.943-22.104 23-.304 11.449 7.706 21.176 19.164 22.493 12.167 1.419 24.233-5.066 31.635-14.489.406 3.749 1.014 7.397 1.927 11.044a89.533 89.533 0 009.227 23c-16.122-.709-35.286 6.08-44.006 20.265-8.618 14.184-6.489 32.929 4.056 45.493s29.303 19.859 45.526 15.198c19.164-5.573 24.234-30.093 28.492-46.912.102-.202 0-.405 0-.608a141.568 141.568 0 006.794 3.445c-.406-.101-.913 0-1.014.507 0 .202 0 .405.101.608-.101.101-.203.304-.304.506-5.678 20.974-14.297 47.216-39.747 49.546-17.845 1.621-35.69-7.497-53.13-1.418 1.216-6.789.71-14.286-.102-21.886zm67.529-172.144c-5.374-6.181-11.762-12.158-18.454-16.819 2.129-1.419 2.738-4.458 1.622-6.789-1.622-3.242-5.88-3.749-8.922-2.33-3.346 1.621-4.867 5.37-2.637 8.511 2.028 2.938 5.983 2.938 8.619 1.013h.203v.101c5.982 5.877 12.269 11.551 18.352 17.529a.78.78 0 001.014.101c-2.028 2.027-3.853 4.154-5.678 6.383h-.203c-9.227-.709-18.859-2.533-25.653-9.422-6.996-7.194-9.53-19.454-2.636-27.56 7.098-8.51 21.09-9.625 29.405-2.229 7.604 6.789 9.125 17.63 10.342 27.154 0 .203.101.304.101.406-1.926 1.621-3.751 3.343-5.475 5.066.304-.406.304-.811 0-1.115zm-20.076-18.136c-.203.101-.304.304-.406.506-2.028.811-4.765 1.013-6.185-1.013-1.622-2.229-.203-4.661 2.129-5.573 1.825-.709 4.563-.608 5.679 1.317 1.013 1.723.506 3.851-1.217 4.763zm13.587-17.732c-9.329-5.674-22.51-3.546-29.608 4.762-6.692 7.701-5.88 19.15-.405 27.357 6.388 9.524 18.454 13.678 29.506 12.868-2.434 3.141-4.766 6.484-6.692 10.031-15.108-2.635-31.838-5.066-42.282-17.529-12.066-14.59-5.982-34.956 6.692-46.709 12.472-11.55 29.607-17.528 45.324-8.916 14.398 7.802 21.191 23.608 23.523 39.009.102.709.609.911 1.217.911a70.152 70.152 0 00-12.167 7.701c-.305.202-.609.506-.913.709-1.42-11.247-3.853-23.912-14.195-30.194zm5.272 41.643c12.472-13.881 29.101-23.506 47.757-25.735 17.744-2.128 36.705-.608 52.928 7.396 14.905 7.295 27.884 19.251 36.198 33.639 8.923 15.401 10.241 34.55 10.343 52.079.101 10.132-1.217 20.365-6.287 29.383-4.867 8.612-12.674 16.11-19.671 23.101-15.31 15.401-34.981 28.674-57.795 25.33-.304 0-.608 0-.811.203-34.373-1.621-65.805-21.987-78.784-54.409-12.268-31.005-6.185-66.264 16.122-90.987zm194.577-11.652c-1.825 10.74-9.633 16.718-18.758 20.873-.101 0-.304.101-.406.101-.202 0-.304.101-.405.203-.913.405-1.825.81-2.636 1.114-9.734 3.85-19.671 7.295-29.506 10.943-1.116-2.736-2.434-5.269-3.853-7.802 16.73-2.128 35.995-5.775 45.627-21.277 8.72-13.881 6.692-32.423-3.65-44.784-10.444-12.361-30.216-20.062-45.729-13.07-8.213 3.647-14.297 10.74-18.657 18.338-5.069 8.714-9.632 18.947-9.429 29.282-2.738-1.52-5.476-2.938-8.416-4.154.405-.101.811-.304.912-.912 2.231-10.537 7.605-21.784 10.241-33.03 9.734-12.058 23.828-18.745 39.646-16.719 13.789 1.824 27.275 7.6 41.065 3.75-5.78 19.25 7.3 37.792 3.954 57.144zm-54.652-5.471c.304.203.71.101.913-.101 3.042 1.216 6.895.709 9.024-1.925 2.231-2.736 1.926-7.194-1.318-8.917-3.245-1.722-8.112-.709-10.241 2.229-1.521 2.027-1.318 5.472.71 6.992-.203.101-.507.202-.71.405-2.332 1.52-4.36 3.85-6.388 5.674-2.231 1.925-4.461 3.951-6.692 5.978-.608.506-1.217 1.013-1.521 1.52-1.42-1.318-2.839-2.635-4.36-3.952.304-.101.507-.304.507-.709-1.42-10.538 1.724-21.379 10.951-27.458 9.024-5.877 21.191-4.965 28.593 3.141 6.996 7.802 6.388 20.163-.913 27.458-6.692 6.586-16.933 8.004-25.855 9.321-.507.102-.71.406-.811.71a80.612 80.612 0 00-6.895-7.498c.405-1.013 3.346-2.938 3.954-3.546 1.115-1.014 2.231-1.925 3.346-2.939.811-.709 6.794-6.89 7.706-6.383zm.608-8.004c1.826-1.723 5.577-2.331 7.504-.608 1.825 1.52 1.216 4.559-.507 5.978-1.825 1.52-4.157 1.216-6.185.506 0 0-.102-.101-.203-.101-2.129-1.216-2.434-4.053-.609-5.775zm-7.3 30.092c11.052-1.621 24.233-3.951 30.419-14.489 5.373-9.22 3.548-21.379-4.563-28.37-8.315-7.194-20.482-7.599-29.608-1.62-9.733 6.382-13.789 18.136-11.457 29.281-.811-.608-1.622-1.317-2.434-1.925a79.995 79.995 0 00-7.199-4.762.772.772 0 00.203-.507c1.825-16.211 10.849-36.982 26.059-44.885 15.006-7.903 34.879 0 44.816 12.462 9.633 11.956 10.849 29.89 1.825 42.657-9.531 13.475-27.478 16.616-42.687 18.541-.406.102-.71.304-.913.507-1.419-2.432-3.041-4.661-4.765-6.89h.304zm-35.995-28.37c-.101.405 0 .709.203 1.013a58.161 58.161 0 00-5.881-2.127c.203-.102.507-.304.608-.71 3.65-10.841 7.808-21.682 10.748-32.726 2.231-8.207 2.738-17.022-2.129-24.52-9.734-14.692-30.317-14.894-45.932-13.374-14.702 1.52-29.506 7.497-32.041 23.709-2.738 17.022 9.024 34.044 21.293 44.581-3.954.811-7.909 1.824-11.66 3.141 0-.203 0-.405-.102-.608-4.157-10.132-8.923-19.96-14.702-29.282-6.794-16.616-.71-32.423 14.094-42.96 10.646-7.498 22.814-12.665 31.432-22.696 10.444 13.476 26.87 20.163 37.922 33.03 16.73 19.556.507 42.758-3.853 63.529zm-7.402-1.722c-5.272-1.621-10.849-2.736-16.325-3.445 7.2-9.22 15.21-20.67 11.255-32.93-3.143-9.726-13.688-14.286-23.219-12.665-11.762 1.925-21.597 10.842-19.975 23.304 1.115 8.815 5.678 18.542 14.195 21.886-3.447.202-6.894.607-10.24 1.317.101-.203.202-.507 0-.811-8.923-12.361-21.091-22.898-20.482-39.616.709-18.238 17.034-24.317 32.75-25.432 15.21-1.114 37.314-.405 43.397 17.022 2.941 8.41-.101 17.427-2.737 25.431-2.738 8.41-5.577 16.82-8.416 25.229a.535.535 0 00-.203.71zM205.03 83.444c.608-3.243-1.927-6.485-5.07-6.89-3.549-.507-6.996 2.026-7.503 5.674-.406 3.344 2.332 6.18 5.678 5.471.203.102.507.102.71.203-.71 7.092-.406 14.59.202 21.683h-3.143c-.101-.203-.203-.507-.507-.608-8.213-3.243-12.776-10.943-14.499-19.353-2.535-12.36 6.793-21.48 18.758-22.797 10.443-1.114 19.873 5.674 20.177 16.515.305 9.93-6.286 18.34-12.066 25.736-.202.203-.202.507-.304.709-2.23-.202-4.461-.304-6.692-.405-.101-7.194-.203-14.59-.912-21.683 2.433.203 4.765-1.722 5.171-4.255zm-6.692 2.33c-.609-.101-1.014.203-1.116.608-2.028-.405-3.244-2.432-2.636-4.56.608-2.228 2.941-3.647 5.273-3.242 1.926.406 3.447 2.23 3.244 4.154-.203 2.432-2.636 3.547-4.765 3.04zm114.474 117.938c3.448.506 7.301-1.723 7.909-5.269.609-3.445-1.825-7.194-5.272-7.802-3.752-.608-7.706 2.736-7.402 6.586-7.3-.101-14.702-.101-22.003.304-.203-3.749-.507-7.498-.811-11.246.406.101.811.101 1.217-.203 7.3-6.282 16.73-9.524 26.464-8.714 5.07.406 11.153 1.925 14.702 5.877 4.157 4.559 3.448 11.044 3.143 16.718-.709 12.158-6.286 21.48-19.772 19.555-9.429-1.317-17.744-5.269-24.537-11.855 0-2.837-.102-5.775-.203-8.612 7.3.304 14.601.405 21.901.304.305 2.026 2.332 3.952 4.664 4.357zm-3.244-5.674c.203-.102.304-.405.304-.709.101-2.635 2.434-5.168 5.273-4.661 2.23.405 3.751 2.837 3.548 4.965-.405 5.471-9.227 4.863-9.125.405zm-23.321 11.854c7.199 7.903 18.555 12.564 29.202 12.362 12.167-.203 16.73-10.639 17.642-21.379.913-12.057-1.115-21.683-14.093-25.026-11.965-3.141-24.639.303-33.968 8.207a122.642 122.642 0 00-1.216-8.511l.608-.304c.406.506 1.217.709 1.825.101 11.255-9.626 28.188-18.035 43.498-15.097 17.643 3.344 22.611 22.696 22.611 38.198 0 15.604-5.88 33.436-23.422 36.172-16.223 2.533-30.114-7.397-41.977-17.022-.507-.405-1.014-.203-1.217.202.203-2.735.406-5.268.507-7.903zm-39.848 62.11c.507-.405 1.014-.81 1.622-1.216 1.825-1.418 3.549-2.938 5.273-4.458-5.476 22.696 20.177 41.744 41.065 29.991 10.24-5.775 15.006-17.326 10.545-28.268-5.577-13.476-19.975-18.542-33.258-20.467a95.487 95.487 0 004.056-4.965c13.891 3.242 31.939 6.991 41.876 18.035 12.776 14.185.913 34.247-10.038 45.696-10.951 11.449-28.289 17.731-42.89 9.018-15.209-9.221-19.164-26.952-18.251-43.366zm31.534 3.344c-2.434 1.52-2.941 5.066-1.318 7.599 2.027 3.039 6.387 4.255 9.328 1.824 2.535-2.027 3.549-5.978 1.622-8.815-1.622-2.331-4.867-3.344-7.503-2.533l-.101-.102c-5.983-5.066-12.168-10.233-18.556-14.793a368.337 368.337 0 008.619-9.22c.101.304.405.507.811.507 10.849 1.52 22.611 4.863 29.202 14.286 7.3 10.436 4.36 23.709-6.895 29.991-20.887 11.753-42.282-8.308-37.516-29.89 1.723-1.621 3.346-3.242 4.968-4.863 5.374 5.471 11.458 10.436 17.643 14.996-.304.304-.406.607-.304 1.013zm1.825.709c.203-.101.405-.304.405-.405 3.853-1.317 8.011 2.533 5.273 6.484-4.157 5.877-11.559-3.951-5.678-6.079zm-82.434 33.537c0 .102-.102.102-.102.203-2.737-.304-5.374 1.925-5.576 4.863-.305 4.053 3.65 7.397 7.503 6.991 3.549-.303 6.895-3.444 6.591-7.092-.305-3.344-3.651-6.282-6.997-5.573.913-7.295 1.521-14.691 2.231-22.088 0-.202 0-.405-.101-.506 3.041.405 6.083.506 9.125.405-.101.304 0 .709.304 1.115 7.301 7.7 11.255 18.44 9.126 29.079-1.014 4.964-3.346 10.132-7.706 13.07-4.563 3.04-10.748 2.533-15.919 1.824-10.748-1.52-19.772-7.7-19.062-19.656.709-10.943 8.111-20.265 16.527-26.546 2.028.303 4.056.506 5.982.607h.102c-.203.102-.406.406-.406.71-.811 7.295-1.622 14.995-1.622 22.594zm1.115 1.419c.101 0 .203 0 .304-.102 2.332-.101 4.664 1.318 4.867 3.851.102 2.33-2.028 4.255-4.157 4.66-2.535.507-5.273-1.215-5.779-3.748-.406-2.837 2.23-4.864 4.765-4.661zm-24.233 3.039c.203 12.159 10.139 18.542 21.191 20.163 11.965 1.621 21.902-1.621 25.653-13.982 3.549-11.855-.405-24.722-8.618-33.639 2.737-.304 5.475-.81 8.213-1.418-.102.304 0 .608.202.912 9.836 12.766 21.192 28.268 16.224 45.392-4.867 16.515-23.727 18.744-38.328 19.453-18.149.912-39.848-2.533-40.253-25.026-.305-16.819 7.807-31.41 19.062-43.264 4.056 1.114 8.314 1.925 12.573 2.432 0 0 .101 0 .101.101.203 0 .304.101.507.101-9.43 5.978-16.73 17.123-16.527 28.775zm-55.767-37.184c-.102.101-.203.304-.203.405h-.203c-2.636-1.317-6.084-1.216-8.01 1.216-2.13 2.634-1.42 6.586 1.419 8.511 2.941 1.824 6.591 1.013 8.619-1.824 1.521-2.229 1.724-5.775-.507-7.397 6.286-5.876 12.37-12.057 18.454-18.237.101-.102.101-.102.101-.203 1.825 1.824 3.752 3.546 5.78 5.269-.203.101-.305.304-.305.608-1.419 10.638-3.447 22.088-12.978 28.674-8.72 5.977-20.38 5.673-27.985-2.128-8.01-8.309-6.287-20.67 1.521-28.37 7.604-7.498 18.251-9.22 28.492-10.031 1.318 1.621 2.737 3.141 4.258 4.661-.101 0-.101.101-.202.101-6.185 6.282-12.371 12.361-18.251 18.745zm-.609 7.7c-1.521 1.621-4.157 1.722-5.779.101-1.42-1.418-1.318-4.154.405-5.37 1.42-1.013 3.143-.81 4.867-.506.102.202.203.405.406.506 2.129.912 1.419 3.85.101 5.269zm-17.947-19.96c-6.388 8.308-7.097 19.453-.304 27.762 6.895 8.308 18.251 10.537 27.985 6.079 13.08-5.877 16.426-19.048 18.251-32.119 3.245 2.533 6.692 4.864 10.241 6.991-.406.102-.71.304-.811.811-3.752 15.097-8.416 38.603-24.943 44.581-15.311 5.573-33.866-1.418-44.208-13.273-11.052-12.665-12.675-32.524-2.231-46.101 10.038-12.969 25.754-14.286 40.558-17.225 2.028 3.445 4.36 6.688 6.793 9.727-11.559-.202-24.03 3.141-31.33 12.767zm-21.191-71.837c-2.535.608-3.752 3.85-2.636 6.485 1.318 2.938 5.07 4.559 8.01 3.141 1.723-.811 2.94-2.432 3.244-4.256 8.01.709 16.122.608 24.132.709.203 0 .304-.101.406-.101 0 1.824.101 3.749.304 5.573-.101 0-.203.101-.203.202-6.996 7.701-16.426 13.983-27.174 14.287-11.356.304-20.684-7.701-20.786-19.251 0-10.74 8.315-19.15 18.556-21.176 11.255-2.23 22.002 4.052 28.188 13.171.304.507.811.608 1.318.507-.102 1.722-.102 3.445-.102 5.167-.101-.101-.304-.101-.405-.101-7.909-.203-16.02-.507-23.93-.101 0-1.014-.202-1.925-.81-2.837-1.522-2.432-5.882-3.749-8.112-1.419zm5.678 7.295c-1.521 1.52-4.056 1.216-5.476-.202-1.622-1.52-1.622-4.762.203-5.674.102 0 .305.101.507 0 .305-.102.609-.203.811-.304h.406c.203 0 .304-.102.406-.203 1.115-.203 2.23-.101 3.346.811 1.622 1.418 1.318 4.052-.203 5.572zm71.179 108.008c0-.101.101-.101.101-.202 4.665-8.815 7.504-18.846 9.937-27.965.102-.304 0-.608-.101-.81.203-.203.304-.507.405-.811 3.144 1.419 6.49 2.533 9.734 3.546-13.485 11.146-21.293 30.701-19.366 48.027 2.231 20.061 23.321 24.114 40.152 23.506 15.108-.608 34.474-2.128 41.775-17.731 8.517-18.339-4.36-36.881-15.108-50.863l-.203-.203c3.245-1.013 6.49-2.229 9.531-3.749v.101c4.158 10.436 7.402 23 13.587 33.031.304 7.498.406 15.401-2.129 22.595-2.839 8.308-9.633 13.779-16.527 18.744-9.836 7.194-20.178 13.577-27.783 23.101-5.576-12.462-18.453-18.035-29.607-24.823-7.909-4.762-14.905-10.842-17.541-19.961-2.738-8.612-1.217-17.933 3.143-25.533zm127.859-76.7c-.608-.304-1.115-.101-1.42.203.812-1.824 1.42-3.647 2.028-5.573a50.473 50.473 0 001.521-7.801c0 .101.102.202.203.405 10.342 12.26 29.506 21.581 45.628 18.035 17.44-3.951 23.422-22.392 23.422-38.299 0-15.806-5.07-35.361-22.408-40.123-16.629-4.56-35.387 4.66-47.757 15.096-.406.203-.71.507-1.116.71-.304-1.621-.608-3.141-1.014-4.661a84.9 84.9 0 00-2.129-6.687c10.951-3.952 22.104-7.701 32.852-12.361l3.346-1.52c17.034-1.925 31.534 6.586 40.964 21.075 6.59 10.132 11.964 21.581 22.408 28.268-15.716 7.295-18.86 26.445-31.331 37.388-19.164 16.92-45.729 4.964-65.197-4.155zm111.94-28.065c-.406 12.665-13.181 18.339-24.132 19.251h-.101c-1.826-2.128-4.259-3.749-7.402-4.56h-.102c4.867-7.903 10.14-15.198 19.367-18.44.912-.304 1.318-1.723.304-2.229-5.78-3.141-10.038-7.802-13.79-12.97 1.623-1.418 3.042-2.938 4.36-4.559.102 0 .203.101.304.101 11.864.203 21.496 11.652 21.192 23.406zm-11.965-57.45c-2.028 13.578-5.374 26.648-15.31 36.476-4.969-7.396-9.024-15.603-14.905-22.189a40.524 40.524 0 00-31.636-13.577c13.79-4.154 27.174-10.335 40.254-16.313 6.591-3.04 13.08-6.079 19.569-9.321 1.826-.912 5.172-2.027 7.909-3.445-4.461 8.207-4.563 19.757-5.881 28.369zm-20.076-40.731c8.72 4.864 18.048 8.41 27.985 9.322-3.954 1.824-13.891 6.383-15.006 6.991-6.185 3.04-12.371 5.877-18.556 8.714-11.457 5.167-23.32 9.625-34.879 14.793 3.853-2.837 7.097-6.485 9.125-11.247 5.881-14.489-.608-29.282-2.94-44.075 12.471-1.722 24.03 9.828 34.271 15.502zm-56.984-37.792c.203-2.736.406-5.472.406-8.207 8.416-3.85 18.454-3.85 26.261 1.62 9.024 6.384 10.444 18.34 4.563 27.256 0 .102-.102.102-.102.203-2.839-.71-5.678-.81-8.719-.203-.913-6.484-.913-13.07 1.622-19.555.304-.81-.71-1.824-1.521-1.52-7.605 2.736-15.108 2.23-22.611.811 0 0 .101-.203.101-.405zM274.181 9.682c-9.734 22.088-19.569 44.784-26.464 67.885-.101.405.507.608.608.304 10.444-23.101 19.164-47.114 28.999-70.52.102-.1.102-.1.203-.202 1.318 9.119 7.503 15.907 13.79 22.392 4.664 4.863 9.43 9.828 11.559 16.414 1.318 4.053 1.622 8.41 1.521 12.665a.76.76 0 000 1.216c-.102 2.533-.304 4.965-.507 7.498v.202c-9.633-1.925-19.265-4.863-29.101-3.647-10.747 1.317-20.887 6.89-27.478 15.4 1.217-7.599.812-15.198-3.244-22.594-6.388-11.55-17.947-18.44-28.492-26.343 14.398-17.225 40.963-9.12 58.606-20.67zm-95.818 11.855c2.433-9.829 10.241-16.82 20.38-17.833 11.356-1.114 21.597 6.485 22.611 18.136 0 .305.102.507.305.71-2.738 1.823-5.273 4.053-7.402 6.99-4.969-3.85-9.734-8.003-13.384-13.07-.406-.607-1.42-.911-1.927-.202-3.65 4.56-8.112 8.207-12.877 11.348 0-.203-.101-.507-.304-.608a60.949 60.949 0 00-7.503-5.066c0-.203-.001-.304.101-.405zm5.779 7.193c-8.618 5.573-17.946 10.132-25.146 17.529-8.01 8.106-11.761 20.061-9.429 30.903-10.038-23.304-19.671-47.418-31.635-69.81 7.908 5.268 17.135 6.89 26.565 7.903 14.702 1.62 27.579 4.255 39.645 13.475zm-76.046 6.18c4.867-8.003 7.808-16.92 8.923-26.241 8.619 21.683 19.062 42.757 28.492 64.035-2.94-3.04-6.388-5.573-10.646-7.194-13.892-5.37-28.188-1.621-42.485 1.216.101-12.564 9.43-21.48 15.716-31.815zM91.67 69.36c.102 0 .203 0 .305-.101 12.268-2.432 24.537-5.674 36.907-2.939 10.951 2.534 17.136 9.727 22.814 18.846 5.78 9.423 10.646 19.251 14.804 29.383.101.304.304.507.507.608-2.637 1.013-5.171 2.027-7.605 3.242.304-.303.406-.607.406-1.114-2.637-17.427-11.154-34.855-28.087-42.25-16.223-6.992-33.561 0-45.627 11.752-12.168 11.754-18.15 31.207-8.213 46.304 9.835 14.894 28.796 18.744 45.323 20.67-1.521 2.837-2.94 5.674-4.157 8.612-17.541-6.586-44.31-11.956-49.177-32.727-4.664-19.656 4.766-38.907 1.217-58.36 6.895.506 13.79-.507 20.583-1.926zm-30.52-6.99c7.3-9.22 19.874-9.828 29-3.04.405.304.81.304 1.216.102-.608 2.431-.811 5.066-.608 7.7-7.098 1.317-14.196 2.33-21.192 1.722-.811-.1-1.318.811-1.216 1.622 1.318 6.079 1.318 12.26.71 18.44h-.102c-2.332 0-4.664.101-6.996.405-5.679-8.41-7.605-18.44-.812-26.951zm-29.607 45.088c11.66-8.511 22.003-16.212 37.212-16.11-1.724 15.097-5.78 30.193.608 44.885 1.623 3.749 4.158 6.788 7.098 9.423-22.915-10.031-46.033-19.859-69.354-28.877 9.126.304 17.136-3.951 24.436-9.321zm-10.95 39.819c-2.434-10.436-6.794-20.163-12.776-28.978 22.307 10.132 44.918 19.555 67.529 28.877-10.647-1.318-21.293 3.445-29.202 11.044-5.78 5.674-9.328 12.665-13.384 19.555l-.608.912c-7.91-8.613-9.025-20.366-11.56-31.41zM2.544 196.923c-1.014-14.387 11.458-20.467 24.03-20.973.406 0 .71-.203.812-.405a23.51 23.51 0 003.954 4.458c-4.664 7.193-10.545 12.867-18.15 17.123-.81.507-.81 1.722 0 2.128 6.997 4.053 13.486 8.511 18.86 14.185a30.172 30.172 0 00-5.88 5.37h-.102c-11.154-2.533-22.611-9.119-23.524-21.886zm1.318 81.057c15.514-18.339 10.85-46.506 29.304-63.224 2.332 2.634 4.46 5.471 6.184 8.713 4.665 8.511 8.62 16.313 17.542 21.177 5.475 2.938 11.356 4.255 17.44 3.951-22.713 10.74-45.83 20.163-69.152 29.484-.405 0-.912-.101-1.318-.101zm51.407 22.696c-7.097-2.533-12.877-7.802-19.163-11.855-8.517-5.572-18.048-9.017-28.086-10.436 22.51-7.903 44.512-17.528 66.109-27.66-5.78 6.079-8.416 14.995-9.024 23.202-.609 9.423 1.014 18.643 2.332 27.864h-1.825c-3.549.405-6.895.101-10.342-1.115zm38.226 27.863a28.693 28.693 0 00-1.52 5.37c-.203 0-.305.102-.507.203-10.039 7.295-23.828 9.727-33.664.709-9.328-8.612-7.706-22.392 2.738-29.18.507-.304.507-.912.102-1.216.608.101 5.576 0 7.3.203 1.014 8.105 1.52 16.11-.304 24.317-.203.81.608 1.925 1.52 1.519 8.01-3.343 16.224-3.141 24.538-2.127-.203.101-.203.101-.203.202zm1.319.406v-.304c12.877 1.722 25.754 5.268 38.327.608 6.083-2.23 11.052-5.877 15.006-10.335-10.241 23.304-20.887 47.114-28.188 71.532-3.244-22.797-31.23-36.678-25.145-61.501zm54.246 52.383c-10.14 2.735-19.772 6.281-28.898 11.449v-.405c10.038-23.304 18.657-47.317 28.796-70.621-1.014 8.511 1.42 17.326 7.301 24.114 6.185 7.194 15.209 11.348 23.523 16.212-.202.101-.405.202-.608.506-5.475 12.159-18.251 15.604-30.114 18.745zm51.508 11.955c-12.978-.101-21.8-10.132-24.132-22.189 1.927-2.026 3.651-4.458 4.867-7.194.102-.304.102-.506.102-.81 7.097 4.458 13.485 9.625 16.426 18.035.405 1.013 1.622 1.216 2.23.304 5.07-6.89 11.661-12.057 18.556-17.022 1.014 2.938 2.737 5.269 4.867 7.396-1.927 11.855-9.734 21.582-22.916 21.48zm51.103-11.955c-11.559-2.939-25.957-6.181-31.533-18.036 5.576-3.951 11.153-7.801 16.324-12.259 10.241-9.018 12.269-20.974 11.863-33.639.102.101.203.304.305.405v.304c4.055 12.463 9.632 24.621 14.905 36.577 5.576 12.564 11.153 25.128 18.048 37.084-9.328-5.269-19.569-7.802-29.912-10.436zm30.115 8.713c-5.07-11.449-10.647-22.696-15.615-34.145-4.766-11.044-8.923-22.291-13.384-33.335 2.737 2.533 5.779 4.762 9.531 6.384 8.923 3.85 18.555 2.431 27.782.912 4.36-.71 8.72-1.318 13.08-1.723 8.821 22.797-17.44 40.326-21.394 61.907zm56.477-56.942c-8.72 7.599-20.584 6.18-30.824 3.343a27.116 27.116 0 00-1.724-8.612c8.314-.608 16.527-.507 25.044.507.913.101 1.623-1.115 1.116-1.925-5.171-6.992-4.664-16.414-3.955-24.824 3.752 2.33 7.909 2.837 11.965 2.229-.406.405-.507 1.115 0 1.621 8.517 8.004 6.895 20.366-1.622 27.661zm25.45-45.189c-10.647 7.396-21.902 18.339-35.691 12.158 0-.203 0-.507.101-.709.913-9.93 4.157-19.859 3.448-29.89-.609-9.524-5.577-17.934-13.283-22.898 23.929 11.044 49.176 19.757 73.714 29.18.101.101.203.304.405.405-10.24 1.925-19.974 5.776-28.694 11.754z" fill="#FFF3B9"/></svg>