<svg width="308" height="230" fill="none" xmlns="http://www.w3.org/2000/svg"><path d="M159.279 62.667c0 .302 0 .503.1.805.101 0 .202 0 .302.1.201.302.403.503.604.805a6.995 6.995 0 01-1.006-1.71zm-.705.805v.1c-1.912 5.534-2.918 10.968-2.616 16.703.1.1.201.1.201.2.604-.905 1.107-1.91 1.409-3.018.201-.603 1.006-.805 1.308-.2.101.1.201.301.201.402-.1-4.629-.302-9.458-.503-14.187.101 0 0 0 0 0zm.403 39.24c.1-7.546-.101-15.092-.503-22.639 0-.2.1-.301.201-.301-.101-.101-.201-.202-.201-.302-.101.2-.202.402-.302.704.1 0 .201.1.1.302-1.912 5.936-2.516 11.973-1.509 18.211v.201c.704 1.107 1.509 2.516 2.214 3.824zM143.68 67.597c-1.51 4.528-2.617 8.754-3.12 13.382 0-.1.101-.1.101-.201.301-.705 1.207-.705 1.509 0 .705 1.81 1.61 3.42 2.717 4.83.101-6.138-.201-11.974-1.207-18.011zm-3.623 17.809c-3.623 10.363-5.535 20.425-4.831 31.593v.202c1.812.905 3.623 1.811 5.133 2.716.704-11.772.603-23.544.302-35.416 0-.101-.101-.302-.101-.403-.101.1-.101.201-.201.302-.101.201-.101.302-.202.503v.201c.101.1 0 .302-.1.302zm2.314-17.105c-4.931 7.144-8.353 14.992-10.063 23.444 2.616-2.717 5.233-5.434 6.944-8.351 0-5.333 1.207-10.968 3.623-15.696a3.84 3.84 0 01-.504.603zm-12.579-22.84c-3.221 10.263-5.837 22.538-.806 32.5.403-.504.705-.906 1.108-1.41 1.61-1.81 3.522-3.32 5.535-4.829-2.919-17.104-.705-35.316 6.843-51.012-5.334 7.546-9.863 15.696-12.68 24.752zm-4.026 42.963c.503-2.616 3.321-6.037 4.328-7.546 2.918-4.024 6.44-7.445 10.063-10.766.101-.2.202-.301.302-.503a42.892 42.892 0 00-3.421 2.516c0 .503-.504.805-.906.704-4.831 3.924-8.554 8.653-10.97 14.891.202.1.403.403.604.704zm7.649-10.061c-1.309 1.61-7.75 9.055-6.441 11.47.1.1.1.201.1.403 1.107 1.308 2.315 2.616 3.321 3.722.202-.2.302-.402.504-.503a54.286 54.286 0 017.447-20.425c-1.812 1.71-3.422 3.421-4.931 5.333zm8.956 89.145c-8.453 8.955-13.988 20.627-13.385 33.204.302 6.439 2.315 13.18 7.246 17.507 2.013 1.811 4.328 3.018 6.743 4.024-15.297-13.18-10.265-39.038-.604-54.735zm-9.963-73.55c-3.723 5.735-5.736 12.074-4.025 19.419a37.813 37.813 0 005.535 3.22c-.906-9.76.402-20.123 4.227-29.179-1.711 2.314-3.724 4.427-5.737 6.54zm-4.025 4.93c-2.315 3.321-3.925 6.943-3.623 11.471.704.704 1.409 1.408 2.214 2.012-.805-4.729-.202-9.257 1.409-13.483zm-2.919 1.51c1.007-1.811 2.415-3.622 3.824-5.333-2.616-3.018-6.038-6.44-6.541-10.263-.604 5.433.201 10.666 2.717 15.596zM72.126 213.691l-.604.906c23.348-8.351 43.476-20.526 61.591-37.329 1.912-3.32 4.226-6.439 6.944-9.156-26.67 9.257-48.81 25.054-67.931 45.579zm3.421-6.439c11.775-22.337 33.614-40.548 59.075-43.366l-1.509-.302c-16.706.805-34.318 3.421-45.992 16.501-5.535 6.239-7.548 13.483-9.661 21.331-.504 2.012-1.208 3.924-1.913 5.836zm52.634-.302c-15.095 12.577-36.934 16.702-55.15 8.753-.503 0-1.107-.1-1.61-.1 9.158 3.723 18.618 7.043 28.783 6.339 10.466-.805 20.128-5.232 27.776-12.275a.774.774 0 011.006-.101c-.402-.906-.603-1.811-.805-2.616zM60.552 73.03c16.706-.704 34.62 3.019 49.313 11.068-.604-1.912-1.107-3.924-1.409-6.037-.201.1-.503.1-.704-.1-13.888-7.144-29.689-8.15-44.885-5.534-.805.301-1.51.503-2.315.603zM74.44 209.667c-.1.301-.302.603-.402.905.302-.302.503-.604.805-.905 17.511-20.526 41.966-35.518 67.428-43.668.302-.302.704-.603 1.006-.905-2.214-.201-4.327-.403-6.441-.805 0 .302-.201.603-.604.704-28.279 2.314-46.696 22.437-61.389 44.674-.1.1-.302.1-.403 0zm-36.23-29.179c11.977 7.747 25.26 11.772 39.853 11.973.101-.201.101-.402.202-.503.603-1.811 1.308-3.521 2.214-5.131-14.392.704-28.883-1.208-42.268-6.339zm57.465-54.735c-17.913-5.534-39.35.101-55.15 9.257-.704.402-1.51.905-2.214 1.308 17.612-8.955 40.155-10.867 58.773-5.031.201.1.403.201.503.402a31.536 31.536 0 01-1.207-6.137c-.202.302-.403.302-.705.201zm90.474-51.616c.705 6.037.906 12.174.403 18.312 0 .1-.101.201-.101.302a45.715 45.715 0 014.831 19.821c3.12-13.583 1.006-26.361-5.133-38.435zM53.206 127.061c-9.561-4.528-18.115-11.37-24.456-20.023 2.517 9.861 6.542 18.816 16.304 23.444.302-.201.704-.302 1.006-.503 2.315-1.006 4.73-2.013 7.146-2.918zm-12.48-48.396c-3.522 1.006-6.944 1.81-10.566 2.213 24.153 1.71 49.01 10.867 68.635 24.852a42.795 42.795 0 015.032-10.061c.402-.604 1.208-.403 1.409.201.704 2.012 2.013 3.522 3.422 4.93.301-1.408.704-2.716 1.308-4.024-.101 0-.201-.101-.302-.202-19.725-15.595-44.986-16.5-68.938-17.91zm-20.63 88.039c4.629 3.722 9.258 7.445 14.089 10.967 14.995 5.835 30.695 8.753 46.898 7.647 1.409-2.415 3.019-4.729 4.93-6.842-21.636 3.32-46.595-1.107-65.917-11.772zm4.528-21.331c24.456-9.156 54.949-10.766 79.404-1.71-3.019-3.321-5.132-7.345-6.44-11.571 0-.101 0-.101-.101-.201 0 .1 0 .1.1.201a.862.862 0 01-1.006 1.006c-21.738-5.132-41.765-3.119-62.094 6.137-.201.101-.302 0-.403-.1-3.12 2.012-6.24 4.226-9.46 6.238zm-1.71-63.287c16.806 25.355 45.287 32.599 72.862 40.95.402.101.503.503.402.805h.101a60.78 60.78 0 010-6.037h-.302C69.71 110.359 44.35 97.983 22.813 81.079h-.302c.201.403.302.705.402 1.007zm2.515 9.558c8.756 15.093 23.147 24.752 39.35 31.292.201.1.403.302.403.503 6.843-1.509 13.888-2.113 20.731-1.509-23.449-6.138-48.508-15.998-61.993-36.625a72.309 72.309 0 011.51 6.34zm2.114-10.565c-1.107.101-2.214.101-3.422.101 22.342 15.495 46.093 27.569 72.158 35.518 0 0 .1 0 .1.1a42.78 42.78 0 012.013-9.458C76.453 93.254 53.608 85.104 27.845 81.583c-.302-.202-.302-.302-.302-.504zm35.928 42.863c-14.693-6.138-29.085-15.093-37.236-28.877.704 3.32 1.308 6.641 2.113 9.86 7.246 9.156 15.9 16.401 26.569 21.532 2.616-1.006 5.535-1.811 8.554-2.515zm-15.8 44.17c-13.083-1.509-26.267-4.226-38.444-9.256 2.616 1.71 5.132 3.521 7.547 5.332 11.07 5.132 22.242 9.559 34.318 11.772 12.178 2.214 24.154 2.013 36.33.906.504-.503 1.108-1.006 1.611-1.509 2.415-2.113 4.931-3.924 7.648-5.434a307.507 307.507 0 01-49.01-1.811zm214.561-42.057c2.516 1.006 4.931 2.213 7.246 3.521 9.46-12.476 13.083-27.468 14.995-42.66-3.22 15.092-12.58 28.775-24.757 38.233.805.302 1.61.604 2.516.906zm-17.511-4.629c4.528.604 8.957 1.61 13.284 3.12 14.693-10.968 22.845-26.462 26.468-44.07-7.347 17.91-22.04 33.002-39.752 40.95zm-11.674 75.462c15.196-.302 29.99-4.427 42.771-12.577a74.134 74.134 0 0016.907-14.79c2.919-3.522 5.435-7.345 8.152-11.068-18.618 19.318-45.489 29.883-72.158 30.386a52.51 52.51 0 013.422 6.138c.302.704.604 1.308.906 1.911zm64.811-36.825c-22.644 15.092-52.634 20.324-79.102 17.004.201.201.503.402.705.704 3.22 3.019 6.038 6.339 8.453 10.062.101-.302.302-.503.705-.503 25.964-.604 49.715-10.665 69.239-27.267zm-148.744 64.595c-5.736-6.037-7.648-14.79-8.051-22.94-.604-12.175 1.107-25.053 5.535-36.423h-1.207c-11.171 15.897-16.908 42.661-.906 57.452.1.1.1.201.1.301 1.51.504 3.02 1.107 4.529 1.61zm-.302-134.724c.503-1.007 1.208-1.912 1.912-2.817-.402-6.842-2.415-12.678-6.139-18.313 1.51 5.836 2.013 11.974 1.309 17.91v.1c.906 1.107 1.912 2.114 2.918 3.12zm-1.509 34.41c.402-6.439.805-12.879.1-19.318-.704-6.238-3.321-11.47-5.434-17.004.704 10.866.402 21.834-.302 32.6 2.013 1.207 3.925 2.414 5.636 3.722zm-2.718-59.363c1.007 1.71 2.214 3.32 3.623 4.729-3.22-19.218-3.019-39.441.705-58.66-.101.101-.201.303-.201.403-10.366 18.212-14.895 38.536-11.775 59.364 2.415-1.71 4.831-3.522 6.441-5.937.201-.301.906-.402 1.207.101zm1.913 136.234c-.906-11.672-.806-24.249 1.61-35.719 0-.1 0-.1.1-.1h-.402c-5.535 18.412-11.171 44.271 3.22 60.168.705.302 1.409.604 2.013.905.805.403 1.409.604 1.912.805-5.636-7.546-7.749-16.903-8.453-26.059zm69.641-74.456a21.515 21.515 0 01-.905 3.421c.1 0 .1-.101.201-.101 24.656-4.326 54.345 2.918 75.177 16.602.402.201.704.302 1.107.503-7.649-4.729-14.693-10.967-22.543-15.293-.403.301-.906-.101-.906-.504-16.303-8.653-34.116-10.665-51.728-4.527-.101 0-.201-.101-.403-.101zm-1.61-21.934a43.56 43.56 0 012.416 12.376c14.089-.805 27.373-5.635 39.249-13.382 5.736-3.723 11.07-8.05 16.202-12.678 4.227-3.924 9.259-8.05 11.674-13.382-19.02 17.206-44.985 22.739-69.541 27.066zm2.013 19.922c8.252-3.421 17.209-4.427 26.065-3.622 0-.101.101-.202.302-.302 17.209-8.15 30.494-20.928 39.249-37.43-1.912 2.617-4.428 4.83-6.742 7.144-5.234 5.031-10.869 9.76-16.908 13.785-12.278 8.351-26.568 13.985-41.563 14.388 0 2.012-.101 4.024-.403 6.037zm-6.843 16.903c23.348-3.32 49.614-4.829 72.761 2.113-8.856-4.226-18.014-7.747-27.675-9.86-13.184-2.918-25.764-2.717-39.048-2.415-.302 0-.503-.201-.604-.503-1.308 3.823-3.12 7.446-5.434 10.665zm-24.154-50.71c.302-5.836.302-11.672-.1-17.608-1.409 4.729-2.013 9.458-1.812 14.388.604 1.006 1.308 2.113 1.912 3.22zm-1.711 71.135c.604.101 1.208.101 1.812.201-.503-.201-1.006-.402-1.51-.503 0 .101-.1.202-.201.302h-.101zm-4.73 40.548c-.301 1.711-.603 3.421-1.207 5.132 8.554 9.659 22.442 12.074 34.921 11.571 5.435-.202 10.869-1.007 16.304-2.013-17.713 1.711-36.935-2.113-50.018-14.69zm-3.421-121.845c3.12 5.936 7.145 10.665 8.856 17.306 1.51 6.037 1.61 12.375.201 18.412 1.812-.603 3.523-1.207 4.932-2.113.301-12.878-4.831-24.751-13.989-33.605zm-2.617 38.536c3.12-.705 6.844-1.409 10.366-2.415 1.409-7.043 1.409-13.986-.705-20.928-1.408-4.327-3.924-7.848-6.038-11.772 3.321 11.57 1.61 24.248-3.623 35.115zm34.318 70.934c-10.467-6.842-21.637-11.068-33.815-13.684 1.409 2.515 2.516 5.031 3.523 7.747.1 0 .201 0 .302.101 20.329 9.458 40.859 19.218 59.98 31.09v-.1c-9.762-8.855-18.92-18.011-29.99-25.154zM178.501 81.281c1.509 1.509 2.818 3.22 4.126 4.93a31.706 31.706 0 012.113-12.175c-2.013 2.415-5.535 3.824-6.239 7.245zm-14.492 41.856c1.107-.906 2.415-1.61 3.824-2.314 1.006-.403 2.214-.805 3.623-1.208 6.34-12.375 6.843-25.556 3.422-38.837v.2c-.202 7.145-1.309 14.188-3.321 20.929-2.013 6.641-7.347 14.287-7.548 21.23zm22.04 14.589c-6.039 8.049-16.002 13.282-24.456 18.312-.503.302-1.006 0-1.107-.503-.201 2.214-.704 4.427-1.409 6.641 10.366-1.107 20.329-5.132 27.273-13.181 7.246-8.452 7.85-18.815 8.052-29.279-1.51 6.54-4.429 12.778-8.353 18.01zm-18.216-45.981c.101-6.64-5.535-7.546-8.756-11.37.101.503.101 1.006.202 1.51.805 7.747 1.107 15.494.805 23.242.302.805.604 1.61.805 2.414 0-3.018 1.006-5.735 2.516-8.451-.302-6.339-.201-11.672-3.925-17.206v-.1c0-.201.302-.302.403-.201 3.924 5.03 4.226 10.061 4.428 15.897 1.107-1.811 2.415-3.622 3.723-5.433-.1 0-.201-.101-.201-.302zm-4.026-24.047a13.195 13.195 0 01-2.817-2.415c-.202-.302-.403-.503-.604-.805.201.302.402.503.604.805 2.314 2.817 4.428 5.534 5.937 9.055 1.912 4.427 2.818 9.156 3.623 13.885 1.812-3.018 3.12-6.238 3.019-9.86 0-.201.101-.403.202-.503-2.416-4.528-5.636-7.144-9.964-10.162zm9.36 146.295c2.717-17.306-1.711-34.511-11.876-48.698-.1-.101-.1-.101 0-.201-.704-.101-1.409-.101-2.113-.202 5.435 7.949 8.454 17.407 9.158 27.066.403 5.031.101 10.162-.805 15.193-.906 5.534-3.019 10.565-4.327 15.998a32.145 32.145 0 003.119-1.912c2.818-2.012 5.032-4.427 6.844-7.244zm-11.171-48.899c10.265 13.08 14.693 29.581 12.882 45.881a27.7 27.7 0 001.509-3.623c-.201-.301 0-.603.302-.704.302-1.006.503-2.012.705-3.018 2.717-14.187-4.529-27.368-13.184-38.033-.101-.101-.201-.302-.201-.403-.805 0-1.409 0-2.013-.1zm4.327-88.844c-1.61-4.427-4.528-7.647-6.843-11.57.302 4.93.604 9.759.805 14.689 1.812 1.912 4.529 3.019 6.441 5.03 1.61 1.711 2.315 3.724 2.617 5.837.1-.202.301-.403.402-.604-.101-.1-.302-.201-.302-.403-.906-4.427-1.61-8.753-3.12-12.98zm-5.434 78.48c7.648-5.332 16.907-9.458 22.945-16.702 6.341-7.546 9.561-17.205 11.373-26.764-3.623 7.245-8.555 13.684-14.392 19.318-2.918 2.717-5.937 5.233-9.258 7.547a67.085 67.085 0 01-5.636 3.622 41.896 41.896 0 01-2.919 1.61c-.604.603-1.308.805-2.012.704 0 .101 0 .201-.101.302-.101.201-.302.402-.403.604l-.302.301c.604 3.22.806 6.641.504 9.861-.101-.201 0-.302.201-.403zm-1.208-11.571c1.309-1.106 3.623-1.71 4.73-2.314 4.328-2.414 8.353-5.232 12.178-8.451 6.239-5.232 11.372-11.471 15.9-18.212-.402.302-.704.604-1.107.805 0 .604-.503.805-.905.704-8.454 10.464-25.563 10.062-32.104 22.941.402 1.509.906 3.018 1.308 4.527zm2.214-31.895c.906 4.427.906 9.056.101 13.583.201-.201.503-.503.805-.704 0-.101-.101-.101-.101-.201-.302-6.54 4.227-12.678 6.341-18.614 2.314-6.64 3.824-13.382 4.73-20.325-3.422 8.855-12.781 15.395-11.674 25.859.1.302-.101.402-.202.402zm.503 112.187c.403-4.628 2.416-8.854 3.422-13.382 1.107-5.131 1.61-10.464 1.409-15.696-.402-10.565-3.623-20.324-9.46-28.977-.302.1-.704.1-.906-.101h-.503c3.824 19.62 7.85 41.353 1.912 60.873.302-.202.705-.504 1.107-.805a79.543 79.543 0 013.019-1.912zm5.435-100.717c-5.535 2.717-8.554 7.748-9.963 13.483 5.937-10.464 19.926-12.376 29.487-19.318-1.912.704-3.824 1.308-5.535 1.71-4.73 1.308-9.561 2.013-13.989 4.125zm-12.681 10.062c.806-14.79.705-29.48-8.252-42.057-.1-.101-.1-.302.101-.403-2.114-2.113-4.026-4.326-5.435-7.043.101.503.101 1.006.101 1.51 3.019 6.237 5.938 12.174 6.944 19.217 1.006 7.144.503 14.287 0 21.431 2.013 1.711 3.925 3.622 5.535 5.836.403.402.705 1.006 1.006 1.509zm.604 94.579c-1.711-20.626-2.717-41.353-4.126-61.979h-2.415c.1.1.1.301.1.402-2.214 10.363-2.214 21.632-1.912 32.298.403 10.564 2.516 20.324 8.253 29.279 0-.101.1 0 .1 0zm-3.522-159.476c.201-10.967.805-21.834.604-32.8-.201-9.056-.805-18.112-1.409-27.067-.101-.402-.302-.805-.403-1.207-.201.402-.302.906-.503 1.308-3.422 21.23-3.824 41.756-1.006 63.086.302.302.604.705 1.006 1.006v-.1c0-1.71.403-2.616 1.61-3.824-.1-.2 0-.302.101-.402zm-1.51 4.628c1.611 1.811 3.12 3.522 4.227 5.635 0-4.427.705-8.855 2.315-12.98-.302.302-.604.704-1.006 1.006-.906.805-1.913 1.51-2.818 2.314 0 .403-.302.504-.604.604-.805.805-1.409 1.811-1.51 3.019 0 .302-.402.402-.604.402zm4.328 26.563c-1.61-2.314-3.623-4.427-5.636-6.339 8.655 11.973 7.951 27.971 6.944 42.158 0 .101.101.101.101.101.704-2.818 1.912-5.333 3.422-7.547v-.1c2.314-9.76.905-19.922-4.831-28.273zm-3.12-13.282c.906-1.106 1.912-2.113 2.818-3.22-.604-5.231-4.428-8.25-7.749-11.872 2.918 4.528 4.629 9.66 4.931 15.092zm6.038 74.758c3.623-13.483-1.409-28.273-13.183-36.322-1.812-1.208-4.932-2.717-8.454-4.528 12.58 9.357 20.329 25.556 21.637 40.85zm-1.61-77.877c-1.711 3.924-3.12 7.345-3.22 11.571.805.906 1.61 1.811 2.314 2.817-.603-5.332-.1-10.464 1.711-15.494-.201.402-.503.704-.805 1.106zm-1.61 1.912c-.906 1.006-1.912 2.012-2.818 3.019v.1c0 .403-.302.604-.604.503-.604.705-1.308 1.51-1.912 2.314 1.007.906 1.912 1.912 2.919 2.818.201-3.019.905-6.138 2.415-8.754zm-1.208-18.01c1.912-1.811 3.724-3.32 5.334-5.635.302-.503 1.007-.402 1.208.101.805 2.616 2.616 4.226 4.73 5.634-.604-18.312-6.039-36.02-11.674-53.427 1.811 17.608 2.214 35.82.402 53.327zm4.529-53.427c-1.308-1.51-2.516-3.019-3.522-4.628 2.415 4.93 6.139 9.256 8.755 13.985a101.536 101.536 0 017.146 16.2c3.924 11.771 6.34 25.153 4.931 37.529 0 .402-.302.604-.604.604.201.503.503 1.006.704 1.61.604.503 1.108 1.006 1.711 1.509.101-.604.302-1.107.805-1.71.604-.906 1.409-1.51 2.215-2.114 1.408-1.207 4.428-3.722 4.025-6.137-.101-.704.503-1.107 1.107-.906 2.919 1.308 5.435 3.12 7.749 5.333.604-23.947-20.228-40.246-33.11-58.458-.1-.201.101-.402.302-.402-.704-.705-1.409-1.409-2.113-2.214 0 0-.101 0-.101-.1v-.101zm1.308 5.232c-2.818-4.629-6.239-8.754-7.246-14.086-.1-.101-.1-.302-.201-.403.201 1.61.403 3.12.604 4.73 3.623 9.256 6.541 18.714 9.057 28.272 2.617 9.961 4.932 20.224 4.529 30.587v.101c1.409.906 2.818 1.811 4.126 2.918 1.61 1.409 2.818 3.119 3.825 4.83-.302-13.08-1.409-25.557-5.737-38.033a108.056 108.056 0 00-8.957-18.916zm-5.233 147c-.101 0-.302.1-.402 0h-.906c1.409 20.525 3.723 41.353 3.522 61.878.302-.1.604-.201.906-.402 4.629-20.727 1.61-40.548-2.214-61.175-.302.101-.705 0-.906-.301zm-41.262-74.255c-.905-1.61-1.711-3.22-2.314-4.93-17.511-8.15-34.52-12.376-54.043-12.074-.1 0-.202 0-.202-.1-4.226 1.106-8.453 2.515-12.68 3.722 23.348.302 48.005 2.616 66.925 17.507a191.763 191.763 0 012.314-4.125zm-.402 50.308a569.28 569.28 0 01-.302-3.723c-.101 0-.201-.1-.302-.201-7.347-10.665-9.762-23.745-8.353-36.423-4.931 14.791-1.409 28.474 8.957 40.347zm-13.586 27.367c7.648-3.823 16.202-5.735 24.757-6.338-20.229-.302-40.457-.705-60.685-1.51-19.323-.704-39.25-.905-58.17-5.835l-1.207.302.604.301c14.894 5.836 30.191 9.559 46.193 11.169 16.001 1.61 32.003 1.006 48.105 1.61.201.201.302.301.403.301zm14.19-46.886c-.302.201-.604.201-.806-.202-3.723-7.143-6.541-14.891-7.145-22.94-.1-.1-.201-.302-.302-.403-1.207 13.181.101 26.261 7.347 37.53 0-3.521.302-7.043.503-10.363.101-1.208.201-2.415.403-3.622zm117.545 94.277c-18.618-1.61-37.236-10.565-51.325-22.136a38.887 38.887 0 010 6.842c14.693 13.08 32.506 16.098 51.325 15.294zm4.127-9.358c-7.146-24.651-27.777-41.755-53.741-42.963-.302 0-.504-.1-.705-.302h-.1c-.403-.1-1.007-.1-1.409-.301-2.617.905-5.435 1.509-8.253 1.811 13.687 1.811 26.267 5.232 37.639 13.885 11.976 9.055 21.033 21.129 28.38 34.008-.201-2.113-1.208-4.226-1.811-6.138zm1.71 8.955c-19.624-9.961-38.846-20.425-58.772-29.682a35.491 35.491 0 011.509 6.641c.201-.101.503-.101.705.101 16.706 13.683 35.525 19.922 56.558 22.94zm-1.71-4.628c-7.548-11.269-15.7-22.236-26.468-30.487-12.48-9.558-26.267-12.677-41.564-14.488 2.113 2.716 4.126 5.533 5.938 8.552h.1c23.751 2.716 45.69 19.117 61.994 36.423zm-32.305-106.955c2.516-2.817 4.528-5.836 4.327-9.96 0-.705.906-1.108 1.409-.605a38.85 38.85 0 015.736 9.861c12.379-2.817 24.959-4.73 37.035-8.854 11.574-3.924 22.342-9.559 32.104-16.904-.403.1-.704.201-1.006.302-24.556 13.281-52.232 13.885-79.706 14.489a30.39 30.39 0 01.101 11.671zm42.972-29.983c-15.297-1.811-30.695.2-44.281 7.646-.1.906-.201 1.811-.302 2.617 23.852-11.672 51.829 1.81 76.687-5.635-10.567 1.107-21.537-3.421-32.104-4.628zm4.026 76.166c-19.524.1-38.947 1.912-58.27 4.93a27.657 27.657 0 01-6.541 5.333c19.02 6.842 39.45 5.634 59.276 3.622 20.53-2.013 40.356-5.031 60.282-10.464-8.856-.604-17.712-2.013-26.669-2.616-9.359-.604-18.719-.906-28.078-.805zm-49.917-69.626c1.308-16.501-4.831-32.902-16.303-44.976-6.642-7.043-14.995-12.476-21.839-19.217a351.272 351.272 0 0124.053 29.078c6.742 8.955 10.265 19.217 9.258 30.486 1.812 2.113 3.322 4.427 4.63 6.943 0-.302.1-.604.1-1.006-.201-.201-.301-.403-.301-.604 0-.201.1-.503.402-.704zm42.168 1.61c-13.889-1.107-27.273-1.61-40.558 3.521-.302.1-.503 0-.604-.1.705 1.71 1.208 3.622 1.711 5.433 13.788-.705 27.575-.705 41.262-2.415 9.863-1.207 19.323-3.723 28.481-7.244-9.963 2.213-20.229 1.509-30.292.805zM200.943 166.1a56.554 56.554 0 0115.901 9.357c.101-.1.302-.1.402-.1 15.599 2.213 31.5 1.308 46.797-2.616 13.989-3.623 26.368-9.961 38.646-17.407-18.216 6.942-38.545 8.452-57.767 10.363-14.693 1.51-29.588 2.616-43.979.403zm7.447-22.739c-3.22 3.924-7.447 7.345-12.479 9.659 17.411-2.717 34.922-4.125 52.533-4.327 15.901-.201 33.01-.1 49.011 2.516-13.485-5.635-27.273-9.156-41.966-10.162-15.8-1.007-31.5.603-47.099 2.314zm-9.359-26.362c-.201.202-.503.202-.705.101.705 3.823 1.208 7.647 1.409 11.47l.101-.1c3.422-4.327 6.441-8.452 7.548-13.986 1.006-5.031.805-10.162.402-15.294-.503 6.641-3.824 13.282-8.755 17.809zm-1.812-5.232c.302 1.409.705 2.918.906 4.327 3.925-4.226 6.441-8.754 7.951-14.086-2.315 3.521-5.938 6.338-8.857 9.659.101.1 0 .1 0 .1zm1.913-4.226c1.61-13.885-5.435-25.053-12.882-36.12-.201-.101-.302-.202-.503-.302 0 .2-.101.402-.101.603l.101.1c8.151 11.37 10.365 26.463 7.145 39.945.906-1.106 1.51-2.414 1.61-3.924.101-.905 1.308-1.106 1.61-.201l.604 2.415c.805-.906 1.61-1.711 2.416-2.516zm1.408-16.199c-.503-2.314-1.408-4.527-2.616-6.942-2.415-4.73-5.535-8.955-9.762-11.873 7.347 9.76 13.586 21.23 12.278 33.706.302-.301.604-.503.805-.804.201-4.629.302-8.754-.503-12.88-.503-.1-.604-.804-.202-1.207zm-.805 39.24c0 3.522-.302 6.943-1.107 10.364 14.392-9.458 14.794-27.569 10.064-42.862 1.007 5.735 1.107 11.872-.1 17.607-1.309 5.735-4.73 10.263-8.454 14.69-.201.101-.302.101-.403.201zm9.762-32.398c6.341 15.696 4.428 35.819-11.472 44.774a36.106 36.106 0 01-4.529 9.559c-.101.201-.201.302-.302.503 9.561-4.729 17.108-12.175 20.731-22.438 1.309-3.823 1.913-7.848 1.913-11.772-.504-.201-.504-1.006 0-1.308-.504-6.841-2.617-13.583-6.341-19.318zm-13.083 44.171c2.818-9.458 1.611-19.621-.604-29.28-.1.906-.301 1.711-.402 2.616 1.107 12.074.402 24.852-7.85 34.411-7.045 8.15-17.712 12.879-28.38 13.583-.201 0-.302 0-.403-.101 0 .101 0 .101-.1.202h.1c11.171.905 23.147-1.107 30.897-9.257 0-.201.201-.503.503-.503 1.207-1.308 2.214-2.717 3.12-4.327a39.58 39.58 0 003.119-7.043v-.301zm-72.862-30.789a11.33 11.33 0 01-1.811-2.012c3.019 10.766 13.787 17.608 20.429 26.261 6.34 8.351 10.668 17.909 13.083 27.971h1.51a55.962 55.962 0 00-8.253-28.173c-5.233-8.653-12.378-14.488-20.631-20.123h-.1c-1.812-.704-3.221-2.213-4.227-3.924zm3.019 49.604c-2.717-1.308-5.132-2.918-7.246-5.031h-.302c-18.215-3.522-36.531-5.735-55.049-6.037-17.914-.302-35.525 1.509-53.338 3.522-.202 0-.403-.101-.403-.302a50.208 50.208 0 01-3.522 1.308c19.322 3.521 38.745 4.226 58.37 4.93 20.53.704 41.061 1.308 61.49 1.61zm-6.139-53.528c-.805-1.61-1.006-3.22-.604-5.031h-.1c-3.825 26.664 11.774 48.397 34.016 61.275-3.02-12.074-8.655-23.242-17.109-32.398-6.541-7.244-14.995-13.784-16.203-23.846zm8.655 103.232c-7.145 6.641-16.001 11.068-25.763 12.376-12.178 1.71-23.248-2.214-34.318-6.742-.604-.201-.906-.905-.403-1.408 5.837-5.836 6.743-13.885 9.058-21.431-14.794.704-28.883-3.824-41.06-12.074-2.215-1.51-4.328-3.019-6.34-4.629l-1.209-.603c-.2-.101-.2-.302-.1-.403-9.259-7.144-17.914-14.79-28.48-19.922-.705-.402-.605-1.61.2-1.811.403-.1.705-.201 1.107-.201.101-.101.202-.302.403-.201.1 0 .201 0 .302.1 15.599-3.521 27.273-15.293 41.262-22.538-18.92-8.552-16.606-34.51-23.45-50.911-.2-.604.403-1.308.907-1.308 9.46.905 18.115-2.113 26.97-4.93 6.542-2.013 13.184-3.623 20.028-4.327 13.787-1.61 27.776 0 40.255 6.238-1.006-11.067 2.315-22.739 7.85-31.995 4.327-7.245 10.165-12.98 16.505-18.413C140.862 19 149.718 11.956 150.926.788c.1-.905 1.308-1.107 1.61-.201a36.265 36.265 0 005.938 10.565c8.856 11.269 23.146 18.412 31.6 30.184 8.051 11.169 12.278 24.752 11.473 38.436 11.271-6.44 24.153-8.653 37.035-8.15 6.944.302 13.787 1.408 20.631 3.018 9.057 2.113 18.417 4.427 27.071-.1.604-.302 1.51.1 1.51.804-1.711 19.319-4.126 39.542-16.907 54.937 4.428 2.515 8.655 5.332 12.781 8.451 7.346 5.434 14.492 10.967 23.65 12.98.704.201.906 1.107.402 1.61-5.837 6.137-9.862 13.784-15.598 20.022-4.831 5.232-10.467 9.76-16.606 13.483-12.58 7.647-27.172 11.772-41.966 11.168 2.315 5.936 3.422 12.275 6.541 17.708.202.403 0 1.107-.503 1.208-19.222 3.924-47.602 9.558-61.993-7.949a26.684 26.684 0 01-3.321 6.54c0 .101 0 .201-.101.302-.1.302-.302.403-.503.403-.201.301-.403.603-.704.905-4.429 5.534-11.473 7.546-16.304 12.678-.201.201-.704.302-1.006.1-6.441-4.427-14.694-5.332-20.631-10.564-2.717-2.415-4.529-5.434-5.837-8.754.1.201 0 .201-.101.302zm12.077-190.265c-15.599 16.2-31.399 38.838-20.027 61.577l2.415-1.81c.704-.403 1.208.402 1.006 1.005-.704 1.71-.603 3.421.101 5.132.705-2.616 1.912-5.132 3.422-7.345-5.837-9.458-3.321-22.438-.302-32.399 2.918-9.357 7.346-18.412 13.385-26.16zm-13.788 174.669c-7.346 6.138-14.794 12.276-23.65 15.998-8.957 3.824-18.82 5.031-28.581 4.528 18.115 5.534 37.739 2.314 52.433-10.162.1-.101.201-.101.201-.101-.201-.905-.302-1.71-.403-2.616a48.559 48.559 0 010-7.647zm-12.58-45.579s0-.1-.1-.1c-1.007-2.113-1.61-4.427-2.013-6.741-.101 0-.201 0-.302-.101-12.177-9.961-15.498-28.072-9.561-42.259-9.057 17.206-6.944 39.945 11.976 49.201zm.302-38.435c0-.1-.1-.201-.1-.302-1.107-4.93-5.938-7.445-9.058-11.168 1.711 7.345 3.825 14.288 7.347 21.129.302-3.32.906-6.54 1.811-9.659zm5.032-9.659c.101-.302.503-.201.503.101.101 2.918 1.309 5.332 3.02 7.445-.403-2.716.1-5.131 1.107-7.546-2.818-5.232-3.825-11.269-2.617-17.105-2.113 5.534-2.818 11.068-2.214 17.105h.201zm-18.316 109.37c9.762-3.824 17.914-10.666 25.764-17.306.603-4.528 1.811-9.056 3.824-13.181-16.203 15.696-36.934 27.971-58.471 34.511 9.762.201 19.624-.402 28.883-4.024zm14.794-122.148c-3.019 3.723-5.334 7.949-7.145 12.678 1.308 1.207 2.717 2.414 3.925 3.622-.705-5.534.503-11.27 3.22-16.3zm-1.208 27.166c-.905 20.325 7.951 38.234 26.871 47.692 3.12.302 6.139.403 9.158.302-20.128-12.275-38.041-34.612-32.808-59.363-1.51 3.722-2.516 7.445-3.221 11.369zm.403-7.143c.805-2.415 1.811-4.729 3.12-6.943-.906-5.836-.202-11.873 2.113-17.205-.101 0-.101-.1-.201-.201-.201.2-.403.301-.503.502-4.529 6.44-6.341 13.382-5.837 21.432v.1c.503.705 1.006 1.409 1.308 2.315zm-.101 39.24c4.126 9.759 13.284 13.683 23.046 15.092-13.888-7.747-23.65-22.437-24.555-38.234v.503c-.604 7.446-1.409 15.696 1.509 22.639zm2.013 6.338a16.133 16.133 0 01-2.113-3.018c-3.925-1.509-7.146-3.522-9.863-6.037-.201.201-.403.402-.805.302-14.19-3.421-27.877-6.238-42.57-5.836-14.19.403-27.877 3.421-41.363 7.949-2.918 1.811-5.937 3.521-9.057 4.93 34.318-7.244 71.654-5.635 105.771 1.71zm2.315-71.236c-10.265-20.022-.101-41.453 14.29-56.747-3.623 3.019-7.145 6.037-10.164 9.458-6.24 7.043-10.97 15.596-13.083 24.852-2.315 10.162-.705 19.821 2.315 29.581 1.912-2.616 4.226-5.03 6.642-7.144z" fill="#FCEEAA"/></svg>