<svg width="57" height="43" fill="none" xmlns="http://www.w3.org/2000/svg"><path fill="#fff" d="M3 10h51v19H3z"/><path d="M52.843 15.627c-.36 2.86-1.023 5.683-2.822 8.032-.436-.246-.89-.455-1.364-.663-.151-.076-.322-.133-.473-.19 2.291-1.761 4.072-4.337 4.659-7.179z" fill="#DAAE59"/><path d="M52.864 14.415c-.663 3.315-2.216 6.232-4.981 8.296a12.63 12.63 0 00-2.5-.587c3.333-1.496 6.08-4.337 7.481-7.71z" fill="#DAAE59"/><path d="M52.408 14.964c-1.648 3.107-4.148 5.512-7.387 7.047-.038.018-.038.038-.057.056-1.667-.17-3.352.02-4.905.682.056-.378.075-.757.075-1.136 2.822-.076 5.493-1.137 7.823-2.709a24.713 24.713 0 003.182-2.595c.435-.436.909-.852 1.269-1.345z" fill="#DAAE59"/><path d="M39.7 19.018c4.62-.815 9.507-1.876 13.068-5.096-.454 1.004-1.401 1.8-2.197 2.52-.947.871-1.95 1.686-3.05 2.386-2.234 1.459-4.735 2.35-7.386 2.52a7.462 7.462 0 00-.436-2.33z" fill="#DAAE59"/><path d="M37.426 16.688c5.152-.114 10.38-.209 15-2.728.057-.019.133-.038.19-.057a22.49 22.49 0 01-6.042 3.183c-2.273.776-4.64 1.136-6.97 1.667a8.025 8.025 0 00-1.08-1.857c-.075-.114-.265-.019-.265.114.02.776-.34 1.345-.814 1.875a6.585 6.585 0 00-.02-2.197z" fill="#DAAE59"/><path d="M37.05 15.4c.039.037.077.037.114.018 2.5-.965 5.02-.852 7.633-.662 1.895.151 3.826.265 5.683-.152-1.724.663-3.504 1.137-5.36 1.364-2.576.322-5.19.322-7.766.454a6.96 6.96 0 00-.303-1.022z" fill="#DAAE59"/><path d="M45.512 13.24c1.97.227 4.053 1.08 6.042.89-4.698 1.383-9.944-1.136-14.433 1.061.019-.17.038-.34.057-.492 2.557-1.42 5.455-1.8 8.334-1.459zm-3.16 21.576c5.019-.095 10.076-2.084 13.58-5.72-.512.7-.985 1.42-1.534 2.083a13.957 13.957 0 01-3.182 2.784c-2.406 1.535-5.19 2.311-8.05 2.368-.057-.114-.095-.246-.151-.36-.19-.398-.417-.776-.663-1.155z" fill="#DAAE59"/><path d="M55.383 29.398c-3.674 3.126-8.144 5.02-13.03 5.134-.077 0-.114.038-.133.094a11.72 11.72 0 00-1.591-1.894c-.038-.038-.095-.075-.133-.132 4.981.625 10.626-.36 14.887-3.202z" fill="#DAAE59"/><path d="M56.27 28.508c-2.292 1.401-4.622 2.595-7.273 3.277-2.88.738-5.853.89-8.807.492-.038 0-.057 0-.076.019a10.639 10.639 0 00-2.993-1.762c2.709.417 5.512.228 8.258-.056 3.637-.38 7.463-.663 10.891-1.97z" fill="#DAAE59"/><path d="M56.556 28.224c-3.75 1.023-7.481 1.591-11.345 1.97-3.732.379-7.577.587-11.156-.682a5.201 5.201 0 001.23-1.004c3.637-.568 7.293-.91 10.967-.928a70.363 70.363 0 015.285.152c1.685.113 3.352.378 5.019.492z" fill="#DAAE59"/><path d="M47.392 25.837c2.785.19 5.36.852 7.899 1.913-3.012-.492-6.232-.511-9.224-.474-3.315.038-6.61.304-9.887.815a6.592 6.592 0 002.348-1.818c2.955-.341 5.89-.644 8.864-.436z" fill="#DAAE59"/><path d="M38.79 25.932a7.129 7.129 0 001.003-2.008c.019.057.057.095.114.095 2.5-.057 4.886-.095 7.349.454 1.837.417 3.541 1.06 5.208 1.857-4.356-1.307-9.28-1.023-13.675-.398z" fill="#DAAE59"/><path d="M39.828 23.773c.057-.209.114-.436.17-.644.038.019.057.019.095 0 3.296-1.156 6.648-.777 9.736.852 0 .095.094.17.17.095 1.478.814 2.803 1.989 4.243 2.879-.076-.038-.133-.057-.209-.095-3.92-2.576-9.527-3.94-14.148-3.125-.019.019-.038.038-.057.038zm-1.283 9.167c-2.14-1.61-4.508-2.273-7.084-2.614a7.349 7.349 0 001.553-.34c.076.037.17.037.265.056h.02c.018.038.075.057.132.057 4.867.227 8.75 3.466 10.114 8.088.114.38.303.758.379 1.137-1.44-2.406-3.144-4.679-5.38-6.384z" fill="#DAAE59"/><path d="M31.801 32.183a16.2 16.2 0 00-1.117-1.61c2.879.34 5.473.928 7.822 2.727 2.046 1.553 3.58 3.618 4.981 5.74-3.049-3.277-7.197-6.365-11.686-6.857 0-.02 0-.02 0 0z" fill="#DAAE59"/><path d="M43.981 39.816c-3.58-2.216-7.463-4.073-11.289-5.853-.019-.02-.038-.02-.056-.02a9.12 9.12 0 00-.663-1.458c2.291.493 4.375 1.288 6.364 2.577 2.102 1.382 3.826 3.087 5.644 4.754.019 0 .019 0 0 0zm-10.818-4.262a.117.117 0 00-.133-.019 7.425 7.425 0 00-.284-1.25c3.75 1.743 7.387 3.713 11.061 5.588-3.958-.55-7.481-1.724-10.644-4.319z" fill="#DAAE59"/><path d="M33.074 35.8c2.652 2.198 6.156 3.864 9.66 4.168-3.542.151-6.895-.417-9.66-2.88a7.31 7.31 0 000-1.288z" fill="#DAAE59"/><path d="M33.032 37.41c2.462 2.368 6.08 3.107 9.413 2.766-1.022.19-2.045.322-3.068.379-2.349.095-4.943-.34-6.572-2.178a8.9 8.9 0 00.227-.966zm-.815 1.592c.341-3.088-.492-6.175-2.424-8.638.114.02.246.02.36.02 0 .018.019.056.038.075 1.629 1.989 2.992 4.49 2.48 7.16-.037.19-.075.379-.132.568-.056.02-.094.076-.056.133a3.38 3.38 0 01-.266.682z" fill="#DAAE59"/><path d="M29.659 30.383c1.932 2.67 2.765 5.91 2.235 9.168-.341.53-.777.985-1.307 1.345-.19.132-.398.246-.587.36.246-1.004.644-1.97.814-3.012.17-.947.209-1.913.152-2.86-.133-1.819-.701-3.58-1.724-5.096.133.019.265.038.398.038.019.038.019.038.019.057z" fill="#DAAE59"/><path d="M28.999 30.402a10.33 10.33 0 011.78 5.456c.038.985-.056 1.989-.265 2.955-.19.852-.568 1.648-.644 2.519-.19.114-.398.227-.587.36-.076.057-.133.094-.208.151 1.117-3.675.36-7.785-.36-11.46h.095a.224.224 0 00.189.02z" fill="#DAAE59"/><path d="M28.733 42.052c.038-3.883-.398-7.785-.663-11.65h.17c.039.02.058.02.077 0 .037.076.113.076.17.057.72 3.883 1.288 7.615.417 11.517a.67.67 0 01-.17.076zm-.872-11.65c.266 3.883.455 7.785.777 11.669h-.019c-1.06-1.686-1.477-3.524-1.553-5.512-.076-1.99-.057-4.11.36-6.08 0-.039 0-.058-.02-.077h.456z" fill="#DAAE59"/><path d="M27.196 30.421c-.454 2.16-.473 4.527-.303 6.725.133 1.742.55 3.485 1.591 4.906a1.643 1.643 0 01-.36-.152c-.132-.057-.246-.114-.378-.17-2.709-2.974-1.648-7.861-.606-11.328h.075c-.019 0-.019 0-.019.02z" fill="#DAAE59"/><path d="M25.858 37.24c.075 1.553.435 3.201 1.515 4.319-.284-.114-.55-.208-.833-.322 0-.019 0-.038-.02-.057-3.01-2.784-1.931-7.823.171-10.816h.227c-.833 2.16-1.174 4.584-1.06 6.876z" fill="#DAAE59"/><path d="M26.117 30.8c-1.818 2.974-2.765 7.823.133 10.323a4.798 4.798 0 01-1.27-.757c-.927-.834-1.306-2.103-1.363-3.296-.133-2.387.89-4.584 2.5-6.27zm-2.727 7.937c-1.439 1.326-3.276 2.16-5.227 2.311-1.913.151-3.674-.492-5.417-1.193.095 0 .208.019.303.019 3.447 1.496 7.538.72 10.38-1.648.037.17.075.322.132.473-.057-.019-.113-.019-.17.038z" fill="#DAAE59"/><path d="M18.845 39.058c1.666-.72 3.068-1.875 4.45-3.012-.037.474-.037.966.02 1.44.018.17.037.322.075.492-.019 0-.038.02-.038.02-2.746 2.348-6.458 2.936-9.868 1.913 1.819.075 3.675-.133 5.36-.853z" fill="#DAAE59"/><path d="M24.055 33.225a8.687 8.687 0 00-.72 2.481c-1.496 1.27-3.011 2.538-4.848 3.258-1.743.682-3.599.796-5.436.739 4.053-1.213 7.936-3.523 11.004-6.478z" fill="#DAAE59"/><path d="M25.664 30.914a7.806 7.806 0 00-1.307 1.724c-3.41 3.163-7.197 5.455-11.591 7.027l.113-.17c3.618-3.865 7.766-6.838 12.785-8.581z" fill="#DAAE59"/><path d="M26.08 30.515c-4.791 1.535-9.394 4.357-12.69 8.221 2.785-4.186 6.232-7.974 11.554-8.41.076 0 .114-.076.114-.133.398.076.814.114 1.212.152-.057.057-.113.114-.19.17z" fill="#DAAE59"/><path d="M24.661 30.118c-4.792.53-8.902 3.959-11.118 8.164.133-.36.265-.72.36-1.099.398-1.477.776-2.841 1.818-4.016 2.216-2.462 5.53-2.955 8.656-3.106l.284.057zM6.516 33.243c2.519.966 5.227 1.326 7.936 1.175a8.751 8.751 0 00-.417.966c-.019.038-.019.075-.038.094-2.727 0-5.227-.776-7.481-2.235z" fill="#DAAE59"/><path d="M15.511 32.884c-.36.398-.662.833-.928 1.288-3.068.19-6.004-.341-8.826-1.44-.909-.663-1.78-1.383-2.652-2.064 3.618 1.988 8.334 2.822 12.406 2.216z" fill="#DAAE59"/><path d="M17.553 31.254a8.306 8.306 0 00-1.44 1.023c-.113.095-.208.19-.303.284-2.31.19-4.545.246-6.837-.17-2.273-.417-4.375-1.25-6.459-2.217-.473-.36-.928-.7-1.42-1.004 2.292.966 4.773 1.459 7.235 1.743 2.993.36 6.137.474 9.224.341z" fill="#DAAE59"/><path d="M22.596 29.853c-1.629.114-3.239.474-4.66 1.193-.018-.018-.037-.018-.075-.037-3.03-.114-6.042 0-9.054-.303a32.76 32.76 0 01-8.693-2.103L0 28.546l.227-.057c3.542.928 7.292.966 10.948 1.099 3.807.133 7.614.208 11.421.265z" fill="#DAAE59"/><path d="M11.571 29.303c-3.693-.133-7.367-.265-10.985-.928.227-.076.455-.152.663-.247 0 .038.019.076.076.057 3.352-.397 6.667-.738 10.038-.663 3.485.076 6.932.493 10.36 1.137h.057c.398.398.853.7 1.364.947a590.37 590.37 0 01-11.573-.303z" fill="#DAAE59"/><path d="M19.071 26.69c.076.019.114-.02.152-.057a5.68 5.68 0 001.856 1.136c.114.209.246.398.398.569-6.421-1.383-13.448-1.667-19.907-.341a14.86 14.86 0 001.705-.928c2.538-.853 5.095-1.421 7.784-1.497 2.766-.057 5.342.474 8.012 1.118z" fill="#DAAE59"/><path d="M17.5 24.303c.132.038.208-.076.189-.19a5.618 5.618 0 001.212 2.179C14.3 24.606 8.56 24.89 3.957 26.614c.606-.398 1.193-.796 1.78-1.194.02.02.038.038.076.02 3.826-1.705 7.595-2.103 11.687-1.137z" fill="#DAAE59"/><path d="M17.464 22.939c.038.398.114.777.227 1.155-.019-.037-.057-.056-.095-.075-3.523-1.099-7.746-.739-11.06.947.132-.076.283-.17.416-.246 2.974-1.724 7.008-2.785 10.38-1.743.037-.02.094-.02.132-.038zm2.52-7.823c-2.746-1.516-6.137-2.216-9.28-2.084.132-.019.283-.057.435-.076 2.86-.492 5.833-.303 8.447 1.042.057.02.095.02.133.02.076.34.151.719.265 1.098z" fill="#DAAE59"/><path d="M20.13 15.513c.114.322.266.625.436.928a4.06 4.06 0 00-.435.796c-3.561-2.822-8.202-3.24-12.596-3.296.796-.227 1.591-.492 2.387-.7.019 0 .019.018.038.018 3.655-.076 6.856.72 10.17 2.254z" fill="#DAAE59"/><path d="M6.97 14.074c4.507.265 9.28.436 12.974 3.39.018.02.037.02.056.039-.094.246-.17.492-.246.757-.265-.265-.511-.55-.644-.928-.038-.114-.19-.152-.265-.038a9.318 9.318 0 00-.947 1.894c-3.694-2.633-8.372-4.356-12.918-4.678a13.75 13.75 0 001.99-.436z" fill="#DAAE59"/><path d="M17.444 21.234c-4.906-1.496-9.395-3.77-13.58-6.686.208 0 .435 0 .643-.02 0 .039.02.058.057.077 4.868.662 9.167 2.197 13.277 4.849a9.984 9.984 0 00-.397 1.78z" fill="#DAAE59"/><path d="M3.616 14.547c4.053 3.183 8.807 5.531 13.77 6.914h.057c-.02.38-.038.758 0 1.137h-.02c.02-.057 0-.133-.075-.152-5.19-1.572-10.531-2.936-13.713-7.71l-.057-.17c0-.019.02-.019.038-.019z" fill="#DAAE59"/><path d="M15.492 22.22c-1.288-.114-2.614 0-3.902.283-.02-.038-.038-.076-.076-.094-3.05-1.25-5.739-3.05-7.406-5.891-.094-.398-.19-.815-.284-1.194 2.52 3.883 7.254 5.759 11.668 6.895z" fill="#DAAE59"/><path d="M4.242 17.162c1.553 2.595 4.243 4.28 7.008 5.436-.55.133-1.098.303-1.629.492-1.988-.966-3.617-2.33-5-4.053-.133-.625-.246-1.27-.379-1.875z" fill="#DAAE59"/><path d="M4.738 19.416a12.052 12.052 0 004.603 3.77c-.455.17-.91.36-1.326.549-.057.038-.133.056-.19.094-1.856-.871-2.613-2.557-3.087-4.413zm31.874 1.724c-.057-.284-.114-.55-.17-.815.018 0 .018-.019.018-.019.55-.625 1.231-1.155 1.667-1.818a6.802 6.802 0 01-1.515 2.652z" fill="#DAAE59"/><path d="M36.917 23.45s-.019 0-.019.02c-.019-.72-.114-1.44-.265-2.16.038.019.076.019.132-.019.928-.852 1.553-2.103 1.648-3.353.076.966.114 1.932-.075 2.88-.209 1.041-.777 1.818-1.421 2.632z" fill="#DAAE59"/><path d="M38.582 17.73c.89 2.879.814 6.27-1.895 8.069a8.325 8.325 0 00.209-1.951c.019 0 .038-.02.076-.038.7-.815 1.344-1.686 1.59-2.766.247-1.06.209-2.235.02-3.314z" fill="#DAAE59"/><path d="M36.596 26.178c2.992-1.686 3.352-5.493 2.159-8.43a7.291 7.291 0 011.155 3.619c-.095.056-.095.208 0 .246 0 .758-.114 1.496-.36 2.216-.682 1.932-2.102 3.334-3.902 4.224.02-.038.038-.057.057-.094.417-.55.701-1.156.89-1.781z" fill="#DAAE59"/><path d="M36.176 20.552c.417 1.818.644 3.75.114 5.512 0 .019-.02.019-.02.038a5.123 5.123 0 01-.587 1.326c-.17.303-.378.568-.587.814-.056.02-.094.057-.094.095-1.459 1.534-3.713 1.913-5.815 1.743h-.019c0-.02 0-.02.019-.038.019.019.038.019.076.019 2.007-.133 4.015-1.004 5.34-2.558 1.554-1.799 1.706-4.205 1.478-6.478.038-.151.057-.322.095-.473z" fill="#DAAE59"/><path d="M35.933 21.802c-.038 1.97-.17 3.921-1.515 5.512-1.307 1.516-3.182 2.273-5.133 2.482a6.66 6.66 0 00.265-1.25c.02.075.114.151.209.094 1.59-.947 3.466-1.932 4.602-3.447.72-.985 1.25-2.16 1.572-3.39z" fill="#DAAE59"/><path d="M33.335 23.848c1.099-1.06 2.027-2.273 2.709-3.637-.341 1.8-.947 3.618-2.14 5.039-1.156 1.364-2.88 2.16-4.319 3.144-.019.02-.038.038-.057.076a6.76 6.76 0 00-.094-1.856c.018-.02.037-.02.056-.057.02-.038.057-.076.076-.114.02-.019.02-.038.02-.057a.432.432 0 00.378-.132c.19-.095.379-.19.55-.303a12.8 12.8 0 001.06-.682c.644-.417 1.212-.89 1.761-1.42z" fill="#DAAE59"/><path d="M35.533 20.76c-.852 1.27-1.818 2.425-2.992 3.43a14.568 14.568 0 01-2.292 1.59c-.208.114-.644.228-.89.436a5.837 5.837 0 00-.265-.814c1.23-2.425 4.45-2.35 6.042-4.32.075 0 .17-.037.17-.132.095-.076.17-.132.227-.19z" fill="#DAAE59"/><path d="M29.035 24.928c.265-1.099.834-2.046 1.875-2.538.834-.398 1.743-.55 2.614-.777.341-.095.7-.19 1.042-.322-1.78 1.307-4.413 1.667-5.53 3.637zm.018 4.565c-.246-2.879-1.704-5.91-4.053-7.671.644.322 1.25.606 1.591.852 2.197 1.497 3.125 4.281 2.462 6.82z" fill="#DAAE59"/><path d="M28.522 30.118c-.454-1.913-1.269-3.713-2.462-5.266-1.25-1.648-3.277-2.917-3.845-4.944.095.133.227.265.34.379.19.322.455.587.777.739h.02c1.552 1.042 2.878 2.14 3.882 3.788a10.537 10.537 0 011.553 5.304h-.265z" fill="#DAAE59"/><path d="M21.878 18.582c-.076.34-.02.644.113.947.228 1.913 1.819 3.125 3.05 4.47 1.572 1.743 2.651 3.846 3.22 6.1-4.186-2.425-7.122-6.516-6.402-11.536 0 0 0 .019.019.019z" fill="#DAAE59"/><path d="M21.024 21.101c.132-.72.34-1.44.606-2.14-1.004 4.66 2.386 8.846 6.174 11.176-.568 0-1.136-.02-1.723-.057-3.561-1.78-5.228-5.152-5.057-8.979z" fill="#DAAE59"/><path d="M20.796 22.806c.19 2.955 2.027 5.74 4.622 7.198-1.838-.265-3.561-.985-4.338-2.841-.55-1.307-.398-2.88-.303-4.262.019-.038.019-.076.019-.095zm.117 4.622s0 .019.019.019c-3.56-1.762-3.958-6.043-2.254-9.282-1.117 2.67-.492 6.08 1.8 7.956.018.019.037.019.056.019.076.454.19.89.38 1.288z" fill="#DAAE59"/><path d="M20.441 25.193c.02.227.02.474.057.701-1.95-2.235-2.614-4.811-1.686-7.615-.246 2.406.19 4.85 1.572 6.857 0 .038.038.057.057.057z" fill="#DAAE59"/><path d="M20.438 22.181c.038.076.113.076.151.038l-.057.682c-.056.625-.113 1.288-.094 1.951-1.364-2.14-1.61-4.584-1.383-7.065.019.019.038.056.057.075.095 1.497.625 2.974 1.326 4.32z" fill="#DAAE59"/><path d="M20.965 20.211c-.17.587-.284 1.194-.36 1.819-.663-1.289-1.041-2.577-1.382-3.978.587.7 1.496 1.174 1.704 2.102.02.02.038.038.038.057zm.29-4.223a5.286 5.286 0 00-.606 3.087c-.227-.246-.493-.454-.739-.682.36-.89.777-1.705 1.345-2.405z" fill="#DAAE59"/><path d="M21.707 18.45a6.736 6.736 0 00-.587 1.306 2.01 2.01 0 00-.265-.435v-.02c-.095-1.515.246-2.822 1.099-4.034.038-.038.075-.057.094-.095l.038.038a5.73 5.73 0 00-.378 3.24c-.02 0 0 0 0 0z" fill="#DAAE59"/><path d="M22.027 18.412c0-.057-.076-.076-.095-.02h-.037a6.863 6.863 0 01.416-3.22 4.76 4.76 0 00.493 3.22c-.209.436-.303.91-.209 1.421-.322-.398-.549-.852-.568-1.401z" fill="#DAAE59"/><path d="M22.913 18.166c-.473-.928-.625-1.913-.492-2.955.095.738.739 1.364 1.231 1.932-.284.34-.55.682-.739 1.023zm-.125 1.874c-.037-.852.247-1.534.682-2.159-.303.796-.416 1.648-.265 2.52-.132-.114-.284-.228-.416-.36z" fill="#DAAE59"/><path d="M25.344 15.722c-.739 1.705-.966 3.656-.796 5.493-.36-.189-.72-.378-1.041-.606-.322-1.383.056-2.576.757-3.656.36-.397.739-.795 1.08-1.23z" fill="#DAAE59"/><path d="M25.796 15.173c.038 2.235.057 4.451-.057 6.667-.303-.17-.625-.322-.966-.511v-.038c-.132-2.102.228-3.997.91-5.948.018-.019.037-.038.037-.075v-.038c.02-.038.02-.057.038-.095.02-.019.02-.038.038-.057-.019.057 0 .076 0 .095zm1.272 3.864c.133 1.212.057 2.424-.019 3.637a10.178 10.178 0 00-1.06-.701c.132-2.046.189-4.11.056-6.138.398 1.061.89 2.046 1.023 3.202z" fill="#DAAE59"/><path d="M28.522 24.265c-.057-.095-.133-.19-.19-.284a6.38 6.38 0 00-1.041-1.099c.113-1.345.19-2.69 0-4.035-.19-1.326-.739-2.424-1.307-3.618 0-.094-.02-.189-.02-.284.266.512.626.928 1.024 1.326-.02.02-.038.057-.02.076 1.686 2.368 1.705 5.133 1.554 7.918z" fill="#DAAE59"/><path d="M28.752 24.643c.19-2.67.322-5.682-1.307-7.936.38.379.758.758 1.061 1.193 1.08 1.572 1.345 3.486.91 5.323v.019c-.285.416-.512.89-.645 1.42 0 0-.019 0-.019-.018zm-.302-9.452c-.285.493-.418 1.099-.455 1.667-.17-.19-.36-.36-.55-.53.114-.152.228-.284.36-.436.057 0 .114-.038.114-.094v-.02c.17-.208.36-.397.53-.587zm-.305 1.819c.018-.796.284-1.44.606-2.179v-.019c.056-.075.094-.132.151-.208a6.352 6.352 0 00-.322 2.917c-.132-.17-.284-.34-.435-.511z" fill="#DAAE59"/><path d="M29.13 14.339c.096 1.42.114 2.841.096 4.262a6.031 6.031 0 00-.436-.758v-.038c-.19-1.155-.076-2.31.284-3.428 0-.019 0-.038-.019-.057a.926.926 0 00.057-.133c.019.02.019.038.038.057 0 .038-.02.057-.02.095zm.193.361c.7 1.023.682 2.046.739 3.239-.284.492-.474 1.004-.474 1.591-.057-.152-.095-.303-.151-.455a33.56 33.56 0 00-.152-4.375h.038c0-.02 0-.02 0 0z" fill="#DAAE59"/><path d="M30.227 17.635c-.038-1.118-.095-2.065-.833-2.993-.02-.038-.076 0-.076.038h-.038c-.019-.095-.019-.19-.038-.284.606.72 1.667.89 1.648 2.14 0 .038.019.057.019.076-.227.341-.474.682-.682 1.023zm6.818 1.629c.227-2.349-.928-4.49-2.31-6.345.795.549 1.382 1.363 1.837 2.235.227.454.378.871.492 1.307-.076.075-.057.19.057.227.151.777.133 1.553.095 2.425a1.366 1.366 0 00-.17.151z" fill="#DAAE59"/><path d="M36.804 19.51l-.455.455-.114-.454c-.037-.17-.284-.114-.303.038-.038.284-.132.53-.303.738.606-2.538.19-5.38-1.344-7.52l-.02-.019c0-.037.02-.075.02-.113.037.019.056.038.094.057 1.402 2.102 2.709 4.205 2.425 6.819z" fill="#DAAE59"/><path d="M34.36 13.222c1.155 2.292 1.553 4.678.965 7.217a8.74 8.74 0 00-.909-3.732c0-.019.02-.038.02-.057a18.854 18.854 0 00-.077-3.428zm-.15-.152a24.19 24.19 0 01.018 3.315c-.113-.208-.246-.398-.36-.606-.056-.928.076-1.818.341-2.709zm-.535 2.425a7.205 7.205 0 00-.777-.928c.133-.644.796-.91 1.156-1.364a5.952 5.952 0 00-.379 2.292zm-4.054-3.941c.152.17.322.303.53.455.815.568 1.421 1.06 1.875 1.913a.145.145 0 00-.037.095c.019.682-.228 1.288-.569 1.856-.151-.89-.322-1.8-.681-2.614-.285-.644-.701-1.174-1.118-1.705z" fill="#DAAE59"/><path d="M30.704 15.134c-.36-.378-.872-.568-1.213-.947-.038-.928-.094-1.837-.151-2.765.436.739.985 1.345 1.288 2.178.284.777.416 1.61.587 2.425 0 .038.038.057.057.076-.02.038-.057.075-.076.113a2.08 2.08 0 00-.492-1.08zm-1.534-3.901v-.038c.02.91.057 1.8.095 2.709a.143.143 0 01-.038-.076c-.057-.114-.208-.076-.246.038a2.219 2.219 0 01-.265.568c-.02-.019-.02-.038-.038-.038-.057-1.098.133-2.121.492-3.163zm-.707 2.747c-.189-.399-.492-.74-.795-1.062.057.02.114-.018.114-.075.019-.247.132-.417.284-.569.056 0 .094-.037.113-.113.17-.152.36-.284.53-.436.076-.057.133-.133.19-.19a6.72 6.72 0 00-.436 2.444zm-.032.833c-.17.208-.36.398-.53.606a5.745 5.745 0 00-.928-2.822c.625.682 1.363 1.23 1.458 2.216z" fill="#DAAE59"/><path d="M26.531 12.218a6.693 6.693 0 011.156 3.447 3.27 3.27 0 00-.36.53 8.008 8.008 0 01-.55-.587v-.019a10.118 10.118 0 00-.246-3.371zm-.751 2.254c0 .019-.018.038-.018.038a10.8 10.8 0 01.587-2.52c.19 1.137.265 2.236.227 3.391a3.051 3.051 0 01-.511-.91c-.057-.132-.228-.132-.284 0zm-1.577 2.083c.322-1.61.966-3.068 1.894-4.413.038-.019.057-.057.095-.114a6.69 6.69 0 00-.682 2.955c-.34.53-.833 1.042-1.307 1.572z" fill="#DAAE59"/><path d="M23.849 16.934c-.19-.208-.417-.455-.625-.7 0-.02 0-.039-.02-.077-.245-.435.967-1.856 1.213-2.159.284-.36.606-.682.909-1.023a10.223 10.223 0 00-1.402 3.845c-.018.057-.056.095-.075.114z" fill="#DAAE59"/><path d="M23.792 14.49c-.19.266-.72.929-.815 1.421-.037-.056-.056-.094-.094-.151.435-1.175 1.155-2.046 2.064-2.803.076.018.17-.038.17-.133.21-.17.418-.322.645-.474-.02.038-.038.057-.057.095-.7.644-1.364 1.288-1.913 2.046zm.814-10.247c-2.709 2.879-4.622 6.913-2.69 10.683a7.095 7.095 0 00-1.25 1.364c-.587-1.837-.87-3.656-.435-5.57.397-1.742 1.288-3.352 2.462-4.678.55-.644 1.231-1.231 1.913-1.8z" fill="#DAAE59"/><path d="M22.786 15.552c-.133-.303-.17-.625-.019-.966.038-.114-.057-.266-.19-.19-.15.114-.302.208-.454.341-2.14-4.3.833-8.562 3.77-11.592a14.683 14.683 0 00-2.5 4.906c-.57 1.894-1.062 4.318.056 6.099-.303.436-.53.91-.663 1.402z" fill="#DAAE59"/><path d="M26.135 3.163c-1.42 2.955-1.819 6.384-1.288 9.604-.379.284-.758.55-1.042.91-.076.075-.151.17-.208.264-.947-1.875-.455-4.186.151-6.118.53-1.705 1.364-3.22 2.387-4.66z" fill="#DAAE59"/><path d="M27.293 1.44a.144.144 0 00.038-.076c-.7 3.599-.758 7.425-.133 11.043-.246-.284-.492-.568-.681-.89-.057-.095-.17-.076-.228 0-.303.454-.757.776-1.212 1.117-.587-3.959.265-7.766 2.216-11.194z" fill="#DAAE59"/><path d="M27.445 12.653c-.53-4.016-.455-7.88.19-11.876.037-.076.056-.152.094-.247.02.076.057.152.076.228.114 1.704.227 3.39.265 5.095.038 2.065-.076 4.11-.114 6.175-.018.02-.037.038-.037.057-.209.227-.303.398-.303.72v.019a.723.723 0 01-.171-.17zm2.88-.833c-.397-.266-.738-.588-.89-1.061-.038-.095-.17-.114-.227-.02-.284.455-.644.74-1.004 1.061.322-3.276.265-6.724-.095-10.039 1.099 3.277 2.122 6.611 2.216 10.059z" fill="#DAAE59"/><path d="M29.737 6.213c-.474-1.8-1.023-3.58-1.705-5.323-.038-.303-.076-.587-.113-.89.018.038.037.057.037.076.19 1.004.834 1.78 1.364 2.652a19.306 19.306 0 011.686 3.58c.833 2.349 1.023 4.697 1.08 7.16a3.72 3.72 0 00-.72-.91 4.741 4.741 0 00-.777-.549v-.019c.076-1.97-.36-3.92-.852-5.777zm4.076-.19c2.14 2.274 3.315 5.361 3.069 8.468-.057.037-.076.075-.076.132 0 .038.019.095.057.114 0 .057-.02.114-.02.19a6.047 6.047 0 00-.87-1.308c.189-2.121-.474-4.034-1.743-5.74a69.398 69.398 0 00-4.527-5.473c1.27 1.269 2.86 2.292 4.11 3.617z" fill="#DAAE59"/><path d="M30.058 3.505c-.492-.89-1.193-1.705-1.648-2.633.209.303.436.606.663.87 0 .02 0 .02.019.02 0 .019.019.019.019.019.133.151.265.284.398.417-.038 0-.076.037-.057.075 2.424 3.429 6.345 6.497 6.231 11.006a4.562 4.562 0 00-1.458-1.004c-.114-.057-.246.038-.208.17.075.436-.512.928-.758 1.156-.152.132-.303.246-.417.397-.075.133-.132.228-.151.322a4.89 4.89 0 00-.322-.284c-.038-.094-.076-.208-.133-.303.057 0 .095-.057.114-.113.265-2.33-.19-4.85-.928-7.066a23.065 23.065 0 00-1.364-3.05zm1.08 15.589c-.398 1.117-1.25 2.273-1.194 3.504 0 .019 0 .038.02.038-.057.038-.095.095-.152.132a6.83 6.83 0 00-.019-2.557c.038 0 .057-.019.057-.076-.209-1.989 1.553-3.2 2.197-4.868-.19 1.307-.474 2.595-.91 3.827z" fill="#DAAE59"/><path d="M31.592 18.468c.38-1.288.588-2.614.626-3.94v-.038c.643 2.5.549 4.982-.645 7.312-.265.076-.492.133-.681.227a3.467 3.467 0 00-.72.436c.038-1.326 1.06-2.766 1.42-3.997z" fill="#DAAE59"/><path d="M32.576 15.116c.398.72.872 1.383 1.137 2.216.398 1.307.398 2.614.132 3.94-.644.19-1.344.322-1.95.455.984-2.046 1.306-4.433.681-6.611z" fill="#DAAE59"/><path d="M34.053 17.73c-.322-1.27-1.08-2.14-1.666-3.258 1.723 1.667 2.69 3.902 2.633 6.326a5.253 5.253 0 01-.929.398 7.397 7.397 0 00-.038-3.466zm-4.431-6.175c-.038-.057-.076-.095-.114-.152.038.057.076.114.114.152zM17.69 24.132c0-.019 0-.019-.018-.038.019 0 .019.02.019.038z" fill="#DAAE59"/></svg>