<svg width="706" height="529" fill="none" xmlns="http://www.w3.org/2000/svg"><path d="M365.1 144.912c0 .692 0 1.154.23 1.847.231 0 .462 0 .693.231.461.693.922 1.155 1.384 1.848-.923-1.386-1.615-2.541-2.307-3.926zm-1.615 1.616v.231c-4.383 12.704-6.69 25.177-5.998 38.343.231.231.462.231.462.462 1.384-2.079 2.537-4.389 3.229-6.93.462-1.385 2.307-1.847 2.999-.462.231.231.461.693.461.924-.461-10.625-.692-21.712-1.153-32.568zm.692 90.082c.231-17.323-.231-34.647-1.153-51.97 0-.462.23-.693.461-.693-.231-.231-.461-.462-.461-.693-.231.462-.462.924-.692 1.617.23 0 .461.231.23.693-4.383 13.628-5.767 27.486-3.46 41.807v.462c1.845 2.541 3.691 5.774 5.075 8.777zm-35.064-80.611c-3.46 10.394-5.998 20.095-7.151 30.72 0-.231.231-.231.231-.462.692-1.617 2.768-1.617 3.46 0 1.615 4.157 3.691 7.853 6.228 11.087.462-14.09-.461-27.487-2.768-41.345zm-8.305 41.114c-8.304 23.791-12.687 46.888-11.072 72.527v.462c4.152 2.079 8.304 4.158 11.764 6.237 1.615-27.025 1.385-54.049.693-81.305 0-.231-.231-.693-.231-.924-.231.231-.231.462-.462.693-.23.462-.23.693-.461 1.155v.462c.231.231.231.462-.231.693zm5.306-39.498c-11.303 16.4-19.147 34.416-23.068 53.818 5.997-6.236 11.995-12.472 15.917-19.171 0-12.242 2.768-25.177 8.305-36.033-.231.693-.692 1.155-1.154 1.386zm-28.605-52.432c-7.382 23.56-13.379 51.739-1.845 74.606.923-1.155 1.615-2.078 2.537-3.233 3.691-4.158 8.074-7.623 12.688-11.087-6.69-39.267-1.615-81.074 15.687-117.107-12.457 17.555-22.608 36.033-29.067 56.821zm-9.458 98.628c1.154-6.005 7.613-13.859 9.92-17.323 6.689-9.239 14.763-17.093 23.068-24.715.231-.462.461-.693.692-1.155-2.768 1.848-5.306 3.696-7.843 5.775 0 1.154-1.154 1.847-2.076 1.616-11.073 9.009-19.608 19.865-25.145 34.185.692.231 1.154.924 1.384 1.617zm17.532-23.098c-2.999 3.696-17.762 20.788-14.764 26.332.231.231.231.462.231.924 2.538 3.002 5.306 6.005 7.613 8.546.461-.462.692-.924 1.153-1.155 2.538-16.861 8.305-32.568 17.071-46.889-3.922 3.927-7.613 7.854-11.304 12.242zm20.762 204.648c-19.378 20.557-32.065 47.35-30.681 76.223.692 14.782 5.306 30.258 16.609 40.19 4.614 4.158 9.919 6.929 15.456 9.239-35.295-30.258-23.53-89.389-1.384-125.652zm-22.838-168.846c-8.535 13.166-13.149 27.717-9.227 44.579 3.921 2.772 8.304 5.312 12.687 7.391-2.076-22.405.923-46.196 9.689-66.984-3.922 5.313-8.535 10.163-13.149 15.014zm-9.227 11.318c-5.306 7.622-8.997 15.937-8.305 26.332 1.615 1.616 3.23 3.233 5.075 4.619-2.076-10.856-.692-21.25 3.23-30.951zm-6.921 3.465c2.307-4.158 5.537-8.316 8.766-12.242-5.998-6.93-13.841-14.783-14.994-23.56-1.384 12.473.692 24.484 6.228 35.802zM165.096 491.38l-1.384 2.079c53.519-19.172 99.656-47.12 141.179-85.693 4.383-7.623 9.689-14.783 15.917-21.02-61.131 21.251-111.651 57.514-155.712 104.634zm8.074-14.783c26.99-51.277 77.049-93.084 135.412-99.552l-3.46-.693c-38.294 1.848-78.664 7.854-105.423 37.881-12.688 14.321-17.301 30.951-22.146 48.967-1.384 4.62-2.768 9.009-4.383 13.397zm120.418-.693c-34.603 28.873-84.662 38.343-126.415 20.095-1.154 0-2.538-.231-3.691-.231 20.992 8.547 42.676 16.169 65.975 14.552 23.992-1.848 46.137-12.011 63.669-28.179.692-.693 1.615-.693 2.307-.231-.692-2.079-1.384-3.927-1.845-6.006zm-154.79-307.433c38.294-1.616 79.356 6.93 113.036 25.408-1.384-4.389-2.538-9.008-3.23-13.859-.461.231-1.153.231-1.615-.231-31.834-16.399-68.051-18.709-102.885-12.703-1.845.692-3.691 1.154-5.306 1.385zm31.835 313.67c-.231.693-.692 1.386-.923 2.079.692-.693 1.154-1.386 1.846-2.079 40.139-47.12 96.195-81.536 154.558-100.245.692-.693 1.615-1.386 2.307-2.079-5.075-.462-9.919-.924-14.764-1.848 0 .693-.461 1.386-1.384 1.617-64.822 5.313-107.037 51.508-140.717 102.555-.462.231-.692.231-.923 0zm-83.047-66.984c27.452 17.785 57.902 27.024 91.352 27.486.23-.462.23-.924.461-1.155 1.384-4.157 2.999-8.084 5.075-11.779-33.219 1.616-66.206-2.772-96.887-14.552zm131.491-125.653c-41.062-12.703-90.198.231-126.415 21.25-1.615.924-3.46 2.079-5.076 3.003 40.37-20.557 92.044-24.946 134.72-11.549.462.231.923.462 1.154.924a72.495 72.495 0 01-2.769-14.09c-.23.693-.922.693-1.614.462zm207.616-118.492c1.614 13.859 2.076 27.949.922 42.038 0 .231-.23.462-.23.693a105.058 105.058 0 0111.072 45.503c7.152-31.182 2.307-60.285-11.764-88.234zM121.728 292.507c-21.915-10.394-41.523-26.101-56.056-45.965 5.767 22.636 14.994 43.193 37.37 53.818.692-.462 1.615-.693 2.307-1.155 5.537-2.309 10.842-4.619 16.379-6.698zM93.123 181.406c-8.074 2.31-15.917 4.158-24.222 5.082 55.364 3.926 112.343 24.946 157.327 57.052 2.768-8.085 6.69-15.938 11.534-23.098.923-1.386 2.768-.924 3.23.462 1.614 4.619 4.613 8.084 7.843 11.318.692-3.234 1.615-6.237 2.999-9.24-.231 0-.462-.231-.692-.462-44.984-35.801-102.886-37.649-158.02-41.114zm-47.06 202.107c10.612 8.546 21.223 17.092 32.296 25.176 34.372 13.397 70.359 20.096 107.499 17.555 3.23-5.544 6.921-10.856 11.304-15.707-49.598 7.623-107.038-2.541-151.099-27.024zm10.381-48.968c56.056-21.019 125.954-24.715 182.01-3.926-6.92-7.623-11.765-16.862-14.764-26.563 0-.231 0-.231-.23-.462 0 .231 0 .231.23.462a1.978 1.978 0 01-2.307 2.31c-49.827-11.78-95.734-7.161-142.332 14.09-.461.23-.692 0-.923-.231-7.15 4.619-14.302 9.701-21.684 14.32zM52.292 189.26c38.524 58.206 103.808 74.837 167.015 94.008.923.231 1.154 1.155.923 1.848h.231c-.231-4.62-.231-9.239 0-13.859h-.692c-60.209-17.092-118.341-45.503-167.708-84.307h-.692c.461.924.692 1.617.923 2.31zm5.998 21.943c20.07 34.646 53.057 56.82 90.197 71.834.462.231.923.693.923 1.155 15.686-3.465 31.834-4.851 47.521-3.465-53.75-14.09-111.19-36.726-142.102-84.076l3.46 14.552zm4.613-24.253c-2.537.231-5.075.231-7.843.231 51.212 35.57 105.653 63.288 165.401 81.535 0 0 .23 0 .23.231.692-7.391 2.307-14.782 4.614-21.712-50.289-32.337-102.654-51.046-161.71-59.13-.461-.462-.692-.693-.692-1.155zm82.355 98.397c-33.68-14.09-66.668-34.647-85.354-66.291 1.615 7.622 3 15.244 4.845 22.636 16.609 21.019 36.448 37.649 60.9 49.429 6.229-2.31 12.919-4.157 19.609-5.774zm-35.987 101.399c-29.99-3.464-60.209-9.701-88.122-21.25 5.998 3.927 11.765 8.085 17.302 12.242 25.375 11.78 50.981 21.943 78.663 27.025 27.913 5.081 55.364 4.619 83.277 2.079 1.154-1.155 2.538-2.31 3.691-3.465 5.537-4.851 11.304-9.008 17.532-12.473-37.14 1.617-75.434.231-112.343-4.158zm491.588-96.549c5.767 2.31 11.304 5.082 16.61 8.085 21.684-28.642 29.989-63.058 34.372-97.936-7.382 34.647-28.836 66.06-56.749 87.772 2.076.693 3.922 1.386 5.767 2.079zm-39.908-10.625c10.381 1.386 20.531 3.696 30.45 7.161 33.68-25.177 52.366-60.748 60.67-101.169-17.07 41.114-50.52 75.761-91.12 94.008zm-26.99 173.234c34.833-.693 68.744-10.163 98.041-28.872 14.533-9.239 27.682-20.788 38.755-33.954 6.689-8.084 12.457-16.861 18.685-25.407-42.676 44.347-104.269 68.6-165.401 69.755 2.999 4.62 5.537 9.239 7.844 14.09.922 1.617 1.614 3.003 2.076 4.388zm148.791-84.538c-51.904 34.647-120.648 46.658-181.318 39.036.462.462 1.154.923 1.615 1.616 7.382 6.93 13.841 14.552 19.378 23.098.23-.693.692-1.155 1.614-1.155 59.517-1.385 113.958-24.483 158.711-62.595zM341.57 516.557c-13.149-13.859-17.532-33.954-18.455-52.664-1.384-27.948 2.538-57.513 12.688-83.614h-2.768c-25.606 36.495-38.755 97.935-2.076 131.889.23.231.23.462.23.693 3.691 1.155 7.151 2.541 10.381 3.696zm-.461-309.281c1.153-2.31 2.768-4.389 4.383-6.468-.923-15.706-5.537-29.103-14.072-42.038 3.46 13.397 4.614 27.487 2.999 41.114v.231c2.076 2.541 4.383 4.851 6.69 7.161zm-3.461 79.226c.923-14.783 1.846-29.566.231-44.348-1.615-14.321-7.613-26.332-12.457-39.036 1.615 24.946.923 50.123-.692 74.837 4.614 2.541 8.766 5.313 12.918 8.547zm-6.459-136.509c2.307 3.927 5.075 7.622 8.305 10.856-7.382-44.117-6.921-90.544 1.615-134.66-.231.23-.462.692-.462.923-23.76 41.807-34.141 88.465-26.99 136.278 5.537-3.927 11.073-8.084 14.764-13.628.692-.693 2.307-.924 2.768.231zm4.383 312.746c-2.076-26.794-1.845-55.666 3.691-81.998 0-.231 0-.231.231-.231h-.923c-12.688 42.269-25.606 101.631 7.382 138.125 1.615.693 3.23 1.386 4.614 2.079 1.845.924 3.229 1.386 4.383 1.848-12.688-17.323-17.763-38.804-19.378-59.823zm159.864-170.925c-.461 2.541-1.153 5.313-2.076 7.853.231 0 .231-.231.462-.231 56.517-9.932 124.569 6.699 172.321 38.112.923.462 1.615.693 2.537 1.155-17.532-10.856-33.679-25.177-51.673-35.109-.923.693-2.076-.231-2.076-1.155-37.371-19.864-78.202-24.484-118.572-10.394-.23 0-.692 0-.923-.231zm-3.69-50.122c3.229 9.239 5.075 18.709 5.536 28.41 32.296-1.848 62.746-12.935 89.967-30.72 13.149-8.546 25.375-18.478 37.14-29.103 9.689-9.009 21.223-18.479 26.759-30.721-43.599 39.267-103.346 51.971-159.402 62.134zm4.383 45.503c18.916-7.854 39.447-10.164 59.747-8.316 0-.231.23-.462.692-.693 39.447-18.709 69.897-48.043 89.967-85.924-4.383 6.006-10.15 11.087-15.456 16.4-11.996 11.549-24.914 22.405-38.755 31.644-28.144 19.171-60.901 32.106-95.273 33.03.231 4.619-.23 9.239-.922 13.859zm-15.456 38.804c53.518-7.622 113.727-11.087 166.785 4.851-20.301-9.702-41.293-17.786-63.439-22.636-30.219-6.699-59.055-6.237-89.505-5.544-.692 0-1.154-.462-1.384-1.155-2.999 8.777-7.152 17.093-12.457 24.484zm-55.595-116.413c.692-13.397.692-26.794-.231-40.422-3.23 10.856-4.614 21.712-4.152 33.03 1.615 2.31 2.999 4.851 4.383 7.392zm-3.691 163.302c1.384.231 2.768.231 4.152.462-1.153-.462-2.307-.924-3.46-1.155 0 .231-.231.462-.462.693h-.23zm-10.842 93.084c-.692 3.927-1.384 7.854-2.769 11.78 19.609 22.174 51.443 27.718 80.048 26.563 12.457-.462 24.914-2.31 37.371-4.62-40.831 3.927-84.892-4.85-114.65-33.723zm-7.844-279.715c7.152 13.628 16.379 24.484 20.301 39.728 3.46 13.859 3.691 28.411.461 42.269 4.152-1.386 8.074-2.771 11.303-4.85.462-29.566-11.072-56.821-32.065-77.147zm-6.228 88.465c7.151-1.617 15.686-3.234 23.76-5.544 3.23-16.168 3.23-32.106-1.614-48.043-3.23-9.933-8.997-18.017-13.841-27.025 7.843 26.563 3.921 55.666-8.305 80.612zm78.894 162.84c-23.991-15.707-49.597-25.408-77.51-31.413 3.23 5.774 5.767 11.549 8.074 17.785.231 0 .461 0 .692.231 46.598 21.712 93.658 44.117 137.488 71.373v-.231c-22.377-20.327-43.369-41.115-68.744-57.745zm-66.437-250.15c3.46 3.464 6.459 7.391 9.458 11.318a72.874 72.874 0 014.844-27.949c-4.613 5.544-12.687 8.777-14.302 16.631zm-32.988 96.087c2.537-2.079 5.536-3.696 8.766-5.313 2.307-.924 5.075-1.847 8.305-2.771 14.533-28.411 15.686-58.669 7.843-89.158v.462c-.461 16.399-2.999 32.568-7.613 48.043-4.613 15.245-17.07 32.799-17.301 48.737zm50.289 33.492c-13.841 18.478-36.679 30.489-56.056 42.038-1.154.693-2.307 0-2.538-1.155-.461 5.082-1.614 10.163-3.229 15.245 23.76-2.541 46.598-11.78 62.515-30.258 16.609-19.403 17.994-43.194 18.455-67.215-3.46 15.013-9.919 29.334-19.147 41.345zm-41.523-105.558c.231-15.244-12.688-17.323-20.07-26.1.231 1.155.231 2.31.462 3.465 1.845 17.785 2.537 35.57 1.845 53.356.692 1.848 1.384 3.695 1.846 5.543 0-6.929 2.307-13.166 5.767-19.402-.692-14.552-.462-26.794-8.997-39.497v-.231c0-.462.692-.693.923-.462 8.997 11.549 9.689 23.097 10.15 36.494 2.538-4.157 5.536-8.315 8.535-12.473-.461 0-.461-.231-.461-.693zm-9.458-55.204c-2.538-1.616-4.614-3.464-6.459-5.543-.462-.693-.923-1.155-1.384-1.848.461.693.922 1.155 1.384 1.848 5.305 6.467 10.15 12.704 13.61 20.788 4.383 10.163 6.459 21.019 8.305 31.875 4.152-6.929 7.151-14.32 6.92-22.636 0-.462.231-.924.462-1.155-5.306-10.394-12.919-16.399-22.838-23.329zm21.684 335.844c6.229-39.729-3.921-79.226-27.22-111.794-.231-.231-.231-.231 0-.462-1.615-.231-3.23-.231-4.845-.462 12.457 18.247 19.378 39.959 20.992 62.133.923 11.549.231 23.329-1.845 34.878-2.076 12.704-6.921 24.253-9.92 36.726 2.538-1.386 4.845-2.772 7.152-4.389 6.228-4.619 11.534-10.163 15.686-16.63zm-25.836-112.025c23.529 30.027 33.679 67.908 29.527 105.326a63.395 63.395 0 003.46-8.315c-.461-.693 0-1.386.693-1.617.692-2.309 1.153-4.619 1.614-6.929 6.229-32.568-10.381-62.826-30.219-87.31-.231-.231-.462-.693-.462-.924-1.615 0-2.999-.231-4.613-.231zm9.919-204.185c-3.691-10.163-10.381-17.555-15.687-26.563.693 11.318 1.385 22.405 1.846 33.723 4.152 4.389 10.381 6.929 14.764 11.549 3.691 3.927 5.305 8.546 5.998 13.397.23-.462.692-.924.922-1.386-.23-.231-.692-.462-.692-.924-2.076-10.163-3.691-20.095-7.151-29.796zM368.56 356.026c17.532-12.242 38.755-21.712 52.596-38.342 14.533-17.324 21.915-39.498 26.067-61.441-8.304 16.631-19.608 31.413-32.987 44.348-6.69 6.237-13.611 12.011-21.223 17.324-4.153 3.002-8.536 5.774-12.919 8.315a96.33 96.33 0 01-6.69 3.696c-1.384 1.386-2.998 1.847-4.613 1.616 0 .231 0 .462-.231.693-.231.462-.692.924-.923 1.386l-.692.693c1.384 7.392 1.846 15.245 1.154 22.636 0-.231.23-.693.461-.924zm-2.768-26.562c2.999-2.541 8.304-3.927 10.842-5.313 9.919-5.543 19.147-12.011 27.913-19.402 14.302-12.011 26.067-26.332 36.448-41.807-.923.693-1.615 1.386-2.538 1.848 0 1.385-1.153 1.847-2.076 1.616-19.377 24.022-58.594 23.098-73.588 52.664 1.153 3.695 2.307 6.929 2.999 10.394zm5.075-73.221c2.076 10.163 2.076 20.788.231 31.183.461-.462 1.153-1.155 1.845-1.617 0-.231-.231-.231-.231-.462-.692-15.014 9.689-29.104 14.533-42.731 5.306-15.245 8.766-30.721 10.843-46.658-7.844 20.326-29.297 35.34-26.76 59.361.231.693 0 .924-.461.924zm1.384 257.542c.923-10.625 5.536-20.326 7.843-30.72 2.538-11.78 3.691-24.022 3.23-36.033-.923-24.253-8.305-46.658-21.684-66.522-.693.231-1.615.231-2.077-.231h-1.153c8.766 45.041 17.993 94.932 4.383 139.742.692-.462 1.615-1.155 2.537-1.848 2.077-1.385 4.383-2.771 6.921-4.388zm12.457-231.21c-12.688 6.236-19.608 17.785-22.838 30.951 13.611-24.022 45.676-28.41 67.591-44.348-4.383 1.617-8.766 3.003-12.688 3.927-11.073 3.003-22.146 4.619-32.065 9.47zm-29.066 23.098c1.845-33.954 1.615-67.677-18.916-96.549-.231-.231-.231-.693.23-.924-4.844-4.851-9.227-9.932-12.457-16.169.231 1.155.231 2.31.231 3.465 6.921 14.321 13.61 27.948 15.917 44.117 2.307 16.399 1.154 32.799 0 49.198 4.614 3.927 8.997 8.316 12.688 13.397.692.924 1.615 2.31 2.307 3.465zm1.384 217.12c-3.922-47.351-6.229-94.932-9.458-142.283h-5.537c.231.231.231.693.231.924-5.075 23.791-5.075 49.66-4.383 74.144.923 24.253 5.767 46.658 18.916 67.215h.231zm-8.305-365.871c.462-25.176 1.846-50.122 1.384-75.299-.461-20.788-1.845-41.576-3.229-62.133-.231-.924-.692-1.848-.923-2.772-.461.924-.692 2.08-1.153 3.003-7.844 48.736-8.766 95.856-2.307 144.824.692.693 1.384 1.617 2.307 2.31v-.231c0-3.927.922-6.006 3.691-8.778 0-.693.23-.924.23-.924zm-3.46 10.394c3.691 4.158 7.151 8.085 9.689 12.935 0-10.163 1.614-20.326 5.305-29.796-.692.693-1.384 1.617-2.306 2.31-2.077 1.848-4.383 3.464-6.46 5.312 0 .924-.692 1.155-1.384 1.386-1.845 1.848-3.229 4.158-3.46 6.93 0 .693-.692.923-1.384.923zm10.15 60.979c-3.691-5.313-8.305-10.163-12.918-14.552 19.839 27.487 18.224 64.212 15.917 96.78 0 .231.231.231.231.231 1.614-6.467 4.383-12.242 7.843-17.323v-.231c5.306-22.405 2.076-45.734-11.073-64.905zm-7.382-30.489c2.076-2.541 4.383-4.851 6.459-7.392-1.384-12.01-10.15-18.94-17.762-27.255 6.689 10.394 10.842 22.174 11.303 34.647zm14.072 171.617c8.305-30.951-3.23-64.905-30.22-83.383-4.152-2.772-11.303-6.237-19.377-10.394 28.835 21.712 46.598 58.668 49.597 93.777zm-3.691-178.778c-3.922 9.009-7.151 16.862-7.382 26.563 1.846 2.079 3.691 4.158 5.306 6.467-1.384-12.242-.231-24.021 3.921-35.57-.692.924-1.384 1.616-1.845 2.54zm-3.691 4.389c-2.076 2.31-4.383 4.62-6.459 6.929v.231c0 .924-.692 1.386-1.384 1.155-1.384 1.617-2.999 3.465-4.383 5.313 2.307 2.079 4.383 4.388 6.69 6.467.461-6.929 2.076-14.09 5.536-20.095zm-2.768-41.345c4.383-4.158 8.535-7.623 12.226-12.935.692-1.155 2.307-.924 2.768.231 1.846 6.005 5.998 9.701 10.842 12.935-1.384-42.038-13.841-82.69-26.759-122.65 4.152 40.421 4.844 82.228.923 122.419zm10.381-122.42c-2.999-3.464-5.768-6.928-8.074-10.624 5.536 11.318 14.071 21.25 20.069 32.106 6.459 11.78 11.996 24.253 16.379 37.188 8.996 27.024 14.533 57.744 11.303 86.155 0 .924-.692 1.386-1.384 1.386.462 1.154 1.154 2.309 1.615 3.695 1.384 1.155 2.537 2.31 3.922 3.465.23-1.386.692-2.541 1.845-3.927 1.384-2.079 3.23-3.464 5.075-4.85 3.23-2.772 10.15-8.547 9.228-14.09-.231-1.617 1.153-2.541 2.537-2.079 6.69 3.003 12.457 7.161 17.763 12.242 1.384-54.973-46.368-92.392-75.895-134.199-.231-.462.23-.924.692-.924-1.615-1.617-3.23-3.233-4.845-5.081 0 0-.23 0-.23-.231v-.231zm2.998 12.012c-6.459-10.625-14.302-20.095-16.609-32.337-.23-.231-.23-.693-.461-.924.461 3.696.923 7.16 1.384 10.856 8.305 21.25 14.994 42.962 20.762 64.905 5.997 22.867 11.303 46.427 10.38 70.218v.23c3.23 2.079 6.459 4.158 9.458 6.699 3.691 3.234 6.46 7.16 8.766 11.087-.692-30.027-3.229-58.669-13.149-87.31-5.536-15.014-12.226-29.796-20.531-43.424zM353.335 380.51c-.231 0-.692.231-.923 0h-2.076c3.23 47.12 8.535 94.932 8.074 142.052.692-.231 1.384-.462 2.076-.924 10.612-47.581 3.691-93.084-5.075-140.435-.923.231-1.845 0-2.076-.693zm-94.581-170.462c-2.076-3.696-3.921-7.392-5.305-11.318-40.14-18.71-79.125-28.411-123.878-27.718-.231 0-.461 0-.461-.231-9.689 2.541-19.378 5.775-29.067 8.546 53.519.693 110.037 6.006 153.406 40.191 1.384-3.003 3.229-6.237 5.305-9.47zm-.922 115.489c-.231-2.772-.462-5.543-.692-8.546-.231 0-.462-.231-.693-.462-16.839-24.484-22.376-54.511-19.146-83.614-11.304 33.953-3.23 65.367 20.531 92.622zm-31.143 62.826c17.532-8.777 37.14-13.165 56.749-14.551-46.368-.693-92.736-1.617-139.103-3.465-44.292-1.617-89.967-2.079-133.336-13.397l-2.768.693 1.384.693c34.142 13.397 69.206 21.943 105.884 25.639 36.679 3.695 73.358 2.31 110.267 3.695.462.462.693.693.923.693zm32.296-107.636c-.692.462-1.384.462-1.845-.462-8.536-16.399-14.995-34.185-16.379-52.663-.231-.231-.461-.693-.692-.924-2.768 30.258.231 60.286 16.84 86.155 0-8.084.692-16.168 1.153-23.791.462-2.771.692-5.543.923-8.315zm269.67 216.427c-42.677-3.695-85.353-24.252-117.649-50.815.461 5.082.461 10.394 0 15.707 33.68 30.027 74.28 36.956 117.649 35.108zm9.458-21.481c-16.379-56.589-63.669-95.856-123.185-98.628-.692 0-1.154-.231-1.615-.693h-.231c-.923-.231-2.307-.231-3.229-.693-5.998 2.079-12.457 3.465-18.917 4.158 31.374 4.158 60.209 12.011 86.276 31.875 27.452 20.788 48.213 48.506 65.053 78.071-.692-4.851-2.768-9.47-4.152-14.09zm3.922 20.557c-44.984-22.866-89.044-46.888-134.72-68.138 1.615 4.85 2.768 9.932 3.46 15.244.462-.231 1.154-.231 1.615.231 38.294 31.413 81.201 45.734 129.645 52.663zm-4.153-10.625c-17.301-25.869-35.986-51.046-60.67-69.986-28.604-21.943-60.208-29.104-95.272-33.261 4.844 6.236 9.458 12.704 13.61 19.633h.231c54.441 6.236 104.961 43.886 142.101 83.614zm-73.819-245.53c5.768-6.468 10.381-13.397 9.92-22.867 0-1.617 2.076-2.541 3.229-1.386a89.161 89.161 0 0113.149 22.636c28.375-6.467 57.21-10.856 84.892-20.326 26.529-9.008 51.212-21.943 73.589-38.805-.923.231-1.615.462-2.307.693-56.287 30.49-119.725 31.875-182.702 33.261 1.845 9.008 1.845 18.017.23 26.794zm98.503-68.832c-35.064-4.158-70.359.462-101.502 17.555a445.4 445.4 0 01-.692 6.005c54.673-26.794 118.803 4.158 175.782-12.935-24.222 2.541-49.597-7.853-73.588-10.625zm9.227 174.851c-44.753.231-89.275 4.389-133.566 11.318-4.383 4.851-9.458 9.008-14.995 12.242 43.6 15.707 90.429 12.935 135.873 8.315 47.06-4.619 92.505-11.549 138.18-24.022-20.3-1.385-40.6-4.619-61.131-6.005-21.454-1.386-42.907-2.079-64.361-1.848zm-114.65-159.606c2.999-37.881-11.073-75.53-37.371-103.248-15.225-16.168-34.372-28.64-50.058-44.117 19.377 21.02 38.062 43.655 55.133 66.753 15.456 20.557 23.53 44.117 21.223 69.987 4.152 4.85 7.613 10.163 10.611 15.937 0-.693.231-1.386.231-2.31-.461-.462-.692-.923-.692-1.385 0-.693.461-1.386.923-1.617zm96.887 3.464c-31.834-2.54-62.515-3.695-92.966 8.085-.692.231-1.153 0-1.384-.231 1.615 3.926 2.769 8.315 3.922 12.473 31.604-1.617 63.208-1.617 94.581-5.544 22.607-2.772 44.291-8.546 65.283-16.63-22.837 5.081-46.367 3.464-69.436 1.847zm-93.427 192.175c13.149 5.081 25.375 12.242 36.448 21.481.231-.231.692-.231.923-.231 35.756 5.081 72.204 3.003 107.268-6.006 32.065-8.315 60.44-22.866 88.583-39.959-41.754 15.938-88.352 19.402-132.413 23.791-33.91 3.465-67.821 6.005-100.809.924zm16.84-51.97c-7.382 9.008-17.071 16.861-28.605 22.174 39.909-6.237 80.048-9.471 120.417-9.933 36.449-.461 75.665-.23 112.344 5.775-30.912-12.935-62.516-21.019-96.196-23.329-36.217-2.541-71.973 1.155-107.96 5.313zm-21.454-60.748c-.461.462-1.153.462-1.614.231 1.614 8.777 2.768 17.555 3.229 26.332l.231-.231c7.843-9.932 14.764-19.402 17.301-32.106 2.307-11.549 1.846-23.329.923-35.109-1.153 15.245-8.766 30.489-20.07 40.883zm-4.152-12.011c.692 3.234 1.615 6.699 2.076 9.932 8.997-9.701 14.764-20.095 18.224-32.337-5.305 8.085-13.61 14.552-20.3 22.174.231.231.231.231 0 .231zm4.614-9.701c3.691-31.875-12.457-57.514-29.528-82.921-.461-.231-.692-.462-1.153-.693 0 .462-.231.924-.231 1.386l.231.231c18.685 26.1 23.76 60.747 16.378 91.698 2.077-2.54 3.461-5.543 3.691-9.008.231-2.079 2.999-2.541 3.691-.462l1.384 5.544c1.615-2.079 3.461-3.927 5.537-5.775zm3.229-37.187c-1.153-5.313-3.229-10.395-5.997-15.938-5.537-10.856-12.688-20.557-22.377-27.256 16.84 22.405 31.143 48.737 28.144 77.378.692-.692 1.384-1.154 1.845-1.847.462-10.625.692-20.096-1.153-29.566-1.154-.231-1.384-1.848-.462-2.771zm-2.076 90.081c0 8.085-.692 15.938-2.537 23.791 32.988-21.712 33.91-63.288 23.068-98.397 2.307 13.166 2.538 27.256-.231 40.421-2.998 13.166-10.842 23.56-19.377 33.723-.231.231-.461.462-.923.462zm22.607-74.375c14.533 36.033 10.15 82.229-26.298 102.786-2.307 7.622-5.767 15.013-10.38 21.943-.231.462-.462.693-.693 1.155 21.915-10.856 39.217-27.949 47.521-51.509 2.999-8.777 4.383-18.016 4.383-27.024-1.153-.462-1.153-2.31 0-3.003-1.153-15.707-6.228-31.182-14.533-44.348zm-29.989 101.4c6.459-21.712 3.691-45.041-1.384-67.215-.23 2.079-.692 3.927-.923 6.005 2.538 27.718.923 57.052-17.993 78.995-16.148 18.71-40.6 29.566-65.053 31.182-.461 0-.692 0-.923-.231 0 .231 0 .231-.23.462h.23c25.606 2.079 53.058-2.54 70.82-21.25 0-.462.462-1.155 1.154-1.155 2.768-3.002 5.075-6.236 7.151-9.932 2.999-5.312 5.306-10.625 7.151-16.168-.23-.462 0-.462 0-.693zm-167.246-70.68c-1.615-1.386-2.999-3.002-4.152-4.619 6.92 24.714 31.604 40.421 46.829 60.285 14.533 19.171 24.452 41.114 29.989 64.212h3.46c-.461-22.867-6.921-45.041-18.916-64.674-11.996-19.864-28.374-33.261-47.29-46.196h-.231c-3.922-1.616-7.382-5.081-9.689-9.008zm7.151 113.873c-6.228-3.003-11.765-6.698-16.609-11.549h-.692c-41.754-8.084-83.738-13.166-126.184-13.859-41.062-.693-81.432 3.465-122.263 8.084-.461 0-.923-.23-.923-.692-2.768 1.154-5.305 2.078-8.074 3.002 44.292 8.085 88.814 9.701 133.797 11.318 47.06 1.617 93.889 3.003 140.948 3.696zm-14.071-122.881c-1.846-3.696-2.307-7.391-1.384-11.549h-.231c-8.766 61.21 26.99 111.101 77.971 140.666-6.92-27.717-19.839-53.356-39.216-74.375-14.995-16.63-34.372-31.644-37.14-54.742zm19.839 236.985c-16.379 15.244-36.679 25.407-59.056 28.41-27.913 3.927-53.288-5.082-78.663-15.476-1.384-.462-2.076-2.079-.923-3.233 13.38-13.397 15.456-31.875 20.762-49.199-33.911 1.617-66.207-8.777-94.12-27.717-5.075-3.465-9.919-6.93-14.533-10.625l-2.768-1.386c-.461-.231-.461-.693-.23-.924-21.223-16.4-41.062-33.954-65.284-45.734-1.615-.924-1.384-3.696.461-4.158.923-.231 1.615-.462 2.538-.462.23-.231.461-.693.923-.462.23 0 .46 0 .692.231 35.756-8.084 62.515-35.108 94.58-51.739-43.368-19.633-38.063-79.226-53.75-116.875-.46-1.386.923-3.003 2.077-3.003 21.684 2.079 41.523-4.85 61.823-11.318 14.995-4.619 30.22-8.315 45.906-9.932 31.604-3.696 63.669 0 92.274 14.321-2.307-25.408 5.306-52.202 17.994-73.452 9.919-16.63 23.299-29.796 37.832-42.269 18.455-15.475 38.755-31.644 41.523-57.282.231-2.08 2.999-2.541 3.691-.462a83.294 83.294 0 0013.61 24.252c20.301 25.87 53.058 42.27 72.435 69.294 18.455 25.639 28.144 56.821 26.298 88.234 25.837-14.783 55.364-19.864 84.892-18.709 15.917.693 31.604 3.233 47.29 6.929 20.762 4.851 42.216 10.163 62.055-.231 1.384-.693 3.46.231 3.46 1.848-3.922 44.348-9.458 90.775-38.755 126.114 10.15 5.775 19.839 12.242 29.297 19.403 16.84 12.472 33.218 25.176 54.211 29.796 1.614.462 2.076 2.541.922 3.696-13.379 14.089-22.607 31.644-35.756 45.964-11.073 12.011-23.991 22.405-38.063 30.952-28.835 17.554-62.285 27.024-96.195 25.638 5.306 13.628 7.843 28.18 14.994 40.652.462.924 0 2.541-1.153 2.772-44.061 9.008-109.114 21.943-142.102-18.247-1.845 5.312-4.383 10.394-7.612 15.014 0 .23 0 .462-.231.692-.231.693-.692.924-1.153.924-.462.693-.923 1.386-1.615 2.079-10.15 12.704-26.298 17.324-37.371 29.104-.461.462-1.615.692-2.307.231-14.764-10.164-33.68-12.242-47.29-24.253-6.229-5.544-10.381-12.473-13.38-20.095 0 .462 0 .462-.23.693zm27.682-436.782C287.821 85.32 251.603 137.29 277.67 189.49l5.537-4.157c1.615-.924 2.768.924 2.307 2.31-1.615 3.926-1.384 7.853.23 11.78 1.615-6.006 4.383-11.78 7.844-16.862-13.38-21.712-7.613-51.508-.692-74.375 6.459-21.481 16.84-42.27 30.681-60.055zm-31.604 400.98c-16.84 14.09-33.911 28.179-54.211 36.725-20.531 8.778-43.138 11.549-65.514 10.394 41.523 12.704 86.506 5.313 120.186-23.328.231-.231.462-.231.462-.231-.462-2.079-.692-3.927-.923-6.006-.462-5.774-.462-11.549 0-17.554zm-28.836-104.634s0-.231-.23-.231c-2.307-4.85-3.691-10.163-4.614-15.475-.231 0-.461 0-.692-.231-27.913-22.867-35.525-64.443-21.915-97.011-20.762 39.497-15.917 91.698 27.451 112.948zm.462-88.234c0-.231-.231-.462-.231-.693-2.538-11.318-13.61-17.092-20.762-25.638 3.922 16.861 8.766 32.799 16.84 48.505.692-7.622 2.077-15.013 4.153-22.174zm11.765-22.174c.23-.693 1.153-.462 1.153.231.231 6.699 2.999 12.242 6.921 17.093-.923-6.237.23-11.78 2.537-17.324-6.459-12.01-8.766-25.869-5.998-39.266-4.844 12.704-6.459 25.408-5.075 39.266h.462zm-41.985 251.074c22.376-8.777 41.062-24.483 59.055-39.728 1.384-10.394 4.153-20.788 8.766-30.258-37.14 36.033-84.661 64.212-134.027 79.226 22.376.462 44.983-.924 66.206-9.24zm33.68-280.408c-6.921 8.546-12.226 18.247-16.379 29.103 2.999 2.772 6.229 5.544 8.997 8.316-1.384-12.704 1.384-25.87 7.382-37.419zm-2.768 62.364c-2.076 46.658 18.224 87.772 61.592 109.484 7.152.693 14.072.924 20.993.693-46.137-28.179-87.199-79.456-75.203-136.277-3.23 8.546-5.537 17.092-7.382 26.1zm1.153-16.399c1.846-5.544 4.152-10.856 7.151-15.938-2.076-13.396-.461-27.255 4.845-39.497-.231 0-.231-.231-.462-.462-.461.462-.922.693-1.153 1.155-10.381 14.783-14.533 30.72-13.38 49.198v.231c.923 1.617 2.076 3.234 2.999 5.313zm-.461 90.313c9.458 22.405 30.45 31.413 52.827 34.646-31.835-17.785-54.211-51.508-56.287-87.772v1.155c-1.385 16.862-2.999 36.033 3.46 51.971zm4.844 14.32a37.164 37.164 0 01-4.844-6.929c-8.997-3.465-16.379-8.084-22.607-13.859-.462.462-.923.924-1.846.693-32.526-7.853-63.899-14.321-97.579-13.397-32.527.924-63.9 7.854-94.811 18.248-6.69 4.157-13.61 8.084-20.762 11.318 78.663-16.631 164.247-12.935 242.449 3.926zm5.306-163.533c-23.53-45.965-.231-95.163 32.757-130.272-8.305 6.93-16.379 13.859-23.299 21.712-14.302 16.169-25.145 35.802-29.989 57.052-5.306 23.329-1.615 45.503 5.306 67.908 4.152-6.006 9.458-11.549 15.225-16.4z" fill="#FCEEAA"/></svg>