<svg width="398" height="298" fill="none" xmlns="http://www.w3.org/2000/svg"><path d="M205.821 81.194c0 .391 0 .652.13 1.043.13 0 .26 0 .39.13.26.392.521.652.781 1.044-.521-.652-.911-1.304-1.301-2.217zm-.91 1.043v.13c-2.471 7.17-3.772 14.21-3.381 21.641.13.13.26.13.26.261.78-1.174 1.43-2.477 1.82-3.911.26-.782 1.301-1.043 1.691-.261.13.13.26.391.26.522-.13-5.997-.39-12.255-.65-18.382.13 0 0 0 0 0zm.52 50.842c.13-9.777-.13-19.555-.65-29.332 0-.26.13-.391.26-.391-.13-.13-.26-.261-.26-.391-.13.261-.26.522-.39.913.13 0 .26.13.13.391-2.471 7.691-3.251 15.513-1.951 23.595v.261c.91 1.434 1.951 3.259 2.861 4.954zm-19.767-45.497c-1.951 5.867-3.381 11.342-4.031 17.338 0-.13.13-.13.13-.26.39-.913 1.56-.913 1.95 0 .911 2.346 2.081 4.432 3.512 6.257.13-7.952-.261-15.513-1.561-23.335zm-4.682 23.074c-4.681 13.428-7.152 26.464-6.242 40.934v.261c2.341 1.173 4.682 2.347 6.633 3.52.91-15.252.78-30.505.39-45.888 0-.13-.13-.391-.13-.521-.13.13-.13.26-.26.391-.131.261-.131.391-.261.652v.26c.13.131 0 .391-.13.391zm2.991-22.161c-6.372 9.255-10.793 19.424-13.004 30.374 3.381-3.519 6.762-7.039 8.973-10.82 0-6.909 1.561-14.21 4.682-20.337-.26.392-.521.652-.651.783zm-16.255-29.593c-4.162 13.297-7.543 29.202-1.041 42.108.521-.652.911-1.174 1.431-1.826 2.081-2.346 4.551-4.302 7.152-6.257-3.771-22.162-.91-45.757 8.844-66.094-6.893 9.777-12.745 20.337-16.386 32.07zm-5.202 55.665c.65-3.389 4.291-7.821 5.592-9.777 3.771-5.214 8.323-9.647 13.004-13.949.13-.26.261-.39.391-.651a55.091 55.091 0 00-4.422 3.259c0 .651-.65 1.042-1.17.912-6.243 5.084-11.054 11.211-14.175 19.294.26.13.52.521.78.912zm9.883-13.036c-1.69 2.086-10.013 11.733-8.323 14.861.13.131.13.261.13.522 1.431 1.695 2.992 3.389 4.292 4.823.26-.26.39-.521.65-.651 1.431-9.517 4.682-18.382 9.624-26.464-2.341 2.216-4.422 4.432-6.373 6.909zm11.574 115.502c-10.923 11.602-18.076 26.724-17.296 43.02.39 8.343 2.991 17.077 9.364 22.683 2.601 2.346 5.592 3.911 8.713 5.214-19.767-17.077-13.265-50.581-.781-70.917zm-12.874-95.296c-4.812 7.431-7.413 15.644-5.202 25.16a48.76 48.76 0 007.153 4.172c-1.171-12.645.52-26.073 5.462-37.805-2.211 2.998-4.812 5.736-7.413 8.473zm-5.202 6.388c-2.991 4.302-5.072 8.995-4.682 14.862.911.912 1.821 1.825 2.861 2.607-1.04-6.127-.26-11.994 1.821-17.469zm-3.771 1.956c1.3-2.347 3.121-4.694 4.941-6.91-3.381-3.911-7.802-8.343-8.452-13.297-.781 7.04.26 13.819 3.511 20.207zM93.201 276.869l-.78 1.174c30.171-10.82 56.18-26.594 79.588-48.365 2.471-4.302 5.462-8.343 8.973-11.863-34.462 11.993-63.072 32.46-87.78 59.054zm4.422-8.343c15.215-28.94 43.435-52.536 76.337-56.186l-1.951-.391c-21.587 1.043-44.345 4.432-59.431 21.379-7.152 8.083-9.753 17.469-12.484 27.637-.65 2.607-1.56 5.084-2.471 7.561zm68.014-.391c-19.507 16.295-47.727 21.64-71.265 11.342-.65 0-1.43-.131-2.08-.131 11.833 4.824 24.058 9.126 37.192 8.213 13.525-1.043 26.009-6.779 35.893-15.904a.998.998 0 011.3-.13c-.52-1.174-.78-2.347-1.04-3.39zM78.247 94.622c21.587-.913 44.735 3.91 63.722 14.34-.781-2.477-1.431-5.084-1.821-7.822-.26.13-.65.13-.91-.13-17.947-9.256-38.364-10.56-58-7.17-1.041.39-1.951.651-2.992.782zm17.945 177.033c-.13.391-.39.782-.52 1.173.39-.391.65-.782 1.04-1.173 22.629-26.594 54.23-46.018 87.131-56.578.391-.391.911-.782 1.301-1.173-2.861-.261-5.592-.521-8.323-1.043 0 .391-.26.782-.78.913-36.543 2.998-60.342 29.071-79.328 57.881-.13.13-.39.13-.52 0zM49.376 233.85c15.475 10.038 32.642 15.252 51.498 15.513.13-.261.13-.522.26-.652.78-2.347 1.691-4.563 2.861-6.649-18.596.913-37.323-1.564-54.619-8.212zm74.256-70.918c-23.148-7.17-50.848.13-71.265 11.993-.91.522-1.95 1.174-2.861 1.695 22.758-11.602 51.888-14.079 75.947-6.518.26.13.52.261.65.521a41.054 41.054 0 01-1.561-7.952c-.26.391-.52.391-.91.261zm116.911-66.876c.911 7.822 1.171 15.774.521 23.726 0 .13-.13.261-.13.391a59.354 59.354 0 016.242 25.681c4.031-17.599 1.3-34.155-6.633-49.798zm-171.79 68.571c-12.355-5.867-23.409-14.731-31.601-25.942 3.25 12.775 8.453 24.377 21.067 30.374.39-.261.91-.391 1.3-.652 2.992-1.303 6.113-2.607 9.234-3.78zm-16.126-62.705c-4.552 1.304-8.973 2.347-13.655 2.868 31.211 2.216 63.333 14.079 88.692 32.2a55.466 55.466 0 016.502-13.036c.52-.783 1.56-.522 1.821.26.91 2.607 2.6 4.563 4.421 6.388.39-1.825.91-3.52 1.691-5.214-.13 0-.26-.131-.39-.261-25.489-20.207-58.131-21.38-89.082-23.205zM25.967 215.99c5.983 4.823 11.965 9.647 18.207 14.209 19.377 7.561 39.664 11.342 60.602 9.908 1.82-3.129 3.901-6.127 6.372-8.865-27.96 4.302-60.211-1.434-85.18-15.252zm5.853-27.637c31.6-11.863 71.005-13.949 102.606-2.216-3.901-4.302-6.632-9.517-8.323-14.992 0-.13 0-.13-.13-.261 0 .131 0 .131.13.261.13.652-.39 1.434-1.3 1.304-28.09-6.649-53.97-4.042-80.239 7.952-.26.13-.39 0-.52-.131-4.031 2.608-8.063 5.476-12.224 8.083zm-2.211-81.999c21.718 32.852 58.52 42.238 94.153 53.058.52.131.65.652.52 1.043h.13a78.49 78.49 0 010-7.822h-.39c-33.942-9.646-66.713-25.681-94.543-47.582h-.39c.26.521.39.912.52 1.303zm3.251 12.385c11.314 19.554 29.91 32.069 50.848 40.543.26.13.52.391.52.652 8.843-1.956 17.947-2.738 26.79-1.956-30.301-7.952-62.682-20.727-80.109-47.452a93.907 93.907 0 011.951 8.213zm2.731-13.688c-1.43.13-2.86.13-4.422.13 28.87 20.076 59.562 35.72 93.243 46.018 0 0 .13 0 .13.131.391-4.172 1.301-8.343 2.601-12.254-28.35-18.251-57.87-28.811-91.162-33.373-.39-.261-.39-.391-.39-.652zm46.426 55.535c-18.986-7.953-37.583-19.555-48.116-37.415.91 4.302 1.69 8.604 2.73 12.776 9.364 11.863 20.548 21.249 34.333 27.898 3.38-1.304 7.152-2.347 11.053-3.259zM61.6 217.815c-16.906-1.956-33.942-5.475-49.677-11.993 3.38 2.216 6.632 4.562 9.753 6.909 14.305 6.648 28.74 12.384 44.346 15.252 15.735 2.868 31.21 2.607 46.946 1.174.651-.652 1.431-1.304 2.081-1.956 3.121-2.738 6.372-5.084 9.884-7.04-20.808.913-42.395.131-63.333-2.346zm277.258-54.492c3.251 1.304 6.372 2.868 9.363 4.563 12.225-16.165 16.906-35.589 19.377-55.274-4.161 19.554-16.256 37.284-31.991 49.538 1.04.391 2.081.782 3.251 1.173zm-22.628-5.997c5.852.783 11.574 2.086 17.166 4.042 18.987-14.21 29.521-34.286 34.202-57.099-9.493 23.204-28.48 42.759-51.368 53.057zm-15.085 97.773c19.637-.391 38.753-5.736 55.269-16.296a95.88 95.88 0 0021.848-19.163c3.771-4.563 7.022-9.516 10.534-14.34-24.059 25.03-58.781 38.718-93.243 39.37a68.286 68.286 0 014.421 7.952c.39.912.781 1.695 1.171 2.477zm83.749-47.713c-29.26 19.554-68.014 26.333-102.216 22.031.26.261.65.522.911.913 4.161 3.911 7.802 8.213 10.923 13.036.13-.391.391-.652.911-.652 33.552-.782 64.242-13.818 89.471-35.328zm-192.208 83.693c-7.412-7.822-9.883-19.163-10.403-29.723-.78-15.774 1.43-32.46 7.152-47.191h-1.56c-14.435 20.597-21.848 55.274-1.171 74.437.13.13.13.261.13.391 1.951.652 3.902 1.434 5.852 2.086zm-.39-174.556c.651-1.304 1.561-2.477 2.471-3.65-.52-8.865-3.121-16.426-7.933-23.727 1.951 7.562 2.601 15.514 1.691 23.205v.131c1.17 1.434 2.471 2.737 3.771 4.041zm-1.95 44.584c.52-8.343 1.04-16.686.13-25.03-.911-8.082-4.292-14.861-7.023-22.031.911 14.079.52 28.289-.39 42.238 2.601 1.564 5.072 3.128 7.283 4.823zm-3.512-76.914c1.301 2.216 2.861 4.302 4.682 6.127-4.161-24.9-3.901-51.102.91-76.002-.13.13-.26.391-.26.522-13.394 23.595-19.246 49.929-15.215 76.914 3.121-2.216 6.242-4.563 8.323-7.692.26-.39 1.17-.521 1.56.13zm2.471 176.511c-1.17-15.122-1.04-31.417 2.081-46.279 0-.13 0-.13.13-.13h-.52c-7.153 23.857-14.435 57.36 4.161 77.957.911.391 1.821.782 2.601 1.174 1.041.521 1.821.782 2.471 1.042-7.282-9.777-10.013-21.901-10.924-33.764zm89.992-96.468c-.26 1.434-.65 2.998-1.17 4.432.13 0 .13-.13.26-.13 31.861-5.606 70.225 3.78 97.144 21.51.52.26.91.391 1.431.651-9.884-6.127-18.987-14.209-29.131-19.815-.52.391-1.17-.13-1.17-.652-21.068-11.211-44.086-13.818-66.844-5.866-.13 0-.26-.13-.52-.13zm-2.081-28.419a56.515 56.515 0 013.121 16.034c18.207-1.043 35.373-7.3 50.718-17.338 7.413-4.824 14.305-10.429 20.938-16.426 5.462-5.084 11.964-10.429 15.085-17.338-24.579 22.292-58.13 29.462-89.862 35.068zm2.601 25.811c10.664-4.432 22.238-5.736 33.682-4.693 0-.13.13-.26.39-.391 22.238-10.559 39.404-27.115 50.718-48.495-2.471 3.39-5.722 6.258-8.713 9.256-6.762 6.518-14.045 12.645-21.848 17.86-15.865 10.82-34.332 18.12-53.709 18.642 0 2.607-.13 5.214-.52 7.821zm-8.843 21.901c30.171-4.302 64.113-6.257 94.023 2.738-11.444-5.475-23.278-10.038-35.762-12.776-17.036-3.78-33.292-3.519-50.458-3.128-.39 0-.65-.261-.78-.652-1.691 4.954-4.032 9.647-7.023 13.818zm-31.211-65.703c.39-7.561.39-15.122-.13-22.813-1.821 6.127-2.601 12.254-2.341 18.642.781 1.303 1.691 2.737 2.471 4.171zm-2.211 92.167c.781.131 1.561.13 2.341.261-.65-.261-1.3-.522-1.951-.652 0 .13-.13.261-.26.391h-.13zm-6.112 52.536c-.39 2.217-.78 4.433-1.56 6.649 11.054 12.515 29 15.644 45.126 14.992 7.022-.261 14.045-1.304 21.067-2.608-22.888 2.217-47.727-2.737-64.633-19.033zm-4.421-157.869c4.031 7.691 9.233 13.818 11.444 22.422 1.95 7.822 2.08 16.035.26 23.857 2.341-.783 4.551-1.565 6.372-2.738.39-16.686-6.242-32.069-18.076-43.541zm-3.382 49.929c4.032-.913 8.844-1.825 13.395-3.129 1.821-9.125 1.821-18.12-.91-27.115-1.821-5.606-5.072-10.169-7.803-15.253 4.292 14.992 2.081 31.418-4.682 45.497zm44.346 91.906c-13.525-8.865-27.96-14.34-43.695-17.73 1.82 3.26 3.251 6.519 4.551 10.038.13 0 .26 0 .39.131 26.27 12.254 52.799 24.899 77.508 40.282v-.13c-12.615-11.472-24.449-23.335-38.754-32.591zM230.66 105.312c1.951 1.955 3.641 4.171 5.332 6.387a41.168 41.168 0 012.731-15.774c-2.601 3.13-7.153 4.954-8.063 9.387zm-18.727 54.231c1.431-1.174 3.121-2.086 4.942-2.999 1.3-.521 2.861-1.043 4.682-1.564 8.193-16.035 8.843-33.112 4.421-50.32v.26c-.26 9.256-1.69 18.382-4.291 27.116-2.601 8.604-9.494 18.512-9.754 27.507zm28.48 18.902c-7.802 10.429-20.677 17.208-31.601 23.726-.65.391-1.3 0-1.43-.651-.26 2.868-.911 5.736-1.821 8.604 13.395-1.434 26.269-6.649 35.242-17.078 9.364-10.951 10.144-24.378 10.404-37.936-1.951 8.474-5.722 16.556-10.794 23.335zm-23.538-59.576c.13-8.604-7.152-9.777-11.314-14.731.13.652.13 1.304.26 1.956 1.041 10.038 1.431 20.076 1.041 30.114.39 1.043.78 2.085 1.04 3.128 0-3.911 1.3-7.43 3.251-10.95-.39-8.213-.26-15.122-5.072-22.292v-.131c0-.26.39-.391.52-.26 5.072 6.518 5.462 13.036 5.722 20.597 1.431-2.347 3.122-4.693 4.812-7.04-.13 0-.26-.13-.26-.391zm-5.202-31.156a17.074 17.074 0 01-3.641-3.13c-.26-.39-.52-.651-.78-1.042.26.391.52.652.78 1.043 2.991 3.65 5.722 7.17 7.673 11.733 2.471 5.735 3.641 11.863 4.681 17.99 2.341-3.911 4.032-8.083 3.902-12.776 0-.261.13-.521.26-.652-3.121-5.866-7.283-9.256-12.875-13.166zm12.094 189.548c3.512-22.423-2.21-44.715-15.345-63.096-.13-.131-.13-.131 0-.261-.91-.13-1.821-.13-2.731-.261 7.023 10.299 10.924 22.553 11.834 35.068.52 6.518.13 13.167-1.04 19.685-1.171 7.17-3.901 13.688-5.592 20.728 1.43-.783 2.731-1.565 4.031-2.477 3.642-2.608 6.503-5.736 8.843-9.386zm-14.435-63.357c13.265 16.947 18.987 38.327 16.646 59.446a35.82 35.82 0 001.951-4.693c-.26-.392 0-.783.39-.913.39-1.304.65-2.607.91-3.911 3.512-18.381-5.852-35.459-17.036-49.277-.13-.131-.26-.391-.26-.522-1.04 0-1.82 0-2.601-.13zm5.592-115.11c-2.08-5.737-5.852-9.908-8.843-14.992.39 6.387.781 12.645 1.041 19.033 2.34 2.477 5.852 3.911 8.323 6.518 2.08 2.216 2.991 4.823 3.381 7.561.13-.261.39-.522.52-.782-.13-.131-.39-.261-.39-.522-1.171-5.736-2.081-11.341-4.032-16.817zm-7.022 101.683c9.883-6.91 21.848-12.254 29.65-21.641 8.193-9.777 12.355-22.292 14.696-34.676-4.682 9.386-11.054 17.729-18.597 25.029-3.771 3.52-7.673 6.779-11.964 9.778-2.341 1.694-4.812 3.259-7.283 4.693a54.435 54.435 0 01-3.771 2.086c-.78.782-1.691 1.043-2.601.912 0 .131 0 .261-.13.391-.13.261-.39.522-.52.782l-.39.392c.78 4.171 1.04 8.603.65 12.775-.13-.261 0-.391.26-.521zm-1.561-14.992c1.691-1.434 4.682-2.216 6.112-2.998 5.592-3.129 10.794-6.779 15.736-10.951 8.063-6.779 14.695-14.861 20.547-23.596-.52.391-.91.782-1.43 1.043 0 .782-.65 1.043-1.171.913-10.923 13.558-33.031 13.036-41.484 29.723.52 1.955 1.17 3.91 1.69 5.866zm2.861-41.325c1.171 5.736 1.171 11.732.13 17.599.26-.261.651-.652 1.041-.913 0-.13-.13-.13-.13-.26-.39-8.474 5.462-16.426 8.193-24.118 2.991-8.604 4.941-17.338 6.112-26.333-4.422 11.472-16.516 19.946-15.086 33.503.13.391-.13.522-.26.522zm.651 145.355c.52-5.997 3.121-11.472 4.421-17.339 1.431-6.648 2.081-13.557 1.821-20.336-.52-13.688-4.682-26.334-12.225-37.545-.39.13-.91.13-1.17-.13h-.65c4.942 25.421 10.143 53.579 2.471 78.869.39-.26.91-.651 1.43-1.042a100.957 100.957 0 013.902-2.477zm7.022-130.494c-7.152 3.52-11.054 10.038-12.874 17.469 7.672-13.558 25.749-16.035 38.103-25.03-2.471.913-4.942 1.695-7.153 2.216-6.112 1.695-12.354 2.608-18.076 5.345zm-16.386 13.036c1.041-19.163.911-38.196-10.663-54.491-.131-.131-.131-.391.13-.522-2.731-2.737-5.202-5.605-7.023-9.125.13.652.13 1.303.13 1.955 3.901 8.083 7.673 15.774 8.973 24.9 1.301 9.255.65 18.511 0 27.767 2.601 2.216 5.072 4.693 7.153 7.561.52.521.91 1.304 1.3 1.955zm.781 122.542c-2.211-26.725-3.512-53.579-5.332-80.304h-3.121c.13.13.13.391.13.522-2.861 13.427-2.861 28.028-2.471 41.846.52 13.688 3.251 26.333 10.663 37.936 0-.131.131 0 .131 0zm-4.552-206.626c.26-14.21 1.04-28.288.78-42.498-.26-11.733-1.04-23.465-1.82-35.068-.13-.521-.391-1.043-.521-1.564-.26.521-.39 1.173-.65 1.695-4.421 27.506-4.942 54.1-1.3 81.737.39.391.78.913 1.3 1.304v-.13c0-2.217.52-3.39 2.081-4.954-.13-.261 0-.391.13-.522zm-1.951 5.997c2.081 2.347 4.032 4.563 5.462 7.3 0-5.736.91-11.472 2.991-16.816-.39.39-.78.912-1.3 1.303-1.171 1.043-2.471 1.956-3.642 2.998 0 .522-.39.652-.78.783-1.04 1.043-1.82 2.346-1.95 3.91 0 .392-.521.522-.781.522zm5.592 34.416c-2.08-2.999-4.681-5.736-7.282-8.213 11.184 15.513 10.273 36.241 8.973 54.622 0 .13.13.13.13.13.91-3.65 2.471-6.909 4.421-9.777v-.13c2.991-12.645 1.171-25.812-6.242-36.632zm-4.031-17.208c1.17-1.434 2.471-2.738 3.641-4.172-.78-6.779-5.722-10.69-10.013-15.383 3.771 5.867 5.982 12.515 6.372 19.555zm7.803 96.86c4.681-17.469-1.821-36.632-17.036-47.061-2.341-1.565-6.373-3.52-10.924-5.867 16.255 12.124 26.269 33.113 27.96 52.928zm-2.081-100.901c-2.211 5.084-4.032 9.516-4.162 14.991 1.041 1.174 2.081 2.347 2.991 3.651-.78-6.91-.13-13.558 2.211-20.076-.26.521-.65.912-1.04 1.434zm-2.081 2.477c-1.17 1.303-2.471 2.607-3.641 3.91v.131c0 .521-.39.782-.78.652-.781.912-1.691 1.955-2.471 2.998 1.3 1.173 2.471 2.477 3.771 3.65.26-3.911 1.17-7.952 3.121-11.341zm-1.56-23.335c2.47-2.347 4.811-4.302 6.892-7.3.39-.653 1.3-.522 1.561.13 1.04 3.39 3.381 5.475 6.112 7.3-.781-23.726-7.803-46.67-15.086-69.223 2.341 22.814 2.861 46.41.521 69.093zm5.852-69.223c-1.691-1.956-3.252-3.911-4.552-5.997 3.121 6.388 7.933 11.993 11.314 18.12a131.677 131.677 0 019.233 20.989c5.072 15.253 8.193 32.59 6.372 48.625 0 .522-.39.783-.78.783.26.651.65 1.303.911 2.085.78.652 1.43 1.304 2.21 1.956.13-.782.39-1.434 1.041-2.216.78-1.174 1.82-1.956 2.861-2.738 1.82-1.564 5.722-4.823 5.202-7.952-.131-.913.65-1.434 1.43-1.173 3.771 1.694 7.023 4.04 10.014 6.909.78-31.026-26.14-52.145-42.786-75.741-.13-.26.131-.521.391-.521-.911-.913-1.821-1.826-2.731-2.868 0 0-.13 0-.13-.13v-.131zm1.69 6.779c-3.641-5.997-8.063-11.342-9.363-18.251-.13-.13-.13-.391-.26-.522.26 2.086.52 4.042.78 6.127 4.682 11.994 8.453 24.248 11.704 36.633 3.381 12.905 6.372 26.202 5.852 39.63v.13c1.821 1.174 3.642 2.347 5.332 3.78 2.081 1.826 3.641 4.042 4.942 6.258-.39-16.947-1.821-33.112-7.413-49.277a140.11 140.11 0 00-11.574-24.508zm-6.762 190.46c-.13 0-.39.13-.52 0h-1.171c1.821 26.594 4.812 53.579 4.552 80.173.39-.13.78-.26 1.17-.521 5.982-26.855 2.081-52.536-2.861-79.261-.39.131-.91 0-1.17-.391zm-53.319-96.208c-1.17-2.086-2.211-4.171-2.991-6.388-22.628-10.559-44.606-16.034-69.835-15.643-.13 0-.26 0-.26-.13-5.462 1.433-10.924 3.258-16.386 4.823 30.171.391 62.032 3.389 86.481 22.683.91-1.695 1.951-3.52 2.991-5.345zm-.52 65.182c-.13-1.565-.26-3.129-.39-4.824-.13 0-.26-.13-.39-.26-9.494-13.819-12.615-30.766-10.794-47.192-6.373 19.163-1.821 36.893 11.574 52.276zm-17.556 35.458c9.883-4.953 20.937-7.43 31.991-8.212-26.139-.391-52.279-.913-78.418-1.956-24.969-.912-50.718-1.173-75.166-7.561l-1.56.391.78.391c19.246 7.561 39.013 12.385 59.69 14.471 20.678 2.085 41.355 1.303 62.162 2.085.261.261.391.391.521.391zm18.336-60.749c-.39.261-.78.261-1.04-.26-4.812-9.256-8.453-19.294-9.234-29.723-.13-.131-.26-.391-.39-.522-1.56 17.078.13 34.025 9.494 48.626 0-4.563.39-9.126.65-13.428.13-1.564.26-3.128.52-4.693zm151.894 122.15c-24.059-2.085-48.117-13.688-66.324-28.679.26 2.868.26 5.866 0 8.864 18.987 16.948 42.005 20.858 66.324 19.815zm5.332-12.123c-9.234-31.939-35.893-54.101-69.445-55.665-.39 0-.65-.131-.91-.391h-.13c-.52-.131-1.301-.131-1.821-.392-3.381 1.174-7.022 1.956-10.664 2.347 17.687 2.347 33.942 6.779 48.637 17.99 15.476 11.733 27.18 27.376 36.673 44.063-.26-2.738-1.56-5.475-2.34-7.952zm2.21 11.602c-25.359-12.906-50.197-26.464-75.946-38.457a46.05 46.05 0 011.95 8.604c.26-.13.65-.13.911.13 21.587 17.73 45.906 25.812 73.085 29.723zm-2.21-5.997c-9.754-14.6-20.288-28.81-34.202-39.5-16.126-12.384-33.942-16.425-53.709-18.772 2.73 3.52 5.331 7.17 7.672 11.081h.13c30.691 3.52 59.041 24.769 80.109 47.191zm-41.745-138.576c3.251-3.65 5.852-7.561 5.592-12.906 0-.912 1.17-1.434 1.82-.782a50.34 50.34 0 017.413 12.776c15.996-3.65 32.251-6.127 47.857-11.472 14.955-5.084 28.87-12.385 41.485-21.901-.521.13-.911.261-1.301.391-31.731 17.208-67.494 17.99-102.996 18.772 1.04 5.084 1.04 10.169.13 15.122zm55.529-38.848c-19.767-2.346-39.664.26-57.22 9.908-.13 1.173-.26 2.346-.39 3.389 30.821-15.122 66.974 2.347 99.095-7.3-13.655 1.434-27.83-4.433-41.485-5.997zm5.202 98.685c-25.229.13-50.328 2.477-75.296 6.388-2.471 2.737-5.332 5.084-8.453 6.909 24.578 8.865 50.978 7.3 76.597 4.693 26.529-2.607 52.148-6.518 77.897-13.558-11.444-.782-22.888-2.607-34.462-3.389-12.094-.782-24.188-1.173-36.283-1.043zm-64.503-90.211c1.691-21.38-6.242-42.629-21.067-58.272-8.583-9.126-19.377-16.166-28.22-24.9a454.636 454.636 0 0131.081 37.675c8.713 11.602 13.265 24.9 11.964 39.5 2.341 2.738 4.292 5.736 5.982 8.995 0-.391.13-.782.13-1.304-.26-.26-.39-.521-.39-.782 0-.26.13-.652.52-.912zm54.49 2.086c-17.947-1.434-35.243-2.086-52.409 4.562-.39.131-.65 0-.78-.13.91 2.216 1.561 4.693 2.211 7.04 17.816-.913 35.632-.913 53.319-3.129 12.744-1.565 24.968-4.824 36.803-9.386-12.875 2.868-26.14 1.955-39.144 1.043zM259.66 215.208a73.02 73.02 0 0120.547 12.123c.13-.13.391-.13.521-.13 20.157 2.868 40.704 1.695 60.471-3.389 18.076-4.693 34.072-12.906 49.938-22.553-23.539 8.995-49.808 10.95-74.647 13.427-18.987 1.956-38.233 3.39-56.83.522zm9.624-29.462c-4.162 5.084-9.624 9.516-16.126 12.514 22.498-3.519 45.126-5.344 67.884-5.605 20.547-.261 42.655-.131 63.332 3.259-17.426-7.3-35.242-11.863-54.229-13.167-20.417-1.303-40.704.782-60.861 2.999zm-12.095-34.156c-.26.261-.65.261-.91.131.91 4.954 1.561 9.907 1.821 14.861l.13-.13c4.421-5.606 8.323-10.951 9.753-18.121 1.301-6.518 1.04-13.166.52-19.815-.65 8.604-4.942 17.208-11.314 23.074zm-2.341-6.778c.391 1.825.911 3.78 1.171 5.605 5.072-5.475 8.323-11.341 10.273-18.251-2.991 4.563-7.672 8.213-11.444 12.515.131.131 0 .131 0 .131zm2.471-5.476c2.081-17.99-7.022-32.46-16.646-46.8-.26-.13-.39-.26-.65-.391 0 .26-.13.521-.13.782l.13.13c10.534 14.731 13.395 34.286 9.233 51.755 1.171-1.434 1.951-3.129 2.081-5.085.13-1.173 1.691-1.434 2.081-.26l.78 3.128c1.041-1.173 2.081-2.216 3.121-3.259zm1.821-20.988c-.65-2.998-1.821-5.866-3.381-8.995-3.121-6.127-7.153-11.602-12.615-15.383 9.494 12.645 17.557 27.507 15.866 43.672.39-.391.78-.652 1.04-1.043.26-5.997.39-11.342-.65-16.687-.65-.13-.78-1.043-.26-1.564zm-1.04 50.841c0 4.563-.391 8.996-1.431 13.428 18.597-12.254 19.117-35.72 13.005-55.535 1.3 7.431 1.43 15.383-.13 22.814-1.691 7.43-6.113 13.297-10.924 19.033-.26.13-.39.13-.52.26zm12.614-41.976c8.193 20.336 5.722 46.409-14.825 58.011a46.837 46.837 0 01-5.852 12.385c-.13.26-.26.391-.39.651 12.354-6.127 22.107-15.773 26.789-29.071 1.691-4.953 2.471-10.168 2.471-15.252-.65-.261-.65-1.304 0-1.695-.65-8.864-3.381-17.599-8.193-25.029zm-16.906 57.229c3.641-12.254 2.081-25.421-.78-37.936-.13 1.174-.39 2.216-.52 3.39 1.43 15.643.52 32.199-10.144 44.584-9.103 10.559-22.888 16.686-36.673 17.599-.26 0-.39 0-.52-.13 0 .13 0 .13-.13.26h.13c14.435 1.174 29.91-1.434 39.924-11.993 0-.261.26-.652.65-.652 1.561-1.695 2.861-3.52 4.032-5.606a51.345 51.345 0 004.031-9.125v-.391zm-94.153-39.891c-.91-.782-1.691-1.695-2.341-2.607 3.901 13.948 17.816 22.813 26.399 34.024 8.193 10.821 13.785 23.205 16.906 36.241h1.951a72.632 72.632 0 00-10.664-36.501c-6.762-11.212-15.995-18.773-26.659-26.073h-.13c-2.341-.913-4.162-2.868-5.462-5.084zm3.901 64.269c-3.511-1.695-6.632-3.781-9.363-6.518h-.39c-23.539-4.563-47.207-7.431-71.135-7.822-23.149-.391-45.907 1.955-68.925 4.563-.26 0-.52-.131-.52-.391a64.533 64.533 0 01-4.551 1.694c24.968 4.563 50.067 5.476 75.426 6.388 26.53.913 53.059 1.695 79.458 2.086zm-7.933-69.353c-1.04-2.086-1.3-4.172-.78-6.518h-.13c-4.942 34.546 15.215 62.704 43.956 79.391-3.902-15.644-11.184-30.114-22.108-41.977-8.453-9.386-19.377-17.86-20.938-30.896zm11.184 133.752c-9.233 8.604-20.677 14.34-33.291 16.035-15.736 2.216-30.041-2.868-44.346-8.734-.78-.261-1.17-1.174-.52-1.826 7.542-7.561 8.713-17.99 11.704-27.767-19.117.913-37.323-4.954-53.059-15.643-2.86-1.956-5.592-3.911-8.193-5.997l-1.56-.782c-.26-.131-.26-.391-.13-.522-11.964-9.256-23.148-19.163-36.803-25.812-.91-.521-.78-2.085.26-2.346.52-.131.91-.261 1.43-.261.13-.13.26-.391.52-.261.13 0 .26 0 .39.131 20.158-4.563 35.243-19.815 53.32-29.202-24.45-11.08-21.458-44.714-30.301-65.963-.26-.783.52-1.695 1.17-1.695 12.225 1.173 23.409-2.738 34.852-6.388 8.454-2.607 17.037-4.693 25.88-5.605 17.816-2.086 35.892 0 52.018 8.082-1.3-14.34 2.991-29.462 10.144-41.455 5.592-9.387 13.134-16.817 21.327-23.857 10.404-8.734 21.848-17.86 23.408-32.33.13-1.173 1.691-1.434 2.081-.26a47.032 47.032 0 007.673 13.687c11.444 14.601 29.91 23.857 40.834 39.11 10.404 14.47 15.866 32.069 14.825 49.798 14.566-8.343 31.211-11.211 47.857-10.56 8.973.392 17.817 1.826 26.66 3.912 11.704 2.737 23.798 5.736 34.982-.13.78-.392 1.951.13 1.951 1.042-2.211 25.03-5.332 51.233-21.848 71.178 5.722 3.259 11.184 6.91 16.516 10.951 9.493 7.039 18.726 14.209 30.561 16.817.91.26 1.17 1.434.52 2.086-7.543 7.952-12.745 17.859-20.157 25.942-6.242 6.779-13.525 12.645-21.458 17.468-16.256 9.908-35.112 15.253-54.229 14.471 2.991 7.691 4.422 15.904 8.453 22.944.26.521 0 1.434-.65 1.564-24.839 5.084-61.512 12.385-80.108-10.299-1.041 2.999-2.471 5.867-4.292 8.474 0 .13 0 .261-.13.391-.13.391-.39.521-.65.521-.26.392-.52.783-.911 1.174-5.722 7.17-14.825 9.777-21.067 16.426-.26.26-.91.391-1.301.13-8.322-5.736-18.986-6.909-26.659-13.688-3.511-3.129-5.852-7.04-7.543-11.342.13.261 0 .261-.13.391zm15.606-246.516c-20.157 20.988-40.574 50.32-25.879 79.782l3.121-2.347c.91-.521 1.56.522 1.3 1.304-.91 2.216-.78 4.432.13 6.648.911-3.389 2.471-6.648 4.422-9.516-7.543-12.254-4.292-29.071-.39-41.977 3.771-12.124 9.493-23.856 17.296-33.894zm-17.816 226.31c-9.494 7.952-19.117 15.904-30.561 20.728-11.574 4.953-24.319 6.518-36.933 5.866 23.408 7.17 48.767 2.998 67.754-13.167.13-.13.26-.13.26-.13-.26-1.173-.39-2.216-.52-3.389a63.02 63.02 0 010-9.908zm-16.256-59.055s0-.13-.13-.13c-1.301-2.737-2.081-5.736-2.601-8.734-.13 0-.26 0-.39-.131-15.736-12.906-20.027-36.371-12.355-54.752-11.704 22.292-8.973 51.754 15.476 63.747zm.39-49.798c0-.131-.13-.261-.13-.391-1.431-6.388-7.673-9.647-11.704-14.471 2.211 9.517 4.942 18.512 9.493 27.377a66.476 66.476 0 012.341-12.515zm6.502-12.515c.13-.391.651-.261.651.13.13 3.781 1.69 6.91 3.901 9.647-.52-3.52.13-6.648 1.43-9.777-3.641-6.779-4.941-14.601-3.381-22.162-2.731 7.17-3.641 14.34-2.861 22.162h.26zM131.565 273.35c12.614-4.954 23.148-13.819 33.292-22.423.78-5.866 2.341-11.733 4.941-17.077-20.937 20.336-47.726 36.241-75.556 44.714 12.614.261 25.359-.521 37.323-5.214zm19.117-158.261c-3.902 4.823-6.893 10.298-9.234 16.426 1.691 1.564 3.512 3.128 5.072 4.693-.91-7.17.65-14.601 4.162-21.119zm-1.561 35.198c-1.17 26.333 10.274 49.538 34.722 61.792 4.032.391 7.933.521 11.835.391-26.01-15.904-49.158-44.845-42.395-76.914-1.951 4.823-3.252 9.647-4.162 14.731zm.52-9.256c1.041-3.129 2.341-6.127 4.032-8.995-1.171-7.561-.26-15.383 2.731-22.292-.13 0-.13-.13-.26-.261-.26.261-.521.391-.651.652-5.852 8.343-8.192 17.338-7.542 27.767v.131c.65.912 1.3 1.825 1.69 2.998zm-.13 50.842c5.332 12.645 17.166 17.729 29.781 19.554-17.947-10.038-30.561-29.071-31.731-49.538v.652c-.781 9.647-1.821 20.337 1.95 29.332zm2.601 8.213a21.064 21.064 0 01-2.731-3.911c-5.072-1.956-9.233-4.563-12.744-7.822-.26.261-.52.521-1.041.391-18.336-4.432-36.022-8.083-55.009-7.561-18.337.521-36.023 4.432-53.449 10.299-3.771 2.346-7.673 4.562-11.704 6.387 44.346-9.386 92.593-7.3 136.678 2.217zm2.991-92.298c-13.264-25.942-.13-53.71 18.467-73.524-4.682 3.91-9.233 7.822-13.135 12.254-8.063 9.125-14.175 20.206-16.906 32.2-2.991 13.166-.91 25.681 2.991 38.326 2.471-3.389 5.462-6.518 8.583-9.256z" fill="#FCEEAA"/></svg>