<svg width="85" height="63" fill="none" xmlns="http://www.w3.org/2000/svg"><path d="M78.877 23.326c-.537 4.27-1.526 8.482-4.212 11.988-.65-.367-1.329-.678-2.036-.99-.226-.113-.48-.197-.706-.282 3.42-2.63 6.078-6.475 6.954-10.716z" fill="#DAAE59"/><path d="M78.904 21.516c-.989 4.948-3.307 9.302-7.435 12.384a18.837 18.837 0 00-3.732-.876c4.976-2.234 9.075-6.475 11.168-11.508z" fill="#DAAE59"/><path d="M78.227 22.336c-2.46 4.637-6.192 8.228-11.026 10.518-.056.028-.056.056-.085.085-2.488-.255-5.004.028-7.322 1.017.085-.565.113-1.13.113-1.696 4.213-.113 8.199-1.696 11.676-4.043a36.878 36.878 0 004.75-3.873c.65-.65 1.357-1.273 1.894-2.008z" fill="#DAAE59"/><path d="M59.258 28.387c6.898-1.216 14.192-2.8 19.507-7.606-.678 1.499-2.092 2.686-3.28 3.76-1.413 1.301-2.911 2.517-4.551 3.563-3.336 2.177-7.068 3.506-11.026 3.76a11.143 11.143 0 00-.65-3.477z" fill="#DAAE59"/><path d="M55.864 24.909c7.69-.17 15.493-.311 22.391-4.072.085-.028.198-.056.283-.085a33.567 33.567 0 01-9.019 4.75c-3.392 1.16-6.926 1.697-10.404 2.489a11.983 11.983 0 00-1.611-2.771c-.113-.17-.396-.029-.396.17.029 1.159-.509 2.007-1.215 2.798a9.83 9.83 0 00-.029-3.28z" fill="#DAAE59"/><path d="M55.3 22.986c.057.056.114.056.17.028 3.732-1.442 7.492-1.272 11.394-.99 2.827.227 5.71.396 8.481-.226-2.573.99-5.23 1.697-8 2.036-3.846.48-7.747.48-11.592.679a10.406 10.406 0 00-.452-1.527z" fill="#DAAE59"/><path d="M67.934 19.763c2.94.34 6.05 1.611 9.019 1.329-7.011 2.064-14.843-1.697-21.543 1.583.028-.254.057-.509.085-.735 3.817-2.12 8.142-2.686 12.44-2.177zm-4.719 32.204c7.492-.141 15.04-3.11 20.27-8.538-.763 1.046-1.47 2.12-2.29 3.11a20.833 20.833 0 01-4.749 4.156c-3.59 2.29-7.746 3.45-12.015 3.534-.085-.17-.142-.367-.226-.537a15.045 15.045 0 00-.99-1.725z" fill="#DAAE59"/><path d="M82.666 43.88c-5.485 4.666-12.157 7.493-19.451 7.663-.113 0-.17.057-.198.142a17.482 17.482 0 00-2.375-2.828c-.056-.056-.141-.113-.198-.198 7.436.933 15.86-.537 22.222-4.778z" fill="#DAAE59"/><path d="M83.993 42.551c-3.421 2.093-6.899 3.874-10.857 4.892-4.297 1.102-8.736 1.329-13.146.735-.056 0-.085 0-.113.028a15.881 15.881 0 00-4.467-2.63c4.043.623 8.227.34 12.327-.084 5.428-.566 11.138-.99 16.256-2.94z" fill="#DAAE59"/><path d="M84.419 42.128c-5.598 1.527-11.168 2.375-16.935 2.94-5.57.566-11.308.877-16.652-1.017a7.766 7.766 0 001.838-1.499c5.428-.848 10.884-1.357 16.37-1.385 2.628-.028 5.257.056 7.887.226 2.516.17 5.004.566 7.492.735z" fill="#DAAE59"/><path d="M70.736 38.565c4.156.283 8.001 1.273 11.79 2.856-4.496-.735-9.302-.763-13.769-.707a103.34 103.34 0 00-14.758 1.216 9.842 9.842 0 003.506-2.714c4.41-.51 8.793-.962 13.231-.65z" fill="#DAAE59"/><path d="M57.899 38.707a10.64 10.64 0 001.498-2.997c.028.085.085.141.17.141 3.731-.085 7.294-.141 10.969.679 2.742.622 5.287 1.583 7.775 2.77-6.503-1.95-13.853-1.526-20.412-.593z" fill="#DAAE59"/><path d="M59.454 35.484c.085-.311.17-.65.255-.962.056.029.084.029.14 0 4.92-1.724 9.924-1.159 14.532 1.273 0 .141.142.254.255.141 2.205 1.216 4.184 2.969 6.333 4.298-.113-.057-.198-.085-.311-.142-5.853-3.845-14.22-5.88-21.12-4.665-.027.029-.056.057-.084.057zM57.53 49.168c-3.194-2.403-6.728-3.393-10.573-3.902a10.968 10.968 0 002.318-.509c.113.057.255.057.396.085h.028c.029.057.113.085.198.085 7.266.34 13.062 5.174 15.097 12.073.17.565.453 1.13.566 1.696-2.149-3.59-4.693-6.983-8.03-9.528z" fill="#DAAE59"/><path d="M47.469 48.037a24.194 24.194 0 00-1.669-2.403c4.298.509 8.171 1.385 11.677 4.071 3.053 2.319 5.343 5.4 7.435 8.567-4.552-4.891-10.743-9.5-17.443-10.235 0-.028 0-.028 0 0z" fill="#DAAE59"/><path d="M65.646 59.43c-5.343-3.307-11.139-6.078-16.85-8.736-.028-.028-.056-.028-.085-.028a13.598 13.598 0 00-.99-2.177c3.422.735 6.532 1.922 9.5 3.845 3.138 2.064 5.71 4.609 8.425 7.097.028 0 .028 0 0 0zM49.5 53.07a.174.174 0 00-.197-.028 11.087 11.087 0 00-.424-1.866c5.598 2.6 11.026 5.541 16.51 8.34-5.908-.82-11.167-2.572-15.888-6.446z" fill="#DAAE59"/><path d="M49.363 53.437c3.958 3.28 9.188 5.768 14.418 6.22-5.286.226-10.29-.622-14.418-4.297.056-.65.056-1.3 0-1.923z" fill="#DAAE59"/><path d="M49.304 55.84c3.675 3.535 9.075 4.638 14.051 4.129-1.527.282-3.053.48-4.58.565-3.506.142-7.379-.509-9.81-3.251.141-.481.254-.962.34-1.442zm-1.213 2.375c.51-4.608-.735-9.217-3.618-12.892.17.028.367.028.537.028 0 .028.028.085.056.113 2.432 2.969 4.467 6.7 3.704 10.688a9.18 9.18 0 01-.198.848c-.085.028-.141.113-.085.198a5.025 5.025 0 01-.396 1.017z" fill="#DAAE59"/><path d="M44.27 45.35c2.884 3.987 4.128 8.822 3.336 13.685a6.94 6.94 0 01-1.95 2.008c-.283.198-.594.367-.877.537.368-1.499.961-2.94 1.216-4.496.254-1.413.31-2.855.226-4.269-.198-2.714-1.046-5.344-2.573-7.606.198.029.396.057.594.057.028.056.028.056.028.085z" fill="#DAAE59"/><path d="M43.282 45.38a15.419 15.419 0 012.658 8.142 17.806 17.806 0 01-.396 4.411c-.282 1.272-.848 2.46-.961 3.76-.283.17-.594.34-.877.538-.113.084-.197.141-.31.226 1.668-5.485.537-11.62-.538-17.106H43a.335.335 0 00.282.029z" fill="#DAAE59"/><path d="M42.888 62.768c.056-5.796-.594-11.62-.99-17.388h.255c.056.028.085.028.113 0 .056.113.17.113.254.084 1.075 5.797 1.923 11.366.622 17.19a.98.98 0 01-.254.114zM41.587 45.38c.396 5.796.678 11.62 1.159 17.416h-.028c-1.584-2.516-2.205-5.259-2.319-8.227-.113-2.97-.084-6.136.538-9.076 0-.057 0-.085-.029-.113h.679z" fill="#DAAE59"/><path d="M40.595 45.408c-.679 3.223-.707 6.757-.453 10.037.198 2.601.82 5.203 2.375 7.323-.141-.028-.31-.113-.537-.226-.198-.085-.368-.17-.566-.255-4.042-4.439-2.46-11.733-.904-16.907h.113c-.028 0-.028 0-.028.028z" fill="#DAAE59"/><path d="M38.592 55.586c.113 2.319.65 4.778 2.262 6.446-.424-.17-.82-.31-1.244-.48 0-.029 0-.057-.028-.085-4.495-4.156-2.884-11.677.254-16.144h.34c-1.245 3.223-1.753 6.842-1.584 10.263z" fill="#DAAE59"/><path d="M38.983 45.973c-2.714 4.44-4.127 11.677.198 15.41a7.16 7.16 0 01-1.894-1.132c-1.385-1.244-1.95-3.138-2.036-4.92-.198-3.562 1.33-6.842 3.732-9.358zM34.912 57.82c-2.149 1.98-4.891 3.224-7.803 3.45-2.855.226-5.485-.736-8.086-1.782.142 0 .311.029.453.029 5.145 2.233 11.252 1.074 15.492-2.46.057.254.114.48.198.707-.084-.029-.17-.029-.254.056z" fill="#DAAE59"/><path d="M28.13 58.3c2.488-1.074 4.58-2.8 6.643-4.495-.056.706-.056 1.441.029 2.148a6.6 6.6 0 00.113.735c-.028 0-.057.029-.057.029-4.099 3.506-9.64 4.382-14.73 2.855 2.715.113 5.486-.198 8.002-1.272z" fill="#DAAE59"/><path d="M35.907 49.592a12.97 12.97 0 00-1.075 3.704c-2.233 1.895-4.495 3.789-7.237 4.863-2.601 1.018-5.372 1.188-8.114 1.103 6.05-1.81 11.846-5.259 16.426-9.67z" fill="#DAAE59"/><path d="M38.309 46.143a11.647 11.647 0 00-1.951 2.573c-5.09 4.722-10.743 8.143-17.302 10.49l.17-.255c5.4-5.768 11.59-10.207 19.083-12.808z" fill="#DAAE59"/><path d="M38.93 45.548c-7.153 2.29-14.023 6.503-18.942 12.271 4.156-6.248 9.301-11.903 17.245-12.553.113 0 .17-.113.17-.198.594.113 1.216.17 1.81.226-.086.085-.17.17-.283.254z" fill="#DAAE59"/><path d="M36.811 44.955c-7.152.791-13.287 5.909-16.595 12.186.198-.538.396-1.075.537-1.64.594-2.206 1.16-4.241 2.714-5.994 3.308-3.676 8.255-4.41 12.92-4.637l.424.085zM9.727 49.62c3.76 1.442 7.802 1.98 11.845 1.753a13.03 13.03 0 00-.622 1.442c-.028.056-.028.113-.056.141-4.071 0-7.803-1.159-11.167-3.336zm13.427-.537a11.44 11.44 0 00-1.385 1.923c-4.58.283-8.962-.509-13.174-2.149-1.357-.99-2.658-2.064-3.958-3.082 5.4 2.97 12.44 4.213 18.517 3.308z" fill="#DAAE59"/><path d="M26.205 46.651a12.4 12.4 0 00-2.15 1.527c-.169.141-.31.283-.451.424-3.45.283-6.785.368-10.206-.254-3.393-.622-6.531-1.866-9.64-3.308-.708-.538-1.386-1.047-2.121-1.499 3.42 1.442 7.124 2.177 10.8 2.601a85.65 85.65 0 0013.768.51z" fill="#DAAE59"/><path d="M33.728 44.56c-2.432.17-4.835.707-6.955 1.781-.028-.028-.056-.028-.113-.056-4.523-.17-9.019 0-13.514-.453C8.651 45.38 4.382 44.334.17 42.694L0 42.609l.34-.085c5.286 1.386 10.884 1.442 16.34 1.64 5.683.198 11.365.311 17.048.396z" fill="#DAAE59"/><path d="M17.273 43.739C11.76 43.54 6.276 43.343.876 42.353c.339-.113.678-.226.99-.367 0 .056.027.113.112.085 5.004-.594 9.952-1.103 14.984-.99 5.202.113 10.348.735 15.465 1.697h.084c.594.593 1.273 1.046 2.036 1.413-5.767-.085-11.506-.254-17.274-.452z" fill="#DAAE59"/><path d="M28.466 39.838c.114.028.17-.029.227-.085.763.707 1.668 1.272 2.77 1.696.17.311.368.594.594.849-9.584-2.064-20.073-2.489-29.713-.51a22.165 22.165 0 002.544-1.385c3.789-1.272 7.605-2.12 11.62-2.233 4.127-.085 7.972.706 11.959 1.668z" fill="#DAAE59"/><path d="M26.12 36.275c.198.057.311-.113.283-.282.367 1.215.961 2.318 1.81 3.251-6.87-2.516-15.437-2.092-22.307.48.905-.593 1.781-1.187 2.658-1.78.028.028.056.056.113.028 5.71-2.545 11.337-3.139 17.443-1.697z" fill="#DAAE59"/><path d="M26.066 34.24c.056.593.17 1.159.339 1.724-.029-.056-.085-.085-.142-.113-5.258-1.64-11.563-1.102-16.51 1.414.198-.113.424-.255.622-.368 4.438-2.573 10.46-4.156 15.493-2.6.056-.03.141-.03.198-.057zm3.764-11.678c-4.1-2.262-9.16-3.308-13.853-3.11.197-.028.424-.085.65-.113 4.269-.735 8.707-.452 12.609 1.555.085.029.141.029.198.029.113.508.226 1.074.395 1.64z" fill="#DAAE59"/><path d="M30.05 23.156c.17.48.396.933.65 1.385-.254.368-.48.764-.65 1.188-5.315-4.213-12.241-4.835-18.8-4.92 1.187-.34 2.375-.735 3.562-1.046.029 0 .029.028.057.028 5.456-.113 10.234 1.075 15.181 3.365z" fill="#DAAE59"/><path d="M10.402 21.007c6.729.396 13.853.65 19.366 5.061.028.029.056.029.085.057-.142.367-.255.735-.368 1.13-.395-.395-.763-.82-.96-1.385-.057-.17-.284-.226-.397-.056a13.906 13.906 0 00-1.413 2.827c-5.513-3.93-12.496-6.503-19.281-6.983a20.506 20.506 0 002.968-.65z" fill="#DAAE59"/><path d="M26.036 31.695c-7.322-2.234-14.022-5.626-20.27-9.98.31 0 .65 0 .96-.029 0 .057.03.085.086.113 7.265.99 13.683 3.28 19.818 7.238a15.04 15.04 0 00-.594 2.658z" fill="#DAAE59"/><path d="M5.4 21.714c6.05 4.75 13.147 8.256 20.554 10.32h.085c-.029.566-.057 1.131 0 1.696h-.029c.029-.084 0-.197-.113-.226-7.746-2.346-15.719-4.382-20.468-11.507l-.085-.255c0-.028.028-.028.057-.028z" fill="#DAAE59"/><path d="M23.126 33.165c-1.922-.17-3.901 0-5.824.424-.028-.056-.056-.113-.113-.141-4.552-1.866-8.566-4.552-11.054-8.793-.141-.594-.283-1.216-.424-1.781 3.76 5.796 10.828 8.595 17.415 10.291z" fill="#DAAE59"/><path d="M6.332 25.616c2.318 3.874 6.332 6.39 10.46 8.115-.82.198-1.64.452-2.431.735-2.969-1.442-5.4-3.478-7.464-6.05-.198-.934-.368-1.895-.565-2.8z" fill="#DAAE59"/><path d="M7.07 28.98c1.753 2.404 4.156 4.355 6.87 5.627-.678.255-1.357.538-1.979.82-.085.057-.198.085-.283.142-2.77-1.301-3.9-3.817-4.608-6.588zm47.579 2.574c-.085-.424-.17-.82-.255-1.216.029 0 .029-.028.029-.028.82-.933 1.837-1.725 2.488-2.714a10.156 10.156 0 01-2.262 3.958z" fill="#DAAE59"/><path d="M55.104 35.003s-.029 0-.029.028a17.932 17.932 0 00-.395-3.223c.056.028.113.028.198-.028 1.385-1.273 2.318-3.139 2.46-5.005.112 1.442.169 2.884-.114 4.298-.31 1.555-1.159 2.714-2.12 3.93z" fill="#DAAE59"/><path d="M57.589 26.464c1.329 4.298 1.215 9.358-2.827 12.044.226-.933.31-1.922.31-2.912.029 0 .057-.028.114-.056 1.046-1.216 2.007-2.517 2.375-4.128.367-1.584.31-3.336.028-4.948z" fill="#DAAE59"/><path d="M54.62 39.074c4.468-2.516 5.005-8.199 3.224-12.581a10.881 10.881 0 011.724 5.4c-.141.085-.141.31 0 .367 0 1.131-.17 2.234-.537 3.308-1.018 2.884-3.138 4.977-5.824 6.306.028-.057.057-.085.085-.142a8.378 8.378 0 001.329-2.658z" fill="#DAAE59"/><path d="M54 30.676c.622 2.715.961 5.599.17 8.228 0 .028-.029.028-.029.056a7.697 7.697 0 01-.876 1.98 7.864 7.864 0 01-.877 1.215c-.085.029-.141.085-.141.142-2.177 2.29-5.541 2.855-8.68 2.601h-.028c0-.028 0-.028.029-.057.028.029.056.029.113.029 2.996-.198 5.993-1.499 7.972-3.817 2.319-2.686 2.545-6.277 2.205-9.67.057-.226.085-.48.142-.707z" fill="#DAAE59"/><path d="M53.634 32.543c-.056 2.94-.254 5.853-2.261 8.228-1.951 2.262-4.75 3.393-7.662 3.704.198-.594.31-1.216.396-1.867.028.114.17.227.31.142 2.375-1.414 5.174-2.884 6.87-5.146 1.075-1.47 1.867-3.223 2.347-5.06z" fill="#DAAE59"/><path d="M49.758 35.596c1.64-1.583 3.024-3.392 4.042-5.428-.509 2.686-1.413 5.4-3.194 7.52-1.725 2.036-4.298 3.224-6.446 4.694-.028.029-.057.057-.085.113a10.09 10.09 0 00-.141-2.77c.028-.029.056-.029.084-.085.029-.057.085-.113.114-.17.028-.028.028-.056.028-.085a.645.645 0 00.565-.198c.283-.141.566-.282.82-.452.537-.311 1.074-.65 1.583-1.018.962-.622 1.81-1.329 2.63-2.12z" fill="#DAAE59"/><path d="M53.037 30.988c-1.272 1.894-2.714 3.62-4.467 5.118a21.744 21.744 0 01-3.42 2.375c-.312.17-.962.339-1.33.65a8.731 8.731 0 00-.395-1.216c1.837-3.619 6.644-3.506 9.018-6.446.114 0 .255-.057.255-.198.141-.113.254-.198.34-.283z" fill="#DAAE59"/><path d="M43.34 37.209c.396-1.64 1.244-3.054 2.8-3.79 1.243-.593 2.6-.82 3.9-1.158.51-.142 1.047-.283 1.556-.481-2.658 1.95-6.587 2.488-8.255 5.428zm.027 6.814c-.367-4.298-2.544-8.822-6.05-11.451.961.48 1.866.905 2.375 1.272 3.28 2.234 4.664 6.39 3.675 10.179z" fill="#DAAE59"/><path d="M42.575 44.955c-.678-2.855-1.894-5.541-3.675-7.86-1.866-2.46-4.891-4.354-5.74-7.38.142.199.34.396.51.566.282.48.678.877 1.159 1.103h.028c2.318 1.555 4.297 3.195 5.796 5.654a15.73 15.73 0 012.318 7.917h-.396z" fill="#DAAE59"/><path d="M32.655 27.736c-.113.51-.028.962.17 1.414.339 2.856 2.714 4.665 4.551 6.673 2.347 2.6 3.958 5.74 4.807 9.104-6.248-3.62-10.63-9.727-9.556-17.219 0 0 0 .028.028.028z" fill="#DAAE59"/><path d="M31.38 31.497c.198-1.075.509-2.15.905-3.195-1.499 6.955 3.562 13.203 9.216 16.681-.848 0-1.696-.028-2.572-.085-5.316-2.658-7.803-7.69-7.549-13.402z" fill="#DAAE59"/><path d="M31.043 34.042c.282 4.41 3.025 8.567 6.898 10.744-2.742-.396-5.315-1.47-6.474-4.241-.82-1.951-.594-4.298-.453-6.362a.307.307 0 00.029-.141zm.17 6.898s0 .028.028.028c-5.315-2.63-5.908-9.02-3.364-13.854-1.668 3.987-.735 9.076 2.686 11.875.028.028.056.028.085.028.113.679.282 1.33.565 1.923z" fill="#DAAE59"/><path d="M30.51 37.604c.028.34.028.707.085 1.046-2.912-3.336-3.902-7.181-2.516-11.366-.368 3.591.282 7.238 2.346 10.235 0 .057.057.085.085.085z" fill="#DAAE59"/><path d="M30.507 33.108c.057.113.17.113.226.057l-.085 1.018c-.084.933-.17 1.922-.14 2.912-2.036-3.195-2.404-6.842-2.065-10.546.029.028.057.085.085.113.142 2.233.933 4.439 1.98 6.446z" fill="#DAAE59"/><path d="M31.296 30.168a17.077 17.077 0 00-.537 2.714c-.99-1.923-1.555-3.845-2.064-5.937.877 1.046 2.234 1.753 2.545 3.138.028.028.056.057.056.085zm.426-6.304c-.763 1.385-1.074 3.025-.905 4.608-.339-.367-.735-.678-1.102-1.018.537-1.328 1.159-2.544 2.007-3.59z" fill="#DAAE59"/><path d="M32.4 27.538c-.367.622-.65 1.273-.876 1.951-.113-.226-.226-.452-.396-.65v-.028c-.141-2.262.368-4.213 1.64-6.023.057-.056.113-.084.142-.14l.056.056a8.552 8.552 0 00-.565 4.834c-.029 0 0 0 0 0z" fill="#DAAE59"/><path d="M32.877 27.482c0-.085-.113-.113-.141-.028h-.056c-.17-1.697.028-3.252.621-4.807-.339 1.64-.056 3.336.735 4.807-.31.65-.452 1.357-.31 2.12-.481-.594-.82-1.272-.849-2.092z" fill="#DAAE59"/><path d="M34.206 27.115c-.707-1.386-.933-2.856-.735-4.41.141 1.102 1.103 2.035 1.838 2.883-.424.509-.82 1.018-1.103 1.527zm-.193 2.799c-.057-1.273.367-2.29 1.017-3.224-.452 1.188-.622 2.46-.395 3.76-.198-.169-.424-.338-.622-.536z" fill="#DAAE59"/><path d="M37.826 23.467c-1.102 2.545-1.441 5.457-1.187 8.2-.537-.283-1.074-.566-1.555-.905-.48-2.064.085-3.845 1.13-5.457.538-.594 1.104-1.188 1.612-1.838z" fill="#DAAE59"/><path d="M38.506 22.648c.056 3.336.085 6.644-.085 9.952-.452-.255-.933-.48-1.442-.763v-.057c-.198-3.138.34-5.966 1.357-8.878.028-.028.057-.056.057-.113v-.057c.028-.056.028-.084.056-.14.029-.03.029-.057.057-.086-.029.085 0 .113 0 .142zm1.894 5.767c.199 1.81.086 3.62-.027 5.429-.51-.368-1.018-.736-1.584-1.047.198-3.053.283-6.135.085-9.16.594 1.583 1.329 3.053 1.527 4.778z" fill="#DAAE59"/><path d="M42.575 36.219c-.085-.142-.198-.283-.283-.424a9.524 9.524 0 00-1.555-1.64c.17-2.008.282-4.015 0-6.023-.283-1.979-1.103-3.619-1.95-5.4 0-.141-.03-.282-.03-.424.397.764.934 1.386 1.528 1.98-.029.027-.057.084-.029.112 2.516 3.535 2.545 7.663 2.319 11.819z" fill="#DAAE59"/><path d="M42.916 36.784c.282-3.987.48-8.482-1.951-11.847.565.566 1.13 1.131 1.583 1.781 1.611 2.347 2.007 5.203 1.357 7.945v.029a6.595 6.595 0 00-.961 2.12s-.028 0-.028-.028zm-.453-14.109c-.424.735-.622 1.64-.678 2.488a10.829 10.829 0 00-.82-.791c.17-.226.34-.424.537-.65.085 0 .17-.057.17-.142v-.028c.254-.311.537-.594.791-.877zm-.451 2.715c.028-1.188.424-2.15.904-3.252v-.029c.085-.113.142-.198.227-.31-.51 1.413-.65 2.855-.481 4.354a15.609 15.609 0 00-.65-.764z" fill="#DAAE59"/><path d="M43.48 21.403c.141 2.12.17 4.241.141 6.362a9.003 9.003 0 00-.65-1.131v-.057c-.282-1.725-.113-3.45.424-5.118 0-.028 0-.056-.028-.084.028-.057.056-.113.085-.198.028.028.028.056.056.085 0 .056-.028.084-.028.141zm.287.538c1.046 1.527 1.018 3.054 1.103 4.835-.424.735-.707 1.498-.707 2.375-.084-.226-.141-.453-.226-.679.057-2.177 0-4.382-.226-6.53h.056c0-.03 0-.03 0 0z" fill="#DAAE59"/><path d="M45.119 26.323c-.057-1.668-.142-3.082-1.244-4.468-.029-.056-.114 0-.114.057h-.056c-.028-.141-.028-.283-.057-.424.905 1.074 2.488 1.329 2.46 3.195 0 .056.028.085.028.113-.339.509-.707 1.018-1.017 1.527zm10.178 2.432c.339-3.506-1.386-6.701-3.45-9.472 1.188.82 2.064 2.035 2.743 3.336.34.679.565 1.3.735 1.951-.113.113-.085.283.085.34.226 1.159.198 2.318.141 3.618a2 2 0 00-.254.227z" fill="#DAAE59"/><path d="M54.933 29.122l-.679.679-.17-.678c-.056-.255-.423-.17-.452.056-.056.424-.197.792-.452 1.103.905-3.789.283-8.03-2.007-11.225l-.029-.028c0-.057.029-.113.029-.17.056.028.085.057.141.085 2.092 3.138 4.043 6.277 3.619 10.178z" fill="#DAAE59"/><path d="M51.285 19.735c1.725 3.421 2.319 6.984 1.442 10.772a13.044 13.044 0 00-1.357-5.57c0-.028.029-.056.029-.084a28.148 28.148 0 00-.114-5.118zm-.225-.225c.113 1.64.14 3.279.028 4.947-.17-.31-.368-.594-.537-.905-.085-1.385.113-2.714.508-4.043zm-.795 3.618c-.34-.48-.735-.961-1.16-1.385.199-.961 1.188-1.357 1.725-2.036-.424 1.103-.593 2.262-.565 3.421zm-6.05-5.881c.226.254.48.452.791.678 1.216.848 2.12 1.583 2.8 2.856a.216.216 0 00-.057.141c.028 1.018-.34 1.923-.848 2.77-.227-1.328-.481-2.685-1.018-3.9-.424-.962-1.046-1.754-1.668-2.546z" fill="#DAAE59"/><path d="M45.829 22.59c-.537-.565-1.3-.848-1.81-1.413-.056-1.386-.14-2.743-.225-4.128.65 1.102 1.47 2.007 1.922 3.251.424 1.16.622 2.403.876 3.62 0 .056.057.084.085.112-.028.057-.085.113-.113.17a3.104 3.104 0 00-.735-1.612zm-2.29-5.823v-.057c.028 1.357.085 2.686.141 4.043a.215.215 0 01-.056-.113c-.085-.17-.311-.113-.368.057-.085.31-.226.565-.395.848-.029-.028-.029-.057-.057-.057-.085-1.64.198-3.166.735-4.721zm-1.051 4.099c-.282-.594-.735-1.102-1.187-1.583.085.028.17-.028.17-.113.028-.368.197-.622.424-.848.084 0 .14-.057.17-.17.254-.226.536-.424.79-.65.114-.085.199-.198.283-.283-.452 1.16-.65 2.403-.65 3.647zm-.053 1.244c-.255.311-.537.594-.792.905a8.574 8.574 0 00-1.385-4.213c.933 1.018 2.035 1.838 2.177 3.308z" fill="#DAAE59"/><path d="M39.606 18.237c1.046 1.555 1.611 3.223 1.724 5.146-.198.254-.395.509-.537.791a12.013 12.013 0 01-.82-.876v-.028c.17-1.669.029-3.393-.367-5.033zm-1.128 3.364c0 .029-.029.057-.029.057.142-1.3.425-2.488.877-3.76a25.27 25.27 0 01.34 5.06c-.312-.395-.595-.848-.764-1.357-.085-.198-.34-.198-.424 0zm-2.348 3.11c.48-2.403 1.441-4.58 2.826-6.588.057-.028.085-.085.142-.17-.679 1.358-1.018 2.913-1.018 4.411-.509.792-1.244 1.555-1.95 2.347z" fill="#DAAE59"/><path d="M35.596 25.276c-.283-.31-.622-.678-.933-1.046 0-.028 0-.056-.028-.113-.368-.65 1.442-2.77 1.81-3.223.423-.537.904-1.018 1.356-1.527a15.257 15.257 0 00-2.092 5.74c-.028.085-.085.141-.113.17z" fill="#DAAE59"/><path d="M35.51 21.63c-.283.396-1.075 1.385-1.216 2.12-.057-.085-.085-.141-.141-.226.65-1.753 1.724-3.054 3.081-4.184.113.028.255-.057.255-.198.31-.255.622-.481.96-.707-.027.056-.056.085-.084.141-1.046.961-2.035 1.923-2.855 3.054zm1.215-15.297c-4.043 4.298-6.898 10.32-4.015 15.946a10.616 10.616 0 00-1.866 2.036c-.876-2.742-1.3-5.457-.65-8.312.594-2.602 1.923-5.005 3.675-6.984.82-.961 1.838-1.838 2.856-2.686z" fill="#DAAE59"/><path d="M34.011 23.213c-.198-.453-.254-.933-.028-1.442.057-.17-.085-.396-.283-.283-.226.17-.452.311-.678.509-3.195-6.418 1.244-12.78 5.626-17.304a21.917 21.917 0 00-3.732 7.323c-.848 2.828-1.583 6.447.085 9.104a6.755 6.755 0 00-.99 2.093z" fill="#DAAE59"/><path d="M39.014 4.722c-2.12 4.41-2.714 9.528-1.922 14.335-.566.424-1.13.82-1.555 1.357a2.133 2.133 0 00-.311.395c-1.414-2.799-.678-6.248.226-9.132.792-2.545 2.036-4.806 3.562-6.955z" fill="#DAAE59"/><path d="M40.74 2.149a.215.215 0 00.056-.113c-1.046 5.372-1.13 11.083-.198 16.483-.367-.424-.735-.848-1.017-1.329-.085-.141-.255-.113-.34 0-.452.679-1.13 1.16-1.809 1.668-.876-5.909.396-11.592 3.308-16.71z" fill="#DAAE59"/><path d="M40.966 18.887c-.792-5.994-.679-11.762.282-17.728.057-.113.085-.226.142-.367.028.113.085.226.113.339.17 2.545.34 5.061.396 7.606.056 3.082-.113 6.135-.17 9.217-.028.028-.056.056-.056.085-.312.339-.453.593-.453 1.074v.028a1.08 1.08 0 01-.254-.254zm4.299-1.245c-.594-.395-1.103-.876-1.329-1.583a.19.19 0 00-.34-.028c-.423.678-.96 1.103-1.498 1.583.481-4.891.396-10.037-.141-14.985 1.64 4.892 3.166 9.868 3.308 15.013z" fill="#DAAE59"/><path d="M44.386 9.274c-.707-2.686-1.527-5.344-2.544-7.945-.057-.453-.114-.877-.17-1.329.028.057.056.085.056.113.283 1.499 1.244 2.658 2.036 3.958a28.806 28.806 0 012.516 5.344c1.244 3.506 1.527 7.012 1.612 10.688a5.552 5.552 0 00-1.075-1.358c-.339-.31-.735-.565-1.159-.82v-.028c.113-2.94-.537-5.852-1.272-8.623zm6.081-.284c3.195 3.394 4.947 8.002 4.58 12.64-.085.056-.113.112-.113.197 0 .057.028.141.085.17 0 .085-.029.17-.029.282a9.026 9.026 0 00-1.3-1.95c.283-3.167-.707-6.023-2.601-8.567-2.092-2.8-4.382-5.599-6.757-8.171 1.894 1.894 4.269 3.42 6.135 5.4z" fill="#DAAE59"/><path d="M44.865 5.23c-.735-1.328-1.781-2.544-2.46-3.93.312.453.65.906.99 1.301 0 .029 0 .029.028.029 0 .028.029.028.029.028.198.226.395.424.593.622-.056 0-.113.056-.085.113 3.62 5.118 9.471 9.698 9.302 16.427-.622-.622-1.357-1.16-2.177-1.498-.17-.085-.368.056-.311.254.113.65-.764 1.385-1.131 1.725-.226.198-.452.367-.622.594-.113.197-.198.339-.226.48a7.344 7.344 0 00-.48-.424c-.057-.141-.114-.311-.199-.452.085 0 .142-.085.17-.17.396-3.478-.283-7.238-1.385-10.546a34.432 34.432 0 00-2.036-4.552zM46.48 28.5c-.594 1.668-1.866 3.393-1.781 5.23 0 .029 0 .057.028.057-.085.057-.141.142-.226.198a10.191 10.191 0 00-.028-3.817c.056 0 .084-.028.084-.113-.31-2.969 2.319-4.778 3.28-7.266-.283 1.95-.707 3.873-1.357 5.711z" fill="#DAAE59"/><path d="M47.156 27.566c.565-1.922.876-3.901.933-5.88v-.057c.96 3.732.82 7.436-.962 10.913-.395.114-.735.198-1.017.34-.396.17-.735.396-1.075.65.057-1.98 1.584-4.128 2.12-5.966z" fill="#DAAE59"/><path d="M48.626 22.562c.594 1.075 1.3 2.064 1.697 3.308.593 1.951.593 3.902.198 5.881-.962.283-2.008.48-2.912.679 1.47-3.054 1.95-6.616 1.017-9.868z" fill="#DAAE59"/><path d="M50.832 26.464c-.481-1.894-1.612-3.195-2.488-4.863 2.572 2.488 4.014 5.824 3.93 9.443a7.845 7.845 0 01-1.386.594 11.04 11.04 0 00-.056-5.174zm-6.616-9.217c-.056-.085-.113-.142-.17-.226.057.084.114.17.17.226zM26.403 36.02c0-.028 0-.028-.028-.056.028 0 .028.028.028.056z" fill="#DAAE59"/></svg>