<svg width="40" height="40" fill="none" xmlns="http://www.w3.org/2000/svg"><rect width="39.375" height="39.375" rx="19.688" fill="#71164E"/><path fill-rule="evenodd" clip-rule="evenodd" d="M29.004 13.24c.25.634.41 1.347.462 2.391.051 1.01.053 1.352.065 3.8l.001.256c0 2.67 0 3.013-.053 4.057-.052 1.044-.224 1.77-.462 2.392a4.848 4.848 0 01-1.136 1.744 4.678 4.678 0 01-1.744 1.136c-.635.251-1.348.41-2.392.462h-.005c-1.04.04-1.387.053-4.051.053-2.67 0-3.013 0-4.057-.053-1.044-.053-1.77-.224-2.391-.462a4.846 4.846 0 01-1.745-1.136 4.68 4.68 0 01-1.136-1.744c-.251-.635-.41-1.348-.462-2.392v-.005c-.04-1.04-.053-1.387-.053-4.052 0-2.664.013-3.008.052-4.036v-.02c.053-1.044.225-1.77.463-2.392a4.848 4.848 0 011.136-1.744 4.678 4.678 0 011.745-1.136c.634-.251 1.347-.41 2.391-.462l.02-.001c1.028-.04 1.372-.052 4.037-.052 2.651 0 2.994.013 4.022.052h.02c1.044.053 1.771.225 2.392.463a4.847 4.847 0 011.744 1.136 4.68 4.68 0 011.137 1.745zM14.64 19.686a5.047 5.047 0 1010.095 0 5.047 5.047 0 10-10.095 0zm9.117-5.245a1.18 1.18 0 001.176 1.176c.66 0 1.19-.529 1.176-1.176 0-.648-.529-1.176-1.176-1.176-.647 0-1.176.528-1.176 1.176zm-.962 4.21a3.277 3.277 0 11-6.218 2.072 3.277 3.277 0 016.218-2.073z" fill="#fff"/></svg>