<svg width="29" height="29" fill="none" xmlns="http://www.w3.org/2000/svg"><rect width="28.125" height="28.125" rx="14.063" fill="#71164E"/><path fill-rule="evenodd" clip-rule="evenodd" d="M20.716 9.457c.18.453.293.962.33 1.708.037.721.038.966.047 2.714v.184c0 1.906 0 2.151-.037 2.897-.038.745-.16 1.265-.33 1.708a3.46 3.46 0 01-.812 1.246 3.343 3.343 0 01-1.246.812c-.453.179-.962.292-1.708.33h-.004c-.742.028-.99.038-2.893.038-1.907 0-2.152 0-2.898-.038-.745-.038-1.265-.16-1.708-.33a3.463 3.463 0 01-1.246-.812 3.342 3.342 0 01-.812-1.246c-.179-.453-.292-.962-.33-1.708v-.004c-.028-.742-.038-.99-.038-2.893 0-1.904.01-2.15.037-2.883l.001-.015c.038-.745.16-1.265.33-1.708.18-.463.425-.86.812-1.246a3.343 3.343 0 011.246-.812c.453-.179.962-.292 1.708-.33h.015c.734-.028.98-.038 2.883-.038 1.893 0 2.139.01 2.873.037l.015.001c.745.038 1.264.16 1.708.33.462.18.859.425 1.246.812.396.387.632.783.811 1.246zm-10.259 4.605a3.605 3.605 0 107.21.001 3.605 3.605 0 00-7.21 0zm6.512-3.746c0 .462.378.84.84.84a.83.83 0 00.84-.84.842.842 0 00-.84-.84.842.842 0 00-.84.84zm-.686 3.006a2.34 2.34 0 11-4.44 1.48 2.34 2.34 0 014.44-1.48z" fill="#fff"/></svg>