<svg width="704" height="1072" fill="none" xmlns="http://www.w3.org/2000/svg"><g clip-path="url(#clip0)" fill="#FCEEAA"><path d="M498.98 288.676c22.362 0 43.376-8.621 59.003-24.517 32.599-32.599 32.599-85.675 0-118.275-15.896-15.895-36.911-24.517-59.003-24.517-22.362 0-43.377 8.622-59.003 24.517-15.895 15.896-24.517 36.911-24.517 59.003 0 22.362 8.622 43.377 24.517 59.003 15.626 16.165 36.641 24.786 59.003 24.786zm-49.034-132.554c13.201-13.201 30.713-20.475 49.034-20.475 18.59 0 36.102 7.274 49.034 20.475 27.211 27.212 27.211 71.127 0 98.338-13.201 13.202-30.714 20.476-49.034 20.476-18.59 0-36.102-7.274-49.034-20.476-13.202-13.201-20.476-30.714-20.476-49.034 0-18.859 7.274-36.372 20.476-49.304zm-182.393 8.622c7.005 1.886 14.279 2.963 21.823 2.963 37.718 0 70.857-25.594 80.825-61.966 11.855-44.454-14.548-90.525-59.002-102.379C304.194 1.476 296.92.398 289.645.398c-37.718 0-70.857 25.595-80.825 61.967-5.658 21.553-2.695 44.184 8.352 63.313 10.776 19.398 28.827 33.408 50.381 39.066zm-45.532-98.608c8.083-30.444 35.833-51.458 67.085-51.458 5.928 0 12.124.808 18.051 2.424 36.911 9.969 59.003 48.226 49.035 85.137-8.083 30.444-35.833 51.459-67.086 51.459a69.34 69.34 0 01-18.051-2.425c-18.051-4.85-32.869-16.435-42.298-32.33-9.161-16.166-11.585-35.025-6.736-52.806zM46.895 167.707c7.274 0 14.549-1.077 21.823-2.963 21.553-5.658 39.605-19.668 50.651-39.066 11.046-19.398 14.01-41.76 8.352-63.313C118.022 25.993 84.883.398 46.895.398c-7.274 0-14.549 1.078-21.553 2.964C3.788 9.02-14.263 23.03-25.31 42.428c-11.046 19.398-14.01 41.76-8.352 63.313 9.699 36.372 42.837 61.966 80.556 61.966zm-60.08-118.544c9.16-16.165 24.248-27.48 42.298-32.33a67.813 67.813 0 0118.052-2.425c31.252 0 59.002 21.284 67.085 51.46 4.849 18.05 2.425 36.64-7.005 52.805-9.16 16.165-24.248 27.481-42.299 32.33a67.793 67.793 0 01-18.05 2.425c-31.254 0-59.004-21.284-67.086-51.459-4.85-17.781-2.425-36.64 7.005-52.806zm81.64 858.368c-7.005-1.886-14.279-2.964-21.822-2.964-37.72 0-70.858 25.595-80.826 61.967-11.854 44.456 14.549 90.526 59.003 102.376 7.005 1.89 14.279 2.97 21.823 2.97 37.718 0 70.857-25.6 80.825-61.97 5.658-21.553 2.694-44.185-8.352-63.313-11.046-19.398-29.097-33.139-50.65-39.066zm45.532 98.879c-8.082 30.44-35.832 51.46-67.085 51.46-5.927 0-12.124-.81-18.051-2.43-36.91-9.97-59.003-48.22-49.034-85.134 8.082-30.445 35.832-51.459 67.085-51.459 5.927 0 12.124.808 18.051 2.424 18.051 4.85 32.869 16.435 42.299 32.331 9.16 16.165 11.585 34.755 6.735 52.808zm175.39-102.909c-7.274 0-14.548 1.078-21.553 2.964-44.454 11.854-71.127 57.925-59.003 102.375 9.699 36.38 43.107 61.97 80.826 61.97 7.274 0 14.548-1.08 21.553-2.96 44.454-11.86 71.127-57.93 59.003-102.382-9.969-36.372-43.107-61.967-80.826-61.967zm17.782 150.879a68.076 68.076 0 01-18.051 2.42c-31.253 0-59.003-21.28-67.085-51.46-9.969-36.909 12.123-75.166 49.034-85.135a67.83 67.83 0 0118.051-2.425c31.252 0 59.002 21.285 67.085 51.46 9.969 36.91-11.854 75.17-49.034 85.14zm191.824-270.781c-22.362 0-43.376 8.621-59.003 24.517-32.599 32.599-32.599 85.675 0 118.274 15.896 15.896 36.911 24.517 59.003 24.517 22.362 0 43.376-8.621 59.003-24.517 32.599-32.599 32.599-85.675 0-118.274-15.627-15.896-36.641-24.517-59.003-24.517zm49.304 132.823c-13.202 13.201-30.714 20.476-49.035 20.476-18.589 0-36.102-7.275-49.034-20.476-27.211-27.211-27.211-71.127 0-98.338 13.202-13.201 30.714-20.476 49.034-20.476 18.59 0 36.103 7.275 49.035 20.476 26.942 26.942 26.942 71.127 0 98.338zm144.409-300.94c-11.046-19.399-29.097-33.139-50.65-39.066-7.005-1.886-14.28-2.964-21.823-2.964-37.719 0-70.857 25.595-80.826 61.966-5.658 21.554-2.694 44.185 8.352 63.314 11.046 19.398 29.097 33.138 50.651 39.066 7.005 1.886 14.279 2.963 21.553 2.963 37.719 0 70.857-25.595 80.826-61.966 5.927-21.284 2.964-43.915-8.083-63.313zm-5.388 59.81c-8.083 30.445-35.833 51.459-67.085 51.459a69.326 69.326 0 01-18.051-2.424c-18.051-4.85-32.87-16.435-42.299-32.331-9.16-16.165-11.855-34.755-7.005-52.806 8.083-30.444 35.833-51.459 67.085-51.459 5.927 0 12.124.809 18.051 2.425 18.051 4.85 32.869 16.435 42.299 32.33 9.43 16.165 11.854 35.025 7.005 52.806zM547.749 373.274c-11.046 19.398-14.01 41.76-8.352 63.313 9.699 36.372 42.838 61.967 80.826 61.967 7.274 0 14.548-1.078 21.553-2.964 44.454-11.854 71.127-57.925 59.003-102.379-9.699-36.372-42.838-61.966-80.826-61.966-7.274 0-14.548 1.077-21.553 2.963-21.284 5.927-39.335 19.668-50.651 39.066zm54.423-25.325a67.79 67.79 0 0118.051-2.425c31.252 0 59.002 21.284 67.085 51.459 9.968 36.91-12.124 75.168-49.034 85.136a67.8 67.8 0 01-18.051 2.425c-31.253 0-59.003-21.284-67.086-51.459-4.849-18.051-2.424-36.641 7.005-52.806 9.16-16.165 24.248-27.481 42.03-32.33z"/><path d="M258.924 120.021c3.233-3.503 6.466-6.736 9.699-10.238 2.964 2.963 5.658 5.927 8.621 9.16 6.197 7.005 16.435-3.233 10.238-10.238-2.694-3.233-5.657-6.197-8.621-9.16 11.316-11.585 22.631-23.17 34.216-34.486C312.808 70.986 312 76.914 312 83.11c0 9.43 14.279 9.43 14.548 0 0-6.735 1.078-13.201 1.078-19.937.269-7.274.269-16.434-6.197-21.015-5.388-3.771-14.01-3.233-20.206-2.963-6.197.27-12.393 1.078-18.59 1.078-9.43 0-9.43 14.548 0 14.548 5.119 0 9.968-.808 15.087-1.078 2.156 0 4.311-.269 6.466-.269-11.854 11.855-23.708 23.709-35.293 35.563-3.233-3.233-6.467-6.735-9.7-10.238-6.196-7.004-16.434 3.233-10.237 10.238 3.233 3.503 6.466 7.005 9.968 10.238-3.233 3.503-6.466 6.736-9.968 10.238-6.736 7.005 3.502 17.512 9.968 10.508zm200.722 65.199s.269 0 0 0c.269 0 .539 0 .539.269.269 0 .269.269.538.269.27.27.539.809.539 1.078 0 .27.27.808.539 1.078 0 .269.269.808.269 1.077 1.617 5.389 1.617 8.891 1.886 14.819.27 10.507-1.347 20.745-1.347 31.252 0 9.43 14.549 9.43 14.549 0 0-11.854 1.886-23.439 1.078-35.294-.27-3.502-.539-7.274-1.348-10.777 1.078-1.347 2.425-2.424 3.503-3.502l.808-.808h.27c.808-.539 1.347-.808 2.155-1.347h.269l.27.269.808 1.617c.269.269.27.538.539.808v.269c1.347 3.233 1.886 6.736 2.694 9.969.27.808.269 1.616.539 2.425v.269c0 .269 0 .808.269 1.078.27 2.155.539 4.041.539 6.196.27 3.772.539 7.544.539 11.316.269 5.927 0 11.854 0 17.781 0 9.43 14.549 9.43 14.549 0 0-15.626.538-31.791-3.233-47.148-.27-.808-.539-1.616-.539-2.425h.269l1.617-.808h.269c.808-.269 1.886-.539 2.694-.808.27 0 .809-.269 1.078-.269h1.347c.269 0 .539 0 .808.269.27 0 .27.269.539.269.27 0 .27.27.539.27 0 .269.269.269.269.539.27.269.27.538.539.808 0 .269.539 1.078.539 1.616.539 1.617.808 3.233 1.078 4.85 0 .269.269 1.347.269 1.616 0 .539.27 1.348.27 1.886.269 1.886.269 3.772.538 5.928.539 11.315-.808 37.449 17.782 33.138 4.041-.808 7.544-3.772 10.777-6.197 4.849-4.041 9.16-8.621 13.201-13.201 6.197-7.005-4.041-17.243-10.238-10.238-4.041 4.58-8.352 9.43-13.201 13.202l-.27.269c-.269.269-.538.539-.808.539-.269.269-.539.539-1.077.539 0-.539-.27-1.078-.27-1.617 0-.269-.269-1.078-.269-1.347 0-.539 0-1.347-.27-1.886-1.347-14.01 1.617-33.677-11.046-43.376-7.005-5.389-16.434-2.425-23.709 1.077-1.616-1.347-3.233-2.694-5.388-3.502-6.736-2.425-13.202 1.078-18.321 5.658-2.694-2.694-6.196-4.311-10.776-4.311-9.43-.269-9.43 14.279 0 14.549zm114.237 241.129h13.74c1.078 0 2.155-.269 2.964-.539 6.466 2.694 14.009-5.927 7.813-11.854-2.964-2.964-4.311-5.658-4.311-8.891 0-3.502 1.617-7.005 4.041-10.507 2.156-2.964 5.389-5.928 8.352-7.814 1.617-1.077 3.772-2.155 5.119-2.694 1.078-.269 1.886-.539 2.964-.808.269 0 .808-.269 1.078-.269h.808c8.891-.539 16.704 2.694 21.014 9.699 4.311 7.005 2.964 16.434-1.347 23.978-3.233 5.927 2.425 11.316 7.544 10.777h18.321c9.429 0 9.429-14.549 0-14.549h-8.622c2.425-9.16 1.617-18.859-2.963-27.75-6.736-12.124-20.746-17.782-34.217-16.973-20.745 1.347-40.143 23.978-35.024 43.376h-7.005c-9.429.269-9.429 14.818-.269 14.818zm82.437 10.777h-77.862c-9.43 0-9.43 14.548 0 14.548h77.862c9.43-.269 9.43-14.548 0-14.548zm2.961 230.622c-2.694 2.964-5.119 5.928-8.082 8.891 2.694-8.352 6.735-16.434 9.16-24.786 1.616-5.927 1.616-12.663-3.233-17.243-5.389-5.119-14.01-5.388-21.284-5.388-.809-1.886-2.156-3.503-3.233-5.389-7.814-9.699-20.476-6.196-29.906-.808-.269 0-.269-.269-.539-.269-5.927-3.772-12.393-2.156-18.051 1.077-.808-.539-1.886-1.077-2.963-1.616-3.503-1.617-7.814-1.078-9.969 2.694-1.886 3.233-1.078 8.352 2.694 9.968.27 0 1.617 1.078 1.617.809l1.077 1.077c-.538-.538.809 1.078.809 1.347.808 1.617.269.539.808 2.156 1.616 4.849 1.886 8.891 2.155 14.01.27 5.119 0 10.237-.269 15.356l-.808 7.275v1.616c-.27 1.078-.27 1.886-.539 2.964-.539 3.772 1.077 7.813 5.119 8.891 3.502 1.077 8.352-1.078 8.891-5.119 1.885-11.046 2.963-22.362 2.155-33.678-.27-4.849-1.078-10.507-2.694-15.626.269 0 .269-.269.269-.269h.27c.269 0 .808-.27 1.077-.27h1.347l.27.27c.269.269.539.808.808 1.077.269.539.539 1.078 1.078 1.886 0 .27.269.27.269.539v.27c1.078 2.963 1.886 6.196 2.425 9.429 0 .539.269 1.347.269 1.886 0 .27 0 .808.27 1.078v.269c.269 1.886.269 3.772.539 5.658.269 3.502.538 7.274.538 10.777.27 5.119 0 10.507.539 15.626.27 4.041 2.964 7.274 7.275 7.274 3.771 0 7.543-3.233 7.274-7.274-1.078-14.549-.27-28.828-3.503-43.376-.538-2.156-1.077-4.311-1.886-6.466 1.078-.539 2.156-1.078 2.964-1.617 1.078-.539 2.425-.808 3.772-1.078-1.347.27 2.155.27 1.616 0 .27 0 .27 0 .539.27h.27c.269 0 .539.269.808.539l.808.808c.27.539.539.808.809 1.347.269.539.538.808.538 1.347-.269-.539.27.808.539 1.078 1.886 5.658 2.156 9.16 2.425 14.818.269 6.196-.269 12.662-.269 18.859 0 6.736.538 15.896 4.58 21.823-1.347 3.772-2.695 7.274-4.58 10.777-1.617 3.502-1.078 7.813 2.694 9.968 3.233 1.886 8.082 1.078 9.968-2.694 1.886-4.041 3.772-8.083 5.119-12.124 4.311-.808 8.083-3.772 11.316-6.196 5.388-4.042 9.968-9.43 14.279-14.549 5.927-6.736-4.311-16.973-10.238-9.969zm-12.393-22.361c0-1.347-.27 1.347-.27 1.886-.269 1.347-.808 2.694-1.347 4.041-1.347 4.041-2.963 7.813-4.31 11.854 0-2.424.269-4.58 0-7.004 0-4.042-.27-8.352-.809-12.394 1.347 0 2.425.27 3.233.27 1.078.269 1.886.539 2.695.808.269 0 .269.269.538.269.27 0 .27.27.27.27zM531.579 877.895c-.539 2.964-1.347 4.311-3.503 5.658-1.616 1.077-3.772.808-5.388.269-1.078-.539-1.617-1.077-2.425-2.155-.269-.539-.539-1.078-1.078-1.347.27.539 0-.27-.269-.808 0-.27-.269-1.617-.269-1.617v-2.694c0-2.155.269-4.58.538-6.736.809-7.543 1.348-15.087-1.616-22.361-2.964-7.005-7.544-12.933-13.471-17.513-11.316-8.352-26.403-8.082-34.486 4.311-4.31 6.466-5.388 15.088-4.041 22.631.808 3.772 2.156 7.813 3.503 11.585-5.389-1.077-11.047.27-15.088 6.466-5.119 7.544-3.772 19.399.27 26.942 5.927 10.777 18.32 11.855 28.558 6.197 15.087-8.622 7.274-27.211 2.155-39.335-1.077-2.695-2.424-5.658-3.502-8.891-.539-1.617-1.078-2.964-1.347-4.58-.27-.809-.27-1.347-.539-2.156v-.808c-.269-2.963.539-5.658 1.886-8.891 0-.269 1.078-1.886 1.616-2.963-.269.539.809-.809.809-.809l.269-.269s.269 0 .269-.269c.27-.27.809-.539 1.078-.539-.539.269.808-.27 1.078-.27h2.694c.539 0 1.347.27 1.886.539 0 0 1.078.27 1.078.539.538.269.808.539 1.347.808 4.58 2.425 7.813 6.197 10.507 11.316.269.808.808 1.886 1.347 3.502.539 1.886.539 1.617.539 3.233 0 3.772-.269 7.544-.808 11.316-.809 7.544-1.078 15.087 3.502 21.284 10.507 14.549 33.677 9.969 37.449-7.813 1.347-8.891-12.662-12.932-14.548-3.772zm-54.423 13.74c0 .539-.269 1.078-.539 1.617.27-.808-.538.269-.538.269-.539.539-.539.539-.27 0-.539.27-1.347.809-1.886 1.078-.269 0-.539.269-.808.269 0 0-.27 0-.539.27-.269 0-1.886.539-2.155.539h-.539s-.539 0-1.078-.27c-.269 0-.539-.269-.808-.269l-.539-.539-.539-.539c-.539-.539-.808-1.347-1.077-1.886v-.539c-.27-.808-.539-1.616-.539-2.155 0-.269-.27-1.347-.27-1.616v-4.042c0-.808.27-1.347.539-2.155 0-.27.27-.27.27-.539 0 0 .269-.269.269-.539h1.078s.269.27.539.27c2.424 1.347 2.963 1.886 4.849 3.502 1.347 1.078 2.425 1.617 3.772 1.886.269.808.539 2.425.539 2.425.269 1.347.269 2.155.269 2.963zm-184.01 84.328c2.424-6.466 1.077-13.201-2.156-19.128 2.694-.27 5.389-.539 8.352-.539 4.85-.27 9.969-.809 14.818-1.347 3.772-.539 5.927-5.389 5.119-8.891-1.077-4.041-5.119-5.658-8.891-5.119h-.808c-1.078 0-1.886.269-2.963.269-2.695.27-5.119.539-7.814.539-6.466.539-13.201 1.078-19.667 1.886-12.124 1.617-25.326 4.041-34.755 12.124-9.16 7.813-8.891 22.9.269 30.714 8.622 7.274 21.823 8.082 32.33 4.041 7.005-2.694 13.202-7.274 16.166-14.549zm-17.782-.539l-1.617.809c-.269.269-.538.269-.538.269h-.27c-1.078.539-2.155.808-3.502 1.078-.539 0-2.694.539-2.694.539-1.078 0-2.156.269-2.964.269h-1.886c-.269 0-1.078 0-1.617-.269-.808-.27-1.885-.27-2.694-.539-.269 0-.539-.27-.808-.27.539.27-.539-.269-.808-.538-.539-.27-.808-.539-1.347-.809h-.27l-1.077-1.077s-.27-.27-.27-.539c0-.27-.269-.808-.539-.808 0-.27-.269-.539-.269-.809 0-.269-.27-.808-.27-1.077v-1.617c0-.269.27-.808.27-1.078v-.269c0-.269.808-1.078.808-1.347l1.617-1.617c-.809.539 1.616-1.077 2.155-1.347.808-.539 1.886-1.077 2.964-1.616 0 0 1.077-.539 1.347-.539.808-.269 1.616-.539 2.694-.808 4.041-1.347 8.082-2.425 11.854-2.964.27.539.539 1.347.809 1.886 1.886 2.964 2.694 4.041 3.502 6.735 0 .27 0 .539.269 1.078v1.347c0 .539-.269 1.078-.538 1.617.269-.539-.27.539-.809 1.347-.269 0-1.347 1.347-1.616 1.886l-.539.539c-.808 0-1.078.269-1.347.538zm65.468 12.394c-8.621-7.275-21.823-8.083-32.33-4.042-7.274 2.694-13.471 7.544-16.165 14.818-2.425 6.466-1.078 13.206 2.155 19.126-2.694.27-5.388.54-8.352.54-4.849.27-9.968.81-14.818 1.35-3.772.54-5.927 5.39-5.119 8.89 1.078 4.04 5.119 5.66 8.891 5.12h.808c1.078 0 1.886-.27 2.964-.27 2.694-.27 5.119-.54 7.813-.54 6.466-.54 13.201-1.08 19.667-1.89 12.124-1.61 25.326-4.04 34.755-12.12 9.43-8.08 8.891-23.169-.269-30.982zm-7.274 16.702c0 .27-.27.81-.27 1.08v.27c0 .27-.808 1.08-.808 1.35-.539.53-1.078 1.07-1.616 1.61.808-.54-1.617 1.08-2.156 1.35-.808.54-1.886 1.08-2.963 1.62 0 0-1.078.53-1.347.53-.809.27-1.617.54-2.695.81-4.041 1.35-8.082 2.43-11.854 2.97-.27-.54-.539-1.35-.808-1.89-1.886-2.96-2.695-4.04-3.503-6.74 0-.26 0-.53-.269-1.07v-1.35c0-.54.269-1.08.539-1.62-.27.54.269-.54.808-1.34.269 0 1.347-1.35 1.616-1.89l.539-.538c.27-.27.808-.539 1.078-.808l1.616-.809c.27-.269.539-.269.539-.269h.27c1.077-.539 2.155-.808 3.502-1.078.539 0 2.694-.539 2.694-.539 1.078 0 2.156-.269 2.964-.269h1.886c.269 0 1.078 0 1.616.269.809.27 1.886.27 2.695.539.269 0 .538.27.808.27-.539-.27.539.269.808.539.539.269.808.538 1.347.808h.27l1.077 1.077s.27.27.27.539.269.809.539.809c0 .27.269.54.269.81s.269.81.269 1.08v1.07c.27.27.27.54.27.81zM68.177 943.364c-4.85 5.119-12.663 5.119-20.207 4.58-7.813-.808-15.895-3.772-22.63-7.813-8.083-4.85-15.088 7.543-7.275 12.393 1.347.808 2.963 1.616 4.31 2.425v63.581c-3.233 1.62-6.466 3.77-9.43 6.2-2.963 2.42-2.693 7.54 0 10.24 2.964 2.96 7.275 2.42 10.239 0 11.315-9.43 27.211-7.55 36.64 3.5 6.198 7 16.435-3.23 10.239-10.24-2.425-2.69-5.12-5.12-8.083-7v-59.007c6.197-1.347 11.855-3.772 16.165-8.621 6.736-6.736-3.502-16.974-9.968-10.238zM47.7 1015.03c-1.347-.27-2.694-.54-4.041-.54a25.91 25.91 0 00-6.466 0v-53.614c3.502 1.078 7.005 1.616 10.776 2.155v51.999h-.27zM21.301 95.773c2.425-3.503 5.12-5.658 9.16-6.736-1.077 6.736-.808 13.74 1.078 19.937 4.31 12.932 17.243 16.974 29.636 13.202 5.927-1.886 10.507-5.389 12.932-11.316 1.886-4.849.539-9.968-1.616-14.549-4.311-9.16-14.28-16.165-23.979-19.667 1.078-2.964 2.425-5.658 4.042-8.622.808-1.347 1.616-2.694 2.424-3.771.27-.27.54-.809.809-1.078 0 0 .808-1.078 1.077-1.347a12.772 12.772 0 012.695-2.694h.269l1.616-.809c7.544-4.31 2.156-14.818-5.657-13.201-9.7 1.886-25.056 2.694-32.87-5.12-6.735-6.465-16.973 3.773-10.237 10.239 7.274 7.005 17.512 9.968 28.02 10.238-2.425 4.31-4.311 8.89-5.928 12.932 0 .27 0 .27-.27.539-10.237.27-19.398 5.119-25.325 14.279-5.657 8.082 6.736 15.357 12.124 7.544zm23.17-2.156c0-.808 0-1.347.27-2.155v-.808c.269 0 .269 0 .538.27.54.268.809.538 1.347.538 1.078.539 2.156 1.078 3.233 1.886 2.964 1.886 2.695 1.616 5.389 4.041l2.425 2.425s.27.269.538.539c.27.269.54.539.54.808.538.539.808 1.347 1.077 1.886-.27-.27.27.808.539 1.616v1.078s0 .27-.27.27l-.538.538c-.27.27-.809.539-1.347.809l-1.078.538c-.539.27-1.347.27-1.886.539 0 0-1.617.27-1.347.27h-3.772c-.539 0-1.078-.27-1.617-.539 0 0-.269-.27-.538-.27 0 0-.27-.269-.54-.269l-.807-.808c-.27-.539-.54-.808-.809-1.347l-.27-.539c0-.27-.269-.808-.269-1.078-.269-.539-.269-1.078-.538-1.616 0-.27-.27-1.347-.27-1.617-.27-2.155-.27-4.58 0-7.005z"/></g><defs><clipPath id="clip0"><path fill="#fff" transform="translate(-367.739 .398)" d="M0 0h1071.48v1071.48H0z"/></clipPath></defs></svg>