<svg width="40" height="40" fill="none" xmlns="http://www.w3.org/2000/svg"><rect width="39.375" height="39.375" rx="19.688" fill="#71164E"/><path fill-rule="evenodd" clip-rule="evenodd" d="M25.093 29.504c1.376.602 1.892-.66 1.892-.66l3.64-18.29c-.028-1.232-1.69-.487-1.69-.487L8.55 18.066s-.975.344-.889.946c.086.602.86.888.86.888l5.132 1.72s1.548 5.075 1.863 6.05c.287.945.545.974.545.974.287.115.545-.086.545-.086l3.325-3.01 5.16 3.956zm.887-15.71s.717-.43.688 0c0 0 .115.057-.258.459-.344.344-8.457 7.625-9.546 8.6a.301.301 0 00-.144.258l-.315 2.695c-.057.287-.43.315-.516.057l-1.347-4.415a.422.422 0 01.172-.487l11.266-7.167z" fill="#fff"/></svg>