<svg width="29" height="29" fill="none" xmlns="http://www.w3.org/2000/svg"><rect width="28.125" height="28.125" rx="14.063" fill="#71164E"/><path fill-rule="evenodd" clip-rule="evenodd" d="M17.923 21.075c.983.43 1.351-.471 1.351-.471l2.601-13.065c-.02-.88-1.208-.348-1.208-.348l-14.56 5.713s-.696.246-.634.676c.061.43.614.634.614.634l3.665 1.23s1.106 3.624 1.331 4.32c.205.676.39.696.39.696.204.082.388-.061.388-.061l2.376-2.15 3.686 2.826zm.636-11.222s.512-.307.491 0c0 0 .082.04-.184.328-.246.245-6.04 5.447-6.82 6.143a.215.215 0 00-.101.184l-.226 1.925c-.04.205-.307.225-.368.04l-.963-3.153a.301.301 0 01.123-.348l8.048-5.12z" fill="#fff"/></svg>