<svg width="29" height="29" fill="none" xmlns="http://www.w3.org/2000/svg"><rect width="28.125" height="28.125" rx="14.063" fill="#71164E"/><path d="M20.278 7.876c-.413-.38-2.087-1.597-5.819-1.614 0 0-4.398-.267-6.542 1.7C6.723 9.158 6.303 10.9 6.26 13.069c-.044 2.164-.1 6.222 3.81 7.323h.004l-.003 1.677s-.024.68.423.817c.54.167.86-.35 1.377-.907.284-.307.674-.754.97-1.097 2.675.223 4.733-.29 4.966-.367.54-.177 3.598-.567 4.095-4.625.513-4.175-.25-6.82-1.624-8.013zm.454 7.72c-.42 3.387-2.898 3.6-3.355 3.748-.194.063-2 .513-4.275.363 0 0-1.694 2.044-2.22 2.574-.084.084-.18.117-.244.1-.09-.023-.117-.13-.114-.286 0-.227.014-2.791.014-2.791-.004 0-.004 0 0 0-3.311-.917-3.118-4.372-3.081-6.18.036-1.807.376-3.29 1.387-4.288 1.81-1.64 5.549-1.397 5.549-1.397 3.154.014 4.665.964 5.015 1.28 1.163 1.001 1.757 3.385 1.323 6.877z" fill="#fff"/><path d="M15.997 13.188a.212.212 0 01-.21-.2c-.037-.717-.373-1.067-1.06-1.104a.212.212 0 01.023-.423c.907.05 1.414.57 1.46 1.503a.207.207 0 01-.2.22c-.006.004-.01.004-.013.004z" fill="#fff"/><path d="M17.078 13.548h-.004a.212.212 0 01-.206-.216c.016-.72-.19-1.304-.63-1.785-.438-.48-1.041-.74-1.838-.796a.21.21 0 01-.193-.227.21.21 0 01.226-.194c.9.067 1.61.38 2.118.934.51.557.757 1.254.74 2.078a.214.214 0 01-.213.206z" fill="#fff"/><path d="M18.185 13.982a.21.21 0 01-.21-.21c-.01-1.291-.38-2.275-1.134-3.012-.743-.727-1.687-1.097-2.797-1.107a.212.212 0 010-.423c1.223.01 2.264.42 3.087 1.227.827.807 1.25 1.92 1.264 3.308a.209.209 0 01-.21.216c.003 0 .003 0 0 0zm-3.408 1.817s.297.027.457-.17l.31-.39c.15-.194.514-.317.867-.12.197.11.554.33.774.493.236.174.717.574.72.577.23.193.283.477.127.78v.007c-.16.283-.377.55-.647.797-.004 0-.004.003-.007.003-.223.187-.443.294-.657.317-.026.007-.056.007-.096.007a.908.908 0 01-.28-.044l-.007-.01c-.334-.093-.887-.326-1.808-.837-.6-.33-1.097-.667-1.52-1.003a7.769 7.769 0 01-.754-.677l-.023-.024c-.23-.233-.43-.46-.607-.683a10.54 10.54 0 01-1.004-1.52c-.51-.924-.743-1.478-.837-1.808l-.01-.007a.908.908 0 01-.043-.28c0-.04 0-.07.007-.097.026-.216.133-.433.316-.656 0-.004.004-.004.004-.007a3.16 3.16 0 01.797-.647h.006c.3-.157.584-.103.78.127 0 0 .404.483.578.72.163.223.383.577.493.774.197.353.073.716-.12.867l-.39.31c-.197.16-.17.457-.17.457s.577 2.194 2.744 2.744z" fill="#fff"/></svg>