<svg width="40" height="40" fill="none" xmlns="http://www.w3.org/2000/svg"><rect width="39.375" height="39.375" rx="19.688" fill="#71164E"/><path d="M28.389 11.027c-.58-.533-2.923-2.237-8.147-2.26 0 0-6.157-.373-9.159 2.38-1.671 1.672-2.26 4.114-2.32 7.148-.06 3.03-.14 8.711 5.336 10.252h.004l-.004 2.348s-.033.952.593 1.144c.756.233 1.204-.49 1.928-1.27.396-.43.943-1.055 1.358-1.536 3.744.313 6.625-.406 6.951-.513.757-.248 5.038-.794 5.733-6.475.72-5.845-.35-9.547-2.273-11.219zm.635 10.807c-.589 4.743-4.057 5.042-4.697 5.247-.27.089-2.8.719-5.985.509 0 0-2.371 2.862-3.109 3.604-.117.117-.252.163-.34.14-.127-.033-.164-.182-.16-.402 0-.317.02-3.907.02-3.907-.005 0-.005 0 0 0-4.636-1.284-4.366-6.12-4.314-8.65.051-2.53.527-4.608 1.942-6.004 2.535-2.297 7.768-1.956 7.768-1.956 4.416.019 6.531 1.35 7.021 1.793 1.63 1.4 2.46 4.738 1.854 9.626z" fill="#fff"/><path d="M22.396 18.463a.296.296 0 01-.294-.28c-.051-1.004-.523-1.494-1.485-1.545a.297.297 0 01.033-.593c1.27.07 1.98.798 2.045 2.105a.29.29 0 01-.28.309c-.01.004-.014.004-.019.004z" fill="#fff"/><path d="M23.909 18.968h-.005a.297.297 0 01-.29-.304c.024-1.008-.265-1.825-.882-2.498-.611-.672-1.456-1.036-2.572-1.115a.294.294 0 01-.27-.318.294.294 0 01.317-.27c1.26.093 2.255.532 2.964 1.307.714.78 1.06 1.755 1.037 2.908a.299.299 0 01-.3.29z" fill="#fff"/><path d="M25.459 19.574a.293.293 0 01-.294-.294c-.014-1.806-.532-3.184-1.587-4.215-1.041-1.018-2.363-1.536-3.917-1.55a.297.297 0 010-.593c1.713.014 3.17.588 4.323 1.718 1.157 1.13 1.75 2.689 1.769 4.63a.292.292 0 01-.294.304c.005 0 .005 0 0 0zm-4.773 2.544s.416.038.64-.238l.434-.546c.21-.27.719-.443 1.214-.168.275.154.775.462 1.083.691.331.243 1.004.803 1.008.808.322.27.397.667.178 1.092v.01a4.56 4.56 0 01-.906 1.115c-.005 0-.005.005-.01.005-.312.261-.62.41-.919.443-.037.01-.08.01-.135.01-.131 0-.262-.02-.393-.061l-.009-.014c-.467-.13-1.242-.458-2.53-1.172a15.023 15.023 0 01-2.129-1.405c-.313-.247-.63-.523-.957-.85l-.033-.032-.032-.033-.033-.033-.033-.032a11.717 11.717 0 01-.85-.957 14.764 14.764 0 01-1.405-2.13c-.714-1.292-1.04-2.067-1.171-2.53l-.014-.009a1.272 1.272 0 01-.061-.392c0-.056 0-.098.01-.135.037-.304.186-.607.443-.92 0-.005.005-.005.005-.01a4.45 4.45 0 011.115-.905h.01c.42-.22.817-.145 1.092.177 0 0 .565.677.808 1.009.228.313.536.807.69 1.083.276.495.103 1.004-.168 1.214l-.546.434c-.275.224-.238.64-.238.64s.808 3.071 3.842 3.841z" fill="#fff"/></svg>