<svg width="40" height="40" fill="none" xmlns="http://www.w3.org/2000/svg"><rect width="39.375" height="39.375" rx="19.688" fill="#71164E"/><path fill-rule="evenodd" clip-rule="evenodd" d="M30.455 14.063c.162-.54 0-.938-.772-.938H27.13c-.65 0-.948.343-1.11.722 0 0-1.299 3.164-3.138 5.22-.595.594-.865.783-1.19.783-.162 0-.397-.189-.397-.73v-5.057c0-.649-.188-.938-.729-.938h-4.011c-.406 0-.65.301-.65.587 0 .615.92.757 1.014 2.488v3.759c0 .824-.149.974-.473.974-.865 0-2.97-3.179-4.219-6.816-.245-.707-.49-.992-1.142-.992H8.532c-.73 0-.875.343-.875.722 0 .676.865 4.03 4.03 8.465 2.109 3.028 5.08 4.67 7.785 4.67 1.623 0 1.823-.364 1.823-.992V23.7c0-.729.154-.874.668-.874.379 0 1.027.189 2.542 1.65 1.73 1.73 2.016 2.506 2.99 2.506h2.552c.73 0 1.094-.364.884-1.084-.23-.717-1.056-1.758-2.153-2.991-.595-.704-1.487-1.46-1.758-1.84-.378-.486-.27-.702 0-1.135 0 0 3.11-4.381 3.435-5.868z" fill="#fff"/></svg>