<svg width="29" height="29" fill="none" xmlns="http://www.w3.org/2000/svg"><rect width="28.125" height="28.125" rx="14.063" fill="#71164E"/><path fill-rule="evenodd" clip-rule="evenodd" d="M21.753 10.045c.116-.386 0-.67-.551-.67h-1.824c-.463 0-.677.245-.793.516 0 0-.927 2.26-2.24 3.728-.426.425-.619.56-.85.56-.117 0-.284-.135-.284-.521v-3.613c0-.463-.135-.67-.521-.67h-2.866c-.29 0-.463.215-.463.42 0 .439.656.54.724 1.776v2.685c0 .589-.106.696-.338.696-.618 0-2.122-2.27-3.014-4.868-.174-.505-.35-.709-.816-.709H6.094c-.521 0-.625.245-.625.516 0 .483.618 2.878 2.878 6.046 1.507 2.163 3.63 3.336 5.561 3.336 1.16 0 1.303-.26 1.303-.709v-1.635c0-.521.11-.625.476-.625.27 0 .734.135 1.816 1.178 1.237 1.236 1.44 1.791 2.136 1.791h1.823c.521 0 .782-.26.631-.774-.164-.513-.754-1.256-1.538-2.137-.425-.502-1.062-1.043-1.255-1.314-.27-.347-.193-.502 0-.81 0 0 2.221-3.13 2.453-4.193z" fill="#fff"/></svg>