<svg width="40" height="40" fill="none" xmlns="http://www.w3.org/2000/svg"><rect width="39.375" height="39.375" rx="19.688" fill="#71164E"/><path d="M27.171 12.823c-1.876-1.93-4.47-2.98-7.118-2.98-5.628 0-10.153 4.58-10.098 10.154 0 1.713.468 3.375 1.252 4.884a.398.398 0 01.031.288l-1.215 4.442a.39.39 0 00.474.481l4.55-1.172a.4.4 0 01.287.035c1.454.777 3.059 1.14 4.664 1.14 5.573 0 10.098-4.58 10.098-10.153 0-2.704-1.049-5.242-2.925-7.119zm-7.118 15.561c-1.49 0-2.98-.386-4.249-1.159l-.2-.1a.39.39 0 00-.272-.028l-2.414.624a.39.39 0 01-.476-.478l.614-2.33a.39.39 0 00-.053-.317l-.123-.185c-2.428-3.918-1.27-9.104 2.704-11.532 3.972-2.428 9.104-1.27 11.532 2.704 2.428 3.972 1.27 9.104-2.704 11.532-1.269.828-2.814 1.27-4.359 1.27zm4.856-6.125l-.604-.274-.006-.003a39.83 39.83 0 01-1.35-.62c-.054-.027-.114-.043-.168-.07a.185.185 0 00-.08-.026.72.72 0 00-.329.082.318.318 0 00-.1.075c-.07.08-.26.292-.75.853-.023.025-.04.054-.06.081a.307.307 0 01-.25.123h-.055a.36.36 0 01-.158-.061c-.045-.029-.088-.06-.137-.08l-.202-.08c-.607-.276-1.159-.607-1.6-1.048-.11-.11-.276-.22-.386-.331-.387-.386-.773-.828-1.049-1.325l-.027-.053c-.018-.038-.046-.07-.066-.108-.013-.024-.022-.051-.035-.085a.44.44 0 01-.036-.177.321.321 0 01.04-.167c.008-.012.018-.022.027-.033.05-.062.232-.284.373-.425.101-.101.156-.249.25-.358.016-.02.033-.039.047-.06.096-.162.14-.365.09-.52-.056-.276-.718-1.766-.884-2.097a.603.603 0 00-.326-.255.352.352 0 00-.123-.02h-.544c-.092 0-.183.037-.275.05a.166.166 0 00-.096.044.155.155 0 01-.034.026c-.086.047-.172.124-.257.179a.448.448 0 00-.099.078c-.083.095-.137.19-.232.284a2.814 2.814 0 00-.607 1.711c0 .441.11.883.276 1.27l.055.165a9.192 9.192 0 002.042 2.814l.22.22c.15.151.301.256.41.398a.497.497 0 00.073.079 9.852 9.852 0 003.932 2.062c.146.048.335.054.49.093a.53.53 0 00.125.017h.488c.276 0 .607-.11.828-.22.166-.11.276-.11.386-.221l.11-.11c.111-.11.222-.166.332-.276.11-.11.22-.221.276-.332.105-.21.16-.471.213-.734a.393.393 0 00.008-.077v-.186c0-.103-.042-.204-.133-.254a.924.924 0 00-.033-.018z" fill="#fff"/></svg>