<svg width="29" height="29" fill="none" xmlns="http://www.w3.org/2000/svg"><rect width="28.125" height="28.125" rx="14.063" fill="#71164E"/><path d="M19.407 9.16a7.096 7.096 0 00-5.084-2.129c-4.02 0-7.252 3.272-7.213 7.253 0 1.208.326 2.381.874 3.448a.4.4 0 01.03.288l-.805 2.945a.39.39 0 00.474.482l3.02-.779a.404.404 0 01.289.035 7.06 7.06 0 003.291.793c3.981 0 7.213-3.271 7.213-7.252a7.153 7.153 0 00-2.089-5.084zm-5.084 11.114a5.856 5.856 0 01-3.035-.827l-.106-.053a.39.39 0 00-.272-.029l-1.5.388a.39.39 0 01-.475-.478l.377-1.432a.39.39 0 00-.053-.316l-.06-.09c-1.734-2.799-.906-6.504 1.931-8.238 2.838-1.734 6.504-.906 8.238 1.931 1.734 2.838.907 6.504-1.931 8.238a5.747 5.747 0 01-3.114.907zM17.79 15.9l-.43-.195a.5.5 0 00-1.364-.462.305.305 0 00-.1.074c-.06.065-.197.22-.516.585-.022.025-.04.054-.06.08a.22.22 0 01-.17.076h-.04a.227.227 0 01-.093-.032c-.046-.025-.09-.057-.139-.076l-.122-.05c-.434-.197-.828-.433-1.143-.748-.08-.08-.198-.158-.276-.237-.276-.276-.552-.591-.75-.946l-.01-.022c-.02-.037-.047-.07-.063-.11l-.009-.02a.4.4 0 01-.033-.177.202.202 0 01.024-.087c.007-.013.017-.023.026-.034.041-.05.165-.201.263-.299.07-.07.108-.17.171-.247.016-.02.033-.04.046-.061.065-.114.095-.254.059-.362-.04-.197-.513-1.261-.631-1.497a.425.425 0 00-.216-.176.333.333 0 00-.123-.022h-.37c-.066 0-.131.028-.197.037a.117.117 0 00-.068.031.113.113 0 01-.025.019c-.056.03-.112.08-.168.117a.504.504 0 00-.098.08c-.053.063-.09.126-.154.19a2.01 2.01 0 00-.434 1.221c0 .316.08.63.198.907l.039.118a6.566 6.566 0 001.458 2.01l.158.158c.103.103.206.176.283.272a.564.564 0 00.073.078 7.035 7.035 0 002.797 1.463c.099.033.225.038.333.062a.53.53 0 00.125.017h.33c.198 0 .434-.08.592-.158.118-.079.197-.079.276-.158l.078-.078c.08-.08.158-.119.237-.197.079-.08.158-.158.197-.237.074-.148.113-.33.15-.514a.386.386 0 00.008-.077v-.094c0-.091-.037-.18-.119-.221z" fill="#fff"/></svg>