<svg width="70" height="59" viewBox="0 0 70 59" fill="none" xmlns="http://www.w3.org/2000/svg">
<path d="M32.5 54C44.9264 54 55 43.9264 55 31.5C55 19.0736 44.9264 9 32.5 9C20.0736 9 10 19.0736 10 31.5C10 43.9264 20.0736 54 32.5 54Z" fill="#D0BFFF"/>
<path d="M44.7341 47.2998H24.1964C23.4985 47.2998 23 46.7998 23 46.1998V31.1998C23 27.3998 26.1903 24.2998 30.0786 24.2998H48.9215C52.8097 24.2998 56 27.3998 56 31.1998" stroke="#28156B" stroke-width="2" stroke-miterlimit="10" stroke-linecap="round"/>
<path d="M60.9398 12L62.0241 15.9759L66 17.0602L62.0241 18.0241L60.9398 22L59.9759 18.0241L56 17.0602L59.9759 15.9759L60.9398 12Z" fill="#71164E"/>
<path d="M5.93976 7L7.0241 10.9024L11 12L7.0241 12.9756L5.93976 17L4.9759 12.9756L1 12L4.9759 10.9024L5.93976 7Z" fill="#71164E"/>
<path d="M21.9004 5.2002C23.005 5.2002 23.9004 4.30476 23.9004 3.2002C23.9004 2.09563 23.005 1.2002 21.9004 1.2002C20.7958 1.2002 19.9004 2.09563 19.9004 3.2002C19.9004 4.30476 20.7958 5.2002 21.9004 5.2002Z" fill="#D0BFFF"/>
<path d="M6 51C7.10457 51 8 50.1046 8 49C8 47.8954 7.10457 47 6 47C4.89543 47 4 47.8954 4 49C4 50.1046 4.89543 51 6 51Z" fill="#D0BFFF"/>
<path d="M40 19.5C44.4183 19.5 48 15.9183 48 11.5C48 7.08172 44.4183 3.5 40 3.5C35.5817 3.5 32 7.08172 32 11.5C32 15.9183 35.5817 19.5 40 19.5Z" stroke="#28156B" stroke-width="2" stroke-miterlimit="10" stroke-linecap="round"/>
<path d="M56.5 55C62.8513 55 68 49.8513 68 43.5C68 37.1487 62.8513 32 56.5 32C50.1487 32 45 37.1487 45 43.5C45 49.8513 50.1487 55 56.5 55Z" stroke="#28156B" stroke-width="2" stroke-miterlimit="10" stroke-linecap="round"/>
<path d="M51 42.6L55.3043 47L62 40" stroke="#28156B" stroke-width="2" stroke-miterlimit="10" stroke-linecap="round" stroke-linejoin="round"/>
</svg>
