<svg width="68" height="70" viewBox="0 0 68 70" fill="none" xmlns="http://www.w3.org/2000/svg">
<path d="M34.5 64C46.9264 64 57 53.9264 57 41.5C57 29.0736 46.9264 19 34.5 19C22.0736 19 12 29.0736 12 41.5C12 53.9264 22.0736 64 34.5 64Z" fill="#D0BFFF"/>
<path d="M8.5017 0.898438L9.56836 4.81736L13.5684 5.89844L9.56836 6.97952L8.5017 10.8984L7.43502 6.97952L3.56836 5.89844L7.43502 4.81736L8.5017 0.898438Z" fill="#71164E"/>
<path d="M62.0466 56.6108L63.1133 60.6108L67.1133 61.6775L63.1133 62.6108L62.0466 66.6108L61.1133 62.6108L57.1133 61.6775L61.1133 60.6108L62.0466 56.6108Z" fill="#71164E"/>
<path d="M19.592 40.65C17.1176 38.4 15.6152 35.52 15.6152 32.46C15.6152 24.99 24.099 18.96 34.6152 18.96C45.1315 18.96 53.6152 24.99 53.6152 32.46C53.6152 39.93 45.1315 45.96 34.6152 45.96C30.3734 45.96 26.3966 44.97 23.2152 43.26" stroke="#28156B" stroke-width="2" stroke-miterlimit="10"/>
<path d="M24 43.5113C20.2299 46.6087 16 45.939 16 45.939C18.8506 44.5996 20.046 41 20.046 41" stroke="#1D0651" stroke-width="2" stroke-miterlimit="10" stroke-linecap="round" stroke-linejoin="round"/>
<path d="M11.4217 34.4154C10.797 32.8878 10.5293 31.2704 10.5293 29.6529C10.5293 19.7684 22.0411 11.6812 36.1408 11.6812" stroke="#28156B" stroke-width="2" stroke-miterlimit="10" stroke-linecap="round" stroke-linejoin="round"/>
<path d="M3.47954 34.4159C3.03334 32.8883 2.76562 31.2708 2.76562 29.5635C2.76562 16.6238 17.6685 6.2002 36.141 6.2002" stroke="#28156B" stroke-width="2" stroke-miterlimit="10" stroke-linecap="round" stroke-linejoin="round"/>
<path d="M3.47852 34.4155H11.4208" stroke="#28156B" stroke-width="2" stroke-miterlimit="10" stroke-linecap="round"/>
<path d="M36.1406 6.19999V1.61719L48.8125 8.71603L36.1406 15.8149V11.6814" stroke="#28156B" stroke-width="2" stroke-miterlimit="10" stroke-linecap="round" stroke-linejoin="round"/>
<path d="M57.3908 31.0001C58.0155 32.5277 58.2832 34.1452 58.2832 35.7626C58.2832 45.6471 46.7714 53.7344 32.6717 53.7344" stroke="#28156B" stroke-width="2" stroke-miterlimit="10" stroke-linecap="round" stroke-linejoin="round"/>
<path d="M65.333 30.9997C65.7792 32.5273 66.0469 34.1447 66.0469 35.852C66.0469 48.7917 51.144 59.2153 32.6715 59.2153" stroke="#28156B" stroke-width="2" stroke-miterlimit="10" stroke-linecap="round" stroke-linejoin="round"/>
<path d="M65.334 31L57.3917 31" stroke="#28156B" stroke-width="2" stroke-miterlimit="10" stroke-linecap="round"/>
<path d="M32.6719 59.2155L32.6719 63.7983L20 56.6995L32.6719 49.6007L32.6719 53.7342" stroke="#28156B" stroke-width="2" stroke-miterlimit="10" stroke-linecap="round" stroke-linejoin="round"/>
<ellipse cx="7.33972" cy="63.104" rx="1.9862" ry="2" fill="#D0BFFF"/>
<ellipse cx="61.7753" cy="13.6816" rx="1.9862" ry="2" fill="#D0BFFF"/>
</svg>
