<svg width="71" height="67" viewBox="0 0 71 67" fill="none" xmlns="http://www.w3.org/2000/svg">
<path d="M23.5371 53.2461C35.9635 53.2461 46.0371 43.1725 46.0371 30.7461C46.0371 18.3197 35.9635 8.24609 23.5371 8.24609C11.1107 8.24609 1.03711 18.3197 1.03711 30.7461C1.03711 43.1725 11.1107 53.2461 23.5371 53.2461Z" fill="#D0BFFF"/>
<path d="M51.0173 55.5479L51.9811 59.5722L55.957 60.5479L51.9811 61.6454L51.0173 65.5479L49.9329 61.6454L45.957 60.5479L49.9329 59.5722L51.0173 55.5479Z" fill="#71164E"/>
<path d="M10.0427 1.54639L11.0065 5.52229L14.9824 6.48615L11.0065 7.57048L10.0427 11.5464L8.95833 7.57048L4.98242 6.48615L8.95833 5.52229L10.0427 1.54639Z" fill="#71164E"/>
<path d="M61.7197 50H18.2803C17.0261 50 16 49.0426 16 47.8723V42.1277C16 40.9574 17.0261 40 18.2803 40H61.7197C62.9739 40 64 40.9574 64 42.1277V47.8723C64 49.0426 62.9739 50 61.7197 50Z" stroke="#28156B" stroke-width="2" stroke-miterlimit="10" stroke-linecap="round"/>
<path d="M62 29.1137V34.8161C62 37.7191 59.6897 40 56.7494 40H23.2506C20.3103 40 18 37.7191 18 34.8161V14.1839C18 11.2809 20.3103 9 23.2506 9H47.6134" stroke="#28156B" stroke-width="2" stroke-miterlimit="10" stroke-linecap="round"/>
<path d="M66.9529 28H49.0471C48.4188 28 48 27.5894 48 26.9734V2.02662C48 1.41065 48.4188 1 49.0471 1H66.9529C67.5812 1 68 1.41065 68 2.02662V26.9734C68 27.5894 67.5812 28 66.9529 28Z" stroke="#28156B" stroke-width="2" stroke-miterlimit="10" stroke-linecap="round"/>
<path d="M54 10.2046H62" stroke="#28156B" stroke-width="2" stroke-miterlimit="10" stroke-linecap="round" stroke-linejoin="round"/>
<path d="M54 16.4922H62" stroke="#28156B" stroke-width="2" stroke-miterlimit="10" stroke-linecap="round" stroke-linejoin="round"/>
<path d="M2 58.6309C3.10457 58.6309 4 57.7354 4 56.6309C4 55.5263 3.10457 54.6309 2 54.6309C0.89543 54.6309 0 55.5263 0 56.6309C0 57.7354 0.89543 58.6309 2 58.6309Z" fill="#D0BFFF"/>
<path d="M68.8477 38.4277C69.9522 38.4277 70.8477 37.5323 70.8477 36.4277C70.8477 35.3232 69.9522 34.4277 68.8477 34.4277C67.7431 34.4277 66.8477 35.3232 66.8477 36.4277C66.8477 37.5323 67.7431 38.4277 68.8477 38.4277Z" fill="#D0BFFF"/>
</svg>
