<svg width="69" height="62" viewBox="0 0 69 62" fill="none" xmlns="http://www.w3.org/2000/svg">
<path d="M34.6094 45C47.0358 45 57.1094 34.9264 57.1094 22.5C57.1094 10.0736 47.0358 0 34.6094 0C22.183 0 12.1094 10.0736 12.1094 22.5C12.1094 34.9264 22.183 45 34.6094 45Z" fill="#D0BFFF"/>
<path d="M23.7507 35.6714C18.7752 35.6714 14.0813 34.4446 10.3262 32.4629" stroke="#28156B" stroke-width="2" stroke-miterlimit="10"/>
<path d="M6.10208 29.5372C3.19188 26.8949 1.4082 23.592 1.4082 20.006C1.4082 11.3241 11.4531 4.34082 23.7511 4.34082C33.8898 4.34082 42.4327 9.05924 45.1551 15.4763" stroke="#28156B" stroke-width="2" stroke-miterlimit="10"/>
<path d="M10.4204 32.5569C6.10208 36.426 1.4082 35.671 1.4082 35.671C4.69392 33.9724 6.0082 29.5371 6.0082 29.5371" stroke="#28156B" stroke-width="2" stroke-miterlimit="10" stroke-linecap="round" stroke-linejoin="round"/>
<path d="M62.8981 40.5782C65.8083 37.9359 67.592 34.633 67.592 31.047C67.592 22.3651 57.5471 15.3818 45.2491 15.3818C32.9511 15.3818 22.9062 22.3651 22.9062 31.047C22.9062 39.7289 32.9511 46.7121 45.2491 46.7121C50.3185 46.7121 54.9185 45.5797 58.6736 43.598" stroke="#28156B" stroke-width="2" stroke-miterlimit="10"/>
<path d="M58.5801 43.5037C62.8984 47.3728 67.5923 46.6178 67.5923 46.6178C64.3066 44.9192 62.9923 40.4839 62.9923 40.4839" stroke="#28156B" stroke-width="2" stroke-miterlimit="10" stroke-linecap="round" stroke-linejoin="round"/>
<path d="M37.6445 26.4614H52.6445" stroke="#28156B" stroke-width="2" stroke-miterlimit="10" stroke-linecap="round" stroke-linejoin="round"/>
<path d="M37.6445 31.4614H52.6445" stroke="#28156B" stroke-width="2" stroke-miterlimit="10" stroke-linecap="round" stroke-linejoin="round"/>
<path d="M37.6445 36.4614H52.6445" stroke="#28156B" stroke-width="2" stroke-miterlimit="10" stroke-linecap="round" stroke-linejoin="round"/>
<path d="M62.8008 4.64355L63.8008 8.58722L67.8008 9.57313L63.8008 10.6999L62.8008 14.6436L61.8008 10.6999L57.8008 9.57313L61.8008 8.58722L62.8008 4.64355Z" fill="#71164E"/>
<path d="M12.1922 43.3149L13.2267 47.223L17.1348 48.2575L13.2267 49.292L12.1922 53.3149L11.1578 49.292L7.13477 48.2575L11.1578 47.223L12.1922 43.3149Z" fill="#71164E"/>
<ellipse cx="47.0501" cy="53.9023" rx="1.9896" ry="2" fill="#D0BFFF"/>
<circle cx="7.63281" cy="2" r="2" fill="#D0BFFF"/>
</svg>
