<svg width="739" height="1142" viewBox="0 0 739 1142" fill="none" xmlns="http://www.w3.org/2000/svg">
<circle opacity="0.2" cx="168" cy="571" r="571" fill="#FFF9DB"/>
<circle cx="168" cy="572.137" r="279.813" fill="#D0BFFF"/>
<path d="M22.4065 496.617C22.4065 471.231 35.2551 450.399 60.9523 434.122C86.7989 417.696 114.961 409.483 145.439 409.483H171.211C257.267 409.483 300.295 442.858 300.295 509.609C300.295 524.542 296.635 537.534 289.314 548.584C282.143 559.485 273.328 567.848 262.87 573.671C252.561 579.495 242.177 584.722 231.719 589.351C221.41 593.98 212.596 599.058 205.275 604.583C198.104 609.959 194.518 615.409 194.518 620.935C194.518 631.686 189.961 637.062 180.848 637.062H130.424C126.391 637.062 123.029 635.793 120.34 633.254C117.8 630.566 116.53 627.281 116.53 623.398C116.53 610.556 118.995 599.207 123.925 589.351C128.856 579.495 134.981 571.805 142.302 566.28C149.623 560.605 157.541 555.304 166.057 550.376C174.722 545.448 182.715 541.341 190.036 538.056C207.217 530.142 215.808 520.211 215.808 508.265C215.808 496.318 211.699 487.433 203.482 481.609C195.414 475.785 182.491 472.873 164.712 472.873H153.283C128.482 472.873 111.525 482.057 102.411 500.425C95.6884 514.462 85.6037 521.481 72.1575 521.481H45.4892C38.1684 521.481 32.4912 518.867 28.4573 513.641C24.4234 508.414 22.4065 502.74 22.4065 496.617ZM112.048 704.485V690.373C112.048 680.517 114.737 672.976 120.116 667.75C125.494 662.523 132.89 659.91 142.302 659.91H169.867C179.279 659.91 186.674 662.523 192.053 667.75C197.431 672.976 200.121 680.517 200.121 690.373V704.485C200.121 714.042 197.431 721.509 192.053 726.884C186.674 732.111 179.279 734.724 169.867 734.724H142.302C132.89 734.724 125.494 732.111 120.116 726.884C114.737 721.509 112.048 714.042 112.048 704.485Z" fill="#FFF9DB"/>
<path d="M34.8713 496.616C34.8713 471.23 47.7199 450.399 73.4171 434.122C99.2638 417.695 127.426 409.482 157.904 409.482H183.676C269.732 409.482 312.76 442.857 312.76 509.608C312.76 524.541 309.099 537.533 301.779 548.583C294.607 559.484 285.793 567.847 275.334 573.671C265.026 579.495 254.642 584.721 244.184 589.351C233.875 593.98 225.061 599.057 217.74 604.582C210.569 609.958 206.983 615.409 206.983 620.934C206.983 631.686 202.426 637.062 193.313 637.062H142.889C138.855 637.062 135.494 635.792 132.805 633.254C130.265 630.566 128.995 627.28 128.995 623.398C128.995 610.555 131.46 599.206 136.39 589.351C141.321 579.495 147.446 571.804 154.767 566.279C162.087 560.604 170.006 555.303 178.522 550.375C187.187 545.447 195.18 541.341 202.501 538.056C219.682 530.141 228.273 520.211 228.273 508.264C228.273 496.318 224.164 487.433 215.947 481.609C207.879 475.785 194.956 472.873 177.177 472.873H165.748C140.947 472.873 123.99 482.057 114.876 500.424C108.153 514.461 98.0685 521.48 84.6223 521.48H57.954C50.6333 521.48 44.956 518.867 40.9221 513.64C36.8883 508.413 34.8713 502.739 34.8713 496.616ZM124.513 704.484V690.373C124.513 680.517 127.202 672.976 132.58 667.749C137.959 662.522 145.354 659.909 154.767 659.909H182.331C191.744 659.909 199.139 662.522 204.518 667.749C209.896 672.976 212.585 680.517 212.585 690.373V704.484C212.585 714.041 209.896 721.508 204.518 726.884C199.139 732.11 191.744 734.724 182.331 734.724H154.767C145.354 734.724 137.959 732.11 132.58 726.884C127.202 721.508 124.513 714.041 124.513 704.484Z" stroke="url(#paint0_linear)" stroke-width="2"/>
<defs>
<linearGradient id="paint0_linear" x1="47.3327" y1="419.451" x2="338.726" y2="449.196" gradientUnits="userSpaceOnUse">
<stop stop-color="#D3B058"/>
<stop offset="0.60842" stop-color="#F5E283"/>
<stop offset="0.870384" stop-color="#C09440"/>
</linearGradient>
</defs>
</svg>
