<svg width="398" height="396" viewBox="0 0 398 396" fill="none" xmlns="http://www.w3.org/2000/svg">
<path d="M377.604 240.187C376.488 234.615 375.272 228.434 372.129 223.875C384.093 223.773 397.376 216.681 397.781 203.307C398.086 190.641 388.149 178.584 375.576 177.47C380.037 170.985 382.674 163.183 384.194 155.483C385.614 148.694 386.324 141.906 387.338 135.117C388.453 128.025 389.264 119.413 394.942 114.347C395.754 113.637 395.044 112.32 394.03 112.219C379.53 111.611 366.755 104.924 354.79 97.3247C350.024 94.2851 344.955 90.7388 339.682 88.9151C345.766 79.6948 344.448 67.131 335.829 59.9372C327.616 53.0474 315.956 52.4395 306.627 57.2016C306.526 49.7038 305.005 42.51 300.24 36.0255C292.736 25.8934 280.062 18.2943 279.656 4.4133C279.656 3.40009 278.338 2.69084 277.527 3.50141C277.223 3.80538 277.02 4.00802 276.716 4.31198C276.513 4.31198 276.31 4.51462 276.209 4.81859V4.91991C262.216 17.6864 239.504 12.6203 223.686 21.1313C222.368 9.27671 212.533 0.765745 200.467 0.968387C189.212 1.17103 177.653 9.27671 176.943 21.1313C170.251 17.4837 163.052 15.1533 155.346 14.0388C142.165 12.1137 127.97 12.519 117.019 3.80538C116.208 3.09613 114.991 3.50141 114.89 4.71727C113.876 18.5982 108.603 30.3515 100.593 41.4968C96.9428 46.5629 93.394 51.8316 91.6703 57.5055C91.5689 57.3029 91.4675 57.2016 91.2647 57.1002C81.2266 49.6025 67.1327 50.717 59.1225 60.6465C52.4305 68.9548 52.4305 81.9239 60.0351 89.523C52.5319 90.8402 45.637 93.8798 39.1477 98.5406C28.7041 105.937 18.3618 116.272 4.36931 114.043C3.45676 113.941 2.24002 114.853 2.94978 115.866C11.3656 127.113 16.6381 139.576 19.5785 153.254C21.0995 160.245 22.519 167.439 26.1692 173.518C12.4809 173.315 -0.396247 181.117 0.00933294 196.011C0.414912 209.284 12.1767 219.011 24.7497 220.632C12.5823 236.945 15.0158 262.883 0.414912 278.081C-0.294852 278.892 0.212123 280.108 1.22607 280.108C15.5227 280.817 27.8929 285.782 39.4519 293.989C43.7105 297.028 47.8677 300.068 52.6333 302.196C54.864 303.108 57.0946 303.817 59.4267 304.222C47.9691 309.288 46.2454 324.588 53.5458 333.808C63.0769 345.865 79.8071 345.055 91.4675 336.848C90.5549 357.618 117.932 373.425 117.729 394.803C117.729 395.715 118.743 396.323 119.554 395.816C131.823 388.521 144.801 385.482 158.185 381.226C164.37 379.301 170.353 376.565 174.915 372.31C176.436 385.178 187.184 395.31 200.467 395.513C212.736 395.614 224.903 385.988 225.613 373.526C229.973 376.869 235.55 379.099 240.721 380.72C254.612 385.178 269.213 387.002 281.786 394.803C282.597 395.31 283.611 394.601 283.611 393.689C284.726 373.526 306.83 357.517 307.236 337.76C318.288 342.927 332.99 342.319 341.609 332.997C349.517 324.385 350.126 311.821 341.406 303.614C341.304 303.513 341.203 303.513 341.102 303.412C346.476 302.297 351.748 299.359 356.108 296.218C368.276 287.504 379.632 280.412 394.841 278.081C395.855 277.879 395.956 276.663 395.348 275.954C386.527 265.822 380.341 253.663 377.604 240.187ZM378.719 253.156C381.355 260.046 385.006 266.531 389.366 272.407C367.059 263.491 344.65 253.967 321.735 246.469C328.123 246.773 334.612 245.963 340.899 243.328C351.343 238.87 356.716 229.346 362.395 220.025C362.496 220.227 362.699 220.328 363.003 220.43C375.779 223.773 374.866 242.923 378.719 253.156ZM328.326 325.601C318.592 324.588 308.858 324.588 299.124 325.804C288.681 327.121 277.628 330.768 267.185 327.931C258.363 325.5 252.483 319.724 248.123 312.531C248.123 312.125 247.818 311.821 247.616 311.619C241.937 301.892 238.794 289.835 234.941 280.108C234.84 279.905 234.738 279.804 234.637 279.601C238.186 277.777 241.633 275.65 244.878 273.218C243.154 290.24 248.63 308.782 264.244 317.698C278.947 326.006 296.387 320.434 307.946 309.288C318.592 298.954 331.064 280.108 323.865 265.011C316.159 248.901 293.345 243.835 277.426 240.187C279.149 237.756 280.569 235.121 281.786 232.386C281.786 232.791 281.988 233.095 282.394 233.298C291.013 237.553 300.442 241.91 310.075 244.342C317.274 247.179 323.56 252.447 326.906 259.641C331.165 268.76 328.833 278.689 327.312 288.112C325.183 299.663 322.242 314.861 328.326 325.601ZM70.276 305.235C70.4788 305.033 70.5802 304.83 70.4788 304.526C70.4788 304.222 70.4788 303.918 70.3774 303.513C70.3774 303.209 70.1746 302.804 69.8704 302.601C67.5383 282.337 63.2797 261.769 80.821 247.685C81.1252 247.584 81.328 247.584 81.6322 247.482C94.1038 244.544 106.17 238.262 118.033 233.399C119.452 232.791 118.844 230.461 117.425 230.967C97.6526 238.87 71.6955 255.284 52.3291 238.262C44.8259 231.676 42.291 221.443 36.1059 213.844C30.6306 207.258 23.6343 202.395 16.3339 198.038C27.6901 191.047 33.0641 181.219 40.0603 169.871C49.3886 154.672 65.6118 145.351 83.5587 150.822C83.8629 150.924 84.1671 150.822 84.2685 150.62C85.4852 151.329 86.8033 151.937 88.1215 152.545C97.754 157.104 107.995 161.157 118.439 163.69C117.019 167.135 115.904 170.782 114.89 174.43C101.708 162.474 84.674 150.417 66.0174 155.888C48.0705 161.157 42.0882 181.421 43.1021 198.139C44.2175 216.174 51.4165 232.588 70.6815 236.54C86.3978 239.681 106.068 233.196 114.484 218.91C114.89 218.201 113.876 217.39 113.369 217.998C102.114 229.447 88.1215 237.452 71.3913 234.108C52.9375 230.461 46.4482 214.249 45.5356 197.126C44.7245 181.117 50.8082 161.765 68.4509 157.813C86.0936 153.862 101.708 165.716 113.876 176.862C113.977 176.963 114.079 176.963 114.18 177.064C113.267 181.016 112.659 185.069 112.253 189.122C105.764 180.104 95.2191 173.923 83.7615 175.443C72.1011 176.963 61.9616 186.386 61.6574 198.443C61.3532 209.892 69.3634 219.619 80.821 220.936C92.9884 222.355 105.054 215.87 112.456 206.447C112.862 210.196 113.47 213.844 114.383 217.491C116.411 225.698 119.554 233.399 123.61 240.491C107.488 239.782 88.3243 246.571 79.6043 260.756C70.9857 274.94 73.115 293.685 83.6601 306.249C94.2052 318.813 112.963 326.108 129.186 321.447C148.35 315.874 153.42 291.354 157.678 274.535C157.78 274.333 157.678 274.13 157.678 273.927C159.909 275.143 162.14 276.258 164.472 277.372C164.066 277.271 163.559 277.372 163.458 277.879C163.458 278.081 163.458 278.284 163.559 278.487C163.458 278.588 163.356 278.791 163.255 278.993C157.577 299.967 148.958 326.209 123.508 328.539C105.663 330.16 87.8173 321.042 70.3774 327.121C71.5941 320.332 71.0871 312.835 70.276 305.235ZM137.805 133.091C132.431 126.91 126.043 120.933 119.351 116.272C121.48 114.853 122.089 111.814 120.973 109.483C119.351 106.241 115.093 105.734 112.051 107.153C108.705 108.774 107.184 112.523 109.414 115.664C111.442 118.602 115.397 118.602 118.033 116.677C118.134 116.677 118.134 116.677 118.236 116.677C118.236 116.677 118.236 116.677 118.236 116.778C124.218 122.655 130.505 128.329 136.588 134.307C136.892 134.611 137.298 134.611 137.602 134.408C135.574 136.435 133.749 138.562 131.924 140.791C131.823 140.791 131.823 140.791 131.721 140.791C122.494 140.082 112.862 138.258 106.068 131.369C99.0721 124.175 96.5372 111.915 103.432 103.809C110.53 95.2983 124.522 94.1837 132.837 101.58C140.441 108.369 141.962 119.21 143.179 128.734C143.179 128.937 143.28 129.038 143.28 129.14C141.354 130.761 139.529 132.483 137.805 134.206C138.109 133.8 138.109 133.395 137.805 133.091ZM117.729 114.955C117.526 115.056 117.425 115.259 117.323 115.461C115.295 116.272 112.558 116.474 111.138 114.448C109.516 112.219 110.935 109.787 113.267 108.875C115.092 108.166 117.83 108.267 118.946 110.192C119.959 111.915 119.452 114.043 117.729 114.955ZM131.316 97.2234C121.987 91.5494 108.806 93.6771 101.708 101.985C95.0163 109.686 95.8275 121.135 101.303 129.342C107.691 138.866 119.757 143.02 130.809 142.21C128.375 145.351 126.043 148.694 124.117 152.241C109.009 149.606 92.2787 147.175 81.835 134.712C69.769 120.122 75.8527 99.7564 88.527 88.0032C100.999 76.4526 118.134 70.4746 133.851 79.0869C148.249 86.8886 155.042 102.695 157.374 118.096C157.476 118.805 157.983 119.007 158.591 119.007C154.332 121.135 150.277 123.668 146.424 126.708C146.119 126.91 145.815 127.214 145.511 127.417C144.091 116.17 141.658 103.505 131.316 97.2234ZM136.588 138.866C149.06 124.985 165.689 115.36 184.345 113.131C202.089 111.003 221.05 112.523 237.273 120.527C252.178 127.822 265.157 139.778 273.471 154.166C282.394 169.567 283.712 188.716 283.814 206.245C283.915 216.377 282.597 226.61 277.527 235.628C272.66 244.24 264.853 251.738 257.856 258.729C242.546 274.13 222.875 287.403 200.061 284.059C199.757 284.059 199.453 284.059 199.25 284.262C164.877 282.641 133.445 262.275 120.466 229.853C108.198 198.848 114.281 163.589 136.588 138.866ZM331.165 127.214C329.34 137.954 321.532 143.932 312.407 148.087C312.306 148.087 312.103 148.188 312.001 148.188C311.799 148.188 311.697 148.289 311.596 148.391C310.683 148.796 309.771 149.201 308.96 149.505C299.226 153.355 289.289 156.8 279.454 160.448C278.338 157.712 277.02 155.179 275.601 152.646C292.331 150.518 311.596 146.871 321.228 131.369C329.948 117.488 327.92 98.9458 317.578 86.5847C307.134 74.2235 287.362 66.5231 271.849 73.5143C263.636 77.1618 257.552 84.2543 253.192 91.8534C248.123 100.567 243.56 110.8 243.763 121.135C241.025 119.615 238.287 118.197 235.347 116.981C235.752 116.88 236.158 116.677 236.259 116.069C238.49 105.532 243.864 94.2851 246.5 83.0384C256.234 70.9812 270.328 64.294 286.146 66.3205C299.935 68.1442 313.421 73.9195 327.211 70.0693C321.431 89.3203 334.511 107.862 331.165 127.214ZM276.513 121.743C276.817 121.946 277.223 121.844 277.426 121.642C280.468 122.858 284.321 122.351 286.45 119.717C288.681 116.981 288.376 112.523 285.132 110.8C281.887 109.078 277.02 110.091 274.891 113.029C273.37 115.056 273.573 118.501 275.601 120.021C275.398 120.122 275.094 120.223 274.891 120.426C272.559 121.946 270.531 124.276 268.503 126.1C266.272 128.025 264.042 130.051 261.811 132.078C261.203 132.584 260.594 133.091 260.29 133.598C258.87 132.28 257.451 130.963 255.93 129.646C256.234 129.545 256.437 129.342 256.437 128.937C255.017 118.399 258.161 107.558 267.388 101.479C276.412 95.6022 288.579 96.5141 295.981 104.62C302.977 112.422 302.369 124.783 295.068 132.078C288.376 138.664 278.135 140.082 269.213 141.399C268.706 141.501 268.503 141.805 268.402 142.109C266.272 139.474 263.94 136.941 261.507 134.611C261.912 133.598 264.853 131.673 265.461 131.065C266.576 130.051 267.692 129.14 268.807 128.126C269.618 127.417 275.601 121.236 276.513 121.743ZM277.121 113.739C278.947 112.016 282.698 111.408 284.625 113.131C286.45 114.651 285.841 117.69 284.118 119.109C282.293 120.629 279.961 120.325 277.933 119.615C277.933 119.615 277.831 119.514 277.73 119.514C275.601 118.298 275.296 115.461 277.121 113.739ZM269.821 143.831C280.873 142.21 294.054 139.88 300.24 129.342C305.613 120.122 303.788 107.963 295.677 100.972C287.362 93.7785 275.195 93.3732 266.069 99.3511C256.336 105.734 252.28 117.488 254.612 128.633C253.801 128.025 252.99 127.316 252.178 126.708C249.846 124.985 247.413 123.364 244.979 121.946C245.081 121.844 245.182 121.642 245.182 121.439C247.007 105.228 256.031 84.4569 271.241 76.5539C286.247 68.6508 306.12 76.5539 316.057 89.0164C325.69 100.972 326.906 118.906 317.882 131.673C308.351 145.148 290.404 148.289 275.195 150.214C274.789 150.316 274.485 150.518 274.282 150.721C272.863 148.289 271.241 146.06 269.517 143.831C269.72 143.831 269.72 143.831 269.821 143.831ZM233.826 115.461C233.725 115.866 233.826 116.17 234.029 116.474C232.102 115.664 230.176 114.955 228.148 114.347C228.351 114.245 228.655 114.043 228.756 113.637C232.406 102.796 236.564 91.9547 239.504 80.9107C241.735 72.7037 242.242 63.8888 237.375 56.391C227.641 41.6994 207.058 41.4968 191.443 43.0166C176.741 44.5364 161.937 50.5144 159.402 66.7258C156.664 83.7477 168.426 100.77 180.695 111.307C176.741 112.118 172.786 113.131 169.035 114.448C169.035 114.245 169.035 114.043 168.933 113.84C164.776 103.708 160.01 93.8798 154.231 84.5583C147.437 67.9416 153.521 52.1355 168.325 41.5981C178.971 34.1004 191.139 28.933 199.757 18.9022C210.201 32.3779 226.627 39.0651 237.679 51.9329C254.409 71.4878 238.186 94.6904 233.826 115.461ZM226.424 113.739C221.152 112.118 215.575 111.003 210.099 110.294C217.299 101.074 225.309 89.6243 221.354 77.3645C218.211 67.6376 207.666 63.0782 198.135 64.6993C186.373 66.6244 176.538 75.5407 178.16 88.0032C179.275 96.8181 183.838 106.545 192.355 109.889C188.908 110.091 185.461 110.496 182.115 111.206C182.216 111.003 182.317 110.699 182.115 110.395C173.192 98.034 161.024 87.4966 161.633 70.7786C162.342 52.5408 178.667 46.4615 194.383 45.347C209.593 44.2325 231.697 44.9417 237.78 62.3689C240.721 70.7786 237.679 79.7962 235.043 87.8005C232.305 96.2102 229.466 104.62 226.627 113.029C226.323 113.232 226.323 113.536 226.424 113.739ZM205.03 83.4437C205.638 80.2015 203.103 76.9592 199.96 76.5539C196.411 76.0473 192.964 78.5803 192.457 82.2279C192.051 85.5715 194.789 88.4085 198.135 87.6992C198.338 87.8005 198.642 87.8005 198.845 87.9018C198.135 94.9943 198.439 102.492 199.047 109.585C198.033 109.585 196.918 109.585 195.904 109.585C195.803 109.382 195.701 109.078 195.397 108.977C187.184 105.734 182.621 98.034 180.898 89.6243C178.363 77.2631 187.691 68.1442 199.656 66.8271C210.099 65.7125 219.529 72.501 219.833 83.3424C220.138 93.2719 213.547 101.682 207.767 109.078C207.565 109.281 207.565 109.585 207.463 109.787C205.233 109.585 203.002 109.483 200.771 109.382C200.67 102.188 200.568 94.7917 199.859 87.6992C202.292 87.9018 204.624 85.9768 205.03 83.4437ZM198.338 85.7741C197.729 85.6728 197.324 85.9767 197.222 86.382C195.194 85.9767 193.978 83.9503 194.586 81.8226C195.194 79.5935 197.527 78.175 199.859 78.5803C201.785 78.9856 203.306 80.8094 203.103 82.7345C202.9 85.1662 200.467 86.2807 198.338 85.7741ZM312.812 203.712C316.26 204.218 320.113 201.989 320.721 198.443C321.33 194.998 318.896 191.249 315.449 190.641C311.697 190.033 307.743 193.377 308.047 197.227C300.747 197.126 293.345 197.126 286.044 197.531C285.841 193.782 285.537 190.033 285.233 186.285C285.639 186.386 286.044 186.386 286.45 186.082C293.75 179.8 303.18 176.558 312.914 177.368C317.984 177.774 324.067 179.293 327.616 183.245C331.773 187.804 331.064 194.289 330.759 199.963C330.05 212.121 324.473 221.443 310.987 219.518C301.558 218.201 293.243 214.249 286.45 207.663C286.45 204.826 286.348 201.888 286.247 199.051C293.547 199.355 300.848 199.456 308.148 199.355C308.453 201.381 310.48 203.307 312.812 203.712ZM309.568 198.038C309.771 197.936 309.872 197.633 309.872 197.329C309.973 194.694 312.306 192.161 315.145 192.668C317.375 193.073 318.896 195.505 318.693 197.633C318.288 203.104 309.466 202.496 309.568 198.038ZM286.247 209.892C293.446 217.795 304.802 222.456 315.449 222.254C327.616 222.051 332.179 211.615 333.091 200.875C334.004 188.818 331.976 179.192 318.998 175.849C307.033 172.708 294.359 176.152 285.03 184.056C284.726 181.219 284.321 178.382 283.814 175.545C284.016 175.443 284.219 175.342 284.422 175.241C284.828 175.747 285.639 175.95 286.247 175.342C297.502 165.716 314.435 157.307 329.745 160.245C347.388 163.589 352.356 182.941 352.356 198.443C352.356 214.047 346.476 231.879 328.934 234.615C312.711 237.148 298.82 227.218 286.957 217.593C286.45 217.188 285.943 217.39 285.74 217.795C285.943 215.06 286.146 212.527 286.247 209.892ZM246.399 272.002C246.906 271.597 247.413 271.192 248.021 270.786C249.846 269.368 251.57 267.848 253.294 266.328C247.818 289.024 273.471 308.072 294.359 296.319C304.599 290.544 309.365 278.993 304.904 268.051C299.327 254.575 284.929 249.509 271.646 247.584C273.066 245.963 274.384 244.342 275.702 242.619C289.593 245.861 307.641 249.61 317.578 260.654C330.354 274.839 318.491 294.901 307.54 306.35C296.589 317.799 279.251 324.081 264.65 315.368C249.441 306.147 245.486 288.416 246.399 272.002ZM277.933 275.346C275.499 276.866 274.992 280.412 276.615 282.945C278.642 285.984 283.002 287.2 285.943 284.769C288.478 282.742 289.492 278.791 287.565 275.954C285.943 273.623 282.698 272.61 280.062 273.421C280.062 273.421 280.062 273.421 279.961 273.319C273.978 268.253 267.793 263.086 261.405 258.526C264.346 255.487 267.185 252.447 270.024 249.306C270.125 249.61 270.429 249.813 270.835 249.813C281.684 251.333 293.446 254.676 300.037 264.099C307.337 274.535 304.397 287.808 293.142 294.09C272.255 305.843 250.86 285.782 255.626 264.2C257.349 262.579 258.972 260.958 260.594 259.337C265.968 264.808 272.052 269.773 278.237 274.333C277.933 274.637 277.831 274.94 277.933 275.346ZM279.758 276.055C279.961 275.954 280.163 275.751 280.163 275.65C284.016 274.333 288.174 278.183 285.436 282.134C281.279 288.011 273.877 278.183 279.758 276.055ZM197.324 309.592C197.324 309.694 197.222 309.694 197.222 309.795C194.485 309.491 191.848 311.72 191.646 314.658C191.341 318.711 195.296 322.055 199.149 321.649C202.698 321.346 206.044 318.205 205.74 314.557C205.435 311.213 202.089 308.275 198.743 308.984C199.656 301.689 200.264 294.293 200.974 286.896C200.974 286.694 200.974 286.491 200.873 286.39C203.914 286.795 206.956 286.896 209.998 286.795C209.897 287.099 209.998 287.504 210.302 287.91C217.603 295.61 221.557 306.35 219.428 316.989C218.414 321.953 216.082 327.121 211.722 330.059C207.159 333.099 200.974 332.592 195.803 331.883C185.055 330.363 176.031 324.183 176.741 312.227C177.45 301.284 184.852 291.962 193.268 285.681C195.296 285.984 197.324 286.187 199.25 286.288C199.25 286.288 199.25 286.288 199.352 286.288C199.149 286.39 198.946 286.694 198.946 286.998C198.135 294.293 197.324 301.993 197.324 309.592ZM198.439 311.011C198.54 311.011 198.642 311.011 198.743 310.909C201.075 310.808 203.407 312.227 203.61 314.76C203.712 317.09 201.582 319.015 199.453 319.42C196.918 319.927 194.18 318.205 193.674 315.672C193.268 312.835 195.904 310.808 198.439 311.011ZM174.206 314.05C174.409 326.209 184.345 332.592 195.397 334.213C207.362 335.834 217.299 332.592 221.05 320.231C224.599 308.376 220.645 295.509 212.432 286.592C215.169 286.288 217.907 285.782 220.645 285.174C220.543 285.478 220.645 285.782 220.847 286.086C230.683 298.852 242.039 314.354 237.071 331.478C232.204 347.993 213.344 350.222 198.743 350.931C180.594 351.843 158.895 348.398 158.49 325.905C158.185 309.086 166.297 294.495 177.552 282.641C181.608 283.755 185.866 284.566 190.125 285.073C190.125 285.073 190.226 285.073 190.226 285.174C190.429 285.174 190.53 285.275 190.733 285.275C181.303 291.253 174.003 302.398 174.206 314.05ZM118.439 276.866C118.337 276.967 118.236 277.17 118.236 277.271C118.134 277.271 118.134 277.271 118.033 277.271C115.397 275.954 111.949 276.055 110.023 278.487C107.893 281.121 108.603 285.073 111.442 286.998C114.383 288.822 118.033 288.011 120.061 285.174C121.582 282.945 121.785 279.399 119.554 277.777C125.84 271.901 131.924 265.72 138.008 259.54C138.109 259.438 138.109 259.438 138.109 259.337C139.934 261.161 141.861 262.883 143.889 264.606C143.686 264.707 143.584 264.91 143.584 265.214C142.165 275.852 140.137 287.302 130.606 293.888C121.886 299.865 110.226 299.561 102.621 291.76C94.6107 283.451 96.3344 271.09 104.142 263.39C111.746 255.892 122.393 254.17 132.634 253.359C133.952 254.98 135.371 256.5 136.892 258.02C136.791 258.02 136.791 258.121 136.69 258.121C130.505 264.403 124.319 270.482 118.439 276.866ZM117.83 284.566C116.309 286.187 113.673 286.288 112.051 284.667C110.631 283.249 110.733 280.513 112.456 279.297C113.876 278.284 115.599 278.487 117.323 278.791C117.425 278.993 117.526 279.196 117.729 279.297C119.858 280.209 119.148 283.147 117.83 284.566ZM99.8833 264.606C93.4954 272.914 92.7856 284.059 99.5791 292.368C106.474 300.676 117.83 302.905 127.564 298.447C140.644 292.57 143.99 279.399 145.815 266.328C149.06 268.861 152.507 271.192 156.056 273.319C155.65 273.421 155.346 273.623 155.245 274.13C151.493 289.227 146.829 312.733 130.302 318.711C114.991 324.284 96.4359 317.293 86.0936 305.438C75.0415 292.773 73.4192 272.914 83.8629 259.337C93.901 246.368 109.617 245.051 124.421 242.112C126.449 245.557 128.781 248.8 131.214 251.839C119.655 251.637 107.184 254.98 99.8833 264.606ZM78.6917 192.769C76.1569 193.377 74.9401 196.619 76.0555 199.254C77.3736 202.192 81.1252 203.813 84.0657 202.395C85.7894 201.584 87.0061 199.963 87.3103 198.139C95.3205 198.848 103.432 198.747 111.442 198.848C111.645 198.848 111.746 198.747 111.848 198.747C111.848 200.571 111.949 202.496 112.152 204.32C112.051 204.32 111.949 204.421 111.949 204.522C104.953 212.223 95.5233 218.505 84.7754 218.809C73.4192 219.113 64.0909 211.108 63.9895 199.558C63.9895 188.818 72.3039 180.408 82.5447 178.382C93.7996 176.152 104.547 182.434 110.733 191.553C111.037 192.06 111.544 192.161 112.051 192.06C111.949 193.782 111.949 195.505 111.949 197.227C111.848 197.126 111.645 197.126 111.544 197.126C103.635 196.923 95.5233 196.619 87.6145 197.025C87.6145 196.011 87.4117 195.1 86.8033 194.188C85.2824 191.756 80.9224 190.439 78.6917 192.769ZM84.3699 200.064C82.8489 201.584 80.3141 201.28 78.8945 199.862C77.2722 198.342 77.2722 195.1 79.0973 194.188C79.1987 194.188 79.4015 194.289 79.6043 194.188C79.9085 194.086 80.2127 193.985 80.4155 193.884C80.5169 193.884 80.7196 193.884 80.821 193.884C81.0238 193.884 81.1252 193.782 81.2266 193.681C82.342 193.478 83.4573 193.58 84.5726 194.492C86.195 195.91 85.8908 198.544 84.3699 200.064ZM155.549 308.072C155.549 307.971 155.65 307.971 155.65 307.87C160.315 299.055 163.154 289.024 165.587 279.905C165.689 279.601 165.587 279.297 165.486 279.095C165.689 278.892 165.79 278.588 165.891 278.284C169.035 279.703 172.381 280.817 175.625 281.83C162.14 292.976 154.332 312.531 156.259 329.857C158.49 349.918 179.58 353.971 196.411 353.363C211.519 352.755 230.885 351.235 238.186 335.632C246.703 317.293 233.826 298.751 223.078 284.769C222.977 284.667 222.875 284.566 222.875 284.566C226.12 283.553 229.365 282.337 232.406 280.817V280.918C236.564 291.354 239.808 303.918 245.993 313.949C246.297 321.447 246.399 329.35 243.864 336.544C241.025 344.852 234.231 350.323 227.337 355.288C217.501 362.482 207.159 368.865 199.554 378.389C193.978 365.927 181.101 360.354 169.947 353.566C162.038 348.804 155.042 342.724 152.406 333.605C149.668 324.993 151.189 315.672 155.549 308.072ZM283.408 231.372C282.8 231.068 282.293 231.271 281.988 231.575C282.8 229.751 283.408 227.928 284.016 226.002C284.726 223.469 285.233 220.835 285.537 218.201C285.537 218.302 285.639 218.403 285.74 218.606C296.082 230.866 315.246 240.187 331.368 236.641C348.808 232.69 354.79 214.249 354.79 198.342C354.79 182.536 349.72 162.981 332.382 158.219C315.753 153.659 296.995 162.879 284.625 173.315C284.219 173.518 283.915 173.822 283.509 174.025C283.205 172.404 282.901 170.884 282.495 169.364C281.887 167.135 281.177 164.906 280.366 162.677C291.317 158.725 302.47 154.976 313.218 150.316C314.333 149.809 315.449 149.302 316.564 148.796C333.598 146.871 348.098 155.382 357.528 169.871C364.118 180.003 369.492 191.452 379.936 198.139C364.22 205.434 361.076 224.584 348.605 235.527C329.441 252.447 302.876 240.491 283.408 231.372ZM395.348 203.307C394.942 215.972 382.167 221.646 371.216 222.558H371.115C369.289 220.43 366.856 218.809 363.713 217.998C363.713 217.998 363.713 217.998 363.611 217.998C368.478 210.095 373.751 202.8 382.978 199.558C383.89 199.254 384.296 197.835 383.282 197.329C377.502 194.188 373.244 189.527 369.492 184.359C371.115 182.941 372.534 181.421 373.852 179.8C373.954 179.8 374.055 179.901 374.156 179.901C386.02 180.104 395.652 191.553 395.348 203.307ZM383.383 145.857C381.355 159.435 378.009 172.505 368.073 182.333C363.104 174.937 359.049 166.73 353.168 160.144C345.056 151.025 333.396 146.161 321.532 146.567C335.322 142.413 348.706 136.232 361.786 130.254C368.377 127.214 374.866 124.175 381.355 120.933C383.181 120.021 386.527 118.906 389.264 117.488C384.803 125.695 384.701 137.245 383.383 145.857ZM363.307 105.126C372.027 109.99 381.355 113.536 391.292 114.448C387.338 116.272 377.401 120.831 376.286 121.439C370.101 124.479 363.915 127.316 357.73 130.153C346.273 135.32 334.41 139.778 322.851 144.946C326.704 142.109 329.948 138.461 331.976 133.699C337.857 119.21 331.368 104.417 329.036 89.6243C341.507 87.9018 353.066 99.4524 363.307 105.126ZM306.323 67.3337C306.526 64.598 306.729 61.8623 306.729 59.1267C315.145 55.2765 325.183 55.2765 332.99 60.7478C342.014 67.131 343.434 79.0869 337.553 88.0032C337.553 88.1045 337.451 88.1045 337.451 88.2058C334.612 87.4966 331.773 87.3952 328.732 88.0032C327.819 81.5186 327.819 74.9328 330.354 68.4482C330.658 67.6376 329.644 66.6244 328.833 66.9284C321.228 69.6641 313.725 69.1575 306.222 67.739C306.222 67.739 306.323 67.5363 306.323 67.3337ZM274.181 9.682C264.447 31.77 254.612 54.4659 247.717 77.5671C247.616 77.9724 248.224 78.175 248.325 77.8711C258.769 54.7699 267.489 30.7568 277.324 7.35161C277.426 7.25029 277.426 7.25029 277.527 7.14897C278.845 16.2679 285.03 23.0564 291.317 29.5409C295.981 34.4043 300.747 39.3691 302.876 45.9549C304.194 50.0078 304.498 54.3646 304.397 58.6201C303.991 58.924 303.991 59.532 304.397 59.8359C304.295 62.3689 304.093 64.8007 303.89 67.3337C303.89 67.435 303.89 67.435 303.89 67.5363C294.257 65.6112 284.625 62.6729 274.789 63.8888C264.042 65.2059 253.902 70.7786 247.311 79.2896C248.528 71.6905 248.123 64.0914 244.067 56.695C237.679 45.1444 226.12 38.2545 215.575 30.3515C229.973 13.1269 256.538 21.2326 274.181 9.682ZM178.363 21.5366C180.796 11.7084 188.604 4.71727 198.743 3.70405C210.099 2.58952 220.34 10.1886 221.354 21.8405C221.354 22.1445 221.456 22.3471 221.659 22.5498C218.921 24.3735 216.386 26.6026 214.257 29.5409C209.288 25.6907 204.523 21.5366 200.873 16.4705C200.467 15.8626 199.453 15.5586 198.946 16.2679C195.296 20.8273 190.834 24.4749 186.069 27.6158C186.069 27.4132 185.968 27.1092 185.765 27.0079C183.331 25.0828 180.898 23.4617 178.262 21.9418C178.262 21.7392 178.261 21.6379 178.363 21.5366ZM184.142 28.7304C175.524 34.303 166.196 38.8625 158.996 46.2589C150.986 54.3646 147.235 66.3205 149.567 77.1618C139.529 53.858 129.896 29.7436 117.932 7.35161C125.84 12.6203 135.067 14.2414 144.497 15.2547C159.199 16.8758 172.076 19.5101 184.142 28.7304ZM108.096 34.9109C112.963 26.9066 115.904 17.9903 117.019 8.66879C125.638 30.3515 136.081 51.4263 145.511 72.7037C142.571 69.6641 139.123 67.131 134.865 65.5099C120.973 60.1399 106.677 63.8888 92.3801 66.7258C92.4814 54.1619 101.81 45.2457 108.096 34.9109ZM91.6703 69.3601C91.7717 69.3601 91.8731 69.3601 91.9745 69.2588C104.243 66.8271 116.512 63.5848 128.882 66.3205C139.833 68.8535 146.018 76.0473 151.696 85.1662C157.476 94.589 162.342 104.417 166.5 114.549C166.601 114.853 166.804 115.056 167.007 115.157C164.37 116.17 161.836 117.184 159.402 118.399C159.706 118.096 159.808 117.792 159.808 117.285C157.171 99.8577 148.654 82.4305 131.721 75.0341C115.498 68.0429 98.1596 75.0341 86.0936 86.7873C73.9262 98.5406 67.9439 117.994 77.8806 133.091C87.7159 147.985 106.677 151.835 123.204 153.761C121.683 156.598 120.264 159.435 119.047 162.373C101.506 155.787 74.7374 150.417 69.8704 129.646C65.2062 109.99 74.6359 90.7388 71.0871 71.2852C77.982 71.7918 84.8768 70.7786 91.6703 69.3601ZM61.1504 62.3689C68.4509 53.1487 81.0238 52.5408 90.1494 59.3293C90.5549 59.6333 90.9605 59.6333 91.3661 59.4306C90.7577 61.8623 90.5549 64.4967 90.7577 67.131C83.6601 68.4482 76.5624 69.4614 69.5662 68.8535C68.755 68.7522 68.2481 69.6641 68.3495 70.4746C69.6676 76.5539 69.6676 82.7345 69.0592 88.9151C69.0592 88.9151 69.0592 88.9151 68.9578 88.9151C66.6258 88.9151 64.2937 89.0164 61.9616 89.3203C56.2835 80.9107 54.357 70.8799 61.1504 62.3689ZM31.5431 107.457C43.2035 98.9458 53.5458 91.2454 68.7551 91.3468C67.0313 106.444 62.9755 121.54 69.3634 136.232C70.9857 139.981 73.5206 143.02 76.4611 145.655C53.5458 135.624 30.4278 125.796 7.10697 116.778C16.2325 117.082 24.2427 112.827 31.5431 107.457ZM20.5925 147.276C18.159 136.84 13.799 127.113 7.81674 118.298C30.1236 128.43 52.7347 137.853 75.3457 147.175C64.6993 145.857 54.0528 150.62 46.144 158.219C40.3645 163.893 36.8157 170.884 32.7599 177.774C32.5571 178.078 32.3543 178.382 32.1515 178.686C24.2427 170.073 23.1274 158.32 20.5925 147.276ZM2.5442 196.923C1.53026 182.536 14.0018 176.456 26.5748 175.95C26.9804 175.95 27.2846 175.747 27.3859 175.545C28.5013 177.166 29.8194 178.686 31.3403 180.003C26.6762 187.196 20.7953 192.87 13.1907 197.126C12.3795 197.633 12.3795 198.848 13.1907 199.254C20.1869 203.307 26.6762 207.765 32.0501 213.439C29.718 215.06 27.7915 216.884 26.1692 218.809H26.0678C14.9144 216.276 3.45676 209.69 2.5442 196.923ZM3.86234 277.98C19.3758 259.641 14.7116 231.474 33.1655 214.756C35.4975 217.39 37.6268 220.227 39.3505 223.469C44.0147 231.98 47.9691 239.782 56.8918 244.646C62.3672 247.584 68.2481 248.901 74.3318 248.597C51.6193 259.337 28.5013 268.76 5.18047 278.081C4.77489 278.081 4.26792 277.98 3.86234 277.98ZM55.2695 300.676C48.1719 298.143 42.3924 292.874 36.1059 288.821C27.5887 283.249 18.0576 279.804 8.01953 278.385C30.5292 270.482 52.5319 260.857 74.129 250.725C68.3495 256.804 65.7132 265.72 65.1048 273.927C64.4965 283.35 66.1188 292.57 67.4369 301.791C66.9299 301.791 66.3216 301.791 65.6118 301.791C62.063 302.196 58.717 301.892 55.2695 300.676ZM93.4954 328.539C92.7856 330.363 92.2787 332.187 91.9745 333.909C91.7717 333.909 91.6703 334.011 91.4675 334.112C81.4294 341.407 67.6397 343.839 57.8044 334.821C48.4761 326.209 50.0984 312.429 60.5421 305.641C61.049 305.337 61.049 304.729 60.6435 304.425C61.2518 304.526 66.2202 304.425 67.9439 304.628C68.9578 312.733 69.4648 320.738 67.6397 328.945C67.4369 329.755 68.2481 330.87 69.1606 330.464C77.1708 327.121 85.3838 327.323 93.6982 328.337C93.4954 328.438 93.4954 328.438 93.4954 328.539ZM94.8135 328.945C94.8135 328.843 94.8135 328.742 94.8135 328.641C107.691 330.363 120.568 333.909 133.141 329.249C139.224 327.019 144.193 323.372 148.147 318.914C137.906 342.218 127.26 366.028 119.959 390.446C116.715 367.649 88.7298 353.768 94.8135 328.945ZM149.06 381.328C138.92 384.063 129.288 387.609 120.162 392.777C120.162 392.676 120.162 392.574 120.162 392.372C130.2 369.068 138.819 345.055 148.958 321.751C147.944 330.262 150.378 339.077 156.259 345.865C162.444 353.059 171.468 357.213 179.782 362.077C179.58 362.178 179.377 362.279 179.174 362.583C173.699 374.742 160.923 378.187 149.06 381.328ZM200.568 393.283C187.59 393.182 178.768 383.151 176.436 371.094C178.363 369.068 180.087 366.636 181.303 363.9C181.405 363.596 181.405 363.394 181.405 363.09C188.502 367.548 194.89 372.715 197.831 381.125C198.236 382.138 199.453 382.341 200.061 381.429C205.131 374.539 211.722 369.372 218.617 364.407C219.631 367.345 221.354 369.676 223.484 371.803C221.557 383.658 213.75 393.385 200.568 393.283ZM251.671 381.328C240.112 378.389 225.714 375.147 220.138 363.292C225.714 359.341 231.291 355.491 236.462 351.033C246.703 342.015 248.731 330.059 248.325 317.394C248.427 317.495 248.528 317.698 248.63 317.799C248.63 317.901 248.63 318.002 248.63 318.103C252.685 330.566 258.262 342.724 263.535 354.68C269.111 367.244 274.688 379.808 281.583 391.764C272.255 386.495 262.014 383.962 251.671 381.328ZM281.786 390.041C276.716 378.592 271.139 367.345 266.171 355.896C261.405 344.852 257.248 333.605 252.787 322.561C255.524 325.094 258.566 327.323 262.318 328.945C271.241 332.795 280.873 331.376 290.1 329.857C294.46 329.147 298.82 328.539 303.18 328.134C312.001 350.931 285.74 368.46 281.786 390.041ZM338.263 333.099C329.543 340.698 317.679 339.279 307.439 336.442C307.337 333.707 306.83 330.768 305.715 327.83C314.029 327.222 322.242 327.323 330.759 328.337C331.672 328.438 332.382 327.222 331.875 326.412C326.704 319.42 327.211 309.998 327.92 301.588C331.672 303.918 335.829 304.425 339.885 303.817C339.479 304.222 339.378 304.932 339.885 305.438C348.402 313.442 346.78 325.804 338.263 333.099ZM363.713 287.91C353.066 295.306 341.811 306.249 328.022 300.068C328.022 299.865 328.022 299.561 328.123 299.359C329.036 289.429 332.28 279.5 331.571 269.469C330.962 259.945 325.994 251.535 318.288 246.571C342.217 257.615 367.464 266.328 392.002 275.751C392.103 275.852 392.205 276.055 392.407 276.156C382.167 278.081 372.433 281.932 363.713 287.91Z" fill="#FFF3B9"/>
</svg>
