<svg width="915" height="870" viewBox="0 0 915 870" fill="none" xmlns="http://www.w3.org/2000/svg">
<g filter="url(#filter0_f)">
<circle cx="480.921" cy="388.902" r="240.706" fill="#FFE066"/>
</g>
<path d="M807.045 491.049C804.948 480.571 802.66 468.949 796.75 460.375C819.248 460.184 844.225 446.848 844.987 421.699C845.559 397.883 826.874 375.211 803.232 373.115C811.621 360.922 816.579 346.251 819.438 331.771C822.108 319.006 823.442 306.241 825.349 293.476C827.446 280.139 828.972 263.945 839.649 254.419C841.174 253.085 839.839 250.608 837.933 250.418C810.668 249.275 786.644 236.7 764.146 222.411C755.185 216.695 745.652 210.027 735.738 206.597C747.177 189.26 744.699 165.635 728.492 152.107C713.049 139.152 691.122 138.009 673.581 146.963C673.391 132.864 670.531 119.337 661.57 107.144C647.461 88.0914 623.628 73.8021 622.865 47.7003C622.865 45.7951 620.387 44.4614 618.861 45.9856C618.289 46.5572 617.908 46.9382 617.336 47.5098C616.955 47.5098 616.573 47.8908 616.383 48.4624V48.6529C590.071 72.6589 547.363 63.1327 517.619 79.1367C515.141 56.8454 496.647 40.8414 473.958 41.2225C452.794 41.6035 431.059 56.8454 429.724 79.1367C417.14 72.2779 403.603 67.8958 389.113 65.8001C364.327 62.1801 337.634 62.9422 317.042 46.5572C315.517 45.2235 313.229 45.9856 313.038 48.2719C311.132 74.3736 301.217 96.4744 286.155 117.432C279.291 126.958 272.618 136.865 269.377 147.535C269.186 147.154 268.995 146.963 268.614 146.773C249.738 132.674 223.236 134.77 208.174 153.441C195.59 169.064 195.59 193.451 209.89 207.74C195.781 210.217 182.816 215.933 170.613 224.697C150.975 238.605 131.527 258.039 105.216 253.847C103.5 253.657 101.212 255.371 102.547 257.277C118.372 278.425 128.286 301.859 133.815 327.58C136.675 340.726 139.345 354.253 146.209 365.685C120.469 365.304 96.2549 379.974 97.0175 407.981C97.7802 432.94 119.897 451.23 143.539 454.278C120.66 484.953 125.236 533.727 97.7802 562.305C96.4456 563.829 97.3989 566.116 99.3055 566.116C126.189 567.449 149.45 576.785 171.185 592.218C179.193 597.933 187.01 603.649 195.971 607.65C200.166 609.365 204.361 610.698 208.746 611.46C187.201 620.987 183.96 649.756 197.687 667.093C215.61 689.766 247.069 688.242 268.995 672.809C267.279 711.866 318.758 741.588 318.377 781.789C318.377 783.503 320.284 784.647 321.809 783.694C344.879 769.976 369.284 764.261 394.451 756.259C406.082 752.639 417.331 747.494 425.911 739.492C428.771 763.689 448.981 782.741 473.958 783.122C497.028 783.313 519.907 765.213 521.242 741.779C529.44 748.066 539.927 752.258 549.651 755.306C575.772 763.689 603.227 767.118 626.869 781.789C628.394 782.741 630.301 781.408 630.301 779.693C632.398 741.779 673.963 711.676 674.726 674.524C695.508 684.241 723.154 683.097 739.36 665.569C754.232 649.375 755.376 625.75 738.979 610.317C738.788 610.127 738.597 610.127 738.407 609.936C748.512 607.84 758.426 602.315 766.625 596.409C789.504 580.024 810.859 566.687 839.458 562.305C841.365 561.924 841.555 559.638 840.411 558.304C823.824 539.252 812.193 516.389 807.045 491.049ZM809.143 515.436C814.1 528.392 820.964 540.586 829.162 551.636C787.216 534.87 745.08 516.961 701.99 502.862C714.002 503.433 726.204 501.909 738.026 496.956C757.664 488.573 767.769 470.663 778.446 453.135C778.637 453.516 779.018 453.707 779.59 453.897C803.613 460.185 801.898 496.194 809.143 515.436ZM714.383 651.661C696.08 649.756 677.776 649.756 659.472 652.042C639.834 654.519 619.052 661.378 599.414 656.043C582.826 651.47 571.768 640.611 563.569 627.083C563.569 626.321 562.997 625.75 562.616 625.369C551.939 607.078 546.028 584.406 538.783 566.116C538.592 565.735 538.402 565.544 538.211 565.163C544.884 561.734 551.367 557.733 557.468 553.16C554.227 585.168 564.522 620.034 593.885 636.8C621.531 652.423 654.325 641.944 676.06 620.987C696.08 601.553 719.531 566.116 705.994 537.728C691.504 507.434 648.605 497.908 618.671 491.049C621.912 486.477 624.581 481.523 626.869 476.379C626.869 477.141 627.25 477.713 628.013 478.094C644.219 486.096 661.951 494.288 680.064 498.861C693.601 504.195 705.422 514.103 711.714 527.63C719.722 544.777 715.337 563.448 712.477 581.167C708.473 602.887 702.944 631.465 714.383 651.661ZM229.147 613.366C229.528 612.985 229.719 612.604 229.528 612.032C229.528 611.46 229.528 610.889 229.337 610.127C229.337 609.555 228.956 608.793 228.384 608.412C223.999 570.307 215.991 531.631 248.976 505.148C249.548 504.958 249.929 504.958 250.501 504.767C273.953 499.242 296.641 487.429 318.949 478.284C321.618 477.141 320.474 472.759 317.805 473.712C280.626 488.573 231.816 519.437 195.399 487.429C181.29 475.045 176.524 455.802 164.893 441.513C154.598 429.129 141.442 419.984 127.714 411.791C149.068 398.645 159.174 380.164 172.329 358.826C189.87 330.247 220.376 312.719 254.124 323.007C254.696 323.198 255.268 323.007 255.458 322.626C257.746 323.96 260.225 325.103 262.703 326.246C280.816 334.82 300.073 342.441 319.712 347.204C317.042 353.682 314.945 360.541 313.038 367.399C288.252 344.918 256.221 322.245 221.139 332.534C187.392 342.441 176.143 380.546 178.049 411.982C180.146 445.895 193.684 476.76 229.909 484.19C259.462 490.097 296.451 477.903 312.276 451.039C313.038 449.706 311.132 448.181 310.178 449.325C289.015 470.854 262.703 485.905 231.244 479.618C196.543 472.759 184.341 442.275 182.625 410.077C181.1 379.974 192.54 343.584 225.715 336.153C258.89 328.723 288.252 351.014 311.132 371.972C311.322 372.162 311.513 372.162 311.704 372.353C309.988 379.783 308.844 387.404 308.081 395.025C295.879 378.069 276.05 366.447 254.505 369.305C232.579 372.162 213.512 389.881 212.94 412.554C212.368 434.083 227.431 452.373 248.976 454.85C271.855 457.517 294.544 445.324 308.462 427.605C309.225 434.654 310.369 441.513 312.085 448.372C315.898 463.804 321.809 478.284 329.435 491.621C299.12 490.287 263.085 503.052 246.688 529.726C230.481 556.399 234.485 591.646 254.314 615.271C274.143 638.896 309.416 652.614 339.922 643.849C375.957 633.371 385.49 587.264 393.498 555.637C393.689 555.256 393.498 554.875 393.498 554.494C397.693 556.78 401.887 558.876 406.272 560.972C405.51 560.781 404.556 560.972 404.366 561.924C404.366 562.305 404.366 562.686 404.556 563.067C404.366 563.258 404.175 563.639 403.984 564.02C393.307 603.458 377.101 652.804 329.245 657.186C295.688 660.235 262.131 643.087 229.337 654.519C231.625 641.754 230.672 627.655 229.147 613.366ZM356.128 289.666C346.023 278.044 334.011 266.803 321.428 258.039C325.431 255.371 326.575 249.656 324.478 245.274C321.428 239.177 313.42 238.224 307.7 240.892C301.408 243.94 298.548 250.989 302.743 256.896C306.556 262.421 313.992 262.421 318.949 258.801C319.14 258.801 319.14 258.801 319.33 258.801C319.33 258.801 319.33 258.801 319.33 258.991C330.579 270.042 342.4 280.711 353.84 291.952C354.412 292.523 355.175 292.523 355.747 292.142C351.934 295.953 348.502 299.954 345.07 304.145C344.879 304.145 344.879 304.145 344.688 304.145C327.338 302.812 309.225 299.382 296.451 286.427C283.295 272.9 278.528 249.846 291.493 234.604C304.84 218.6 331.151 216.504 346.786 230.413C361.085 243.178 363.945 263.564 366.233 281.473C366.233 281.854 366.424 282.045 366.424 282.235C362.801 285.284 359.369 288.522 356.128 291.761C356.7 290.999 356.7 290.237 356.128 289.666ZM318.377 255.562C317.996 255.752 317.805 256.133 317.614 256.514C313.801 258.039 308.653 258.42 305.984 254.609C302.933 250.418 305.603 245.845 309.988 244.13C313.42 242.797 318.568 242.987 320.665 246.607C322.572 249.846 321.618 253.847 318.377 255.562ZM343.926 222.22C326.385 211.551 301.599 215.552 288.252 231.175C275.668 245.655 277.194 267.184 287.49 282.616C299.501 300.525 322.19 308.337 342.972 306.813C338.396 312.719 334.011 319.006 330.389 325.675C301.98 320.721 270.521 316.148 250.882 292.714C228.193 265.279 239.633 226.983 263.466 204.883C286.918 183.163 319.14 171.922 348.692 188.116C375.766 202.787 388.541 232.508 392.926 261.468C393.117 262.802 394.07 263.183 395.214 263.183C387.206 267.184 379.58 271.947 372.334 277.663C371.762 278.044 371.19 278.615 370.618 278.996C367.949 257.848 363.373 234.033 343.926 222.22ZM353.84 300.525C377.292 274.424 408.56 256.324 443.642 252.132C477.008 248.131 512.662 250.989 543.168 266.041C571.196 279.758 595.601 302.24 611.235 329.295C628.013 358.254 630.492 394.263 630.682 427.224C630.873 446.276 628.394 465.519 618.861 482.476C609.71 498.67 595.028 512.769 581.873 525.915C553.083 554.875 516.094 579.833 473.195 573.546C472.623 573.546 472.051 573.546 471.67 573.927C407.035 570.879 347.93 532.584 323.525 471.616C300.455 413.316 311.894 347.013 353.84 300.525ZM719.722 278.615C716.29 298.811 701.609 310.052 684.449 317.863C684.259 317.863 683.877 318.054 683.687 318.054C683.305 318.054 683.115 318.244 682.924 318.435C681.208 319.197 679.492 319.959 677.967 320.53C659.663 327.77 640.978 334.248 622.484 341.107C620.387 335.963 617.908 331.2 615.239 326.437C646.698 322.436 682.924 315.577 701.037 286.427C717.434 260.325 713.621 225.459 694.173 202.215C674.535 178.971 637.356 164.491 608.184 177.638C592.741 184.496 581.301 197.833 573.102 212.122C563.569 228.507 554.989 247.75 555.371 267.184C550.223 264.326 545.075 261.659 539.546 259.372C540.308 259.182 541.071 258.801 541.262 257.658C545.456 237.843 555.561 216.695 560.519 195.547C578.822 172.874 605.324 160.3 635.068 164.11C660.998 167.54 686.356 178.4 712.286 171.16C701.418 207.359 726.014 242.225 719.722 278.615ZM616.955 268.327C617.527 268.708 618.289 268.517 618.671 268.136C624.391 270.423 631.636 269.47 635.64 264.516C639.834 259.372 639.262 250.989 633.161 247.75C627.06 244.511 617.908 246.417 613.904 251.942C611.044 255.752 611.425 262.23 615.239 265.088C614.857 265.279 614.285 265.469 613.904 265.85C609.519 268.708 605.706 273.09 601.892 276.519C597.698 280.139 593.503 283.95 589.309 287.76C588.165 288.713 587.021 289.666 586.449 290.618C583.779 288.141 581.11 285.665 578.25 283.188C578.822 282.997 579.203 282.616 579.203 281.854C576.534 262.04 582.445 241.654 599.795 230.222C616.764 219.172 639.644 220.886 653.562 236.128C666.718 250.799 665.574 274.043 651.846 287.76C639.262 300.144 620.005 302.812 603.227 305.289C602.274 305.479 601.892 306.051 601.702 306.622C597.698 301.669 593.312 296.906 588.737 292.523C589.499 290.618 595.028 286.998 596.172 285.855C598.27 283.95 600.367 282.235 602.464 280.33C603.99 278.996 615.239 267.374 616.955 268.327ZM618.099 253.276C621.531 250.037 628.585 248.894 632.208 252.132C635.64 254.99 634.496 260.706 631.254 263.373C627.823 266.231 623.437 265.66 619.624 264.326C619.624 264.326 619.433 264.135 619.243 264.135C615.239 261.849 614.667 256.514 618.099 253.276ZM604.371 309.861C625.153 306.813 649.939 302.431 661.57 282.616C671.675 265.279 668.243 242.416 652.99 229.27C637.356 215.742 614.476 214.98 597.316 226.221C579.013 238.224 571.386 260.325 575.772 281.283C574.246 280.139 572.721 278.806 571.196 277.663C566.81 274.424 562.234 271.375 557.659 268.708C557.849 268.517 558.04 268.136 558.04 267.755C561.472 237.272 578.441 198.214 607.04 183.353C635.258 168.492 672.628 183.353 691.313 206.788C709.426 229.27 711.714 262.992 694.745 286.998C676.823 312.338 643.076 318.244 614.476 321.864C613.713 322.055 613.141 322.436 612.76 322.817C610.091 318.244 607.04 314.053 603.799 309.861C604.18 309.861 604.18 309.861 604.371 309.861ZM536.686 256.514C536.495 257.277 536.686 257.848 537.067 258.42C533.444 256.896 529.822 255.562 526.009 254.419C526.39 254.228 526.962 253.847 527.153 253.085C534.016 232.699 541.834 212.313 547.363 191.546C551.557 176.113 552.511 159.538 543.359 145.439C525.055 117.813 486.351 117.432 456.989 120.29C429.343 123.148 401.506 134.389 396.739 164.872C391.591 196.88 413.708 228.889 436.778 248.703C429.343 250.227 421.907 252.132 414.852 254.609C414.852 254.228 414.852 253.847 414.662 253.466C406.844 234.414 397.883 215.933 387.016 198.405C374.241 167.159 385.681 137.437 413.518 117.623C433.537 103.524 456.417 93.8071 472.623 74.9452C492.261 100.285 523.149 112.859 543.931 137.056C575.39 173.827 544.884 217.457 536.686 256.514ZM522.767 253.276C512.853 250.227 502.366 248.131 492.071 246.798C505.608 229.46 520.67 207.931 513.234 184.878C507.324 166.587 487.495 158.014 469.572 161.062C447.456 164.682 428.961 181.448 432.012 204.883C434.109 221.458 442.689 239.748 458.705 246.036C452.222 246.417 445.74 247.179 439.448 248.512C439.638 248.131 439.829 247.56 439.448 246.988C422.669 223.744 399.79 203.93 400.934 172.493C402.268 138.199 432.965 126.768 462.518 124.672C491.117 122.576 532.682 123.91 544.122 156.68C549.651 172.493 543.931 189.45 538.974 204.501C533.826 220.315 528.487 236.128 523.149 251.942C522.577 252.323 522.577 252.895 522.767 253.276ZM482.537 196.309C483.681 190.212 478.915 184.115 473.004 183.353C466.331 182.401 459.849 187.164 458.895 194.023C458.133 200.31 463.281 205.645 469.572 204.311C469.954 204.501 470.526 204.501 470.907 204.692C469.572 218.029 470.144 232.127 471.288 245.464C469.382 245.464 467.284 245.464 465.378 245.464C465.187 245.083 464.997 244.511 464.425 244.321C448.981 238.224 440.401 223.744 437.16 207.931C432.393 184.687 449.934 167.54 472.432 165.063C492.071 162.967 509.802 175.732 510.374 196.118C510.946 214.79 498.553 230.603 487.685 244.511C487.304 244.893 487.304 245.464 487.113 245.845C482.919 245.464 478.724 245.274 474.53 245.083C474.339 231.556 474.148 217.648 472.814 204.311C477.39 204.692 481.775 201.072 482.537 196.309ZM469.954 200.691C468.81 200.5 468.047 201.072 467.856 201.834C464.043 201.072 461.755 197.262 462.899 193.261C464.043 189.069 468.428 186.402 472.814 187.164C476.436 187.926 479.296 191.355 478.915 194.975C478.534 199.548 473.958 201.644 469.954 200.691ZM685.212 422.461C691.695 423.413 698.94 419.222 700.084 412.554C701.228 406.076 696.652 399.026 690.169 397.883C683.115 396.74 675.679 403.027 676.251 410.267C662.523 410.077 648.605 410.077 634.877 410.839C634.496 403.789 633.924 396.74 633.352 389.691C634.114 389.881 634.877 389.881 635.64 389.31C649.367 377.497 667.099 371.4 685.403 372.925C694.936 373.687 706.375 376.545 713.049 383.975C720.866 392.549 719.531 404.742 718.959 415.411C717.625 438.274 707.138 455.802 681.78 452.182C664.048 449.706 648.414 442.275 635.64 429.891C635.64 424.557 635.449 419.031 635.258 413.697C648.986 414.268 662.714 414.459 676.441 414.268C677.013 418.079 680.827 421.699 685.212 422.461ZM679.111 411.791C679.492 411.601 679.683 411.029 679.683 410.458C679.873 405.504 684.259 400.741 689.597 401.694C693.792 402.456 696.652 407.028 696.27 411.029C695.508 421.318 678.92 420.174 679.111 411.791ZM635.258 434.083C648.795 448.944 670.15 457.708 690.169 457.327C713.049 456.946 721.629 437.322 723.344 417.126C725.06 394.454 721.247 376.354 696.842 370.067C674.344 364.16 650.511 370.638 632.97 385.499C632.398 380.164 631.636 374.83 630.682 369.495C631.064 369.305 631.445 369.114 631.826 368.924C632.589 369.876 634.114 370.257 635.258 369.114C656.422 351.014 688.263 335.201 717.053 340.726C750.228 347.013 759.57 383.403 759.57 412.554C759.57 441.894 748.512 475.426 715.527 480.571C685.021 485.334 658.901 466.662 636.593 448.563C635.64 447.8 634.686 448.181 634.305 448.944C634.686 443.799 635.068 439.036 635.258 434.083ZM560.328 550.874C561.281 550.112 562.234 549.35 563.378 548.588C566.81 545.92 570.052 543.062 573.293 540.204C562.997 582.882 611.235 618.7 650.511 596.6C669.768 585.74 678.729 564.02 670.34 543.443C659.854 518.104 632.78 508.578 607.803 504.958C610.472 501.909 612.951 498.861 615.429 495.622C641.55 501.719 675.488 508.768 694.173 529.535C718.197 556.209 695.889 593.932 675.297 615.461C654.706 636.991 622.103 648.803 594.647 632.418C566.048 615.08 558.612 581.739 560.328 550.874ZM619.624 557.161C615.048 560.019 614.095 566.687 617.145 571.45C620.959 577.166 629.157 579.452 634.686 574.88C639.453 571.069 641.36 563.639 637.737 558.304C634.686 553.922 628.585 552.017 623.628 553.541C623.628 553.541 623.628 553.541 623.437 553.351C612.188 543.824 600.558 534.108 588.546 525.534C594.075 519.818 599.414 514.103 604.752 508.197C604.943 508.768 605.515 509.149 606.278 509.149C626.679 512.007 648.795 518.294 661.188 536.013C674.916 555.637 669.387 580.596 648.223 592.408C608.947 614.509 568.717 576.785 577.678 536.204C580.919 533.155 583.97 530.107 587.021 527.058C597.126 537.347 608.566 546.682 620.196 555.256C619.624 555.828 619.433 556.399 619.624 557.161ZM623.056 558.495C623.437 558.304 623.819 557.923 623.819 557.733C631.064 555.256 638.881 562.496 633.733 569.926C625.916 580.977 611.997 562.496 623.056 558.495ZM468.047 621.558C468.047 621.749 467.856 621.749 467.856 621.939C462.709 621.368 457.751 625.559 457.37 631.084C456.798 638.705 464.234 644.993 471.479 644.231C478.152 643.659 484.444 637.753 483.872 630.894C483.3 624.607 477.008 619.081 470.716 620.415C472.432 606.697 473.576 592.789 474.911 578.881C474.911 578.5 474.911 578.119 474.72 577.928C480.44 578.69 486.16 578.881 491.88 578.69C491.689 579.262 491.88 580.024 492.452 580.786C506.18 595.266 513.615 615.461 509.612 635.466C507.705 644.802 503.32 654.519 495.121 660.044C486.541 665.76 474.911 664.807 465.187 663.473C444.977 660.616 428.008 648.994 429.343 626.512C430.677 605.935 444.596 588.407 460.421 576.595C464.234 577.166 468.047 577.547 471.67 577.738C471.67 577.738 471.67 577.738 471.86 577.738C471.479 577.928 471.098 578.5 471.098 579.071C469.572 592.789 468.047 607.269 468.047 621.558ZM470.144 624.226C470.335 624.226 470.526 624.226 470.716 624.035C475.102 623.844 479.487 626.512 479.868 631.275C480.059 635.657 476.055 639.277 472.051 640.039C467.284 640.992 462.137 637.753 461.183 632.99C460.421 627.655 465.378 623.844 470.144 624.226ZM424.576 629.941C424.957 652.804 443.642 664.807 464.425 667.855C486.923 670.904 505.608 664.807 512.662 641.563C519.335 619.272 511.9 595.075 496.456 578.309C501.604 577.738 506.752 576.785 511.9 575.642C511.709 576.214 511.9 576.785 512.281 577.357C530.775 601.363 552.129 630.513 542.787 662.711C533.635 693.767 498.172 697.958 470.716 699.292C436.588 701.007 395.786 694.529 395.023 652.233C394.451 620.606 409.704 593.17 430.868 570.879C438.494 572.975 446.502 574.499 454.51 575.451C454.51 575.451 454.701 575.451 454.701 575.642C455.082 575.642 455.273 575.832 455.654 575.832C437.922 587.073 424.195 608.031 424.576 629.941ZM319.712 560.019C319.521 560.21 319.33 560.591 319.33 560.781C319.14 560.781 319.14 560.781 318.949 560.781C313.992 558.304 307.509 558.495 303.887 563.067C299.883 568.021 301.217 575.451 306.556 579.071C312.085 582.501 318.949 580.977 322.762 575.642C325.622 571.45 326.003 564.782 321.809 561.734C333.63 550.683 345.07 539.061 356.509 527.439C356.7 527.249 356.7 527.249 356.7 527.058C360.132 530.488 363.755 533.727 367.568 536.966C367.187 537.156 366.996 537.537 366.996 538.109C364.327 558.114 360.513 579.643 342.591 592.027C326.194 603.268 304.268 602.696 289.968 588.026C274.906 572.403 278.147 549.159 292.828 534.679C307.128 520.581 327.147 517.342 346.404 515.817C348.883 518.866 351.552 521.724 354.412 524.582C354.221 524.582 354.222 524.772 354.031 524.772C342.4 536.585 330.77 548.016 319.712 560.019ZM318.568 574.499C315.708 577.547 310.75 577.738 307.7 574.689C305.031 572.022 305.221 566.878 308.462 564.592C311.132 562.686 314.373 563.067 317.614 563.639C317.805 564.02 317.996 564.401 318.377 564.592C322.381 566.306 321.046 571.831 318.568 574.499ZM284.82 536.966C272.809 552.589 271.474 573.546 284.248 589.169C297.213 604.792 318.568 608.984 336.871 600.601C361.467 589.55 367.759 564.782 371.19 540.204C377.292 544.968 383.774 549.35 390.447 553.351C389.685 553.541 389.113 553.922 388.922 554.875C381.868 583.263 373.097 627.464 342.019 638.705C313.229 649.184 278.338 636.038 258.89 613.747C238.108 589.931 235.057 552.589 254.696 527.058C273.571 502.671 303.124 500.195 330.961 494.669C334.774 501.147 339.159 507.244 343.735 512.96C321.999 512.579 298.548 518.866 284.82 536.966ZM244.972 401.884C240.205 403.027 237.917 409.124 240.015 414.078C242.493 419.603 249.548 422.651 255.077 419.984C258.318 418.46 260.606 415.411 261.178 411.982C276.24 413.316 291.493 413.125 306.556 413.316C306.937 413.316 307.128 413.125 307.318 413.125C307.318 416.555 307.509 420.174 307.89 423.604C307.7 423.604 307.509 423.794 307.509 423.985C294.353 438.465 276.622 450.277 256.412 450.849C235.057 451.42 217.516 436.369 217.326 414.649C217.326 394.454 232.96 378.64 252.217 374.83C273.381 370.638 293.591 382.451 305.221 399.598C305.793 400.551 306.747 400.741 307.7 400.551C307.509 403.789 307.509 407.028 307.509 410.267C307.318 410.077 306.937 410.077 306.746 410.077C291.875 409.696 276.622 409.124 261.75 409.886C261.75 407.981 261.369 406.266 260.225 404.552C257.365 399.979 249.166 397.502 244.972 401.884ZM255.649 415.602C252.789 418.46 248.022 417.888 245.353 415.221C242.303 412.363 242.303 406.266 245.734 404.552C245.925 404.552 246.306 404.742 246.688 404.552C247.26 404.361 247.832 404.17 248.213 403.98C248.404 403.98 248.785 403.98 248.976 403.98C249.357 403.98 249.548 403.789 249.738 403.599C251.836 403.218 253.933 403.408 256.03 405.123C259.081 407.79 258.509 412.744 255.649 415.602ZM389.494 618.7C389.494 618.51 389.685 618.51 389.685 618.319C398.455 601.744 403.794 582.882 408.37 565.735C408.56 565.163 408.37 564.592 408.179 564.211C408.56 563.829 408.751 563.258 408.942 562.686C414.852 565.354 421.144 567.449 427.245 569.355C401.887 590.312 387.206 627.083 390.829 659.663C395.023 697.387 434.681 705.008 466.331 703.865C494.74 702.721 531.156 699.864 544.884 670.523C560.9 636.038 536.686 601.172 516.475 574.88C516.285 574.689 516.094 574.499 516.094 574.499C522.195 572.594 528.297 570.307 534.016 567.449V567.64C541.834 587.264 547.935 610.889 559.565 629.751C560.137 643.849 560.328 658.71 555.561 672.238C550.223 687.861 537.448 698.149 524.483 707.484C505.989 721.012 486.541 733.015 472.242 750.924C461.755 727.489 437.541 717.011 416.568 704.246C401.697 695.291 388.541 683.859 383.584 666.712C378.436 650.518 381.296 632.99 389.494 618.7ZM629.92 474.474C628.776 473.902 627.822 474.283 627.25 474.855C628.776 471.425 629.92 467.996 631.064 464.376C632.398 459.613 633.352 454.659 633.924 449.706C633.924 449.896 634.114 450.087 634.305 450.468C653.753 473.521 689.788 491.049 720.103 484.381C752.897 476.951 764.146 442.275 764.146 412.363C764.146 382.641 754.613 345.87 722.01 336.916C690.741 328.342 655.469 345.68 632.208 365.304C631.445 365.685 630.873 366.256 630.11 366.637C629.538 363.589 628.966 360.731 628.204 357.873C627.06 353.682 625.725 349.49 624.2 345.299C644.791 337.868 665.764 330.819 685.975 322.055C688.072 321.102 690.169 320.149 692.266 319.197C724.298 315.577 751.563 331.581 769.294 358.826C781.687 377.878 791.792 399.407 811.431 411.982C781.878 425.7 775.967 461.709 752.516 482.285C716.481 514.103 666.527 491.621 629.92 474.474ZM840.411 421.699C839.649 445.514 815.625 456.184 795.034 457.898H794.843C791.411 453.897 786.835 450.849 780.925 449.325C780.925 449.325 780.925 449.325 780.734 449.325C789.886 434.464 799.8 420.746 817.151 414.649C818.867 414.078 819.629 411.41 817.723 410.458C806.855 404.552 798.847 395.787 791.792 386.071C794.843 383.403 797.512 380.546 799.991 377.497C800.182 377.497 800.372 377.688 800.563 377.688C822.87 378.069 840.983 399.598 840.411 421.699ZM817.913 313.672C814.1 339.202 807.808 363.779 789.123 382.26C779.781 368.352 772.154 352.92 761.096 340.535C745.843 323.388 723.917 314.243 701.609 315.005C727.539 307.194 752.707 295.572 777.302 284.331C789.695 278.615 801.898 272.9 814.1 266.803C817.532 265.088 823.824 262.992 828.972 260.325C820.582 275.757 820.392 297.477 817.913 313.672ZM780.162 237.081C796.559 246.226 814.1 252.895 832.785 254.609C825.349 258.039 806.664 266.612 804.567 267.755C792.936 273.471 781.306 278.806 769.675 284.14C748.131 293.857 725.823 302.24 704.088 311.957C711.333 306.622 717.434 299.763 721.247 290.809C732.306 263.564 720.103 235.747 715.718 207.931C739.169 204.692 760.905 226.412 780.162 237.081ZM673.01 166.016C673.391 160.871 673.772 155.727 673.772 150.583C689.597 143.343 708.473 143.343 723.154 153.632C740.123 165.635 742.792 188.116 731.734 204.883C731.734 205.073 731.543 205.073 731.543 205.264C726.204 203.93 720.866 203.739 715.146 204.883C713.43 192.689 713.43 180.305 718.197 168.111C718.769 166.587 716.862 164.682 715.337 165.254C701.037 170.398 686.928 169.445 672.819 166.778C672.819 166.778 673.01 166.397 673.01 166.016ZM612.569 57.6075C594.266 99.1417 575.772 141.819 562.806 185.259C562.616 186.021 563.76 186.402 563.95 185.83C583.589 142.391 599.986 97.2365 618.48 53.2255C618.671 53.035 618.671 53.035 618.861 52.8444C621.34 69.9916 632.97 82.7567 644.791 94.9502C653.562 104.095 662.523 113.431 666.527 125.815C669.006 133.436 669.578 141.629 669.387 149.631C668.624 150.202 668.624 151.345 669.387 151.917C669.196 156.68 668.815 161.253 668.434 166.016C668.434 166.206 668.434 166.206 668.434 166.397C650.321 162.777 632.208 157.252 613.713 159.538C593.503 162.015 574.437 172.493 562.044 188.497C564.332 174.208 563.569 159.919 555.943 146.011C543.931 124.291 522.195 111.335 502.366 96.4744C529.441 64.0853 579.394 79.3273 612.569 57.6075ZM432.393 79.8988C436.969 61.418 451.65 48.2719 470.716 46.3666C492.071 44.2709 511.328 58.5602 513.234 80.4704C513.234 81.042 513.425 81.423 513.806 81.8041C508.658 85.2335 503.892 89.425 499.888 94.9502C490.545 87.7103 481.584 79.8988 474.72 70.3726C473.958 69.2295 472.051 68.6579 471.098 69.9916C464.234 78.5652 455.845 85.424 446.884 91.3303C446.884 90.9492 446.693 90.3776 446.312 90.1871C441.736 86.5672 437.16 83.5188 432.203 80.6609C432.203 80.2799 432.203 80.0894 432.393 79.8988ZM443.261 93.426C427.055 103.905 409.514 112.478 395.977 126.387C380.914 141.629 373.86 164.11 378.245 184.496C359.369 140.676 341.256 95.3313 318.758 53.2255C333.63 63.1327 350.98 66.1811 368.712 68.0863C396.358 71.1347 420.572 76.0883 443.261 93.426ZM300.264 105.048C309.416 89.9966 314.945 73.2305 317.042 55.7023C333.249 96.4744 352.887 136.103 370.618 176.113C365.089 170.398 358.607 165.635 350.599 162.586C324.478 152.488 297.595 159.538 270.711 164.872C270.902 141.248 288.443 124.481 300.264 105.048ZM269.377 169.826C269.567 169.826 269.758 169.826 269.949 169.636C293.019 165.063 316.089 158.966 339.35 164.11C359.941 168.873 371.572 182.401 382.249 199.548C393.117 217.267 402.268 235.747 410.086 254.8C410.276 255.371 410.658 255.752 411.039 255.943C406.082 257.848 401.315 259.753 396.739 262.04C397.311 261.468 397.502 260.897 397.502 259.944C392.545 227.174 376.529 194.404 344.688 180.495C314.182 167.349 281.579 180.495 258.89 202.596C236.011 224.697 224.762 261.278 243.446 289.666C261.941 317.673 297.595 324.913 328.673 328.533C325.813 333.867 323.143 339.202 320.856 344.727C287.871 332.343 237.536 322.245 228.384 283.188C219.614 246.226 237.345 210.027 230.672 173.446C243.637 174.399 256.602 172.493 269.377 169.826ZM211.987 156.68C225.715 139.342 249.357 138.199 266.517 150.964C267.279 151.536 268.042 151.536 268.805 151.155C267.661 155.727 267.279 160.681 267.661 165.635C254.314 168.111 240.968 170.017 227.812 168.873C226.287 168.683 225.334 170.398 225.524 171.922C228.003 183.353 228.003 194.975 226.859 206.597C226.859 206.597 226.859 206.597 226.668 206.597C222.283 206.597 217.898 206.788 213.512 207.359C202.835 191.546 199.213 172.684 211.987 156.68ZM156.314 241.463C178.24 225.459 197.687 210.979 226.287 211.17C223.046 239.558 215.419 267.946 227.431 295.572C230.481 302.621 235.248 308.337 240.777 313.291C197.687 294.429 154.216 275.948 110.364 258.991C127.524 259.563 142.586 251.561 156.314 241.463ZM135.722 316.339C131.146 296.715 122.948 278.425 111.699 261.849C153.644 280.902 196.162 298.62 238.68 316.148C218.66 313.672 198.641 322.626 183.769 336.916C172.901 347.585 166.228 360.731 158.602 373.687C158.22 374.258 157.839 374.83 157.458 375.401C142.586 359.207 140.489 337.106 135.722 316.339ZM101.784 409.696C99.8775 382.641 123.329 371.21 146.971 370.257C147.734 370.257 148.306 369.876 148.496 369.495C150.594 372.543 153.072 375.401 155.932 377.878C147.162 391.405 136.103 402.075 121.804 410.077C120.278 411.029 120.278 413.316 121.804 414.078C134.959 421.699 147.162 430.082 157.267 440.751C152.882 443.799 149.259 447.229 146.209 450.849H146.018C125.045 446.086 103.5 433.702 101.784 409.696ZM104.263 562.115C133.434 527.63 124.664 474.664 159.364 443.228C163.749 448.181 167.753 453.516 170.995 459.613C179.765 475.617 187.201 490.287 203.979 499.432C214.275 504.958 225.334 507.434 236.773 506.863C194.065 527.058 150.594 544.777 106.741 562.305C105.979 562.305 105.025 562.115 104.263 562.115ZM200.929 604.792C187.582 600.029 176.715 590.122 164.893 582.501C148.878 572.022 130.956 565.544 112.08 562.877C154.407 548.016 195.781 529.916 236.392 510.864C225.524 522.295 220.567 539.061 219.423 554.494C218.279 572.213 221.33 589.55 223.808 606.888C222.855 606.888 221.711 606.888 220.376 606.888C213.703 607.65 207.411 607.078 200.929 604.792ZM272.809 657.186C271.474 660.616 270.521 664.045 269.949 667.284C269.567 667.284 269.377 667.474 268.995 667.665C250.12 681.383 224.19 685.955 205.695 668.999C188.154 652.804 191.205 626.893 210.843 614.128C211.796 613.556 211.796 612.413 211.034 611.841C212.178 612.032 221.52 611.841 224.762 612.223C226.668 627.464 227.621 642.516 224.19 657.948C223.808 659.472 225.334 661.568 227.049 660.806C242.112 654.519 257.556 654.9 273.19 656.805C272.809 656.996 272.809 656.996 272.809 657.186ZM275.287 657.948C275.287 657.758 275.287 657.567 275.287 657.377C299.501 660.616 323.715 667.284 347.358 658.52C358.797 654.328 368.14 647.469 375.576 639.086C356.319 682.907 336.299 727.68 322.572 773.596C316.47 730.728 263.847 704.627 275.287 657.948ZM377.292 756.449C358.225 761.593 340.112 768.262 322.953 777.978C322.953 777.788 322.953 777.597 322.953 777.216C341.828 733.396 358.035 688.242 377.101 644.421C375.194 660.425 379.77 677.001 390.829 689.766C402.459 703.293 419.428 711.104 435.062 720.25C434.681 720.44 434.3 720.631 433.918 721.202C423.623 744.065 399.599 750.543 377.292 756.449ZM474.148 778.931C449.744 778.74 433.156 759.879 428.771 737.206C432.393 733.396 435.634 728.823 437.922 723.679C438.113 723.107 438.113 722.726 438.113 722.155C451.459 730.538 463.471 740.255 469 756.068C469.763 757.973 472.051 758.354 473.195 756.64C482.728 743.684 495.121 733.967 508.086 724.632C509.993 730.157 513.234 734.539 517.238 738.54C513.615 760.831 498.935 779.121 474.148 778.931ZM570.242 756.449C548.507 750.924 521.433 744.827 510.946 722.536C521.433 715.105 531.919 707.865 541.643 699.482C560.9 682.526 564.713 660.044 563.95 636.229C564.141 636.419 564.332 636.8 564.522 636.991C564.522 637.181 564.522 637.372 564.522 637.562C572.149 660.997 582.635 683.859 592.55 706.341C603.036 729.966 613.523 753.591 626.488 776.073C608.947 766.166 589.69 761.403 570.242 756.449ZM626.869 772.834C617.336 751.305 606.85 730.157 597.507 708.628C588.546 687.861 580.729 666.712 572.34 645.945C577.488 650.708 583.207 654.9 590.262 657.948C607.04 665.188 625.153 662.521 642.504 659.663C650.702 658.329 658.901 657.186 667.099 656.424C683.687 699.292 634.305 732.253 626.869 772.834ZM733.068 665.76C716.671 680.049 694.364 677.382 675.107 672.047C674.916 666.903 673.963 661.378 671.866 655.852C687.5 654.709 702.944 654.9 718.959 656.805C720.675 656.996 722.01 654.709 721.057 653.185C711.333 640.039 712.286 622.32 713.621 606.507C720.675 610.889 728.492 611.841 736.119 610.698C735.356 611.46 735.166 612.794 736.119 613.747C752.135 628.798 749.084 652.042 733.068 665.76ZM780.925 580.786C760.905 594.694 739.741 615.271 713.811 603.649C713.811 603.268 713.811 602.696 714.002 602.315C715.718 583.644 721.819 564.973 720.485 546.111C719.341 528.201 709.998 512.388 695.508 503.052C740.504 523.819 787.979 540.204 834.12 557.923C834.31 558.114 834.501 558.495 834.882 558.685C815.625 562.305 797.322 569.545 780.925 580.786Z" fill="#FFF3B9"/>
<defs>
<filter id="filter0_f" x="0.215332" y="-91.804" width="961.412" height="961.412" filterUnits="userSpaceOnUse" color-interpolation-filters="sRGB">
<feFlood flood-opacity="0" result="BackgroundImageFix"/>
<feBlend mode="normal" in="SourceGraphic" in2="BackgroundImageFix" result="shape"/>
<feGaussianBlur stdDeviation="120" result="effect1_foregroundBlur"/>
</filter>
</defs>
</svg>
