<svg width="308" height="230" viewBox="0 0 308 230" fill="none" xmlns="http://www.w3.org/2000/svg">
<path d="M159.279 62.6668C159.279 62.9687 159.279 63.1699 159.379 63.4718C159.48 63.4718 159.581 63.4718 159.681 63.5724C159.882 63.8742 160.084 64.0754 160.285 64.3773C159.883 63.8742 159.581 63.3711 159.279 62.6668ZM158.574 63.4718V63.5724C156.662 69.1062 155.656 74.5395 155.958 80.2746C156.058 80.3752 156.159 80.3752 156.159 80.4758C156.763 79.5703 157.266 78.5641 157.568 77.4574C157.769 76.8537 158.574 76.6524 158.876 77.2561C158.977 77.3567 159.077 77.558 159.077 77.6586C158.977 73.0303 158.775 68.2007 158.574 63.4718C158.675 63.4718 158.574 63.4718 158.574 63.4718ZM158.977 102.712C159.077 95.1657 158.876 87.6196 158.474 80.0734C158.474 79.8721 158.574 79.7715 158.675 79.7715C158.574 79.6709 158.474 79.5703 158.474 79.4697C158.373 79.6709 158.272 79.8721 158.172 80.174C158.272 80.174 158.373 80.2746 158.272 80.4758C156.36 86.4122 155.756 92.4491 156.763 98.6873C156.763 98.7879 156.763 98.7879 156.763 98.8885C157.467 99.9953 158.272 101.404 158.977 102.712ZM143.68 67.597C142.17 72.1247 141.063 76.3506 140.56 80.9789C140.56 80.8783 140.661 80.8783 140.661 80.7777C140.962 80.0733 141.868 80.0733 142.17 80.7777C142.875 82.5887 143.78 84.1986 144.887 85.6072C144.988 79.4697 144.686 73.634 143.68 67.597ZM140.057 85.406C136.434 95.7694 134.522 105.831 135.226 116.999C135.226 117.1 135.226 117.1 135.226 117.201C137.038 118.106 138.849 119.012 140.359 119.917C141.063 108.145 140.962 96.3731 140.661 84.5005C140.661 84.3998 140.56 84.1986 140.56 84.098C140.459 84.1986 140.459 84.2992 140.359 84.3998C140.258 84.6011 140.258 84.7017 140.157 84.9029C140.157 85.0035 140.157 85.0035 140.157 85.1042C140.258 85.2048 140.157 85.406 140.057 85.406ZM142.371 68.3013C137.44 75.445 134.018 83.2931 132.308 91.7448C134.924 89.0282 137.541 86.3115 139.252 83.3937C139.252 78.061 140.459 72.4265 142.875 67.6976C142.673 67.9995 142.472 68.2007 142.371 68.3013ZM129.792 45.4615C126.571 55.7243 123.955 67.9995 128.986 77.9604C129.389 77.4574 129.691 77.0549 130.094 76.5518C131.704 74.7407 133.616 73.2315 135.629 71.7222C132.71 54.6175 134.924 36.4061 142.472 20.71C137.138 28.2562 132.609 36.4061 129.792 45.4615ZM125.766 88.4245C126.269 85.8085 129.087 82.3875 130.094 80.8783C133.012 76.8536 136.534 73.4327 140.157 70.1124C140.258 69.9112 140.359 69.8106 140.459 69.6093C139.252 70.4143 138.145 71.2192 137.038 72.1247C137.038 72.6278 136.534 72.9296 136.132 72.829C131.301 76.753 127.578 81.482 125.162 87.7202C125.364 87.8208 125.565 88.1226 125.766 88.4245ZM133.415 78.3629C132.106 79.9727 125.665 87.4183 126.974 89.8331C127.074 89.9337 127.074 90.0343 127.074 90.2356C128.181 91.5436 129.389 92.8516 130.395 93.9583C130.597 93.7571 130.697 93.5559 130.899 93.4553C132.006 86.1103 134.522 79.2684 138.346 73.0303C136.534 74.7407 134.924 76.4512 133.415 78.3629ZM142.371 167.508C133.918 176.463 128.383 188.135 128.986 200.712C129.288 207.151 131.301 213.892 136.232 218.219C138.245 220.03 140.56 221.237 142.975 222.243C127.678 209.063 132.71 183.205 142.371 167.508ZM132.408 93.9583C128.685 99.6934 126.672 106.032 128.383 113.377C130.094 114.585 132.006 115.691 133.918 116.597C133.012 106.837 134.32 96.4737 138.145 87.4183C136.434 89.7325 134.421 91.8454 132.408 93.9583ZM128.383 98.8885C126.068 102.209 124.458 105.831 124.76 110.359C125.464 111.063 126.169 111.767 126.974 112.371C126.169 107.642 126.772 103.114 128.383 98.8885ZM125.464 100.398C126.471 98.5867 127.879 96.7756 129.288 95.0651C126.672 92.0466 123.25 88.6257 122.747 84.8023C122.143 90.2355 122.948 95.4676 125.464 100.398ZM72.1257 213.691C71.9245 213.993 71.7232 214.295 71.5219 214.597C94.87 206.246 114.998 194.071 133.113 177.268C135.025 173.948 137.339 170.829 140.057 168.112C113.387 177.369 91.247 193.166 72.1257 213.691ZM75.5474 207.252C87.3221 184.915 109.161 166.704 134.622 163.886C134.119 163.786 133.616 163.685 133.113 163.584C116.407 164.389 98.7949 167.005 87.1209 180.085C81.5857 186.324 79.573 193.568 77.4596 201.416C76.9564 203.428 76.2519 205.34 75.5474 207.252ZM128.181 206.95C113.086 219.527 91.247 223.652 73.0315 215.703C72.5283 215.703 71.9245 215.603 71.4213 215.603C80.5794 219.326 90.0394 222.646 100.204 221.942C110.67 221.137 120.332 216.71 127.98 209.667C128.282 209.365 128.685 209.365 128.986 209.566C128.584 208.66 128.383 207.755 128.181 206.95ZM60.5523 73.0303C77.2583 72.326 95.172 76.0487 109.865 84.098C109.261 82.1863 108.758 80.174 108.456 78.0611C108.255 78.1617 107.953 78.1617 107.752 77.9604C93.8636 70.8167 78.0634 69.8105 62.867 72.4266C62.0619 72.7284 61.3574 72.9296 60.5523 73.0303ZM74.4404 209.667C74.3398 209.968 74.1385 210.27 74.0379 210.572C74.3398 210.27 74.5411 209.968 74.843 209.667C92.3541 189.141 116.809 174.149 142.271 165.999C142.573 165.697 142.975 165.396 143.277 165.094C141.063 164.893 138.95 164.691 136.836 164.289C136.836 164.591 136.635 164.892 136.232 164.993C107.953 167.307 89.5362 187.43 74.843 209.667C74.7423 209.767 74.5411 209.767 74.4404 209.667ZM38.2105 180.488C50.1865 188.235 63.4708 192.26 78.0634 192.461C78.164 192.26 78.164 192.059 78.2647 191.958C78.8685 190.147 79.573 188.437 80.4787 186.827C66.0874 187.531 51.5955 185.619 38.2105 180.488ZM95.6751 125.753C77.7615 120.219 56.3255 125.854 40.5252 135.01C39.8208 135.412 39.0156 135.915 38.3112 136.318C55.9229 127.363 78.466 125.451 97.0841 131.287C97.2854 131.387 97.4866 131.488 97.5873 131.689C96.9834 129.677 96.5809 127.665 96.3796 125.552C96.1783 125.854 95.9771 125.854 95.6751 125.753ZM186.149 74.137C186.854 80.174 187.055 86.3115 186.552 92.4491C186.552 92.5497 186.451 92.6504 186.451 92.751C189.47 98.7879 191.181 105.529 191.282 112.572C194.402 98.9891 192.288 86.2109 186.149 74.137ZM53.2057 127.061C43.645 122.533 35.0907 115.691 28.7505 107.038C31.2665 116.899 35.292 125.854 45.054 130.482C45.3559 130.281 45.7584 130.18 46.0603 129.979C48.375 128.973 50.7904 127.966 53.2057 127.061ZM40.7265 78.6647C37.2042 79.6709 33.7825 80.4758 30.1595 80.8783C54.3127 82.5888 79.1704 91.7448 98.7949 105.73C100.003 102.209 101.713 98.7879 103.827 95.6688C104.229 95.0651 105.035 95.2663 105.236 95.87C105.94 97.8823 107.249 99.3916 108.658 100.8C108.959 99.3916 109.362 98.0836 109.966 96.7756C109.865 96.7756 109.765 96.675 109.664 96.5744C89.9388 80.9789 64.6785 80.0734 40.7265 78.6647ZM20.0956 166.704C24.725 170.426 29.3544 174.149 34.185 177.671C49.1801 183.506 64.8798 186.424 81.0826 185.318C82.4915 182.903 84.1017 180.589 86.0138 178.476C64.3766 181.796 39.4182 177.369 20.0956 166.704ZM24.6243 145.373C49.0795 136.217 79.573 134.607 104.028 143.663C101.009 140.342 98.8956 136.318 97.5873 132.092C97.5873 131.991 97.5873 131.991 97.4866 131.891C97.4866 131.991 97.4866 131.991 97.5873 132.092C97.6879 132.595 97.2854 133.199 96.5809 133.098C74.843 127.966 54.8159 129.979 34.4869 139.235C34.2856 139.336 34.185 139.235 34.0844 139.135C30.9646 141.147 27.8448 143.361 24.6243 145.373ZM22.9135 82.0857C39.7201 107.441 68.2008 114.685 95.7758 123.036C96.1783 123.137 96.279 123.539 96.1783 123.841C96.1783 123.841 96.1783 123.841 96.279 123.841C96.1783 121.829 96.1783 119.817 96.279 117.804C96.1783 117.804 96.0777 117.804 95.9771 117.804C69.7104 110.359 44.3495 97.983 22.8129 81.0795C22.7122 81.0795 22.6116 81.0795 22.5109 81.0795C22.7122 81.482 22.8128 81.7838 22.9135 82.0857ZM25.4294 91.6442C34.185 106.737 48.5763 116.396 64.7791 122.936C64.9804 123.036 65.1817 123.238 65.1817 123.439C72.0251 121.93 79.0698 121.326 85.9132 121.93C62.4644 115.792 37.4054 105.932 23.9199 85.3054C24.5237 87.4183 25.0269 89.5313 25.4294 91.6442ZM27.5429 81.0795C26.4358 81.1801 25.3288 81.1801 24.1212 81.1801C46.4629 96.675 70.2136 108.749 96.279 116.698C96.279 116.698 96.3796 116.698 96.3796 116.798C96.6815 113.578 97.386 110.359 98.3924 107.34C76.4532 93.254 53.6082 85.1042 27.8448 81.5826C27.5429 81.3814 27.5429 81.2808 27.5429 81.0795ZM63.4708 123.942C48.7776 117.804 34.3863 108.849 26.2346 95.0651C26.939 98.3854 27.5429 101.706 28.348 104.925C35.5939 114.081 44.2488 121.326 54.9165 126.457C57.5331 125.451 60.4517 124.646 63.4708 123.942ZM47.6706 168.112C34.5876 166.603 21.4039 163.886 9.22665 158.856C11.8433 160.566 14.3592 162.377 16.7745 164.188C27.8448 169.32 39.0156 173.747 51.0923 175.96C63.2695 178.174 75.2455 177.973 87.4228 176.866C87.926 176.363 88.5298 175.86 89.033 175.357C91.4483 173.244 93.9643 171.433 96.6815 169.923C80.5794 170.628 63.8734 170.024 47.6706 168.112ZM262.232 126.055C264.748 127.061 267.163 128.268 269.478 129.576C278.938 117.1 282.561 102.108 284.473 86.9152C281.253 102.008 271.893 115.691 259.716 125.149C260.521 125.451 261.326 125.753 262.232 126.055ZM244.721 121.426C249.249 122.03 253.678 123.036 258.005 124.546C272.698 113.578 280.85 98.0836 284.473 80.4758C277.126 98.3854 262.433 113.478 244.721 121.426ZM233.047 196.888C248.243 196.586 263.037 192.461 275.818 184.311C282.158 180.287 287.895 175.256 292.725 169.521C295.644 165.999 298.16 162.176 300.877 158.453C282.259 177.771 255.388 188.336 228.719 188.839C230.028 190.851 231.135 192.864 232.141 194.977C232.443 195.681 232.745 196.285 233.047 196.888ZM297.858 160.063C275.214 175.155 245.224 180.387 218.756 177.067C218.957 177.268 219.259 177.469 219.461 177.771C222.681 180.79 225.499 184.11 227.914 187.833C228.015 187.531 228.216 187.33 228.619 187.33C254.583 186.726 278.334 176.665 297.858 160.063ZM149.114 224.658C143.378 218.621 141.466 209.868 141.063 201.718C140.459 189.543 142.17 176.665 146.598 165.295C146.196 165.295 145.793 165.295 145.391 165.295C134.22 181.192 128.483 207.956 144.485 222.747C144.585 222.847 144.585 222.948 144.585 223.048C146.095 223.552 147.605 224.155 149.114 224.658ZM148.812 89.9337C149.315 88.9275 150.02 88.022 150.724 87.1165C150.322 80.2746 148.309 74.4389 144.585 68.8044C146.095 74.6401 146.598 80.7777 145.894 86.714V86.8146C146.8 87.9214 147.806 88.9275 148.812 89.9337ZM147.303 124.344C147.705 117.905 148.108 111.465 147.403 105.026C146.699 98.7879 144.082 93.5559 141.969 88.022C142.673 98.8885 142.371 109.856 141.667 120.622C143.68 121.829 145.592 123.036 147.303 124.344ZM144.585 64.981C145.592 66.6915 146.799 68.3013 148.208 69.7099C144.988 50.4923 145.189 30.2685 148.913 11.0509C148.812 11.1515 148.712 11.3527 148.712 11.4534C138.346 29.6648 133.817 49.9892 136.937 70.8167C139.352 69.1062 141.768 67.2952 143.378 64.8804C143.579 64.5785 144.284 64.4779 144.585 64.981ZM146.498 201.215C145.592 189.543 145.692 176.966 148.108 165.496C148.108 165.396 148.108 165.396 148.208 165.396C148.108 165.396 147.907 165.396 147.806 165.396C142.271 183.808 136.635 209.667 151.026 225.564C151.731 225.866 152.435 226.168 153.039 226.469C153.844 226.872 154.448 227.073 154.951 227.274C149.315 219.728 147.202 210.371 146.498 201.215ZM216.139 126.759C215.938 127.866 215.636 129.073 215.234 130.18C215.334 130.18 215.334 130.079 215.435 130.079C240.091 125.753 269.78 132.997 290.612 146.681C291.014 146.882 291.316 146.983 291.719 147.184C284.07 142.455 277.026 136.217 269.176 131.891C268.773 132.192 268.27 131.79 268.27 131.387C251.967 122.734 234.154 120.722 216.542 126.86C216.441 126.86 216.341 126.759 216.139 126.759ZM214.529 104.825C215.938 108.85 216.743 112.975 216.945 117.201C231.034 116.396 244.318 111.566 256.194 103.819C261.93 100.096 267.264 95.7694 272.396 91.1411C276.623 87.2171 281.655 83.0918 284.07 77.7592C265.05 94.9645 239.085 100.498 214.529 104.825ZM216.542 124.747C224.794 121.326 233.751 120.32 242.607 121.125C242.607 121.024 242.708 120.923 242.909 120.823C260.118 112.673 273.403 99.8947 282.158 83.3937C280.246 86.0097 277.73 88.2232 275.416 90.5374C270.182 95.5682 264.547 100.297 258.508 104.322C246.23 112.673 231.94 118.307 216.945 118.71C216.945 120.722 216.844 122.734 216.542 124.747ZM209.699 141.65C233.047 138.33 259.313 136.821 282.46 143.763C273.604 139.537 264.446 136.016 254.785 133.903C241.601 130.985 229.021 131.186 215.737 131.488C215.435 131.488 215.234 131.287 215.133 130.985C213.825 134.808 212.013 138.431 209.699 141.65ZM185.545 90.9399C185.847 85.1041 185.847 79.2684 185.445 73.3321C184.036 78.061 183.432 82.79 183.633 87.7202C184.237 88.7263 184.941 89.8331 185.545 90.9399ZM183.834 162.075C184.438 162.176 185.042 162.176 185.646 162.276C185.143 162.075 184.64 161.874 184.136 161.773C184.136 161.874 184.036 161.975 183.935 162.075H183.834ZM179.104 202.623C178.803 204.334 178.501 206.044 177.897 207.755C186.451 217.414 200.339 219.829 212.818 219.326C218.253 219.124 223.687 218.319 229.122 217.313C211.409 219.024 192.187 215.2 179.104 202.623ZM175.683 80.7777C178.803 86.714 182.828 91.4429 184.539 98.0836C186.049 104.121 186.149 110.459 184.74 116.496C186.552 115.893 188.263 115.289 189.672 114.383C189.973 101.505 184.841 89.6319 175.683 80.7777ZM173.066 119.314C176.186 118.609 179.91 117.905 183.432 116.899C184.841 109.856 184.841 102.913 182.727 95.9707C181.319 91.6442 178.803 88.1226 176.689 84.1986C180.01 95.7694 178.299 108.447 173.066 119.314ZM207.384 190.248C196.917 183.406 185.747 179.18 173.569 176.564C174.978 179.079 176.085 181.595 177.092 184.311C177.192 184.311 177.293 184.311 177.394 184.412C197.723 193.87 218.253 203.63 237.374 215.502V215.402C227.612 206.547 218.454 197.391 207.384 190.248ZM178.501 81.2807C180.01 82.79 181.319 84.5005 182.627 86.2109C182.526 82.0857 183.231 77.9604 184.74 74.0364C182.727 76.4512 179.205 77.8598 178.501 81.2807ZM164.009 123.137C165.116 122.231 166.424 121.527 167.833 120.823C168.839 120.42 170.047 120.018 171.456 119.615C177.796 107.24 178.299 94.0589 174.878 80.7777C174.878 80.8783 174.878 80.8783 174.878 80.9789C174.676 88.1226 173.569 95.1657 171.557 101.907C169.544 108.548 164.21 116.194 164.009 123.137ZM186.049 137.726C180.01 145.775 170.047 151.008 161.593 156.038C161.09 156.34 160.587 156.038 160.486 155.535C160.285 157.749 159.782 159.962 159.077 162.176C169.443 161.069 179.406 157.044 186.35 148.995C193.596 140.543 194.2 130.18 194.402 119.716C192.892 126.256 189.973 132.494 186.049 137.726ZM167.833 91.7448C167.934 85.1042 162.298 84.1986 159.077 80.3752C159.178 80.8783 159.178 81.3814 159.279 81.8844C160.084 89.6319 160.386 97.3793 160.084 105.127C160.386 105.932 160.688 106.737 160.889 107.541C160.889 104.523 161.895 101.806 163.405 99.0898C163.103 92.751 163.204 87.4183 159.48 81.8844V81.7838C159.48 81.5826 159.782 81.482 159.883 81.5826C163.807 86.6134 164.109 91.6442 164.311 97.4799C165.418 95.6688 166.726 93.8577 168.034 92.0466C167.934 92.0466 167.833 91.946 167.833 91.7448ZM163.807 67.6976C162.7 66.9933 161.795 66.1884 160.99 65.2828C160.788 64.981 160.587 64.7798 160.386 64.4779C160.587 64.7798 160.788 64.981 160.99 65.2828C163.304 68.1001 165.418 70.8167 166.927 74.3382C168.839 78.7654 169.745 83.4943 170.55 88.2233C172.362 85.2048 173.67 81.9851 173.569 78.3629C173.569 78.1617 173.67 77.9604 173.771 77.8598C171.355 73.3321 168.135 70.7161 163.807 67.6976ZM173.167 213.993C175.884 196.687 171.456 179.482 161.291 165.295C161.191 165.194 161.191 165.194 161.291 165.094C160.587 164.993 159.882 164.993 159.178 164.892C164.613 172.841 167.632 182.299 168.336 191.958C168.739 196.989 168.437 202.12 167.531 207.151C166.625 212.685 164.512 217.716 163.204 223.149C164.311 222.545 165.317 221.942 166.323 221.237C169.141 219.225 171.355 216.81 173.167 213.993ZM161.996 165.094C172.261 178.174 176.689 194.675 174.878 210.975C175.481 209.767 175.985 208.56 176.387 207.352C176.186 207.051 176.387 206.749 176.689 206.648C176.991 205.642 177.192 204.636 177.394 203.63C180.111 189.443 172.865 176.262 164.21 165.597C164.109 165.496 164.009 165.295 164.009 165.194C163.204 165.194 162.6 165.194 161.996 165.094ZM166.323 76.2499C164.713 71.8229 161.795 68.6031 159.48 64.6791C159.782 69.6093 160.084 74.4389 160.285 79.369C162.097 81.2807 164.814 82.3875 166.726 84.3998C168.336 86.1103 169.041 88.1226 169.343 90.2356C169.443 90.0343 169.644 89.8331 169.745 89.6319C169.644 89.5313 169.443 89.4306 169.443 89.2294C168.537 84.8023 167.833 80.4758 166.323 76.2499ZM160.889 154.73C168.537 149.398 177.796 145.272 183.834 138.028C190.175 130.482 193.395 120.823 195.207 111.264C191.584 118.509 186.652 124.948 180.815 130.582C177.897 133.299 174.878 135.815 171.557 138.129C169.745 139.437 167.833 140.644 165.921 141.751C164.914 142.355 164.009 142.858 163.002 143.361C162.398 143.964 161.694 144.166 160.99 144.065C160.99 144.166 160.99 144.266 160.889 144.367C160.788 144.568 160.587 144.769 160.486 144.971C160.386 145.071 160.285 145.172 160.184 145.272C160.788 148.492 160.99 151.913 160.688 155.133C160.587 154.932 160.688 154.831 160.889 154.73ZM159.681 143.159C160.99 142.053 163.304 141.449 164.411 140.845C168.739 138.431 172.764 135.613 176.589 132.394C182.828 127.162 187.961 120.923 192.489 114.182C192.087 114.484 191.785 114.786 191.382 114.987C191.382 115.591 190.879 115.792 190.477 115.691C182.023 126.155 164.914 125.753 158.373 138.632C158.775 140.141 159.279 141.65 159.681 143.159ZM161.895 111.264C162.801 115.691 162.801 120.32 161.996 124.847C162.197 124.646 162.499 124.344 162.801 124.143C162.801 124.042 162.7 124.042 162.7 123.942C162.398 117.402 166.927 111.264 169.041 105.328C171.355 98.6873 172.865 91.946 173.771 85.0035C170.349 93.8577 160.99 100.398 162.097 110.862C162.197 111.164 161.996 111.264 161.895 111.264ZM162.398 223.451C162.801 218.823 164.814 214.597 165.82 210.069C166.927 204.938 167.43 199.605 167.229 194.373C166.827 183.808 163.606 174.049 157.769 165.396C157.467 165.496 157.065 165.496 156.863 165.295C156.662 165.295 156.561 165.295 156.36 165.295C160.184 184.915 164.21 206.648 158.272 226.168C158.574 225.966 158.977 225.664 159.379 225.363C160.285 224.759 161.392 224.055 162.398 223.451ZM167.833 122.734C162.298 125.451 159.279 130.482 157.87 136.217C163.807 125.753 177.796 123.841 187.357 116.899C185.445 117.603 183.533 118.207 181.822 118.609C177.092 119.917 172.261 120.622 167.833 122.734ZM155.152 132.796C155.958 118.006 155.857 103.316 146.9 90.7386C146.8 90.638 146.8 90.4368 147.001 90.3362C144.887 88.2232 142.975 86.0097 141.566 83.2931C141.667 83.7961 141.667 84.2992 141.667 84.8023C144.686 91.0405 147.605 96.9768 148.611 104.02C149.617 111.164 149.114 118.307 148.611 125.451C150.624 127.162 152.536 129.073 154.146 131.287C154.549 131.689 154.851 132.293 155.152 132.796ZM155.756 227.375C154.045 206.749 153.039 186.022 151.63 165.396C150.825 165.396 150.02 165.396 149.215 165.396C149.315 165.496 149.315 165.697 149.315 165.798C147.101 176.161 147.101 187.43 147.403 198.096C147.806 208.66 149.919 218.42 155.656 227.375C155.656 227.274 155.756 227.375 155.756 227.375ZM152.234 67.8988C152.435 56.9317 153.039 46.0652 152.838 35.0981C152.637 26.0427 152.033 16.9872 151.429 8.03243C151.328 7.62997 151.127 7.22749 151.026 6.82503C150.825 7.22749 150.724 7.73059 150.523 8.13305C147.101 29.363 146.699 49.8886 149.517 71.2192C149.819 71.521 150.121 71.9235 150.523 72.2253V72.1247C150.523 70.4143 150.926 69.5087 152.133 68.3013C152.033 68.1001 152.133 67.9995 152.234 67.8988ZM150.724 72.5272C152.335 74.3383 153.844 76.0487 154.951 78.1617C154.951 73.7346 155.656 69.3075 157.266 65.1822C156.964 65.4841 156.662 65.8865 156.26 66.1884C155.354 66.9933 154.347 67.6976 153.442 68.5025C153.442 68.905 153.14 69.0056 152.838 69.1062C152.033 69.9112 151.429 70.9173 151.328 72.1247C151.328 72.4266 150.926 72.5272 150.724 72.5272ZM155.052 99.0898C153.442 96.7756 151.429 94.6627 149.416 92.751C158.071 104.724 157.367 120.722 156.36 134.909C156.36 135.01 156.461 135.01 156.461 135.01C157.165 132.192 158.373 129.677 159.883 127.463V127.363C162.197 117.603 160.788 107.441 155.052 99.0898ZM151.932 85.8084C152.838 84.7017 153.844 83.6955 154.75 82.5888C154.146 77.3567 150.322 74.3382 147.001 70.7161C149.919 75.2438 151.63 80.3752 151.932 85.8084ZM157.97 160.566C161.593 147.083 156.561 132.293 144.787 124.244C142.975 123.036 139.855 121.527 136.333 119.716C148.913 129.073 156.662 145.272 157.97 160.566ZM156.36 82.6894C154.649 86.6134 153.24 90.0343 153.14 94.2602C153.945 95.1657 154.75 96.0713 155.454 97.0774C154.851 91.7448 155.354 86.6134 157.165 81.5826C156.964 81.9851 156.662 82.2869 156.36 82.6894ZM154.75 84.6011C153.844 85.6072 152.838 86.6134 151.932 87.6196V87.7202C151.932 88.1226 151.63 88.3239 151.328 88.2233C150.724 88.9276 150.02 89.7325 149.416 90.5374C150.423 91.4429 151.328 92.4491 152.335 93.3546C152.536 90.3362 153.24 87.2171 154.75 84.6011ZM153.542 66.5909C155.454 64.7798 157.266 63.2705 158.876 60.9564C159.178 60.4533 159.883 60.5539 160.084 61.057C160.889 63.673 162.7 65.2828 164.814 66.6914C164.21 48.3794 158.775 30.671 153.14 13.2645C154.951 30.8722 155.354 49.0837 153.542 66.5909ZM158.071 13.1638C156.763 11.6546 155.555 10.1454 154.549 8.53551C156.964 13.4657 160.688 17.7922 163.304 22.5211C166.122 27.6525 168.537 33.0858 170.45 38.7203C174.374 50.4923 176.79 63.8742 175.381 76.2499C175.381 76.6524 175.079 76.8536 174.777 76.8536C174.978 77.3567 175.28 77.8598 175.481 78.4635C176.085 78.9666 176.589 79.4697 177.192 79.9727C177.293 79.369 177.494 78.866 177.997 78.2623C178.601 77.3567 179.406 76.7531 180.212 76.1494C181.62 74.942 184.64 72.4266 184.237 70.0118C184.136 69.3075 184.74 68.905 185.344 69.1062C188.263 70.4143 190.779 72.2253 193.093 74.4389C193.697 50.4923 172.865 34.1925 159.983 15.9811C159.883 15.7798 160.084 15.5786 160.285 15.5786C159.581 14.8743 158.876 14.17 158.172 13.3651C158.172 13.3651 158.071 13.3651 158.071 13.2645C158.071 13.2645 158.071 13.2645 158.071 13.1638ZM159.379 18.3958C156.561 13.7675 153.14 9.64227 152.133 4.30963C152.033 4.20902 152.033 4.00779 151.932 3.90718C152.133 5.51703 152.335 7.02628 152.536 8.63613C156.159 17.8928 159.077 27.3507 161.593 36.9092C164.21 46.8702 166.525 57.133 166.122 67.4964C166.122 67.597 166.122 67.597 166.122 67.597C167.531 68.5026 168.94 69.4081 170.248 70.5149C171.858 71.9235 173.066 73.6339 174.073 75.3444C173.771 62.2644 172.664 49.788 168.336 37.3116C166.021 30.8722 163.002 24.4328 159.379 18.3958ZM154.146 165.396C154.045 165.396 153.844 165.496 153.744 165.396C153.442 165.396 153.14 165.396 152.838 165.396C154.247 185.921 156.561 206.749 156.36 227.274C156.662 227.174 156.964 227.073 157.266 226.872C161.895 206.145 158.876 186.324 155.052 165.697C154.75 165.798 154.347 165.697 154.146 165.396ZM112.884 91.1411C111.979 89.5313 111.173 87.9214 110.57 86.2109C93.0585 78.0611 76.0506 73.8352 56.5268 74.137C56.4261 74.137 56.3255 74.137 56.3255 74.0364C52.0987 75.1432 47.8718 76.5518 43.645 77.7592C66.9932 78.061 91.6496 80.3752 110.57 95.2664C111.274 93.9584 112.079 92.5497 112.884 91.1411ZM112.482 141.449C112.381 140.242 112.281 139.034 112.18 137.726C112.079 137.726 111.979 137.626 111.878 137.525C104.531 126.86 102.116 113.78 103.525 101.102C98.5937 115.893 102.116 129.576 112.482 141.449ZM98.8956 168.816C106.544 164.993 115.098 163.081 123.653 162.478C103.424 162.176 83.196 161.773 62.9676 160.968C43.645 160.264 23.7186 160.063 4.79855 155.133C4.39599 155.233 3.99344 155.334 3.59089 155.435C3.79216 155.535 3.99345 155.636 4.19473 155.736C19.0892 161.572 34.3863 165.295 50.3878 166.905C66.3893 168.515 82.3909 167.911 98.493 168.515C98.6943 168.716 98.7949 168.816 98.8956 168.816ZM113.086 121.93C112.784 122.131 112.482 122.131 112.28 121.728C108.557 114.585 105.739 106.837 105.135 98.7879C105.035 98.6873 104.934 98.486 104.833 98.3854C103.626 111.566 104.934 124.646 112.18 135.915C112.18 132.394 112.482 128.872 112.683 125.552C112.784 124.344 112.884 123.137 113.086 121.93ZM230.631 216.207C212.013 214.597 193.395 205.642 179.306 194.071C179.507 196.285 179.507 198.599 179.306 200.913C193.999 213.993 211.812 217.011 230.631 216.207ZM234.758 206.849C227.612 182.198 206.981 165.094 181.017 163.886C180.715 163.886 180.513 163.786 180.312 163.584H180.212C179.809 163.484 179.205 163.484 178.803 163.283C176.186 164.188 173.368 164.792 170.55 165.094C184.237 166.905 196.817 170.326 208.189 178.979C220.165 188.034 229.222 200.108 236.569 212.987C236.368 210.874 235.361 208.761 234.758 206.849ZM236.468 215.804C216.844 205.843 197.622 195.379 177.696 186.122C178.4 188.235 178.903 190.449 179.205 192.763C179.406 192.662 179.708 192.662 179.91 192.864C196.616 206.547 215.435 212.786 236.468 215.804ZM234.758 211.176C227.21 199.907 219.058 188.94 208.29 180.689C195.81 171.131 182.023 168.012 166.726 166.201C168.839 168.917 170.852 171.734 172.664 174.753H172.764C196.515 177.469 218.454 193.87 234.758 211.176ZM202.453 104.221C204.969 101.404 206.981 98.3855 206.78 94.2602C206.78 93.5559 207.686 93.1534 208.189 93.6565C210.604 96.675 212.516 99.9953 213.925 103.517C226.304 100.7 238.884 98.7879 250.96 94.6627C262.534 90.7386 273.302 85.1041 283.064 77.7592C282.661 77.8598 282.36 77.9604 282.058 78.0611C257.502 91.3423 229.826 91.946 202.352 92.5497C203.157 96.4737 203.157 100.398 202.453 104.221ZM245.425 74.2376C230.128 72.4265 214.73 74.4389 201.144 81.8844C201.044 82.79 200.943 83.6955 200.842 84.5005C224.694 72.829 252.671 86.3115 277.529 78.866C266.962 79.9727 255.992 75.445 245.425 74.2376ZM249.451 150.404C229.927 150.504 210.504 152.316 191.181 155.334C189.269 157.447 187.055 159.258 184.64 160.667C203.66 167.509 224.09 166.301 243.916 164.289C264.446 162.276 284.272 159.258 304.198 153.825C295.342 153.221 286.486 151.812 277.529 151.209C268.17 150.605 258.81 150.303 249.451 150.404ZM199.534 80.7777C200.842 64.2767 194.703 47.8763 183.231 35.8024C176.589 28.7593 168.236 23.326 161.392 16.5848C169.846 25.7408 177.997 35.6012 185.445 45.6627C192.187 54.6175 195.71 64.8804 194.703 76.1494C196.515 78.2623 198.025 80.5764 199.333 83.0918C199.333 82.79 199.433 82.4881 199.433 82.0857C199.232 81.8845 199.132 81.6832 199.132 81.482C199.132 81.2808 199.232 80.9789 199.534 80.7777ZM241.702 82.3875C227.813 81.2807 214.429 80.7777 201.144 85.9091C200.842 86.0097 200.641 85.9091 200.54 85.8084C201.245 87.5189 201.748 89.4306 202.251 91.2417C216.039 90.5374 229.826 90.5374 243.513 88.8269C253.376 87.6195 262.836 85.1042 271.994 81.5826C262.031 83.7962 251.765 83.0918 241.702 82.3875ZM200.943 166.1C206.679 168.313 212.013 171.433 216.844 175.457C216.945 175.357 217.146 175.357 217.246 175.357C232.845 177.57 248.746 176.665 264.043 172.741C278.032 169.118 290.411 162.78 302.689 155.334C284.473 162.276 264.144 163.786 244.922 165.697C230.229 167.207 215.334 168.313 200.943 166.1ZM208.39 143.361C205.17 147.285 200.943 150.706 195.911 153.02C213.322 150.303 230.833 148.895 248.444 148.693C264.345 148.492 281.454 148.593 297.455 151.209C283.97 145.574 270.182 142.053 255.489 141.047C239.689 140.04 223.989 141.65 208.39 143.361ZM199.031 116.999C198.83 117.201 198.528 117.201 198.326 117.1C199.031 120.923 199.534 124.747 199.735 128.57L199.836 128.47C203.258 124.143 206.277 120.018 207.384 114.484C208.39 109.453 208.189 104.322 207.786 99.1904C207.283 105.831 203.962 112.472 199.031 116.999ZM197.219 111.767C197.521 113.176 197.924 114.685 198.125 116.094C202.05 111.868 204.566 107.34 206.076 102.008C203.761 105.529 200.138 108.346 197.219 111.667C197.32 111.767 197.219 111.767 197.219 111.767ZM199.132 107.541C200.742 93.6565 193.697 82.4881 186.25 71.4204C186.049 71.3198 185.948 71.2192 185.747 71.1186C185.747 71.3198 185.646 71.521 185.646 71.7222C185.646 71.7222 185.646 71.7222 185.747 71.8229C193.898 83.1924 196.112 98.2848 192.892 111.767C193.798 110.661 194.402 109.353 194.502 107.843C194.603 106.938 195.81 106.737 196.112 107.642C196.314 108.447 196.515 109.252 196.716 110.057C197.521 109.151 198.326 108.346 199.132 107.541ZM200.54 91.3423C200.037 89.0282 199.132 86.8146 197.924 84.3998C195.509 79.6709 192.389 75.445 188.162 72.5272C195.509 82.2869 201.748 93.7571 200.44 106.233C200.742 105.932 201.044 105.73 201.245 105.429C201.446 100.8 201.547 96.675 200.742 92.5497C200.239 92.4491 200.138 91.7448 200.54 91.3423ZM199.735 130.582C199.735 134.104 199.433 137.525 198.628 140.946C213.02 131.488 213.422 113.377 208.692 98.0836C209.699 103.819 209.799 109.956 208.592 115.691C207.283 121.426 203.862 125.954 200.138 130.381C199.937 130.482 199.836 130.482 199.735 130.582ZM209.497 98.1842C215.838 113.88 213.925 134.003 198.025 142.958C197.018 146.279 195.509 149.498 193.496 152.517C193.395 152.718 193.295 152.819 193.194 153.02C202.755 148.291 210.302 140.845 213.925 130.582C215.234 126.759 215.838 122.734 215.838 118.81C215.334 118.609 215.334 117.804 215.838 117.502C215.334 110.661 213.221 103.919 209.497 98.1842ZM196.414 142.355C199.232 132.897 198.025 122.734 195.81 113.075C195.71 113.981 195.509 114.786 195.408 115.691C196.515 127.765 195.81 140.543 187.558 150.102C180.513 158.252 169.846 162.981 159.178 163.685C158.977 163.685 158.876 163.685 158.775 163.584C158.775 163.685 158.775 163.685 158.675 163.786H158.775C169.946 164.691 181.922 162.679 189.672 154.529C189.672 154.328 189.873 154.026 190.175 154.026C191.382 152.718 192.389 151.309 193.295 149.699C194.603 147.385 195.609 145.071 196.414 142.656C196.414 142.455 196.414 142.455 196.414 142.355ZM123.552 111.566C122.848 110.962 122.244 110.258 121.741 109.554C124.76 120.32 135.528 127.162 142.17 135.815C148.51 144.166 152.838 153.724 155.253 163.786C155.756 163.786 156.26 163.786 156.763 163.786C156.561 153.825 153.744 144.166 148.51 135.613C143.277 126.96 136.132 121.125 127.879 115.49H127.779C125.967 114.786 124.558 113.277 123.552 111.566ZM126.571 161.17C123.854 159.862 121.439 158.252 119.325 156.139C119.225 156.139 119.124 156.139 119.023 156.139C100.808 152.617 82.4915 150.404 63.974 150.102C46.0603 149.8 28.4486 151.611 10.6356 153.624C10.4343 153.624 10.233 153.523 10.233 153.322C9.02537 153.825 7.91835 154.227 6.71069 154.63C26.0333 158.151 45.4565 158.856 65.081 159.56C85.6113 160.264 106.142 160.868 126.571 161.17ZM120.432 107.642C119.627 106.032 119.426 104.422 119.828 102.611C119.728 102.611 119.728 102.611 119.728 102.611C115.903 129.275 131.502 151.008 153.744 163.886C150.724 151.812 145.089 140.644 136.635 131.488C130.094 124.244 121.64 117.704 120.432 107.642ZM129.087 210.874C121.942 217.515 113.086 221.942 103.324 223.25C91.1464 224.96 80.0762 221.036 69.0059 216.508C68.4021 216.307 68.1002 215.603 68.6034 215.1C74.4404 209.264 75.3462 201.215 77.6609 193.669C62.867 194.373 48.7776 189.845 36.6003 181.595C34.3863 180.085 32.2729 178.576 30.2601 176.966C29.8575 176.765 29.455 176.564 29.0524 176.363C28.8512 176.262 28.8512 176.061 28.9518 175.96C19.693 168.816 11.0381 161.17 0.471103 156.038C-0.233367 155.636 -0.132731 154.428 0.672377 154.227C1.07493 154.127 1.37684 154.026 1.77939 154.026C1.88003 153.925 1.98068 153.724 2.18195 153.825C2.28259 153.825 2.38323 153.825 2.48387 153.925C18.0828 150.404 29.7569 138.632 43.7457 131.387C24.8256 122.835 27.1403 96.8762 20.2969 80.4758C20.0956 79.8721 20.6994 79.1678 21.2026 79.1678C30.6626 80.0734 39.3176 77.0549 48.1738 74.2376C54.7153 72.2253 61.3574 70.6155 68.2008 69.9112C81.9883 68.3013 95.9771 69.9112 108.456 76.1494C107.45 65.0816 110.771 53.4102 116.306 44.1535C120.633 36.9092 126.471 31.1741 132.811 25.7408C140.862 18.9996 149.718 11.9564 150.926 0.788079C151.026 -0.117464 152.234 -0.318677 152.536 0.586866C153.945 4.51088 155.958 8.03244 158.474 11.1515C167.33 22.4205 181.62 29.5642 190.074 41.3363C198.125 52.5046 202.352 66.0877 201.547 79.7715C212.818 73.3321 225.7 71.1186 238.582 71.6216C245.526 71.9235 252.369 73.0303 259.213 74.6401C268.27 76.7531 277.63 79.0672 286.284 74.5395C286.888 74.2376 287.794 74.6401 287.794 75.3444C286.083 94.6627 283.668 114.886 270.887 130.281C275.315 132.796 279.542 135.613 283.668 138.732C291.014 144.166 298.16 149.699 307.318 151.712C308.022 151.913 308.224 152.819 307.72 153.322C301.883 159.459 297.858 167.106 292.122 173.344C287.291 178.576 281.655 183.104 275.516 186.827C262.936 194.474 248.344 198.599 233.55 197.995C235.865 203.931 236.972 210.27 240.091 215.703C240.293 216.106 240.091 216.81 239.588 216.911C220.366 220.835 191.986 226.469 177.595 208.962C176.79 211.276 175.683 213.49 174.274 215.502C174.274 215.603 174.274 215.703 174.173 215.804C174.073 216.106 173.871 216.207 173.67 216.207C173.469 216.508 173.267 216.81 172.966 217.112C168.537 222.646 161.493 224.658 156.662 229.79C156.461 229.991 155.958 230.092 155.656 229.89C149.215 225.463 140.962 224.558 135.025 219.326C132.308 216.911 130.496 213.892 129.188 210.572C129.288 210.773 129.188 210.773 129.087 210.874ZM141.164 20.6094C125.565 36.8086 109.765 59.4471 121.137 82.1863C121.942 81.5826 122.747 80.9789 123.552 80.3752C124.256 79.9727 124.76 80.7777 124.558 81.3814C123.854 83.0918 123.955 84.8023 124.659 86.5128C125.364 83.8968 126.571 81.3814 128.081 79.1678C122.244 69.7099 124.76 56.7305 127.779 46.7695C130.697 37.4123 135.125 28.3568 141.164 20.6094ZM127.376 195.278C120.03 201.416 112.582 207.554 103.726 211.276C94.7694 215.1 84.9068 216.307 75.1449 215.804C93.2598 221.338 112.884 218.118 127.578 205.642C127.678 205.541 127.779 205.541 127.779 205.541C127.578 204.636 127.477 203.831 127.376 202.925C127.175 200.41 127.175 197.894 127.376 195.278ZM114.796 149.699C114.796 149.699 114.796 149.599 114.696 149.599C113.689 147.486 113.086 145.172 112.683 142.858C112.582 142.858 112.482 142.858 112.381 142.757C100.204 132.796 96.8828 114.685 102.82 100.498C93.763 117.704 95.8764 140.443 114.796 149.699ZM115.098 111.264C115.098 111.164 114.998 111.063 114.998 110.962C113.891 106.032 109.06 103.517 105.94 99.7941C107.651 107.139 109.765 114.082 113.287 120.923C113.589 117.603 114.193 114.383 115.098 111.264ZM120.13 101.605C120.231 101.303 120.633 101.404 120.633 101.706C120.734 104.624 121.942 107.038 123.653 109.151C123.25 106.435 123.753 104.02 124.76 101.605C121.942 96.3731 120.935 90.3362 122.143 84.5005C120.03 90.0343 119.325 95.5682 119.929 101.605C120.03 101.605 120.13 101.605 120.13 101.605ZM101.814 210.975C111.576 207.151 119.728 200.309 127.578 193.669C128.181 189.141 129.389 184.613 131.402 180.488C115.199 196.184 94.4675 208.459 72.9308 214.999C82.6928 215.2 92.5554 214.597 101.814 210.975ZM116.608 88.8269C113.589 92.5497 111.274 96.7756 109.463 101.505C110.771 102.712 112.18 103.919 113.388 105.127C112.683 99.5928 113.891 93.8577 116.608 88.8269ZM115.4 115.993C114.495 136.318 123.351 154.227 142.271 163.685C145.391 163.987 148.41 164.088 151.429 163.987C131.301 151.712 113.388 129.375 118.621 104.624C117.111 108.346 116.105 112.069 115.4 115.993ZM115.803 108.85C116.608 106.435 117.614 104.121 118.923 101.907C118.017 96.0713 118.721 90.0343 121.036 84.7017C120.935 84.7017 120.935 84.6011 120.835 84.5005C120.634 84.7017 120.432 84.8023 120.332 85.0035C115.803 91.4429 113.991 98.3854 114.495 106.435V106.535C114.998 107.24 115.501 107.944 115.803 108.85ZM115.702 148.09C119.828 157.849 128.986 161.773 138.748 163.182C124.86 155.435 115.098 140.745 114.193 124.948C114.193 125.149 114.193 125.25 114.193 125.451C113.589 132.897 112.784 141.147 115.702 148.09ZM117.715 154.428C116.91 153.523 116.205 152.517 115.602 151.41C111.677 149.901 108.456 147.888 105.739 145.373C105.538 145.574 105.336 145.775 104.934 145.675C90.7438 142.254 77.057 139.437 62.3638 139.839C48.1738 140.242 34.4869 143.26 21.0014 147.788C18.0828 149.599 15.0637 151.309 11.9439 152.718C46.2616 145.474 83.5985 147.083 117.715 154.428ZM120.03 83.1925C109.765 63.1699 119.929 41.7387 134.32 26.4451C130.697 29.4636 127.175 32.4821 124.156 35.903C117.916 42.9461 113.186 51.4985 111.073 60.7551C108.758 70.9173 110.368 80.5764 113.388 90.3362C115.3 87.7202 117.614 85.3054 120.03 83.1925Z" fill="#FCEEAA"/>
</svg>
