<svg width="85" height="63" viewBox="0 0 85 63" fill="none" xmlns="http://www.w3.org/2000/svg">
<path d="M78.8774 23.326C78.3402 27.5954 77.3507 31.8081 74.6649 35.3141C74.0147 34.9465 73.3362 34.6355 72.6294 34.3245C72.4032 34.2114 72.1488 34.1266 71.9226 34.0418C75.3434 31.4123 78.001 27.5671 78.8774 23.326Z" fill="#DAAE59"/>
<path d="M78.9045 21.5163C77.915 26.4642 75.5968 30.8183 71.4691 33.9001C70.2535 33.476 69.0095 33.1933 67.7373 33.0237C72.7131 30.79 76.8124 26.549 78.9045 21.5163Z" fill="#DAAE59"/>
<path d="M78.2269 22.336C75.7673 26.9729 72.0355 30.5637 67.2011 32.8539C67.1445 32.8821 67.1445 32.9104 67.1162 32.9387C64.6284 32.6842 62.1122 32.9669 59.7939 33.9565C59.8788 33.3911 59.907 32.8256 59.907 32.2601C64.1195 32.147 68.1057 30.5637 71.5831 28.217C73.2794 27.0577 74.8626 25.7572 76.3327 24.3435C76.983 23.6932 77.6897 23.0711 78.2269 22.336Z" fill="#DAAE59"/>
<path d="M59.2578 28.3867C66.156 27.171 73.4501 25.5876 78.7651 20.7811C78.0866 22.2796 76.673 23.4671 75.4856 24.5415C74.072 25.8421 72.5736 27.0579 70.9339 28.104C67.5979 30.2811 63.866 31.6099 59.9081 31.8644C59.8798 30.6769 59.6536 29.4894 59.2578 28.3867Z" fill="#DAAE59"/>
<path d="M55.8643 24.9087C63.5541 24.739 71.357 24.5977 78.2552 20.8372C78.34 20.809 78.4531 20.7807 78.5379 20.7524C75.7956 22.7881 72.7706 24.3715 69.5193 25.5024C66.1268 26.6616 62.5929 27.1988 59.1155 27.9905C58.7197 27.0292 58.1825 26.0962 57.504 25.2197C57.3909 25.05 57.1082 25.1914 57.1082 25.3893C57.1365 26.5485 56.5993 27.3968 55.8925 28.1884C56.0622 27.114 56.0622 26.0113 55.8643 24.9087Z" fill="#DAAE59"/>
<path d="M55.3008 22.9859C55.3573 23.0424 55.4139 23.0424 55.4704 23.0141C59.2022 21.5722 62.9623 21.7418 66.8638 22.0246C69.6909 22.2507 72.5746 22.4204 75.3452 21.7984C72.7725 22.788 70.115 23.4948 67.3444 23.8341C63.4995 24.3147 59.598 24.3147 55.7531 24.5127C55.64 24.0037 55.4987 23.4948 55.3008 22.9859Z" fill="#DAAE59"/>
<path d="M67.9344 19.7629C70.8746 20.1022 73.9845 21.3745 76.953 21.0918C69.9417 23.1557 62.1105 19.3953 55.4102 22.6751C55.4384 22.4206 55.4667 22.1662 55.495 21.94C59.3116 19.8194 63.6371 19.254 67.9344 19.7629Z" fill="#DAAE59"/>
<path d="M63.2151 51.9673C70.707 51.8259 78.2555 48.8571 83.4857 43.4286C82.7224 44.4747 82.0156 45.5491 81.1957 46.5387C79.8387 48.1503 78.2272 49.564 76.4461 50.6949C72.8556 52.9851 68.6997 54.1443 64.4308 54.2291C64.3459 54.0595 64.2894 53.8616 64.2046 53.692C63.9219 53.0982 63.5826 52.5327 63.2151 51.9673Z" fill="#DAAE59"/>
<path d="M82.6657 43.8809C77.181 48.5461 70.509 51.3735 63.2149 51.5431C63.1018 51.5431 63.0453 51.5996 63.017 51.6845C62.3385 50.6666 61.5186 49.7053 60.6422 48.8571C60.5857 48.8005 60.5009 48.744 60.4443 48.6592C67.8797 49.5922 76.3046 48.122 82.6657 43.8809Z" fill="#DAAE59"/>
<path d="M83.9925 42.5515C80.5717 44.6438 77.0943 46.425 73.1363 47.4429C68.8391 48.5455 64.4005 48.7717 59.9901 48.178C59.9336 48.178 59.9053 48.178 59.877 48.2063C58.52 47.0753 57.0216 46.1988 55.4102 45.5768C59.453 46.1988 63.6371 45.9161 67.7365 45.492C73.1646 44.9265 78.8754 44.5024 83.9925 42.5515Z" fill="#DAAE59"/>
<path d="M84.4187 42.1283C78.821 43.6551 73.2515 44.5033 67.4841 45.0688C61.9147 45.6342 56.1756 45.9452 50.8323 44.0509C51.5108 43.6551 52.1328 43.1461 52.6699 42.5524C58.098 41.7042 63.5544 41.1953 69.0391 41.167C71.6683 41.1387 74.2975 41.2235 76.9268 41.3932C79.4429 41.5628 81.9308 41.9586 84.4187 42.1283Z" fill="#DAAE59"/>
<path d="M70.7362 38.5654C74.8921 38.8482 78.737 39.8378 82.5254 41.4211C78.0302 40.686 73.2241 40.6577 68.7572 40.7142C63.8097 40.7708 58.8905 41.1666 53.9995 41.93C55.4131 41.2797 56.5722 40.3467 57.5052 39.2157C61.9155 38.7068 66.2976 38.2544 70.7362 38.5654Z" fill="#DAAE59"/>
<path d="M57.8987 38.7069C58.5489 37.8021 59.0578 36.7843 59.3971 35.7099C59.4253 35.7947 59.4819 35.8512 59.5667 35.8512C63.2985 35.7664 66.8607 35.7099 70.536 36.5298C73.2783 37.1518 75.8227 38.1131 78.3106 39.3006C71.8082 37.3497 64.4576 37.7738 57.8987 38.7069Z" fill="#DAAE59"/>
<path d="M59.4541 35.4838C59.5389 35.1728 59.6237 34.8335 59.7085 34.5225C59.7651 34.5507 59.7934 34.5507 59.8499 34.5225C64.7691 32.7978 69.7732 33.3632 74.3814 35.7948C74.3814 35.9361 74.5228 36.0492 74.6358 35.9361C76.841 37.1519 78.82 38.9049 80.9686 40.2337C80.8556 40.1772 80.7707 40.1489 80.6577 40.0924C74.8055 36.2472 66.4371 34.2114 59.5389 35.4272C59.5106 35.4555 59.4824 35.4838 59.4541 35.4838Z" fill="#DAAE59"/>
<path d="M57.5305 49.168C54.3359 46.7648 50.8019 45.7752 46.957 45.2663C47.7486 45.1814 48.512 45.0118 49.2753 44.7573C49.3884 44.8139 49.5297 44.8139 49.6711 44.8422H49.6994C49.7276 44.8987 49.8124 44.927 49.8973 44.927C57.163 45.2663 62.9586 50.1011 64.9942 56.9999C65.1638 57.5653 65.4465 58.1308 65.5596 58.6963C63.411 55.1055 60.8666 51.7127 57.5305 49.168Z" fill="#DAAE59"/>
<path d="M47.4686 48.037C46.9597 47.1888 46.3942 46.3971 45.8005 45.6337C50.0978 46.1427 53.971 47.0191 57.4766 49.7051C60.5299 52.0236 62.8199 55.1054 64.912 58.2721C60.3603 53.3807 54.1689 48.7721 47.4686 48.037C47.4686 48.0087 47.4686 48.0087 47.4686 48.037Z" fill="#DAAE59"/>
<path d="M65.646 59.4307C60.3027 56.1227 54.5071 53.3518 48.7962 50.6941C48.768 50.6658 48.7397 50.6658 48.7114 50.6658C48.457 49.9307 48.1177 49.1956 47.7219 48.4888C51.1428 49.2239 54.2526 50.4114 57.2211 52.334C60.3592 54.398 62.9319 56.9426 65.646 59.4307C65.6743 59.4307 65.6743 59.4307 65.646 59.4307Z" fill="#DAAE59"/>
<path d="M49.5009 53.07C49.4443 53.0135 49.3595 53.0135 49.303 53.0417C49.2182 52.4197 49.0768 51.7977 48.8789 51.1757C54.4766 53.7768 59.9048 56.7173 65.3894 59.5164C59.4807 58.6965 54.2222 56.9435 49.5009 53.07Z" fill="#DAAE59"/>
<path d="M49.3628 53.437C53.3208 56.7168 58.551 59.2049 63.7812 59.6573C58.4945 59.8834 53.4904 59.0352 49.3628 55.3597C49.4193 54.7094 49.4193 54.0591 49.3628 53.437Z" fill="#DAAE59"/>
<path d="M49.3041 55.8407C52.9794 59.3749 58.3792 60.4776 63.355 59.9687C61.8283 60.2514 60.3017 60.4493 58.775 60.5341C55.2694 60.6755 51.3962 60.0252 48.9648 57.2827C49.1062 56.802 49.2193 56.3214 49.3041 55.8407Z" fill="#DAAE59"/>
<path d="M48.0914 58.2155C48.6003 53.6068 47.3563 48.9982 44.4727 45.3226C44.6423 45.3509 44.8402 45.3509 45.0098 45.3509C45.0098 45.3792 45.0381 45.4357 45.0664 45.464C47.4977 48.4327 49.5332 52.1649 48.7699 56.1515C48.7134 56.4342 48.6568 56.717 48.572 56.9997C48.4872 57.028 48.4306 57.1128 48.4872 57.1976C48.4024 57.5369 48.261 57.8762 48.0914 58.2155Z" fill="#DAAE59"/>
<path d="M44.2704 45.3507C47.1541 49.3373 48.398 54.1721 47.6064 59.0352C47.0976 59.8269 46.4473 60.5054 45.6557 61.0426C45.373 61.2406 45.062 61.4102 44.7793 61.5798C45.1468 60.0813 45.7405 58.6394 45.995 57.0843C46.2494 55.6706 46.3059 54.2287 46.2211 52.815C46.0232 50.1007 45.1751 47.4712 43.6484 45.2094C43.8463 45.2376 44.0442 45.2659 44.2421 45.2659C44.2704 45.3224 44.2704 45.3224 44.2704 45.3507Z" fill="#DAAE59"/>
<path d="M43.2825 45.3795C44.9222 47.8111 45.8269 50.5536 45.94 53.5224C45.9965 54.9926 45.8552 56.4911 45.5442 57.9331C45.2615 59.2054 44.696 60.3929 44.583 61.6935C44.3002 61.8631 43.9893 62.0328 43.7065 62.2307C43.5935 62.3155 43.5086 62.3721 43.3956 62.4569C45.0636 56.9718 43.9327 50.8364 42.8584 45.3513C42.8867 45.3513 42.9432 45.3513 42.9998 45.3513C43.0846 45.4078 43.1977 45.4078 43.2825 45.3795Z" fill="#DAAE59"/>
<path d="M42.8879 62.7679C42.9445 56.9718 42.2942 51.1474 41.8984 45.3796C41.9833 45.3796 42.0681 45.3796 42.1529 45.3796C42.2094 45.4079 42.2377 45.4079 42.266 45.3796C42.3225 45.4927 42.4356 45.4927 42.5204 45.4644C43.5947 51.2605 44.4429 56.8304 43.1424 62.6548C43.0576 62.7114 42.9728 62.7396 42.8879 62.7679Z" fill="#DAAE59"/>
<path d="M41.5869 45.3796C41.9827 51.1757 42.2654 57.0001 42.746 62.7962H42.7177C41.1345 60.2799 40.5126 57.5373 40.3995 54.5686C40.2864 51.5999 40.3147 48.4332 40.9366 45.4927C40.9366 45.4362 40.9366 45.4079 40.9084 45.3796C41.1345 45.3796 41.3607 45.3796 41.5869 45.3796Z" fill="#DAAE59"/>
<path d="M40.5947 45.4079C39.9161 48.6311 39.8879 52.1653 40.1423 55.4451C40.3402 58.0463 40.9622 60.6475 42.5171 62.768C42.3758 62.7397 42.2061 62.6549 41.98 62.5418C41.7821 62.457 41.6124 62.3721 41.4145 62.2873C37.3717 57.8483 38.9549 50.5537 40.5098 45.3796C40.5381 45.3796 40.5947 45.3796 40.6229 45.3796C40.5947 45.3796 40.5947 45.3796 40.5947 45.4079Z" fill="#DAAE59"/>
<path d="M38.5922 55.586C38.7053 57.9045 39.2425 60.3643 40.8539 62.0324C40.4299 61.8628 40.0341 61.7214 39.61 61.5518C39.61 61.5235 39.61 61.4952 39.5817 61.4669C35.0866 57.3107 36.698 49.7899 39.8362 45.3226C39.9492 45.3226 40.0623 45.3226 40.1754 45.3226C38.9315 48.5458 38.4226 52.1649 38.5922 55.586Z" fill="#DAAE59"/>
<path d="M38.9832 45.9732C36.2691 50.4121 34.8555 57.6502 39.1811 61.3824C38.5025 61.0996 37.8523 60.7321 37.2869 60.2514C35.9016 59.0074 35.3361 57.113 35.2513 55.3318C35.0534 51.7693 36.5801 48.4895 38.9832 45.9732Z" fill="#DAAE59"/>
<path d="M34.912 57.8203C32.7633 59.7994 30.021 61.0435 27.1091 61.2697C24.2536 61.4959 21.6244 60.5345 19.0234 59.4884C19.1648 59.4884 19.3344 59.5167 19.4758 59.5167C24.6212 61.7503 30.7278 60.5911 34.9685 57.0569C35.0251 57.3113 35.0816 57.5375 35.1664 57.7637C35.0816 57.7355 34.9968 57.7355 34.912 57.8203Z" fill="#DAAE59"/>
<path d="M28.1297 58.3C30.6176 57.2256 32.7097 55.5009 34.7735 53.8045C34.7169 54.5113 34.7169 55.2464 34.8018 55.9533C34.83 56.2077 34.8583 56.4339 34.9148 56.6884C34.8866 56.6884 34.8583 56.7167 34.8583 56.7167C30.759 60.2226 25.2178 61.0991 20.1289 59.5723C22.843 59.6854 25.6136 59.3744 28.1297 58.3Z" fill="#DAAE59"/>
<path d="M35.9066 49.5924C35.3695 50.7516 35.002 52.0239 34.8323 53.2962C32.5989 55.1906 30.3372 57.0849 27.5949 58.1593C24.9939 59.1772 22.2233 59.3468 19.481 59.262C25.531 57.4525 31.3267 54.0031 35.9066 49.5924Z" fill="#DAAE59"/>
<path d="M38.3085 46.1431C37.5452 46.9065 36.8949 47.7547 36.3578 48.716C31.2689 53.4377 25.6146 56.8588 19.0557 59.2055C19.1122 59.1207 19.1687 59.0359 19.2253 58.9511C24.6251 53.1832 30.8166 48.7442 38.3085 46.1431Z" fill="#DAAE59"/>
<path d="M38.9296 45.5484C31.777 47.8386 24.907 52.0514 19.9878 57.8192C24.1437 51.5707 29.2891 45.916 37.2334 45.2657C37.3464 45.2657 37.403 45.1526 37.403 45.0678C37.9967 45.1809 38.6187 45.2374 39.2124 45.294C39.1275 45.3788 39.0427 45.4636 38.9296 45.5484Z" fill="#DAAE59"/>
<path d="M36.8111 44.9547C29.6585 45.7464 23.5236 50.8639 20.2158 57.1407C20.4137 56.6035 20.6116 56.0663 20.753 55.5008C21.3467 53.2955 21.9121 51.2598 23.467 49.5068C26.7748 45.8312 31.7223 45.0961 36.3871 44.8699C36.5284 44.8982 36.6698 44.9264 36.8111 44.9547Z" fill="#DAAE59"/>
<path d="M9.72656 49.62C13.4867 51.062 17.5295 51.5992 21.5723 51.373C21.3461 51.8254 21.1199 52.3343 20.9503 52.8149C20.922 52.8715 20.922 52.928 20.8938 52.9563C16.8227 52.9563 13.0909 51.7971 9.72656 49.62Z" fill="#DAAE59"/>
<path d="M23.1545 49.0833C22.6173 49.6771 22.165 50.3274 21.7692 51.006C17.1892 51.2887 12.8072 50.497 8.59472 48.8572C7.23769 47.8676 5.9372 46.7932 4.63672 45.7753C10.0366 48.7441 17.0761 49.9881 23.1545 49.0833Z" fill="#DAAE59"/>
<path d="M26.2046 46.6512C25.4412 47.0754 24.7345 47.5843 24.0559 48.178C23.8863 48.3194 23.745 48.4608 23.6036 48.6021C20.1545 48.8849 16.8185 48.9697 13.3976 48.3477C10.0051 47.7256 6.86693 46.4816 3.75707 45.0396C3.05029 44.5024 2.37178 43.9935 1.63672 43.5411C5.05756 44.9831 8.76111 45.7182 12.4364 46.1423C16.9033 46.6795 21.5963 46.8492 26.2046 46.6512Z" fill="#DAAE59"/>
<path d="M33.7278 44.5599C31.2964 44.7296 28.8934 45.2668 26.773 46.3412C26.7447 46.3129 26.7165 46.3129 26.6599 46.2846C22.1365 46.115 17.6414 46.2846 13.1462 45.8322C8.65105 45.3799 4.38207 44.3337 0.169628 42.6939C0.113085 42.6656 0.0565428 42.6373 0 42.609C0.113086 42.5808 0.22617 42.5525 0.339256 42.5242C5.62601 43.9096 11.2237 43.9662 16.6801 44.1641C22.3627 44.362 28.0452 44.4751 33.7278 44.5599Z" fill="#DAAE59"/>
<path d="M17.2731 43.7389C11.7602 43.5409 6.27557 43.343 0.875732 42.3534C1.21499 42.2403 1.55425 42.1273 1.86523 41.9859C1.86523 42.0424 1.8935 42.099 1.97832 42.0707C6.98236 41.477 11.9299 40.968 16.9622 41.0811C22.1641 41.1942 27.3095 41.8162 32.4266 42.7775C32.4549 42.7775 32.4832 42.7775 32.5114 42.7775C33.1051 43.3713 33.7836 43.8237 34.547 44.1912C28.7796 44.1064 23.0405 43.9368 17.2731 43.7389Z" fill="#DAAE59"/>
<path d="M28.4665 39.8377C28.5796 39.866 28.6362 39.8094 28.6927 39.7529C29.456 40.4597 30.3607 41.0252 31.4633 41.4493C31.6329 41.7603 31.8308 42.0431 32.057 42.2975C22.473 40.2336 11.9843 39.8094 2.34375 41.7886C3.22016 41.3928 4.0683 40.9121 4.88818 40.4032C8.67654 39.1309 12.4932 38.2827 16.5077 38.1696C20.6353 38.0847 24.4803 38.8764 28.4665 39.8377Z" fill="#DAAE59"/>
<path d="M26.1203 36.2753C26.3182 36.3319 26.4313 36.1622 26.403 35.9926C26.7705 37.2084 27.3642 38.3111 28.2124 39.2441C21.3424 36.7277 12.7762 37.1518 5.90625 39.7247C6.81093 39.131 7.68735 38.5372 8.56376 37.9435C8.59203 37.9718 8.6203 38 8.67685 37.9718C14.3877 35.4271 20.0137 34.8334 26.1203 36.2753Z" fill="#DAAE59"/>
<path d="M26.0655 34.2395C26.1221 34.8333 26.2352 35.3988 26.4048 35.9642C26.3765 35.9077 26.32 35.8794 26.2634 35.8511C21.0049 34.2113 14.7004 34.7485 9.75293 37.2648C9.95083 37.1517 10.177 37.0104 10.3749 36.8973C14.8135 34.3244 20.8353 32.741 25.8676 34.2961C25.9242 34.2678 26.009 34.2678 26.0655 34.2395Z" fill="#DAAE59"/>
<path d="M29.8295 22.5624C25.7302 20.3005 20.6696 19.2544 15.9766 19.4523C16.1745 19.424 16.4006 19.3675 16.6268 19.3392C20.8958 18.6041 25.3344 18.8868 29.2358 20.8942C29.3207 20.9225 29.3772 20.9225 29.4337 20.9225C29.5468 21.4314 29.6599 21.9969 29.8295 22.5624Z" fill="#DAAE59"/>
<path d="M30.0505 23.1557C30.2201 23.6363 30.4463 24.0887 30.7007 24.5411C30.4463 24.9086 30.2201 25.3045 30.0505 25.7286C24.7355 21.5158 17.809 20.8938 11.25 20.8089C12.4374 20.4697 13.6248 20.0738 14.8122 19.7628C14.8405 19.7628 14.8405 19.7911 14.8687 19.7911C20.3251 19.678 25.103 20.8655 30.0505 23.1557Z" fill="#DAAE59"/>
<path d="M10.4021 21.0073C17.1307 21.4032 24.2551 21.6576 29.768 26.0683C29.7963 26.0966 29.8245 26.0966 29.8528 26.1249C29.7115 26.4924 29.5984 26.86 29.4853 27.2558C29.0895 26.86 28.722 26.4359 28.5241 25.8704C28.4675 25.7008 28.2413 25.6442 28.1283 25.8138C27.5628 26.6903 27.0822 27.6234 26.7147 28.6412C21.2018 24.7112 14.2187 22.1383 7.43359 21.6576C8.45136 21.5163 9.44086 21.2901 10.4021 21.0073Z" fill="#DAAE59"/>
<path d="M26.0362 31.6951C18.7139 29.4614 12.0136 26.0686 5.76562 21.7144C6.07661 21.7144 6.41587 21.7144 6.72685 21.6862C6.72685 21.7427 6.75512 21.771 6.81167 21.7993C14.0774 22.7888 20.495 25.079 26.6299 29.0373C26.3472 29.9138 26.1493 30.8186 26.0362 31.6951Z" fill="#DAAE59"/>
<path d="M5.40054 21.7141C11.4506 26.4641 18.5467 29.97 25.9538 32.034C25.9821 32.034 26.0104 32.034 26.0387 32.034C26.0104 32.5995 25.9821 33.165 26.0387 33.7304C26.0387 33.7304 26.0387 33.7304 26.0104 33.7304C26.0387 33.6456 26.0104 33.5325 25.8973 33.5043C18.1509 31.1575 10.1784 29.1218 5.42881 21.9968C5.40054 21.912 5.37227 21.8272 5.34399 21.7424C5.34399 21.7141 5.37226 21.7141 5.40054 21.7141Z" fill="#DAAE59"/>
<path d="M23.1261 33.1653C21.2037 32.9956 19.2247 33.1653 17.3022 33.5894C17.2739 33.5328 17.2457 33.4763 17.1891 33.448C12.6374 31.582 8.62289 28.896 6.13501 24.6549C5.99365 24.0612 5.85229 23.4391 5.71094 22.8737C9.47103 28.6698 16.5389 31.4689 23.1261 33.1653Z" fill="#DAAE59"/>
<path d="M6.33154 25.6161C8.6498 29.4896 12.6643 32.006 16.792 33.7307C15.9721 33.9286 15.1522 34.1831 14.3606 34.4658C11.3921 33.0238 8.96078 30.9881 6.89697 28.4152C6.69907 27.4822 6.52944 26.5209 6.33154 25.6161Z" fill="#DAAE59"/>
<path d="M7.07031 28.9808C8.82314 31.3841 11.2262 33.335 13.9403 34.6073C13.2617 34.8618 12.5832 35.1445 11.9613 35.4272C11.8764 35.4838 11.7634 35.5121 11.6785 35.5686C8.90795 34.268 7.7771 31.7517 7.07031 28.9808Z" fill="#DAAE59"/>
<path d="M54.649 31.5538C54.5642 31.1297 54.4793 30.7338 54.3945 30.338C54.4228 30.338 54.4228 30.3097 54.4228 30.3097C55.2427 29.3767 56.2604 28.585 56.9107 27.5955C56.4583 29.0657 55.7516 30.338 54.649 31.5538Z" fill="#DAAE59"/>
<path d="M55.1038 35.0029C55.1038 35.0029 55.0755 35.0029 55.0755 35.0312C55.0472 33.9568 54.9059 32.8824 54.6797 31.808C54.7362 31.8363 54.7928 31.8363 54.8776 31.7797C56.2629 30.5074 57.1958 28.6413 57.3372 26.7753C57.4503 28.2172 57.5068 29.6592 57.2241 31.0729C56.9131 32.6279 56.065 33.7871 55.1038 35.0029Z" fill="#DAAE59"/>
<path d="M57.5889 26.4639C58.9176 30.7615 58.8045 35.8225 54.7617 38.5085C54.9879 37.5754 55.0727 36.5859 55.0727 35.5963C55.101 35.5963 55.1292 35.568 55.1858 35.5397C56.2318 34.324 57.1931 33.0234 57.5606 31.4118C57.9281 29.8284 57.8716 28.0755 57.5889 26.4639Z" fill="#DAAE59"/>
<path d="M54.6206 39.0744C59.0875 36.558 59.6246 30.875 57.8435 26.4926C58.8896 28.1042 59.4833 29.9985 59.5681 31.8928C59.4267 31.9776 59.4267 32.2038 59.5681 32.2604C59.5681 33.3913 59.3985 34.494 59.0309 35.5684C58.0132 38.4523 55.8928 40.5446 53.207 41.8735C53.2353 41.8169 53.2636 41.7886 53.2918 41.7321C53.9138 40.9121 54.3379 40.0074 54.6206 39.0744Z" fill="#DAAE59"/>
<path d="M53.9997 30.6763C54.6217 33.3906 54.961 36.2745 54.1694 38.9039C54.1694 38.9322 54.1411 38.9322 54.1411 38.9605C53.9432 39.6391 53.6605 40.3176 53.2647 40.9396C53.0102 41.392 52.6992 41.7879 52.3883 42.1554C52.3034 42.1837 52.2469 42.2402 52.2469 42.2968C50.07 44.587 46.7057 45.1524 43.5676 44.898H43.5393C43.5393 44.8697 43.5393 44.8697 43.5676 44.8414C43.5959 44.8697 43.6241 44.8697 43.6807 44.8697C46.6774 44.6718 49.6742 43.3712 51.6532 41.0527C53.9715 38.3667 54.1976 34.776 53.8584 31.3831C53.9149 31.1569 53.9432 30.9025 53.9997 30.6763Z" fill="#DAAE59"/>
<path d="M53.6342 32.5431C53.5777 35.4836 53.3798 38.3958 51.3725 40.7707C49.4218 43.0326 46.6229 44.1636 43.7109 44.4746C43.9088 43.8808 44.0219 43.2588 44.1067 42.6085C44.135 42.7216 44.2764 42.8347 44.4177 42.7499C46.7925 41.3362 49.5914 39.866 51.2877 37.6041C52.362 36.1339 53.1536 34.3809 53.6342 32.5431Z" fill="#DAAE59"/>
<path d="M49.7575 35.5965C51.3972 34.0132 52.7825 32.2037 53.8003 30.168C53.2914 32.854 52.3867 35.5682 50.6056 37.6888C48.8811 39.7245 46.3084 40.912 44.1598 42.3822C44.1315 42.4105 44.1032 42.4388 44.075 42.4953C44.1598 41.5623 44.1032 40.6292 43.9336 39.7245C43.9619 39.6962 43.9901 39.6962 44.0184 39.6397C44.0467 39.5831 44.1032 39.5266 44.1315 39.47C44.1598 39.4417 44.1598 39.4135 44.1598 39.3852C44.3577 39.4135 44.5556 39.3569 44.7252 39.1873C45.0079 39.0459 45.2906 38.9045 45.5451 38.7349C46.0822 38.4239 46.6194 38.0846 47.1283 37.717C48.0895 37.095 48.9376 36.3882 49.7575 35.5965Z" fill="#DAAE59"/>
<path d="M53.0371 30.9881C51.7649 32.8824 50.323 34.6071 48.5702 36.1056C47.4959 37.0104 46.365 37.8021 45.1494 38.4806C44.8384 38.6503 44.1881 38.8199 43.8206 39.1309C43.7075 38.7068 43.5944 38.311 43.4248 37.9152C45.2624 34.2961 50.0686 34.4092 52.4434 31.4687C52.5565 31.4687 52.6978 31.4122 52.6978 31.2708C52.8392 31.1577 52.9523 31.0729 53.0371 30.9881Z" fill="#DAAE59"/>
<path d="M43.3406 37.2085C43.7364 35.5686 44.5845 34.1549 46.1394 33.4198C47.3834 32.826 48.7404 32.5998 50.0409 32.2606C50.5498 32.1192 51.0869 31.9778 51.5958 31.7799C48.9383 33.7308 45.0086 34.268 43.3406 37.2085Z" fill="#DAAE59"/>
<path d="M43.367 44.0229C42.9995 39.7253 40.8225 35.2015 37.3169 32.572C38.2781 33.0527 39.1828 33.4768 39.6917 33.8444C42.9712 36.078 44.3565 40.2342 43.367 44.0229Z" fill="#DAAE59"/>
<path d="M42.5753 44.9552C41.8967 42.0995 40.6811 39.4135 38.9 37.0951C37.0341 34.6353 34.009 32.7409 33.1609 29.7156C33.3022 29.9136 33.5001 30.1115 33.6698 30.2811C33.9525 30.7618 34.3483 31.1576 34.8289 31.3838C34.8572 31.3838 34.8572 31.3838 34.8572 31.3838C37.1754 32.9388 39.1544 34.5787 40.6528 37.0385C42.1229 39.4418 42.9145 42.1561 42.9711 44.9552C42.858 44.9552 42.7166 44.9552 42.5753 44.9552Z" fill="#DAAE59"/>
<path d="M32.6551 27.7363C32.542 28.2452 32.6268 28.6976 32.8247 29.15C33.164 32.0056 35.5388 33.8151 37.3764 35.8226C39.723 38.4238 41.3344 41.5621 42.1826 44.9267C35.9346 41.3077 31.5525 35.2005 32.6268 27.708C32.6268 27.708 32.6268 27.7363 32.6551 27.7363Z" fill="#DAAE59"/>
<path d="M31.38 31.4965C31.5779 30.4221 31.8889 29.3477 32.2847 28.3016C30.7863 35.2569 35.8469 41.5054 41.5012 44.9831C40.653 44.9831 39.8049 44.9548 38.9285 44.8983C33.6134 42.2405 31.1256 37.2078 31.38 31.4965Z" fill="#DAAE59"/>
<path d="M31.0426 34.0417C31.3253 38.4524 34.0676 42.6086 37.9408 44.7857C35.1985 44.3899 32.6258 43.3155 31.4666 40.5446C30.6468 38.5938 30.8729 36.247 31.0143 34.1831C31.0426 34.1265 31.0426 34.07 31.0426 34.0417Z" fill="#DAAE59"/>
<path d="M31.2132 40.9399C31.2132 40.9399 31.2132 40.9681 31.2415 40.9681C25.9264 38.3387 25.3327 31.9488 27.8772 27.114C26.2092 31.1006 27.1421 36.1899 30.563 38.989C30.5912 39.0172 30.6195 39.0173 30.6478 39.0173C30.7609 39.6958 30.9305 40.3461 31.2132 40.9399Z" fill="#DAAE59"/>
<path d="M30.5101 37.6042C30.5383 37.9435 30.5383 38.3111 30.5949 38.6503C27.6829 35.314 26.6934 31.4688 28.0787 27.2843C27.7112 30.8751 28.3614 34.5224 30.4252 37.5194C30.4252 37.5759 30.4818 37.6042 30.5101 37.6042Z" fill="#DAAE59"/>
<path d="M30.5072 33.1083C30.5637 33.2214 30.6768 33.2214 30.7333 33.1648C30.7051 33.5041 30.6768 33.8434 30.6485 34.1827C30.5637 35.1157 30.4789 36.1053 30.5072 37.0949C28.4716 33.9 28.1041 30.2527 28.4434 26.5488C28.4716 26.5771 28.4999 26.6336 28.5282 26.6619C28.6695 28.8955 29.4611 31.1009 30.5072 33.1083Z" fill="#DAAE59"/>
<path d="M31.2963 30.1677C31.0418 31.0442 30.8722 31.949 30.7591 32.882C29.7696 30.9594 29.2042 29.0368 28.6953 26.9445C29.5717 27.9906 30.9288 28.6975 31.2397 30.0829C31.268 30.1112 31.2963 30.1395 31.2963 30.1677Z" fill="#DAAE59"/>
<path d="M31.7221 23.8636C30.9588 25.2491 30.6478 26.8889 30.8174 28.4723C30.4782 28.1047 30.0824 27.7937 29.7148 27.4544C30.252 26.1256 30.874 24.9098 31.7221 23.8636Z" fill="#DAAE59"/>
<path d="M32.4006 27.5385C32.0331 28.1605 31.7503 28.8108 31.5242 29.4894C31.4111 29.2632 31.298 29.037 31.1284 28.8391V28.8108C30.987 26.5489 31.4959 24.598 32.7681 22.7885C32.8247 22.732 32.8812 22.7037 32.9095 22.6471C32.9377 22.6754 32.9377 22.6754 32.966 22.7037C32.3158 24.2022 32.1179 25.8986 32.4006 27.5385C32.3723 27.5385 32.4006 27.5385 32.4006 27.5385Z" fill="#DAAE59"/>
<path d="M32.8774 27.4819C32.8774 27.3971 32.7643 27.3688 32.736 27.4536C32.7077 27.4536 32.7077 27.4536 32.6795 27.4536C32.5098 25.7572 32.7077 24.2021 33.3014 22.6471C32.9622 24.287 33.2449 25.9834 34.0365 27.4536C33.7255 28.1039 33.5842 28.8108 33.7255 29.5742C33.2449 28.9804 32.9056 28.3018 32.8774 27.4819Z" fill="#DAAE59"/>
<path d="M34.206 27.1148C33.4992 25.7294 33.273 24.2592 33.4709 22.7041C33.6123 23.8068 34.5735 24.7398 35.3085 25.588C34.8845 26.097 34.4887 26.6059 34.206 27.1148Z" fill="#DAAE59"/>
<path d="M34.0126 29.9136C33.9561 28.6413 34.3801 27.6234 35.0304 26.6904C34.578 27.8779 34.4084 29.1502 34.6346 30.4508C34.4367 30.2812 34.2105 30.1115 34.0126 29.9136Z" fill="#DAAE59"/>
<path d="M37.8264 23.4673C36.7238 26.0119 36.3846 28.9241 36.639 31.6666C36.1019 31.3839 35.5647 31.1012 35.0841 30.7619C34.6035 28.6979 35.1689 26.9166 36.2149 25.305C36.7521 24.7113 37.3175 24.1175 37.8264 23.4673Z" fill="#DAAE59"/>
<path d="M38.5057 22.6476C38.5623 25.9839 38.5906 29.2919 38.4209 32.6C37.9686 32.3455 37.488 32.1193 36.9791 31.8366C36.9791 31.8083 36.9791 31.8083 36.9791 31.78C36.7812 28.6416 37.3183 25.8143 38.3361 22.9021C38.3644 22.8738 38.3927 22.8455 38.3927 22.789C38.3927 22.7607 38.3927 22.7607 38.3927 22.7324C38.4209 22.6759 38.4209 22.6476 38.4492 22.5911C38.4775 22.5628 38.4775 22.5345 38.5057 22.5063C38.4775 22.5911 38.5057 22.6194 38.5057 22.6476Z" fill="#DAAE59"/>
<path d="M40.4008 28.4151C40.5987 30.2246 40.4856 32.0341 40.3725 33.8436C39.8636 33.4761 39.3547 33.1085 38.7893 32.7975C38.9872 29.7439 39.072 26.6621 38.8741 23.6368C39.4678 25.2201 40.2029 26.6904 40.4008 28.4151Z" fill="#DAAE59"/>
<path d="M42.5745 36.2188C42.4896 36.0774 42.3766 35.936 42.2917 35.7947C41.8394 35.1727 41.3022 34.6354 40.7368 34.1548C40.9064 32.1474 41.0195 30.1399 40.7368 28.1325C40.4541 26.1533 39.6342 24.5135 38.7861 22.7322C38.7861 22.5908 38.7578 22.4495 38.7578 22.3081C39.1536 23.0715 39.6908 23.6935 40.2845 24.2873C40.2562 24.3155 40.2279 24.3721 40.2562 24.4004C42.7724 27.9346 42.8006 32.0625 42.5745 36.2188Z" fill="#DAAE59"/>
<path d="M42.9156 36.7839C43.1983 32.7974 43.3962 28.3018 40.9648 24.9373C41.5303 25.5027 42.0957 26.0682 42.548 26.7185C44.1595 29.0652 44.5553 31.9209 43.9051 34.6634V34.6917C43.481 35.3137 43.1417 36.0206 42.9438 36.8122C42.9438 36.8122 42.9156 36.8122 42.9156 36.7839Z" fill="#DAAE59"/>
<path d="M42.4632 22.6754C42.0392 23.4105 41.8413 24.3153 41.7847 25.1635C41.5303 24.8808 41.2476 24.6263 40.9648 24.3718C41.1345 24.1457 41.3041 23.9477 41.502 23.7215C41.5868 23.7215 41.6716 23.665 41.6716 23.5802V23.5519C41.9261 23.2409 42.2088 22.9582 42.4632 22.6754Z" fill="#DAAE59"/>
<path d="M42.0117 25.3891C42.04 24.2016 42.4358 23.2403 42.9164 22.1377C42.9164 22.1377 42.9164 22.1377 42.9164 22.1094C43.0012 21.9963 43.0578 21.9115 43.1426 21.7984C42.6337 23.2121 42.4923 24.654 42.662 26.1525C42.4641 25.8981 42.2379 25.6436 42.0117 25.3891Z" fill="#DAAE59"/>
<path d="M43.4801 21.403C43.6214 23.5235 43.6497 25.644 43.6214 27.7645C43.4235 27.3687 43.2256 27.0011 42.9712 26.6336C42.9712 26.6053 42.9712 26.6053 42.9712 26.577C42.6885 24.8523 42.8581 23.1276 43.3952 21.4595C43.3952 21.4312 43.3952 21.403 43.367 21.3747C43.3952 21.3181 43.4235 21.2616 43.4518 21.1768C43.4801 21.205 43.4801 21.2333 43.5083 21.2616C43.5083 21.3181 43.4801 21.3464 43.4801 21.403Z" fill="#DAAE59"/>
<path d="M43.7675 21.9411C44.8135 23.4679 44.7853 24.9947 44.8701 26.7759C44.446 27.5111 44.1633 28.2744 44.1633 29.1509C44.0785 28.9247 44.0219 28.6985 43.9371 28.4724C43.9937 26.2953 43.9371 24.0899 43.7109 21.9411H43.7675C43.7675 21.9129 43.7675 21.9129 43.7675 21.9411Z" fill="#DAAE59"/>
<path d="M45.1186 26.3227C45.062 24.6546 44.9772 23.2409 43.8746 21.8555C43.8463 21.7989 43.7615 21.8555 43.7615 21.912H43.705C43.6767 21.7707 43.6767 21.6293 43.6484 21.4879C44.5531 22.5623 46.1363 22.8168 46.1081 24.6828C46.1081 24.7394 46.1363 24.7677 46.1363 24.7959C45.7971 25.3049 45.4295 25.8138 45.1186 26.3227Z" fill="#DAAE59"/>
<path d="M55.2968 28.7545C55.636 25.2486 53.9115 22.0537 51.8477 19.2828C53.0351 20.1028 53.9115 21.3185 54.59 22.6191C54.9292 23.2977 55.1554 23.9197 55.325 24.57C55.212 24.6831 55.2402 24.8528 55.4099 24.9093C55.636 26.0685 55.6078 27.2278 55.5512 28.5283C55.4381 28.6132 55.3816 28.6697 55.2968 28.7545Z" fill="#DAAE59"/>
<path d="M54.9329 29.1225C54.7067 29.3486 54.4806 29.5748 54.2544 29.801C54.1978 29.5748 54.1413 29.3486 54.0848 29.1225C54.0282 28.868 53.6607 28.9528 53.6324 29.179C53.5759 29.6031 53.4345 29.9707 53.1801 30.2817C54.0848 26.493 53.4628 22.2519 51.1728 19.057C51.1728 19.057 51.1728 19.057 51.1445 19.0287C51.1445 18.9722 51.1728 18.9156 51.1728 18.8591C51.2293 18.8874 51.2576 18.9156 51.3142 18.9439C53.4062 22.0823 55.357 25.2207 54.9329 29.1225Z" fill="#DAAE59"/>
<path d="M51.2854 19.7352C53.01 23.1563 53.6037 26.7188 52.7272 30.5074C52.699 28.5566 52.2184 26.6622 51.3702 24.9375C51.3702 24.9092 51.3985 24.881 51.3985 24.8527C51.5116 23.1563 51.4833 21.4316 51.2854 19.7352Z" fill="#DAAE59"/>
<path d="M51.0595 19.5093C51.1726 21.1492 51.2009 22.789 51.0878 24.4572C50.9182 24.1462 50.7203 23.8634 50.5506 23.5524C50.4658 22.167 50.6637 20.8381 51.0595 19.5093Z" fill="#DAAE59"/>
<path d="M50.2648 23.1283C49.9256 22.6476 49.5298 22.167 49.1057 21.7429C49.3036 20.7816 50.2931 20.3858 50.8303 19.7072C50.4062 20.8099 50.2366 21.9691 50.2648 23.1283Z" fill="#DAAE59"/>
<path d="M44.2148 17.2465C44.441 17.5009 44.6955 17.6988 45.0064 17.925C46.2221 18.7732 47.1268 19.5084 47.8053 20.7807C47.777 20.809 47.7488 20.8655 47.7488 20.922C47.777 21.9399 47.4095 22.8447 46.9006 23.6929C46.6745 22.364 46.42 21.0069 45.8829 19.7911C45.4588 18.8298 44.8368 18.0381 44.2148 17.2465Z" fill="#DAAE59"/>
<path d="M45.829 22.5903C45.2918 22.0248 44.5285 21.7421 44.0196 21.1766C43.9631 19.7912 43.8783 18.4341 43.7935 17.0486C44.4437 18.1513 45.2636 19.0561 45.7159 20.3001C46.14 21.4593 46.3379 22.7034 46.5923 23.9192C46.5923 23.9757 46.6489 24.004 46.6771 24.0323C46.6489 24.0888 46.5923 24.1453 46.5641 24.2019C46.4792 23.6364 46.2531 23.0709 45.829 22.5903Z" fill="#DAAE59"/>
<path d="M43.539 16.7668V16.7385C43.539 16.7385 43.539 16.7385 43.539 16.7102C43.5672 18.0673 43.6238 19.3962 43.6803 20.7533C43.6521 20.7251 43.6238 20.6685 43.6238 20.6403C43.539 20.4706 43.3128 20.5272 43.2563 20.6968C43.1714 21.0078 43.0301 21.2623 42.8605 21.545C42.8322 21.5167 42.8322 21.4885 42.8039 21.4885C42.7191 19.8486 43.0018 18.3218 43.539 16.7668Z" fill="#DAAE59"/>
<path d="M42.4882 20.8662C42.2055 20.2724 41.7531 19.7635 41.3008 19.2829C41.3856 19.3111 41.4704 19.2546 41.4704 19.1698C41.4987 18.8022 41.6683 18.5477 41.8945 18.3216C41.9793 18.3216 42.0358 18.265 42.0641 18.1519C42.3186 17.9257 42.6013 17.7278 42.8557 17.5016C42.9688 17.4168 43.0536 17.3037 43.1384 17.2189C42.6861 18.3781 42.4882 19.6221 42.4882 20.8662Z" fill="#DAAE59"/>
<path d="M42.4347 22.1102C42.1803 22.4212 41.8976 22.7039 41.6431 23.0149C41.5583 21.5164 41.0777 20.0462 40.2578 18.8021C41.1908 19.82 42.2934 20.6399 42.4347 22.1102Z" fill="#DAAE59"/>
<path d="M39.6057 18.2368C40.6518 19.7919 41.2172 21.4601 41.3303 23.3827C41.1324 23.6371 40.9345 23.8916 40.7931 24.1743C40.5104 23.8916 40.2277 23.6089 39.9732 23.2978V23.2696C40.1429 21.6014 40.0015 19.8767 39.6057 18.2368Z" fill="#DAAE59"/>
<path d="M38.4777 21.6013C38.4777 21.6295 38.4495 21.6578 38.4495 21.6578C38.5908 20.3572 38.8735 19.1697 39.3259 17.8974C39.6086 19.5938 39.7217 21.2337 39.6651 22.9584C39.3541 22.5626 39.0714 22.1102 38.9018 21.6013C38.817 21.4034 38.5626 21.4034 38.4777 21.6013Z" fill="#DAAE59"/>
<path d="M36.1292 24.7111C36.6098 22.3078 37.571 20.1308 38.9563 18.1233C39.0128 18.0951 39.0411 18.0385 39.0976 17.9537C38.4191 19.3108 38.0799 20.8659 38.0799 22.3644C37.571 23.1561 36.8359 23.9194 36.1292 24.7111Z" fill="#DAAE59"/>
<path d="M35.5961 25.2763C35.3134 24.9653 34.9742 24.5977 34.6632 24.2302C34.6632 24.2019 34.6632 24.1736 34.6349 24.1171C34.2674 23.4668 36.0768 21.3462 36.4443 20.8938C36.8684 20.3566 37.349 19.876 37.8013 19.3671C36.727 21.12 36.0202 23.0427 35.7092 25.1066C35.681 25.1915 35.6244 25.248 35.5961 25.2763Z" fill="#DAAE59"/>
<path d="M35.5096 21.6296C35.2269 22.0255 34.4353 23.0151 34.2939 23.7502C34.2374 23.6653 34.2091 23.6088 34.1526 23.524C34.8028 21.771 35.8771 20.4704 37.2342 19.3395C37.3473 19.3677 37.4886 19.2829 37.4886 19.1416C37.7996 18.8871 38.1106 18.6609 38.4498 18.4347C38.4216 18.4913 38.3933 18.5195 38.365 18.5761C37.319 19.5374 36.3295 20.4987 35.5096 21.6296Z" fill="#DAAE59"/>
<path d="M36.7248 6.33298C32.682 10.6306 29.8266 16.6529 32.7102 22.2794C32.0035 22.8731 31.3532 23.58 30.8443 24.3151C29.9679 21.5725 29.5438 18.8582 30.1941 16.0026C30.7878 13.4014 32.1165 10.9981 33.8694 9.01898C34.6892 8.05767 35.707 7.18119 36.7248 6.33298Z" fill="#DAAE59"/>
<path d="M34.0114 23.2127C33.8135 22.7604 33.7569 22.2797 33.9831 21.7708C34.0396 21.6011 33.8983 21.3749 33.7004 21.488C33.4742 21.6577 33.248 21.799 33.0219 21.997C29.8272 15.5788 34.2658 9.21725 38.6479 4.69345C36.9516 6.87053 35.6794 9.38689 34.916 12.0163C34.0679 14.8437 33.3328 18.4628 35.0008 21.1205C34.5485 21.7708 34.2093 22.4776 34.0114 23.2127Z" fill="#DAAE59"/>
<path d="M39.0144 4.72177C36.894 9.13247 36.3003 14.25 37.0919 19.0565C36.5265 19.4806 35.9611 19.8765 35.537 20.4137C35.4239 20.5268 35.3108 20.6681 35.226 20.8095C33.8124 18.0104 34.5475 14.561 35.4522 11.6771C36.2438 9.13247 37.4877 6.87057 39.0144 4.72177Z" fill="#DAAE59"/>
<path d="M40.7398 2.1487C40.768 2.12042 40.7963 2.06387 40.7963 2.0356C39.7503 7.40761 39.6655 13.1189 40.5984 18.5192C40.2309 18.0951 39.8634 17.671 39.5806 17.1903C39.4958 17.049 39.3262 17.0772 39.2414 17.1903C38.789 17.8689 38.1105 18.3495 37.432 18.8585C36.5556 12.9493 37.8278 7.26624 40.7398 2.1487Z" fill="#DAAE59"/>
<path d="M40.9657 18.8869C40.1741 12.8929 40.2872 7.12506 41.2484 1.15931C41.305 1.04621 41.3333 0.933117 41.3898 0.791748C41.4181 0.904843 41.4746 1.01794 41.5029 1.13103C41.6725 3.67567 41.8421 6.19203 41.8987 8.73666C41.9552 11.8185 41.7856 14.8721 41.7291 17.9539C41.7008 17.9822 41.6725 18.0104 41.6725 18.0387C41.3615 18.378 41.2202 18.6325 41.2202 19.1131V19.1414C41.1354 19.0848 41.0505 19 40.9657 18.8869Z" fill="#DAAE59"/>
<path d="M45.2648 17.6425C44.6711 17.2467 44.1622 16.766 43.936 16.0592C43.8795 15.9178 43.6816 15.8895 43.5968 16.0309C43.1727 16.7095 42.6355 17.1336 42.0984 17.6142C42.579 12.7229 42.4942 7.57705 41.957 2.62915C43.5968 7.52051 45.1234 12.4967 45.2648 17.6425Z" fill="#DAAE59"/>
<path d="M44.3859 9.27378C43.6791 6.58778 42.8593 3.93005 41.8415 1.32886C41.785 0.876485 41.7284 0.45238 41.6719 0C41.7001 0.0565474 41.7284 0.0848194 41.7284 0.113093C42.0111 1.6116 42.9724 2.77082 43.764 4.07141C44.7817 5.76784 45.6299 7.54908 46.2801 9.41515C47.5241 12.9211 47.8068 16.427 47.8916 20.1026C47.6089 19.5937 47.2413 19.1413 46.8173 18.7455C46.478 18.4345 46.0822 18.18 45.6581 17.9255C45.6581 17.8973 45.6581 17.8973 45.6581 17.8973C45.7712 14.9568 45.121 12.0446 44.3859 9.27378Z" fill="#DAAE59"/>
<path d="M50.4669 8.99086C53.6616 12.3837 55.4144 16.9923 55.0469 21.6292C54.9621 21.6858 54.9338 21.7423 54.9338 21.8271C54.9338 21.8837 54.9621 21.9685 55.0186 21.9968C55.0186 22.0816 54.9903 22.1664 54.9903 22.2795C54.6511 21.5727 54.1988 20.9224 53.6899 20.3286C53.9726 17.162 52.9831 14.3063 51.0889 11.7617C48.9968 8.96258 46.7068 6.16348 44.332 3.59058C46.2262 5.48492 48.601 7.0117 50.4669 8.99086Z" fill="#DAAE59"/>
<path d="M44.8651 5.23083C44.1301 3.90196 43.084 2.68619 42.4055 1.30078C42.7165 1.75316 43.0558 2.20554 43.395 2.60137C43.395 2.62964 43.395 2.62965 43.4233 2.62965C43.4233 2.65792 43.4516 2.65792 43.4516 2.65792C43.6495 2.88411 43.8474 3.08203 44.0453 3.27994C43.9887 3.27994 43.9322 3.33649 43.9604 3.39303C47.5792 8.51058 53.4314 13.0909 53.2617 19.8201C52.6398 19.198 51.9047 18.6608 51.0848 18.3216C50.9152 18.2367 50.7173 18.3781 50.7738 18.576C50.8869 19.2263 50.0105 19.9614 49.643 20.3007C49.4168 20.4986 49.1907 20.6683 49.021 20.8945C48.9079 21.0924 48.8231 21.2338 48.7949 21.3751C48.6535 21.2338 48.4839 21.0924 48.3142 20.951C48.2577 20.8097 48.2012 20.64 48.1163 20.4986C48.2012 20.4986 48.2577 20.4138 48.286 20.329C48.6818 16.8513 48.0033 13.0909 46.9007 9.7829C46.3352 8.22784 45.6567 6.70106 44.8651 5.23083Z" fill="#DAAE59"/>
<path d="M46.4799 28.5C45.8862 30.1681 44.614 31.8928 44.6988 33.7306C44.6988 33.7589 44.6988 33.7872 44.7271 33.7872C44.6423 33.8437 44.5857 33.9285 44.5009 33.9851C44.7271 32.7128 44.7271 31.4122 44.4727 30.1681C44.5292 30.1681 44.5575 30.1399 44.5575 30.055C44.2465 27.0863 46.8757 25.2768 47.837 22.7887C47.5542 24.7396 47.1302 26.6622 46.4799 28.5Z" fill="#DAAE59"/>
<path d="M47.1558 27.5663C47.7212 25.6437 48.0322 23.6645 48.0887 21.6854C48.0887 21.6571 48.0887 21.6571 48.0887 21.6288C49.0499 25.361 48.9086 29.0648 47.1275 32.5425C46.7317 32.6556 46.3924 32.7404 46.1097 32.8818C45.7139 33.0514 45.3747 33.2776 45.0354 33.5321C45.0919 31.5529 46.6186 29.4041 47.1558 27.5663Z" fill="#DAAE59"/>
<path d="M48.6264 22.5622C49.2201 23.6366 49.9269 24.6262 50.3227 25.8702C50.9164 27.8211 50.9164 29.772 50.5206 31.7512C49.5594 32.0339 48.5133 32.2318 47.6086 32.4297C49.0788 29.3762 49.5594 25.8137 48.6264 22.5622Z" fill="#DAAE59"/>
<path d="M50.8316 26.4639C50.351 24.5696 49.2202 23.269 48.3438 21.6008C50.9164 24.0889 52.3583 27.4252 52.2735 31.0442C51.8777 31.2704 51.3971 31.4684 50.8882 31.638C51.284 29.9416 51.2557 28.1603 50.8316 26.4639Z" fill="#DAAE59"/>
<path d="M44.216 17.2468C44.1595 17.162 44.1029 17.1055 44.0464 17.0207C44.1029 17.1055 44.1595 17.1903 44.216 17.2468Z" fill="#DAAE59"/>
<path d="M26.4031 36.0203C26.4031 35.9921 26.4031 35.9921 26.375 35.964C26.4031 35.964 26.4031 35.9921 26.4031 36.0203Z" fill="#DAAE59"/>
</svg>
