<svg width="57" height="43" viewBox="0 0 57 43" fill="none" xmlns="http://www.w3.org/2000/svg">
<rect x="3" y="10" width="51" height="19" fill="white"/>
<path d="M52.843 15.6274C52.4831 18.4877 51.8202 21.3101 50.0208 23.6589C49.5852 23.4126 49.1306 23.2043 48.6571 22.9959C48.5056 22.9201 48.3351 22.8633 48.1836 22.8065C50.4754 21.0449 52.2558 18.4688 52.843 15.6274Z" fill="#DAAE59"/>
<path d="M52.8643 14.4148C52.2014 17.7297 50.6483 20.6467 47.883 22.7114C47.0685 22.4273 46.2351 22.2379 45.3828 22.1242C48.7163 20.6278 51.4627 17.7865 52.8643 14.4148Z" fill="#DAAE59"/>
<path d="M52.4078 14.9641C50.76 18.0706 48.2598 20.4763 45.021 22.0106C44.9831 22.0295 44.9831 22.0485 44.9642 22.0674C43.2974 21.8969 41.6117 22.0863 40.0586 22.7493C40.1154 22.3705 40.1344 21.9916 40.1344 21.6128C42.9565 21.537 45.6271 20.4763 47.9568 18.9041C49.0932 18.1274 50.1539 17.2561 51.1388 16.309C51.5744 15.8733 52.048 15.4566 52.4078 14.9641Z" fill="#DAAE59"/>
<path d="M39.6992 19.0178C44.3207 18.2033 49.2074 17.1425 52.7682 13.9224C52.3136 14.9263 51.3666 15.7219 50.5711 16.4417C49.6241 17.313 48.6202 18.1275 47.5217 18.8284C45.2867 20.2869 42.7865 21.1772 40.1348 21.3477C40.1159 20.5521 39.9644 19.7565 39.6992 19.0178Z" fill="#DAAE59"/>
<path d="M37.4258 16.6878C42.5776 16.5742 47.8052 16.4794 52.4267 13.9601C52.4835 13.9412 52.5593 13.9223 52.6161 13.9033C50.7789 15.2672 48.7522 16.3279 46.5741 17.0856C44.3012 17.8622 41.9336 18.2221 39.6039 18.7525C39.3388 18.1085 38.9789 17.4834 38.5243 16.8962C38.4486 16.7825 38.2592 16.8772 38.2592 17.0098C38.2781 17.7864 37.9182 18.3547 37.4447 18.8851C37.5584 18.1653 37.5584 17.4266 37.4258 16.6878Z" fill="#DAAE59"/>
<path d="M37.0508 15.3996C37.0887 15.4375 37.1265 15.4375 37.1644 15.4185C39.6646 14.4525 42.1837 14.5661 44.7975 14.7555C46.6915 14.9071 48.6234 15.0207 50.4796 14.604C48.756 15.267 46.9756 15.7405 45.1195 15.9678C42.5435 16.2899 39.9297 16.2899 37.3538 16.4225C37.2781 16.0815 37.1834 15.7405 37.0508 15.3996Z" fill="#DAAE59"/>
<path d="M45.5118 13.2402C47.4816 13.4675 49.565 14.3199 51.5538 14.1305C46.8565 15.5133 41.61 12.994 37.1211 15.1912C37.14 15.0208 37.159 14.8503 37.1779 14.6987C39.7349 13.2781 42.6328 12.8992 45.5118 13.2402Z" fill="#DAAE59"/>
<path d="M42.3516 34.8157C47.3708 34.721 52.4279 32.7321 55.9319 29.0952C55.4205 29.7961 54.947 30.5159 54.3977 31.1788C53.4886 32.2585 52.409 33.2056 51.2157 33.9633C48.8103 35.4976 46.026 36.2743 43.166 36.3311C43.1092 36.2174 43.0713 36.0848 43.0145 35.9712C42.8251 35.5734 42.5978 35.1946 42.3516 34.8157Z" fill="#DAAE59"/>
<path d="M55.3834 29.3984C51.7089 32.5239 47.2389 34.4181 42.3523 34.5317C42.2765 34.5317 42.2386 34.5696 42.2197 34.6264C41.7651 33.9445 41.2158 33.3005 40.6287 32.7322C40.5908 32.6944 40.534 32.6565 40.4961 32.5996C45.4775 33.2247 51.1217 32.2397 55.3834 29.3984Z" fill="#DAAE59"/>
<path d="M56.27 28.5076C53.9782 29.9093 51.6485 31.1026 48.9968 31.7845C46.1179 32.5233 43.1442 32.6748 40.1895 32.277C40.1516 32.277 40.1326 32.277 40.1137 32.296C39.2046 31.5383 38.2007 30.9511 37.1211 30.5344C39.8296 30.9511 42.6328 30.7617 45.3792 30.4775C49.0158 30.0987 52.8417 29.8146 56.27 28.5076Z" fill="#DAAE59"/>
<path d="M56.556 28.224C52.8058 29.2469 49.0745 29.8152 45.2107 30.194C41.4794 30.5729 37.6344 30.7812 34.0547 29.5121C34.5093 29.2469 34.926 28.906 35.2858 28.5082C38.9224 27.9399 42.5779 27.5989 46.2524 27.58C48.0139 27.5611 49.7753 27.6179 51.5368 27.7315C53.2225 27.8452 54.8893 28.1104 56.556 28.224Z" fill="#DAAE59"/>
<path d="M47.3925 25.8369C50.1767 26.0263 52.7527 26.6893 55.2907 27.7501C52.2791 27.2576 49.0593 27.2386 46.0667 27.2765C42.7521 27.3144 39.4564 27.5796 36.1797 28.091C37.1267 27.6554 37.9033 27.0303 38.5283 26.2726C41.483 25.9316 44.4188 25.6286 47.3925 25.8369Z" fill="#DAAE59"/>
<path d="M38.7891 25.9317C39.2247 25.3255 39.5656 24.6436 39.7929 23.9238C39.8119 23.9807 39.8497 24.0185 39.9066 24.0185C42.4067 23.9617 44.7932 23.9238 47.2555 24.4732C49.0927 24.8899 50.7974 25.5339 52.4641 26.3295C48.1078 25.0225 43.1833 25.3066 38.7891 25.9317Z" fill="#DAAE59"/>
<path d="M39.8281 23.7726C39.8849 23.5643 39.9418 23.337 39.9986 23.1286C40.0365 23.1476 40.0554 23.1476 40.0933 23.1286C43.3889 21.9731 46.7414 22.352 49.8287 23.981C49.8287 24.0757 49.9234 24.1515 49.9992 24.0757C51.4766 24.8902 52.8024 26.0646 54.2419 26.9549C54.1661 26.917 54.1093 26.8981 54.0335 26.8602C50.1128 24.2841 44.5064 22.9202 39.8849 23.7348C39.866 23.7537 39.8471 23.7726 39.8281 23.7726Z" fill="#DAAE59"/>
<path d="M38.5447 32.9403C36.4044 31.3302 34.0369 30.6673 31.4609 30.3263C31.9913 30.2695 32.5027 30.1558 33.0141 29.9854C33.0898 30.0232 33.1845 30.0232 33.2792 30.0422H33.2982C33.3171 30.0801 33.3739 30.099 33.4308 30.099C38.2985 30.3263 42.1813 33.5654 43.545 38.1873C43.6586 38.5661 43.848 38.945 43.9238 39.3238C42.4843 36.9182 40.7797 34.6451 38.5447 32.9403Z" fill="#DAAE59"/>
<path d="M31.8011 32.1826C31.4602 31.6143 31.0813 31.0839 30.6836 30.5725C33.5626 30.9135 36.1574 31.5007 38.506 33.3002C40.5516 34.8534 42.0858 36.9181 43.4874 39.0396C40.438 35.7626 36.29 32.6751 31.8011 32.1826C31.8011 32.1636 31.8011 32.1636 31.8011 32.1826Z" fill="#DAAE59"/>
<path d="M43.981 39.8159C40.4012 37.5997 36.5184 35.7434 32.6924 33.9628C32.6735 33.9439 32.6545 33.9439 32.6356 33.9439C32.4651 33.4514 32.2378 32.9589 31.9727 32.4854C34.2645 32.9778 36.3479 33.7734 38.3367 35.0615C40.4391 36.4443 42.1627 38.149 43.981 39.8159C43.9999 39.8159 43.9999 39.8159 43.981 39.8159Z" fill="#DAAE59"/>
<path d="M33.1628 35.5543C33.1249 35.5164 33.0681 35.5164 33.0302 35.5353C32.9734 35.1186 32.8787 34.7019 32.7461 34.2852C36.4963 36.0278 40.1329 37.9978 43.8074 39.8731C39.8488 39.3238 36.3259 38.1493 33.1628 35.5543Z" fill="#DAAE59"/>
<path d="M33.0742 35.8003C35.7259 37.9976 39.2299 39.6645 42.7339 39.9676C39.192 40.1191 35.8395 39.5508 33.0742 37.0884C33.1121 36.6527 33.1121 36.217 33.0742 35.8003Z" fill="#DAAE59"/>
<path d="M33.032 37.4106C35.4942 39.7784 39.1119 40.5171 42.4454 40.1762C41.4226 40.3656 40.3998 40.4982 39.3771 40.555C37.0284 40.6497 34.4336 40.2141 32.8047 38.3767C32.8994 38.0547 32.9752 37.7327 33.032 37.4106Z" fill="#DAAE59"/>
<path d="M32.2174 39.0019C32.5583 35.9143 31.7249 32.8267 29.793 30.3643C29.9066 30.3832 30.0392 30.3832 30.1528 30.3832C30.1528 30.4021 30.1718 30.44 30.1907 30.459C31.8196 32.4479 33.1833 34.9482 32.6719 37.6191C32.634 37.8085 32.5962 37.9979 32.5393 38.1873C32.4825 38.2063 32.4446 38.2631 32.4825 38.3199C32.4257 38.5472 32.331 38.7746 32.2174 39.0019Z" fill="#DAAE59"/>
<path d="M29.6589 30.3828C31.5908 33.0536 32.4242 36.2927 31.8939 39.5508C31.5529 40.0811 31.1173 40.5358 30.587 40.8957C30.3976 41.0283 30.1892 41.1419 29.9998 41.2556C30.246 40.2516 30.6438 39.2856 30.8143 38.2438C30.9847 37.2967 31.0226 36.3306 30.9658 35.3835C30.8332 33.5651 30.265 31.8035 29.2422 30.2881C29.3748 30.307 29.5074 30.326 29.6399 30.326C29.6589 30.3639 29.6589 30.3639 29.6589 30.3828Z" fill="#DAAE59"/>
<path d="M28.999 30.4022C30.0975 32.0313 30.7036 33.8686 30.7794 35.8576C30.8172 36.8426 30.7225 37.8465 30.5142 38.8125C30.3248 39.6649 29.946 40.4605 29.8702 41.3318C29.6808 41.4455 29.4725 41.5591 29.2831 41.6917C29.2073 41.7486 29.1505 41.7864 29.0747 41.8433C30.1922 38.1685 29.4346 34.0581 28.7148 30.3833C28.7338 30.3833 28.7717 30.3833 28.8095 30.3833C28.8664 30.4212 28.9421 30.4212 28.999 30.4022Z" fill="#DAAE59"/>
<path d="M28.7332 42.0517C28.7711 38.1686 28.3355 34.2665 28.0703 30.4023C28.1271 30.4023 28.184 30.4023 28.2408 30.4023C28.2787 30.4213 28.2976 30.4213 28.3165 30.4023C28.3544 30.4781 28.4302 30.4781 28.487 30.4592C29.2067 34.3423 29.775 38.0739 28.9037 41.976C28.8469 42.0139 28.7901 42.0328 28.7332 42.0517Z" fill="#DAAE59"/>
<path d="M27.8615 30.4023C28.1266 34.2855 28.316 38.1875 28.638 42.0707H28.6191C27.5584 40.3848 27.1417 38.5474 27.066 36.5585C26.9902 34.5696 27.0091 32.4481 27.4258 30.4781C27.4258 30.4402 27.4258 30.4213 27.4069 30.4023C27.5584 30.4023 27.7099 30.4023 27.8615 30.4023Z" fill="#DAAE59"/>
<path d="M27.1964 30.4213C26.7419 32.5807 26.7229 34.9484 26.8934 37.1457C27.026 38.8884 27.4427 40.6311 28.4844 42.0517C28.3897 42.0328 28.276 41.976 28.1245 41.9002C27.9919 41.8434 27.8783 41.7865 27.7457 41.7297C25.0372 38.7558 26.0979 33.8687 27.1396 30.4023C27.1585 30.4023 27.1964 30.4023 27.2154 30.4023C27.1964 30.4023 27.1964 30.4023 27.1964 30.4213Z" fill="#DAAE59"/>
<path d="M25.8577 37.2402C25.9335 38.7935 26.2933 40.4415 27.373 41.559C27.0889 41.4454 26.8237 41.3507 26.5396 41.237C26.5396 41.2181 26.5396 41.1991 26.5206 41.1802C23.5091 38.3957 24.5887 33.3571 26.6911 30.3643C26.7669 30.3643 26.8426 30.3643 26.9184 30.3643C26.085 32.5237 25.7441 34.9483 25.8577 37.2402Z" fill="#DAAE59"/>
<path d="M26.1171 30.7998C24.2988 33.7737 23.3518 38.6229 26.2497 41.1232C25.7952 40.9338 25.3595 40.6876 24.9807 40.3656C24.0526 39.5321 23.6738 38.263 23.617 37.0696C23.4844 34.6829 24.5072 32.4857 26.1171 30.7998Z" fill="#DAAE59"/>
<path d="M23.3907 38.737C21.9512 40.063 20.114 40.8964 18.1631 41.048C16.2501 41.1995 14.4886 40.5555 12.7461 39.8546C12.8408 39.8546 12.9544 39.8735 13.0491 39.8735C16.4963 41.37 20.5875 40.5933 23.4286 38.2256C23.4664 38.3961 23.5043 38.5476 23.5611 38.6991C23.5043 38.6802 23.4475 38.6802 23.3907 38.737Z" fill="#DAAE59"/>
<path d="M18.8445 39.0582C20.5113 38.3384 21.9129 37.1829 23.2956 36.0464C23.2577 36.5199 23.2577 37.0124 23.3145 37.486C23.3335 37.6565 23.3524 37.808 23.3903 37.9785C23.3713 37.9785 23.3524 37.9974 23.3524 37.9974C20.606 40.3462 16.8937 40.9335 13.4844 39.9106C15.3027 39.9863 17.1588 39.778 18.8445 39.0582Z" fill="#DAAE59"/>
<path d="M24.0552 33.2246C23.6954 34.0012 23.4491 34.8536 23.3355 35.706C21.8392 36.9751 20.3239 38.2443 18.4867 38.9641C16.7442 39.646 14.888 39.7596 13.0508 39.7028C17.1041 38.4905 20.9869 36.1796 24.0552 33.2246Z" fill="#DAAE59"/>
<path d="M25.6641 30.9138C25.1527 31.4253 24.7171 31.9935 24.3572 32.6375C20.9479 35.8009 17.1598 38.0929 12.7656 39.6651C12.8035 39.6082 12.8414 39.5514 12.8793 39.4946C16.4969 35.6304 20.6449 32.6565 25.6641 30.9138Z" fill="#DAAE59"/>
<path d="M26.0808 30.5154C21.2888 32.0497 16.6863 34.8721 13.3906 38.7362C16.1749 34.55 19.6221 30.7616 24.9444 30.326C25.0201 30.326 25.058 30.2502 25.058 30.1934C25.4558 30.2691 25.8724 30.307 26.2702 30.3449C26.2134 30.4017 26.1566 30.4586 26.0808 30.5154Z" fill="#DAAE59"/>
<path d="M24.6611 30.1176C19.8691 30.648 15.759 34.0765 13.543 38.2817C13.6756 37.9218 13.8081 37.5619 13.9028 37.183C14.3006 35.7055 14.6794 34.3417 15.7211 33.1673C17.9372 30.7048 21.2518 30.2123 24.377 30.0608C24.4717 30.0797 24.5664 30.0987 24.6611 30.1176Z" fill="#DAAE59"/>
<path d="M6.51562 33.2432C9.03472 34.2092 11.7432 34.5691 14.4517 34.4176C14.3002 34.7207 14.1487 35.0616 14.035 35.3836C14.0161 35.4215 14.0161 35.4594 13.9971 35.4783C11.2697 35.4783 8.76955 34.7017 6.51562 33.2432Z" fill="#DAAE59"/>
<path d="M15.5115 32.8837C15.1517 33.2815 14.8486 33.7172 14.5834 34.1718C11.5151 34.3612 8.57929 33.8308 5.75714 32.7322C4.848 32.0692 3.97673 31.3494 3.10547 30.6675C6.72311 32.6564 11.4393 33.4899 15.5115 32.8837Z" fill="#DAAE59"/>
<path d="M17.5531 31.254C17.0417 31.5382 16.5682 31.8791 16.1136 32.2769C16 32.3716 15.9053 32.4663 15.8105 32.561C13.4998 32.7505 11.2648 32.8073 8.97302 32.3906C6.70015 31.9738 4.59775 31.1404 2.51429 30.1743C2.04078 29.8144 1.5862 29.4735 1.09375 29.1704C3.38556 30.1365 5.86677 30.629 8.32904 30.9131C11.3216 31.273 14.4658 31.3866 17.5531 31.254Z" fill="#DAAE59"/>
<path d="M22.5961 29.8531C20.9672 29.9667 19.3572 30.3266 17.9367 31.0464C17.9178 31.0275 17.8988 31.0275 17.8609 31.0086C14.8304 30.8949 11.8189 31.0086 8.80735 30.7055C5.7958 30.4024 2.93578 29.7016 0.113643 28.6029C0.0757619 28.584 0.0378811 28.565 0 28.5461C0.0757622 28.5271 0.151524 28.5082 0.227286 28.4893C3.76917 29.4174 7.51939 29.4553 11.1749 29.5879C14.982 29.7205 18.789 29.7963 22.5961 29.8531Z" fill="#DAAE59"/>
<path d="M11.5714 29.3029C7.87804 29.1703 4.20358 29.0377 0.585938 28.3747C0.813224 28.299 1.04051 28.2232 1.24886 28.1285C1.24886 28.1664 1.2678 28.2043 1.32462 28.1853C4.67709 27.7875 7.99169 27.4466 11.3631 27.5223C14.8482 27.5981 18.2953 28.0148 21.7236 28.6589C21.7425 28.6589 21.7615 28.6589 21.7804 28.6589C22.1782 29.0566 22.6327 29.3597 23.1441 29.606C19.2803 29.5491 15.4353 29.4355 11.5714 29.3029Z" fill="#DAAE59"/>
<path d="M19.0714 26.6896C19.1471 26.7086 19.185 26.6707 19.2229 26.6328C19.7343 27.1064 20.3404 27.4852 21.0791 27.7693C21.1927 27.9777 21.3253 28.1671 21.4768 28.3376C15.056 26.9548 8.02904 26.6707 1.57031 27.9966C2.15747 27.7314 2.72568 27.4094 3.27496 27.0685C5.81299 26.2161 8.36997 25.6478 11.0595 25.5721C13.8248 25.5152 16.4008 26.0456 19.0714 26.6896Z" fill="#DAAE59"/>
<path d="M17.4995 24.3029C17.6321 24.3408 17.7079 24.2271 17.6889 24.1135C17.9352 24.928 18.3329 25.6667 18.9011 26.2918C14.2986 24.6059 8.55958 24.8901 3.95703 26.6138C4.56313 26.216 5.15028 25.8182 5.73744 25.4205C5.75638 25.4394 5.77532 25.4583 5.8132 25.4394C9.63919 23.7346 13.4084 23.3368 17.4995 24.3029Z" fill="#DAAE59"/>
<path d="M17.4638 22.939C17.5017 23.3368 17.5775 23.7156 17.6911 24.0945C17.6722 24.0566 17.6343 24.0376 17.5964 24.0187C14.0735 22.9201 9.84975 23.28 6.53516 24.9658C6.66774 24.89 6.81926 24.7953 6.95185 24.7196C9.92551 22.9958 13.9598 21.9351 17.3313 22.9769C17.3691 22.9579 17.426 22.9579 17.4638 22.939Z" fill="#DAAE59"/>
<path d="M19.984 15.1157C17.2376 13.6004 13.8473 12.8995 10.7031 13.0321C10.8357 13.0132 10.9872 12.9753 11.1388 12.9563C13.9988 12.4638 16.9724 12.6533 19.5862 13.9982C19.6431 14.0171 19.6809 14.0171 19.7188 14.0171C19.7946 14.3581 19.8703 14.7369 19.984 15.1157Z" fill="#DAAE59"/>
<path d="M20.1306 15.5133C20.2443 15.8353 20.3958 16.1384 20.5662 16.4414C20.3958 16.6877 20.2443 16.9529 20.1306 17.237C16.5698 14.4146 11.9294 13.9979 7.53516 13.9411C8.33066 13.7138 9.12616 13.4486 9.92167 13.2402C9.94061 13.2402 9.94061 13.2592 9.95955 13.2592C13.6151 13.1834 16.816 13.979 20.1306 15.5133Z" fill="#DAAE59"/>
<path d="M6.96923 14.074C11.4771 14.3392 16.2501 14.5096 19.9435 17.4646C19.9624 17.4836 19.9814 17.4835 20.0003 17.5025C19.9056 17.7487 19.8299 17.995 19.7541 18.2602C19.4889 17.995 19.2427 17.7109 19.1101 17.332C19.0722 17.2184 18.9207 17.1805 18.8449 17.2941C18.4661 17.8813 18.1441 18.5064 17.8979 19.1883C14.2045 16.5554 9.5262 14.8317 4.98047 14.5096C5.66233 14.4149 6.32525 14.2634 6.96923 14.074Z" fill="#DAAE59"/>
<path d="M17.4436 21.2343C12.538 19.7379 8.04914 17.4648 3.86328 14.5477C4.07163 14.5477 4.29891 14.5478 4.50726 14.5288C4.50726 14.5667 4.5262 14.5856 4.56408 14.6046C9.4318 15.2675 13.7313 16.8019 17.8414 19.4538C17.652 20.041 17.5194 20.6471 17.4436 21.2343Z" fill="#DAAE59"/>
<path d="M3.61601 14.5474C7.66928 17.7296 12.4234 20.0785 17.3858 21.4612C17.4047 21.4612 17.4237 21.4612 17.4426 21.4612C17.4237 21.8401 17.4047 22.2189 17.4426 22.5978C17.4426 22.5978 17.4426 22.5978 17.4237 22.5978C17.4426 22.5409 17.4237 22.4652 17.3479 22.4462C12.1582 20.874 6.81696 19.5102 3.63495 14.7368C3.61601 14.68 3.59707 14.6231 3.57812 14.5663C3.57812 14.5474 3.59706 14.5474 3.61601 14.5474Z" fill="#DAAE59"/>
<path d="M15.4916 22.2191C14.2036 22.1055 12.8778 22.2191 11.5898 22.5033C11.5709 22.4654 11.552 22.4275 11.5141 22.4086C8.46465 21.1584 5.77509 19.3589 4.10833 16.5176C4.01362 16.1198 3.91892 15.7031 3.82422 15.3242C6.34331 19.2073 11.0784 21.0826 15.4916 22.2191Z" fill="#DAAE59"/>
<path d="M4.24219 17.1616C5.79531 19.7567 8.48487 21.4425 11.2502 22.598C10.7009 22.7306 10.1516 22.9011 9.6213 23.0905C7.63254 22.1244 6.00366 20.7606 4.621 19.0369C4.48841 18.4118 4.37477 17.7678 4.24219 17.1616Z" fill="#DAAE59"/>
<path d="M4.73828 19.4158C5.91259 21.0258 7.52254 22.3329 9.34083 23.1852C8.88626 23.3557 8.43168 23.5451 8.01499 23.7346C7.95817 23.7725 7.88241 23.7914 7.82559 23.8293C5.96942 22.9579 5.21179 21.2721 4.73828 19.4158Z" fill="#DAAE59"/>
<path d="M36.6119 21.1397C36.555 20.8556 36.4982 20.5904 36.4414 20.3252C36.4603 20.3252 36.4603 20.3062 36.4603 20.3062C37.0096 19.6811 37.6915 19.1508 38.1271 18.4878C37.8241 19.4728 37.3506 20.3252 36.6119 21.1397Z" fill="#DAAE59"/>
<path d="M36.9169 23.4504C36.9169 23.4504 36.898 23.4504 36.898 23.4693C36.879 22.7495 36.7843 22.0297 36.6328 21.3099C36.6707 21.3289 36.7086 21.3289 36.7654 21.291C37.6935 20.4386 38.3185 19.1884 38.4132 17.9382C38.489 18.9043 38.5269 19.8703 38.3375 20.8174C38.1291 21.8592 37.5609 22.6359 36.9169 23.4504Z" fill="#DAAE59"/>
<path d="M38.5816 17.7295C39.4718 20.6087 39.396 23.9993 36.6875 25.7988C36.839 25.1737 36.8958 24.5108 36.8958 23.8478C36.9148 23.8478 36.9337 23.8288 36.9716 23.8099C37.6724 22.9954 38.3164 22.1241 38.5626 21.0444C38.8088 19.9836 38.771 18.8092 38.5816 17.7295Z" fill="#DAAE59"/>
<path d="M36.5955 26.178C39.5881 24.4922 39.9479 20.6848 38.7547 17.7488C39.4555 18.8285 39.8532 20.0976 39.9101 21.3667C39.8154 21.4235 39.8154 21.5751 39.9101 21.613C39.9101 22.3706 39.7964 23.1094 39.5502 23.8292C38.8683 25.7613 37.4478 27.163 35.6484 28.0533C35.6674 28.0154 35.6863 27.9964 35.7053 27.9586C36.1219 27.4092 36.4061 26.8031 36.5955 26.178Z" fill="#DAAE59"/>
<path d="M36.176 20.5518C36.5927 22.3702 36.8199 24.3023 36.2896 26.0639C36.2896 26.0829 36.2707 26.0828 36.2707 26.1018C36.1381 26.5564 35.9487 27.011 35.6835 27.4277C35.5131 27.7308 35.3047 27.996 35.0964 28.2423C35.0395 28.2612 35.0017 28.2991 35.0017 28.337C33.5432 29.8713 31.2893 30.2501 29.1869 30.0796H29.168C29.168 30.0607 29.168 30.0607 29.1869 30.0417C29.2059 30.0607 29.2248 30.0607 29.2627 30.0607C31.2704 29.9281 33.2781 29.0568 34.6039 27.5035C36.157 25.704 36.3086 23.2984 36.0813 21.0253C36.1191 20.8738 36.1381 20.7033 36.176 20.5518Z" fill="#DAAE59"/>
<path d="M35.9333 21.8022C35.8954 23.7722 35.7628 25.7233 34.418 27.3144C33.1111 28.8298 31.236 29.5874 29.2852 29.7958C29.4177 29.398 29.4935 28.9813 29.5503 28.5456C29.5693 28.6214 29.664 28.6972 29.7587 28.6403C31.3497 27.6932 33.2248 26.7082 34.3612 25.1929C35.081 24.2079 35.6113 23.0335 35.9333 21.8022Z" fill="#DAAE59"/>
<path d="M33.3353 23.8481C34.4339 22.7873 35.362 21.575 36.0438 20.2112C35.7029 22.0107 35.0968 23.8291 33.9036 25.2498C32.7482 26.6136 31.0246 27.4092 29.5851 28.3942C29.5662 28.4131 29.5472 28.432 29.5283 28.4699C29.5851 27.8448 29.5472 27.2198 29.4336 26.6136C29.4525 26.5947 29.4715 26.5947 29.4904 26.5568C29.5094 26.5189 29.5472 26.481 29.5662 26.4431C29.5851 26.4242 29.5851 26.4052 29.5851 26.3863C29.7177 26.4052 29.8503 26.3674 29.9639 26.2537C30.1533 26.159 30.3427 26.0643 30.5132 25.9506C30.8731 25.7423 31.2329 25.515 31.5739 25.2687C32.2179 24.852 32.7861 24.3784 33.3353 23.8481Z" fill="#DAAE59"/>
<path d="M35.5335 20.7607C34.6812 22.0299 33.7152 23.1853 32.5409 24.1893C31.8212 24.7954 31.0636 25.3258 30.2491 25.7804C30.0408 25.8941 29.6051 26.0077 29.3589 26.2161C29.2832 25.9319 29.2074 25.6667 29.0938 25.4016C30.3249 22.977 33.5448 23.0527 35.1358 21.0828C35.2115 21.0828 35.3062 21.0449 35.3062 20.9502C35.401 20.8744 35.4767 20.8176 35.5335 20.7607Z" fill="#DAAE59"/>
<path d="M29.0352 24.9279C29.3003 23.8293 29.8685 22.8822 30.9103 22.3897C31.7437 21.9919 32.6528 21.8403 33.5241 21.613C33.865 21.5183 34.2249 21.4236 34.5658 21.291C32.7854 22.598 30.1526 22.9579 29.0352 24.9279Z" fill="#DAAE59"/>
<path d="M29.0533 29.4933C28.8071 26.6141 27.3486 23.5834 25 21.8218C25.644 22.1438 26.2501 22.4279 26.591 22.6742C28.7881 24.1706 29.7162 26.9551 29.0533 29.4933Z" fill="#DAAE59"/>
<path d="M28.522 30.118C28.0675 28.2048 27.253 26.4053 26.0598 24.8521C24.8097 23.2041 22.7831 21.935 22.2148 19.9082C22.3095 20.0408 22.4421 20.1734 22.5558 20.287C22.7452 20.6091 23.0103 20.8742 23.3323 21.0258C23.3513 21.0258 23.3513 21.0258 23.3513 21.0258C24.9044 22.0676 26.2302 23.1662 27.2341 24.8142C28.219 26.4243 28.7493 28.2427 28.7872 30.118C28.7114 30.118 28.6167 30.118 28.522 30.118Z" fill="#DAAE59"/>
<path d="M21.8776 18.5819C21.8019 18.9229 21.8587 19.226 21.9913 19.529C22.2186 21.4422 23.8096 22.6545 25.0407 23.9994C26.6128 25.742 27.6924 27.8446 28.2606 30.0987C24.0747 27.6741 21.139 23.5826 21.8587 18.563C21.8587 18.563 21.8587 18.5819 21.8776 18.5819Z" fill="#DAAE59"/>
<path d="M21.0236 21.1014C21.1562 20.3816 21.3645 19.6618 21.6297 18.9609C20.6258 23.6207 24.0162 27.8069 27.8043 30.1368C27.2361 30.1368 26.6679 30.1178 26.0807 30.0799C22.5199 28.2994 20.8531 24.9277 21.0236 21.1014Z" fill="#DAAE59"/>
<path d="M20.796 22.8062C20.9854 25.7611 22.8227 28.5456 25.4175 30.0041C23.5803 29.739 21.8567 29.0192 21.0801 27.1628C20.5308 25.8558 20.6824 24.2836 20.7771 22.9009C20.796 22.863 20.796 22.8251 20.796 22.8062Z" fill="#DAAE59"/>
<path d="M20.9131 27.4277C20.9131 27.4277 20.9131 27.4467 20.932 27.4467C17.3712 25.685 16.9735 21.4041 18.6781 18.165C17.5606 20.8359 18.1857 24.2455 20.4775 26.1207C20.4964 26.1397 20.5153 26.1397 20.5343 26.1397C20.61 26.5943 20.7237 27.0299 20.9131 27.4277Z" fill="#DAAE59"/>
<path d="M20.4412 25.1932C20.4602 25.4205 20.4602 25.6667 20.498 25.894C18.5472 23.6589 17.8842 21.0827 18.8123 18.2793C18.5661 20.6849 19.0017 23.1285 20.3844 25.1363C20.3844 25.1742 20.4223 25.1932 20.4412 25.1932Z" fill="#DAAE59"/>
<path d="M20.4377 22.1812C20.4756 22.257 20.5514 22.257 20.5892 22.2191C20.5703 22.4464 20.5514 22.6737 20.5324 22.901C20.4756 23.5261 20.4188 24.1891 20.4377 24.852C19.074 22.7116 18.8278 20.268 19.055 17.7866C19.074 17.8056 19.0929 17.8434 19.1119 17.8624C19.2066 19.3588 19.7369 20.8363 20.4377 22.1812Z" fill="#DAAE59"/>
<path d="M20.9652 20.2112C20.7947 20.7984 20.6811 21.4045 20.6053 22.0296C19.9424 20.7415 19.5636 19.4535 19.2227 18.0518C19.8098 18.7526 20.719 19.2262 20.9273 20.1543C20.9462 20.1733 20.9652 20.1922 20.9652 20.2112Z" fill="#DAAE59"/>
<path d="M21.2549 15.9875C20.7435 16.9157 20.5352 18.0144 20.6488 19.0751C20.4215 18.8289 20.1564 18.6205 19.9102 18.3932C20.27 17.5029 20.6867 16.6884 21.2549 15.9875Z" fill="#DAAE59"/>
<path d="M21.7075 18.4493C21.4613 18.8661 21.2719 19.3017 21.1204 19.7563C21.0446 19.6048 20.9688 19.4533 20.8552 19.3207V19.3017C20.7605 17.7864 21.1014 16.4794 21.9537 15.2671C21.9916 15.2292 22.0295 15.2102 22.0484 15.1724C22.0674 15.1913 22.0674 15.1913 22.0863 15.2102C21.6507 16.2142 21.5181 17.3507 21.7075 18.4493C21.6886 18.4493 21.7075 18.4493 21.7075 18.4493Z" fill="#DAAE59"/>
<path d="M22.0272 18.4115C22.0272 18.3546 21.9514 18.3357 21.9325 18.3925C21.9135 18.3925 21.9135 18.3925 21.8946 18.3925C21.7809 17.256 21.9135 16.2142 22.3113 15.1724C22.084 16.271 22.2734 17.4075 22.8037 18.3925C22.5954 18.8282 22.5007 19.3017 22.5954 19.8132C22.2734 19.4154 22.0461 18.9608 22.0272 18.4115Z" fill="#DAAE59"/>
<path d="M22.9134 18.1657C22.4399 17.2375 22.2884 16.2525 22.4209 15.2107C22.5156 15.9494 23.1596 16.5745 23.6521 17.1428C23.368 17.4837 23.1028 17.8247 22.9134 18.1657Z" fill="#DAAE59"/>
<path d="M22.7885 20.0407C22.7507 19.1884 23.0348 18.5064 23.4704 17.8813C23.1673 18.6769 23.0537 19.5293 23.2052 20.4007C23.0726 20.287 22.9211 20.1733 22.7885 20.0407Z" fill="#DAAE59"/>
<path d="M25.3439 15.7222C24.6052 17.427 24.3779 19.378 24.5484 21.2154C24.1885 21.026 23.8287 20.8365 23.5067 20.6092C23.1847 19.2265 23.5635 18.0331 24.2643 16.9534C24.6242 16.5556 25.003 16.1578 25.3439 15.7222Z" fill="#DAAE59"/>
<path d="M25.7961 15.1728C25.834 17.408 25.8529 19.6242 25.7393 21.8404C25.4362 21.67 25.1142 21.5184 24.7733 21.329C24.7733 21.3101 24.7733 21.3101 24.7733 21.2911C24.6407 19.1886 25.0006 17.2943 25.6824 15.3433C25.7014 15.3244 25.7203 15.3054 25.7203 15.2675C25.7203 15.2486 25.7203 15.2486 25.7203 15.2297C25.7393 15.1918 25.7393 15.1728 25.7582 15.1349C25.7771 15.116 25.7772 15.0971 25.7961 15.0781C25.7772 15.135 25.7961 15.1539 25.7961 15.1728Z" fill="#DAAE59"/>
<path d="M27.0679 19.0367C27.2005 20.249 27.1247 21.4612 27.049 22.6735C26.708 22.4273 26.3671 22.181 25.9883 21.9727C26.1209 19.9269 26.1777 17.8623 26.0451 15.8354C26.4429 16.8962 26.9353 17.8812 27.0679 19.0367Z" fill="#DAAE59"/>
<path d="M28.5218 24.2648C28.465 24.1701 28.3892 24.0754 28.3324 23.9807C28.0294 23.564 27.6695 23.2041 27.2907 22.8821C27.4043 21.5372 27.4801 20.1923 27.2907 18.8474C27.1013 17.5214 26.552 16.4228 25.9838 15.2294C25.9838 15.1347 25.9648 15.04 25.9648 14.9453C26.23 15.4567 26.5899 15.8735 26.9876 16.2713C26.9687 16.2902 26.9498 16.3281 26.9687 16.347C28.6544 18.7148 28.6733 21.4803 28.5218 24.2648Z" fill="#DAAE59"/>
<path d="M28.7522 24.6435C28.9416 21.9727 29.0742 18.9609 27.4453 16.7068C27.8241 17.0856 28.2029 17.4645 28.506 17.9001C29.5856 19.4723 29.8508 21.3855 29.4151 23.2229V23.2418C29.131 23.6585 28.9037 24.1321 28.7711 24.6625C28.7711 24.6625 28.7522 24.6625 28.7522 24.6435Z" fill="#DAAE59"/>
<path d="M28.4492 15.1914C28.1651 15.6839 28.0325 16.29 27.9946 16.8583C27.8241 16.6689 27.6347 16.4984 27.4453 16.3279C27.559 16.1764 27.6726 16.0438 27.8052 15.8923C27.862 15.8923 27.9188 15.8544 27.9188 15.7976V15.7786C28.0893 15.5702 28.2787 15.3808 28.4492 15.1914Z" fill="#DAAE59"/>
<path d="M28.1445 17.0096C28.1635 16.2141 28.4286 15.57 28.7506 14.8313C28.7506 14.8313 28.7506 14.8313 28.7506 14.8124C28.8075 14.7366 28.8453 14.6798 28.9022 14.604C28.5612 15.5511 28.4665 16.5172 28.5802 17.5211C28.4476 17.3506 28.2961 17.1801 28.1445 17.0096Z" fill="#DAAE59"/>
<path d="M29.1308 14.339C29.2255 15.7597 29.2444 17.1804 29.2255 18.601C29.0929 18.3358 28.9603 18.0896 28.7898 17.8433C28.7898 17.8244 28.7898 17.8244 28.7898 17.8054C28.6004 16.65 28.7141 15.4945 29.0739 14.3769C29.0739 14.358 29.0739 14.339 29.055 14.3201C29.0739 14.2822 29.0929 14.2443 29.1118 14.1875C29.1308 14.2064 29.1308 14.2254 29.1497 14.2443C29.1497 14.2822 29.1308 14.3012 29.1308 14.339Z" fill="#DAAE59"/>
<path d="M29.323 14.6998C30.0238 15.7226 30.0049 16.7455 30.0617 17.9389C29.7776 18.4313 29.5882 18.9428 29.5882 19.53C29.5314 19.3784 29.4935 19.2269 29.4367 19.0754C29.4746 17.6168 29.4367 16.1394 29.2852 14.6998H29.323C29.323 14.6808 29.323 14.6808 29.323 14.6998Z" fill="#DAAE59"/>
<path d="M30.2271 17.6351C30.1892 16.5175 30.1324 15.5704 29.3937 14.6422C29.3748 14.6044 29.3179 14.6422 29.3179 14.6801H29.2801C29.2611 14.5854 29.2611 14.4907 29.2422 14.396C29.8483 15.1158 30.909 15.2863 30.89 16.5365C30.89 16.5743 30.909 16.5933 30.909 16.6122C30.6817 16.9532 30.4354 17.2941 30.2271 17.6351Z" fill="#DAAE59"/>
<path d="M37.0451 19.2641C37.2724 16.9152 36.117 14.7748 34.7344 12.9185C35.5299 13.4678 36.117 14.2823 36.5716 15.1536C36.7989 15.6082 36.9504 16.025 37.0641 16.4606C36.9883 16.5364 37.0072 16.6501 37.1209 16.6879C37.2724 17.4646 37.2535 18.2412 37.2156 19.1125C37.1398 19.1693 37.1019 19.2072 37.0451 19.2641Z" fill="#DAAE59"/>
<path d="M36.8037 19.5107C36.6521 19.6623 36.5006 19.8138 36.3491 19.9654C36.3112 19.8138 36.2733 19.6623 36.2354 19.5107C36.1976 19.3403 35.9513 19.3971 35.9324 19.5486C35.8945 19.8328 35.7998 20.079 35.6293 20.2874C36.2354 17.7491 35.8187 14.9078 34.2846 12.7674C34.2846 12.7674 34.2846 12.7674 34.2656 12.7484C34.2656 12.7105 34.2846 12.6726 34.2846 12.6348C34.3224 12.6537 34.3414 12.6727 34.3793 12.6916C35.7809 14.7942 37.0878 16.8967 36.8037 19.5107Z" fill="#DAAE59"/>
<path d="M34.3594 13.2217C35.5148 15.5137 35.9125 17.9004 35.3253 20.4386C35.3064 19.1316 34.9844 17.8625 34.4162 16.707C34.4162 16.6881 34.4351 16.6691 34.4351 16.6502C34.5109 15.5137 34.492 14.3582 34.3594 13.2217Z" fill="#DAAE59"/>
<path d="M34.2094 13.0703C34.2851 14.169 34.3041 15.2676 34.2283 16.3852C34.1147 16.1768 33.9821 15.9874 33.8685 15.779C33.8116 14.8509 33.9442 13.9606 34.2094 13.0703Z" fill="#DAAE59"/>
<path d="M33.675 15.4949C33.4477 15.1729 33.1825 14.8508 32.8984 14.5667C33.031 13.9227 33.6939 13.6575 34.0538 13.2029C33.7697 13.9416 33.6561 14.7182 33.675 15.4949Z" fill="#DAAE59"/>
<path d="M29.6211 11.5542C29.7726 11.7247 29.9431 11.8573 30.1514 12.0088C30.9659 12.5771 31.572 13.0696 32.0265 13.922C32.0076 13.9409 31.9887 13.9788 31.9887 14.0167C32.0076 14.6986 31.7614 15.3047 31.4204 15.873C31.2689 14.9827 31.0985 14.0735 30.7386 13.259C30.4545 12.615 30.0378 12.0846 29.6211 11.5542Z" fill="#DAAE59"/>
<path d="M30.7036 15.1345C30.3437 14.7557 29.8323 14.5663 29.4914 14.1874C29.4535 13.2593 29.3967 12.35 29.3398 11.4219C29.7755 12.1606 30.3248 12.7668 30.6278 13.6002C30.9119 14.3768 31.0445 15.2103 31.215 16.0248C31.215 16.0627 31.2528 16.0816 31.2718 16.1006C31.2528 16.1385 31.215 16.1763 31.196 16.2142C31.1392 15.8354 30.9877 15.4565 30.7036 15.1345Z" fill="#DAAE59"/>
<path d="M29.1704 11.233V11.214C29.1704 11.214 29.1704 11.214 29.1704 11.1951C29.1893 12.1043 29.2272 12.9946 29.2651 13.9038C29.2461 13.8848 29.2272 13.847 29.2272 13.828C29.1704 13.7144 29.0189 13.7522 28.981 13.8659C28.9241 14.0743 28.8294 14.2447 28.7158 14.4342C28.6969 14.4152 28.6969 14.3963 28.6779 14.3963C28.6211 13.2976 28.8105 12.2748 29.1704 11.233Z" fill="#DAAE59"/>
<path d="M28.4635 13.9792C28.2741 13.5814 27.971 13.2404 27.668 12.9184C27.7248 12.9374 27.7816 12.8995 27.7816 12.8427C27.8006 12.5964 27.9142 12.4259 28.0657 12.2744C28.1225 12.2744 28.1604 12.2365 28.1794 12.1607C28.3498 12.0092 28.5392 11.8766 28.7097 11.7251C28.7855 11.6682 28.8423 11.5925 28.8991 11.5356C28.5961 12.3123 28.4635 13.1457 28.4635 13.9792Z" fill="#DAAE59"/>
<path d="M28.4311 14.8129C28.2606 15.0213 28.0712 15.2107 27.9007 15.4191C27.8439 14.4151 27.5219 13.4301 26.9727 12.5967C27.5977 13.2786 28.3364 13.8279 28.4311 14.8129Z" fill="#DAAE59"/>
<path d="M26.5312 12.2178C27.232 13.2596 27.6109 14.3772 27.6866 15.6652C27.554 15.8357 27.4215 16.0062 27.3268 16.1956C27.1373 16.0062 26.9479 15.8168 26.7775 15.6084V15.5895C26.8911 14.4719 26.7964 13.3164 26.5312 12.2178Z" fill="#DAAE59"/>
<path d="M25.7807 14.4719C25.7807 14.4908 25.7617 14.5098 25.7617 14.5098C25.8564 13.6384 26.0458 12.8429 26.3489 11.9905C26.5383 13.127 26.614 14.2256 26.5762 15.3811C26.3678 15.1159 26.1784 14.8128 26.0648 14.4719C26.0079 14.3393 25.8375 14.3393 25.7807 14.4719Z" fill="#DAAE59"/>
<path d="M24.2031 16.5555C24.5251 14.9454 25.1691 13.4869 26.0972 12.142C26.1351 12.123 26.154 12.0851 26.1919 12.0283C25.7373 12.9375 25.51 13.9794 25.51 14.9833C25.1691 15.5137 24.6766 16.0251 24.2031 16.5555Z" fill="#DAAE59"/>
<path d="M23.8487 16.934C23.6593 16.7256 23.432 16.4794 23.2236 16.2331C23.2236 16.2142 23.2236 16.1953 23.2047 16.1574C22.9585 15.7217 24.1707 14.301 24.4169 13.998C24.701 13.6381 25.023 13.3161 25.326 12.9751C24.6063 14.1495 24.1328 15.4376 23.9244 16.8203C23.9055 16.8772 23.8676 16.9151 23.8487 16.934Z" fill="#DAAE59"/>
<path d="M23.792 14.4908C23.6026 14.756 23.0722 15.419 22.9775 15.9115C22.9396 15.8546 22.9207 15.8167 22.8828 15.7599C23.3184 14.5855 24.0382 13.7142 24.9473 12.9565C25.0231 12.9754 25.1178 12.9186 25.1178 12.8239C25.3261 12.6534 25.5345 12.5019 25.7618 12.3503C25.7428 12.3882 25.7239 12.4072 25.705 12.4451C25.0042 13.0891 24.3412 13.7331 23.792 14.4908Z" fill="#DAAE59"/>
<path d="M24.606 4.24268C21.8975 7.12187 19.9845 11.1565 21.9164 14.926C21.4429 15.3238 21.0073 15.7974 20.6663 16.2899C20.0792 14.4525 19.7951 12.634 20.2307 10.7209C20.6284 8.9782 21.5186 7.36812 22.693 6.04218C23.2422 5.39814 23.9241 4.81094 24.606 4.24268Z" fill="#DAAE59"/>
<path d="M22.786 15.5516C22.6535 15.2485 22.6156 14.9265 22.7671 14.5856C22.805 14.4719 22.7103 14.3204 22.5777 14.3961C22.4262 14.5098 22.2746 14.6045 22.1231 14.7371C19.9828 10.4372 22.9565 6.17527 25.8923 3.14453C24.7559 4.60307 23.9035 6.28892 23.3921 8.05053C22.8239 9.94474 22.3315 12.3693 23.449 14.1499C23.1459 14.5856 22.9186 15.0591 22.786 15.5516Z" fill="#DAAE59"/>
<path d="M26.1348 3.16333C24.7143 6.1183 24.3165 9.54681 24.8469 12.767C24.4681 13.0511 24.0892 13.3163 23.8051 13.6762C23.7294 13.752 23.6536 13.8467 23.5968 13.9414C22.6498 12.0661 23.1422 9.75518 23.7483 7.82308C24.2787 6.1183 25.112 4.60293 26.1348 3.16333Z" fill="#DAAE59"/>
<path d="M27.2932 1.43954C27.3121 1.4206 27.3311 1.38271 27.3311 1.36377C26.6303 4.96277 26.5735 8.78907 27.1985 12.407C26.9523 12.1229 26.706 11.8388 26.5166 11.5167C26.4598 11.422 26.3462 11.441 26.2894 11.5167C25.9863 11.9713 25.5317 12.2934 25.0772 12.6343C24.49 8.67542 25.3423 4.86806 27.2932 1.43954Z" fill="#DAAE59"/>
<path d="M27.445 12.6532C26.9147 8.63749 26.9904 4.7733 27.6344 0.776521C27.6723 0.700753 27.6912 0.624984 27.7291 0.530273C27.7481 0.606042 27.7859 0.68181 27.8049 0.757578C27.9185 2.46237 28.0322 4.14821 28.0701 5.853C28.1079 7.91769 27.9943 9.96344 27.9564 12.0281C27.9375 12.0471 27.9185 12.066 27.9185 12.0849C27.7102 12.3123 27.6155 12.4827 27.6155 12.8047V12.8237C27.5587 12.7858 27.5018 12.729 27.445 12.6532Z" fill="#DAAE59"/>
<path d="M30.3254 11.8195C29.9277 11.5543 29.5867 11.2323 29.4352 10.7587C29.3973 10.664 29.2647 10.6451 29.2079 10.7398C28.9238 11.1944 28.5639 11.4785 28.2041 11.8005C28.5261 8.52356 28.4692 5.0761 28.1094 1.76123C29.2079 5.03821 30.2307 8.37202 30.3254 11.8195Z" fill="#DAAE59"/>
<path d="M29.7367 6.21301C29.2632 4.41351 28.714 2.63295 28.0321 0.890278C27.9942 0.587204 27.9563 0.303073 27.9185 0C27.9374 0.0378842 27.9563 0.0568251 27.9563 0.0757672C28.1457 1.0797 28.7897 1.85632 29.3201 2.72766C30.0019 3.86419 30.5701 5.05754 31.0058 6.30772C31.8391 8.65654 32.0286 11.0054 32.0854 13.4678C31.896 13.1269 31.6497 12.8238 31.3656 12.5586C31.1383 12.3502 30.8732 12.1798 30.5891 12.0093C30.5891 11.9903 30.5891 11.9903 30.5891 11.9903C30.6648 10.0204 30.2292 8.06933 29.7367 6.21301Z" fill="#DAAE59"/>
<path d="M33.8132 6.02346C35.9535 8.29651 37.1278 11.3841 36.8816 14.4906C36.8248 14.5285 36.8058 14.5663 36.8058 14.6232C36.8058 14.6611 36.8248 14.7179 36.8626 14.7368C36.8626 14.7936 36.8437 14.8505 36.8437 14.9262C36.6164 14.4527 36.3134 14.017 35.9724 13.6192C36.1618 11.4977 35.4989 9.58457 34.2299 7.87978C32.8283 6.00452 31.2941 4.12925 29.7031 2.40552C30.9721 3.67464 32.5631 4.69751 33.8132 6.02346Z" fill="#DAAE59"/>
<path d="M30.058 3.50453C29.5655 2.61425 28.8647 1.79974 28.4102 0.871582C28.6185 1.17466 28.8458 1.47773 29.0731 1.74292C29.0731 1.76186 29.0731 1.76186 29.092 1.76186C29.092 1.7808 29.111 1.7808 29.111 1.7808C29.2435 1.93234 29.3761 2.06493 29.5087 2.19753C29.4708 2.19753 29.4329 2.23541 29.4519 2.2733C31.8763 5.70181 35.797 8.77043 35.6833 13.2787C35.2666 12.8619 34.7742 12.502 34.2249 12.2747C34.1113 12.2179 33.9787 12.3126 34.0166 12.4452C34.0923 12.8809 33.5052 13.3734 33.2589 13.6007C33.1074 13.7333 32.9559 13.8469 32.8422 13.9984C32.7665 14.131 32.7097 14.2258 32.6907 14.3205C32.596 14.2258 32.4824 14.131 32.3687 14.0363C32.3308 13.9416 32.293 13.828 32.2361 13.7333C32.293 13.7333 32.3308 13.6764 32.3498 13.6196C32.615 11.2897 32.1604 8.77043 31.4217 6.55421C31.0429 5.51239 30.5883 4.48952 30.058 3.50453Z" fill="#DAAE59"/>
<path d="M31.1377 19.0936C30.74 20.2112 29.8877 21.3667 29.9445 22.5979C29.9445 22.6169 29.9445 22.6358 29.9634 22.6358C29.9066 22.6737 29.8687 22.7305 29.8119 22.7684C29.9634 21.916 29.9634 21.0447 29.793 20.2112C29.8308 20.2112 29.8498 20.1923 29.8498 20.1354C29.6414 18.1465 31.4029 16.9342 32.0469 15.2673C31.8575 16.5743 31.5734 17.8624 31.1377 19.0936Z" fill="#DAAE59"/>
<path d="M31.5924 18.4681C31.9712 17.18 32.1796 15.8541 32.2175 14.5281C32.2175 14.5092 32.2175 14.5092 32.2175 14.4902C32.8614 16.9906 32.7667 19.472 31.5735 21.8019C31.3083 21.8777 31.081 21.9345 30.8916 22.0292C30.6264 22.1428 30.3992 22.2944 30.1719 22.4649C30.2098 21.1389 31.2325 19.6993 31.5924 18.4681Z" fill="#DAAE59"/>
<path d="M32.5764 15.1157C32.9741 15.8355 33.4477 16.4985 33.7128 17.332C34.1106 18.639 34.1106 19.946 33.8454 21.2719C33.2014 21.4613 32.5006 21.5939 31.8945 21.7265C32.8794 19.6808 33.2014 17.2941 32.5764 15.1157Z" fill="#DAAE59"/>
<path d="M34.0535 17.7297C33.7315 16.4606 32.9739 15.5893 32.3867 14.4717C34.1103 16.1386 35.0763 18.3737 35.0195 20.7983C34.7543 20.9499 34.4323 21.0825 34.0914 21.1961C34.3565 20.0596 34.3376 18.8662 34.0535 17.7297Z" fill="#DAAE59"/>
<path d="M29.6215 11.5546C29.5836 11.4978 29.5457 11.4599 29.5078 11.4031C29.5457 11.4599 29.5836 11.5167 29.6215 11.5546Z" fill="#DAAE59"/>
<path d="M17.6907 24.132C17.6907 24.1131 17.6907 24.1131 17.6719 24.0942C17.6907 24.0942 17.6907 24.1131 17.6907 24.132Z" fill="#DAAE59"/>
</svg>
