<svg width="398" height="298" viewBox="0 0 398 298" fill="none" xmlns="http://www.w3.org/2000/svg">
<path d="M205.821 81.1944C205.821 81.5855 205.821 81.8462 205.951 82.2373C206.081 82.2373 206.211 82.2373 206.341 82.3677C206.601 82.7588 206.862 83.0195 207.122 83.4106C206.601 82.7588 206.211 82.1069 205.821 81.1944ZM204.911 82.2373V82.3677C202.44 89.5377 201.139 96.5772 201.53 104.008C201.66 104.138 201.79 104.138 201.79 104.269C202.57 103.095 203.22 101.792 203.61 100.358C203.87 99.5756 204.911 99.3149 205.301 100.097C205.431 100.227 205.561 100.488 205.561 100.619C205.431 94.6218 205.171 88.3644 204.911 82.2373C205.041 82.2373 204.911 82.2373 204.911 82.2373ZM205.431 133.079C205.561 123.302 205.301 113.524 204.781 103.747C204.781 103.487 204.911 103.356 205.041 103.356C204.911 103.226 204.781 103.095 204.781 102.965C204.651 103.226 204.521 103.487 204.391 103.878C204.521 103.878 204.651 104.008 204.521 104.269C202.05 111.96 201.27 119.782 202.57 127.864C202.57 127.995 202.57 127.995 202.57 128.125C203.48 129.559 204.521 131.384 205.431 133.079ZM185.664 87.5822C183.713 93.4486 182.283 98.9238 181.633 104.92C181.633 104.79 181.763 104.79 181.763 104.66C182.153 103.747 183.323 103.747 183.713 104.66C184.624 107.006 185.794 109.092 187.225 110.917C187.355 102.965 186.964 95.404 185.664 87.5822ZM180.982 110.656C176.301 124.084 173.83 137.12 174.74 151.59C174.74 151.721 174.74 151.721 174.74 151.851C177.081 153.024 179.422 154.198 181.373 155.371C182.283 140.119 182.153 124.866 181.763 109.483C181.763 109.353 181.633 109.092 181.633 108.962C181.503 109.092 181.503 109.222 181.373 109.353C181.242 109.614 181.242 109.744 181.112 110.005C181.112 110.135 181.112 110.135 181.112 110.265C181.242 110.396 181.112 110.656 180.982 110.656ZM183.973 88.4947C177.601 97.7505 173.18 107.919 170.969 118.869C174.35 115.35 177.731 111.83 179.942 108.049C179.942 101.14 181.503 93.8396 184.624 87.7125C184.364 88.1036 184.103 88.3644 183.973 88.4947ZM167.718 58.9023C163.556 72.1994 160.175 88.1037 166.677 101.01C167.198 100.358 167.588 99.8363 168.108 99.1845C170.189 96.838 172.659 94.8825 175.26 92.9271C171.489 70.7653 174.35 47.1696 184.104 26.833C177.211 36.6102 171.359 47.1697 167.718 58.9023ZM162.516 114.567C163.166 111.178 166.807 106.746 168.108 104.79C171.879 99.5756 176.431 95.1433 181.112 90.8413C181.242 90.5806 181.373 90.4502 181.503 90.1895C179.942 91.2324 178.511 92.2753 177.081 93.4486C177.081 94.1004 176.431 94.4914 175.911 94.3611C169.668 99.4452 164.857 105.572 161.736 113.655C161.996 113.785 162.256 114.176 162.516 114.567ZM172.399 101.531C170.709 103.617 162.386 113.264 164.076 116.392C164.206 116.523 164.206 116.653 164.206 116.914C165.637 118.609 167.198 120.303 168.498 121.737C168.758 121.477 168.888 121.216 169.148 121.086C170.579 111.569 173.83 102.704 178.772 94.6218C176.431 96.838 174.35 99.0541 172.399 101.531ZM183.973 217.033C173.05 228.635 165.897 243.757 166.677 260.053C167.067 268.396 169.668 277.13 176.041 282.736C178.642 285.082 181.633 286.647 184.754 287.95C164.987 270.873 171.489 237.369 183.973 217.033ZM171.099 121.737C166.287 129.168 163.686 137.381 165.897 146.897C168.108 148.462 170.579 149.896 173.05 151.069C171.879 138.424 173.57 124.996 178.512 113.264C176.301 116.262 173.7 119 171.099 121.737ZM165.897 128.125C162.906 132.427 160.825 137.12 161.215 142.987C162.126 143.899 163.036 144.812 164.076 145.594C163.036 139.467 163.816 133.6 165.897 128.125ZM162.126 130.081C163.426 127.734 165.247 125.387 167.067 123.171C163.686 119.26 159.265 114.828 158.615 109.874C157.834 116.914 158.875 123.693 162.126 130.081ZM93.2014 276.869C92.9413 277.26 92.6812 277.652 92.4211 278.043C122.592 267.223 148.601 251.449 172.009 229.678C174.48 225.376 177.471 221.335 180.982 217.815C146.52 229.808 117.91 250.275 93.2014 276.869ZM97.623 268.526C112.838 239.586 141.058 215.99 173.96 212.34C173.31 212.209 172.659 212.079 172.009 211.949C150.422 212.992 127.664 216.381 112.578 233.328C105.426 241.411 102.825 250.797 100.094 260.965C99.4436 263.572 98.5333 266.049 97.623 268.526ZM165.637 268.135C146.13 284.43 117.91 289.775 94.3718 279.477C93.7216 279.477 92.9413 279.346 92.2911 279.346C104.125 284.17 116.35 288.472 129.484 287.559C143.009 286.516 155.493 280.78 165.377 271.655C165.767 271.264 166.287 271.264 166.677 271.525C166.157 270.351 165.897 269.178 165.637 268.135ZM78.2461 94.6218C99.8338 93.7093 122.982 98.5327 141.969 108.962C141.188 106.485 140.538 103.878 140.148 101.14C139.888 101.27 139.498 101.27 139.238 101.01C121.291 91.7538 100.874 90.4502 81.2372 93.8396C80.1968 94.2307 79.2865 94.4914 78.2461 94.6218ZM96.1925 271.655C96.0624 272.046 95.8023 272.437 95.6723 272.828C96.0624 272.437 96.3225 272.046 96.7127 271.655C119.341 245.061 150.942 225.637 183.843 215.077C184.234 214.686 184.754 214.295 185.144 213.904C182.283 213.643 179.552 213.383 176.821 212.861C176.821 213.252 176.561 213.643 176.041 213.774C139.498 216.772 115.699 242.845 96.7127 271.655C96.5826 271.785 96.3225 271.785 96.1925 271.655ZM49.376 233.85C64.8514 243.888 82.0175 249.102 100.874 249.363C101.004 249.102 101.004 248.841 101.134 248.711C101.914 246.364 102.825 244.148 103.995 242.062C85.3987 242.975 66.6721 240.498 49.376 233.85ZM123.632 162.932C100.484 155.762 72.7842 163.062 52.367 174.925C51.4567 175.447 50.4163 176.099 49.506 176.62C72.264 165.018 101.394 162.541 125.453 170.102C125.713 170.232 125.973 170.363 126.103 170.623C125.323 168.016 124.803 165.409 124.542 162.671C124.282 163.062 124.022 163.062 123.632 162.932ZM240.543 96.0558C241.454 103.878 241.714 111.83 241.064 119.782C241.064 119.912 240.934 120.043 240.934 120.173C244.835 127.995 247.046 136.729 247.176 145.854C251.207 128.255 248.476 111.699 240.543 96.0558ZM68.7528 164.627C56.3984 158.76 45.3445 149.896 37.1516 138.685C40.4028 151.46 45.6046 163.062 58.2191 169.059C58.6092 168.798 59.1294 168.668 59.5195 168.407C62.5106 167.104 65.6317 165.8 68.7528 164.627ZM52.6271 101.922C48.0755 103.226 43.6539 104.269 38.9723 104.79C70.1833 107.006 102.305 118.869 127.664 136.99C129.224 132.427 131.435 127.995 134.166 123.954C134.686 123.171 135.726 123.432 135.987 124.214C136.897 126.821 138.587 128.777 140.408 130.602C140.798 128.777 141.318 127.082 142.099 125.388C141.969 125.388 141.839 125.257 141.709 125.127C116.22 104.92 83.578 103.747 52.6271 101.922ZM25.9677 215.99C31.9498 220.813 37.9319 225.637 44.1741 230.199C63.551 237.76 83.8381 241.541 104.776 240.107C106.596 236.978 108.677 233.98 111.148 231.242C83.1879 235.544 50.9365 229.808 25.9677 215.99ZM31.8198 188.353C63.4209 176.49 102.825 174.404 134.426 186.137C130.525 181.835 127.794 176.62 126.103 171.145C126.103 171.015 126.103 171.015 125.973 170.884C125.973 171.015 125.973 171.015 126.103 171.145C126.233 171.797 125.713 172.579 124.803 172.449C96.7127 165.8 70.8335 168.407 44.5643 180.401C44.3042 180.531 44.1741 180.401 44.0441 180.27C40.0127 182.878 35.9812 185.746 31.8198 188.353ZM29.609 106.354C51.3266 139.206 88.1296 148.592 123.762 159.412C124.282 159.543 124.412 160.064 124.282 160.455C124.282 160.455 124.282 160.455 124.412 160.455C124.282 157.848 124.282 155.241 124.412 152.633C124.282 152.633 124.152 152.633 124.022 152.633C90.0803 142.987 57.3088 126.952 29.4789 105.051C29.3489 105.051 29.2188 105.051 29.0888 105.051C29.3489 105.572 29.4789 105.963 29.609 106.354ZM32.8601 118.739C44.1741 138.293 62.7707 150.808 83.7081 159.282C83.9682 159.412 84.2282 159.673 84.2282 159.934C93.0714 157.978 102.175 157.196 111.018 157.978C80.717 150.026 48.3356 137.251 30.9094 110.526C31.6897 113.264 32.3399 116.001 32.8601 118.739ZM35.5911 105.051C34.1606 105.181 32.7301 105.181 31.1695 105.181C60.0397 125.257 90.7306 140.901 124.412 151.199C124.412 151.199 124.542 151.199 124.542 151.33C124.933 147.158 125.843 142.987 127.143 139.076C98.7934 120.825 69.273 110.265 35.9812 105.703C35.5911 105.442 35.5911 105.312 35.5911 105.051ZM82.0175 160.586C63.0308 152.633 44.4342 141.031 33.9005 123.171C34.8108 127.473 35.5911 131.775 36.6315 135.947C45.9948 147.81 57.1787 157.196 70.9636 163.845C74.3448 162.541 78.1161 161.498 82.0175 160.586ZM61.6003 217.815C44.6943 215.859 27.6583 212.34 11.9228 205.822C15.3039 208.038 18.5551 210.384 21.6762 212.731C35.9812 219.379 50.4163 225.115 66.0218 227.983C81.7574 230.851 97.2328 230.59 112.968 229.157C113.619 228.505 114.399 227.853 115.049 227.201C118.17 224.463 121.421 222.117 124.933 220.161C104.125 221.074 82.5377 220.292 61.6003 217.815ZM338.858 163.323C342.109 164.627 345.23 166.191 348.221 167.886C360.446 151.721 365.127 132.297 367.598 112.612C363.437 132.166 351.342 149.896 335.607 162.15C336.647 162.541 337.688 162.932 338.858 163.323ZM316.23 157.326C322.082 158.109 327.804 159.412 333.396 161.368C352.383 147.158 362.917 127.082 367.598 104.269C358.105 127.473 339.118 147.028 316.23 157.326ZM301.145 255.099C320.782 254.708 339.898 249.363 356.414 238.803C364.607 233.589 372.02 227.071 378.262 219.64C382.033 215.077 385.284 210.124 388.796 205.3C364.737 230.33 330.015 244.018 295.553 244.67C297.243 247.277 298.674 249.884 299.974 252.622C300.364 253.534 300.755 254.317 301.145 255.099ZM384.894 207.386C355.634 226.94 316.88 233.719 282.678 229.417C282.938 229.678 283.328 229.939 283.589 230.33C287.75 234.241 291.391 238.543 294.512 243.366C294.642 242.975 294.903 242.714 295.423 242.714C328.975 241.932 359.665 228.896 384.894 207.386ZM192.686 291.079C185.274 283.257 182.803 271.916 182.283 261.356C181.503 245.582 183.713 228.896 189.435 214.165C188.915 214.165 188.395 214.165 187.875 214.165C173.44 234.762 166.027 269.439 186.704 288.602C186.834 288.732 186.834 288.863 186.834 288.993C188.785 289.645 190.736 290.427 192.686 291.079ZM192.296 116.523C192.947 115.219 193.857 114.046 194.767 112.873C194.247 104.008 191.646 96.4469 186.834 89.1465C188.785 96.7076 189.435 104.66 188.525 112.351V112.482C189.695 113.916 190.996 115.219 192.296 116.523ZM190.346 161.107C190.866 152.764 191.386 144.421 190.476 136.077C189.565 127.995 186.184 121.216 183.453 114.046C184.364 128.125 183.973 142.335 183.063 156.284C185.664 157.848 188.135 159.412 190.346 161.107ZM186.834 84.1928C188.135 86.4089 189.695 88.4947 191.516 90.3198C187.355 65.4204 187.615 39.2175 192.426 14.3181C192.296 14.4485 192.166 14.7092 192.166 14.8396C178.772 38.4353 172.92 64.7686 176.951 91.7538C180.072 89.5376 183.193 87.1911 185.274 84.0624C185.534 83.6713 186.444 83.5409 186.834 84.1928ZM189.305 260.704C188.135 245.582 188.265 229.287 191.386 214.425C191.386 214.295 191.386 214.295 191.516 214.295C191.386 214.295 191.126 214.295 190.996 214.295C183.843 238.152 176.561 271.655 195.157 292.252C196.068 292.643 196.978 293.034 197.758 293.426C198.799 293.947 199.579 294.208 200.229 294.468C192.947 284.691 190.216 272.567 189.305 260.704ZM279.297 164.236C279.037 165.67 278.647 167.234 278.127 168.668C278.257 168.668 278.257 168.538 278.387 168.538C310.248 162.932 348.612 172.318 375.531 190.048C376.051 190.308 376.441 190.439 376.962 190.699C367.078 184.572 357.975 176.49 347.831 170.884C347.311 171.275 346.661 170.754 346.661 170.232C325.593 159.021 302.575 156.414 279.817 164.366C279.687 164.366 279.557 164.236 279.297 164.236ZM277.216 135.817C279.037 141.031 280.077 146.376 280.337 151.851C298.544 150.808 315.71 144.551 331.055 134.513C338.468 129.689 345.36 124.084 351.993 118.087C357.455 113.003 363.957 107.658 367.078 100.749C342.499 123.041 308.948 130.211 277.216 135.817ZM279.817 161.628C290.481 157.196 302.055 155.892 313.499 156.935C313.499 156.805 313.629 156.675 313.889 156.544C336.127 145.985 353.293 129.429 364.607 108.049C362.136 111.439 358.885 114.307 355.894 117.305C349.132 123.823 341.849 129.95 334.046 135.165C318.181 145.985 299.714 153.285 280.337 153.807C280.337 156.414 280.207 159.021 279.817 161.628ZM270.974 183.529C301.145 179.227 335.087 177.272 364.997 186.267C353.553 180.792 341.719 176.229 329.235 173.491C312.199 169.711 295.943 169.972 278.777 170.363C278.387 170.363 278.127 170.102 277.997 169.711C276.306 174.665 273.965 179.358 270.974 183.529ZM239.763 117.826C240.153 110.265 240.153 102.704 239.633 95.0129C237.812 101.14 237.032 107.267 237.292 113.655C238.073 114.958 238.983 116.392 239.763 117.826ZM237.552 209.993C238.333 210.124 239.113 210.123 239.893 210.254C239.243 209.993 238.593 209.732 237.942 209.602C237.942 209.732 237.812 209.863 237.682 209.993H237.552ZM231.44 262.529C231.05 264.746 230.66 266.962 229.88 269.178C240.934 281.693 258.88 284.822 275.006 284.17C282.028 283.909 289.051 282.866 296.073 281.562C273.185 283.779 248.346 278.825 231.44 262.529ZM227.019 104.66C231.05 112.351 236.252 118.478 238.463 127.082C240.413 134.904 240.543 143.117 238.723 150.939C241.064 150.156 243.274 149.374 245.095 148.201C245.485 131.515 238.853 116.132 227.019 104.66ZM223.637 154.589C227.669 153.676 232.481 152.764 237.032 151.46C238.853 142.335 238.853 133.34 236.122 124.345C234.301 118.739 231.05 114.176 228.319 109.092C232.611 124.084 230.4 140.51 223.637 154.589ZM267.983 246.495C254.458 237.63 240.023 232.155 224.288 228.765C226.108 232.025 227.539 235.284 228.839 238.803C228.969 238.803 229.099 238.803 229.229 238.934C255.499 251.188 282.028 263.833 306.737 279.216V279.086C294.122 267.614 282.288 255.751 267.983 246.495ZM230.66 105.312C232.611 107.267 234.301 109.483 235.992 111.699C235.862 106.354 236.772 101.01 238.723 95.9254C236.122 99.0542 231.57 100.879 230.66 105.312ZM211.933 159.543C213.364 158.369 215.054 157.457 216.875 156.544C218.175 156.023 219.736 155.501 221.557 154.98C229.75 138.945 230.4 121.868 225.978 104.66C225.978 104.79 225.978 104.79 225.978 104.92C225.718 114.176 224.288 123.302 221.687 132.036C219.086 140.64 212.193 150.548 211.933 159.543ZM240.413 178.445C232.611 188.874 219.736 195.653 208.812 202.171C208.162 202.562 207.512 202.171 207.382 201.52C207.122 204.388 206.471 207.256 205.561 210.124C218.956 208.69 231.83 203.475 240.803 193.046C250.167 182.095 250.947 168.668 251.207 155.11C249.256 163.584 245.485 171.666 240.413 178.445ZM216.875 118.869C217.005 110.265 209.723 109.092 205.561 104.138C205.691 104.79 205.691 105.442 205.821 106.094C206.862 116.132 207.252 126.17 206.862 136.208C207.252 137.251 207.642 138.293 207.902 139.336C207.902 135.425 209.202 131.906 211.153 128.386C210.763 120.173 210.893 113.264 206.081 106.094V105.963C206.081 105.703 206.471 105.572 206.601 105.703C211.673 112.221 212.063 118.739 212.323 126.3C213.754 123.953 215.445 121.607 217.135 119.26C217.005 119.26 216.875 119.13 216.875 118.869ZM211.673 87.7125C210.243 86.8 209.072 85.7571 208.032 84.5838C207.772 84.1927 207.512 83.932 207.252 83.5409C207.512 83.932 207.772 84.1927 208.032 84.5838C211.023 88.234 213.754 91.7538 215.705 96.3165C218.176 102.052 219.346 108.18 220.386 114.307C222.727 110.396 224.418 106.224 224.288 101.531C224.288 101.27 224.418 101.01 224.548 100.879C221.427 95.0129 217.265 91.6234 211.673 87.7125ZM223.767 277.261C227.279 254.838 221.557 232.546 208.422 214.165C208.292 214.034 208.292 214.034 208.422 213.904C207.512 213.774 206.601 213.774 205.691 213.643C212.714 223.942 216.615 236.196 217.525 248.711C218.045 255.229 217.655 261.878 216.485 268.396C215.314 275.566 212.584 282.084 210.893 289.124C212.323 288.341 213.624 287.559 214.924 286.647C218.566 284.039 221.427 280.911 223.767 277.261ZM209.332 213.904C222.597 230.851 228.319 252.231 225.978 273.35C226.759 271.785 227.409 270.221 227.929 268.657C227.669 268.265 227.929 267.874 228.319 267.744C228.709 266.44 228.969 265.137 229.229 263.833C232.741 245.452 223.377 228.374 212.193 214.556C212.063 214.425 211.933 214.165 211.933 214.034C210.893 214.034 210.113 214.034 209.332 213.904ZM214.924 98.7934C212.844 93.0574 209.072 88.8858 206.081 83.8017C206.471 90.1894 206.862 96.4469 207.122 102.835C209.462 105.312 212.974 106.746 215.445 109.353C217.525 111.569 218.436 114.176 218.826 116.914C218.956 116.653 219.216 116.392 219.346 116.132C219.216 116.001 218.956 115.871 218.956 115.61C217.785 109.874 216.875 104.269 214.924 98.7934ZM207.902 200.477C217.785 193.567 229.75 188.223 237.552 178.836C245.745 169.059 249.907 156.544 252.248 144.16C247.566 153.546 241.194 161.889 233.651 169.189C229.88 172.709 225.978 175.968 221.687 178.967C219.346 180.661 216.875 182.226 214.404 183.66C213.104 184.442 211.933 185.094 210.633 185.746C209.853 186.528 208.942 186.789 208.032 186.658C208.032 186.789 208.032 186.919 207.902 187.049C207.772 187.31 207.512 187.571 207.382 187.831C207.252 187.962 207.122 188.092 206.992 188.223C207.772 192.394 208.032 196.826 207.642 200.998C207.512 200.737 207.642 200.607 207.902 200.477ZM206.341 185.485C208.032 184.051 211.023 183.269 212.453 182.487C218.045 179.358 223.247 175.708 228.189 171.536C236.252 164.757 242.884 156.675 248.736 147.94C248.216 148.331 247.826 148.722 247.306 148.983C247.306 149.765 246.656 150.026 246.135 149.896C235.212 163.454 213.104 162.932 204.651 179.619C205.171 181.574 205.821 183.529 206.341 185.485ZM209.202 144.16C210.373 149.896 210.373 155.892 209.332 161.759C209.592 161.498 209.983 161.107 210.373 160.846C210.373 160.716 210.243 160.716 210.243 160.586C209.853 152.112 215.705 144.16 218.436 136.468C221.427 127.864 223.377 119.13 224.548 110.135C220.126 121.607 208.032 130.081 209.462 143.638C209.592 144.029 209.332 144.16 209.202 144.16ZM209.853 289.515C210.373 283.518 212.974 278.043 214.274 272.176C215.705 265.528 216.355 258.619 216.095 251.84C215.575 238.152 211.413 225.506 203.87 214.295C203.48 214.425 202.96 214.425 202.7 214.165C202.44 214.165 202.31 214.165 202.05 214.165C206.992 239.586 212.193 267.744 204.521 293.034C204.911 292.774 205.431 292.383 205.951 291.992C207.122 291.209 208.552 290.297 209.853 289.515ZM216.875 159.021C209.723 162.541 205.821 169.059 204.001 176.49C211.673 162.932 229.75 160.455 242.104 151.46C239.633 152.373 237.162 153.155 234.951 153.676C228.839 155.371 222.597 156.284 216.875 159.021ZM200.489 172.057C201.53 152.894 201.4 133.861 189.826 117.566C189.695 117.435 189.695 117.175 189.956 117.044C187.225 114.307 184.754 111.439 182.933 107.919C183.063 108.571 183.063 109.222 183.063 109.874C186.964 117.957 190.736 125.648 192.036 134.774C193.337 144.029 192.686 153.285 192.036 162.541C194.637 164.757 197.108 167.234 199.189 170.102C199.709 170.623 200.099 171.406 200.489 172.057ZM201.27 294.599C199.059 267.874 197.758 241.02 195.938 214.295C194.897 214.295 193.857 214.295 192.817 214.295C192.947 214.425 192.947 214.686 192.947 214.817C190.086 228.244 190.086 242.845 190.476 256.663C190.996 270.351 193.727 282.996 201.139 294.599C201.139 294.468 201.27 294.599 201.27 294.599ZM196.718 87.9733C196.978 73.7637 197.758 59.6845 197.498 45.4749C197.238 33.7422 196.458 22.0096 195.678 10.4072C195.548 9.88578 195.287 9.36431 195.157 8.84286C194.897 9.36431 194.767 10.0162 194.507 10.5376C190.086 38.0442 189.565 64.6383 193.207 92.2753C193.597 92.6663 193.987 93.1878 194.507 93.5789V93.4486C194.507 91.2324 195.027 90.0591 196.588 88.4947C196.458 88.234 196.588 88.1036 196.718 87.9733ZM194.767 93.97C196.848 96.3165 198.799 98.5327 200.229 101.27C200.229 95.5344 201.139 89.7984 203.22 84.4535C202.83 84.8446 202.44 85.366 201.92 85.7571C200.749 86.8 199.449 87.7126 198.278 88.7555C198.278 89.2769 197.888 89.4073 197.498 89.5377C196.458 90.5806 195.678 91.8842 195.548 93.4486C195.548 93.8396 195.027 93.97 194.767 93.97ZM200.359 128.386C198.279 125.387 195.678 122.65 193.077 120.173C204.261 135.686 203.35 156.414 202.05 174.795C202.05 174.925 202.18 174.925 202.18 174.925C203.09 171.275 204.651 168.016 206.601 165.148V165.018C209.592 152.373 207.772 139.206 200.359 128.386ZM196.328 111.178C197.498 109.744 198.799 108.44 199.969 107.006C199.189 100.227 194.247 96.3165 189.956 91.6234C193.727 97.4898 195.938 104.138 196.328 111.178ZM204.131 208.038C208.812 190.569 202.31 171.406 187.095 160.977C184.754 159.412 180.722 157.457 176.171 155.11C192.426 167.234 202.44 188.223 204.131 208.038ZM202.05 107.137C199.839 112.221 198.018 116.653 197.888 122.128C198.929 123.302 199.969 124.475 200.879 125.779C200.099 118.869 200.749 112.221 203.09 105.703C202.83 106.224 202.44 106.615 202.05 107.137ZM199.969 109.614C198.799 110.917 197.498 112.221 196.328 113.524V113.655C196.328 114.176 195.938 114.437 195.548 114.307C194.767 115.219 193.857 116.262 193.077 117.305C194.377 118.478 195.548 119.782 196.848 120.955C197.108 117.044 198.018 113.003 199.969 109.614ZM198.409 86.2786C200.879 83.932 203.22 81.9766 205.301 78.9782C205.691 78.3264 206.601 78.4568 206.862 79.1086C207.902 82.4981 210.243 84.5838 212.974 86.4089C212.193 62.6828 205.171 39.7389 197.888 17.1861C200.229 39.9997 200.749 63.5954 198.409 86.2786ZM204.261 17.0558C202.57 15.1003 201.009 13.1449 199.709 11.0591C202.83 17.4468 207.642 23.0524 211.023 29.1795C214.664 35.828 217.785 42.8676 220.256 50.168C225.328 65.4205 228.449 82.7587 226.628 98.7934C226.628 99.3149 226.238 99.5756 225.848 99.5756C226.108 100.227 226.498 100.879 226.759 101.661C227.539 102.313 228.189 102.965 228.969 103.617C229.099 102.835 229.359 102.183 230.01 101.401C230.79 100.227 231.83 99.4453 232.871 98.6631C234.691 97.0987 238.593 93.8396 238.073 90.7109C237.942 89.7984 238.723 89.2769 239.503 89.5377C243.274 91.2324 246.526 93.5789 249.517 96.4469C250.297 65.4205 223.377 44.3016 206.731 20.7059C206.601 20.4452 206.862 20.1845 207.122 20.1845C206.211 19.2719 205.301 18.3594 204.391 17.3165C204.391 17.3165 204.261 17.3165 204.261 17.1861C204.261 17.1861 204.261 17.1861 204.261 17.0558ZM205.951 23.8346C202.31 17.8379 197.888 12.493 196.588 5.58378C196.458 5.45342 196.458 5.1927 196.328 5.06234C196.588 7.14815 196.848 9.10361 197.108 11.1894C201.79 23.1828 205.561 35.437 208.812 47.8215C212.193 60.7274 215.184 74.0244 214.664 87.4518C214.664 87.5822 214.664 87.5822 214.664 87.5822C216.485 88.7555 218.306 89.9287 219.996 91.3627C222.077 93.1878 223.637 95.404 224.938 97.6201C224.548 80.6729 223.117 64.5079 217.525 48.3429C214.534 39.9997 210.633 31.6564 205.951 23.8346ZM199.189 214.295C199.059 214.295 198.799 214.425 198.669 214.295C198.278 214.295 197.888 214.295 197.498 214.295C199.319 240.889 202.31 267.874 202.05 294.468C202.44 294.338 202.83 294.208 203.22 293.947C209.202 267.092 205.301 241.411 200.359 214.686C199.969 214.817 199.449 214.686 199.189 214.295ZM145.87 118.087C144.7 116.001 143.659 113.916 142.879 111.699C120.251 101.14 98.2732 95.6647 73.0443 96.0558C72.9143 96.0558 72.7842 96.0558 72.7842 95.9254C67.3223 97.3594 61.8604 99.1845 56.3984 100.749C86.5691 101.14 118.43 104.138 142.879 123.432C143.789 121.737 144.83 119.912 145.87 118.087ZM145.35 183.269C145.22 181.704 145.09 180.14 144.96 178.445C144.83 178.445 144.7 178.315 144.57 178.185C135.076 164.366 131.955 147.419 133.776 130.993C127.403 150.156 131.955 167.886 145.35 183.269ZM127.794 218.727C137.677 213.774 148.731 211.297 159.785 210.515C133.646 210.124 107.506 209.602 81.3672 208.559C56.3984 207.647 30.6493 207.386 6.20072 200.998C5.68054 201.128 5.16036 201.259 4.64017 201.389C4.90026 201.52 5.16036 201.65 5.42046 201.78C24.6672 209.341 44.4342 214.165 65.1115 216.251C85.7888 218.336 106.466 217.554 127.273 218.336C127.534 218.597 127.664 218.727 127.794 218.727ZM146.13 157.978C145.74 158.239 145.35 158.239 145.09 157.718C140.278 148.462 136.637 138.424 135.856 127.995C135.726 127.864 135.596 127.604 135.466 127.473C133.906 144.551 135.596 161.498 144.96 176.099C144.96 171.536 145.35 166.973 145.61 162.671C145.74 161.107 145.87 159.543 146.13 157.978ZM298.024 280.128C273.965 278.043 249.907 266.44 231.7 251.449C231.96 254.317 231.96 257.315 231.7 260.313C250.687 277.261 273.705 281.171 298.024 280.128ZM303.356 268.005C294.122 236.066 267.463 213.904 233.911 212.34C233.521 212.34 233.261 212.209 233.001 211.949H232.871C232.351 211.818 231.57 211.818 231.05 211.557C227.669 212.731 224.028 213.513 220.386 213.904C238.073 216.251 254.328 220.683 269.023 231.894C284.499 243.627 296.203 259.27 305.696 275.957C305.436 273.219 304.136 270.482 303.356 268.005ZM305.566 279.607C280.207 266.701 255.369 253.143 229.62 241.15C230.53 243.888 231.18 246.756 231.57 249.754C231.83 249.624 232.22 249.624 232.481 249.884C254.068 267.614 278.387 275.696 305.566 279.607ZM303.356 273.61C293.602 259.01 283.068 244.8 269.154 234.11C253.028 221.726 235.212 217.685 215.445 215.338C218.175 218.858 220.776 222.508 223.117 226.419H223.247C253.938 229.939 282.288 251.188 303.356 273.61ZM261.611 135.034C264.862 131.384 267.463 127.473 267.203 122.128C267.203 121.216 268.373 120.694 269.023 121.346C272.145 125.257 274.615 129.559 276.436 134.122C292.432 130.472 308.687 127.995 324.293 122.65C339.248 117.566 353.163 110.265 365.778 100.749C365.257 100.879 364.867 101.01 364.477 101.14C332.746 118.348 296.983 119.13 261.481 119.912C262.521 124.996 262.521 130.081 261.611 135.034ZM317.14 96.1861C297.373 93.8396 277.476 96.4469 259.92 106.094C259.79 107.267 259.66 108.44 259.53 109.483C290.351 94.3611 326.504 111.83 358.625 102.183C344.97 103.617 330.795 97.7505 317.14 96.1861ZM322.342 194.871C297.113 195.001 272.014 197.348 247.046 201.259C244.575 203.996 241.714 206.343 238.593 208.168C263.171 217.033 289.571 215.468 315.19 212.861C341.719 210.254 367.338 206.343 393.087 199.303C381.643 198.521 370.199 196.696 358.625 195.914C346.531 195.132 334.437 194.741 322.342 194.871ZM257.839 104.66C259.53 83.2802 251.597 62.031 236.772 46.3875C228.189 37.262 217.395 30.2224 208.552 21.4881C219.476 33.3511 230.01 46.1267 239.633 59.163C248.346 70.7654 252.898 84.0624 251.597 98.6631C253.938 101.401 255.889 104.399 257.579 107.658C257.579 107.267 257.709 106.876 257.709 106.354C257.449 106.094 257.319 105.833 257.319 105.572C257.319 105.312 257.449 104.92 257.839 104.66ZM312.329 106.746C294.382 105.312 277.086 104.66 259.92 111.308C259.53 111.439 259.27 111.308 259.14 111.178C260.05 113.394 260.701 115.871 261.351 118.218C279.167 117.305 296.983 117.305 314.67 115.089C327.414 113.524 339.638 110.265 351.473 105.703C338.598 108.571 325.333 107.658 312.329 106.746ZM259.66 215.208C267.073 218.076 273.965 222.117 280.207 227.331C280.337 227.201 280.598 227.201 280.728 227.201C300.885 230.069 321.432 228.896 341.199 223.812C359.275 219.119 375.271 210.906 391.137 201.259C367.598 210.254 341.329 212.209 316.49 214.686C297.503 216.642 278.257 218.076 259.66 215.208ZM269.284 185.746C265.122 190.83 259.66 195.262 253.158 198.26C275.656 194.741 298.284 192.916 321.042 192.655C341.589 192.394 363.697 192.524 384.374 195.914C366.948 188.614 349.132 184.051 330.145 182.747C309.728 181.444 289.441 183.529 269.284 185.746ZM257.189 151.59C256.929 151.851 256.539 151.851 256.279 151.721C257.189 156.675 257.84 161.628 258.1 166.582L258.23 166.452C262.651 160.846 266.553 155.501 267.983 148.331C269.284 141.813 269.023 135.165 268.503 128.516C267.853 137.12 263.561 145.724 257.189 151.59ZM254.848 144.812C255.239 146.637 255.759 148.592 256.019 150.417C261.091 144.942 264.342 139.076 266.292 132.166C263.301 136.729 258.62 140.379 254.848 144.681C254.979 144.812 254.848 144.812 254.848 144.812ZM257.319 139.336C259.4 121.346 250.297 106.876 240.673 92.536C240.413 92.4056 240.283 92.2753 240.023 92.1449C240.023 92.4056 239.893 92.6663 239.893 92.9271C239.893 92.9271 239.893 92.9271 240.023 93.0574C250.557 107.788 253.418 127.343 249.256 144.812C250.427 143.378 251.207 141.683 251.337 139.727C251.467 138.554 253.028 138.293 253.418 139.467C253.678 140.51 253.938 141.553 254.198 142.595C255.239 141.422 256.279 140.379 257.319 139.336ZM259.14 118.348C258.49 115.35 257.319 112.482 255.759 109.353C252.638 103.226 248.606 97.7505 243.144 93.97C252.638 106.615 260.701 121.477 259.01 137.642C259.4 137.251 259.79 136.99 260.05 136.599C260.31 130.602 260.44 125.257 259.4 119.912C258.75 119.782 258.62 118.869 259.14 118.348ZM258.1 169.189C258.1 173.752 257.709 178.185 256.669 182.617C275.266 170.363 275.786 146.897 269.674 127.082C270.974 134.513 271.104 142.465 269.544 149.896C267.853 157.326 263.431 163.193 258.62 168.929C258.36 169.059 258.23 169.059 258.1 169.189ZM270.714 127.213C278.907 147.549 276.436 173.622 255.889 185.224C254.588 189.526 252.638 193.698 250.037 197.609C249.907 197.869 249.777 198 249.647 198.26C262.001 192.133 271.754 182.487 276.436 169.189C278.127 164.236 278.907 159.021 278.907 153.937C278.257 153.676 278.257 152.633 278.907 152.242C278.257 143.378 275.526 134.643 270.714 127.213ZM253.808 184.442C257.449 172.188 255.889 159.021 253.028 146.506C252.898 147.68 252.638 148.722 252.508 149.896C253.938 165.539 253.028 182.095 242.364 194.48C233.261 205.039 219.476 211.166 205.691 212.079C205.431 212.079 205.301 212.079 205.171 211.949C205.171 212.079 205.171 212.079 205.041 212.209H205.171C219.606 213.383 235.081 210.775 245.095 200.216C245.095 199.955 245.355 199.564 245.745 199.564C247.306 197.869 248.606 196.044 249.777 193.958C251.467 190.96 252.768 187.962 253.808 184.833C253.808 184.572 253.808 184.572 253.808 184.442ZM159.655 144.551C158.745 143.769 157.964 142.856 157.314 141.944C161.215 155.892 175.13 164.757 183.713 175.968C191.906 186.789 197.498 199.173 200.619 212.209C201.27 212.209 201.92 212.209 202.57 212.209C202.31 199.303 198.669 186.788 191.906 175.708C185.144 164.496 175.911 156.935 165.247 149.635H165.117C162.776 148.722 160.955 146.767 159.655 144.551ZM163.556 208.82C160.045 207.125 156.924 205.039 154.193 202.302C154.063 202.302 153.933 202.302 153.803 202.302C130.264 197.739 106.596 194.871 82.6677 194.48C59.5195 194.089 36.7615 196.435 13.7434 199.043C13.4833 199.043 13.2232 198.912 13.2232 198.652C11.6627 199.303 10.2322 199.825 8.6716 200.346C33.6404 204.909 58.7393 205.822 84.0982 206.734C110.628 207.647 137.157 208.429 163.556 208.82ZM155.623 139.467C154.583 137.381 154.323 135.295 154.843 132.949C154.713 132.949 154.713 132.949 154.713 132.949C149.771 167.495 169.928 195.653 198.669 212.34C194.767 196.696 187.485 182.226 176.561 170.363C168.108 160.977 157.184 152.503 155.623 139.467ZM166.807 273.219C157.574 281.823 146.13 287.559 133.516 289.254C117.78 291.47 103.475 286.386 89.17 280.52C88.3897 280.259 87.9996 279.346 88.6498 278.694C96.1925 271.133 97.3629 260.704 100.354 250.927C81.2372 251.84 63.0308 245.973 47.2952 235.284C44.4342 233.328 41.7032 231.373 39.1023 229.287C38.5821 229.026 38.062 228.765 37.5418 228.505C37.2817 228.374 37.2817 228.114 37.4117 227.983C25.4475 218.727 14.2636 208.82 0.608763 202.171C-0.301558 201.65 -0.171517 200.086 0.868851 199.825C1.38903 199.694 1.77916 199.564 2.29934 199.564C2.42939 199.434 2.55945 199.173 2.81954 199.303C2.94958 199.303 3.07963 199.303 3.20968 199.434C23.3668 194.871 38.4521 179.619 56.5285 170.232C32.0799 159.152 35.0709 125.518 26.2278 104.269C25.9677 103.486 26.748 102.574 27.3982 102.574C39.6225 103.747 50.8065 99.8363 62.2505 96.1861C70.7035 93.5789 79.2865 91.4931 88.1296 90.5806C105.946 88.4947 124.022 90.5806 140.148 98.6631C138.848 84.3231 143.139 69.201 150.292 57.2076C155.884 47.8214 163.426 40.3908 171.619 33.3512C182.023 24.6168 193.467 15.4914 195.027 1.02108C195.157 -0.152192 196.718 -0.412894 197.108 0.760374C198.929 5.84453 201.53 10.4072 204.781 14.4485C216.225 29.0492 234.691 38.305 245.615 53.5574C256.019 68.0277 261.481 85.6267 260.44 103.356C275.006 95.0129 291.651 92.1449 308.297 92.7967C317.27 93.1878 326.114 94.6218 334.957 96.7076C346.661 99.4453 358.755 102.444 369.939 96.5773C370.719 96.1862 371.89 96.7076 371.89 97.6201C369.679 122.65 366.558 148.853 350.042 168.798C355.764 172.057 361.226 175.708 366.558 179.749C376.051 186.788 385.284 193.958 397.119 196.566C398.029 196.826 398.289 198 397.639 198.652C390.096 206.604 384.894 216.511 377.482 224.594C371.24 231.373 363.957 237.239 356.024 242.062C339.768 251.97 320.912 257.315 301.795 256.533C304.786 264.224 306.217 272.437 310.248 279.477C310.508 279.998 310.248 280.911 309.598 281.041C284.759 286.125 248.086 293.426 229.49 270.742C228.449 273.741 227.019 276.609 225.198 279.216C225.198 279.346 225.198 279.477 225.068 279.607C224.938 279.998 224.678 280.128 224.418 280.128C224.158 280.52 223.898 280.911 223.507 281.302C217.785 288.472 208.682 291.079 202.44 297.728C202.18 297.988 201.53 298.119 201.139 297.858C192.817 292.122 182.153 290.949 174.48 284.17C170.969 281.041 168.628 277.13 166.937 272.828C167.067 273.089 166.937 273.089 166.807 273.219ZM182.413 26.7026C162.256 47.6911 141.839 77.0228 156.534 106.485C157.574 105.703 158.614 104.92 159.655 104.138C160.565 103.617 161.215 104.66 160.955 105.442C160.045 107.658 160.175 109.874 161.085 112.09C161.996 108.701 163.556 105.442 165.507 102.574C157.964 90.3198 161.215 73.503 165.117 60.597C168.888 48.4733 174.61 36.7406 182.413 26.7026ZM164.597 253.013C155.103 260.965 145.48 268.917 134.036 273.741C122.462 278.694 109.717 280.259 97.1028 279.607C120.511 286.777 145.87 282.605 164.857 266.44C164.987 266.31 165.117 266.31 165.117 266.31C164.857 265.137 164.727 264.094 164.597 262.921C164.337 259.661 164.337 256.402 164.597 253.013ZM148.341 193.958C148.341 193.958 148.341 193.828 148.211 193.828C146.91 191.091 146.13 188.092 145.61 185.094C145.48 185.094 145.35 185.094 145.22 184.963C129.484 172.057 125.193 148.592 132.865 130.211C121.161 152.503 123.892 181.965 148.341 193.958ZM148.731 144.16C148.731 144.029 148.601 143.899 148.601 143.769C147.17 137.381 140.928 134.122 136.897 129.298C139.108 138.815 141.839 147.81 146.39 156.675C146.78 152.373 147.561 148.201 148.731 144.16ZM155.233 131.645C155.363 131.254 155.884 131.384 155.884 131.775C156.014 135.556 157.574 138.685 159.785 141.422C159.265 137.902 159.915 134.774 161.215 131.645C157.574 124.866 156.274 117.044 157.834 109.483C155.103 116.653 154.193 123.823 154.973 131.645C155.103 131.645 155.233 131.645 155.233 131.645ZM131.565 273.35C144.179 268.396 154.713 259.531 164.857 250.927C165.637 245.061 167.198 239.194 169.798 233.85C148.861 254.186 122.072 270.091 94.2418 278.564C106.856 278.825 119.601 278.043 131.565 273.35ZM150.682 115.089C146.78 119.912 143.789 125.387 141.448 131.515C143.139 133.079 144.96 134.643 146.52 136.208C145.61 129.038 147.17 121.607 150.682 115.089ZM149.121 150.287C147.951 176.62 159.395 199.825 183.843 212.079C187.875 212.47 191.776 212.6 195.678 212.47C169.668 196.566 146.52 167.625 153.283 135.556C151.332 140.379 150.031 145.203 149.121 150.287ZM149.641 141.031C150.682 137.902 151.982 134.904 153.673 132.036C152.502 124.475 153.413 116.653 156.404 109.744C156.274 109.744 156.274 109.614 156.144 109.483C155.884 109.744 155.623 109.874 155.493 110.135C149.641 118.478 147.301 127.473 147.951 137.902V138.033C148.601 138.945 149.251 139.858 149.641 141.031ZM149.511 191.873C154.843 204.518 166.677 209.602 179.292 211.427C161.345 201.389 148.731 182.356 147.561 161.889C147.561 162.15 147.561 162.28 147.561 162.541C146.78 172.188 145.74 182.878 149.511 191.873ZM152.112 200.086C151.072 198.912 150.162 197.609 149.381 196.175C144.309 194.219 140.148 191.612 136.637 188.353C136.377 188.614 136.117 188.874 135.596 188.744C117.26 184.312 99.5737 180.661 80.587 181.183C62.2505 181.704 44.5643 185.615 27.1381 191.482C23.3668 193.828 19.4654 196.044 15.434 197.869C59.7796 188.483 108.027 190.569 152.112 200.086ZM155.103 107.788C141.839 81.8462 154.973 54.0789 173.57 34.2637C168.888 38.1746 164.337 42.0855 160.435 46.5178C152.372 55.6432 146.26 66.7241 143.529 78.7175C140.538 91.8842 142.619 104.399 146.52 117.044C148.991 113.655 151.982 110.526 155.103 107.788Z" fill="#FCEEAA"/>
</svg>
