<svg width="706" height="529" viewBox="0 0 706 529" fill="none" xmlns="http://www.w3.org/2000/svg">
<path d="M365.1 144.912C365.1 145.604 365.1 146.066 365.33 146.759C365.561 146.759 365.792 146.759 366.023 146.99C366.484 147.683 366.945 148.145 367.407 148.838C366.484 147.452 365.792 146.297 365.1 144.912ZM363.485 146.528V146.759C359.102 159.463 356.795 171.936 357.487 185.102C357.718 185.333 357.949 185.333 357.949 185.564C359.333 183.485 360.486 181.175 361.178 178.634C361.64 177.249 363.485 176.787 364.177 178.172C364.408 178.403 364.638 178.865 364.638 179.096C364.177 168.471 363.946 157.384 363.485 146.528ZM364.177 236.61C364.408 219.287 363.946 201.963 363.024 184.64C363.024 184.178 363.254 183.947 363.485 183.947C363.254 183.716 363.024 183.485 363.024 183.254C362.793 183.716 362.562 184.178 362.332 184.871C362.562 184.871 362.793 185.102 362.562 185.564C358.179 199.192 356.795 213.05 359.102 227.371C359.102 227.602 359.102 227.602 359.102 227.833C360.947 230.374 362.793 233.607 364.177 236.61ZM329.113 155.999C325.653 166.393 323.115 176.094 321.962 186.719C321.962 186.488 322.193 186.488 322.193 186.257C322.885 184.64 324.961 184.64 325.653 186.257C327.268 190.414 329.344 194.11 331.881 197.344C332.343 183.254 331.42 169.857 329.113 155.999ZM320.808 197.113C312.504 220.904 308.121 244.001 309.736 269.64C309.736 269.871 309.736 269.871 309.736 270.102C313.888 272.181 318.04 274.26 321.5 276.339C323.115 249.314 322.885 222.29 322.193 195.034C322.193 194.803 321.962 194.341 321.962 194.11C321.731 194.341 321.731 194.572 321.5 194.803C321.27 195.265 321.27 195.496 321.039 195.958C321.039 196.189 321.039 196.189 321.039 196.42C321.27 196.651 321.27 196.882 320.808 197.113ZM326.114 157.615C314.811 174.015 306.967 192.031 303.046 211.433C309.043 205.197 315.041 198.961 318.963 192.262C318.963 180.02 321.731 167.085 327.268 156.229C327.037 156.922 326.576 157.384 326.114 157.615ZM297.509 105.183C290.127 128.743 284.13 156.922 295.664 179.789C296.587 178.634 297.279 177.711 298.201 176.556C301.892 172.398 306.275 168.933 310.889 165.469C304.199 126.202 309.274 84.3951 326.576 48.3623C314.119 65.9167 303.968 84.3951 297.509 105.183ZM288.051 203.811C289.205 197.806 295.664 189.952 297.971 186.488C304.66 177.249 312.734 169.395 321.039 161.773C321.27 161.311 321.5 161.08 321.731 160.618C318.963 162.466 316.425 164.314 313.888 166.393C313.888 167.547 312.734 168.24 311.812 168.009C300.739 177.018 292.204 187.874 286.667 202.194C287.359 202.425 287.821 203.118 288.051 203.811ZM305.583 180.713C302.584 184.409 287.821 201.501 290.819 207.045C291.05 207.276 291.05 207.507 291.05 207.969C293.588 210.971 296.356 213.974 298.663 216.515C299.124 216.053 299.355 215.591 299.816 215.36C302.354 198.499 308.121 182.792 316.887 168.471C312.965 172.398 309.274 176.325 305.583 180.713ZM326.345 385.361C306.967 405.918 294.28 432.711 295.664 461.584C296.356 476.366 300.97 491.842 312.273 501.774C316.887 505.932 322.192 508.703 327.729 511.013C292.434 480.755 304.199 421.624 326.345 385.361ZM303.507 216.515C294.972 229.681 290.358 244.232 294.28 261.094C298.201 263.866 302.584 266.406 306.967 268.485C304.891 246.08 307.89 222.289 316.656 201.501C312.734 206.814 308.121 211.664 303.507 216.515ZM294.28 227.833C288.974 235.455 285.283 243.77 285.975 254.165C287.59 255.781 289.205 257.398 291.05 258.784C288.974 247.928 290.358 237.534 294.28 227.833ZM287.359 231.298C289.666 227.14 292.896 222.982 296.125 219.056C290.127 212.126 282.284 204.273 281.131 195.496C279.747 207.969 281.823 219.98 287.359 231.298ZM165.096 491.38C164.635 492.073 164.174 492.766 163.712 493.459C217.231 474.287 263.368 446.339 304.891 407.766C309.274 400.143 314.58 392.983 320.808 386.746C259.677 407.997 209.157 444.26 165.096 491.38ZM173.17 476.597C200.16 425.32 250.219 383.513 308.582 377.045C307.429 376.814 306.275 376.583 305.122 376.352C266.828 378.2 226.458 384.206 199.699 414.233C187.011 428.554 182.398 445.184 177.553 463.2C176.169 467.82 174.785 472.209 173.17 476.597ZM293.588 475.904C258.985 504.777 208.926 514.247 167.173 495.999C166.019 495.999 164.635 495.768 163.482 495.768C184.474 504.315 206.158 511.937 229.457 510.32C253.449 508.472 275.594 498.309 293.126 482.141C293.818 481.448 294.741 481.448 295.433 481.91C294.741 479.831 294.049 477.983 293.588 475.904ZM138.798 168.471C177.092 166.855 218.154 175.401 251.834 193.879C250.45 189.49 249.296 184.871 248.604 180.02C248.143 180.251 247.451 180.251 246.989 179.789C215.155 163.39 178.938 161.08 144.104 167.086C142.259 167.778 140.413 168.24 138.798 168.471ZM170.633 482.141C170.402 482.834 169.941 483.527 169.71 484.22C170.402 483.527 170.864 482.834 171.556 482.141C211.695 435.021 267.751 400.605 326.114 381.896C326.806 381.203 327.729 380.51 328.421 379.817C323.346 379.355 318.502 378.893 313.657 377.969C313.657 378.662 313.196 379.355 312.273 379.586C247.451 384.899 205.236 431.094 171.556 482.141C171.094 482.372 170.864 482.372 170.633 482.141ZM87.5865 415.157C115.038 432.942 145.488 442.181 178.938 442.643C179.168 442.181 179.168 441.719 179.399 441.488C180.783 437.331 182.398 433.404 184.474 429.709C151.255 431.325 118.268 426.937 87.5865 415.157ZM219.077 289.504C178.015 276.801 128.879 289.735 92.6616 310.754C91.0468 311.678 89.2013 312.833 87.5865 313.757C127.956 293.2 179.63 288.811 222.306 302.208C222.768 302.439 223.229 302.67 223.46 303.132C222.075 298.513 221.153 293.893 220.691 289.042C220.461 289.735 219.769 289.735 219.077 289.504ZM426.693 171.012C428.307 184.871 428.769 198.961 427.615 213.05C427.615 213.281 427.385 213.512 427.385 213.743C434.305 227.602 438.227 243.078 438.457 259.246C445.609 228.064 440.764 198.961 426.693 171.012ZM121.728 292.507C99.8128 282.113 80.2046 266.406 65.6715 246.542C71.4386 269.178 80.666 289.735 103.042 300.36C103.734 299.898 104.657 299.667 105.349 299.205C110.886 296.896 116.191 294.586 121.728 292.507ZM93.1229 181.406C85.049 183.716 77.2057 185.564 68.9011 186.488C124.265 190.414 181.244 211.434 226.228 243.54C228.996 235.455 232.918 227.602 237.762 220.442C238.685 219.056 240.53 219.518 240.992 220.904C242.606 225.523 245.605 228.988 248.835 232.222C249.527 228.988 250.45 225.985 251.834 222.982C251.603 222.982 251.372 222.751 251.142 222.52C206.158 186.719 148.256 184.871 93.1229 181.406ZM46.0633 383.513C56.6748 392.059 67.2863 400.605 78.3591 408.689C112.731 422.086 148.718 428.785 185.858 426.244C189.088 420.7 192.779 415.388 197.162 410.537C147.564 418.16 90.124 407.996 46.0633 383.513ZM56.4441 334.545C112.5 313.526 182.398 309.83 238.454 330.619C231.534 322.996 226.689 313.757 223.69 304.056C223.69 303.825 223.69 303.825 223.46 303.594C223.46 303.825 223.46 303.825 223.69 304.056C223.921 305.211 222.998 306.597 221.383 306.366C171.556 294.586 125.649 299.205 79.0512 320.456C78.5898 320.686 78.3591 320.456 78.1284 320.225C70.9772 324.844 63.826 329.926 56.4441 334.545ZM52.2918 189.26C90.8161 247.466 156.1 264.097 219.307 283.268C220.23 283.499 220.461 284.423 220.23 285.116C220.23 285.116 220.23 285.116 220.461 285.116C220.23 280.496 220.23 275.877 220.461 271.257C220.23 271.257 219.999 271.257 219.769 271.257C159.56 254.165 101.428 225.754 52.0611 186.95C51.8304 186.95 51.5997 186.95 51.3691 186.95C51.8304 187.874 52.0611 188.567 52.2918 189.26ZM58.2896 211.203C78.3591 245.849 111.347 268.023 148.487 283.037C148.949 283.268 149.41 283.73 149.41 284.192C165.096 280.727 181.244 279.341 196.931 280.727C143.181 266.637 85.741 244.001 54.8293 196.651C55.9827 201.501 57.1362 206.352 58.2896 211.203ZM62.9033 186.95C60.3657 187.181 57.8282 187.181 55.06 187.181C106.272 222.751 160.713 250.469 220.461 268.716C220.461 268.716 220.691 268.716 220.691 268.947C221.383 261.556 222.998 254.165 225.305 247.235C175.016 214.898 122.651 196.189 63.5953 188.105C63.134 187.643 62.9033 187.412 62.9033 186.95ZM145.258 285.347C111.578 271.257 78.5898 250.7 59.9044 219.056C61.5192 226.678 62.9033 234.3 64.7488 241.692C81.358 262.711 101.197 279.341 125.649 291.121C131.878 288.811 138.568 286.964 145.258 285.347ZM109.271 386.746C79.2819 383.282 49.0622 377.045 21.1494 365.496C27.1472 369.423 32.9143 373.581 38.4507 377.738C63.826 389.518 89.432 399.681 117.114 404.763C145.027 409.844 172.478 409.382 200.391 406.842C201.545 405.687 202.929 404.532 204.082 403.377C209.619 398.526 215.386 394.369 221.614 390.904C184.474 392.521 146.18 391.135 109.271 386.746ZM600.859 290.197C606.626 292.507 612.163 295.279 617.469 298.282C639.153 269.64 647.458 235.224 651.841 200.346C644.459 234.993 623.005 266.406 595.092 288.118C597.168 288.811 599.014 289.504 600.859 290.197ZM560.951 279.572C571.332 280.958 581.482 283.268 591.401 286.733C625.081 261.556 643.767 225.985 652.071 185.564C635.001 226.678 601.551 261.325 560.951 279.572ZM533.961 452.806C568.794 452.113 602.705 442.643 632.002 423.934C646.535 414.695 659.684 403.146 670.757 389.98C677.446 381.896 683.214 373.119 689.442 364.573C646.766 408.92 585.173 433.173 524.041 434.328C527.04 438.948 529.578 443.567 531.885 448.418C532.807 450.035 533.499 451.421 533.961 452.806ZM682.752 368.268C630.848 402.915 562.104 414.926 501.434 407.304C501.896 407.766 502.588 408.227 503.049 408.92C510.431 415.85 516.89 423.472 522.427 432.018C522.657 431.325 523.119 430.863 524.041 430.863C583.558 429.478 637.999 406.38 682.752 368.268ZM341.57 516.557C328.421 502.698 324.038 482.603 323.115 463.893C321.731 435.945 325.653 406.38 335.803 380.279C334.88 380.279 333.957 380.279 333.035 380.279C307.429 416.774 294.28 478.214 330.959 512.168C331.189 512.399 331.189 512.63 331.189 512.861C334.88 514.016 338.34 515.402 341.57 516.557ZM341.109 207.276C342.262 204.966 343.877 202.887 345.492 200.808C344.569 185.102 339.955 171.705 331.42 158.77C334.88 172.167 336.034 186.257 334.419 199.884V200.115C336.495 202.656 338.802 204.966 341.109 207.276ZM337.648 286.502C338.571 271.719 339.494 256.936 337.879 242.154C336.264 227.833 330.266 215.822 325.422 203.118C327.037 228.064 326.345 253.241 324.73 277.955C329.344 280.496 333.496 283.268 337.648 286.502ZM331.189 149.993C333.496 153.92 336.264 157.615 339.494 160.849C332.112 116.732 332.573 70.3054 341.109 26.1884C340.878 26.4194 340.647 26.8813 340.647 27.1123C316.887 68.9195 306.506 115.577 313.657 163.39C319.194 159.463 324.73 155.306 328.421 149.762C329.113 149.069 330.728 148.838 331.189 149.993ZM335.572 462.739C333.496 435.945 333.727 407.073 339.263 380.741C339.263 380.51 339.263 380.51 339.494 380.51C339.263 380.51 338.802 380.51 338.571 380.51C325.883 422.779 312.965 482.141 345.953 518.635C347.568 519.328 349.183 520.021 350.567 520.714C352.412 521.638 353.796 522.1 354.95 522.562C342.262 505.239 337.187 483.758 335.572 462.739ZM495.436 291.814C494.975 294.355 494.283 297.127 493.36 299.667C493.591 299.667 493.591 299.436 493.822 299.436C550.339 289.504 618.391 306.135 666.143 337.548C667.066 338.01 667.758 338.241 668.68 338.703C651.148 327.847 635.001 313.526 617.007 303.594C616.084 304.287 614.931 303.363 614.931 302.439C577.56 282.575 536.729 277.955 496.359 292.045C496.129 292.045 495.667 292.045 495.436 291.814ZM491.746 241.692C494.975 250.931 496.821 260.401 497.282 270.102C529.578 268.254 560.028 257.167 587.249 239.382C600.398 230.836 612.624 220.904 624.389 210.279C634.078 201.27 645.612 191.8 651.148 179.558C607.549 218.825 547.802 231.529 491.746 241.692ZM496.129 287.195C515.045 279.341 535.576 277.031 555.876 278.879C555.876 278.648 556.106 278.417 556.568 278.186C596.015 259.477 626.465 230.143 646.535 192.262C642.152 198.268 636.385 203.349 631.079 208.662C619.083 220.211 606.165 231.067 592.324 240.306C564.18 259.477 531.423 272.412 497.051 273.336C497.282 277.955 496.821 282.575 496.129 287.195ZM480.673 325.999C534.191 318.377 594.4 314.912 647.458 330.85C627.157 321.148 606.165 313.064 584.019 308.214C553.8 301.515 524.964 301.977 494.514 302.67C493.822 302.67 493.36 302.208 493.13 301.515C490.131 310.292 485.978 318.608 480.673 325.999ZM425.078 209.586C425.77 196.189 425.77 182.792 424.847 169.164C421.617 180.02 420.233 190.876 420.695 202.194C422.31 204.504 423.694 207.045 425.078 209.586ZM421.387 372.888C422.771 373.119 424.155 373.119 425.539 373.35C424.386 372.888 423.232 372.426 422.079 372.195C422.079 372.426 421.848 372.657 421.617 372.888H421.387ZM410.545 465.972C409.853 469.899 409.161 473.826 407.776 477.752C427.385 499.926 459.219 505.47 487.824 504.315C500.281 503.853 512.738 502.005 525.195 499.695C484.364 503.622 440.303 494.845 410.545 465.972ZM402.701 186.257C409.853 199.885 419.08 210.741 423.002 225.985C426.462 239.844 426.693 254.396 423.463 268.254C427.615 266.868 431.537 265.483 434.766 263.404C435.228 233.838 423.694 206.583 402.701 186.257ZM396.473 274.722C403.624 273.105 412.159 271.488 420.233 269.178C423.463 253.01 423.463 237.072 418.619 221.135C415.389 211.202 409.622 203.118 404.778 194.11C412.621 220.673 408.699 249.776 396.473 274.722ZM475.367 437.562C451.376 421.855 425.77 412.154 397.857 406.149C401.087 411.923 403.624 417.698 405.931 423.934C406.162 423.934 406.392 423.934 406.623 424.165C453.221 445.877 500.281 468.282 544.111 495.538V495.307C521.734 474.98 500.742 454.192 475.367 437.562ZM408.93 187.412C412.39 190.876 415.389 194.803 418.388 198.73C418.157 189.259 419.772 179.789 423.232 170.781C418.619 176.325 410.545 179.558 408.93 187.412ZM375.942 283.499C378.479 281.42 381.478 279.803 384.708 278.186C387.015 277.262 389.783 276.339 393.013 275.415C407.546 247.004 408.699 216.746 400.856 186.257C400.856 186.488 400.856 186.488 400.856 186.719C400.395 203.118 397.857 219.287 393.243 234.762C388.63 250.007 376.173 267.561 375.942 283.499ZM426.231 316.991C412.39 335.469 389.552 347.48 370.175 359.029C369.021 359.722 367.868 359.029 367.637 357.874C367.176 362.956 366.023 368.037 364.408 373.119C388.168 370.578 411.006 361.339 426.923 342.861C443.532 323.458 444.917 299.667 445.378 275.646C441.918 290.659 435.459 304.98 426.231 316.991ZM384.708 211.433C384.939 196.189 372.02 194.11 364.638 185.333C364.869 186.488 364.869 187.643 365.1 188.798C366.945 206.583 367.637 224.368 366.945 242.154C367.637 244.002 368.329 245.849 368.791 247.697C368.791 240.768 371.098 234.531 374.558 228.295C373.866 213.743 374.096 201.501 365.561 188.798V188.567C365.561 188.105 366.253 187.874 366.484 188.105C375.481 199.654 376.173 211.202 376.634 224.599C379.172 220.442 382.17 216.284 385.169 212.126C384.708 212.126 384.708 211.895 384.708 211.433ZM375.25 156.229C372.712 154.613 370.636 152.765 368.791 150.686C368.329 149.993 367.868 149.531 367.407 148.838C367.868 149.531 368.329 149.993 368.791 150.686C374.096 157.153 378.941 163.39 382.401 171.474C386.784 181.637 388.86 192.493 390.706 203.349C394.858 196.42 397.857 189.029 397.626 180.713C397.626 180.251 397.857 179.789 398.088 179.558C392.782 169.164 385.169 163.159 375.25 156.229ZM396.934 492.073C403.163 452.344 393.013 412.847 369.714 380.279C369.483 380.048 369.483 380.048 369.714 379.817C368.099 379.586 366.484 379.586 364.869 379.355C377.326 397.602 384.247 419.314 385.861 441.488C386.784 453.037 386.092 464.817 384.016 476.366C381.94 489.07 377.095 500.619 374.096 513.092C376.634 511.706 378.941 510.32 381.248 508.703C387.476 504.084 392.782 498.54 396.934 492.073ZM371.098 380.048C394.627 410.075 404.777 447.956 400.625 485.374C402.009 482.603 403.163 479.831 404.085 477.059C403.624 476.366 404.085 475.673 404.778 475.442C405.47 473.133 405.931 470.823 406.392 468.513C412.621 435.945 396.011 405.687 376.173 381.203C375.942 380.972 375.711 380.51 375.711 380.279C374.096 380.279 372.712 380.048 371.098 380.048ZM381.017 175.863C377.326 165.7 370.636 158.308 365.33 149.3C366.023 160.618 366.715 171.705 367.176 183.023C371.328 187.412 377.557 189.952 381.94 194.572C385.631 198.499 387.245 203.118 387.938 207.969C388.168 207.507 388.63 207.045 388.86 206.583C388.63 206.352 388.168 206.121 388.168 205.659C386.092 195.496 384.477 185.564 381.017 175.863ZM368.56 356.026C386.092 343.784 407.315 334.314 421.156 317.684C435.689 300.36 443.071 278.186 447.223 256.243C438.919 272.874 427.615 287.656 414.236 300.591C407.546 306.828 400.625 312.602 393.013 317.915C388.86 320.917 384.477 323.689 380.094 326.23C377.787 327.616 375.711 328.771 373.404 329.926C372.02 331.312 370.406 331.773 368.791 331.542C368.791 331.773 368.791 332.004 368.56 332.235C368.329 332.697 367.868 333.159 367.637 333.621C367.407 333.852 367.176 334.083 366.945 334.314C368.329 341.706 368.791 349.559 368.099 356.95C368.099 356.719 368.329 356.257 368.56 356.026ZM365.792 329.464C368.791 326.923 374.096 325.537 376.634 324.151C386.553 318.608 395.781 312.14 404.547 304.749C418.849 292.738 430.614 278.417 440.995 262.942C440.072 263.635 439.38 264.328 438.457 264.79C438.457 266.175 437.304 266.637 436.381 266.406C417.004 290.428 377.787 289.504 362.793 319.07C363.946 322.765 365.1 325.999 365.792 329.464ZM370.867 256.243C372.943 266.406 372.943 277.031 371.098 287.426C371.559 286.964 372.251 286.271 372.943 285.809C372.943 285.578 372.712 285.578 372.712 285.347C372.02 270.333 382.401 256.243 387.245 242.616C392.551 227.371 396.011 211.895 398.088 195.958C390.244 216.284 368.791 231.298 371.328 255.319C371.559 256.012 371.328 256.243 370.867 256.243ZM372.251 513.785C373.174 503.16 377.787 493.459 380.094 483.065C382.632 471.285 383.785 459.043 383.324 447.032C382.401 422.779 375.019 400.374 361.64 380.51C360.947 380.741 360.025 380.741 359.563 380.279C359.102 380.279 358.871 380.279 358.41 380.279C367.176 425.32 376.403 475.211 362.793 520.021C363.485 519.559 364.408 518.866 365.33 518.173C367.407 516.788 369.713 515.402 372.251 513.785ZM384.708 282.575C372.02 288.811 365.1 300.36 361.87 313.526C375.481 289.504 407.546 285.116 429.461 269.178C425.078 270.795 420.695 272.181 416.773 273.105C405.7 276.108 394.627 277.724 384.708 282.575ZM355.642 305.673C357.487 271.719 357.257 237.996 336.726 209.124C336.495 208.893 336.495 208.431 336.956 208.2C332.112 203.349 327.729 198.268 324.499 192.031C324.73 193.186 324.73 194.341 324.73 195.496C331.651 209.817 338.34 223.444 340.647 239.613C342.954 256.012 341.801 272.412 340.647 288.811C345.261 292.738 349.644 297.127 353.335 302.208C354.027 303.132 354.95 304.518 355.642 305.673ZM357.026 522.793C353.104 475.442 350.797 427.861 347.568 380.51C345.722 380.51 343.877 380.51 342.031 380.51C342.262 380.741 342.262 381.203 342.262 381.434C337.187 405.225 337.187 431.094 337.879 455.578C338.802 479.831 343.646 502.236 356.795 522.793C356.795 522.793 356.795 522.793 357.026 522.793ZM348.721 156.922C349.183 131.746 350.567 106.8 350.105 81.6233C349.644 60.8352 348.26 40.0471 346.876 19.49C346.645 18.5661 346.184 17.6422 345.953 16.7182C345.492 17.6422 345.261 18.7971 344.8 19.721C336.956 68.4575 336.034 115.577 342.493 164.545C343.185 165.238 343.877 166.162 344.8 166.855V166.624C344.8 162.697 345.722 160.618 348.491 157.846C348.491 157.153 348.721 156.922 348.721 156.922ZM345.261 167.316C348.952 171.474 352.412 175.401 354.95 180.251C354.95 170.088 356.564 159.925 360.255 150.455C359.563 151.148 358.871 152.072 357.949 152.765C355.872 154.613 353.566 156.229 351.489 158.077C351.489 159.001 350.797 159.232 350.105 159.463C348.26 161.311 346.876 163.621 346.645 166.393C346.645 167.086 345.953 167.316 345.261 167.316ZM355.411 228.295C351.72 222.982 347.106 218.132 342.493 213.743C362.332 241.23 360.717 277.955 358.41 310.523C358.41 310.754 358.641 310.754 358.641 310.754C360.255 304.287 363.024 298.512 366.484 293.431V293.2C371.79 270.795 368.56 247.466 355.411 228.295ZM348.029 197.806C350.105 195.265 352.412 192.955 354.488 190.414C353.104 178.404 344.338 171.474 336.726 163.159C343.415 173.553 347.568 185.333 348.029 197.806ZM362.101 369.423C370.406 338.472 358.871 304.518 331.881 286.04C327.729 283.268 320.578 279.803 312.504 275.646C341.339 297.358 359.102 334.314 362.101 369.423ZM358.41 190.645C354.488 199.654 351.259 207.507 351.028 217.208C352.874 219.287 354.719 221.366 356.334 223.675C354.95 211.433 356.103 199.654 360.255 188.105C359.563 189.029 358.871 189.721 358.41 190.645ZM354.719 195.034C352.643 197.344 350.336 199.654 348.26 201.963V202.194C348.26 203.118 347.568 203.58 346.876 203.349C345.492 204.966 343.877 206.814 342.493 208.662C344.8 210.741 346.876 213.05 349.183 215.129C349.644 208.2 351.259 201.039 354.719 195.034ZM351.951 153.689C356.334 149.531 360.486 146.066 364.177 140.754C364.869 139.599 366.484 139.83 366.945 140.985C368.791 146.99 372.943 150.686 377.787 153.92C376.403 111.882 363.946 71.2293 351.028 31.2699C355.18 71.6912 355.872 113.498 351.951 153.689ZM362.332 31.2699C359.333 27.8052 356.564 24.3405 354.258 20.6449C359.794 31.9628 368.329 41.895 374.327 52.751C380.786 64.5309 386.323 77.0037 390.706 89.9386C399.702 116.963 405.239 147.683 402.009 176.094C402.009 177.018 401.317 177.48 400.625 177.48C401.087 178.634 401.779 179.789 402.24 181.175C403.624 182.33 404.777 183.485 406.162 184.64C406.392 183.254 406.854 182.099 408.007 180.713C409.391 178.634 411.237 177.249 413.082 175.863C416.312 173.091 423.232 167.316 422.31 161.773C422.079 160.156 423.463 159.232 424.847 159.694C431.537 162.697 437.304 166.855 442.61 171.936C443.994 116.963 396.242 79.5445 366.715 37.7373C366.484 37.2754 366.945 36.8134 367.407 36.8134C365.792 35.1965 364.177 33.5797 362.562 31.7319C362.562 31.7319 362.332 31.7319 362.332 31.5009C362.332 31.2699 362.332 31.2699 362.332 31.2699ZM365.33 43.2808C358.871 32.6558 351.028 23.1856 348.721 10.9438C348.491 10.7128 348.491 10.2508 348.26 10.0199C348.721 13.7155 349.183 17.1802 349.644 20.8759C357.949 42.1259 364.638 63.8379 370.406 85.7809C376.403 108.648 381.709 132.208 380.786 155.999C380.786 156.23 380.786 156.229 380.786 156.229C384.016 158.308 387.245 160.387 390.244 162.928C393.935 166.162 396.704 170.088 399.01 174.015C398.318 143.988 395.781 115.346 385.861 86.7049C380.325 71.6912 373.635 56.9086 365.33 43.2808ZM353.335 380.51C353.104 380.51 352.643 380.741 352.412 380.51C351.72 380.51 351.028 380.51 350.336 380.51C353.566 427.63 358.871 475.442 358.41 522.562C359.102 522.331 359.794 522.1 360.486 521.638C371.098 474.057 364.177 428.554 355.411 381.203C354.488 381.434 353.566 381.203 353.335 380.51ZM258.754 210.048C256.678 206.352 254.833 202.656 253.449 198.73C213.309 180.02 174.324 170.319 129.571 171.012C129.34 171.012 129.11 171.012 129.11 170.781C119.421 173.322 109.732 176.556 100.043 179.327C153.562 180.02 210.08 185.333 253.449 219.518C254.833 216.515 256.678 213.281 258.754 210.048ZM257.832 325.537C257.601 322.765 257.37 319.994 257.14 316.991C256.909 316.991 256.678 316.76 256.447 316.529C239.608 292.045 234.071 262.018 237.301 232.915C225.997 266.868 234.071 298.282 257.832 325.537ZM226.689 388.363C244.221 379.586 263.829 375.198 283.438 373.812C237.07 373.119 190.702 372.195 144.335 370.347C100.043 368.73 54.368 368.268 10.9993 356.95C10.0766 357.181 9.15382 357.412 8.23108 357.643C8.69245 357.874 9.15382 358.105 9.61519 358.336C43.7565 371.733 78.8205 380.279 115.499 383.975C152.178 387.67 188.857 386.285 225.766 387.67C226.228 388.132 226.459 388.363 226.689 388.363ZM258.985 280.727C258.293 281.189 257.601 281.189 257.14 280.265C248.604 263.866 242.145 246.08 240.761 227.602C240.53 227.371 240.3 226.909 240.069 226.678C237.301 256.936 240.3 286.964 256.909 312.833C256.909 304.749 257.601 296.665 258.062 289.042C258.524 286.271 258.754 283.499 258.985 280.727ZM528.655 497.154C485.978 493.459 443.302 472.902 411.006 446.339C411.467 451.421 411.467 456.733 411.006 462.046C444.686 492.073 485.286 499.002 528.655 497.154ZM538.113 475.673C521.734 419.084 474.444 379.817 414.928 377.045C414.236 377.045 413.774 376.814 413.313 376.352H413.082C412.159 376.121 410.775 376.121 409.853 375.659C403.855 377.738 397.396 379.124 390.936 379.817C422.31 383.975 451.145 391.828 477.212 411.692C504.664 432.48 525.425 460.198 542.265 489.763C541.573 484.912 539.497 480.293 538.113 475.673ZM542.035 496.23C497.051 473.364 452.991 449.342 407.315 428.092C408.93 432.942 410.083 438.024 410.775 443.336C411.237 443.105 411.929 443.105 412.39 443.567C450.684 474.98 493.591 489.301 542.035 496.23ZM537.882 485.605C520.581 459.736 501.896 434.559 477.212 415.619C448.608 393.676 417.004 386.515 381.94 382.358C386.784 388.594 391.398 395.062 395.55 401.991H395.781C450.222 408.227 500.742 445.877 537.882 485.605ZM464.063 240.075C469.831 233.607 474.444 226.678 473.983 217.208C473.983 215.591 476.059 214.667 477.212 215.822C482.749 222.751 487.132 230.374 490.361 238.458C518.736 231.991 547.571 227.602 575.253 218.132C601.782 209.124 626.465 196.189 648.842 179.327C647.919 179.558 647.227 179.789 646.535 180.02C590.248 210.51 526.81 211.895 463.833 213.281C465.678 222.289 465.678 231.298 464.063 240.075ZM562.566 171.243C527.502 167.085 492.207 171.705 461.064 188.798C460.834 190.876 460.603 192.955 460.372 194.803C515.045 168.009 579.175 198.961 636.154 181.868C611.932 184.409 586.557 174.015 562.566 171.243ZM571.793 346.094C527.04 346.325 482.518 350.483 438.227 357.412C433.844 362.263 428.769 366.42 423.232 369.654C466.832 385.361 513.661 382.589 559.105 377.969C606.165 373.35 651.61 366.42 697.285 353.947C676.985 352.562 656.685 349.328 636.154 347.942C614.7 346.556 593.247 345.863 571.793 346.094ZM457.143 186.488C460.142 148.607 446.07 110.958 419.772 83.2402C404.547 67.0716 385.4 54.5988 369.714 39.1232C389.091 60.1423 407.776 82.7782 424.847 105.876C440.303 126.433 448.377 149.993 446.07 175.863C450.222 180.713 453.683 186.026 456.681 191.8C456.681 191.107 456.912 190.414 456.912 189.49C456.451 189.028 456.22 188.567 456.22 188.105C456.22 187.412 456.681 186.719 457.143 186.488ZM554.03 189.952C522.196 187.412 491.515 186.257 461.064 198.037C460.372 198.268 459.911 198.037 459.68 197.806C461.295 201.732 462.449 206.121 463.602 210.279C495.206 208.662 526.81 208.662 558.183 204.735C580.79 201.963 602.474 196.189 623.466 188.105C600.629 193.186 577.099 191.569 554.03 189.952ZM460.603 382.127C473.752 387.208 485.978 394.369 497.051 403.608C497.282 403.377 497.743 403.377 497.974 403.377C533.73 408.458 570.178 406.38 605.242 397.371C637.307 389.056 665.682 374.505 693.825 357.412C652.071 373.35 605.473 376.814 561.412 381.203C527.502 384.668 493.591 387.208 460.603 382.127ZM477.443 330.157C470.061 339.165 460.372 347.018 448.838 352.331C488.747 346.094 528.886 342.86 569.255 342.398C605.704 341.937 644.92 342.168 681.599 348.173C650.687 335.238 619.083 327.154 585.403 324.844C549.186 322.303 513.43 325.999 477.443 330.157ZM455.989 269.409C455.528 269.871 454.836 269.871 454.375 269.64C455.989 278.417 457.143 287.195 457.604 295.972L457.835 295.741C465.678 285.809 472.599 276.339 475.136 263.635C477.443 252.086 476.982 240.306 476.059 228.526C474.906 243.771 467.293 259.015 455.989 269.409ZM451.837 257.398C452.529 260.632 453.452 264.097 453.913 267.33C462.91 257.629 468.677 247.235 472.137 234.993C466.832 243.078 458.527 249.545 451.837 257.167C452.068 257.398 452.068 257.398 451.837 257.398ZM456.451 247.697C460.142 215.822 443.994 190.183 426.923 164.776C426.462 164.545 426.231 164.314 425.77 164.083C425.77 164.545 425.539 165.007 425.539 165.469C425.539 165.469 425.539 165.469 425.77 165.7C444.455 191.8 449.53 226.447 442.148 257.398C444.225 254.858 445.609 251.855 445.839 248.39C446.07 246.311 448.838 245.849 449.53 247.928C449.992 249.776 450.453 251.624 450.914 253.472C452.529 251.393 454.375 249.545 456.451 247.697ZM459.68 210.51C458.527 205.197 456.451 200.115 453.683 194.572C448.146 183.716 440.995 174.015 431.306 167.316C448.146 189.721 462.449 216.053 459.45 244.694C460.142 244.002 460.834 243.54 461.295 242.847C461.757 232.222 461.987 222.751 460.142 213.281C458.988 213.05 458.758 211.433 459.68 210.51ZM457.604 300.591C457.604 308.676 456.912 316.529 455.067 324.382C488.055 302.67 488.977 261.094 478.135 225.985C480.442 239.151 480.673 253.241 477.904 266.406C474.906 279.572 467.062 289.966 458.527 300.129C458.296 300.36 458.066 300.591 457.604 300.591ZM480.211 226.216C494.744 262.249 490.361 308.445 453.913 329.002C451.606 336.624 448.146 344.015 443.533 350.945C443.302 351.407 443.071 351.638 442.84 352.1C464.755 341.244 482.057 324.151 490.361 300.591C493.36 291.814 494.744 282.575 494.744 273.567C493.591 273.105 493.591 271.257 494.744 270.564C493.591 254.857 488.516 239.382 480.211 226.216ZM450.222 327.616C456.681 305.904 453.913 282.575 448.838 260.401C448.608 262.48 448.146 264.328 447.915 266.406C450.453 294.124 448.838 323.458 429.922 345.401C413.774 364.111 389.322 374.967 364.869 376.583C364.408 376.583 364.177 376.583 363.946 376.352C363.946 376.583 363.946 376.583 363.716 376.814H363.946C389.552 378.893 417.004 374.274 434.766 355.564C434.766 355.102 435.228 354.409 435.92 354.409C438.688 351.407 440.995 348.173 443.071 344.477C446.07 339.165 448.377 333.852 450.222 328.309C449.992 327.847 450.222 327.847 450.222 327.616ZM282.976 256.936C281.361 255.55 279.977 253.934 278.824 252.317C285.744 277.031 310.428 292.738 325.653 312.602C340.186 331.773 350.105 353.716 355.642 376.814C356.795 376.814 357.949 376.814 359.102 376.814C358.641 353.947 352.181 331.773 340.186 312.14C328.19 292.276 311.812 278.879 292.896 265.944H292.665C288.743 264.328 285.283 260.863 282.976 256.936ZM290.127 370.809C283.899 367.806 278.362 364.111 273.518 359.26C273.287 359.26 273.057 359.26 272.826 359.26C231.072 351.176 189.088 346.094 146.642 345.401C105.58 344.708 65.2101 348.866 24.379 353.485C23.9176 353.485 23.4562 353.255 23.4562 352.793C20.688 353.947 18.1505 354.871 15.3823 355.795C59.6737 363.88 104.196 365.496 149.179 367.113C196.239 368.73 243.068 370.116 290.127 370.809ZM276.056 247.928C274.21 244.232 273.749 240.537 274.672 236.379C274.441 236.379 274.441 236.379 274.441 236.379C265.675 297.589 301.431 347.48 352.412 377.045C345.492 349.328 332.573 323.689 313.196 302.67C298.201 286.04 278.824 271.026 276.056 247.928ZM295.895 484.913C279.516 500.157 259.216 510.32 236.839 513.323C208.926 517.25 183.551 508.241 158.176 497.847C156.792 497.385 156.1 495.768 157.253 494.614C170.633 481.217 172.709 462.739 178.015 445.415C144.104 447.032 111.808 436.638 83.8955 417.698C78.8205 414.233 73.9761 410.768 69.3624 407.073C68.4397 406.611 67.517 406.149 66.5942 405.687C66.1329 405.456 66.1329 404.994 66.3635 404.763C45.1406 388.363 25.3017 370.809 1.07986 359.029C-0.534929 358.105 -0.304243 355.333 1.54123 354.871C2.46397 354.64 3.15602 354.409 4.07876 354.409C4.30944 354.178 4.54013 353.716 5.0015 353.947C5.23218 353.947 5.46286 353.947 5.69355 354.178C41.4496 346.094 68.209 319.07 100.274 302.439C56.9055 282.806 62.2112 223.213 46.5247 185.564C46.0633 184.178 47.4474 182.561 48.6008 182.561C70.2852 184.64 90.124 177.711 110.424 171.243C125.419 166.624 140.644 162.928 156.33 161.311C187.934 157.615 219.999 161.311 248.604 175.632C246.297 150.224 253.91 123.43 266.598 102.18C276.517 85.55 289.897 72.3842 304.43 59.9113C322.885 44.4357 343.185 28.2672 345.953 2.62851C346.184 0.549701 348.952 0.0877501 349.644 2.16656C352.874 11.1747 357.487 19.259 363.254 26.4193C383.555 52.289 416.312 68.6885 435.689 95.713C454.144 121.352 463.833 152.534 461.987 183.947C487.824 169.164 517.351 164.083 546.879 165.238C562.796 165.931 578.483 168.471 594.169 172.167C614.931 177.018 636.385 182.33 656.224 171.936C657.608 171.243 659.684 172.167 659.684 173.784C655.762 218.132 650.226 264.559 620.929 299.898C631.079 305.673 640.768 312.14 650.226 319.301C667.066 331.773 683.444 344.477 704.437 349.097C706.051 349.559 706.513 351.638 705.359 352.793C691.98 366.882 682.752 384.437 669.603 398.757C658.53 410.768 645.612 421.162 631.54 429.709C602.705 447.263 569.255 456.733 535.345 455.347C540.651 468.975 543.188 483.527 550.339 495.999C550.801 496.923 550.339 498.54 549.186 498.771C505.125 507.779 440.072 520.714 407.084 480.524C405.239 485.836 402.701 490.918 399.472 495.538C399.472 495.768 399.472 496 399.241 496.23C399.01 496.923 398.549 497.154 398.088 497.154C397.626 497.847 397.165 498.54 396.473 499.233C386.323 511.937 370.175 516.557 359.102 528.337C358.641 528.799 357.487 529.029 356.795 528.568C342.031 518.404 323.115 516.326 309.505 504.315C303.276 498.771 299.124 491.842 296.125 484.22C296.125 484.682 296.125 484.682 295.895 484.913ZM323.577 48.1314C287.821 85.319 251.603 137.289 277.67 189.49C279.516 188.105 281.361 186.719 283.207 185.333C284.822 184.409 285.975 186.257 285.514 187.643C283.899 191.569 284.13 195.496 285.744 199.423C287.359 193.417 290.127 187.643 293.588 182.561C280.208 160.849 285.975 131.053 292.896 108.186C299.355 86.7049 309.736 65.9168 323.577 48.1314ZM291.973 449.111C275.133 463.201 258.062 477.29 237.762 485.836C217.231 494.614 194.624 497.385 172.248 496.23C213.771 508.934 258.754 501.543 292.434 472.902C292.665 472.671 292.896 472.671 292.896 472.671C292.434 470.592 292.204 468.744 291.973 466.665C291.511 460.891 291.511 455.116 291.973 449.111ZM263.137 344.477C263.137 344.477 263.137 344.246 262.907 344.246C260.6 339.396 259.216 334.083 258.293 328.771C258.062 328.771 257.832 328.771 257.601 328.54C229.688 305.673 222.076 264.097 235.686 231.529C214.924 271.026 219.769 323.227 263.137 344.477ZM263.599 256.243C263.599 256.012 263.368 255.781 263.368 255.55C260.83 244.232 249.758 238.458 242.606 229.912C246.528 246.773 251.372 262.711 259.446 278.417C260.138 270.795 261.523 263.404 263.599 256.243ZM275.364 234.069C275.594 233.376 276.517 233.607 276.517 234.3C276.748 240.999 279.516 246.542 283.438 251.393C282.515 245.156 283.668 239.613 285.975 234.069C279.516 222.059 277.209 208.2 279.977 194.803C275.133 207.507 273.518 220.211 274.902 234.069C274.902 234.069 275.133 234.069 275.364 234.069ZM233.379 485.143C255.755 476.366 274.441 460.66 292.434 445.415C293.818 435.021 296.587 424.627 301.2 415.157C264.06 451.19 216.539 479.369 167.173 494.383C189.549 494.845 212.156 493.459 233.379 485.143ZM267.059 204.735C260.138 213.281 254.833 222.982 250.68 233.838C253.679 236.61 256.909 239.382 259.677 242.154C258.293 229.45 261.061 216.284 267.059 204.735ZM264.291 267.099C262.215 313.757 282.515 354.871 325.883 376.583C333.035 377.276 339.955 377.507 346.876 377.276C300.739 349.097 259.677 297.82 271.673 240.999C268.443 249.545 266.136 258.091 264.291 267.099ZM265.444 250.7C267.29 245.156 269.596 239.844 272.595 234.762C270.519 221.366 272.134 207.507 277.44 195.265C277.209 195.265 277.209 195.034 276.978 194.803C276.517 195.265 276.056 195.496 275.825 195.958C265.444 210.741 261.292 226.678 262.445 245.156V245.387C263.368 247.004 264.521 248.621 265.444 250.7ZM264.983 341.013C274.441 363.418 295.433 372.426 317.81 375.659C285.975 357.874 263.599 324.151 261.523 287.887C261.523 288.349 261.523 288.58 261.523 289.042C260.138 305.904 258.524 325.075 264.983 341.013ZM269.827 355.333C267.982 353.255 266.367 350.945 264.983 348.404C255.986 344.939 248.604 340.32 242.376 334.545C241.914 335.007 241.453 335.469 240.53 335.238C208.004 327.385 176.631 320.917 142.951 321.841C110.424 322.765 79.0512 329.695 48.1395 340.089C41.4496 344.246 34.5291 348.173 27.3779 351.407C106.041 334.776 191.625 338.472 269.827 355.333ZM275.133 191.8C251.603 145.835 274.902 96.6369 307.89 61.5281C299.585 68.4575 291.511 75.3869 284.591 83.2402C270.289 99.4087 259.446 119.042 254.602 140.292C249.296 163.621 252.987 185.795 259.908 208.2C264.06 202.194 269.366 196.651 275.133 191.8Z" fill="#FCEEAA"/>
</svg>
