<svg width="40" height="40" viewBox="0 0 40 40" fill="none" xmlns="http://www.w3.org/2000/svg">
<rect width="39.375" height="39.375" rx="19.6875" fill="#71164E"/>
<path fill-rule="evenodd" clip-rule="evenodd" d="M29.0037 13.2395C29.2548 13.8737 29.4133 14.5872 29.4662 15.6311C29.5173 16.6406 29.519 16.9828 29.531 19.4308L29.5322 19.6875V19.6878C29.5322 22.3566 29.5322 22.7001 29.4794 23.7439C29.4265 24.7878 29.2548 25.5145 29.0169 26.1355C28.7659 26.7829 28.4223 27.3379 27.8806 27.8796C27.3389 28.4346 26.7839 28.7649 26.1365 29.0159C25.5022 29.267 24.7887 29.4255 23.7449 29.4784L23.7398 29.4786C22.6999 29.5181 22.3531 29.5312 19.6885 29.5312H19.6882C17.0194 29.5312 16.6759 29.5312 15.6321 29.4784C14.5882 29.4255 13.8615 29.2538 13.2405 29.0159C12.593 28.7649 12.0381 28.4214 11.4964 27.8796C10.9414 27.3379 10.6111 26.7829 10.36 26.1355C10.109 25.5013 9.95043 24.7878 9.89758 23.7439L9.89738 23.7388C9.8579 22.6989 9.84473 22.3521 9.84473 19.6875C9.84473 17.0227 9.85777 16.6793 9.89681 15.6514L9.89758 15.6311C9.95043 14.5872 10.1222 13.8605 10.36 13.2395C10.6111 12.5921 10.9546 12.0371 11.4964 11.4954C12.0381 10.9404 12.593 10.6101 13.2405 10.3591C13.8747 10.108 14.5882 9.94945 15.6321 9.8966L15.6524 9.89583C16.6803 9.85679 17.0237 9.84375 19.6885 9.84375C22.3401 9.84375 22.6834 9.85679 23.7113 9.89583L23.7317 9.8966C24.7755 9.94945 25.5022 10.1212 26.1233 10.3591C26.7707 10.6101 27.3256 10.9536 27.8674 11.4954C28.4223 12.0371 28.7527 12.5921 29.0037 13.2395ZM14.6411 19.6875C14.6411 22.4755 16.9005 24.7349 19.6885 24.7349C22.4764 24.7349 24.7359 22.4755 24.7359 19.6875C24.7359 16.8995 22.4764 14.6401 19.6885 14.6401C16.9005 14.6401 14.6411 16.8995 14.6411 19.6875ZM23.7581 14.4419C23.7581 15.0893 24.2866 15.6179 24.9341 15.6179C25.5947 15.6179 26.1233 15.0893 26.11 14.4419C26.11 13.7945 25.5815 13.2659 24.9341 13.2659C24.2866 13.2659 23.7581 13.7945 23.7581 14.4419ZM22.796 18.6515C23.3682 20.3684 22.4403 22.2242 20.7234 22.7964C19.0065 23.3686 17.1507 22.4407 16.5785 20.7238C16.0063 19.0069 16.9342 17.1512 18.6511 16.5789C20.368 16.0067 22.2237 16.9346 22.796 18.6515Z" fill="white"/>
</svg>
