<svg width="29" height="29" viewBox="0 0 29 29" fill="none" xmlns="http://www.w3.org/2000/svg">
<rect width="28.125" height="28.125" rx="14.0625" fill="#71164E"/>
<path fill-rule="evenodd" clip-rule="evenodd" d="M20.7162 9.45679C20.8956 9.90981 21.0088 10.4195 21.0466 11.1651C21.0831 11.8862 21.0843 12.1306 21.0928 13.8791L21.0937 14.0625V14.0626C21.0937 15.969 21.0937 16.2144 21.056 16.9599C21.0182 17.7055 20.8956 18.2246 20.7257 18.6682C20.5463 19.1307 20.301 19.5271 19.914 19.914C19.5271 20.3104 19.1307 20.5463 18.6682 20.7257C18.2152 20.905 17.7055 21.0182 16.9599 21.056L16.9563 21.0561C16.2135 21.0843 15.9659 21.0937 14.0625 21.0937H14.0624C12.156 21.0937 11.9106 21.0937 11.1651 21.056C10.4195 21.0182 9.90038 20.8956 9.45679 20.7257C8.99434 20.5463 8.59794 20.301 8.21099 19.914C7.8146 19.5271 7.57865 19.1307 7.39933 18.6682C7.22001 18.2152 7.10675 17.7055 7.069 16.9599L7.06886 16.9563C7.04066 16.2135 7.03125 15.9658 7.03125 14.0625C7.03125 12.1591 7.04057 11.9138 7.06845 11.1796L7.069 11.1651C7.10675 10.4195 7.22945 9.90038 7.39933 9.45679C7.57865 8.99434 7.82404 8.59794 8.21099 8.21099C8.59794 7.8146 8.99434 7.57865 9.45679 7.39933C9.90981 7.22001 10.4195 7.10675 11.1651 7.069L11.1796 7.06845C11.9138 7.04057 12.1591 7.03125 14.0625 7.03125C15.9565 7.03125 16.2017 7.04056 16.9359 7.06845L16.9505 7.069C17.6961 7.10675 18.2152 7.22945 18.6588 7.39933C19.1212 7.57865 19.5176 7.82404 19.9046 8.21099C20.301 8.59794 20.5369 8.99434 20.7162 9.45679ZM10.4572 14.0625C10.4572 16.0539 12.0711 17.6678 14.0625 17.6678C16.0539 17.6678 17.6678 16.0539 17.6678 14.0625C17.6678 12.0711 16.0539 10.4572 14.0625 10.4572C12.0711 10.4572 10.4572 12.0711 10.4572 14.0625ZM16.9694 10.3156C16.9694 10.7781 17.3469 11.1556 17.8094 11.1556C18.2812 11.1556 18.6588 10.7781 18.6493 10.3156C18.6493 9.85319 18.2718 9.47567 17.8094 9.47567C17.3469 9.47567 16.9694 9.85319 16.9694 10.3156ZM16.2835 13.3225C16.6922 14.5489 16.0294 15.8744 14.803 16.2832C13.5767 16.6919 12.2511 16.0291 11.8424 14.8027C11.4336 13.5764 12.0965 12.2508 13.3228 11.8421C14.5492 11.4334 15.8747 12.0962 16.2835 13.3225Z" fill="white"/>
</svg>
