<svg width="704" height="1072" viewBox="0 0 704 1072" fill="none" xmlns="http://www.w3.org/2000/svg">
<g clip-path="url(#clip0)">
<path d="M498.98 288.676C521.342 288.676 542.356 280.055 557.983 264.159C590.582 231.56 590.582 178.484 557.983 145.884C542.087 129.989 521.072 121.367 498.98 121.367C476.618 121.367 455.603 129.989 439.977 145.884C424.082 161.78 415.46 182.795 415.46 204.887C415.46 227.249 424.082 248.264 439.977 263.89C455.603 280.055 476.618 288.676 498.98 288.676ZM449.946 156.122C463.147 142.921 480.659 135.647 498.98 135.647C517.57 135.647 535.082 142.921 548.014 156.122C575.225 183.334 575.225 227.249 548.014 254.46C534.813 267.662 517.3 274.936 498.98 274.936C480.39 274.936 462.878 267.662 449.946 254.46C436.744 241.259 429.47 223.746 429.47 205.426C429.47 186.567 436.744 169.054 449.946 156.122Z" fill="#FCEEAA"/>
<path d="M267.553 164.744C274.558 166.63 281.832 167.707 289.376 167.707C327.094 167.707 360.233 142.113 370.201 105.741C382.056 61.287 355.653 15.2164 311.199 3.36198C304.194 1.47605 296.92 0.398376 289.645 0.398376C251.927 0.398376 218.788 25.9932 208.82 62.3647C203.162 83.9182 206.125 106.549 217.172 125.678C227.948 145.076 245.999 159.086 267.553 164.744ZM222.021 66.1365C230.104 35.6922 257.854 14.6776 289.106 14.6776C295.034 14.6776 301.23 15.4858 307.157 17.1023C344.068 27.0708 366.16 65.3283 356.192 102.239C348.109 132.683 320.359 153.698 289.106 153.698C283.179 153.698 276.983 152.889 271.055 151.273C253.004 146.423 238.186 134.838 228.757 118.943C219.596 102.777 217.172 83.9182 222.021 66.1365Z" fill="#FCEEAA"/>
<path d="M46.8951 167.707C54.1694 167.707 61.4437 166.63 68.718 164.744C90.2715 159.086 108.323 145.076 119.369 125.678C130.415 106.28 133.379 83.9182 127.721 62.3647C118.022 25.9932 84.8831 0.398376 46.8951 0.398376C39.6208 0.398376 32.3465 1.47605 25.3416 3.36198C3.78812 9.01977 -14.2629 23.0295 -25.3091 42.4277C-36.3552 61.8258 -39.3188 84.1876 -33.6611 105.741C-23.962 142.113 9.1765 167.707 46.8951 167.707ZM-13.1852 49.1632C-4.02499 32.998 11.0625 21.6825 29.1135 16.8329C35.0407 15.2164 40.9679 14.4081 47.1646 14.4081C78.4171 14.4081 106.167 35.6922 114.25 65.8671C119.099 83.9182 116.675 102.508 107.245 118.673C98.0847 134.838 82.9972 146.154 64.9462 151.003C59.019 152.62 53.0917 153.428 46.8951 153.428C15.6425 153.428 -12.1076 132.144 -20.1901 101.969C-25.0397 84.1876 -22.6149 65.3283 -13.1852 49.1632Z" fill="#FCEEAA"/>
<path d="M68.4554 907.531C61.4505 905.645 54.1762 904.567 46.6325 904.567C8.91394 904.567 -24.2245 930.162 -34.193 966.534C-46.0474 1010.99 -19.6444 1057.06 24.8096 1068.91C31.8145 1070.8 39.0888 1071.88 46.6325 1071.88C84.3511 1071.88 117.49 1046.28 127.458 1009.91C133.116 988.357 130.152 965.725 119.106 946.597C108.06 927.199 90.0089 913.458 68.4554 907.531ZM113.987 1006.41C105.905 1036.85 78.1545 1057.87 46.9019 1057.87C40.9747 1057.87 34.7781 1057.06 28.8509 1055.44C-8.05943 1045.47 -30.1517 1007.22 -20.1833 970.306C-12.1007 939.861 15.6494 918.847 46.9019 918.847C52.8291 918.847 59.0258 919.655 64.953 921.271C83.004 926.121 97.822 937.706 107.252 953.602C116.412 969.767 118.837 988.357 113.987 1006.41Z" fill="#FCEEAA"/>
<path d="M289.377 903.501C282.103 903.501 274.829 904.579 267.824 906.465C223.37 918.319 196.697 964.39 208.821 1008.84C218.52 1045.22 251.928 1070.81 289.647 1070.81C296.921 1070.81 304.195 1069.73 311.2 1067.85C355.654 1055.99 382.327 1009.92 370.203 965.468C360.234 929.096 327.096 903.501 289.377 903.501ZM307.159 1054.38C301.232 1055.99 295.304 1056.8 289.108 1056.8C257.855 1056.8 230.105 1035.52 222.023 1005.34C212.054 968.431 234.146 930.174 271.057 920.205C276.984 918.589 282.911 917.78 289.108 917.78C320.36 917.78 348.11 939.065 356.193 969.24C366.162 1006.15 344.339 1044.41 307.159 1054.38Z" fill="#FCEEAA"/>
<path d="M498.983 783.599C476.621 783.599 455.607 792.22 439.98 808.116C407.381 840.715 407.381 893.791 439.98 926.39C455.876 942.286 476.891 950.907 498.983 950.907C521.345 950.907 542.359 942.286 557.986 926.39C590.585 893.791 590.585 840.715 557.986 808.116C542.359 792.22 521.345 783.599 498.983 783.599ZM548.287 916.422C535.085 929.623 517.573 936.898 499.252 936.898C480.663 936.898 463.15 929.623 450.218 916.422C423.007 889.211 423.007 845.295 450.218 818.084C463.42 804.883 480.932 797.608 499.252 797.608C517.842 797.608 535.355 804.883 548.287 818.084C575.229 845.026 575.229 889.211 548.287 916.422Z" fill="#FCEEAA"/>
<path d="M692.696 615.482C681.65 596.083 663.599 582.343 642.046 576.416C635.041 574.53 627.766 573.452 620.223 573.452C582.504 573.452 549.366 599.047 539.397 635.418C533.739 656.972 536.703 679.603 547.749 698.732C558.795 718.13 576.846 731.87 598.4 737.798C605.405 739.684 612.679 740.761 619.953 740.761C657.672 740.761 690.81 715.166 700.779 678.795C706.706 657.511 703.743 634.88 692.696 615.482ZM687.308 675.292C679.225 705.737 651.475 726.751 620.223 726.751C614.295 726.751 608.099 725.943 602.172 724.327C584.121 719.477 569.302 707.892 559.873 691.996C550.713 675.831 548.018 657.241 552.868 639.19C560.951 608.746 588.701 587.731 619.953 587.731C625.88 587.731 632.077 588.54 638.004 590.156C656.055 595.006 670.873 606.591 680.303 622.486C689.733 638.651 692.157 657.511 687.308 675.292Z" fill="#FCEEAA"/>
<path d="M547.749 373.274C536.703 392.672 533.739 415.034 539.397 436.587C549.096 472.959 582.235 498.554 620.223 498.554C627.497 498.554 634.771 497.476 641.776 495.59C686.23 483.736 712.903 437.665 700.779 393.211C691.08 356.839 657.941 331.245 619.953 331.245C612.679 331.245 605.405 332.322 598.4 334.208C577.116 340.135 559.065 353.876 547.749 373.274ZM602.172 347.949C608.099 346.332 614.026 345.524 620.223 345.524C651.475 345.524 679.225 366.808 687.308 396.983C697.276 433.893 675.184 472.151 638.274 482.119C632.346 483.736 626.419 484.544 620.223 484.544C588.97 484.544 561.22 463.26 553.137 433.085C548.288 415.034 550.713 396.444 560.142 380.279C569.302 364.114 584.39 352.798 602.172 347.949Z" fill="#FCEEAA"/>
<path d="M258.924 120.021C262.157 116.518 265.39 113.285 268.623 109.783C271.587 112.746 274.281 115.71 277.244 118.943C283.441 125.948 293.679 115.71 287.482 108.705C284.788 105.472 281.825 102.508 278.861 99.5447C290.177 87.9597 301.492 76.3747 313.077 65.0591C312.808 70.9863 312 76.9135 312 83.1102C312 92.5398 326.279 92.5398 326.548 83.1102C326.548 76.3747 327.626 69.9087 327.626 63.1732C327.895 55.8989 327.895 46.7386 321.429 42.1585C316.041 38.3867 307.419 38.9255 301.223 39.1949C295.026 39.4643 288.83 40.2726 282.633 40.2726C273.203 40.2726 273.203 54.8212 282.633 54.8212C287.752 54.8212 292.601 54.0129 297.72 53.7435C299.876 53.7435 302.031 53.4741 304.186 53.4741C292.332 65.3285 280.478 77.183 268.893 89.0374C265.66 85.8044 262.426 82.3019 259.193 78.7995C252.997 71.7946 242.759 82.0325 248.956 89.0374C252.189 92.5398 255.422 96.0423 258.924 99.2753C255.691 102.778 252.458 106.011 248.956 109.513C242.22 116.518 252.458 127.025 258.924 120.021Z" fill="#FCEEAA"/>
<path d="M459.646 185.22C459.646 185.22 459.915 185.22 459.646 185.22C459.915 185.22 460.185 185.22 460.185 185.489C460.454 185.489 460.454 185.758 460.723 185.758C460.993 186.028 461.262 186.567 461.262 186.836C461.262 187.106 461.532 187.644 461.801 187.914C461.801 188.183 462.07 188.722 462.07 188.991C463.687 194.38 463.687 197.882 463.956 203.81C464.226 214.317 462.609 224.555 462.609 235.062C462.609 244.492 477.158 244.492 477.158 235.062C477.158 223.208 479.044 211.623 478.236 199.768C477.966 196.266 477.697 192.494 476.888 188.991C477.966 187.644 479.313 186.567 480.391 185.489C480.66 185.22 480.93 184.95 481.199 184.681C481.199 184.681 481.199 184.681 481.469 184.681C482.277 184.142 482.816 183.873 483.624 183.334H483.893C483.893 183.334 483.893 183.334 484.163 183.603C484.432 184.142 484.702 184.681 484.971 185.22C485.24 185.489 485.241 185.758 485.51 186.028C485.51 186.028 485.51 186.028 485.51 186.297C486.857 189.53 487.396 193.033 488.204 196.266C488.474 197.074 488.473 197.882 488.743 198.691V198.96C488.743 199.229 488.743 199.768 489.012 200.038C489.282 202.193 489.551 204.079 489.551 206.234C489.821 210.006 490.09 213.778 490.09 217.55C490.359 223.477 490.09 229.404 490.09 235.331C490.09 244.761 504.639 244.761 504.639 235.331C504.639 219.705 505.177 203.54 501.406 188.183C501.136 187.375 500.867 186.567 500.867 185.758C500.867 185.758 500.867 185.758 501.136 185.758C501.675 185.489 502.214 185.22 502.753 184.95H503.022C503.83 184.681 504.908 184.411 505.716 184.142C505.986 184.142 506.525 183.873 506.794 183.873C507.333 183.873 507.602 183.873 508.141 183.873C508.41 183.873 508.68 183.873 508.949 184.142C509.219 184.142 509.219 184.411 509.488 184.411C509.758 184.411 509.758 184.681 510.027 184.681C510.027 184.95 510.296 184.95 510.296 185.22C510.566 185.489 510.566 185.758 510.835 186.028C510.835 186.297 511.374 187.106 511.374 187.644C511.913 189.261 512.182 190.877 512.452 192.494C512.452 192.763 512.721 193.841 512.721 194.11C512.721 194.649 512.991 195.458 512.991 195.996C513.26 197.882 513.26 199.768 513.529 201.924C514.068 213.239 512.721 239.373 531.311 235.062C535.352 234.254 538.855 231.29 542.088 228.865C546.937 224.824 551.248 220.244 555.289 215.664C561.486 208.659 551.248 198.421 545.051 205.426C541.01 210.006 536.699 214.856 531.85 218.628L531.58 218.897C531.311 219.166 531.042 219.436 530.772 219.436C530.503 219.705 530.233 219.975 529.695 219.975C529.695 219.436 529.425 218.897 529.425 218.358C529.425 218.089 529.156 217.28 529.156 217.011C529.156 216.472 529.156 215.664 528.886 215.125C527.539 201.115 530.503 181.448 517.84 171.749C510.835 166.36 501.406 169.324 494.131 172.826C492.515 171.479 490.898 170.132 488.743 169.324C482.007 166.899 475.541 170.402 470.422 174.982C467.728 172.288 464.226 170.671 459.646 170.671C450.216 170.402 450.216 184.95 459.646 185.22Z" fill="#FCEEAA"/>
<path d="M573.883 426.349H587.623C588.701 426.349 589.778 426.08 590.587 425.81C597.053 428.504 604.596 419.883 598.4 413.956C595.436 410.992 594.089 408.298 594.089 405.065C594.089 401.563 595.706 398.06 598.13 394.558C600.286 391.594 603.519 388.63 606.482 386.744C608.099 385.667 610.254 384.589 611.601 384.05C612.679 383.781 613.487 383.511 614.565 383.242C614.834 383.242 615.373 382.973 615.643 382.973C615.643 382.973 615.912 382.973 616.451 382.973C625.342 382.434 633.155 385.667 637.465 392.672C641.776 399.677 640.429 409.106 636.118 416.65C632.885 422.577 638.543 427.966 643.662 427.427C643.931 427.427 644.47 427.427 644.74 427.427H661.983C671.412 427.427 671.412 412.878 661.983 412.878H653.361C655.786 403.718 654.978 394.019 650.398 385.128C643.662 373.004 629.652 367.346 616.181 368.155C595.436 369.502 576.038 392.133 581.157 411.531H574.152C564.723 411.8 564.723 426.349 573.883 426.349Z" fill="#FCEEAA"/>
<path d="M656.32 437.126H578.458C569.028 437.126 569.028 451.674 578.458 451.674H656.32C665.75 451.405 665.75 437.126 656.32 437.126Z" fill="#FCEEAA"/>
<path d="M659.281 667.748C656.587 670.712 654.162 673.676 651.199 676.639C653.893 668.287 657.934 660.205 660.359 651.853C661.975 645.926 661.975 639.19 657.126 634.61C651.737 629.491 643.116 629.222 635.842 629.222C635.033 627.336 633.686 625.719 632.609 623.833C624.795 614.134 612.133 617.637 602.703 623.025C602.434 623.025 602.434 622.756 602.164 622.756C596.237 618.984 589.771 620.6 584.113 623.833C583.305 623.294 582.227 622.756 581.15 622.217C577.647 620.6 573.336 621.139 571.181 624.911C569.295 628.144 570.103 633.263 573.875 634.879C574.145 634.879 575.492 635.957 575.492 635.688C575.761 635.957 576.3 636.496 576.569 636.765C576.031 636.227 577.378 637.843 577.378 638.112C578.186 639.729 577.647 638.651 578.186 640.268C579.802 645.117 580.072 649.159 580.341 654.278C580.611 659.397 580.341 664.515 580.072 669.634C579.802 672.059 579.533 674.484 579.264 676.909C579.264 677.178 579.264 677.717 579.264 677.986C579.264 677.986 579.264 678.256 579.264 678.525C578.994 679.603 578.994 680.411 578.725 681.489C578.186 685.261 579.802 689.302 583.844 690.38C587.346 691.457 592.196 689.302 592.735 685.261C594.62 674.215 595.698 662.899 594.89 651.583C594.62 646.734 593.812 641.076 592.196 635.957C592.465 635.957 592.465 635.688 592.465 635.688C592.465 635.688 592.465 635.688 592.735 635.688C593.004 635.688 593.543 635.418 593.812 635.418C594.082 635.418 594.351 635.418 594.621 635.418C594.621 635.418 594.62 635.418 594.89 635.418C594.89 635.418 594.89 635.418 595.159 635.418L595.429 635.688C595.698 635.957 595.968 636.496 596.237 636.765C596.506 637.304 596.776 637.843 597.315 638.651C597.315 638.921 597.584 638.921 597.584 639.19V639.46C598.662 642.423 599.47 645.656 600.009 648.889C600.009 649.428 600.278 650.236 600.278 650.775C600.278 651.045 600.278 651.583 600.548 651.853V652.122C600.817 654.008 600.817 655.894 601.087 657.78C601.356 661.282 601.625 665.054 601.625 668.557C601.895 673.676 601.625 679.064 602.164 684.183C602.434 688.224 605.128 691.457 609.439 691.457C613.21 691.457 616.982 688.224 616.713 684.183C615.635 669.634 616.443 655.355 613.21 640.807C612.672 638.651 612.133 636.496 611.324 634.341C612.402 633.802 613.48 633.263 614.288 632.724C615.366 632.185 616.713 631.916 618.06 631.646C616.713 631.916 620.215 631.916 619.676 631.646C619.946 631.646 619.946 631.646 620.215 631.916C620.215 631.916 620.215 631.916 620.485 631.916C620.754 631.916 621.024 632.185 621.293 632.455C621.562 632.724 621.832 632.994 622.101 633.263C622.371 633.802 622.64 634.071 622.91 634.61C623.179 635.149 623.448 635.418 623.448 635.957C623.179 635.418 623.718 636.765 623.987 637.035C625.873 642.693 626.143 646.195 626.412 651.853C626.681 658.049 626.143 664.515 626.143 670.712C626.143 677.448 626.681 686.608 630.723 692.535C629.376 696.307 628.028 699.809 626.143 703.312C624.526 706.814 625.065 711.125 628.837 713.28C632.07 715.166 636.919 714.358 638.805 710.586C640.691 706.545 642.577 702.503 643.924 698.462C648.235 697.654 652.007 694.69 655.24 692.266C660.628 688.224 665.208 682.836 669.519 677.717C675.446 670.981 665.208 660.744 659.281 667.748ZM646.888 645.387C646.888 644.04 646.618 646.734 646.618 647.273C646.349 648.62 645.81 649.967 645.271 651.314C643.924 655.355 642.308 659.127 640.961 663.168C640.961 660.744 641.23 658.588 640.961 656.164C640.961 652.122 640.691 647.812 640.152 643.77C641.499 643.77 642.577 644.04 643.385 644.04C644.463 644.309 645.271 644.579 646.08 644.848C646.349 644.848 646.349 645.117 646.618 645.117C646.888 645.117 646.888 645.387 646.888 645.387Z" fill="#FCEEAA"/>
<path d="M531.579 877.895C531.04 880.859 530.232 882.206 528.076 883.553C526.46 884.63 524.304 884.361 522.688 883.822C521.61 883.283 521.071 882.745 520.263 881.667C519.994 881.128 519.724 880.589 519.185 880.32C519.455 880.859 519.185 880.05 518.916 879.512C518.916 879.242 518.647 877.895 518.647 877.895C518.647 877.087 518.647 876.009 518.647 875.201C518.647 873.046 518.916 870.621 519.185 868.465C519.994 860.922 520.533 853.378 517.569 846.104C514.605 839.099 510.025 833.171 504.098 828.591C492.782 820.239 477.695 820.509 469.612 832.902C465.302 839.368 464.224 847.99 465.571 855.533C466.379 859.305 467.727 863.346 469.074 867.118C463.685 866.041 458.027 867.388 453.986 873.584C448.867 881.128 450.214 892.983 454.256 900.526C460.183 911.303 472.576 912.381 482.814 906.723C497.901 898.101 490.088 879.512 484.969 867.388C483.892 864.693 482.545 861.73 481.467 858.497C480.928 856.88 480.389 855.533 480.12 853.917C479.85 853.108 479.85 852.57 479.581 851.761V851.492C479.581 851.492 479.581 851.223 479.581 850.953C479.312 847.99 480.12 845.295 481.467 842.062C481.467 841.793 482.545 840.176 483.083 839.099C482.814 839.638 483.892 838.29 483.892 838.29L484.161 838.021C484.161 838.021 484.43 838.021 484.43 837.752C484.7 837.482 485.239 837.213 485.508 837.213C484.969 837.482 486.316 836.943 486.586 836.943H486.855C487.394 836.943 487.933 836.943 488.741 836.943C488.741 836.943 488.741 836.943 489.011 836.943H489.28C489.819 836.943 490.627 837.213 491.166 837.482C491.166 837.482 492.244 837.752 492.244 838.021C492.782 838.29 493.052 838.56 493.591 838.829C498.171 841.254 501.404 845.026 504.098 850.145C504.367 850.953 504.906 852.031 505.445 853.647C505.984 855.533 505.984 855.264 505.984 856.88C505.984 860.652 505.715 864.424 505.176 868.196C504.367 875.74 504.098 883.283 508.678 889.48C519.185 904.029 542.355 899.449 546.127 881.667C547.474 872.776 533.465 868.735 531.579 877.895ZM477.156 891.635C477.156 892.174 476.887 892.713 476.617 893.252C476.887 892.444 476.079 893.521 476.079 893.521C475.54 894.06 475.54 894.06 475.809 893.521C475.27 893.791 474.462 894.33 473.923 894.599C473.654 894.599 473.384 894.868 473.115 894.868C473.115 894.868 472.845 894.868 472.576 895.138C472.307 895.138 470.69 895.677 470.421 895.677C470.151 895.677 469.882 895.677 469.882 895.677C469.882 895.677 469.343 895.677 468.804 895.407C468.535 895.407 468.265 895.138 467.996 895.138C467.727 894.868 467.727 894.868 467.457 894.599C467.188 894.33 467.188 894.33 466.918 894.06C466.379 893.521 466.11 892.713 465.841 892.174C465.841 892.174 465.841 892.174 465.841 891.905C465.841 891.905 465.841 891.905 465.841 891.635C465.571 890.827 465.302 890.019 465.302 889.48C465.302 889.211 465.032 888.133 465.032 887.864C465.032 887.325 465.032 886.786 465.032 886.247C465.032 885.708 465.032 884.9 465.032 884.361C465.032 884.092 465.032 884.092 465.032 884.092V883.822C465.032 883.014 465.302 882.475 465.571 881.667C465.571 881.397 465.841 881.397 465.841 881.128C465.841 881.128 466.11 880.859 466.11 880.589C466.11 880.589 466.11 880.589 466.379 880.589H466.649C466.918 880.589 467.188 880.589 467.188 880.589C467.188 880.589 467.457 880.859 467.727 880.859C470.151 882.206 470.69 882.745 472.576 884.361C473.923 885.439 475.001 885.978 476.348 886.247C476.617 887.055 476.887 888.672 476.887 888.672C477.156 890.019 477.156 890.827 477.156 891.635Z" fill="#FCEEAA"/>
<path d="M293.146 975.963C295.57 969.497 294.223 962.762 290.99 956.835C293.684 956.565 296.379 956.296 299.342 956.296C304.192 956.026 309.311 955.487 314.16 954.949C317.932 954.41 320.087 949.56 319.279 946.058C318.202 942.017 314.16 940.4 310.388 940.939H310.119C309.85 940.939 309.85 940.939 309.58 940.939C308.502 940.939 307.694 941.208 306.617 941.208C303.922 941.478 301.498 941.747 298.803 941.747C292.337 942.286 285.602 942.825 279.136 943.633C267.012 945.25 253.81 947.674 244.381 955.757C235.221 963.57 235.49 978.657 244.65 986.471C253.272 993.745 266.473 994.553 276.98 990.512C283.985 987.818 290.182 983.238 293.146 975.963ZM275.364 975.424C274.825 975.694 274.286 975.963 273.747 976.233C273.478 976.502 273.209 976.502 273.209 976.502H272.939C271.861 977.041 270.784 977.31 269.437 977.58C268.898 977.58 266.743 978.119 266.743 978.119C265.665 978.119 264.587 978.388 263.779 978.388C263.24 978.388 262.701 978.388 261.893 978.388C261.624 978.388 260.815 978.388 260.276 978.119C259.468 977.849 258.391 977.849 257.582 977.58C257.313 977.58 257.043 977.31 256.774 977.31C257.313 977.58 256.235 977.041 255.966 976.772C255.427 976.502 255.158 976.233 254.619 975.963C254.619 975.963 254.619 975.963 254.349 975.963C254.08 975.694 253.541 975.155 253.272 974.886C253.272 974.886 253.002 974.616 253.002 974.347C253.002 974.077 252.733 973.539 252.463 973.539C252.463 973.269 252.194 973 252.194 972.73C252.194 972.461 251.924 971.922 251.924 971.653C251.924 971.383 251.924 970.844 251.924 970.575C251.924 970.575 251.924 970.305 251.924 970.036C251.924 969.767 252.194 969.228 252.194 968.958C252.194 968.958 252.194 968.958 252.194 968.689C252.194 968.42 253.002 967.611 253.002 967.342C253.541 966.803 254.08 966.264 254.619 965.725C253.81 966.264 256.235 964.648 256.774 964.378C257.582 963.839 258.66 963.301 259.738 962.762C259.738 962.762 260.815 962.223 261.085 962.223C261.893 961.954 262.701 961.684 263.779 961.415C267.82 960.068 271.861 958.99 275.633 958.451C275.903 958.99 276.172 959.798 276.442 960.337C278.328 963.301 279.136 964.378 279.944 967.072C279.944 967.342 279.944 967.611 280.213 968.15C280.213 968.42 280.213 968.958 280.213 969.228V969.497C280.213 970.036 279.944 970.575 279.675 971.114C279.944 970.575 279.405 971.653 278.866 972.461C278.597 972.461 277.519 973.808 277.25 974.347C277.25 974.347 276.98 974.616 276.711 974.886C275.903 974.886 275.633 975.155 275.364 975.424Z" fill="#FCEEAA"/>
<path d="M340.832 987.818C332.211 980.543 319.009 979.735 308.502 983.776C301.228 986.47 295.031 991.32 292.337 998.594C289.912 1005.06 291.259 1011.8 294.492 1017.72C291.798 1017.99 289.104 1018.26 286.14 1018.26C281.291 1018.53 276.172 1019.07 271.322 1019.61C267.55 1020.15 265.395 1025 266.203 1028.5C267.281 1032.54 271.322 1034.16 275.094 1033.62H275.363C275.633 1033.62 275.633 1033.62 275.902 1033.62C276.98 1033.62 277.788 1033.35 278.866 1033.35C281.56 1033.08 283.985 1032.81 286.679 1032.81C293.145 1032.27 299.88 1031.73 306.346 1030.92C318.47 1029.31 331.672 1026.88 341.101 1018.8C350.531 1010.72 349.992 995.631 340.832 987.818ZM333.558 1004.52C333.558 1004.79 333.288 1005.33 333.288 1005.6C333.288 1005.6 333.288 1005.6 333.288 1005.87C333.288 1006.14 332.48 1006.95 332.48 1007.22C331.941 1007.75 331.402 1008.29 330.864 1008.83C331.672 1008.29 329.247 1009.91 328.708 1010.18C327.9 1010.72 326.822 1011.26 325.745 1011.8C325.745 1011.8 324.667 1012.33 324.398 1012.33C323.589 1012.6 322.781 1012.87 321.703 1013.14C317.662 1014.49 313.621 1015.57 309.849 1016.11C309.579 1015.57 309.31 1014.76 309.041 1014.22C307.155 1011.26 306.346 1010.18 305.538 1007.48C305.538 1007.22 305.538 1006.95 305.269 1006.41C305.269 1006.14 305.269 1005.6 305.269 1005.33V1005.06C305.269 1004.52 305.538 1003.98 305.808 1003.44C305.538 1003.98 306.077 1002.9 306.616 1002.1C306.885 1002.1 307.963 1000.75 308.232 1000.21C308.232 1000.21 308.502 999.941 308.771 999.672C309.041 999.402 309.579 999.133 309.849 998.864C310.388 998.594 310.927 998.325 311.465 998.055C311.735 997.786 312.004 997.786 312.004 997.786H312.274C313.351 997.247 314.429 996.978 315.776 996.708C316.315 996.708 318.47 996.169 318.47 996.169C319.548 996.169 320.626 995.9 321.434 995.9C321.973 995.9 322.512 995.9 323.32 995.9C323.589 995.9 324.398 995.9 324.936 996.169C325.745 996.439 326.822 996.439 327.631 996.708C327.9 996.708 328.169 996.978 328.439 996.978C327.9 996.708 328.978 997.247 329.247 997.517C329.786 997.786 330.055 998.055 330.594 998.325C330.594 998.325 330.594 998.325 330.864 998.325C331.133 998.594 331.672 999.133 331.941 999.402C331.941 999.402 332.211 999.672 332.211 999.941C332.211 1000.21 332.48 1000.75 332.75 1000.75C332.75 1001.02 333.019 1001.29 333.019 1001.56C333.019 1001.83 333.288 1002.37 333.288 1002.64C333.288 1002.9 333.288 1003.44 333.288 1003.71C333.558 1003.98 333.558 1004.25 333.558 1004.52Z" fill="#FCEEAA"/>
<path d="M68.1768 943.364C63.3273 948.483 55.5141 948.483 47.9704 947.944C40.1572 947.136 32.0746 944.172 25.3391 940.131C17.2566 935.281 10.2517 947.674 18.0648 952.524C19.4119 953.332 21.0285 954.14 22.3756 954.949V1018.26V1018.53C19.1425 1020.15 15.9095 1022.3 12.9459 1024.73C9.98226 1027.15 10.2517 1032.27 12.9459 1034.97C15.9095 1037.93 20.2202 1037.39 23.1838 1034.97C34.4994 1025.54 50.3951 1027.42 59.8248 1038.47C66.0215 1045.47 76.2594 1035.24 70.0628 1028.23C67.638 1025.54 64.9438 1023.11 61.9802 1021.23V962.223C68.1768 960.876 73.8346 958.451 78.1453 953.602C84.8808 946.866 74.6429 936.628 68.1768 943.364ZM47.7009 1015.03C46.3539 1014.76 45.0068 1014.49 43.6597 1014.49C41.5043 1014.22 39.349 1014.22 37.1936 1014.49V960.876C40.6961 961.954 44.1985 962.492 47.9704 963.031V1015.03H47.7009Z" fill="#FCEEAA"/>
<path d="M21.3011 95.7726C23.7259 92.2702 26.4201 90.1148 30.4614 89.0371C29.3837 95.7726 29.6531 102.777 31.539 108.974C35.8497 121.906 48.7818 125.948 61.1751 122.176C67.1023 120.29 71.6824 116.787 74.1072 110.86C75.9931 106.011 74.646 100.892 72.4907 96.3114C68.18 87.1512 58.2115 80.1463 48.5124 76.6439C49.5901 73.6803 50.9372 70.9861 52.5537 68.0225C53.362 66.6754 54.1702 65.3283 54.9785 64.2506C55.2479 63.9812 55.5173 63.4424 55.7867 63.1729C55.7867 63.1729 56.595 62.0953 56.8644 61.8258C57.6727 60.7482 58.4809 59.9399 59.5586 59.1317C59.5586 59.1317 59.5586 59.1317 59.828 59.1317C60.3668 58.8622 60.9057 58.5928 61.4445 58.3234C68.9883 54.0127 63.5999 43.5054 55.7867 45.1219C46.0876 47.0078 30.7308 47.8161 22.9177 40.0029C16.1822 33.5369 5.94427 43.7748 12.6797 50.2408C19.954 57.2457 30.192 60.2093 40.6993 60.4788C38.2745 64.7895 36.3886 69.3696 34.7721 73.4109C34.7721 73.6803 34.7721 73.6803 34.5027 73.9497C24.2648 74.2191 15.1045 79.0686 9.17729 88.2289C3.5195 96.3114 15.9128 103.586 21.3011 95.7726ZM44.4711 93.6172C44.4711 92.809 44.4712 92.2702 44.7406 91.4619C44.7406 91.4619 44.7406 91.4619 44.7406 91.1925C44.7406 91.1925 44.7406 90.9231 44.7406 90.6536C45.01 90.6536 45.01 90.6536 45.2794 90.9231C45.8182 91.1925 46.0877 91.4619 46.6265 91.4619C47.7042 92.0007 48.7818 92.5396 49.8595 93.3478C52.8231 95.2338 52.5537 94.9643 55.2479 97.3891C56.0561 98.1974 56.8644 99.0056 57.6726 99.8139C57.6726 99.8139 57.9421 100.083 58.2115 100.353C58.4809 100.622 58.7503 100.892 58.7503 101.161C59.2892 101.7 59.5586 102.508 59.828 103.047C59.5586 102.777 60.0974 103.855 60.3668 104.663C60.3668 104.933 60.3668 105.202 60.3668 105.741C60.3668 105.741 60.3669 106.011 60.0974 106.011C59.828 106.28 59.828 106.28 59.5586 106.549C59.2892 106.819 58.7504 107.088 58.2115 107.358L57.1338 107.896C56.595 108.166 55.7867 108.166 55.2479 108.435C55.2479 108.435 53.6314 108.705 53.9008 108.705C53.362 108.705 52.8231 108.705 52.2843 108.705C51.7454 108.705 50.9372 108.705 50.3983 108.705H50.129C49.5901 108.705 49.0513 108.435 48.5124 108.166C48.5124 108.166 48.243 107.896 47.9736 107.896C47.9736 107.896 47.7042 107.627 47.4348 107.627C47.1653 107.358 46.8959 107.088 46.6265 106.819C46.3571 106.28 46.0877 106.011 45.8182 105.472L45.5488 104.933C45.5488 104.663 45.2794 104.125 45.2794 103.855C45.01 103.316 45.01 102.777 44.7406 102.239C44.7406 101.969 44.4711 100.892 44.4711 100.622C44.2017 98.4668 44.2017 96.042 44.4711 93.6172Z" fill="#FCEEAA"/>
</g>
<defs>
<clipPath id="clip0">
<rect width="1071.48" height="1071.48" fill="white" transform="translate(-367.739 0.398376)"/>
</clipPath>
</defs>
</svg>
