<svg width="29" height="29" viewBox="0 0 29 29" fill="none" xmlns="http://www.w3.org/2000/svg">
<rect width="28.125" height="28.125" rx="14.0625" fill="#71164E"/>
<path fill-rule="evenodd" clip-rule="evenodd" d="M17.9229 21.0745C18.9058 21.5045 19.2744 20.6035 19.2744 20.6035L21.875 7.53888C21.8545 6.65835 20.6668 7.19077 20.6668 7.19077L6.10739 12.904C6.10739 12.904 5.41116 13.1497 5.47259 13.5797C5.53402 14.0097 6.08691 14.2145 6.08691 14.2145L9.75237 15.4432C9.75237 15.4432 10.8581 19.0677 11.0834 19.7639C11.2882 20.4397 11.4725 20.4601 11.4725 20.4601C11.6772 20.542 11.8615 20.3987 11.8615 20.3987L14.2369 18.2486L17.9229 21.0745ZM18.5588 9.85283C18.5588 9.85283 19.0707 9.54567 19.0502 9.85283C19.0502 9.85283 19.1321 9.89379 18.8659 10.1805C18.6202 10.4262 12.8251 15.6275 12.0469 16.3237C11.9855 16.3646 11.9446 16.4261 11.9446 16.508L11.7193 18.4329C11.6784 18.6376 11.4121 18.6581 11.3507 18.4738L10.3883 15.3203C10.3473 15.1974 10.3883 15.0541 10.5111 14.9722L18.5588 9.85283Z" fill="white"/>
</svg>
