<svg width="40" height="40" viewBox="0 0 40 40" fill="none" xmlns="http://www.w3.org/2000/svg">
<rect width="39.375" height="39.375" rx="19.6875" fill="#71164E"/>
<path fill-rule="evenodd" clip-rule="evenodd" d="M25.0925 29.5042C26.4686 30.1063 26.9846 28.8449 26.9846 28.8449L30.6255 10.5544C30.5968 9.3217 28.9341 10.0671 28.9341 10.0671L8.55083 18.0656C8.55083 18.0656 7.57611 18.4096 7.66211 19.0116C7.74812 19.6136 8.52216 19.9003 8.52216 19.9003L13.6538 21.6204C13.6538 21.6204 15.2019 26.6947 15.5172 27.6695C15.8039 28.6155 16.0619 28.6442 16.0619 28.6442C16.3486 28.7589 16.6066 28.5582 16.6066 28.5582L19.9322 25.548L25.0925 29.5042ZM25.9803 13.7939C25.9803 13.7939 26.697 13.3639 26.6684 13.7939C26.6684 13.7939 26.783 13.8513 26.4104 14.2526C26.0663 14.5966 17.9532 21.8784 16.8638 22.8531C16.7778 22.9105 16.7204 22.9965 16.7204 23.1111L16.4051 25.806C16.3477 26.0927 15.9751 26.1213 15.8891 25.8633L14.5416 21.4484C14.4843 21.2764 14.5416 21.0757 14.7137 20.961L25.9803 13.7939Z" fill="white"/>
</svg>
