<svg width="40" height="40" viewBox="0 0 40 40" fill="none" xmlns="http://www.w3.org/2000/svg">
<rect width="39.375" height="39.375" rx="19.6875" fill="#71164E"/>
<path d="M28.3887 11.0265C27.8098 10.4943 25.4662 8.79034 20.2423 8.767C20.2423 8.767 14.0848 8.39353 11.083 11.1479C9.41171 12.8191 8.8235 15.2607 8.76281 18.2951C8.70212 21.3249 8.62276 27.0063 14.0988 28.5469H14.1034L14.0988 30.8951C14.0988 30.8951 14.0661 31.8474 14.6916 32.0388C15.4479 32.2723 15.8961 31.5487 16.6197 30.769C17.0165 30.3396 17.5627 29.714 17.9782 29.2331C21.7222 29.5459 24.6026 28.827 24.9294 28.7196C25.6857 28.4722 29.9666 27.926 30.6622 22.2446C31.3811 16.3998 30.312 12.6978 28.3887 11.0265ZM29.0236 21.8338C28.4353 26.5768 24.9667 26.8756 24.3272 27.081C24.0564 27.1697 21.5261 27.8 18.3423 27.5899C18.3423 27.5899 15.9708 30.4516 15.2332 31.1939C15.1165 31.3106 14.9811 31.3573 14.8924 31.3339C14.7663 31.3012 14.729 31.1518 14.7337 30.9324C14.7337 30.615 14.7523 27.025 14.7523 27.025C14.7477 27.025 14.7477 27.025 14.7523 27.025C10.1166 25.7412 10.3874 20.9048 10.4388 18.3745C10.4901 15.8443 10.9663 13.7668 12.3808 12.371C14.9157 10.0741 20.149 10.4149 20.149 10.4149C24.5653 10.4336 26.68 11.7641 27.1702 12.2076C28.7995 13.6081 29.6304 16.946 29.0236 21.8338Z" fill="white"/>
<path d="M22.3962 18.4631C22.2421 18.4631 22.1114 18.3418 22.102 18.183C22.0507 17.1793 21.5792 16.6892 20.6175 16.6378C20.4541 16.6285 20.3281 16.4884 20.3374 16.325C20.3467 16.1616 20.4868 16.0356 20.6502 16.0449C21.92 16.1149 22.6296 16.8432 22.6949 18.1504C22.7043 18.3138 22.5782 18.4538 22.4148 18.4585C22.4055 18.4631 22.4008 18.4631 22.3962 18.4631Z" fill="white"/>
<path d="M23.9088 18.9675H23.9041C23.7407 18.9628 23.61 18.8275 23.6146 18.6641C23.638 17.6557 23.3485 16.8387 22.7323 16.1665C22.1208 15.4942 21.2758 15.1301 20.16 15.0507C19.9967 15.0367 19.8753 14.8967 19.8893 14.7333C19.9033 14.5699 20.0433 14.4485 20.2067 14.4625C21.4672 14.5559 22.4616 14.9947 23.1711 15.7697C23.8854 16.5493 24.2309 17.525 24.2075 18.6781C24.2029 18.8415 24.0675 18.9675 23.9088 18.9675Z" fill="white"/>
<path d="M25.4589 19.5743C25.2955 19.5743 25.1648 19.4436 25.1648 19.2802C25.1508 17.4735 24.6326 16.0964 23.5776 15.0647C22.5365 14.047 21.2154 13.5288 19.6608 13.5148C19.4974 13.5148 19.3667 13.3794 19.3667 13.216C19.3667 13.0526 19.5021 12.9219 19.6608 12.9219C21.3741 12.9359 22.8306 13.5101 23.9837 14.6398C25.1415 15.7696 25.7344 17.3288 25.753 19.2709C25.7577 19.4389 25.627 19.5743 25.4589 19.5743C25.4636 19.5743 25.4636 19.5743 25.4589 19.5743Z" fill="white"/>
<path d="M20.6863 22.1184C20.6863 22.1184 21.1018 22.1558 21.3259 21.8803L21.76 21.3341C21.9701 21.0634 22.479 20.8907 22.9738 21.1661C23.2492 21.3201 23.7488 21.6283 24.0569 21.857C24.3883 22.0998 25.0606 22.66 25.0652 22.6646C25.3873 22.9354 25.462 23.3322 25.2426 23.757C25.2426 23.757 25.2426 23.7617 25.2426 23.7664C25.0185 24.1632 24.7151 24.5367 24.337 24.8821C24.3323 24.8821 24.3323 24.8868 24.3276 24.8868C24.0148 25.1482 23.7067 25.2976 23.408 25.3303C23.3706 25.3396 23.3286 25.3396 23.2726 25.3396C23.1419 25.3396 23.0111 25.3209 22.8804 25.2789L22.8711 25.2649C22.4043 25.1342 21.6293 24.8074 20.3408 24.0932C19.5005 23.631 18.8049 23.1595 18.2121 22.688C17.8993 22.4406 17.5818 22.1651 17.255 21.8383C17.2457 21.829 17.2317 21.815 17.2224 21.8057C17.213 21.7963 17.199 21.7823 17.1897 21.773C17.1803 21.7636 17.1663 21.7496 17.157 21.7403C17.1477 21.731 17.1337 21.717 17.1243 21.7076C16.8022 21.3808 16.5221 21.0634 16.2747 20.7506C15.8032 20.1624 15.3317 19.4621 14.8695 18.6218C14.1552 17.3287 13.8285 16.5537 13.6977 16.0916L13.6837 16.0822C13.6417 15.9515 13.623 15.8208 13.623 15.6901C13.623 15.6341 13.623 15.592 13.6324 15.5547C13.6697 15.2513 13.8191 14.9478 14.0759 14.635C14.0759 14.6304 14.0805 14.6304 14.0805 14.6257C14.426 14.2429 14.7995 13.9441 15.1963 13.72C15.1963 13.72 15.201 13.72 15.2056 13.72C15.6258 13.5006 16.0226 13.5753 16.298 13.8974C16.298 13.8974 16.8629 14.5743 17.1057 14.9058C17.3344 15.2186 17.6425 15.7134 17.7966 15.9889C18.072 16.4837 17.8993 16.9926 17.6285 17.2026L17.0823 17.6368C16.8069 17.8609 16.8442 18.2764 16.8442 18.2764C16.8442 18.2764 17.6519 21.3482 20.6863 22.1184Z" fill="white"/>
</svg>
