<svg width="29" height="29" viewBox="0 0 29 29" fill="none" xmlns="http://www.w3.org/2000/svg">
<rect width="28.125" height="28.125" rx="14.0625" fill="#71164E"/>
<path d="M20.278 7.87606C19.8645 7.49592 18.1905 6.27881 14.4592 6.26214C14.4592 6.26214 10.0609 5.99538 7.91677 7.96276C6.723 9.15653 6.30285 10.9005 6.2595 13.068C6.21615 15.2321 6.15946 19.2902 10.0709 20.3906H10.0742L10.0709 22.0679C10.0709 22.0679 10.0475 22.7482 10.4944 22.8849C11.0346 23.0516 11.3547 22.5348 11.8715 21.9779C12.155 21.6711 12.5451 21.2243 12.8419 20.8808C15.5162 21.1042 17.5736 20.5907 17.807 20.514C18.3472 20.3373 21.405 19.9471 21.9019 15.889C22.4154 11.7141 21.6518 9.06983 20.278 7.87606ZM20.7315 15.5956C20.3113 18.9835 17.8337 19.1969 17.3769 19.3436C17.1835 19.4069 15.3762 19.8571 13.102 19.7071C13.102 19.7071 11.408 21.7511 10.8812 22.2813C10.7978 22.3647 10.7011 22.398 10.6378 22.3814C10.5477 22.358 10.5211 22.2513 10.5244 22.0946C10.5244 21.8678 10.5377 19.3036 10.5377 19.3036C10.5344 19.3036 10.5344 19.3036 10.5377 19.3036C7.22652 18.3866 7.41992 14.932 7.4566 13.1246C7.49328 11.3173 7.83341 9.83345 8.84377 8.83641C10.6544 7.19582 14.3925 7.43924 14.3925 7.43924C17.547 7.45258 19.0575 8.40292 19.4076 8.71971C20.5714 9.72007 21.1649 12.1043 20.7315 15.5956Z" fill="white"/>
<path d="M15.9973 13.1879C15.8872 13.1879 15.7938 13.1012 15.7872 12.9878C15.7505 12.2708 15.4137 11.9207 14.7268 11.884C14.6101 11.8774 14.52 11.7773 14.5267 11.6606C14.5334 11.5439 14.6334 11.4539 14.7501 11.4606C15.6571 11.5106 16.164 12.0308 16.2107 12.9644C16.2173 13.0811 16.1273 13.1812 16.0106 13.1845C16.0039 13.1879 16.0006 13.1879 15.9973 13.1879Z" fill="white"/>
<path d="M17.0776 13.5482H17.0743C16.9576 13.5449 16.8642 13.4482 16.8676 13.3315C16.8842 12.6112 16.6775 12.0277 16.2373 11.5475C15.8005 11.0673 15.197 10.8072 14.4 10.7505C14.2833 10.7405 14.1966 10.6405 14.2066 10.5238C14.2166 10.4071 14.3166 10.3204 14.4333 10.3304C15.3337 10.3971 16.0439 10.7105 16.5508 11.2641C17.061 11.8209 17.3077 12.5178 17.2911 13.3415C17.2877 13.4582 17.191 13.5482 17.0776 13.5482Z" fill="white"/>
<path d="M18.1851 13.9815C18.0684 13.9815 17.975 13.8881 17.975 13.7714C17.965 12.4809 17.5949 11.4972 16.8413 10.7603C16.0977 10.0334 15.154 9.66323 14.0436 9.65322C13.9269 9.65322 13.8335 9.55652 13.8335 9.43981C13.8335 9.3231 13.9302 9.22974 14.0436 9.22974C15.2674 9.23974 16.3077 9.64989 17.1314 10.4569C17.9583 11.2638 18.3818 12.3776 18.3952 13.7647C18.3985 13.8848 18.3051 13.9815 18.1851 13.9815C18.1884 13.9815 18.1884 13.9815 18.1851 13.9815Z" fill="white"/>
<path d="M14.7771 15.7988C14.7771 15.7988 15.0739 15.8255 15.2339 15.6287L15.5441 15.2386C15.6941 15.0452 16.0576 14.9218 16.411 15.1186C16.6078 15.2286 16.9646 15.4487 17.1847 15.6121C17.4214 15.7855 17.9016 16.1856 17.9049 16.189C18.135 16.3824 18.1884 16.6658 18.0316 16.9692C18.0316 16.9692 18.0316 16.9726 18.0316 16.9759C17.8716 17.2593 17.6548 17.5261 17.3847 17.7729C17.3814 17.7729 17.3814 17.7762 17.3781 17.7762C17.1546 17.9629 16.9346 18.0696 16.7212 18.093C16.6945 18.0997 16.6645 18.0997 16.6245 18.0997C16.5311 18.0997 16.4377 18.0863 16.3444 18.0563L16.3377 18.0463C16.0042 17.9529 15.4507 17.7195 14.5304 17.2093C13.9301 16.8792 13.4333 16.5424 13.0098 16.2056C12.7864 16.0289 12.5596 15.8322 12.3262 15.5987C12.3195 15.5921 12.3095 15.5821 12.3029 15.5754C12.2962 15.5687 12.2862 15.5587 12.2795 15.5521C12.2729 15.5454 12.2629 15.5354 12.2562 15.5287C12.2495 15.522 12.2395 15.512 12.2328 15.5054C12.0028 15.272 11.8027 15.0452 11.626 14.8218C11.2892 14.4016 10.9524 13.9015 10.6223 13.3012C10.1121 12.3776 9.87865 11.824 9.78529 11.4939L9.77528 11.4872C9.74527 11.3939 9.73193 11.3005 9.73193 11.2071C9.73193 11.1671 9.73193 11.1371 9.7386 11.1104C9.76528 10.8937 9.87198 10.6769 10.0554 10.4535C10.0554 10.4502 10.0587 10.4502 10.0587 10.4469C10.3055 10.1734 10.5722 9.96001 10.8557 9.79995C10.8557 9.79995 10.859 9.79995 10.8623 9.79995C11.1625 9.64323 11.4459 9.69658 11.6426 9.92667C11.6426 9.92667 12.0461 10.4102 12.2195 10.6469C12.3829 10.8703 12.603 11.2238 12.713 11.4205C12.9098 11.774 12.7864 12.1375 12.593 12.2875L12.2028 12.5976C12.0061 12.7577 12.0328 13.0545 12.0328 13.0545C12.0328 13.0545 12.6097 15.2486 14.7771 15.7988Z" fill="white"/>
</svg>
