<svg width="29" height="29" viewBox="0 0 29 29" fill="none" xmlns="http://www.w3.org/2000/svg">
<rect width="28.125" height="28.125" rx="14.0625" fill="#71164E"/>
<path fill-rule="evenodd" clip-rule="evenodd" d="M21.753 10.0452C21.8689 9.65892 21.753 9.375 21.2016 9.375H19.3782C18.9146 9.375 18.701 9.62024 18.5851 9.89075C18.5851 9.89075 17.6578 12.1508 16.3442 13.6188C15.9192 14.0438 15.7261 14.1789 15.4943 14.1789C15.3784 14.1789 15.2106 14.0438 15.2106 13.6575V10.0452C15.2106 9.58156 15.0761 9.375 14.6897 9.375H11.8244C11.5347 9.375 11.3605 9.59015 11.3605 9.79411C11.3605 10.2337 12.0172 10.335 12.0849 11.5712V14.2563C12.0849 14.845 11.9786 14.9518 11.7468 14.9518C11.1287 14.9518 9.62519 12.6815 8.73331 10.0839C8.55853 9.57895 8.38323 9.375 7.91724 9.375H6.0939C5.57294 9.375 5.46875 9.62024 5.46875 9.89075C5.46875 10.3737 6.08699 12.769 8.34703 15.9369C9.85389 18.1002 11.9765 19.2731 13.9082 19.2731C15.0673 19.2731 15.2106 19.0127 15.2106 18.564V16.9288C15.2106 16.4079 15.3204 16.304 15.6873 16.304C15.9579 16.304 16.4214 16.4391 17.5033 17.4822C18.7396 18.7183 18.9432 19.2731 19.6387 19.2731H21.4621C21.983 19.2731 22.2435 19.0127 22.0932 18.4986C21.9288 17.9863 21.3386 17.2431 20.5553 16.3619C20.1304 15.8596 19.4929 15.3187 19.2998 15.0483C19.0293 14.7006 19.1066 14.5461 19.2998 14.2372C19.2998 14.2372 21.5212 11.1078 21.753 10.0453V10.0452Z" fill="white"/>
</svg>
