<svg width="40" height="40" viewBox="0 0 40 40" fill="none" xmlns="http://www.w3.org/2000/svg">
<rect width="39.375" height="39.375" rx="19.6875" fill="#71164E"/>
<path fill-rule="evenodd" clip-rule="evenodd" d="M30.4547 14.0633C30.617 13.5225 30.4547 13.125 29.6827 13.125H27.13C26.4809 13.125 26.1819 13.4683 26.0196 13.847C26.0196 13.847 24.7214 17.0111 22.8824 19.0664C22.2874 19.6613 22.017 19.8504 21.6925 19.8504C21.5302 19.8504 21.2953 19.6613 21.2953 19.1205V14.0633C21.2953 13.4142 21.107 13.125 20.566 13.125H16.5546C16.1491 13.125 15.9052 13.4262 15.9052 13.7118C15.9052 14.3271 16.8245 14.469 16.9193 16.1997V19.9589C16.9193 20.783 16.7705 20.9326 16.446 20.9326C15.5806 20.9326 13.4758 17.7541 12.2271 14.1174C11.9824 13.4105 11.737 13.125 11.0846 13.125H8.53194C7.80261 13.125 7.65674 13.4683 7.65674 13.847C7.65674 14.5231 8.52228 17.8766 11.6863 22.3117C13.7959 25.3403 16.7676 26.9824 19.472 26.9824C21.0948 26.9824 21.2953 26.6177 21.2953 25.9896V23.7004C21.2953 22.9711 21.449 22.8255 21.9627 22.8255C22.3416 22.8255 22.9905 23.0148 24.5051 24.4751C26.2359 26.2057 26.521 26.9824 27.4947 26.9824H30.0474C30.7767 26.9824 31.1414 26.6177 30.931 25.8981C30.7009 25.1808 29.8745 24.1404 28.778 22.9067C28.183 22.2034 27.2905 21.4462 27.0203 21.0677C26.6416 20.5808 26.7497 20.3646 27.0203 19.9321C27.0203 19.9321 30.1302 15.551 30.4547 14.0635V14.0633Z" fill="white"/>
</svg>
