<svg width="29" height="29" viewBox="0 0 29 29" fill="none" xmlns="http://www.w3.org/2000/svg">
<rect width="28.125" height="28.125" rx="14.0625" fill="#71164E"/>
<path d="M19.4074 9.15963C18.0673 7.78012 16.2148 7.03125 14.3229 7.03125C10.3026 7.03125 7.07066 10.3026 7.11008 14.2835C7.11008 15.4924 7.43598 16.6652 7.98367 17.7322C8.02934 17.8212 8.04131 17.924 8.0149 18.0205L7.20899 20.9652C7.1298 21.2545 7.39277 21.5214 7.68325 21.4465L10.7035 20.6681C10.8004 20.6431 10.903 20.6568 10.9916 20.7033C12.0198 21.2435 13.1516 21.4963 14.2835 21.4963C18.2644 21.4963 21.4963 18.2249 21.4963 14.2441C21.4963 12.3128 20.7475 10.4997 19.4074 9.15963ZM14.3229 20.2745C13.2587 20.2745 12.1945 19.9986 11.288 19.4468L11.1824 19.394C11.098 19.3518 11.0012 19.3416 10.9099 19.3652L9.41064 19.7529C9.12173 19.8276 8.85913 19.5639 8.93507 19.2753L9.31199 17.843C9.34042 17.735 9.32122 17.6199 9.25924 17.527L9.19904 17.4367C7.46481 14.6382 8.29251 10.9333 11.1303 9.19904C13.9682 7.46481 17.6337 8.29251 19.368 11.1303C21.1022 13.9682 20.2745 17.6337 17.4367 19.368C16.5301 19.9592 15.4265 20.2745 14.3229 20.2745ZM17.7914 15.8995L17.3604 15.7036C17.3587 15.7028 17.3572 15.7021 17.3555 15.7014C17.3163 15.6842 16.7943 15.4551 16.4157 15.2702C16.3612 15.2436 16.3037 15.2198 16.2474 15.1973C16.2365 15.193 16.2257 15.19 16.2148 15.19C16.1248 15.19 16.0576 15.2129 15.9959 15.2412C15.9577 15.2587 15.9244 15.2844 15.8963 15.3157C15.8377 15.3811 15.7002 15.5362 15.381 15.9008C15.3591 15.9258 15.3417 15.9553 15.3203 15.9807C15.2774 16.0317 15.214 16.0571 15.1506 16.0571H15.1112C15.0884 16.0571 15.0523 16.0439 15.0183 16.0251C14.9721 15.9995 14.9282 15.9682 14.8791 15.9485L14.7565 15.8995C14.3229 15.7024 13.9288 15.4659 13.6135 15.1506C13.5346 15.0718 13.4164 14.993 13.3376 14.9141C13.0617 14.6382 12.7858 14.3229 12.5887 13.9682L12.5776 13.9461C12.5588 13.9085 12.5314 13.8753 12.5146 13.8368C12.5118 13.8304 12.5092 13.8237 12.5064 13.8166C12.4846 13.76 12.4677 13.7 12.473 13.6395C12.4759 13.6054 12.4824 13.5747 12.4966 13.5516C12.5041 13.5393 12.5143 13.5291 12.5234 13.5179C12.564 13.4679 12.6883 13.3168 12.7858 13.2193C12.8555 13.1496 12.8944 13.049 12.957 12.9722C12.9732 12.9522 12.9904 12.9328 13.0032 12.9105C13.0681 12.7971 13.0975 12.6568 13.0617 12.5493C13.0222 12.3522 12.5493 11.288 12.431 11.0515C12.3662 10.9543 12.3014 10.9104 12.2148 10.8759C12.1757 10.8604 12.1337 10.8544 12.0917 10.8544H12.0369C11.9581 10.8544 11.8398 10.8544 11.7216 10.8544C11.656 10.8544 11.5905 10.8817 11.525 10.8909C11.4996 10.8944 11.4749 10.904 11.4568 10.9222C11.4494 10.9295 11.4409 10.9356 11.4318 10.9406C11.3757 10.9717 11.3196 11.0205 11.2636 11.0585C11.2288 11.082 11.1934 11.1056 11.1664 11.1377C11.1132 11.2009 11.0753 11.2642 11.0121 11.3274C10.7362 11.6821 10.5785 12.1157 10.5785 12.5493C10.5785 12.8646 10.6574 13.1799 10.7756 13.4558L10.815 13.574C11.1698 14.3229 11.6427 14.993 12.2734 15.5842L12.431 15.7418C12.5342 15.845 12.6374 15.9182 12.7144 16.0138C12.7368 16.0416 12.7601 16.069 12.7874 16.0921C13.6053 16.7834 14.5375 17.2835 15.5842 17.5549C15.683 17.5878 15.8093 17.5932 15.9172 17.6171C15.9582 17.6262 15.9997 17.6337 16.0417 17.6337C16.1491 17.6337 16.2743 17.6337 16.3725 17.6337C16.5695 17.6337 16.806 17.5549 16.9637 17.4761C17.0819 17.3972 17.1608 17.3972 17.2396 17.3184L17.3184 17.2396C17.3972 17.1608 17.4761 17.1213 17.5549 17.0425C17.6337 16.9637 17.7126 16.8849 17.752 16.806C17.8257 16.6585 17.865 16.4764 17.902 16.2921C17.9071 16.2669 17.9096 16.2413 17.9096 16.2155C17.9096 16.186 17.9096 16.1535 17.9096 16.1209C17.9096 16.0296 17.873 15.9403 17.7914 15.8995Z" fill="white"/>
</svg>
