<svg width="40" height="40" viewBox="0 0 40 40" fill="none" xmlns="http://www.w3.org/2000/svg">
<rect width="39.375" height="39.375" rx="19.6875" fill="#71164E"/>
<path d="M27.1713 12.8235C25.2952 10.8922 22.7017 9.84375 20.0531 9.84375C14.4247 9.84375 9.89991 14.4237 9.95509 19.9969C9.95509 21.7103 10.4227 23.3718 11.2067 24.8805C11.2528 24.9693 11.2647 25.0721 11.2383 25.1686L10.0225 29.611C9.94328 29.9003 10.2062 30.1672 10.4967 30.0924L15.0463 28.9198C15.1432 28.8948 15.2458 28.9083 15.3341 28.9555C16.7881 29.7318 18.393 30.0949 19.9979 30.0949C25.5711 30.0949 30.0959 25.5149 30.0959 19.9417C30.0959 17.2379 29.0474 14.6996 27.1713 12.8235ZM20.0531 28.3843C18.5632 28.3843 17.0733 27.998 15.8042 27.2255L15.604 27.1254C15.5196 27.0832 15.4228 27.073 15.3315 27.0966L12.9178 27.7208C12.6289 27.7955 12.3663 27.5318 12.4422 27.2432L13.0556 24.9123C13.0841 24.8042 13.0649 24.6892 13.0029 24.5962L12.8796 24.4113C10.4517 20.4935 11.6105 15.3066 15.5835 12.8787C19.5564 10.4507 24.6882 11.6095 27.1161 15.5825C29.5441 19.5555 28.3853 24.6872 24.4123 27.1151C23.1431 27.9428 21.5981 28.3843 20.0531 28.3843ZM24.9089 22.2593L24.3045 21.9845C24.3028 21.9838 24.3011 21.983 24.2994 21.9823C24.2498 21.9606 23.4845 21.6248 22.9497 21.3621C22.8953 21.3353 22.835 21.3188 22.7807 21.2918C22.7544 21.2786 22.7281 21.266 22.7017 21.266C22.5645 21.266 22.4651 21.304 22.3723 21.3484C22.3344 21.3665 22.301 21.3918 22.2729 21.423C22.2012 21.5026 22.0122 21.7153 21.5213 22.2762C21.4994 22.3012 21.4813 22.3304 21.4617 22.3572C21.4019 22.4391 21.3069 22.48 21.2118 22.48H21.1567C21.1184 22.48 21.0536 22.4535 20.9991 22.4188C20.9544 22.3904 20.9106 22.3595 20.8615 22.3399L20.66 22.2593C20.0531 21.9834 19.5013 21.6523 19.0598 21.2109C18.9495 21.1005 18.7839 20.9901 18.6736 20.8798C18.2873 20.4935 17.901 20.0521 17.6251 19.5555L17.5983 19.5018C17.5795 19.4642 17.5522 19.4314 17.5324 19.3943C17.5193 19.3698 17.5099 19.3425 17.4967 19.3088C17.4747 19.2523 17.4583 19.1928 17.4608 19.1322C17.4636 19.0659 17.4724 19.0056 17.5009 18.9651C17.5092 18.9533 17.5192 18.943 17.5282 18.9318C17.5786 18.8696 17.7599 18.6482 17.901 18.507C18.0023 18.4058 18.0571 18.2581 18.1507 18.1492C18.1674 18.1297 18.1844 18.1102 18.1976 18.0881C18.294 17.927 18.3389 17.7238 18.2873 17.569C18.2321 17.2931 17.57 15.8032 17.4044 15.4721C17.3079 15.3274 17.2114 15.267 17.078 15.2172C17.0386 15.2025 16.9967 15.1962 16.9548 15.1962H16.8526C16.7422 15.1962 16.5767 15.1962 16.4112 15.1962C16.3194 15.1962 16.2277 15.2344 16.136 15.2472C16.1004 15.2522 16.0658 15.2657 16.0404 15.2911C16.0302 15.3013 16.0182 15.3098 16.0055 15.3168C15.9199 15.3644 15.8343 15.4411 15.7488 15.4958C15.7134 15.5184 15.6782 15.5421 15.6505 15.5736C15.567 15.6685 15.5129 15.7635 15.4179 15.8584C15.0317 16.355 14.8109 16.962 14.8109 17.569C14.8109 18.0104 14.9213 18.4519 15.0868 18.8381L15.142 19.0037C15.6386 20.0521 16.3008 20.9901 17.1837 21.8178L17.4044 22.0386C17.5549 22.1891 17.7054 22.294 17.8145 22.4362C17.8362 22.4646 17.8596 22.4919 17.8869 22.515C19.0359 23.4901 20.3465 24.1951 21.8188 24.5769C21.9648 24.6255 22.1536 24.6313 22.3097 24.6698C22.3505 24.6798 22.392 24.6872 22.434 24.6872C22.5896 24.6872 22.7773 24.6872 22.9224 24.6872C23.1983 24.6872 23.5294 24.5769 23.7501 24.4665C23.9157 24.3561 24.026 24.3561 24.1364 24.2458L24.2468 24.1354C24.3571 24.0251 24.4675 23.9699 24.5778 23.8595C24.6882 23.7492 24.7986 23.6388 24.8537 23.5284C24.959 23.3178 25.0141 23.057 25.0669 22.7938C25.0719 22.7686 25.0745 22.743 25.0745 22.7173C25.0745 22.6609 25.0745 22.5953 25.0745 22.5314C25.0745 22.4278 25.033 22.3271 24.9424 22.2769C24.9319 22.2711 24.9207 22.2652 24.9089 22.2593Z" fill="white"/>
</svg>
