<?xml version="1.0" encoding="utf-8"?><svg viewBox="0 0 73 81" xmlns="http://www.w3.org/2000/svg" xmlns:xlink="http://www.w3.org/1999/xlink"><style>:root>svg{display:none}:root>svg:target{display:block}</style><svg fill="none" viewBox="0 0 73 81" id="icon-bracelet" xmlns="http://www.w3.org/2000/svg"><path d="M44.5 60C56.926 60 67 49.926 67 37.5S56.926 15 44.5 15 22 25.074 22 37.5 32.074 60 44.5 60z" fill="#D0BFFF"/><path d="M58.062 61l.987 4L63 66l-3.95 1-.988 4-1.111-4L53 66l3.95-1 1.112-4zM11 3l1.098 3.976L16 7.94l-3.902 1.084L11 13l-.976-3.976L6 7.94l4.024-.964L11 3z" fill="#71164E"/><path d="M60.4 39.2a6.5 6.5 0 100-13 6.5 6.5 0 000 13zM16 53a6 6 0 100-12 6 6 0 000 12zM15.5 36a6.5 6.5 0 100-13 6.5 6.5 0 000 13zM54.1 55.2a6 6 0 100-12 6 6 0 000 12zM47 27a7 7 0 100-14 7 7 0 000 14zM29 25a7 7 0 100-14 7 7 0 000 14z" stroke="#28156B" stroke-width="2" stroke-miterlimit="10" stroke-linecap="round" stroke-linejoin="round"/><path d="M18 56.244l12.983-.805L34.723 43l.88 12.951L48 59.756l-12.983.805L31.277 73l-.88-12.951L18 56.244z" fill="#28156B"/><circle cx="17" cy="66" r="2" fill="#D0BFFF"/><circle cx="65" cy="10" r="2" fill="#D0BFFF"/></svg><svg fill="none" viewBox="0 0 71 71" id="icon-comfort" xmlns="http://www.w3.org/2000/svg"><path d="M26.5 56C38.926 56 49 45.926 49 33.5S38.926 11 26.5 11 4 21.074 4 33.5 14.074 56 26.5 56z" fill="#D0BFFF"/><path d="M57.297 60.804l.963 3.976 3.976.963-3.976 1.085-.963 3.976-1.085-3.976-3.976-1.085 3.976-.963 1.085-3.976zM5.873 0l1.085 3.976 3.976.964-3.976 1.084L5.873 10 4.91 6.024.934 4.94l3.976-.964L5.873 0z" fill="#71164E"/><path d="M60 39H19v12h41V39zM19 26.16V51h-5.714C12.029 51 11 50.028 11 48.84V26.16c0-1.188 1.029-2.16 2.286-2.16h3.428c1.372 0 2.286.972 2.286 2.16zM60 26.16V51h5.714C66.971 51 68 50.028 68 48.84V26.16c0-1.188-1.029-2.16-2.286-2.16h-3.428C61.029 24 60 24.972 60 26.16zM55 39H24V16.122C24 12.792 26.748 10 30.266 10h18.468C52.142 10 55 12.685 55 16.122V39z" stroke="#28156B" stroke-width="2" stroke-miterlimit="10" stroke-linecap="round"/><path d="M24.627 51v5M53.943 51v5" stroke="#28156B" stroke-width="2" stroke-miterlimit="10" stroke-linecap="round" stroke-linejoin="round"/><circle cx="61.699" cy="7.322" r="2" fill="#D0BFFF"/><circle cx="6.264" cy="63.739" r="2" fill="#D0BFFF"/></svg><svg fill="none" viewBox="0 0 68 70" id="icon-feedback" xmlns="http://www.w3.org/2000/svg"><path d="M34.5 64C46.926 64 57 53.926 57 41.5S46.926 19 34.5 19 12 29.074 12 41.5 22.074 64 34.5 64z" fill="#D0BFFF"/><path d="M8.502.898l1.066 3.92 4 1.08-4 1.082-1.066 3.918L7.435 6.98 3.568 5.898l3.867-1.08L8.502.897zM62.047 56.61l1.066 4 4 1.068-4 .933-1.066 4-.934-4-4-.933 4-1.067.934-4z" fill="#71164E"/><path d="M19.592 40.65c-2.474-2.25-3.977-5.13-3.977-8.19 0-7.47 8.484-13.5 19-13.5 10.517 0 19 6.03 19 13.5s-8.483 13.5-19 13.5c-4.242 0-8.218-.99-11.4-2.7" stroke="#28156B" stroke-width="2" stroke-miterlimit="10"/><path d="M24 43.511c-3.77 3.098-8 2.428-8 2.428C18.85 44.599 20.046 41 20.046 41" stroke="#1D0651" stroke-width="2" stroke-miterlimit="10" stroke-linecap="round" stroke-linejoin="round"/><path d="M11.422 34.415c-.625-1.527-.893-3.145-.893-4.762 0-9.885 11.512-17.972 25.612-17.972" stroke="#28156B" stroke-width="2" stroke-miterlimit="10" stroke-linecap="round" stroke-linejoin="round"/><path d="M3.48 34.416a17.23 17.23 0 01-.714-4.852C2.766 16.623 17.669 6.2 36.14 6.2" stroke="#28156B" stroke-width="2" stroke-miterlimit="10" stroke-linecap="round" stroke-linejoin="round"/><path d="M3.479 34.416h7.942" stroke="#28156B" stroke-width="2" stroke-miterlimit="10" stroke-linecap="round"/><path d="M36.14 6.2V1.617l12.672 7.099-12.671 7.099V11.68M57.39 31c.626 1.528.893 3.145.893 4.763 0 9.884-11.512 17.971-25.611 17.971" stroke="#28156B" stroke-width="2" stroke-miterlimit="10" stroke-linecap="round" stroke-linejoin="round"/><path d="M65.333 31a17.23 17.23 0 01.714 4.852c0 12.94-14.903 23.363-33.375 23.363" stroke="#28156B" stroke-width="2" stroke-miterlimit="10" stroke-linecap="round" stroke-linejoin="round"/><path d="M65.334 31h-7.942" stroke="#28156B" stroke-width="2" stroke-miterlimit="10" stroke-linecap="round"/><path d="M32.672 59.215v4.583L20 56.7l12.672-7.098v4.133" stroke="#28156B" stroke-width="2" stroke-miterlimit="10" stroke-linecap="round" stroke-linejoin="round"/><ellipse cx="7.34" cy="63.104" rx="1.986" ry="2" fill="#D0BFFF"/><ellipse cx="61.775" cy="13.682" rx="1.986" ry="2" fill="#D0BFFF"/></svg><svg fill="none" viewBox="0 0 71 67" id="icon-fixed" xmlns="http://www.w3.org/2000/svg"><path d="M23.537 53.246c12.427 0 22.5-10.074 22.5-22.5s-10.073-22.5-22.5-22.5c-12.426 0-22.5 10.074-22.5 22.5 0 12.427 10.074 22.5 22.5 22.5z" fill="#D0BFFF"/><path d="M51.017 55.548l.964 4.024 3.976.976-3.976 1.097-.964 3.903-1.084-3.903-3.976-1.097 3.976-.976 1.084-4.024zM10.043 1.546l.964 3.976 3.975.964-3.975 1.084-.964 3.976L8.958 7.57 4.982 6.486l3.976-.964 1.085-3.976z" fill="#71164E"/><path d="M61.72 50H18.28c-1.254 0-2.28-.957-2.28-2.128v-5.744C16 40.958 17.026 40 18.28 40h43.44c1.254 0 2.28.957 2.28 2.128v5.744C64 49.042 62.974 50 61.72 50zM62 29.114v5.702C62 37.72 59.69 40 56.75 40h-33.5C20.31 40 18 37.72 18 34.816V14.184C18 11.28 20.31 9 23.25 9h24.363" stroke="#28156B" stroke-width="2" stroke-miterlimit="10" stroke-linecap="round"/><path d="M66.953 28H49.047C48.42 28 48 27.59 48 26.973V2.027C48 1.41 48.419 1 49.047 1h17.906C67.58 1 68 1.41 68 2.027v24.946C68 27.59 67.581 28 66.953 28z" stroke="#28156B" stroke-width="2" stroke-miterlimit="10" stroke-linecap="round"/><path d="M54 10.205h8M54 16.492h8" stroke="#28156B" stroke-width="2" stroke-miterlimit="10" stroke-linecap="round" stroke-linejoin="round"/><path d="M2 58.63a2 2 0 100-4 2 2 0 000 4zM68.848 38.428a2 2 0 100-4 2 2 0 000 4z" fill="#D0BFFF"/></svg><svg fill="none" viewBox="0 0 70 59" id="icon-personal" xmlns="http://www.w3.org/2000/svg"><path d="M32.5 54C44.926 54 55 43.926 55 31.5S44.926 9 32.5 9 10 19.074 10 31.5 20.074 54 32.5 54z" fill="#D0BFFF"/><path d="M44.734 47.3H24.196c-.698 0-1.196-.5-1.196-1.1v-15c0-3.8 3.19-6.9 7.079-6.9h18.843C52.81 24.3 56 27.4 56 31.2" stroke="#28156B" stroke-width="2" stroke-miterlimit="10" stroke-linecap="round"/><path d="M60.94 12l1.084 3.976L66 17.06l-3.976.964L60.94 22l-.964-3.976L56 17.06l3.976-1.084L60.94 12zM5.94 7l1.084 3.902L11 12l-3.976.976L5.94 17l-.964-4.024L1 12l3.976-1.098L5.94 7z" fill="#71164E"/><path d="M21.9 5.2a2 2 0 100-4 2 2 0 000 4zM6 51a2 2 0 100-4 2 2 0 000 4z" fill="#D0BFFF"/><path d="M40 19.5a8 8 0 100-16 8 8 0 000 16zM56.5 55C62.851 55 68 49.851 68 43.5S62.851 32 56.5 32 45 37.149 45 43.5 50.149 55 56.5 55z" stroke="#28156B" stroke-width="2" stroke-miterlimit="10" stroke-linecap="round"/><path d="M51 42.6l4.304 4.4L62 40" stroke="#28156B" stroke-width="2" stroke-miterlimit="10" stroke-linecap="round" stroke-linejoin="round"/></svg><svg fill="none" viewBox="0 0 69 62" id="icon-prof" xmlns="http://www.w3.org/2000/svg"><path d="M34.61 45c12.426 0 22.5-10.074 22.5-22.5S47.035 0 34.61 0c-12.427 0-22.5 10.074-22.5 22.5S22.182 45 34.61 45z" fill="#D0BFFF"/><path d="M23.75 35.671c-4.975 0-9.669-1.226-13.424-3.208M6.102 29.537c-2.91-2.642-4.694-5.945-4.694-9.531 0-8.682 10.045-15.665 22.343-15.665 10.139 0 18.682 4.718 21.404 11.135" stroke="#28156B" stroke-width="2" stroke-miterlimit="10"/><path d="M10.42 32.557c-4.318 3.869-9.012 3.114-9.012 3.114 3.286-1.699 4.6-6.134 4.6-6.134" stroke="#28156B" stroke-width="2" stroke-miterlimit="10" stroke-linecap="round" stroke-linejoin="round"/><path d="M62.898 40.578c2.91-2.642 4.694-5.945 4.694-9.531 0-8.682-10.045-15.665-22.343-15.665s-22.343 6.983-22.343 15.665c0 8.682 10.045 15.665 22.343 15.665 5.07 0 9.67-1.132 13.425-3.114" stroke="#28156B" stroke-width="2" stroke-miterlimit="10"/><path d="M58.58 43.504c4.318 3.869 9.012 3.114 9.012 3.114-3.285-1.699-4.6-6.134-4.6-6.134M37.645 26.461h15M37.645 31.461h15M37.645 36.461h15" stroke="#28156B" stroke-width="2" stroke-miterlimit="10" stroke-linecap="round" stroke-linejoin="round"/><path d="M62.8 4.644l1 3.943 4 .986-4 1.127-1 3.944-1-3.944-4-1.127 4-.986 1-3.943zM12.192 43.315l1.035 3.908 3.908 1.035-3.908 1.034-1.035 4.023-1.034-4.023-4.023-1.035 4.023-1.034 1.034-3.908z" fill="#71164E"/><ellipse cx="47.05" cy="53.902" rx="1.99" ry="2" fill="#D0BFFF"/><circle cx="7.633" cy="2" r="2" fill="#D0BFFF"/></svg></svg>